<svg width="446" height="287" viewBox="0 0 446 287" fill="none" xmlns="http://www.w3.org/2000/svg">
<g clip-path="url(#clip0_457_111)">
<mask id="mask0_457_111" style="mask-type:luminance" maskUnits="userSpaceOnUse" x="2" y="2" width="444" height="285">
<path d="M402.435 269.328L418.146 268.839C418.146 268.839 411.25 275.832 412.909 225.949C414.568 176.066 419.525 7.03597 419.525 7.03597L442.682 2.88025L445.99 286.937C445.99 286.937 -3.11818 284.001 2.66845 282.242C8.45508 280.484 5.79663 267.031 5.79663 267.031L173.599 270.449L402.435 269.321V269.328Z" fill="white"/>
</mask>
<g mask="url(#mask0_457_111)">
<path d="M12.9025 274.825C149.913 277.711 287.023 278.03 424.053 275.782L426.411 276.3C421.854 256.968 422.444 237.232 423.033 217.637C425.072 150.855 427.121 84.0728 429.16 17.2976L423.503 15.4963C393.431 18.0422 363.108 20.5882 332.926 18.8365C312.568 17.6522 292.539 14.5319 272.251 12.8157C252.853 11.1775 233.284 10.8371 213.745 10.4967C193.237 10.1421 172.739 9.78754 152.231 9.42586C106.848 8.63869 61.1943 7.8586 16.3105 12.6526L11.3834 12.5107C11.8831 46.8841 12.3728 81.2574 12.8725 115.631C13.1723 136.686 13.4821 157.748 13.782 178.803C14.2417 210.432 14.7014 242.054 15.1512 273.683L12.8825 274.817L12.9025 274.825Z" fill="#5938E0"/>
<path d="M11.8631 235.735C11.8931 238.451 11.933 241.621 11.973 245.43C11.973 243.267 11.953 240.168 11.933 235.842C11.913 235.785 11.8931 235.742 11.8631 235.735Z" fill="#5938E0"/>
<path d="M11.963 272.413C11.8131 271.796 11.6132 271.179 11.4533 270.562C11.2934 269.981 12.2928 269.655 11.973 269.094C11.8231 268.619 11.6932 268.116 11.4833 267.627C11.3734 267.364 10.9936 267.222 10.5338 267.244C10.1241 267.265 9.95418 267.456 9.90421 267.676C9.77429 268.243 9.48446 268.853 10.254 269.314C10.7337 269.605 10.7737 269.797 10.224 270.002C9.86423 270.137 9.71432 270.343 9.90421 270.534C10.5538 271.201 10.5338 271.988 10.9436 272.69C11.0635 272.896 11.3933 273.059 11.7631 272.967C12.1629 272.867 12.033 272.626 11.983 272.413H11.963Z" fill="#5938E0"/>
<path d="M12.9724 274.888C12.7925 274.598 13.1523 274.534 13.3322 274.399C13.4122 274.335 13.4921 274.286 13.5721 274.222C13.5021 273.789 13.772 273.576 14.3516 273.576L14.4915 273.598L14.3616 273.555C14.1517 273.349 13.9619 273.108 14.2217 272.931L14.2917 272.881L14.3316 272.853V272.846C14.8813 272.08 13.5821 273.881 13.722 273.697V273.676L13.682 273.534L13.6121 273.25L13.4721 272.683C13.3822 272.3 13.3022 271.924 13.2423 271.541C13.1323 270.775 13.1423 270.009 13.4222 269.236C13.5021 269.031 13.712 268.981 14.0118 269.031C14.1517 269.059 14.0018 269.272 14.2917 269.194L14.0618 269.002C13.8119 268.712 13.682 268.329 13.3022 268.151C12.5427 267.811 12.1329 267.598 13.4122 267.414L13.1923 266.946C12.8125 266.91 12.3328 266.924 12.5027 266.541C12.5527 266.421 12.7825 266.336 12.9624 266.393C13.3122 266.513 13.1923 266.747 13.2023 266.939C13.8119 266.215 13.722 265.591 12.9424 265.187C12.6326 265.024 12.3028 264.804 11.943 264.761C9.75431 264.499 9.4245 263.414 8.99475 262.336C8.86483 262.024 9.17465 261.861 9.34455 261.648C9.5944 261.329 9.88423 261.06 8.95477 260.96C8.64495 260.925 8.79487 260.655 9.0847 260.606C9.60439 260.514 10.1541 260.478 10.9036 260.393C9.51445 259.726 9.2446 258.904 9.30457 257.953C9.32456 257.613 9.2546 257.266 9.14466 256.925L8.97476 256.407L8.93478 256.28L8.9148 256.216V256.181L8.88481 255.833C8.84484 254.812 8.80486 253.798 8.76488 252.777C8.63496 249.415 8.89481 248.38 9.20463 247.366C9.49446 249.415 9.78429 251.394 10.214 250.458C10.0142 246.713 9.52444 248.692 9.23461 247.068C8.95477 241.799 9.0747 235.905 8.58499 230.991C7.83543 223.339 7.43566 216.063 8.47505 209.283C8.51503 209 8.31515 206.709 8.2252 205.355C8.16523 207.028 8.2252 209.482 7.80544 208.751C7.75547 208.659 7.67552 208.163 7.65553 207.766C7.52561 204.773 7.8754 205.113 8.08528 204.475C8.87482 197.185 8.43508 190.512 7.60556 184.044C7.22578 181.136 6.86599 178.271 7.75547 177.881L8.17523 180.704C8.32514 180.86 8.42508 183.179 8.61497 181.534L8.2252 180.342L7.79545 177.576C7.62555 170.683 6.53618 163.762 7.50562 156.805C7.5356 156.606 7.40568 154.826 7.30573 154.209C6.20638 147.451 6.69609 139.664 6.71608 132.183C6.78604 131.381 7.11585 132.771 7.00591 130.417L6.69609 132.041C6.41625 131.842 6.08645 131.36 6.17639 128.729C6.30632 125.048 6.60614 121.623 6.20638 117.609C5.79661 113.588 5.41684 110.482 6.3363 107.674C6.83601 106.142 6.43624 101.561 6.20638 98.4121C5.96652 95.1074 5.90655 92.6324 6.55617 92.8523L6.99592 95.6535C7.09586 97.0151 7.15582 98.6391 7.29574 99.6532C7.42566 100.589 7.56558 99.8021 7.47564 98.7596C7.35571 97.4902 7.17581 96.5186 7.0259 95.4194L6.59615 92.5331C6.17639 89.2284 5.58674 86.491 5.80661 81.1155C5.85658 79.8178 5.88656 77.6761 5.78662 76.8251C4.65728 67.5705 5.16698 58.9753 5.56675 50.3022L5.91654 48.5931L5.52677 49.9831C4.21754 45.3948 3.74781 36.3671 4.75722 33.1617C6.21637 28.5308 5.69667 23.4106 5.05705 16.4821C4.99708 15.7658 4.97709 14.8155 4.98709 13.8014C4.98709 13.5461 4.98709 13.2908 4.98709 13.0284V12.6384V12.5391V12.5249C3.53793 13.5106 17.5897 3.83052 11.6432 7.9295H11.6732H11.7431L12.013 7.94368C12.7426 7.97205 13.4621 7.99333 14.1417 8.02169L15.2811 8.0997L14.5415 8.00042C14.3516 7.88695 14.4616 7.80185 14.8014 7.73093C14.9713 7.69548 15.2011 7.66711 15.481 7.63874C15.6109 7.62456 15.7608 7.61747 15.9207 7.60328L15.9607 7.56073C16.0606 7.52528 15.7308 7.52528 16.4004 7.44018C16.8602 7.37635 17.3599 7.29834 17.8896 7.22743C18.9489 7.09268 20.1383 6.93667 21.3975 6.77356C29.5028 5.83037 32.7809 5.82328 30.9619 6.59627C30.4822 6.80193 26.9343 7.23452 30.792 7.15651C36.4687 6.45443 42.3953 5.81618 48.2719 5.23467C51.41 4.92263 55.2578 4.61769 57.7064 4.75243C62.4336 5.05737 68.4301 4.64606 71.3084 4.34112C79.6635 3.39792 86.9693 3.64613 94.7747 3.98653L93.7253 4.06454L95.0146 4.00072C100.901 3.70996 106.918 3.44757 107.767 4.27729C107.357 4.30566 106.588 4.33402 106.628 4.36239C106.758 4.43331 107.227 4.50422 107.557 4.57514L108.996 4.63897L107.907 4.56096C107.857 4.46877 107.837 4.37657 107.847 4.27729C116.142 4.63187 124.637 4.76662 133.272 4.6106C135.721 4.56096 137.77 4.45458 140.278 4.43331C155.759 4.29147 157.118 4.39076 157.618 5.55379C157.638 5.61053 159.667 5.69562 160.836 5.76654C166.833 5.802 162.915 5.42614 163.555 5.24885C166.523 4.41912 169.291 4.29857 180.215 4.90136C188.02 5.32686 194.177 5.43323 201.822 5.34813C205.4 5.30558 206.22 5.56797 206.06 5.78073L205.16 5.85164L206.35 5.80909C211.057 5.81618 216.104 5.66017 220.541 5.92965C234.533 6.78774 247.706 6.72392 261.318 7.24161C262.607 7.29125 264.756 7.58201 266.495 7.77348C265.905 7.81603 262.547 7.63874 265.235 7.96496L266.605 7.78767C279.677 8.92943 292.839 10.5818 306.261 12.0852C312.978 12.8298 319.774 13.5319 326.67 14.078C333.566 14.624 340.581 14.9715 347.817 15.1559C340.092 15.7729 332.776 15.8225 332.076 16.4679C340.142 16.8792 345.009 16.8863 348.097 16.7657C351.185 16.6523 352.495 16.3331 353.494 15.8438C354.333 15.4183 354.203 15.163 361.319 14.9361C369.085 14.6382 373.322 14.6028 376.321 14.9361C377.84 15.1134 380.488 15.2552 383.866 14.9361C384.866 14.8368 385.895 14.7375 386.944 14.6524C389.013 14.4964 391.162 14.3262 393.341 14.156C401.536 13.5674 410.281 12.993 417.137 11.9505C417.746 11.8654 418.376 11.7732 419.036 11.681C419.366 11.6384 419.705 11.5959 420.055 11.5533C420.435 11.5108 420.625 11.4824 421.384 11.4044C422.024 11.3406 422.674 11.2768 423.333 11.2059C423.663 11.1704 423.993 11.142 424.333 11.1066C424.503 11.0569 424.652 11.1633 424.812 11.1917L425.282 11.3335C426.571 11.7306 427.891 12.1349 429.22 12.5462C430.639 12.993 432.078 13.4468 433.527 13.9078L434.607 14.2553L435.146 14.4255C435.216 14.4609 435.376 14.4609 435.366 14.5318V14.7233L435.296 16.2622C435.246 17.2834 435.206 18.3046 435.156 19.3187C435.126 19.8222 435.106 20.3186 435.076 20.8222C435.056 21.1129 435.036 21.4037 435.006 21.6873C434.667 25.8431 434.397 28.6443 434.557 33.807C434.767 40.2888 433.987 43.6857 432.748 42.934L432.648 42.3241L432.728 43.09C432.728 43.9765 432.718 44.87 432.708 45.7636C432.748 46.1111 432.788 46.4373 432.808 46.8273C432.808 46.877 432.738 47.2812 432.698 47.5223L432.588 46.4869C432.028 52.1603 432.368 54.5076 433.077 52.756C434.147 50.1037 433.947 52.9616 433.597 57.9754C433.227 63.1807 433.107 68.5633 433.117 74.3146V77.0875C432.058 78.286 432.208 83.7395 432.238 87.8739C432.278 95.7031 430.599 91.9374 430.759 99.1284C430.849 103.334 431.638 104.624 431.389 111.042C430.969 121.829 430.149 133.381 430.539 143.302C430.799 149.905 427.97 149.805 429.779 156.755C429.64 163.627 429.51 170.513 429.37 177.378C429.22 185.831 428.96 193.753 428.38 202.411C427.891 209.929 427.301 218.829 427.611 227.778C427.96 236.92 427.881 237.444 426.301 239.125C426.152 239.288 425.992 239.366 426.022 240.472C426.062 241.884 426.142 243.486 426.301 244.55C426.521 246.231 426.901 249.202 427.281 252.089C427.471 253.528 427.661 254.947 427.821 256.173C427.97 257.4 428.09 258.429 428.14 259.095C428.38 263.23 429.04 267.201 429.919 271.123C430.119 272.108 430.369 273.08 430.609 274.059L430.969 275.527L431.009 275.711V275.725C428.36 277.37 436.925 272.052 425.082 279.413H425.052L424.992 279.392L424.862 279.363L424.343 279.257L423.663 279.115C423.533 279.087 423.403 279.058 423.253 279.072L422.654 279.087C421.934 279.101 421.214 279.108 420.485 279.122C419.036 279.136 417.587 279.15 416.117 279.158C411.61 279.172 405.554 279.505 405.604 278.924C405.624 278.704 403.875 278.682 401.856 278.838C389.313 279.76 372.933 279.47 358.911 280.009C345.938 280.519 348.807 279.434 342.39 279.087C337.413 280.108 326.799 280.548 312.168 280.299C305.882 280.193 299.915 280.207 293.399 280.377C275.799 280.831 257.99 281.136 239.97 280.576C232.095 281.122 226.028 279.767 215.734 280.498C209.458 280.93 196.775 280.399 186.791 280.434C174.868 280.491 162.465 280.491 150.842 280.087C141.068 279.767 133.272 280.207 124.058 280.037C100.312 279.597 76.1956 279.377 52.6593 278.803C47.6022 278.682 42.5352 278.562 37.4682 278.441L34.1501 278.356L33.8303 278.328L33.1906 278.271L30.6321 278.051C28.9231 277.895 27.2141 277.711 25.5251 277.434C23.0166 277.023 20.528 276.519 17.9895 276.215C17.4398 276.151 16.6403 276.044 16.6703 275.64C16.7302 274.527 15.8607 275.051 15.3111 275.03C14.7114 275.009 14.1118 275.03 13.5121 275.03C13.2723 275.03 13.0224 275.023 12.9624 274.768C12.9225 274.562 12.9824 274.271 13.1723 274.25C14.0618 274.172 13.9519 273.449 14.3816 273.08C15.6109 272.023 17.2799 271.882 18.849 271.733C21.8173 271.456 24.8055 271.619 27.7838 271.52C29.8826 271.449 31.9813 271.499 34.0801 271.541C45.0737 271.733 56.0573 271.924 67.0309 272.116C79.4337 272.293 91.8265 272.456 104.199 272.548C139.619 272.832 175.178 273.222 210.297 273.094C243.488 272.974 276.869 273.016 309.959 272.463C333.715 272.08 358.021 272.016 382.167 271.569C393.93 271.364 405.723 271.151 417.527 270.945L421.954 270.867L423.383 270.846L424.453 270.832H424.982C425.162 270.818 425.322 270.889 425.492 270.91L428.48 271.555C436.406 266.641 417.726 278.264 419.645 277.058V277.03L419.625 276.98L419.605 276.881L419.565 276.683L419.475 276.285L419.296 275.484L418.946 273.881C418.706 272.811 418.526 271.74 418.316 270.676C417.537 266.4 416.967 262.109 416.567 257.833C415.768 249.273 415.638 240.749 415.698 232.289C415.838 223.878 415.977 215.474 416.117 207.092C416.017 205.815 416.057 204.532 416.227 203.248C417.077 175.059 418.286 146.543 418.646 118.786C418.926 97.2136 420.385 76.7116 420.725 55.6635C420.905 44.9906 421.164 34.2821 421.484 23.5737L421.544 21.5668L421.574 20.6874V20.6732C421.574 20.6732 421.554 20.6661 421.604 20.6732L421.744 20.7158L422.024 20.8009C422.574 20.9711 422.344 20.8931 422.374 20.9073L417.147 21.3328C409.651 21.9426 402.126 22.5242 394.58 23.0064C392.391 23.1411 390.212 23.2688 388.034 23.4035C382.077 23.751 376.101 24.0134 370.124 24.1765C357.921 24.5382 345.599 24.4956 333.266 23.8148C320.923 23.1269 308.87 21.7512 297.037 20.4037C291.12 19.73 285.254 19.0563 279.427 18.4677C273.59 17.872 267.824 17.3898 261.987 16.9997C250.324 16.2197 238.571 15.8154 226.788 15.4609C208.349 14.9432 189.749 14.5886 171.24 14.2127C152.751 13.851 134.292 13.4894 115.942 13.1277C88.0786 12.6667 60.1849 13.0781 32.641 15.0424C30.3623 15.2197 28.0736 15.397 25.775 15.5743C23.4863 15.7871 21.1776 16.0069 18.869 16.2268L17.9995 16.3119L17.3199 16.3757C17.06 16.397 16.8202 16.4324 16.5603 16.4395L14.3316 16.3757L12.5527 16.3189L11.6632 16.2906H11.4433L11.3334 16.2835H11.2734H11.2434H11.2334C13.722 14.5673 5.63671 20.1343 16.8202 12.4256V12.7447C16.8402 14.4326 16.8602 16.1275 16.8802 17.8153C16.9701 24.5949 17.06 31.4171 17.14 38.1684C17.2999 61.3723 17.4598 84.4132 17.6197 107.617C18.0495 147.947 18.4692 188.257 18.899 228.601L19.1788 255.259V256.06V256.131V256.273L19.1588 256.556L19.1288 257.117L19.0789 258.244C19.0189 259.748 18.9789 261.244 19.0589 262.747C19.0889 263.364 18.4492 263.981 18.6291 264.449C18.869 265.066 18.6491 265.62 18.6791 266.201C18.7591 267.726 18.5092 269.215 17.9096 270.726C17.5897 271.52 17.5098 272.463 17.4798 273.349C17.4798 273.435 17.4798 273.513 17.4598 273.583V273.612L16.5104 274.931H16.4904L16.4204 274.945C16.3804 274.945 16.3305 274.952 16.2905 274.945C16.1106 274.924 15.9507 274.796 15.7708 274.47C15.431 273.818 14.5315 274.059 13.8519 274.2C13.8919 274.335 13.9619 274.477 13.9519 274.598C13.9219 274.86 13.652 274.945 13.3322 274.931C13.2323 274.931 13.0524 274.874 13.0124 274.817L12.9724 274.888ZM19.7685 272.584C19.6286 272.562 19.5186 272.534 19.4087 272.534C19.3387 272.534 19.2788 272.598 19.2088 272.633C19.3187 272.647 19.4287 272.683 19.5386 272.683C19.6086 272.683 19.6785 272.626 19.7685 272.584ZM25.9649 274.796C26.0748 274.825 26.1747 274.867 26.2847 274.867C26.3746 274.867 26.4646 274.81 26.5645 274.775C26.4446 274.747 26.3346 274.697 26.2347 274.704C26.1448 274.704 26.0548 274.768 25.9649 274.796ZM27.464 275.661C26.7144 275.59 26.2347 275.548 25.6251 275.491C26.1248 276.009 26.6245 275.888 27.464 275.661ZM136.131 276.427C137.14 276.449 138.289 276.385 139.379 276.356C140.768 276.285 140.698 276.2 139.019 276.165C138.01 276.144 136.73 276.193 135.791 276.236C134.352 276.3 134.512 276.392 136.141 276.427H136.131ZM75.9957 275.406C80.603 275.527 84.5107 275.626 88.4084 275.732L89.6577 275.81L88.7383 275.718C85.0004 275.484 81.1927 275.285 75.9957 275.413V275.406ZM48.1619 273.392C48.3318 273.427 49.1613 273.463 49.711 273.477C50.0708 273.484 50.4606 273.449 50.8204 273.435C50.4206 273.385 50.1907 273.328 49.711 273.307C48.1519 273.236 47.4923 273.271 48.1619 273.399V273.392ZM32.7609 274.619C32.7609 274.619 32.8209 274.683 32.8608 274.697C32.9108 274.711 32.9908 274.725 33.0307 274.704C33.1407 274.64 33.0907 274.583 32.9208 274.576C32.8708 274.576 32.8109 274.605 32.7609 274.619ZM140.848 277.378L140.398 277.08C134.871 277.023 129.255 276.917 123.828 276.909C99.532 276.867 75.1862 276.328 50.9203 275.867C47.9121 275.817 45.0837 275.775 42.2554 275.725C39.6169 275.69 36.9884 275.661 34.22 275.626C32.8608 275.732 31.3317 276.108 30.4622 274.832C29.9325 274.888 29.9625 275.293 29.6827 275.456C29.4628 275.576 29.183 275.64 28.7232 275.803C29.9825 275.832 31.2218 275.867 32.4411 275.895C33.0707 275.91 33.7003 275.931 34.32 275.945C41.5258 276.08 48.6916 276.207 55.8474 276.342C84.4408 276.839 112.654 277.2 140.858 277.378H140.848ZM228.707 276.562L229.906 276.505L230.656 276.427L229.496 276.477L228.707 276.562ZM215.874 276.81C216.364 276.81 217.063 276.768 217.303 276.732C217.493 276.704 217.133 276.654 217.013 276.619C216.404 276.619 215.574 276.619 215.215 276.64C213.845 276.732 214.125 276.803 215.874 276.81ZM184.303 276.548C189.13 276.612 193.827 276.718 198.554 276.562C193.617 276.463 188.91 276.342 184.303 276.548ZM156.349 276.25C160.546 276.505 163.884 276.484 167.073 276.484C169.131 276.484 169.141 276.378 167.043 276.349C163.964 276.293 160.786 276.293 156.359 276.257L156.349 276.25ZM236.422 277.2C223.999 277.576 213.286 277.2 204.101 277.619C186.481 277.243 168.852 277.541 151.222 277.292C168.932 277.711 186.651 277.959 204.451 277.661C214.245 277.619 225.698 278.307 236.422 277.207V277.2ZM288.482 273.924L289.691 273.959L289.801 273.896L288.482 273.924ZM265.195 276.356C268.873 276.427 272.481 276.725 276.589 276.406C273.341 276.129 269.173 276.278 265.195 276.356ZM243.498 274.307C244.438 274.335 245.377 274.385 246.326 274.385C247.566 274.385 248.815 274.349 250.054 274.328L247.186 274.243L243.498 274.307ZM259.299 276.98C254.911 277.172 248.535 277.009 243.418 277.541C250.534 277.37 256.341 277.434 259.299 276.98ZM294.888 277.065L294.039 276.98C292.37 276.888 290.691 276.902 289.002 276.995L285.124 277.285C277.798 277.463 269.733 277.342 262.647 277.604C258.979 277.746 257.66 277.924 260.058 278.179C261.877 278.37 264.436 278.427 266.844 278.243C272.081 277.839 281.296 277.817 285.583 277.321L289.451 277.023L293.709 277.002L294.898 277.058L294.888 277.065ZM321.343 277.427C320.423 276.824 319.664 276.229 312.738 275.746C312.568 275.881 312.138 276.023 312.288 276.151C312.518 276.349 311.219 276.512 310.219 276.697C305.492 277.562 305.702 277.562 321.343 277.434V277.427ZM423.813 158.245C423.783 157.933 423.753 157.415 423.723 157.457C423.623 157.599 423.533 157.954 423.433 158.237H423.813V158.245ZM423.213 161.117L423.403 158.393C423.303 159.216 423.003 159.557 423.213 161.117ZM422.464 170.832V169.861L422.374 170.669L422.464 170.832ZM422.414 180.03C422.424 179.683 422.374 179.144 422.334 178.988C422.294 178.853 422.214 179.151 422.154 179.257C422.154 179.704 422.114 180.314 422.154 180.569C422.264 181.576 422.374 181.349 422.424 180.03H422.414ZM419.365 191.044L419.535 188.313L419.705 185.576L419.805 184.732L419.675 185.342C419.575 186.108 419.455 186.81 419.396 187.654C419.306 188.781 419.146 190.164 419.365 191.044ZM416.247 205.872L416.367 205.269L416.297 204.631L416.257 205.872H416.247ZM419.016 245.366C418.916 244.174 418.716 243.281 418.586 242.26C418.476 243.061 418.396 243.642 418.316 244.217C418.486 245.032 418.646 246.011 418.826 246.607C418.986 247.146 419.106 246.359 419.016 245.359V245.366ZM419.855 268.591L419.765 267.619H419.645L419.855 268.591ZM426.601 272.662L427.251 272.825L427.561 272.903L427.721 272.945L427.801 272.967H427.841V272.981L421.564 276.881V276.86H421.454V276.888L427.861 272.91H427.841L427.761 272.896L427.601 272.867L427.281 272.803L426.601 272.676V272.662ZM406.183 274.888C411.57 274.775 416.927 274.789 422.504 274.761H423.703C423.913 274.761 424.123 274.732 424.323 274.761L424.922 274.895L426.052 275.151L426.561 275.264L426.811 275.321H426.831C426.022 275.832 428.66 274.193 425.012 276.463V276.434V276.385L424.982 276.293C424.762 275.285 424.542 274.271 424.323 273.236C423.893 271.172 423.443 269.045 422.983 266.839C423.153 269.038 423.483 271.165 423.863 273.236C424.083 274.271 424.303 275.285 424.522 276.3L424.562 276.491V276.512C422.404 277.86 427.511 274.69 426.981 275.016H426.961L426.901 275.002L426.771 274.973L426.262 274.867L425.112 274.619C424.692 274.527 424.273 274.413 423.833 274.463L422.574 274.491C416.977 274.626 411.58 274.817 406.203 274.888H406.183ZM396.929 272.64C396.469 272.725 397.358 272.747 399.137 272.69C399.607 272.676 399.987 272.633 400.407 272.605L398.668 272.584C398.058 272.605 397.059 272.612 396.929 272.64ZM383.506 275.264C383.466 275.314 385.175 275.349 386.305 275.406C387.924 275.335 390.702 275.271 391.162 275.179C392.281 274.952 389.193 275.051 387.754 275.066C386.075 275.08 383.666 275.087 383.506 275.271V275.264ZM369.345 273.236L370.764 273.172C371.374 273.073 374.592 273.144 373.782 272.952L370.454 273.151L369.345 273.236ZM336.944 276.959C337.203 276.86 336.474 276.796 334.805 276.817C333.675 276.831 332.616 276.895 331.527 276.938C332.286 276.995 332.956 277.094 333.845 277.101C334.755 277.101 335.904 277.009 336.934 276.959H336.944ZM356.282 275.456C353.434 275.456 351.145 275.555 349.296 275.718C344.949 275.697 340.931 275.442 335.734 275.746C339.882 276.129 344.569 276.009 349.486 275.732C351.455 275.598 355.583 275.768 356.282 275.456ZM405.853 277.236L404.654 277.214L404.544 277.278L405.853 277.236ZM427.221 269.527L427.431 270.307C427.641 270.733 427.911 272.952 428.09 272.413L427.411 270.016L427.211 269.527H427.221ZM423.063 255.486C423.253 261.62 424.892 268.499 425.562 273.598C425.632 274.073 425.692 274.548 425.762 275.016L425.872 275.718L425.922 276.066L425.952 276.236V276.321L425.972 276.335C425.852 276.42 427.071 275.661 426.551 275.98H426.521L426.461 275.959C425.832 275.803 425.202 275.654 424.572 275.498C424.413 275.463 424.253 275.406 424.083 275.392H423.573H422.574C420.045 275.392 417.587 275.442 415.148 275.498C410.291 275.619 405.544 275.817 400.626 275.966C386.225 275.711 372.653 276.385 358.661 276.668C371.124 276.789 383.626 276.725 396.379 276.342C397.848 276.413 399.277 276.406 400.646 276.271C405.434 276.342 410.141 276.349 414.808 276.314C417.137 276.285 419.465 276.25 421.774 276.222C422.963 276.222 423.993 276.08 425.012 276.399L425.832 276.569L426.241 276.654C425.612 277.051 427.111 276.122 426.951 276.215V276.186V276.151L426.921 276.073L426.881 275.924L426.591 274.718C425.022 268.314 423.853 261.925 423.053 255.471L423.063 255.486ZM420.785 237.111V235.636L420.795 234.161L420.905 233.303L420.785 234.097C420.615 235.125 420.595 236.161 420.765 237.203C420.335 244.869 420.825 251.94 422.064 258.521L422.044 259.294L422.124 258.748C422.134 256.145 422.424 253.337 421.824 250.153C421.085 246.373 421.244 240.685 420.785 237.118V237.111ZM424.473 238.388V239.104L424.592 238.749L424.473 238.38V238.388ZM425.442 218.751V219.68L425.532 218.829L425.442 218.751ZM424.133 212.12L424.173 213.006C424.293 213.453 424.073 215.723 424.373 215.155L424.223 212.751L424.133 212.12ZM422.953 203.957C422.094 204.936 422.454 211.255 422.424 215.432C422.384 219.956 422.414 225.062 421.394 224.757L421.294 224.24L421.354 225.02C422.344 228.793 421.864 239.196 422.913 244.401C422.344 234.232 423.303 224.24 423.283 214.297C423.283 210.368 423.863 202.936 422.963 203.957H422.953ZM422.104 199.156C420.905 203.596 421.174 209.865 421.124 215.822C421.774 210.836 421.514 204.305 422.104 199.156ZM423.633 194.171C423.633 194.171 423.493 194.66 423.463 195.043C423.433 195.377 423.463 195.88 423.463 196.313C423.523 196.242 423.613 196.334 423.653 196.072C423.823 195.036 423.813 194.263 423.633 194.171ZM421.614 190.306C421.624 190.568 421.624 190.98 421.654 191.065C421.754 191.37 421.864 191.568 421.964 191.802L422.054 192.412L421.994 191.597L421.614 190.306ZM425.362 152.373L425.152 155.209C424.722 156.826 424.283 158.23 423.833 158.294C423.883 167.386 423.933 176.477 424.003 188.554C424.742 175.513 425.192 165.485 425.172 155.28C425.252 154.337 425.582 153.94 425.372 152.373H425.362ZM422.744 106.929V106L422.654 106.851L422.744 106.929ZM424.143 117.099C424.123 116.29 424.133 115.163 424.063 114.744C423.953 114.113 423.833 114.773 423.843 115.929C423.843 116.801 423.863 117.772 423.933 118.368C424.003 119.006 424.103 118.389 424.143 117.099ZM423.463 143.068C424.123 136.977 423.793 132.005 423.563 126.75C423.533 130.835 423.313 134.495 423.033 138.267C422.814 141.295 423.133 142.458 423.463 143.068ZM425.492 99.8376L425.562 100.681C425.062 115.198 425.192 129.027 424.982 144.877C426.461 135.381 426.032 125.261 426.621 116.489C427.221 107.702 426.811 101.986 425.602 100.447L425.492 99.8305V99.8376ZM15.0612 64.6132L15.0112 65.5068L15.1112 65.5919L15.0612 64.6203V64.6132ZM12.063 60.5213C12.0829 63.0034 11.923 65.4217 12.2229 67.6272C12.3528 65.1238 12.3028 62.7127 12.063 60.5213ZM14.4616 36.2678L14.3316 36.594L14.4616 37.0905V36.2678ZM11.943 20.4321C11.913 21.12 11.8431 21.8079 11.8531 22.5029C11.8531 23.3681 11.933 24.2545 11.983 25.297C12.013 24.4744 12.073 23.7936 12.063 23.0986C12.053 22.2121 11.983 21.3186 11.943 20.425V20.4321ZM14.5015 14.8864V15.6381L14.6215 15.397L14.5015 14.8935V14.8864ZM34.5199 10.7874C34.6198 10.6527 33.7303 10.6527 32.1612 10.8584C31.6415 11.064 30.6821 11.3193 30.6521 11.5037C30.6321 11.603 32.7309 11.4328 33.4205 11.2697C34.1901 11.0924 34.4199 10.9364 34.5299 10.7945L34.5199 10.7874ZM58.2161 11.993C50.1907 12.2412 45.5734 12.4611 40.9761 12.9362C45.9532 12.7944 50.3806 12.4256 58.2161 11.993ZM78.6741 10.2272L77.5648 10.1988L77.3549 10.2698L78.6741 10.2272ZM87.479 8.68831L86.3497 8.75214C79.2238 9.02162 72.098 9.28401 60.6746 10.0003C73.9569 9.53222 81.5624 9.36202 86.7394 8.77341L87.479 8.68831ZM106.948 12.071L103.23 11.9859L100.222 12.071C101.461 12.0852 102.71 12.142 103.939 12.142C104.949 12.142 105.948 12.0923 106.948 12.0639V12.071ZM125.617 11.6597L124.497 11.603L124.288 11.6668H125.617V11.6597ZM173.289 12.22C172.22 12.1207 171.01 12.1065 169.961 12.1774C170.051 12.22 169.911 12.2767 170.271 12.3122C171.34 12.4114 172.639 12.4327 173.569 12.3547C173.839 12.3334 173.659 12.2554 173.289 12.22ZM178.766 11.525L178.276 11.4257L177.766 11.5037L178.766 11.525ZM195.246 10.8371C195.136 10.674 193.517 10.5534 191.628 10.4825C188.89 10.4612 187.351 10.5463 187.061 10.6882C186.711 10.8655 188.72 10.9718 191.079 11.0144C193.407 11.0569 195.366 11.0144 195.236 10.83L195.246 10.8371ZM212.886 13.0142L212.626 12.922L211.956 12.9859L212.886 13.0142ZM219.252 12.3263H217.953L219.142 12.3902L219.252 12.3263ZM241.079 14.0425L239.84 13.9716L239.82 14.0354H241.079V14.0425ZM253.212 14.7801L251.883 14.7446L253.102 14.8439L253.222 14.7871L253.212 14.7801ZM255.571 12.6029C254.532 12.5675 253.802 12.6313 252.933 12.6596C253.622 12.7306 254.462 12.8582 255.311 12.9008C256.49 12.9575 258.429 13.0213 258.719 12.9788C259.639 12.8511 257.81 12.6667 255.571 12.6029ZM270.352 13.5177L269.023 13.4326L270.242 13.5745L270.362 13.5177H270.352ZM298.996 18.9074C298.616 18.8365 298.286 18.7656 297.826 18.7017C297.237 18.6237 296.357 18.5103 295.927 18.4819C294.718 18.4039 295.218 18.5103 297.187 18.7372C297.776 18.8081 298.386 18.8507 298.986 18.9003L298.996 18.9074ZM304.692 16.6523L303.573 16.5813H302.803L303.963 16.6523H304.692ZM312.088 20.2974L310.799 20.191L312.058 20.3541L312.088 20.2903V20.2974ZM322.712 19.2053C322.112 19.1556 321.503 19.1343 320.903 19.0918C321.283 19.1556 321.603 19.2194 322.062 19.262C322.662 19.3258 323.551 19.4109 323.971 19.4251C325.2 19.4676 324.701 19.3755 322.712 19.2053ZM346.878 22.8291H345.509L346.658 22.8858L346.878 22.8291ZM411.49 17.9855L410.371 18.028L410.171 18.1131L411.5 17.9855H411.49ZM425.512 20.6236L425.642 20.4392L425.532 20.2477V20.6236H425.512ZM426.931 42.9056C426.901 41.5724 426.921 40.0051 426.831 39.0123C426.751 38.0691 426.561 38.8492 426.611 39.8491C426.671 41.0405 426.811 41.9057 426.921 42.9056H426.931ZM425.442 72.8325L425.642 68.4782C425.682 67.1166 425.582 66.7195 425.502 66.9393C425.132 68.464 425.162 69.8965 425.232 71.1872C425.272 71.8609 425.372 72.2864 425.442 72.8254V72.8325ZM425.152 83.8813C425.322 84.2217 425.412 83.6331 425.362 82.4701C425.352 82.1084 425.272 81.9594 425.222 81.7183C425.182 82.0446 425.102 82.385 425.102 82.7041C425.092 83.1225 425.112 83.8033 425.152 83.8813ZM429.689 72.407C429.21 74.2012 429.37 77.3002 429.52 79.6972L429.62 80.2149L429.56 79.4277C429.799 76.6265 430.119 76.0379 430.469 76.4492C430.499 76.6974 430.529 77.1797 430.559 77.1442C430.649 77.0449 430.739 76.7187 430.839 76.4776L431.279 75.0451L430.799 75.9812C430.689 76.4989 430.599 76.4918 430.519 75.9528C430.239 74.6054 430.099 70.7688 429.67 72.3999L429.689 72.407ZM430.059 55.238C430.029 55.6423 429.989 56.0536 429.959 56.4578C429.959 56.8833 429.939 57.5854 429.959 57.6847C430.059 58.0109 430.129 57.3868 430.119 56.1316C430.119 55.7983 430.079 55.5359 430.059 55.238ZM431.858 34.9133C431.668 35.3814 431.668 35.8494 431.868 36.0622C431.918 36.1189 431.988 35.8849 432.048 35.7856C432.048 35.4948 432.048 35.0055 432.038 34.9559C431.988 34.8282 431.918 34.7715 431.858 34.9133ZM387.784 16.1133L388.973 15.9715C390.632 15.8013 392.751 15.6098 393.81 15.4467C394.59 15.319 392.711 15.319 391.692 15.4467C390.312 15.6098 389.753 15.8013 388.833 15.9715L387.784 16.1204V16.1133ZM310.809 15.0141C310.939 15.0495 311.788 15.1417 312.318 15.2126C312.738 15.2268 313.497 15.2694 313.507 15.241C313.567 15.1205 312.618 14.9928 311.179 14.9361C310.809 14.9219 310.639 14.9644 310.809 15.0141ZM259.469 8.72377C261.887 8.79468 264.306 8.88688 266.734 8.99325L267.494 8.96489L266.295 8.92943C265.655 8.89397 264.876 8.85142 264.426 8.85142C262.987 8.84433 259.489 8.45428 259.469 8.72377ZM208.528 6.61754C208.838 6.93667 211.837 7.00758 214.675 7.05723C216.334 7.08559 219.972 7.17069 217.863 6.92958C216.264 6.74519 218.183 6.34806 212.186 6.38352C210.547 6.39061 209.538 6.54663 208.528 6.61045V6.61754ZM207.249 8.34082L210.657 8.24154L211.597 8.17771L210.367 8.22026C209.618 8.29118 206.45 8.12098 207.249 8.34791V8.34082ZM132.603 5.57507L133.802 5.6318L133.912 5.56798H132.603V5.57507ZM96.074 5.09992L97.2533 5.15666C97.4832 5.11411 97.9429 5.07156 97.9029 5.02901C97.763 4.88717 97.0034 4.8659 96.124 4.96518C95.8341 5.00064 96.074 5.05028 96.064 5.09992H96.074ZM7.00591 20.2406L6.96593 19.2974L6.91596 20.0917L7.00591 20.2406ZM9.39452 36.0409C9.98417 33.0482 9.58441 27.3678 10.1641 25.8289C10.284 26.3678 10.354 28.4741 10.5638 26.8501L10.204 25.5027C10.304 21.4604 10.1941 17.5529 10.0241 13.6738L9.99417 12.9504L9.97418 12.5887V12.5462V12.532C8.64495 13.4397 11.7831 11.2768 11.4633 11.4966H11.4933H11.6232H11.8831L13.9319 11.525L15.9307 11.5463C16.2005 11.5604 16.4804 11.525 16.7302 11.4966L17.7197 11.3831C20.4281 11.0782 23.1265 10.7449 25.8749 10.4967C28.3635 10.2698 30.5922 10.0641 32.551 9.8868C34.5199 9.72369 36.2189 9.61732 37.658 9.53931C40.5264 9.39748 42.3053 9.4613 42.955 9.87971C43.4147 10.1776 48.6516 9.97899 50.2007 9.39748C50.6305 9.24146 50.7104 8.97907 52.6293 8.95779C65.3519 8.76632 77.5248 7.68838 90.0275 7.90823C96.7936 8.13516 104.369 8.09261 110.466 7.90113C117.072 7.70966 119.041 8.96489 126.836 8.21317C128.695 8.03588 132.343 8.43301 132.523 8.68831C132.813 9.10672 122.958 9.206 127.915 9.80879C136.42 9.76624 148.953 10.3619 149.783 9.29819C147.804 9.22019 145.525 9.17054 143.926 9.06417C142.417 8.96489 140.318 8.74504 140.748 8.6954C142.567 8.46847 145.225 8.64576 147.284 8.80887C148.783 8.92943 149.893 9.07126 151.172 9.206C152.191 9.22728 153.211 9.24146 154.23 9.26274C154.76 9.24146 155.249 9.21309 155.859 9.206C156.009 9.206 156.909 9.27692 156.839 9.2911C156.549 9.32656 156.009 9.35493 155.569 9.38329C164.764 9.85844 164.474 8.79468 173.869 9.14218C191.998 9.81589 212.676 9.56059 229.556 10.8371C231.965 11.0215 236.322 11.0427 239.39 10.986L234.863 10.6598C237.452 10.5251 239.051 10.7662 240.95 10.908C251.543 11.1349 262.187 11.6314 272.771 12.5462C283.355 13.461 293.859 14.7588 304.363 15.8934C305.692 16.0353 306.991 16.1204 308.3 16.2268C310.919 16.7941 313.367 17.3898 319.104 17.9217C327.019 18.645 330.997 18.8436 333.196 19.0989C335.404 19.3187 335.834 19.574 336.714 20.0917C339.172 20.1839 340.801 20.0917 342.47 20.035C344.139 19.9853 345.848 19.879 348.487 19.8719C361.429 19.7513 374.392 19.1556 387.414 18.3188C389.563 18.177 391.722 18.0351 393.88 17.8933C402.605 17.3047 411.36 16.6381 420.155 15.9856C420.925 15.9289 421.684 15.8793 422.424 15.8296C422.784 15.8083 423.133 15.7871 423.483 15.7658C423.803 15.8509 424.113 15.9785 424.423 16.0849C425.652 16.5175 426.711 16.9146 427.581 17.2621C427.791 17.3472 427.99 17.4323 428.19 17.5174C428.28 17.56 428.37 17.5954 428.46 17.638C428.46 17.716 428.43 17.8082 428.42 17.8862C428.35 18.2124 428.28 18.5032 428.2 18.7514C428.04 19.2478 427.871 19.5598 427.671 19.6875C427.491 19.8081 427.311 20.0988 427.181 20.652C427.151 20.7725 427.121 20.9782 427.101 21.2264C427.081 21.4675 427.061 21.7299 427.041 22.0277C427.011 22.6164 427.001 23.3326 427.021 24.1907C427.071 26.4742 427.101 27.8642 427.661 26.6019C428.67 24.3113 428.46 31.0554 428.32 34.8991C428.17 39.1258 427.511 41.0902 426.971 43.012C426.861 45.5934 426.232 49.3732 426.821 50.4583C427.941 52.529 427.631 58.2378 427.251 64.1877C426.591 74.4848 426.571 84.4628 426.381 94.7599C427.381 93.2352 427.671 90.2638 427.751 83.782C427.911 70.1093 427.97 56.3869 429.01 42.3879C429.48 36.0196 429.769 28.8287 429.729 21.737C429.729 20.5527 429.729 19.5173 429.729 18.5883C429.729 18.1202 429.729 17.6735 429.729 17.248V17.0919C429.729 17.0919 429.6 17.0494 429.53 17.021L429.12 16.8934C428.85 16.8083 428.59 16.7303 428.33 16.6523C427.311 16.3331 426.361 16.0353 425.422 15.7374C424.493 15.475 423.633 14.9928 422.564 15.2268C421.564 15.2907 420.525 15.3545 419.375 15.4325C418.246 15.4963 417.017 15.5601 415.618 15.6381C412.819 15.7729 409.361 15.936 404.744 16.1558C401.616 16.2977 397.578 16.6523 395.03 17.0423C393.071 17.326 389.993 17.6947 387.334 17.9075C385.145 18.0919 383.247 18.1982 382.447 18.1415C375.271 17.6593 366.566 18.6805 358.671 18.7301C350.176 18.7868 341.861 18.7798 333.526 18.4181C325.19 18.0493 316.855 17.3331 308.37 16.2551C302.474 15.2765 295.328 14.5531 288.622 13.8014C278.338 12.6242 268.044 11.6739 258.14 10.9009C257.65 10.9009 257.19 10.9009 256.64 10.8867C256.441 10.8867 255.731 10.7945 255.791 10.7874C255.961 10.7591 256.411 10.752 256.75 10.7307C245.927 10.135 235.433 10.0854 224.339 9.78043C195.196 9.08544 165.933 8.38337 136.7 7.68839C128.265 7.504 118.881 7.49691 111.665 7.23452C107.068 7.05723 105.838 6.85157 101.701 7.20615C98.7724 7.47563 94.315 7.65293 90.5472 7.90823C89.7577 7.6742 88.3785 7.46145 84.2409 7.48273C72.7476 7.56783 61.6241 7.53946 49.5711 8.45429C43.4247 8.93652 35.8491 9.53931 30.912 9.43294L31.7215 9.28401L30.5422 9.43294C27.9437 9.70951 25.4152 9.97899 22.8867 10.2485C21.6274 10.3832 20.3581 10.4967 19.0789 10.5889C18.4392 10.6385 17.7996 10.674 17.15 10.7094L16.6603 10.7307H16.3505C16.1406 10.7449 15.9607 10.6953 15.7108 10.674C15.0312 10.6031 14.0718 10.5321 13.0024 10.4612C12.7326 10.447 12.4627 10.4258 12.1829 10.4116L11.7631 10.3832L11.5533 10.369H11.5433C12.2429 9.8868 5.46681 14.5602 8.33513 12.5816V12.6029V12.6384V12.7164C8.32514 13.1277 8.30515 13.539 8.29516 13.9503C8.25518 15.5814 8.26518 17.099 8.38511 17.5884C9.40451 21.9639 9.19463 29.2825 9.43449 36.0763L9.39452 36.0409ZM11.5133 40.5512C11.7332 40.2037 12.0929 41.0121 12.023 37.9273C12.003 37.055 11.923 35.7359 11.8331 35.4452C11.4833 34.3389 11.4533 37.0054 11.3034 38.0975C11.0835 39.7498 11.3134 40.2108 11.5233 40.5512H11.5133ZM7.62555 45.9834C7.7155 46.0614 7.80544 45.3381 7.8854 44.9835C7.73548 43.8914 7.58557 42.6929 7.42566 41.7284C7.29574 40.9625 7.21579 41.4873 7.22578 42.8914C7.26576 44.5793 7.39568 45.7777 7.62555 45.9834ZM14.9213 55.9543C14.9913 51.6284 15.0512 47.7705 14.5615 42.4872C14.4516 48.3804 14.7014 51.9262 14.9213 55.9543ZM9.28458 77.2648C9.99417 74.7472 9.89423 69.2299 10.5239 69.9816C10.8437 70.3575 11.0635 68.2583 10.7537 66.5492C9.96418 62.2517 10.1241 54.2452 8.86483 47.5719C9.40451 58.5782 9.71433 67.0031 9.28458 77.2648ZM16.0107 77.9527C16.0207 77.5272 16.0406 77.1017 16.0506 76.662C16.0007 76.3428 15.9507 75.7684 15.9007 75.7471C15.7008 75.6691 15.6709 76.3641 15.8308 77.4846C15.8707 77.7754 15.9507 77.8037 16.0107 77.9456V77.9527ZM10.1441 85.4627L10.264 85.0727L10.1341 84.6543V85.4627H10.1441ZM12.6726 88.2852C12.7026 88.0086 12.7626 87.6966 12.7626 87.4768C12.7426 87.0655 12.7026 86.5052 12.6526 86.3634C12.4927 85.9095 12.4327 86.4414 12.5127 87.647C12.5327 87.959 12.6226 88.0796 12.6726 88.2852ZM11.4133 96.0861L11.3734 95.1358L11.3234 95.93L11.4133 96.079V96.0861ZM15.5309 107.603C15.3211 112.439 15.6209 114.858 16.4304 116.73C16.3105 108.277 16.1906 100.455 16.0806 92.6324C16.2305 91.6325 16.2005 90.5829 16.0506 89.5121L15.9107 88.8667L16.0207 89.6894L16.0506 91.1219L16.0706 92.5615C15.8907 97.5824 15.7108 102.681 15.5309 107.61V107.603ZM12.9524 110.397C12.9125 110.241 12.8125 110.433 12.8025 110.652C12.7925 111 12.8325 111.51 12.8425 111.95C12.9025 112.142 12.9924 112.61 13.0224 112.475C13.1423 111.858 13.1223 111.021 12.9524 110.397ZM10.7937 125.346C11.0036 119.162 10.364 111.794 11.6232 110.518C10.8537 106.362 10.3739 110.674 9.87424 110.631C9.23461 104.291 10.5938 106.284 10.3839 101.603C9.36453 100.093 9.29457 105.596 9.27459 110.418C9.2546 117.744 9.91421 121.893 10.8037 125.353L10.7937 125.346ZM8.44507 125.821C8.38511 124.02 8.16523 123.786 7.98534 123.084C7.81544 122.425 7.63554 122.751 7.69551 123.51C7.77546 124.694 7.96535 125.63 8.13525 126.453C8.28516 127.204 8.40509 126.85 8.44507 125.821ZM10.9336 135.551C11.0436 135.31 11.1935 134.92 11.2334 134.239C11.3434 132.466 11.1035 131.991 10.9436 131.566C10.7337 130.984 10.5938 131.608 10.5538 133.254C10.5838 134.814 10.6638 136.083 10.9236 135.544L10.9336 135.551ZM15.2211 142.707C15.2611 142.395 15.3311 142.125 15.3311 141.82C15.3311 140.437 15.2411 140.189 15.1112 141.182C15.0812 141.444 15.0812 141.941 15.0612 142.324C15.1212 142.458 15.1711 142.6 15.2211 142.714V142.707ZM8.71491 170.031C8.78487 169.336 8.9148 168.698 8.92479 167.918C8.92479 166.811 8.78487 166.322 8.64495 167.003C8.55501 167.464 8.43508 168.251 8.43508 169.003C8.43508 170.109 8.565 170.499 8.71491 170.024V170.031ZM10.9136 170.151C11.4133 168.669 11.2434 165.436 11.1035 162.67C11.0036 160.634 10.7038 159.975 10.4339 159.358C10.3739 153.124 10.9236 152.791 11.5732 153.458L11.6932 154.138L11.5932 153.28C11.0735 150.132 10.5438 146.99 9.99417 143.636C9.30457 150.089 9.91421 154.755 10.4239 159.514C10.5139 160.89 10.6438 162.244 10.6738 163.634C10.7237 165.783 10.1741 167.01 10.5438 169.74C10.6138 170.279 10.8237 170.442 10.9236 170.151H10.9136ZM15.2511 152.202L15.371 151.947L15.2511 151.493V152.202ZM13.6221 172.293L13.5121 171.541C13.4821 169.577 13.4621 167.613 13.4322 165.641C13.5421 165.372 13.652 165.145 13.752 164.797C13.782 164.712 13.782 163.982 13.782 163.982C13.5621 163.322 13.5021 164.698 13.3922 165.464C13.0924 167.563 13.1923 169.669 13.4821 171.775L13.6221 172.293ZM16.4004 176.335C17.3299 165.719 16.7902 156.45 16.4704 147.281C16.5304 146.494 16.6203 145.763 16.6403 144.898C16.6703 143.756 16.7702 142.295 16.5004 141.551C16.4804 142.458 16.4604 143.359 16.4404 144.281C16.4404 145.21 16.4404 146.167 16.4404 147.111C15.6009 155.826 16.5204 165.272 16.4104 176.335H16.4004ZM11.4533 182.051C11.4533 181.605 11.3934 181.158 11.3734 180.754C11.3434 181.023 11.2834 181.257 11.2734 181.597C11.2634 182.037 11.2534 182.739 11.2934 183.016C11.4133 183.902 11.4833 183.512 11.4633 182.051H11.4533ZM16.1406 190.32L16.6303 186.838C16.7502 186.647 16.8702 186.647 16.9901 186.838L17.12 187.455L17.0201 186.505C16.9701 186.257 16.9101 185.76 16.8702 185.803C16.7702 185.916 16.6803 186.271 16.5903 186.533C16.4504 187.859 15.8907 186.462 16.1306 190.313L16.1406 190.32ZM11.5732 193.029L11.5033 192.065L11.4633 193.022H11.5732V193.029ZM14.5315 193.561L14.6415 193.036C14.6914 191.767 14.7914 190.505 14.7714 189.235C14.7614 188.178 14.5315 187.845 14.5115 188.703C14.4816 189.944 14.5715 191.405 14.6015 192.774L14.5315 193.561ZM10.4939 194.717L10.6138 194.348L10.4839 193.958V194.717H10.4939ZM15.3211 259.755C16.0706 260.074 16.6503 260.194 17.0101 260.521C17.21 260.705 17.6397 260.74 17.8596 260.514C18.0595 260.308 17.8796 260.102 17.5398 259.996C16.9501 259.811 16.3605 259.606 15.3211 259.755ZM14.5815 259.705L14.5215 259.776L14.6115 259.79L14.5815 259.712V259.705ZM16.7103 258.684C16.5304 258.783 16.7702 258.897 16.9701 258.911C17.22 258.932 17.4998 258.968 17.6797 258.797C17.6097 258.741 17.5398 258.627 17.4698 258.627C17.21 258.627 16.8702 258.599 16.7103 258.684ZM16.6303 257.634C16.6103 257.748 16.6903 257.79 16.8802 257.762C17.0501 257.734 17.2399 257.705 17.4098 257.677C17.3199 257.627 17.2499 257.542 17.15 257.528C16.9601 257.5 16.7502 257.514 16.6303 257.641V257.634ZM13.2523 256.627L13.1923 256.712H13.3122L13.2523 256.627ZM15.7808 256.429C15.7808 256.429 15.6908 256.485 15.6809 256.521C15.6609 256.556 15.6809 256.599 15.7008 256.634C15.7008 256.649 15.7808 256.641 15.8208 256.649L15.7908 256.436L15.7808 256.429ZM17.2299 237.444L17.3299 238.302L17.5797 241.153L17.3599 238.068L17.2399 237.444H17.2299ZM16.4104 241.125L16.3205 240.976L16.3605 241.94L16.4104 241.125ZM16.4104 225.062C16.1906 225.126 16.0406 226.126 16.2705 227.523C16.3904 228.232 16.6303 228.048 16.8002 227.871C16.8602 227.807 16.8901 226.58 16.9501 225.573C16.7602 225.374 16.5803 225.013 16.4104 225.062ZM17.0301 199.185L16.9801 198.199L16.9301 199.029L17.0301 199.185ZM11.4933 203.34C11.5433 203.085 11.6232 202.901 11.6332 202.56C11.6632 201.383 11.5732 200.646 11.4133 200.667C11.3634 200.674 11.2834 201.064 11.2734 201.397C11.2434 202.568 11.3334 203.241 11.4933 203.34ZM11.7631 211.56L11.8231 210.73L11.7232 210.581L11.7631 211.56ZM15.0312 211.95C15.0312 211.95 15.0512 211.815 15.0612 211.574C15.0612 211.333 15.0812 211.007 15.1012 210.638C15.1212 209.9 15.1412 209.014 15.1212 208.439C15.0812 207.163 14.9113 206.021 14.8014 204.823L13.9519 201.631L13.8119 201.114L13.9319 201.844L13.9818 204.922L13.8819 205.659L14.0018 205.135L14.7814 205.106C14.7914 206.042 14.8114 207 14.8214 207.922C14.8713 209.354 14.5915 211.56 15.0312 211.943V211.95ZM17.12 214.815L17.0101 213.9L16.8802 213.17L17.0001 214.028L17.13 214.815H17.12ZM10.3939 257.287L10.4539 257.209H10.354L10.3939 257.287ZM11.1635 257.244H11.2834L11.2334 257.166L11.1635 257.244ZM12.5427 258.833C12.7426 258.783 12.8625 258.627 12.7126 258.521C11.8631 257.868 12.3528 257.124 12.7725 256.592C12.8525 256.493 12.9125 256.4 12.9524 256.315C12.9724 256.273 12.9924 256.23 13.0124 256.188C13.0124 256.173 13.0124 256.181 13.0224 256.145V255.776C13.0224 255.528 13.0224 255.287 13.0324 255.046C13.0424 253.11 13.0024 251.316 12.9325 249.592C12.7825 246.153 12.4727 243.033 12.1029 239.763C11.983 238.707 12.1229 236.359 11.933 235.849C11.933 235.643 11.933 235.48 11.933 235.274C12.2928 232.225 12.6326 227.282 13.1623 235.232L13.0624 236.054L13.1823 235.388C13.662 235.423 13.9619 237.061 14.1218 240.55C14.1617 241.366 14.1218 245.671 14.5215 242.174C14.9413 238.6 14.5415 227.92 14.1018 229.055C12.7326 232.657 12.4327 222.275 11.4033 218.346C11.5533 222.063 11.7132 225.523 11.8631 235.749C11.8331 235.742 11.7931 235.749 11.7431 235.82C11.3434 236.423 11.2834 238.841 11.4733 241.621C11.9031 247.734 11.993 253.968 11.973 245.444C11.993 248.337 12.023 251.571 12.043 255.216C12.043 255.443 12.043 255.677 12.043 255.904V256.173V256.202V256.322C12.023 256.4 12.013 256.485 12.013 256.571C11.993 256.741 11.973 256.925 11.953 257.117C11.953 257.492 11.953 258.046 11.983 258.599C11.993 258.776 12.1829 258.932 12.5327 258.84L12.5427 258.833ZM15.6109 258.471L15.6809 258.4L15.5709 258.45C15.1612 258.606 14.8313 258.606 14.6614 258.273C14.5615 258.074 14.4316 257.89 14.3117 257.691C14.3916 257.634 14.5115 257.585 14.5515 257.514C14.6215 257.414 14.7014 257.301 14.4816 257.223L14.3816 257.45L14.2617 257.67C13.9519 257.698 13.3622 257.727 13.3622 257.748C13.3722 258.273 13.742 258.734 14.4816 258.968C15.1412 259.18 15.381 258.776 15.6109 258.471ZM12.1429 260.684C12.8825 260.131 12.5727 259.826 12.1029 259.478C11.4333 259.889 11.8631 260.216 12.1429 260.684ZM12.3428 261.733V261.662L12.2229 261.698L12.3428 261.733ZM13.6121 261.818C14.5515 261.145 13.782 260.641 13.1823 260.116C13.4122 260.67 13.5621 261.23 13.6121 261.818ZM15.441 261.84C15.491 261.833 15.5609 261.84 15.6009 261.811C15.7508 261.733 15.7208 261.677 15.5409 261.669C15.501 261.669 15.431 261.705 15.411 261.733C15.391 261.762 15.431 261.804 15.441 261.84ZM10.8737 262.329L10.6638 262.074L10.5438 262.017L10.6238 262.095L10.8737 262.329ZM17.6897 262.903C17.7696 262.698 17.4398 262.648 17.2999 262.535L16.8901 262.294C16.8702 262.216 16.8702 262.13 16.8901 262.052L16.9901 261.974L16.8702 262.045C16.7202 262.13 16.7302 262.216 16.8702 262.308L17.2699 262.563C17.3599 262.677 17.4398 262.79 17.5398 262.896C17.5598 262.918 17.6997 262.911 17.6997 262.911L17.6897 262.903ZM16.6403 263.868C16.8502 264.017 17.14 264.166 17.5797 264.159C17.6697 264.159 17.8296 264.052 17.8296 263.996C17.7896 263.705 17.4698 263.556 17.0501 263.52C16.8402 263.506 16.7103 263.641 16.6503 263.868H16.6403ZM12.2429 263.925C12.2928 263.903 12.3828 263.889 12.4028 263.854C12.4627 263.747 12.3828 263.705 12.2129 263.747C12.1729 263.762 12.1329 263.811 12.1329 263.847C12.1329 263.868 12.2029 263.889 12.2429 263.918V263.925ZM15.411 264.23L15.7408 264.159C15.6209 264.024 15.501 263.882 15.361 263.754C15.351 263.747 15.0812 263.797 15.0612 263.847C14.9713 264.031 15.1711 264.144 15.411 264.23ZM13.4422 264.669L13.4022 264.584L13.3322 264.655L13.4422 264.669ZM16.8102 265.222C16.7602 265.343 16.9401 265.464 17.14 265.4C17.2799 265.357 17.3399 265.215 17.4398 265.123C17.3399 265.066 17.21 264.981 17.19 264.988C17.0501 265.052 16.8502 265.13 16.8102 265.222ZM14.8513 265.4C14.9313 265.329 15.2311 265.435 15.1612 265.251L14.8313 265.386C14.7214 265.407 14.6115 265.421 14.5015 265.449C14.4716 265.449 14.4616 265.492 14.4416 265.52C14.6415 265.577 14.7314 265.471 14.8513 265.407V265.4ZM17.07 266.272C17.07 266.272 17.13 266.201 17.16 266.166C17.12 266.144 17.07 266.095 17.0401 266.102C16.9801 266.102 16.9001 266.137 16.8802 266.166C16.8202 266.272 16.9001 266.315 17.08 266.272H17.07ZM16.4304 267.499L16.5404 267.428L16.6403 267.357L16.5304 267.421L16.4304 267.499ZM16.6403 268.492L16.8402 268.329L16.6503 268.158C16.5703 268.215 16.4304 268.265 16.4204 268.321C16.4204 268.378 16.5603 268.435 16.6403 268.492ZM16.4604 270.066L16.5703 269.995L17.0401 269.839L16.8102 269.697L16.5603 269.988L16.4604 270.066ZM16.2405 270.839C16.4104 270.839 16.7003 270.832 16.7402 270.775C16.8302 270.64 16.6103 270.598 16.5404 270.591C16.2205 270.562 16.0306 270.591 15.9807 270.733C15.9807 270.761 16.1506 270.846 16.2405 270.846V270.839Z" fill="#5938E0"/>
<path d="M12.6526 270.945C12.9324 270.548 13.0224 270.158 12.5527 269.506C12.3528 270.208 12.3528 270.584 12.6526 270.945Z" fill="#5938E0"/>
<path d="M14.9813 275.208C14.9813 275.208 15.0812 275.236 15.1112 275.222C15.1412 275.208 15.1512 275.165 15.1612 275.137L15.0312 275.115L14.9813 275.201V275.208Z" fill="#5938E0"/>
<path d="M344.849 16.2983C345.189 16.2769 345.269 16.2413 345.459 16.2057C345.009 16.1844 344.569 16.1701 344.119 16.1417L343.55 16.2271C343.999 16.2556 344.699 16.3054 344.849 16.2912V16.2983Z" fill="#5938E0"/>
<path d="M11.7431 267.009C11.7431 267.009 11.6732 266.946 11.6432 266.917C11.7831 266.435 11.2934 265.96 11.7931 265.449C12.1229 265.109 11.5832 264.932 11.0535 264.903C10.5838 264.875 10.0341 264.839 9.71432 265.088C9.32455 265.4 9.81426 265.612 10.0841 265.846C10.204 265.946 10.244 266.073 10.324 266.187L10.4339 266.258L10.314 266.201C9.9142 266.804 10.0441 266.896 11.5133 267.002C11.5632 267.024 11.6132 267.052 11.6632 267.066C11.6832 267.066 11.7531 267.024 11.7431 267.009Z" fill="#5938E0"/>
<path d="M396.679 276.321H398.578L400.487 276.271C400.806 276.179 400.776 276.094 400.397 276.009C398.168 276.066 396.929 276.158 396.679 276.321Z" fill="#5938E0"/>
</g>
<path d="M4.76721 243.217C4.80719 245.997 4.84717 249.245 4.90713 253.145C4.87715 250.926 4.84717 247.756 4.7872 243.323C4.7872 243.267 4.77721 243.217 4.76721 243.21V243.217Z" fill="black"/>
<path d="M4.00767 267.236L4.4674 266.903C4.52736 266.846 4.74724 266.946 4.79721 266.861C4.83718 266.797 4.92713 266.761 4.89715 266.683C4.86717 266.641 4.77722 266.591 4.65729 266.563C4.55735 266.534 4.50738 266.534 4.49738 266.549C4.42742 266.57 4.31749 266.549 4.42742 266.669C4.48739 266.74 4.4674 266.761 4.34747 266.697C4.27751 266.655 4.23753 266.641 4.24753 266.676C4.18756 266.846 3.92771 266.967 3.78779 267.123C3.74782 267.173 3.74782 267.244 3.82777 267.279C3.90772 267.322 3.96769 267.272 4.01766 267.229L4.00767 267.236Z" fill="black"/>
<path d="M3.54793 268.187C3.49796 268.116 3.5979 268.102 3.63788 268.066L3.69784 268.024C3.67785 267.917 3.74781 267.861 3.88773 267.861C3.83776 267.811 3.78779 267.747 3.84775 267.705C4.21754 267.449 4.65728 267.116 5.04706 267.052C5.10702 267.038 5.16699 267.052 5.21696 267.095C5.23694 267.116 5.15699 267.123 5.22695 267.151V267.102C5.25693 267.038 5.3169 266.981 5.26693 266.925C5.18697 266.818 5.05705 266.754 5.37686 266.825L5.32689 266.719C5.22695 266.691 5.11701 266.662 5.15699 266.605C5.16699 266.591 5.22695 266.584 5.27692 266.605C5.36687 266.641 5.33689 266.683 5.33689 266.719C5.4868 266.62 5.46681 266.464 5.27692 266.386C5.19697 266.357 5.11701 266.308 5.02707 266.293C4.47739 266.23 4.39743 265.953 4.2875 265.691C4.25752 265.613 4.33747 265.57 4.37745 265.52C4.43741 265.442 4.50737 265.371 4.2775 265.35C4.19755 265.343 4.23753 265.272 4.30749 265.265C4.43741 265.244 4.57733 265.237 4.76722 265.215C4.41742 265.045 4.35746 264.847 4.36745 264.606C4.36745 264.52 4.35746 264.435 4.32747 264.35L4.2875 264.223V264.187L4.26751 264.173V263.811C4.24752 262.769 4.22753 261.726 4.20754 260.684C4.13759 257.237 4.18756 256.181 4.25752 255.145C4.34746 257.244 4.4474 259.28 4.54735 258.315C4.4574 254.479 4.35746 256.5 4.26751 254.84C4.13759 249.444 4.09761 243.409 3.92771 238.373C3.65787 230.53 3.47797 223.077 3.65787 216.148C3.65787 215.85 3.58791 213.51 3.54793 212.127C3.54793 213.836 3.58791 216.354 3.47797 215.602C3.46798 215.503 3.43799 214.992 3.428 214.595C3.35804 211.531 3.45798 211.879 3.49796 211.227C3.61789 203.766 3.428 196.923 3.14816 190.299C3.01824 187.321 2.89831 184.378 3.11818 183.995L3.2581 186.888C3.29808 187.051 3.34805 189.42 3.37803 187.739L3.26809 186.519L3.12817 183.69C3.00824 176.626 2.65845 169.535 2.81835 162.422C2.81835 162.223 2.75839 160.401 2.7384 159.762C2.38861 152.841 2.41859 144.863 2.33863 137.197C2.33863 136.381 2.44857 137.799 2.38861 135.395L2.32864 137.062C2.25868 136.863 2.16873 136.36 2.15874 133.665C2.15874 129.892 2.18872 126.389 2.03881 122.276C1.8889 118.155 1.75897 114.971 1.95886 112.099C2.06879 110.532 1.91888 105.837 1.81894 102.618C1.719 99.2349 1.67902 96.6961 1.83893 96.923L1.97884 99.7951C2.01882 101.185 2.06879 102.852 2.09877 103.894C2.13875 104.851 2.16873 104.043 2.12876 102.979C2.06879 101.682 2.02882 100.682 1.97884 99.554L1.83893 96.5968C1.69901 93.207 1.51911 90.4057 1.50912 84.8955C1.50912 83.5694 1.48913 81.371 1.45915 80.5058C1.06937 71.0242 1.09936 62.2234 1.10935 53.3447L1.17931 51.593L1.09936 53.0185C0.719578 48.3096 0.499706 39.062 0.719578 35.7857C1.0294 31.0556 0.839508 25.8077 0.609642 18.709C0.559672 17.2481 0.559671 14.8156 0.529689 12.83V12.0002L0.519695 12.5463C0.449736 12.83 0.389771 12.2626 0.329805 11.1634C0.309817 10.6103 0.279835 9.93655 0.249852 9.16356C0.21987 8.18491 0.199881 7.09279 0.169899 5.94394C-0.719583 3.85899 2.27867 4.71708 3.80778 4.60362C4.73724 4.62489 5.57675 4.65326 6.3463 4.67453C6.52619 4.67453 6.69609 4.68163 6.86599 4.68872C6.80603 4.68872 6.92596 4.68872 7.00591 4.67453C7.32573 4.64617 7.62555 4.6178 7.90539 4.58943C8.46506 4.53979 8.94478 4.49724 9.34455 4.46178C10.9536 4.32704 11.2934 4.34832 10.344 4.52561C9.84426 4.6178 6.24636 5.00784 10.1041 4.68163C12.9824 4.3625 15.9307 4.03628 18.899 3.77389C20.3881 3.63206 21.8772 3.49022 23.3664 3.34839C24.8655 3.22783 26.3546 3.10018 27.8538 2.97962C31.0419 2.70305 34.9496 2.43357 37.4082 2.36265C39.7968 2.27755 42.5052 2.16408 44.9938 2.04352C47.4723 1.90878 49.721 1.78822 51.2001 1.71022C59.7052 1.19252 67.1209 1.13579 75.0762 1.10033L74.0069 1.13579L75.3261 1.10033C81.3226 0.96559 87.459 0.866306 88.3285 1.07906C87.9187 1.08615 87.1192 1.10033 87.1692 1.10742C87.2991 1.12161 87.7788 1.14288 88.1186 1.15707H89.5878H88.4684C88.4184 1.13579 88.3985 1.10742 88.4085 1.08615C96.8935 1.13579 105.548 1.19252 114.393 1.24217C116.882 1.24926 118.991 1.25635 121.549 1.26344C137.39 1.39818 138.789 1.46201 139.329 1.75277C139.329 1.75277 139.469 1.75986 139.689 1.76695C139.908 1.76695 140.208 1.78113 140.538 1.78822C141.208 1.8095 142.027 1.83077 142.627 1.84496C148.773 1.93715 144.746 1.78822 145.395 1.75277C148.403 1.58257 151.242 1.58966 162.435 1.88751C170.441 2.10026 176.747 2.20663 184.562 2.29173C188.22 2.32719 189.07 2.4052 188.91 2.45484H187.99L189.21 2.46193C194.027 2.52576 199.194 2.55412 203.731 2.68177C218.043 3.07891 231.435 3.22074 245.177 3.82353C246.486 3.88736 248.665 4.02919 250.434 4.15684C249.854 4.14266 246.456 3.95828 249.195 4.15684H250.544C257.14 4.57525 263.816 5.1284 270.552 5.80211C277.288 6.48291 284.084 7.27009 291 8.05726C304.812 9.63161 319.084 11.206 334.145 11.596C326.12 11.5747 318.574 11.135 317.925 11.2485C326.26 11.8655 331.287 11.9293 334.475 12.0073C337.663 12.0286 339.022 11.9719 340.052 11.8726C340.921 11.7733 340.791 11.7237 348.187 11.6598C356.252 11.5464 360.64 11.3903 363.708 11.3974C365.267 11.3762 367.975 11.362 371.463 11.128C373.282 11.0145 375.171 10.8939 377.12 10.7734C379.219 10.6315 381.388 10.4897 383.566 10.3479C391.312 9.82309 399.307 9.19193 405.743 8.55368C406.993 8.43312 408.372 8.30547 409.841 8.16364C410.571 8.09981 411.33 8.02889 412.1 7.95798C412.49 7.92252 412.879 7.88706 413.269 7.8516L414.189 7.77359C414.368 7.73104 414.528 7.80905 414.698 7.85869L415.188 8.01471C416.767 8.51822 418.376 9.02882 419.985 9.53942C420.585 9.78763 421.634 9.83018 421.304 10.4897C421.284 10.9365 421.274 11.3903 421.254 11.8371C421.234 12.4115 421.204 12.9789 421.184 13.5391C421.005 17.7941 420.865 20.6663 420.785 25.9495C420.685 32.5874 420.405 36.0694 420.115 35.3106V34.6865V35.4666C420.095 36.3743 420.075 37.2891 420.045 38.204C420.045 38.5585 420.045 38.8918 420.045 39.289C420.045 39.3386 420.015 39.757 420.005 40.0052V38.9486C419.725 44.7638 419.755 47.1607 419.975 45.3595C420.305 42.6362 420.185 45.558 419.975 50.6924C419.765 56.0253 419.605 61.5426 419.465 67.4287L419.405 70.2654C419.116 71.5064 419.016 77.0876 418.926 81.3142C418.756 89.3278 418.416 85.4912 418.286 92.8524C418.206 97.157 418.376 98.469 418.166 105.043C417.806 116.092 417.327 127.928 417.187 138.083C417.097 144.834 416.387 144.778 416.677 151.862C416.477 158.904 416.287 165.946 416.087 172.974C415.848 181.626 415.598 189.739 415.248 198.618C414.958 206.326 414.548 215.425 414.518 224.609C414.528 233.991 414.608 234.551 414.209 236.274C414.179 236.437 414.129 236.523 414.169 237.657C414.209 239.111 414.268 240.756 414.358 241.855C414.478 243.586 414.698 246.657 415.008 249.628C415.298 252.606 415.678 255.493 415.858 256.869C416.377 261.131 417.117 265.237 418.096 269.307L418.136 269.499V269.513C418.456 269.322 415.398 271.215 416.687 270.414H416.657L416.587 270.392L416.457 270.364L415.938 270.251L414.888 270.024C414.378 269.917 414.648 269.946 414.179 269.953L413.079 269.974C411.62 270.002 410.151 270.024 408.682 270.052C405.743 270.095 402.785 270.137 399.787 270.187C395.18 270.243 388.963 270.399 389.033 270.251C389.053 270.194 387.274 270.208 385.195 270.265C378.769 270.442 371.363 270.548 363.778 270.655C356.182 270.74 348.407 270.818 341.221 270.938C327.939 271.158 330.887 270.86 324.331 270.811C319.214 271.109 308.35 271.272 293.379 271.272C286.953 271.279 280.836 271.293 274.17 271.35C265.165 271.435 256.101 271.499 246.986 271.513C237.871 271.541 228.697 271.513 219.482 271.435C211.427 271.57 205.21 271.215 194.677 271.364C188.25 271.463 175.268 271.272 165.044 271.229C152.841 271.187 140.148 271.094 128.245 270.91C118.241 270.74 110.266 270.804 100.831 270.662C76.5254 270.329 51.8398 269.953 27.7438 269.478C22.5668 269.364 17.3799 269.258 12.1929 269.144L8.82485 269.073H8.7449L8.58499 269.052L7.94537 268.995C7.51562 268.96 7.09586 268.91 6.66611 268.839C6.03648 268.74 5.41684 268.612 4.78721 268.534C4.64729 268.52 4.4474 268.492 4.4574 268.393C4.46739 268.116 4.25752 268.244 4.1176 268.244C3.96768 268.244 3.81777 268.244 3.66786 268.244C3.60789 268.244 3.54793 268.244 3.52794 268.18C3.51795 268.13 3.52794 268.052 3.57791 268.052C3.79778 268.031 3.7678 267.854 3.87774 267.761C4.18756 267.499 4.59732 267.464 4.99708 267.421C5.73665 267.35 6.48622 267.393 7.23578 267.364C7.76547 267.35 8.28517 267.364 8.81486 267.364C19.9684 267.577 31.1219 267.79 42.2654 267.995C54.968 268.187 67.6705 268.385 80.3432 268.577C116.632 269.045 153.061 269.4 189.06 269.492C223.07 269.577 257.28 269.584 291.18 269.322C315.526 269.144 340.432 268.953 365.177 268.641C377.23 268.463 389.323 268.286 401.426 268.116L410.501 267.974L412.769 267.939L413.909 267.924L414.608 267.91C414.788 267.903 414.968 267.903 415.138 267.953L415.568 268.045L416.657 268.279L417.197 268.4L417.467 268.456L417.537 268.471C413.119 271.229 416.307 269.222 415.318 269.832V269.804L415.288 269.704L414.938 268.102C413.999 263.826 413.289 259.521 412.769 255.209C410.741 237.948 411.65 220.68 412.06 203.568C412.06 202.263 412.11 200.951 412.18 199.632C413.049 170.761 413.929 141.558 414.788 113.135C415.478 91.044 416.127 70.0385 416.807 48.4869C417.117 37.8352 417.427 27.148 417.726 16.4609L417.846 12.4541L417.876 11.5038L416.237 10.979L413.839 10.2202L413.279 10.2699L411.88 10.3904L406.273 10.8585C398.798 11.4754 391.332 12.0711 383.856 12.5676C381.697 12.7165 379.539 12.8512 377.37 12.9789C370.494 13.3902 363.618 13.7022 356.752 13.8795C344.419 14.1845 332.016 14.071 319.694 13.2058C307.371 12.3477 295.218 10.8727 283.115 9.50396C271.012 8.1069 258.949 6.94387 246.806 6.34108C234.663 5.68864 222.51 5.40498 210.377 5.15677C191.418 4.80218 172.419 4.4476 153.451 4.10011C134.482 3.7668 115.563 3.37676 96.7536 3.28457C82.4419 3.21365 68.1003 3.33421 53.7886 3.84481C46.6328 4.07174 39.487 4.45469 32.3511 4.8731C25.2253 5.36243 18.1094 5.87303 11.0236 6.59638C9.85425 6.70984 8.67494 6.82331 7.49563 6.93678L7.25577 6.95805C7.10586 6.97223 6.99592 6.98642 6.86599 6.97933L6.35629 6.96514L5.45682 6.93678L3.85775 6.88714C3.69784 6.88714 3.49796 6.85877 3.37803 6.88714V7.24881C3.38802 8.08563 3.39802 8.92954 3.40801 9.77345C3.45798 13.2058 3.49796 16.6666 3.54793 20.1415C3.64787 27.0842 3.74781 34.0695 3.83776 40.991C4.13759 64.7481 4.43741 88.3492 4.73724 112.106C5.29691 153.408 5.85658 194.689 6.41626 236.005L6.78604 263.301V264.138V264.173V264.244L6.77605 264.386V264.669C6.74607 265.045 6.73607 265.421 6.75606 265.797C6.75606 265.953 6.60615 266.109 6.64612 266.222C6.66611 266.265 6.66611 266.293 6.67611 266.336V266.499C6.67611 266.605 6.66611 266.705 6.66611 266.811C6.98593 267.478 5.85658 267.655 5.29691 267.868C5.01707 267.932 4.73724 268.059 4.47739 268.18C4.37745 268.229 4.29749 268.265 4.20754 268.102C4.1176 267.939 3.89773 268.003 3.72782 268.038C3.72782 268.073 3.75781 268.109 3.74781 268.137C3.74781 268.201 3.67785 268.222 3.58791 268.222C3.55792 268.222 3.51795 268.208 3.50795 268.194L3.54793 268.187ZM5.24694 267.612C5.24694 267.612 5.18697 267.598 5.15699 267.598C5.137 267.598 5.12701 267.612 5.10702 267.62C5.137 267.62 5.15699 267.634 5.18697 267.634C5.20696 267.634 5.21696 267.62 5.24694 267.612ZM6.79604 268.166C6.79604 268.166 6.84601 268.187 6.87599 268.18C6.89598 268.18 6.91597 268.166 6.94595 268.159C6.91597 268.151 6.88598 268.137 6.86599 268.137C6.84601 268.137 6.82602 268.151 6.79604 268.159V268.166ZM7.16582 268.378C6.97593 268.364 6.856 268.35 6.70609 268.336C6.83601 268.463 6.95594 268.435 7.16582 268.378ZM113.174 269.853C114.213 269.853 115.383 269.853 116.492 269.861C117.921 269.861 117.841 269.832 116.122 269.811C115.093 269.811 113.774 269.811 112.814 269.804C111.345 269.804 111.505 269.832 113.174 269.853ZM51.5699 268.939C56.2972 269.024 60.2849 269.102 64.2825 269.173L65.5618 269.208L64.6223 269.173C60.7946 269.066 56.8868 268.981 51.5699 268.939ZM23.0266 268.031C23.2165 268.031 24.056 268.059 24.6156 268.073C24.9854 268.073 25.3752 268.073 25.745 268.073C25.3352 268.052 25.0954 268.038 24.6057 268.024C23.0066 267.981 22.337 267.981 23.0266 268.024V268.031ZM8.49505 268.123C8.49505 268.123 8.51503 268.137 8.52503 268.144C8.53502 268.144 8.55501 268.151 8.565 268.144C8.59499 268.13 8.58499 268.116 8.53502 268.116C8.52503 268.116 8.50504 268.116 8.49505 268.123ZM118.011 270.13L117.541 270.052C111.885 269.988 106.138 269.924 100.571 269.861C75.6859 269.626 50.7604 269.158 25.9149 268.697C19.9883 268.584 14.7314 268.485 8.85484 268.371C8.51503 268.4 8.13525 268.492 7.91538 268.173C7.78546 268.187 7.78546 268.286 7.7155 268.329C7.65553 268.357 7.59557 268.371 7.47564 268.414C15.471 268.577 23.2664 268.733 30.952 268.889C60.2349 269.435 89.118 269.846 118.001 270.13H118.011ZM207.979 270.399H209.208L209.978 270.371H208.788L207.979 270.399ZM194.836 270.421C195.336 270.421 196.056 270.414 196.296 270.407C196.495 270.407 196.126 270.385 196.006 270.378C195.376 270.378 194.527 270.378 194.157 270.378C192.748 270.399 193.047 270.414 194.836 270.421ZM162.495 270.229C167.442 270.265 172.25 270.314 177.087 270.3C172.03 270.251 167.203 270.201 162.495 270.229ZM133.862 269.981C138.169 270.073 141.577 270.087 144.846 270.109C146.944 270.123 146.964 270.095 144.806 270.073C141.647 270.045 138.399 270.017 133.862 269.981ZM215.874 270.57C203.152 270.648 192.188 270.506 182.773 270.591C164.714 270.456 146.684 270.329 128.625 270.194C146.764 270.435 164.914 270.598 183.133 270.598C193.167 270.605 204.891 270.839 215.874 270.57ZM269.213 269.733H270.452L270.562 269.726H269.213V269.733ZM245.347 270.371C249.115 270.385 252.813 270.456 257.02 270.371C253.692 270.3 249.435 270.343 245.347 270.371ZM223.12 269.853C224.089 269.861 225.039 269.868 226.018 269.875C227.287 269.875 228.567 269.875 229.836 269.868L226.898 269.839L223.12 269.853ZM239.31 270.534C234.823 270.591 228.287 270.534 223.05 270.662C230.336 270.626 236.282 270.662 239.31 270.534ZM275.759 270.506L274.9 270.485C273.191 270.463 271.472 270.477 269.743 270.499L265.765 270.584C258.259 270.619 250.014 270.655 242.738 270.69C238.981 270.726 237.631 270.775 240.08 270.839C241.939 270.889 244.557 270.896 247.026 270.846C252.393 270.74 261.827 270.74 266.215 270.591L270.172 270.506L274.53 270.492L275.749 270.506H275.759ZM302.843 270.499C301.914 270.35 301.134 270.208 294.049 270.116C293.869 270.151 293.429 270.187 293.579 270.222C293.819 270.272 292.479 270.314 291.45 270.364C286.603 270.598 286.813 270.598 302.843 270.499ZM415.168 153.422C415.168 153.103 415.168 152.571 415.168 152.614C415.138 152.763 415.108 153.124 415.078 153.415H415.178L415.168 153.422ZM414.948 156.372L415.058 153.585C415.018 154.429 414.928 154.784 414.948 156.372ZM414.528 166.322L414.548 165.329L414.508 166.159L414.528 166.322ZM414.298 175.747C414.308 175.392 414.308 174.839 414.298 174.683C414.298 174.548 414.268 174.853 414.249 174.967C414.238 175.428 414.219 176.045 414.219 176.307C414.219 177.335 414.259 177.101 414.298 175.747ZM413.279 187.058L413.389 184.264L413.499 181.456L413.549 180.591L413.499 181.215C413.459 182.002 413.419 182.718 413.369 183.59C413.319 184.746 413.249 186.165 413.279 187.058ZM412.15 202.277L412.19 201.66V201.007L412.15 202.277ZM412.589 242.6C412.51 241.387 412.45 240.48 412.38 239.437C412.38 240.253 412.38 240.841 412.38 241.43C412.45 242.26 412.539 243.245 412.599 243.87C412.659 244.423 412.659 243.621 412.599 242.6H412.589ZM415.008 266.088L414.838 265.116H414.808L415.008 266.088ZM409.211 268.336L410.571 268.322L410.591 268.3L409.221 268.329L409.211 268.336ZM389.763 269.215C395.28 269.144 400.766 269.066 406.473 268.988C407.902 268.967 409.341 268.953 410.801 268.931C411.53 268.924 412.26 268.91 412.999 268.903L414.109 268.889H414.728L415.318 269.009L416.397 269.244L416.937 269.364L417.077 269.392H417.107L417.127 269.407C417.227 269.35 416.257 269.946 416.667 269.69V269.641L416.607 269.442C416.487 268.91 416.367 268.371 416.247 267.825C415.997 266.74 415.748 265.641 415.538 264.513C415.718 265.627 415.928 266.719 416.167 267.797C416.277 268.336 416.397 268.875 416.507 269.407L416.547 269.605L416.567 269.704C417.756 268.974 416.887 269.499 417.157 269.336H417.137H417.107L417.037 269.314L416.497 269.194L415.428 268.96L414.838 268.832C414.628 268.79 414.348 268.832 414.189 268.818L413.079 268.832C412.34 268.846 411.61 268.853 410.88 268.868C409.421 268.889 407.972 268.917 406.543 268.939C400.806 269.038 395.28 269.137 389.773 269.229L389.763 269.215ZM380.338 268.747C379.869 268.775 380.778 268.768 382.607 268.74C383.087 268.726 383.476 268.719 383.906 268.705L382.117 268.719C381.498 268.733 380.478 268.747 380.338 268.747ZM366.536 269.534C366.536 269.534 366.936 269.541 367.516 269.541C368.095 269.541 368.815 269.541 369.395 269.541C371.054 269.506 373.902 269.463 374.372 269.435C375.521 269.371 372.353 269.421 370.884 269.435C369.165 269.456 366.696 269.485 366.536 269.527V269.534ZM352.075 269.144L353.534 269.116C354.154 269.087 357.462 269.08 356.632 269.038L353.214 269.116L352.075 269.144ZM318.824 270.3C319.094 270.272 318.344 270.265 316.635 270.279C315.486 270.293 314.397 270.314 313.277 270.329C314.057 270.336 314.737 270.357 315.646 270.357C316.575 270.343 317.745 270.321 318.814 270.3H318.824ZM338.643 269.804C335.724 269.825 333.376 269.861 331.477 269.91C327.029 269.931 322.912 269.896 317.585 270.002C321.822 270.073 326.63 270.009 331.677 269.91C333.695 269.861 337.923 269.889 338.643 269.797V269.804ZM389.373 269.811H388.144L388.034 269.832L389.373 269.811ZM417.117 267.471L417.307 268.279C417.337 268.393 417.387 268.619 417.457 268.882C417.487 269.017 417.517 269.158 417.557 269.307L417.607 269.527V269.556V269.57V269.577C417.766 269.478 416.207 270.442 416.867 270.038L416.797 270.024L416.647 269.995C415.888 269.832 415.288 269.704 415.638 269.811L416.487 269.988L416.697 270.031L416.807 270.052H416.837L416.847 270.059C418.396 269.102 417.277 269.79 417.617 269.577V269.534L417.537 269.222L417.237 267.981L417.097 267.471H417.117ZM414.239 252.989C414.508 256.117 415.018 259.443 415.578 262.641C415.898 264.237 416.157 265.804 416.507 267.286C416.667 268.031 416.817 268.754 416.977 269.456L417.007 269.591V269.626L417.017 269.641V269.655C417.037 269.641 416.977 269.69 417.067 269.626L416.977 269.605L416.627 269.527C416.397 269.478 416.157 269.421 415.928 269.371C415.468 269.279 415.038 269.137 414.558 269.095C403.475 269.137 394.14 269.385 384.056 269.556C376.68 269.591 369.525 269.69 362.409 269.804C355.293 269.903 348.237 270.002 341.071 270.109C353.834 270.038 366.626 269.931 379.699 269.697C381.198 269.697 382.667 269.683 384.066 269.641C393.86 269.584 403.375 269.435 412.779 269.272L414.528 269.244C415.048 269.286 415.638 269.463 416.187 269.57L416.607 269.662L416.817 269.704L416.917 269.726L416.967 269.74H416.997C417.067 269.704 416.867 269.839 417.147 269.655L417.007 269.031L416.727 267.804C416.337 266.166 416.027 264.528 415.708 262.889C415.118 259.606 414.588 256.322 414.229 253.018L414.239 252.989ZM412.819 234.182L412.799 232.672V231.161L412.829 230.282L412.799 231.097C412.759 232.147 412.759 233.204 412.819 234.274C412.799 242.111 413.269 249.316 414.268 256.039L414.348 256.826L414.308 256.273C414.029 253.628 413.889 250.777 413.529 247.508C413.099 243.643 412.969 237.835 412.829 234.189L412.819 234.182ZM413.759 235.494V236.232L413.799 235.87L413.759 235.494ZM414.149 215.347L414.129 216.297L414.169 215.425L414.149 215.347ZM413.979 208.574V209.482C413.979 209.936 413.879 212.262 413.969 211.68L413.989 209.22V208.574H413.979ZM413.869 200.234C413.629 201.241 413.569 207.709 413.469 211.985C413.349 216.616 413.269 221.85 413.019 221.545L412.999 221.02V221.814C413.169 225.665 413.019 236.31 413.519 241.643C413.009 231.232 413.479 220.985 413.699 210.808C413.789 206.787 414.109 199.171 413.859 200.227L413.869 200.234ZM413.769 195.334C413.369 199.887 413.279 206.305 413.129 212.404C413.409 207.291 413.499 200.61 413.769 195.334ZM414.268 190.214C414.268 190.214 414.219 190.717 414.209 191.107C414.209 191.455 414.189 191.966 414.179 192.405C414.199 192.334 414.219 192.427 414.229 192.157C414.298 191.093 414.308 190.299 414.268 190.207V190.214ZM413.859 186.271C413.859 186.54 413.859 186.959 413.859 187.044C413.879 187.349 413.899 187.555 413.919 187.796V188.42L413.929 187.583L413.859 186.271ZM415.698 147.394L415.578 150.302C415.428 151.961 415.288 153.408 415.178 153.472C414.978 162.776 414.768 172.088 414.508 184.448C414.998 171.088 415.358 160.819 415.588 150.373C415.628 149.408 415.718 148.997 415.708 147.394H415.698ZM416.117 100.909L416.137 99.9582L416.097 100.831L416.117 100.909ZM416.227 111.298C416.237 110.468 416.257 109.326 416.267 108.887C416.257 108.241 416.207 108.915 416.187 110.106C416.177 111 416.157 111.993 416.147 112.603C416.147 113.255 416.187 112.624 416.227 111.298ZM415.438 137.892C415.748 131.644 415.788 126.566 415.848 121.184C415.748 125.368 415.598 129.119 415.438 132.977C415.308 136.076 415.368 137.268 415.438 137.884V137.892ZM416.967 93.6112V94.4764C416.577 109.34 416.197 123.503 415.778 139.728C416.377 129.991 416.507 119.631 416.857 110.645C417.217 101.639 417.247 95.7954 416.977 94.2352V93.6041L416.967 93.6112ZM3.64787 67.9961V68.9109L3.66786 68.996L3.64787 67.9961ZM2.85833 63.7907C2.88831 66.3295 2.87832 68.8045 2.97826 71.0668C2.97826 68.5067 2.94828 66.0388 2.85833 63.7907ZM3.17815 38.9699L3.14816 39.3032L3.18814 39.8138V38.9699H3.17815ZM2.37861 22.737V24.8574C2.3986 25.7439 2.41859 26.6516 2.43858 27.7225C2.43858 26.8856 2.43858 26.1765 2.43858 25.4744C2.41859 24.5667 2.3986 23.6518 2.37861 22.737ZM2.94828 17.0708V17.8367L2.98826 17.5885L2.94828 17.0708ZM13.4721 5.2986C13.5921 5.25605 12.6926 5.33406 11.0735 5.51135C10.5339 5.60354 9.52445 5.75247 9.47447 5.80211C9.46448 5.81629 9.98418 5.76665 10.6138 5.70992C11.2334 5.64609 11.953 5.57518 12.3028 5.52553C13.1024 5.41916 13.3522 5.35533 13.4721 5.30569V5.2986ZM37.5181 4.14266C35.4593 4.25613 33.6204 4.3625 31.9414 4.45469C30.2624 4.56816 28.7532 4.67453 27.3541 4.77382C24.5457 4.9582 22.1871 5.16386 19.8184 5.39079C22.357 5.19223 24.7756 5.00075 27.5539 4.80928C28.9431 4.70999 30.4323 4.59653 32.0713 4.47597C33.7103 4.37668 35.5093 4.26322 37.5181 4.14266ZM58.5559 2.94417L57.4165 2.96544L57.1967 2.98672L58.5559 2.94417ZM67.6006 2.36265L66.4413 2.39811C59.1455 2.63213 51.8498 2.83779 40.1366 3.5115C53.7387 2.80233 61.5341 2.67468 66.831 2.39811L67.5906 2.36265H67.6006ZM87.559 3.0009H83.7412L80.653 3.04345C81.9222 3.04345 83.2015 3.03636 84.4707 3.02927C85.5002 3.02217 86.5296 3.00799 87.559 3.0009ZM106.718 2.92289L105.568 2.90162L105.349 2.9158H106.718V2.92289ZM155.549 3.60369C154.45 3.56114 153.221 3.54696 152.141 3.54696C152.231 3.56114 152.091 3.56823 152.461 3.58242C153.56 3.62497 154.88 3.64624 155.839 3.63915C156.109 3.63915 155.929 3.61787 155.549 3.60369ZM161.136 3.50441L160.636 3.47604L160.117 3.49022L161.136 3.5115V3.50441ZM177.986 3.55405C177.866 3.5115 176.207 3.46186 174.268 3.41931C171.46 3.37676 169.891 3.37676 169.601 3.41222C169.251 3.44767 171.31 3.50441 173.729 3.54696C176.117 3.58951 178.116 3.60369 177.986 3.55405ZM196.096 4.33413L195.826 4.30577H195.146L196.106 4.33413H196.096ZM202.602 4.24194L201.273 4.22776L202.492 4.25613L202.602 4.24194ZM225.069 4.99366L223.79 4.95111L223.77 4.96529L225.069 4.99366ZM237.602 5.46171L236.222 5.41916L237.482 5.47589L237.602 5.46171ZM239.83 4.97948C238.761 4.94402 238.021 4.93693 237.132 4.91565C237.841 4.95111 238.711 5.00075 239.58 5.0433C240.79 5.08585 242.778 5.17095 243.068 5.17095C243.998 5.17095 242.109 5.05748 239.82 4.97238L239.83 4.97948ZM255.031 5.78083L253.662 5.69573L254.921 5.78793H255.031V5.78083ZM284.854 9.24157C284.454 9.19193 284.114 9.14938 283.645 9.08555C283.035 9.01464 282.135 8.91535 281.696 8.86571C280.466 8.74515 280.986 8.80898 283.005 9.043C283.615 9.10683 284.224 9.17774 284.844 9.24157H284.854ZM290.191 9.1281L289.051 9.01464L288.282 8.94372L289.461 9.06428L290.191 9.1281ZM298.196 10.7379L296.887 10.6032L298.176 10.7521L298.196 10.7379ZM308.7 11.2982C308.09 11.2414 307.471 11.1847 306.861 11.128C307.251 11.1705 307.591 11.2131 308.05 11.2627C308.66 11.3194 309.57 11.4045 309.999 11.4471C311.239 11.5464 310.729 11.4896 308.71 11.2982H308.7ZM333.346 13.4682L331.966 13.4257L333.126 13.4753H333.346V13.4682ZM399.277 10.4472L398.138 10.5252L397.928 10.5606L399.287 10.4472H399.277ZM418.856 12.3619L418.896 12.0215L418.876 11.6386L418.856 12.3619ZM418.676 35.3106C418.696 33.9419 418.726 32.3462 418.746 31.325C418.746 30.3606 418.686 31.1619 418.676 32.1831C418.676 33.3958 418.676 34.2894 418.676 35.3106ZM417.597 65.9678L417.746 61.5143C417.786 60.1172 417.776 59.713 417.746 59.9399C417.617 61.5072 417.587 62.9752 417.577 64.2942C417.577 64.9821 417.577 65.4218 417.587 65.9678H417.597ZM417.267 77.2791C417.297 77.6266 417.337 77.0238 417.357 75.8324C417.357 75.4636 417.347 75.3147 417.337 75.0594C417.317 75.3998 417.297 75.7402 417.287 76.0664C417.277 76.4919 417.267 77.194 417.267 77.272V77.2791ZM418.666 65.4785C418.506 67.3224 418.476 70.4923 418.456 72.9461V73.4779L418.476 72.6695C418.606 69.7973 418.696 69.1946 418.776 69.613C418.776 69.8683 418.776 70.3576 418.776 70.3221C418.806 70.2158 418.836 69.8824 418.856 69.6413L419.006 68.1663L418.866 69.1307C418.826 69.6626 418.806 69.6555 418.796 69.1024C418.756 67.7266 418.816 63.7978 418.666 65.4785ZM419.166 47.8983C419.146 48.3167 419.126 48.7351 419.116 49.1464C419.116 49.579 419.086 50.2953 419.086 50.4016C419.106 50.7349 419.136 50.0896 419.166 48.8131C419.166 48.4727 419.166 48.2032 419.166 47.8983ZM420.095 27.07C420.035 27.5523 420.025 28.0345 420.075 28.2402C420.085 28.2969 420.105 28.0558 420.125 27.9565C420.125 27.6586 420.145 27.1622 420.145 27.1055C420.135 26.9778 420.115 26.9211 420.105 27.07H420.095ZM375.381 11.2414L376.62 11.1492C376.79 11.135 376.97 11.128 377.16 11.1138C378.759 11.0003 380.618 10.8797 381.618 10.7876C382.427 10.7095 380.508 10.8159 379.449 10.8939C378.389 10.9719 377.8 11.0287 377.16 11.0925C376.95 11.1138 376.72 11.135 376.481 11.1563L375.391 11.2414H375.381ZM296.087 9.2132C296.227 9.22739 297.097 9.33376 297.646 9.39759C297.856 9.41886 298.156 9.44723 298.406 9.4685C298.656 9.48978 298.856 9.50396 298.856 9.50396C298.896 9.4756 297.916 9.36213 296.457 9.22029C296.087 9.18484 295.917 9.17774 296.097 9.20611L296.087 9.2132ZM243.458 4.11429C245.907 4.21358 248.365 4.32704 250.814 4.45469L251.573 4.47597L250.364 4.41923C249.724 4.38378 248.935 4.34832 248.465 4.31995C247.016 4.26322 243.448 4.03628 243.448 4.1072L243.458 4.11429ZM191.468 2.67468C191.788 2.75978 194.866 2.81652 197.775 2.86616C199.474 2.89452 203.192 2.96544 201.033 2.88034C199.384 2.80942 201.343 2.73851 195.206 2.66759C193.527 2.64632 192.498 2.66759 191.458 2.67468H191.468ZM190.209 3.086L193.697 3.10727H194.657L193.397 3.10018C192.628 3.10727 189.38 3.02217 190.209 3.09309V3.086ZM113.724 1.44782L114.953 1.4691L115.063 1.45492H113.724V1.44782ZM76.4054 1.34145H77.6148C77.8546 1.33436 78.3243 1.31308 78.2844 1.30599C78.1444 1.27053 77.3649 1.27053 76.4754 1.30599C76.1856 1.32017 76.4254 1.32727 76.4155 1.34145H76.4054ZM1.13933 22.5101L1.11935 21.5456V22.3612L1.13933 22.5172V22.5101ZM1.90889 38.7075C2.01882 35.651 1.85891 29.8287 1.98884 28.2543C2.02882 28.8075 2.06879 30.9634 2.09877 29.3039L1.98884 27.921C1.96885 23.7866 1.89889 19.7798 1.80894 15.8085C1.76897 13.8228 1.719 11.8442 1.67902 9.86564C1.65903 8.84444 1.63904 7.82324 1.61905 6.80204L1.59907 5.88721V5.66028C1.59907 5.62482 1.58907 5.58227 1.59907 5.54681H1.75897L2.3986 5.56808L4.8072 5.63191C5.44682 5.64609 6.06646 5.66737 6.67611 5.68155C6.84601 5.68155 6.92596 5.69573 7.04589 5.68155L7.48563 5.639C7.77546 5.61063 8.0653 5.58227 8.34513 5.5539C9.48447 5.44043 10.5439 5.33406 11.5533 5.22768C13.5521 5.02912 15.2811 4.84473 16.7502 4.73836C19.6685 4.51143 21.4675 4.40505 22.0871 4.46178C22.5269 4.48306 27.8737 4.13557 29.4928 3.90154C29.9425 3.83772 30.0425 3.7668 31.9913 3.63915C44.9638 2.9158 57.4365 2.27755 70.2091 2.12862C77.145 2.0648 84.8805 2.00097 91.1169 1.94424C97.8729 1.8946 99.9118 2.20663 107.877 2.05771C109.776 2.02225 113.514 2.15699 113.714 2.22082C114.024 2.3201 103.939 2.28464 109.016 2.46193C117.731 2.50448 130.574 2.80942 131.393 2.55412C129.365 2.51157 127.036 2.46193 125.387 2.42647C123.848 2.38392 121.689 2.30592 122.119 2.29882C123.978 2.25627 126.706 2.33428 128.815 2.39811C130.344 2.45484 131.493 2.49739 132.803 2.54703C133.842 2.56122 134.891 2.58249 135.931 2.59667C136.48 2.59667 136.98 2.59667 137.6 2.59667C137.76 2.59667 138.529 2.62504 138.599 2.63213C138.289 2.63213 137.75 2.63213 137.3 2.63213C146.724 2.87325 146.395 2.60377 156.019 2.81652C174.588 3.22783 195.756 3.44058 213.066 3.98664C215.534 4.06465 220.002 4.13557 223.13 4.17103L218.483 4.01501C221.131 4.01501 222.77 4.1072 224.719 4.17812C235.563 4.42633 246.456 4.83764 257.31 5.62482C268.164 6.39781 278.947 7.64594 289.691 8.86571C291.05 9.01464 292.37 9.14938 293.709 9.2983C296.437 9.67416 298.986 10.05 304.852 10.6528C312.938 11.4613 317.005 11.7449 319.264 11.9435C321.523 12.1279 321.982 12.2059 322.902 12.3903C325.41 12.5179 327.059 12.5605 328.758 12.6172C330.467 12.6527 332.206 12.6952 334.895 12.7519C348.937 13.0143 363.068 12.5108 377.24 11.6527C379.389 11.5251 381.548 11.3833 383.706 11.2343C391.872 10.6812 400.067 10.0358 408.272 9.36922C409.871 9.24157 411.43 9.11392 412.889 9.00045C413.249 8.97209 413.599 8.94372 413.939 8.92244C414.109 8.88699 414.259 8.93663 414.398 8.99336C414.548 9.043 414.698 9.09264 414.848 9.14229C415.458 9.34085 416.027 9.53233 416.567 9.70962C417.607 10.0571 418.596 10.3975 419.116 10.589C419.256 10.6386 419.376 10.6883 419.495 10.7308C419.555 10.7946 419.495 10.9081 419.495 10.9719C419.475 11.1209 419.445 11.2201 419.415 11.2769C419.396 11.3336 419.366 11.3974 419.346 11.5889C419.316 11.7875 419.296 12.057 419.266 12.4399C419.216 13.1987 419.176 14.3688 419.146 16.1205C419.106 18.4537 419.076 19.8862 419.246 18.5813C419.555 16.2269 419.346 23.1342 419.216 27.0629C419.076 31.3889 418.866 33.41 418.686 35.3815C418.596 38.0267 418.356 41.8987 418.476 43.005C418.706 45.1112 418.496 50.9619 418.256 57.0536C417.846 67.606 417.607 77.818 417.317 88.3633C417.607 86.789 417.746 83.7467 417.916 77.1089C418.276 63.1028 418.616 49.0613 419.206 34.7149C419.475 28.1905 419.715 20.8294 419.875 13.5604C419.885 12.986 419.895 12.447 419.915 11.9364C419.915 11.674 419.925 11.4187 419.935 11.1705C419.935 11.0429 419.935 10.9152 419.935 10.7876V10.6032V10.5535L419.875 10.5323L419.755 10.4968C418.556 10.1209 417.497 9.78763 416.507 9.4756C416.027 9.31958 415.558 9.17774 415.098 9.02882C414.648 8.91535 414.179 8.63878 413.659 8.77352C412.699 8.85153 411.75 8.92954 410.751 9.01464C406.773 9.33376 402.056 9.70253 392.631 10.3479C389.803 10.5393 386.215 10.8159 383.656 11.0216C383.267 11.057 382.957 11.0783 382.657 11.1067C381.228 11.2343 379.229 11.3903 377.21 11.5251C374.042 11.7591 370.824 11.9151 369.724 11.9506C362.439 12.0995 353.434 12.5747 345.339 12.5676C336.624 12.5747 328.079 12.3406 319.544 11.7875C311.009 11.2131 302.494 10.3337 293.789 9.31249C287.692 8.53949 280.387 7.70977 273.511 6.99351C262.967 5.86593 252.413 5.11422 242.269 4.60362C241.769 4.58943 241.299 4.56816 240.75 4.55398C240.55 4.54688 239.82 4.50433 239.88 4.50433C240.06 4.50433 240.51 4.51143 240.85 4.51852C229.776 4.03628 219.062 3.88027 207.709 3.66042C177.866 3.10018 147.894 2.4903 117.951 1.99388C109.316 1.86623 99.7119 1.82368 92.3262 1.75986C87.6189 1.73858 86.3696 1.67476 82.1321 1.79532C79.1439 1.8946 74.5865 1.96552 70.7288 2.10026C69.9192 2.05771 68.5101 2.00807 64.2825 2.10026C52.5394 2.36974 41.206 2.7456 28.9131 3.66752C27.3441 3.78807 25.685 3.90863 23.996 4.03628C22.317 4.17812 20.608 4.32704 18.939 4.46888C15.6009 4.72418 12.4327 5.02912 9.9542 5.20641L10.7837 5.10713L9.58441 5.24187C8.9248 5.31278 8.26518 5.37661 7.60556 5.44753L7.11585 5.49717C6.93595 5.51844 6.91597 5.51844 6.74606 5.51844L5.76664 5.49717C5.08703 5.48298 4.40743 5.46171 3.73782 5.44753L2.43858 5.41207L1.78895 5.39788H1.46914L1.38919 5.39079V5.44753V5.56099C1.39918 6.62474 1.40918 7.68849 1.41917 8.75934C1.41917 9.68125 1.39918 10.6174 1.39918 11.5676C1.35921 13.5604 1.3692 18.7444 1.43916 19.7585C1.73898 24.2475 1.76897 31.7364 1.90889 38.7004V38.7075ZM2.49854 43.3383C2.54851 42.9837 2.64845 43.8135 2.59848 40.6506C2.58849 39.757 2.54851 38.4096 2.51853 38.1047C2.41859 36.97 2.43858 39.7003 2.41859 40.8208C2.37861 42.5086 2.44857 42.9837 2.49854 43.3383ZM1.57908 48.8769C1.59907 48.9549 1.61905 48.2174 1.62905 47.8557C1.57908 46.7352 1.51911 45.5155 1.47914 44.5226C1.43916 43.7355 1.41917 44.2744 1.43916 45.714C1.46914 47.4444 1.51911 48.6713 1.57908 48.884V48.8769ZM3.51795 59.1244C3.48796 54.6992 3.45798 50.742 3.27809 45.3311C3.31806 51.3661 3.41801 54.997 3.51795 59.1244ZM2.34863 80.9242C2.49854 78.3499 2.40859 72.7049 2.57849 73.4708C2.65845 73.8609 2.69842 71.7121 2.59848 69.9605C2.34863 65.5565 2.30865 57.3586 1.90889 50.5151C2.16873 61.7909 2.33863 70.4214 2.34863 80.9242ZM4.03764 81.6617C4.03764 81.222 4.03764 80.7894 4.03764 80.3427C4.01766 80.0164 4.00766 79.4278 3.98767 79.4066C3.9377 79.3286 3.9377 80.0377 3.98767 81.1866C3.99767 81.4844 4.01766 81.5128 4.03764 81.6617ZM2.64845 89.3207L2.67844 88.9236L2.63846 88.491V89.3207H2.64845ZM3.31806 92.2212C3.31806 91.9446 3.31806 91.6184 3.32806 91.3915C3.32806 90.966 3.29808 90.3916 3.28808 90.2497C3.23811 89.7817 3.23811 90.3277 3.26809 91.5617C3.26809 91.8808 3.29807 92.0014 3.31806 92.2212ZM3.0882 100.206L3.06821 99.2349V100.05L3.0882 100.206ZM4.24752 112.028C4.24752 116.978 4.34746 119.453 4.57733 121.382C4.4474 112.723 4.33747 104.717 4.21754 96.7031C4.24752 95.6819 4.21754 94.6111 4.17756 93.5048L4.13759 92.8453L4.17756 93.6892L4.19755 95.1572L4.21754 96.6251C4.22753 101.767 4.23753 106.986 4.24752 112.028ZM3.63788 114.872C3.62788 114.716 3.5979 114.907 3.5979 115.134C3.5979 115.489 3.61789 116.007 3.62788 116.461C3.64787 116.659 3.66786 117.141 3.67785 117C3.69784 116.368 3.67785 115.517 3.63788 114.872ZM3.2581 130.162C3.23811 123.829 2.99825 116.283 3.29807 114.978C3.05821 110.716 2.98826 115.127 2.85833 115.085C2.62847 108.589 2.98826 110.631 2.88831 105.844C2.61847 104.291 2.65845 109.929 2.70842 114.865C2.78837 122.368 2.99825 126.623 3.2581 130.162ZM2.67844 130.644C2.64845 128.793 2.58849 128.552 2.53852 127.836C2.48855 127.162 2.44857 127.495 2.46856 128.268C2.49854 129.481 2.55851 130.438 2.60848 131.282C2.65845 132.055 2.67844 131.693 2.67844 130.644ZM3.40801 140.615C3.43799 140.374 3.46798 139.969 3.46798 139.274C3.46798 137.459 3.40801 136.977 3.36803 136.537C3.30807 135.941 3.27809 136.58 3.28808 138.267C3.31806 139.863 3.34805 141.161 3.40801 140.615ZM4.56734 147.969C4.56734 147.65 4.57733 147.373 4.58732 147.061C4.56734 145.65 4.54735 145.387 4.52736 146.402C4.52736 146.671 4.52736 147.175 4.52736 147.572C4.54735 147.714 4.55734 147.855 4.56734 147.969ZM3.23811 175.91C3.23811 175.194 3.2581 174.541 3.26809 173.747C3.2581 172.612 3.21812 172.109 3.18814 172.811C3.16815 173.279 3.14816 174.087 3.15816 174.86C3.16815 175.995 3.20813 176.392 3.23811 175.903V175.91ZM3.79778 176.045C3.90772 174.534 3.82777 171.215 3.75781 168.386C3.70784 166.301 3.62788 165.627 3.54793 164.989C3.45798 158.606 3.5979 158.266 3.7678 158.954L3.80778 159.649L3.7678 158.769C3.5979 155.543 3.43799 152.316 3.2581 148.884C3.15816 155.486 3.36803 160.273 3.53794 165.145C3.57791 166.549 3.60789 167.939 3.64787 169.364C3.68785 171.563 3.55792 172.818 3.68785 175.619C3.70784 176.172 3.7678 176.343 3.78779 176.045H3.79778ZM4.67727 157.692L4.70725 157.429L4.66728 156.961V157.692H4.67727ZM4.49738 178.257L4.4574 177.491C4.42742 175.477 4.39743 173.463 4.36745 171.449C4.38744 171.173 4.40743 170.932 4.43741 170.584C4.43741 170.492 4.43741 169.754 4.43741 169.754C4.37745 169.081 4.37745 170.485 4.35746 171.265C4.30749 173.414 4.35746 175.57 4.4474 177.725L4.48738 178.257H4.49738ZM5.23694 182.413C5.34688 171.549 5.11701 162.053 4.92712 152.664C4.92712 151.855 4.93712 151.11 4.94711 150.224C4.94711 149.054 4.94711 147.558 4.87715 146.792C4.87715 147.728 4.88715 148.643 4.89714 149.586C4.89714 150.536 4.91713 151.515 4.92712 152.479C4.81719 161.393 5.147 171.081 5.24694 182.406L5.23694 182.413ZM4.05763 188.235C4.04764 187.774 4.03764 187.321 4.01766 186.902C4.01766 187.179 4.01766 187.42 3.99767 187.767C3.99767 188.214 4.01766 188.937 4.01766 189.221C4.05763 190.129 4.06763 189.732 4.04764 188.235H4.05763ZM5.32689 196.731L5.40685 193.171C5.43683 192.98 5.46681 192.98 5.49679 193.171L5.53677 193.802L5.50679 192.831C5.4868 192.575 5.46681 192.065 5.46681 192.107C5.44682 192.221 5.42683 192.59 5.40685 192.852C5.38686 194.207 5.22695 192.774 5.33689 196.717L5.32689 196.731ZM4.21754 199.476L4.18756 198.49V199.469L4.21754 199.476ZM4.95711 200.043L4.9771 199.504C4.9771 198.206 4.9771 196.916 4.9671 195.611C4.94711 194.526 4.88715 194.185 4.89714 195.065C4.91713 196.334 4.94711 197.83 4.9671 199.235V200.043H4.95711ZM3.96768 201.199L3.99767 200.823L3.95769 200.426V201.206L3.96768 201.199ZM5.85658 265.031C6.04647 265.109 6.18639 265.137 6.27634 265.223C6.32631 265.272 6.43624 265.279 6.48622 265.223C6.53619 265.173 6.48622 265.123 6.40626 265.095C6.25635 265.045 6.11643 264.996 5.84659 265.031H5.85658ZM5.67669 265.017L5.6567 265.031H5.67669V265.017ZM6.20638 264.762C6.20638 264.762 6.22637 264.811 6.27634 264.818C6.3363 264.818 6.40626 264.832 6.45623 264.79C6.43625 264.776 6.42625 264.747 6.40626 264.747C6.3463 264.747 6.25635 264.74 6.21637 264.762H6.20638ZM6.18639 264.499C6.18639 264.499 6.20638 264.535 6.24636 264.528C6.28633 264.528 6.3363 264.513 6.37628 264.506C6.35629 264.492 6.3363 264.471 6.31632 264.471C6.26634 264.464 6.21637 264.471 6.18639 264.499ZM5.33689 264.251L5.3169 264.272H5.34688L5.33689 264.251ZM5.97651 264.201C5.97651 264.201 5.95652 264.216 5.94653 264.223C5.94653 264.23 5.94653 264.244 5.94653 264.251C5.94653 264.251 5.96652 264.251 5.97651 264.251V264.194V264.201ZM6.12643 244.99L6.15641 245.869L6.24636 248.791L6.15641 245.635L6.11643 244.997L6.12643 244.99ZM5.96652 248.756L5.93654 248.6L5.95653 249.585V248.749L5.96652 248.756ZM5.78662 232.31C5.72666 232.374 5.70667 233.395 5.78662 234.828C5.8266 235.558 5.88657 235.374 5.92654 235.189C5.94653 235.125 5.92654 233.87 5.93654 232.842C5.88657 232.636 5.8366 232.268 5.79662 232.31H5.78662ZM5.64671 205.809L5.62672 204.794V205.645L5.64671 205.801V205.809ZM4.30749 210.035C4.30749 209.773 4.33747 209.581 4.33747 209.241C4.32748 208.638 4.31748 208.149 4.31748 207.815C4.30749 207.482 4.2875 207.298 4.26751 207.305C4.26751 207.305 4.25752 207.411 4.24752 207.553C4.24752 207.695 4.24752 207.879 4.24752 208.049C4.24752 209.248 4.2775 209.936 4.32747 210.035H4.30749ZM4.46739 218.453V217.602L4.4474 217.446L4.46739 218.453ZM5.28692 218.878C5.28692 218.836 5.27692 216.46 5.26693 215.29C5.22695 213.985 5.18697 212.815 5.147 211.581L4.89714 208.312L4.85717 207.78L4.89714 208.532L4.94711 211.688L4.92712 212.439L4.95711 211.9L5.147 211.879C5.15699 212.843 5.17698 213.822 5.18697 214.758C5.21696 216.226 5.16699 218.481 5.28692 218.878ZM5.84659 221.822L5.80661 220.885L5.76664 220.134L5.80661 221.013L5.84659 221.822ZM4.6273 264.414L4.64729 264.393H4.61731L4.6273 264.414ZM4.81719 264.4H4.84717L4.83718 264.379L4.81719 264.4ZM5.16699 264.797C5.16699 264.797 5.24694 264.747 5.20696 264.719C4.99708 264.556 5.11701 264.372 5.21696 264.237C5.23694 264.216 5.24694 264.187 5.26693 264.166V264.13C5.26693 264.13 5.28692 264.13 5.28692 264.109V263.726C5.28692 263.471 5.28692 263.223 5.28692 262.974C5.25693 260.996 5.22695 259.152 5.19697 257.393C5.11701 253.876 5.00708 250.678 4.87715 247.323C4.83718 246.238 4.84717 243.834 4.78721 243.309C4.78721 243.104 4.78721 242.933 4.78721 242.721C4.84717 239.6 4.86716 234.544 5.09703 242.685L5.07704 243.529L5.09703 242.848C5.15699 242.87 5.20696 243.295 5.25693 244.167C5.3069 245.04 5.34688 246.352 5.38686 248.139C5.40685 248.968 5.44682 253.387 5.50679 249.805C5.56675 246.146 5.34688 235.211 5.25693 236.367C4.95711 240.047 4.76722 229.41 4.4574 225.382C4.52736 229.19 4.58732 232.729 4.76722 243.203C4.76722 243.196 4.74723 243.203 4.73724 243.274C4.64729 243.884 4.65728 246.366 4.73724 249.217C4.91713 255.479 5.00708 261.861 4.90714 253.131C4.94711 256.088 4.98709 259.407 5.03706 263.138C5.03706 263.464 5.03706 263.79 5.04706 264.123V264.152V264.216C5.04706 264.258 5.04706 264.301 5.03706 264.35C5.03706 264.442 5.03706 264.584 5.03706 264.719C5.03706 264.762 5.08703 264.804 5.17698 264.776L5.16699 264.797ZM5.92654 264.712L5.94653 264.691L5.91655 264.705C5.81661 264.74 5.72666 264.747 5.68668 264.662L5.59673 264.52C5.59673 264.52 5.64671 264.492 5.6567 264.478C5.67669 264.457 5.69668 264.421 5.63671 264.407L5.60673 264.464L5.57675 264.52C5.49679 264.52 5.34688 264.535 5.34688 264.542C5.34688 264.676 5.44682 264.79 5.62672 264.847C5.79662 264.896 5.85658 264.797 5.90655 264.719L5.92654 264.712ZM5.06704 265.265C5.24694 265.13 5.17698 265.052 5.05705 264.96C4.88715 265.067 4.99708 265.145 5.06704 265.265ZM5.11701 265.527V265.513H5.08703L5.11701 265.527ZM5.42683 265.549C5.66669 265.379 5.46681 265.258 5.3169 265.123C5.37686 265.265 5.41684 265.4 5.42683 265.549ZM5.88657 265.549C5.88657 265.549 5.91655 265.549 5.92654 265.549C5.96652 265.527 5.95653 265.513 5.91655 265.513C5.90655 265.513 5.88657 265.52 5.88657 265.527C5.88657 265.535 5.88657 265.542 5.88657 265.556V265.549ZM4.74723 265.676L4.69726 265.613L4.66728 265.598L4.68726 265.62L4.74723 265.676ZM6.44624 265.818C6.46623 265.769 6.38627 265.754 6.3463 265.726L6.24636 265.662C6.24636 265.662 6.24636 265.62 6.24636 265.605L6.27634 265.584L6.24636 265.598C6.24636 265.598 6.20638 265.641 6.24636 265.662L6.3463 265.726L6.41626 265.811H6.45623L6.44624 265.818ZM6.18639 266.059C6.23636 266.095 6.31632 266.13 6.42625 266.13C6.44624 266.13 6.48622 266.102 6.48622 266.088C6.48622 266.017 6.39627 265.974 6.28633 265.967C6.23636 265.967 6.20638 265.996 6.18639 266.052V266.059ZM5.08703 266.074C5.08703 266.074 5.12701 266.066 5.12701 266.059C5.137 266.031 5.12701 266.024 5.07704 266.031C5.06704 266.031 5.05705 266.045 5.05705 266.059C5.05705 266.059 5.07704 266.074 5.08703 266.074ZM5.87657 266.144L5.95653 266.123C5.95653 266.123 5.89656 266.052 5.85658 266.024C5.85658 266.024 5.78662 266.038 5.78662 266.045C5.76664 266.095 5.81661 266.123 5.87657 266.144ZM5.38686 266.258V266.237L5.35687 266.258H5.38686ZM6.22637 266.414C6.21637 266.449 6.25635 266.492 6.30632 266.471C6.3463 266.456 6.35629 266.414 6.37628 266.386C6.3463 266.364 6.31632 266.336 6.31632 266.343C6.27634 266.364 6.23636 266.386 6.22637 266.414ZM5.73665 266.435C5.73665 266.435 5.8366 266.449 5.81661 266.4L5.73665 266.428C5.73665 266.428 5.68668 266.428 5.6567 266.435C5.6567 266.435 5.6567 266.442 5.64671 266.449C5.69668 266.464 5.71666 266.449 5.74665 266.428L5.73665 266.435ZM6.29633 266.747C6.29633 266.747 6.30632 266.726 6.31632 266.719C6.30632 266.712 6.29633 266.691 6.28633 266.691C6.27634 266.691 6.24636 266.691 6.24636 266.705C6.23636 266.733 6.24636 266.754 6.29633 266.747ZM6.13642 267.081L6.1664 267.066L6.19638 267.052H6.1664L6.13642 267.073V267.081ZM5.93654 267.3H6.03648L6.05647 267.244C6.01649 267.244 5.96652 267.244 5.94653 267.244C5.92654 267.251 5.94653 267.279 5.94653 267.293L5.93654 267.3ZM5.35687 267.549H5.39685L5.52678 267.584V267.527L5.39685 267.542H5.35687V267.549ZM5.07704 267.641C5.07704 267.641 5.147 267.705 5.16699 267.705C5.21696 267.705 5.19697 267.662 5.19697 267.648C5.15699 267.598 5.12701 267.577 5.07704 267.584C5.07704 267.584 5.07704 267.627 5.07704 267.641Z" fill="black"/>
<path d="M4.53735 267.131C4.70725 267.109 4.77721 267.088 4.83718 266.967C4.65728 267.01 4.6273 267.024 4.53735 267.131Z" fill="black"/>
<path d="M4.04764 268.265C4.04764 268.265 4.06763 268.265 4.07762 268.265C4.07762 268.265 4.07762 268.251 4.08761 268.243H4.05763L4.04764 268.258V268.265Z" fill="black"/>
<path d="M331.107 11.7672C331.457 11.7672 331.547 11.7672 331.737 11.7672L330.347 11.7094H329.768C330.237 11.7383 330.957 11.76 331.117 11.7672H331.107Z" fill="black"/>
<path d="M4.95711 266.619C4.95711 266.619 4.93712 266.605 4.92713 266.598C4.9671 266.534 4.84717 266.456 4.9671 266.4C5.04706 266.35 4.91713 266.329 4.78721 266.315C4.66728 266.3 4.52736 266.315 4.4574 266.343C4.35746 266.364 4.47739 266.378 4.54735 266.407C4.57733 266.421 4.58733 266.428 4.60731 266.442L4.6373 266.456H4.60731C4.50737 266.485 4.53736 266.485 4.90714 266.598C4.91713 266.598 4.93712 266.612 4.94712 266.619H4.9671H4.95711Z" fill="black"/>
<path d="M379.998 269.669L381.937 269.648L383.896 269.619C384.226 269.591 384.196 269.57 383.816 269.555C381.538 269.591 380.258 269.627 379.998 269.669Z" fill="black"/>
</g>
<defs>
<clipPath id="clip0_457_111">
<rect width="446" height="286" fill="white" transform="translate(0 0.937134)"/>
</clipPath>
</defs>
</svg>
