<svg width="678" height="246" viewBox="0 0 678 246" fill="none" xmlns="http://www.w3.org/2000/svg">
<g clip-path="url(#clip0_459_14489)">
<mask id="mask0_459_14489" style="mask-type:luminance" maskUnits="userSpaceOnUse" x="4" y="2" width="674" height="244">
<path d="M611.685 230.452L635.561 230.033C635.561 230.033 625.081 236.021 627.602 193.304C630.124 150.587 637.657 5.83996 637.657 5.83996L672.847 2.28125L677.875 245.531C677.875 245.531 -4.62842 243.017 4.16543 241.511C12.9593 240.005 8.91928 228.484 8.91928 228.484L263.926 231.411L611.685 230.446V230.452Z" fill="white"/>
</mask>
<g mask="url(#mask0_459_14489)">
<path d="M19.718 235.158C227.93 237.63 436.294 237.903 644.537 235.978L648.121 236.422C641.196 219.867 642.092 202.966 642.988 186.187C646.086 128.998 649.2 71.8098 652.298 14.6274L643.702 13.0849C598.001 15.2651 551.921 17.4453 506.053 15.9453C475.115 14.9311 444.678 12.259 413.846 10.7894C384.367 9.38654 354.629 9.09504 324.936 8.80354C293.77 8.4999 262.62 8.19625 231.454 7.88654C162.485 7.21244 93.1064 6.54443 24.8971 10.6497L17.4094 10.5282C18.1688 39.9635 18.913 69.3988 19.6724 98.8341C20.1281 116.865 20.5989 134.901 21.0545 152.931C21.7532 180.017 22.4518 207.096 23.1353 234.181L19.6876 235.152L19.718 235.158Z" fill="#5938E0"/>
<path d="M18.1384 201.685C18.184 204.01 18.2447 206.725 18.3055 209.986C18.3055 208.134 18.2751 205.48 18.2447 201.776C18.2144 201.727 18.184 201.691 18.1384 201.685Z" fill="#5938E0"/>
<path d="M18.2903 233.094C18.0625 232.565 17.7587 232.037 17.5157 231.509C17.2727 231.011 18.7915 230.731 18.3055 230.251C18.0777 229.845 17.8802 229.413 17.5613 228.994C17.3942 228.77 16.8171 228.648 16.1184 228.666C15.4957 228.685 15.2375 228.849 15.1616 229.037C14.9641 229.523 14.5237 230.045 15.6931 230.44C16.4222 230.689 16.4829 230.853 15.6476 231.029C15.1008 231.144 14.873 231.32 15.1616 231.484C16.1488 232.055 16.1184 232.729 16.7411 233.33C16.9234 233.507 17.4246 233.646 17.9865 233.567C18.5941 233.482 18.3966 233.276 18.3207 233.094H18.2903Z" fill="#5938E0"/>
<path d="M19.8243 235.213C19.5509 234.964 20.0977 234.909 20.3711 234.794C20.4926 234.739 20.6141 234.697 20.7356 234.642C20.6293 234.272 21.0393 234.09 21.9202 234.09L22.1329 234.108L21.9354 234.071C21.6165 233.895 21.3279 233.689 21.7228 233.537L21.8291 233.494L21.8899 233.47V233.464C22.7252 232.808 20.7508 234.351 20.9634 234.193V234.175L20.9027 234.053L20.7963 233.81L20.5837 233.324C20.447 232.996 20.3255 232.675 20.2344 232.347C20.0673 231.691 20.0825 231.035 20.5078 230.373C20.6293 230.197 20.9482 230.154 21.4039 230.197C21.6165 230.221 21.3887 230.403 21.8291 230.336L21.4798 230.173C21.1001 229.924 20.9027 229.596 20.3255 229.444C19.1712 229.152 18.5485 228.97 20.4926 228.812L20.1584 228.411C19.5813 228.381 18.8523 228.393 19.1105 228.065C19.1864 227.962 19.5357 227.889 19.8091 227.938C20.3407 228.041 20.1584 228.241 20.1736 228.405C21.1001 227.786 20.9634 227.251 19.7787 226.905C19.3079 226.766 18.8067 226.577 18.2599 226.541C14.9338 226.316 14.4326 225.387 13.7795 224.464C13.582 224.197 14.0529 224.057 14.3111 223.875C14.6908 223.602 15.1312 223.371 13.7187 223.286C13.2479 223.255 13.4757 223.025 13.9162 222.982C14.706 222.903 15.5413 222.873 16.6804 222.8C14.5693 222.229 14.1592 221.525 14.2503 220.711C14.2807 220.419 14.1744 220.122 14.0073 219.83L13.7491 219.387L13.6884 219.278L13.658 219.223V219.193L13.6124 218.895C13.5517 218.021 13.4909 217.152 13.4302 216.278C13.2327 213.399 13.6276 212.513 14.0984 211.644C14.5389 213.399 14.9793 215.094 15.6324 214.292C15.3287 211.085 14.5844 212.78 14.144 211.389C13.7187 206.877 13.901 201.83 13.1568 197.622C12.0177 191.069 11.4102 184.838 12.9897 179.033C13.0505 178.79 12.7467 176.828 12.61 175.668C12.5189 177.102 12.61 179.203 11.9721 178.577C11.8962 178.498 11.7747 178.073 11.7443 177.733C11.5468 175.17 12.0784 175.462 12.3974 174.915C13.5972 168.672 12.929 162.958 11.6684 157.419C11.0912 154.929 10.5444 152.476 11.8962 152.142L12.5341 154.559C12.7619 154.693 12.9138 156.678 13.2023 155.269L12.61 154.249L11.9569 151.881C11.6987 145.978 10.0432 140.051 11.5165 134.093C11.562 133.923 11.3646 132.399 11.2127 131.871C9.54203 126.083 10.2862 119.415 10.3166 113.008C10.4229 112.322 10.9241 113.512 10.7571 111.496L10.2862 112.887C9.86098 112.717 9.35978 112.304 9.49647 110.051C9.69391 106.899 10.1496 103.966 9.54203 100.528C8.91932 97.0851 8.34218 94.4252 9.73948 92.0203C10.4989 90.7086 9.89136 86.7855 9.54203 84.0891C9.17752 81.2592 9.08639 79.1397 10.0736 79.328L10.7419 81.7268C10.8938 82.8928 10.9849 84.2835 11.1975 85.1519C11.395 85.9535 11.6076 85.2794 11.4709 84.3867C11.2887 83.2997 11.0153 82.4677 10.7874 81.5264L10.1344 79.0547C9.49647 76.2248 8.60038 73.8806 8.93451 69.2774C9.01045 68.166 9.05602 66.332 8.90414 65.6033C7.18789 57.6781 7.96248 50.3178 8.57 42.8907L9.10158 41.4271L8.50925 42.6174C6.51962 38.6882 5.80579 30.9574 7.33977 28.2125C9.55722 24.2469 8.76744 19.8623 7.79541 13.9291C7.70428 13.3157 7.67391 12.5019 7.6891 11.6335C7.6891 11.4149 7.6891 11.1963 7.6891 10.9716V10.6375V10.5525V10.5404C5.48684 11.3845 26.8412 3.09502 17.8043 6.60515H17.8499H17.9562L18.3663 6.61729C19.475 6.64158 20.5685 6.6598 21.6013 6.68409L23.3327 6.7509L22.2088 6.66588C21.9203 6.56871 22.0873 6.49584 22.6037 6.43511C22.8619 6.40474 23.2112 6.38045 23.6365 6.35616C23.8339 6.34401 24.0618 6.33794 24.3048 6.32579L24.3655 6.28936C24.5174 6.25899 24.0162 6.25899 25.0338 6.18612C25.7324 6.13146 26.4918 6.06466 27.2968 6.00393C28.9067 5.88855 30.7141 5.75494 32.6278 5.61527C44.9453 4.80757 49.9269 4.8015 47.1627 5.46344C46.4337 5.63956 41.0419 6.01 46.9045 5.9432C55.5313 5.34199 64.5378 4.79543 73.4683 4.29745C78.2373 4.03024 84.0847 3.76911 87.8058 3.88449C94.9897 4.14563 104.102 3.7934 108.477 3.53227C121.174 2.72457 132.276 2.93712 144.138 3.22862L142.543 3.29542L144.503 3.24077C153.448 2.99178 162.591 2.76708 163.882 3.47761C163.26 3.5019 162.09 3.52619 162.151 3.55048C162.348 3.61121 163.062 3.67194 163.564 3.73267L165.751 3.78733L164.095 3.72052C164.019 3.64158 163.989 3.56263 164.004 3.47761C176.61 3.78125 189.52 3.89664 202.642 3.76303C206.363 3.72052 209.477 3.62943 213.289 3.61121C236.815 3.48975 238.881 3.57478 239.64 4.57073C239.671 4.61931 242.754 4.69219 244.531 4.75292C253.644 4.78328 247.69 4.46142 248.662 4.30959C253.173 3.59907 257.38 3.49583 273.98 4.01202C285.842 4.3764 295.198 4.46749 306.817 4.39462C312.254 4.35818 313.499 4.58287 313.256 4.76506L311.889 4.82579L313.697 4.78935C320.85 4.79543 328.52 4.66182 335.264 4.89259C356.527 5.62741 376.545 5.57276 397.231 6.01608C399.19 6.05859 402.455 6.30758 405.098 6.47154C404.202 6.50798 399.099 6.35616 403.185 6.63551L405.265 6.48369C425.131 7.46142 445.134 8.87641 465.531 10.1639C475.738 10.8015 486.065 11.4027 496.545 11.8703C507.025 12.338 517.687 12.6355 528.683 12.7934C516.943 13.3218 505.825 13.3643 504.762 13.9169C517.019 14.2691 524.415 14.2752 529.108 14.172C533.801 14.0748 535.791 13.8015 537.31 13.3825C538.586 13.0181 538.388 12.7995 549.202 12.6052C561.003 12.3501 567.443 12.3197 571.999 12.6052C574.308 12.757 578.332 12.8784 583.466 12.6052C584.985 12.5201 586.549 12.4351 588.144 12.3622C591.288 12.2286 594.553 12.0829 597.864 11.9371C610.318 11.4331 623.608 10.9412 634.027 10.0485C634.953 9.9756 635.91 9.89665 636.913 9.81771C637.414 9.78127 637.93 9.74483 638.462 9.70839C639.039 9.67196 639.327 9.64767 640.482 9.58086C641.454 9.52621 642.441 9.47155 643.443 9.41082C643.945 9.38046 644.446 9.35617 644.962 9.3258C645.22 9.28329 645.448 9.37439 645.691 9.39868L646.405 9.52013C648.364 9.86022 650.369 10.2064 652.389 10.5586C654.546 10.9412 656.733 11.3299 658.935 11.7246L660.575 12.0222L661.396 12.1679C661.502 12.1983 661.745 12.1983 661.73 12.259V12.423L661.623 13.7408C661.548 14.6153 661.487 15.4898 661.411 16.3582C661.365 16.7894 661.335 17.2145 661.289 17.6457C661.259 17.8946 661.229 18.1436 661.183 18.3866C660.667 21.9453 660.257 24.3441 660.5 28.7651C660.818 34.3157 659.634 37.2247 657.751 36.5809L657.599 36.0587L657.72 36.7145C657.72 37.4736 657.705 38.2388 657.69 39.004C657.751 39.3016 657.811 39.5809 657.842 39.9149C657.842 39.9575 657.735 40.3036 657.675 40.5101L657.508 39.6234C656.657 44.4818 657.173 46.4919 658.252 44.9919C659.877 42.7206 659.573 45.168 659.042 49.4615C658.48 53.919 658.297 58.5284 658.312 63.4535V65.828C656.703 66.8543 656.93 71.5243 656.976 75.0648C657.037 81.7693 654.485 78.5446 654.728 84.7025C654.865 88.3037 656.065 89.409 655.685 94.905C655.047 104.142 653.802 114.035 654.394 122.531C654.789 128.184 650.491 128.099 653.24 134.051C653.027 139.935 652.83 145.832 652.617 151.711C652.389 158.95 651.994 165.733 651.113 173.148C650.369 179.585 649.473 187.207 649.944 194.871C650.475 202.699 650.354 203.148 647.954 204.587C647.726 204.727 647.483 204.794 647.529 205.741C647.59 206.95 647.711 208.322 647.954 209.233C648.288 210.672 648.866 213.217 649.443 215.689C649.731 216.921 650.02 218.136 650.263 219.187C650.491 220.237 650.673 221.118 650.749 221.689C651.113 225.229 652.116 228.63 653.452 231.988C653.756 232.832 654.136 233.664 654.5 234.502L655.047 235.76L655.108 235.917V235.93C651.083 237.339 664.099 232.784 646.101 239.088H646.056L645.965 239.069L645.767 239.045L644.977 238.954L643.945 238.832C643.747 238.808 643.55 238.784 643.322 238.796L642.411 238.808C641.317 238.82 640.224 238.826 639.115 238.839C636.913 238.851 634.71 238.863 632.478 238.869C625.628 238.881 616.424 239.166 616.5 238.668C616.53 238.48 613.872 238.462 610.804 238.596C591.743 239.385 566.85 239.136 545.542 239.598C525.828 240.035 530.187 239.106 520.436 238.808C512.872 239.683 496.743 240.059 474.507 239.847C464.954 239.756 455.887 239.768 445.984 239.913C419.238 240.302 392.173 240.563 364.789 240.083C352.821 240.551 343.602 239.391 327.958 240.017C318.42 240.387 299.147 239.932 283.974 239.962C265.855 240.011 247.006 240.011 229.343 239.664C214.489 239.391 202.642 239.768 188.639 239.622C152.552 239.245 115.904 239.057 80.1358 238.565C72.4507 238.462 64.7504 238.359 57.0501 238.256L52.0077 238.183L51.5217 238.158L50.5496 238.11L46.6615 237.922C44.0643 237.788 41.4672 237.63 38.9004 237.393C35.0882 237.041 31.3064 236.61 27.4487 236.349C26.6133 236.294 25.3983 236.203 25.4439 235.857C25.535 234.903 24.2136 235.353 23.3783 235.334C22.467 235.316 21.5557 235.334 20.6445 235.334C20.2799 235.334 19.9002 235.328 19.8091 235.11C19.7484 234.934 19.8395 234.685 20.1281 234.666C21.4798 234.6 21.3127 233.98 21.9658 233.664C23.8339 232.76 26.3703 232.638 28.7548 232.511C33.2657 232.274 37.8069 232.413 42.3329 232.328C45.5224 232.268 48.7119 232.31 51.9014 232.347C68.6081 232.511 85.2998 232.675 101.976 232.839C120.824 232.99 139.658 233.13 158.46 233.209C212.287 233.452 266.325 233.786 319.696 233.677C370.135 233.573 420.863 233.61 471.151 233.136C507.253 232.808 544.19 232.753 580.884 232.371C598.76 232.195 616.682 232.013 634.619 231.836L641.348 231.77L643.519 231.751L645.145 231.739H645.949C646.223 231.727 646.466 231.788 646.724 231.806L651.265 232.359C663.309 228.15 634.923 238.104 637.839 237.071V237.047L637.809 237.005L637.778 236.919L637.718 236.749L637.581 236.409L637.307 235.723L636.776 234.351C636.411 233.434 636.138 232.517 635.819 231.606C634.634 227.944 633.769 224.27 633.161 220.608C631.946 213.278 631.749 205.978 631.84 198.733C632.052 191.531 632.265 184.334 632.478 177.156C632.326 176.063 632.387 174.964 632.645 173.865C633.936 149.725 635.774 125.306 636.32 101.537C636.746 83.0628 638.963 65.5061 639.479 47.4818C639.753 38.3421 640.148 29.172 640.634 20.0019L640.725 18.2833L640.77 17.5303V17.5181C640.77 17.5181 640.74 17.5121 640.816 17.5181L641.029 17.5546L641.454 17.6274C642.289 17.7732 641.94 17.7064 641.985 17.7185L634.042 18.0829C622.651 18.6052 611.214 19.1032 599.748 19.5161C596.421 19.6315 593.11 19.7408 589.799 19.8562C580.747 20.1538 571.665 20.3785 562.583 20.5181C544.038 20.8279 525.311 20.7914 506.569 20.2084C487.812 19.6193 469.495 18.4412 451.513 17.2874C442.521 16.7104 433.606 16.1335 424.751 15.6295C415.882 15.1193 407.118 14.7064 398.248 14.3724C380.524 13.7044 362.663 13.3582 344.756 13.0546C316.734 12.6112 288.47 12.3076 260.341 11.9857C232.244 11.676 204.191 11.3663 176.306 11.0566C133.962 10.6618 91.5724 11.0141 49.7143 12.6963C46.2514 12.8481 42.7734 12.9999 39.2801 13.1517C35.8021 13.3339 32.2937 13.5222 28.7852 13.7104L27.4639 13.7833L26.4311 13.838C26.0362 13.8562 25.6717 13.8865 25.2768 13.8926L21.8899 13.838L19.1864 13.7894L17.8347 13.7651H17.5005L17.3335 13.759H17.2423H17.1968H17.1816C20.9634 12.2894 8.67632 17.0566 25.6717 10.4554V10.7286C25.7021 12.174 25.7324 13.6254 25.7628 15.0708C25.8995 20.8764 26.0362 26.7186 26.1577 32.4999C26.4007 52.3704 26.6437 72.1013 26.8867 91.9718C27.5398 126.508 28.1777 161.027 28.8308 195.575L29.2561 218.403V219.089V219.15V219.272L29.2257 219.515L29.1801 219.994L29.1042 220.96C29.013 222.247 28.9523 223.529 29.0738 224.816C29.1194 225.345 28.1473 225.873 28.4207 226.274C28.7852 226.802 28.4511 227.276 28.4967 227.774C28.6182 229.079 28.2385 230.355 27.3272 231.648C26.8412 232.328 26.7197 233.136 26.6741 233.895C26.6741 233.968 26.6741 234.035 26.6437 234.096V234.12L25.2009 235.249H25.1705L25.0642 235.262C25.0034 235.262 24.9275 235.268 24.8667 235.262C24.5933 235.243 24.3503 235.134 24.0769 234.855C23.5606 234.296 22.1936 234.502 21.1608 234.624C21.2216 234.739 21.3279 234.861 21.3127 234.964C21.2672 235.189 20.8571 235.262 20.3711 235.249C20.2192 235.249 19.9458 235.201 19.8851 235.152L19.8243 235.213ZM30.1521 233.239C29.9395 233.221 29.7724 233.197 29.6054 233.197C29.4991 233.197 29.4079 233.251 29.3016 233.282C29.4687 233.294 29.6358 233.324 29.8028 233.324C29.9091 233.324 30.0155 233.276 30.1521 233.239ZM39.5687 235.134C39.7358 235.158 39.8876 235.195 40.0547 235.195C40.1914 235.195 40.3281 235.146 40.48 235.116C40.2977 235.092 40.1307 235.049 39.9788 235.055C39.8421 235.055 39.7054 235.11 39.5687 235.134ZM41.8469 235.875C40.7078 235.814 39.9788 235.778 39.0523 235.729C39.8117 236.173 40.5711 236.069 41.8469 235.875ZM206.986 236.531C208.52 236.549 210.267 236.494 211.922 236.47C214.033 236.409 213.927 236.336 211.375 236.306C209.841 236.288 207.897 236.33 206.47 236.367C204.283 236.422 204.526 236.5 207.001 236.531H206.986ZM115.6 235.656C122.601 235.76 128.54 235.845 134.463 235.936L136.362 236.002L134.965 235.924C129.284 235.723 123.498 235.553 115.6 235.662V235.656ZM73.3012 233.932C73.5594 233.962 74.82 233.992 75.6554 234.005C76.2022 234.011 76.7945 233.98 77.3412 233.968C76.7337 233.926 76.3844 233.877 75.6554 233.859C73.2861 233.798 72.2836 233.828 73.3012 233.938V233.932ZM49.8965 234.982C49.8965 234.982 49.9877 235.037 50.0484 235.049C50.1244 235.061 50.2459 235.073 50.3066 235.055C50.4737 235 50.3977 234.952 50.1395 234.946C50.0636 234.946 49.9725 234.97 49.8965 234.982ZM214.155 237.345L213.471 237.09C205.072 237.041 196.537 236.95 188.29 236.944C151.368 236.907 114.37 236.446 77.4931 236.051C72.9215 236.009 68.6233 235.972 64.3251 235.93C60.3155 235.899 56.3211 235.875 52.114 235.845C50.0484 235.936 47.7247 236.258 46.4033 235.164C45.5983 235.213 45.6439 235.559 45.2186 235.699C44.8845 235.802 44.4592 235.857 43.7606 235.996C45.6743 236.021 47.5576 236.051 49.4105 236.075C50.3674 236.088 51.3242 236.106 52.2659 236.118C63.2164 236.233 74.1062 236.343 84.9808 236.458C128.434 236.883 171.309 237.193 214.17 237.345H214.155ZM347.672 236.646L349.495 236.598L350.634 236.531L348.872 236.573L347.672 236.646ZM328.171 236.859C328.915 236.859 329.978 236.822 330.343 236.792C330.631 236.768 330.085 236.725 329.902 236.695C328.976 236.695 327.715 236.695 327.169 236.713C325.088 236.792 325.513 236.853 328.171 236.859ZM280.192 236.634C287.528 236.689 294.666 236.78 301.85 236.646C294.347 236.561 287.194 236.458 280.192 236.634ZM237.711 236.379C244.09 236.598 249.163 236.579 254.008 236.579C257.137 236.579 257.152 236.488 253.962 236.464C249.285 236.415 244.455 236.415 237.726 236.385L237.711 236.379ZM359.398 237.193C340.519 237.515 324.237 237.193 310.28 237.551C283.503 237.229 256.711 237.484 229.92 237.272C256.833 237.63 283.761 237.843 310.811 237.588C325.695 237.551 343.101 238.14 359.398 237.199V237.193ZM438.512 234.387L440.35 234.417L440.517 234.363L438.512 234.387ZM403.124 236.47C408.713 236.531 414.196 236.786 420.438 236.513C415.502 236.276 409.169 236.403 403.124 236.47ZM370.151 234.715C371.578 234.739 373.006 234.782 374.449 234.782C376.332 234.782 378.231 234.751 380.114 234.733L375.755 234.66L370.151 234.715ZM394.163 237.005C387.495 237.168 377.805 237.029 370.029 237.484C380.843 237.339 389.667 237.393 394.163 237.005ZM448.247 237.077L446.956 237.005C444.42 236.926 441.868 236.938 439.302 237.017L433.409 237.266C422.276 237.417 410.019 237.314 399.251 237.539C393.677 237.66 391.672 237.812 395.317 238.031C398.081 238.195 401.969 238.243 405.63 238.085C413.588 237.739 427.592 237.721 434.107 237.296L439.985 237.041L446.455 237.023L448.262 237.071L448.247 237.077ZM488.45 237.387C487.053 236.871 485.898 236.361 475.373 235.948C475.115 236.063 474.462 236.185 474.69 236.294C475.039 236.464 473.064 236.604 471.546 236.762C464.362 237.502 464.681 237.502 488.45 237.393V237.387ZM644.172 135.326C644.127 135.059 644.081 134.616 644.036 134.652C643.884 134.773 643.747 135.077 643.595 135.32H644.172V135.326ZM643.261 137.786L643.55 135.454C643.398 136.158 642.942 136.45 643.261 137.786ZM642.122 146.105V145.274L641.985 145.966L642.122 146.105ZM642.046 153.982C642.061 153.684 641.985 153.223 641.925 153.089C641.864 152.974 641.742 153.229 641.651 153.32C641.651 153.703 641.59 154.225 641.651 154.444C641.818 155.306 641.985 155.112 642.061 153.982H642.046ZM637.414 163.413L637.672 161.075L637.93 158.731L638.082 158.008L637.885 158.531C637.733 159.187 637.551 159.788 637.459 160.51C637.323 161.476 637.08 162.66 637.414 163.413ZM632.675 176.112L632.857 175.595L632.751 175.049L632.69 176.112H632.675ZM636.882 209.932C636.73 208.911 636.427 208.146 636.229 207.272C636.062 207.958 635.941 208.456 635.819 208.948C636.077 209.646 636.32 210.484 636.594 210.994C636.837 211.456 637.019 210.782 636.882 209.926V209.932ZM638.158 229.82L638.021 228.988H637.839L638.158 229.82ZM648.41 233.306L649.397 233.446L649.868 233.513L650.111 233.549L650.232 233.567H650.293V233.579L640.755 236.919V236.901H640.588V236.926L650.324 233.519H650.293L650.172 233.507L649.929 233.482L649.443 233.428L648.41 233.318V233.306ZM617.381 235.213C625.567 235.116 633.708 235.128 642.183 235.104H644.005C644.324 235.104 644.643 235.079 644.947 235.104L645.858 235.219L647.575 235.438L648.349 235.535L648.729 235.583H648.759C647.529 236.021 651.539 234.618 645.995 236.561V236.537V236.494L645.949 236.415C645.615 235.553 645.281 234.685 644.947 233.798C644.294 232.031 643.611 230.209 642.912 228.32C643.17 230.203 643.671 232.025 644.248 233.798C644.583 234.685 644.917 235.553 645.251 236.422L645.312 236.585V236.604C642.031 237.758 649.792 235.043 648.987 235.322H648.957L648.866 235.31L648.668 235.286L647.894 235.195L646.147 234.982C645.509 234.903 644.871 234.806 644.203 234.849L642.289 234.873C633.784 234.988 625.582 235.152 617.411 235.213H617.381ZM603.317 233.288C602.618 233.361 603.97 233.379 606.673 233.33C607.387 233.318 607.964 233.282 608.602 233.258L605.959 233.239C605.033 233.258 603.514 233.264 603.317 233.288ZM582.919 235.535C582.859 235.577 585.456 235.608 587.172 235.656C589.632 235.596 593.855 235.541 594.553 235.462C596.254 235.268 591.561 235.353 589.374 235.365C586.823 235.377 583.162 235.383 582.919 235.541V235.535ZM561.398 233.798L563.555 233.743C564.481 233.658 569.372 233.719 568.141 233.555L563.084 233.725L561.398 233.798ZM512.158 236.986C512.553 236.901 511.445 236.847 508.908 236.865C507.192 236.877 505.582 236.932 503.926 236.968C505.081 237.017 506.098 237.102 507.45 237.108C508.832 237.108 510.579 237.029 512.143 236.986H512.158ZM541.547 235.699C537.219 235.699 533.741 235.784 530.931 235.924C524.324 235.905 518.218 235.687 510.321 235.948C516.624 236.276 523.747 236.173 531.219 235.936C534.211 235.82 540.484 235.966 541.547 235.699ZM616.88 237.223L615.057 237.205L614.89 237.26L616.88 237.223ZM649.352 230.622L649.67 231.29C649.989 231.654 650.4 233.555 650.673 233.094L649.64 231.041L649.336 230.622H649.352ZM643.033 218.598C643.322 223.851 645.813 229.741 646.83 234.108C646.937 234.515 647.028 234.922 647.134 235.322L647.301 235.924L647.377 236.221L647.423 236.367V236.44L647.453 236.452C647.271 236.525 649.124 235.875 648.334 236.148H648.288L648.197 236.13C647.24 235.996 646.284 235.869 645.327 235.735C645.084 235.705 644.841 235.656 644.583 235.644H643.808H642.289C638.447 235.644 634.71 235.687 631.004 235.735C623.623 235.839 616.409 236.009 608.936 236.136C587.05 235.917 566.425 236.494 545.162 236.737C564.101 236.841 583.101 236.786 602.481 236.458C604.714 236.519 606.886 236.513 608.967 236.397C616.242 236.458 623.395 236.464 630.488 236.434C634.027 236.409 637.566 236.379 641.074 236.355C642.881 236.355 644.446 236.233 645.995 236.507L647.24 236.652L647.863 236.725C646.906 237.065 649.185 236.27 648.942 236.349V236.324V236.294L648.896 236.227L648.835 236.1L648.395 235.067C646.01 229.583 644.233 224.112 643.018 218.585L643.033 218.598ZM639.57 202.863V201.6L639.586 200.336L639.753 199.602L639.57 200.282C639.312 201.162 639.282 202.049 639.54 202.942C638.887 209.506 639.631 215.561 641.515 221.197L641.484 221.859L641.606 221.391C641.621 219.162 642.061 216.758 641.15 214.031C640.026 210.794 640.269 205.923 639.57 202.869V202.863ZM645.175 203.956V204.569L645.357 204.266L645.175 203.95V203.956ZM646.648 187.14V187.936L646.785 187.207L646.648 187.14ZM644.658 181.462L644.719 182.221C644.902 182.604 644.567 184.547 645.023 184.061L644.795 182.002L644.658 181.462ZM642.866 174.472C641.56 175.31 642.107 180.721 642.061 184.298C642.001 188.172 642.046 192.545 640.497 192.284L640.345 191.84L640.436 192.508C641.94 195.739 641.211 204.648 642.806 209.106C641.94 200.397 643.398 191.84 643.367 183.326C643.367 179.962 644.248 173.597 642.881 174.472H642.866ZM641.575 170.361C639.753 174.162 640.163 179.531 640.087 184.632C641.074 180.363 640.679 174.77 641.575 170.361ZM643.899 166.091C643.899 166.091 643.686 166.51 643.641 166.838C643.595 167.124 643.641 167.555 643.641 167.925C643.732 167.865 643.869 167.944 643.929 167.719C644.188 166.832 644.172 166.17 643.899 166.091ZM640.831 162.782C640.846 163.006 640.846 163.359 640.892 163.431C641.044 163.693 641.211 163.863 641.363 164.063L641.499 164.585L641.408 163.887L640.831 162.782ZM646.527 130.298L646.208 132.727C645.555 134.112 644.886 135.314 644.203 135.369C644.279 143.154 644.355 150.94 644.461 161.282C645.585 150.114 646.268 141.527 646.238 132.788C646.36 131.98 646.861 131.64 646.542 130.298H646.527ZM642.547 91.3827V90.5871L642.411 91.3159L642.547 91.3827ZM644.674 100.091C644.643 99.3989 644.658 98.4333 644.552 98.075C644.385 97.5345 644.203 98.0993 644.218 99.0892C644.218 99.8361 644.248 100.668 644.355 101.178C644.461 101.725 644.613 101.196 644.674 100.091ZM643.641 122.33C644.643 117.114 644.142 112.856 643.793 108.356C643.747 111.854 643.413 114.988 642.988 118.219C642.654 120.812 643.14 121.808 643.641 122.33ZM646.724 85.3098L646.83 86.0325C646.071 98.4637 646.268 110.306 645.949 123.879C648.197 115.747 647.544 107.081 648.44 99.5689C649.352 92.0446 648.729 87.1499 646.891 85.8321L646.724 85.3037V85.3098ZM22.9986 55.1458L22.9227 55.9109L23.0745 55.9838L22.9986 55.1518V55.1458ZM18.4422 51.6417C18.4726 53.7672 18.2296 55.8381 18.6852 57.7267C18.8827 55.583 18.8067 53.5182 18.4422 51.6417ZM22.0873 30.8724L21.8899 31.1518L22.0873 31.5769V30.8724ZM18.2599 17.3117C18.2144 17.9007 18.1081 18.4898 18.1232 19.0849C18.1232 19.8258 18.2448 20.5849 18.3207 21.4777C18.3663 20.7732 18.4574 20.1902 18.4422 19.5951C18.427 18.8359 18.3207 18.0708 18.2599 17.3056V17.3117ZM22.1481 12.5627V13.2064L22.3303 12.9999L22.1481 12.5687V12.5627ZM52.5696 9.05252C52.7215 8.93714 51.3698 8.93714 48.9853 9.11325C48.1955 9.28936 46.7374 9.50799 46.6919 9.66588C46.6615 9.7509 49.851 9.60515 50.8989 9.46548C52.0684 9.31366 52.4177 9.18005 52.5848 9.05859L52.5696 9.05252ZM88.5804 10.0849C76.3844 10.2975 69.3676 10.4857 62.3811 10.8926C69.9447 10.7711 76.673 10.4554 88.5804 10.0849ZM119.67 8.57276L117.984 8.54847L117.665 8.6092L119.67 8.57276ZM133.051 7.25495L131.335 7.3096C120.506 7.54037 109.676 7.76507 92.3166 8.37843C112.501 7.97762 124.06 7.83187 131.927 7.32782L133.051 7.25495ZM162.637 10.1517L156.987 10.0788L152.416 10.1517C154.299 10.1639 156.197 10.2124 158.065 10.2124C159.599 10.2124 161.118 10.1699 162.637 10.1456V10.1517ZM191.008 9.79949L189.307 9.7509L188.988 9.80556H191.008V9.79949ZM263.455 10.2792C261.83 10.1942 259.992 10.1821 258.397 10.2428C258.534 10.2792 258.321 10.3278 258.868 10.3582C260.493 10.4432 262.468 10.4614 263.88 10.3946C264.29 10.3764 264.017 10.3096 263.455 10.2792ZM271.778 9.6841L271.034 9.59908L270.259 9.66588L271.778 9.6841ZM296.823 9.09503C296.656 8.95536 294.195 8.85212 291.325 8.79139C287.163 8.77317 284.824 8.84604 284.384 8.9675C283.852 9.11932 286.905 9.21042 290.49 9.24685C294.028 9.28329 297.005 9.24685 296.808 9.08896L296.823 9.09503ZM323.63 10.9594L323.235 10.8805L322.217 10.9351L323.63 10.9594ZM333.305 10.3703H331.33L333.138 10.425L333.305 10.3703ZM366.475 11.84L364.592 11.7792L364.561 11.8339H366.475V11.84ZM384.913 12.4716L382.893 12.4412L384.746 12.5262L384.929 12.4776L384.913 12.4716ZM388.498 10.6072C386.918 10.5768 385.809 10.6315 384.488 10.6558C385.536 10.7165 386.812 10.8258 388.103 10.8622C389.895 10.9108 392.842 10.9655 393.282 10.929C394.679 10.8197 391.9 10.6618 388.498 10.6072ZM410.961 11.3906L408.941 11.3177L410.794 11.4392L410.976 11.3906H410.961ZM454.49 16.006C453.912 15.9453 453.411 15.8845 452.713 15.8299C451.816 15.7631 450.48 15.6659 449.827 15.6416C447.989 15.5748 448.748 15.6659 451.741 15.8602C452.637 15.921 453.563 15.9574 454.474 15.9999L454.49 16.006ZM463.147 14.0748L461.446 14.0141H460.276L462.038 14.0748H463.147ZM474.386 17.1963L472.427 17.1052L474.34 17.2448L474.386 17.1902V17.1963ZM490.531 16.261C489.619 16.2185 488.693 16.2003 487.782 16.1639C488.359 16.2185 488.845 16.2732 489.543 16.3096C490.455 16.3643 491.806 16.4372 492.444 16.4493C494.312 16.4857 493.553 16.4068 490.531 16.261ZM527.255 19.3643H525.174L526.921 19.4129L527.255 19.3643ZM625.446 15.2165L623.745 15.2529L623.441 15.3258L625.461 15.2165H625.446ZM646.754 17.4756L646.952 17.3177L646.785 17.1538V17.4756H646.754ZM648.911 36.5566C648.866 35.4149 648.896 34.0728 648.759 33.2226C648.638 32.4149 648.349 33.0829 648.425 33.9392C648.516 34.9595 648.729 35.7004 648.896 36.5566H648.911ZM646.648 62.1842L646.952 58.4555C647.013 57.2895 646.861 56.9494 646.739 57.1377C646.177 58.4433 646.223 59.6701 646.329 60.7753C646.39 61.3522 646.542 61.7166 646.648 62.1782V62.1842ZM646.208 71.6458C646.466 71.9373 646.603 71.4332 646.527 70.4373C646.511 70.1276 646.39 70 646.314 69.7936C646.253 70.0729 646.132 70.3644 646.132 70.6377C646.117 70.996 646.147 71.579 646.208 71.6458ZM653.103 61.8199C652.374 63.3563 652.617 66.0102 652.845 68.0628L652.997 68.5061L652.906 67.832C653.27 65.4332 653.756 64.9292 654.288 65.2814C654.333 65.494 654.379 65.9069 654.424 65.8765C654.561 65.7915 654.698 65.5122 654.85 65.3057L655.518 64.079L654.789 64.8806C654.622 65.3239 654.485 65.3178 654.364 64.8563C653.938 63.7025 653.726 60.417 653.073 61.8138L653.103 61.8199ZM653.665 47.1174C653.619 47.4635 653.559 47.8158 653.513 48.1619C653.513 48.5263 653.483 49.1275 653.513 49.2125C653.665 49.4919 653.771 48.9575 653.756 47.8826C653.756 47.5972 653.695 47.3725 653.665 47.1174ZM656.399 29.7125C656.11 30.1133 656.11 30.5141 656.414 30.6963C656.49 30.7449 656.596 30.5445 656.687 30.4595C656.687 30.2105 656.687 29.7914 656.672 29.7489C656.596 29.6396 656.49 29.591 656.399 29.7125ZM589.42 13.6133L591.227 13.4918C593.748 13.3461 596.968 13.1821 598.578 13.0424C599.763 12.9331 596.907 12.9331 595.358 13.0424C593.262 13.1821 592.412 13.3461 591.014 13.4918L589.42 13.6193V13.6133ZM472.442 12.672C472.639 12.7023 473.93 12.7813 474.735 12.842C475.373 12.8541 476.527 12.8906 476.543 12.8663C476.634 12.7631 475.191 12.6537 473.004 12.6052C472.442 12.593 472.184 12.6295 472.442 12.672ZM394.421 7.28531C398.097 7.34604 401.772 7.42499 405.463 7.51608L406.617 7.49179L404.794 7.46143C403.822 7.43106 402.638 7.39462 401.954 7.39462C399.767 7.38855 394.451 7.05454 394.421 7.28531ZM317.008 5.48166C317.479 5.75494 322.035 5.81567 326.348 5.85818C328.87 5.88247 334.398 5.95535 331.193 5.74887C328.763 5.59097 331.679 5.25089 322.567 5.28126C320.076 5.28733 318.542 5.42093 317.008 5.47559V5.48166ZM315.064 6.95737L320.243 6.87235L321.671 6.8177L319.802 6.85414C318.663 6.91487 313.849 6.76912 315.064 6.96345V6.95737ZM201.625 4.58895L203.447 4.63753L203.614 4.58288H201.625V4.58895ZM146.112 4.18206L147.905 4.23065C148.254 4.19421 148.953 4.15777 148.892 4.12134C148.679 3.99988 147.525 3.98166 146.188 4.06668C145.748 4.09704 146.112 4.13955 146.097 4.18206H146.112ZM10.7571 17.1477L10.6963 16.34L10.6204 17.0202L10.7571 17.1477ZM14.387 30.6781C15.2831 28.1153 14.6756 23.2509 15.5565 21.9331C15.7387 22.3947 15.8451 24.1983 16.164 22.8076L15.6172 21.6538C15.7691 18.1922 15.602 14.8461 15.3438 11.5242L15.2983 10.9048L15.2679 10.595V10.5586V10.5465C13.2479 11.3238 18.0169 9.47155 17.5309 9.65981H17.5765H17.7739H18.1688L21.2824 9.6841L24.32 9.70232C24.73 9.71447 25.1553 9.6841 25.535 9.65981L27.0386 9.56264C31.1546 9.30151 35.2553 9.01608 39.432 8.80353C43.2138 8.6092 46.6007 8.43309 49.5776 8.28126C52.5696 8.14159 55.1516 8.0505 57.3387 7.98369C61.6976 7.86224 64.4011 7.91689 65.3883 8.27519C66.0869 8.53025 74.0455 8.36021 76.3996 7.86224C77.0527 7.72863 77.1742 7.50394 80.0903 7.48572C99.4246 7.32175 117.924 6.39867 136.924 6.58693C147.206 6.78126 158.719 6.74482 167.983 6.58086C178.022 6.41689 181.015 7.49179 192.861 6.84806C195.686 6.69624 201.23 7.03632 201.503 7.25495C201.944 7.61325 186.968 7.69827 194.501 8.21446C207.426 8.17803 226.472 8.68815 227.733 7.77722C224.726 7.71041 221.263 7.6679 218.833 7.57681C216.539 7.49179 213.35 7.30353 214.003 7.26102C216.767 7.06669 220.807 7.21851 223.936 7.35819C226.214 7.46143 227.9 7.58288 229.844 7.69827C231.393 7.71649 232.942 7.72863 234.491 7.74685C235.296 7.72863 236.041 7.70434 236.967 7.69827C237.195 7.69827 238.562 7.759 238.456 7.77114C238.015 7.80151 237.195 7.8258 236.527 7.85009C250.5 8.25697 250.059 7.34604 264.336 7.64361C291.887 8.22054 323.311 8.00191 348.963 9.09503C352.624 9.25293 359.246 9.27115 363.908 9.22256L357.028 8.94321C360.962 8.82782 363.392 9.0343 366.278 9.15576C382.377 9.35009 398.552 9.7752 414.636 10.5586C430.72 11.342 446.683 12.4533 462.646 13.425C464.666 13.5465 466.64 13.6193 468.63 13.7104C472.609 14.1963 476.33 14.7064 485.048 15.1618C497.077 15.7813 503.122 15.9513 506.463 16.1699C509.819 16.3582 510.473 16.5768 511.809 17.0202C515.545 17.0991 518.021 17.0202 520.557 16.9716C523.094 16.9291 525.691 16.838 529.701 16.8319C549.369 16.7287 569.068 16.2185 588.858 15.5019C592.123 15.3805 595.404 15.259 598.684 15.1376C611.944 14.6335 625.248 14.0627 638.614 13.5039C639.783 13.4554 640.937 13.4129 642.061 13.3703C642.608 13.3521 643.14 13.3339 643.671 13.3157C644.157 13.3886 644.628 13.4979 645.099 13.589C646.967 13.9594 648.577 14.2995 649.898 14.5971C650.217 14.6699 650.521 14.7428 650.825 14.8157C650.961 14.8521 651.098 14.8825 651.235 14.9189C651.235 14.9857 651.189 15.0647 651.174 15.1315C651.068 15.4108 650.962 15.6598 650.84 15.8724C650.597 16.2975 650.339 16.5647 650.035 16.674C649.762 16.7772 649.488 17.0262 649.291 17.4999C649.245 17.6031 649.2 17.7793 649.169 17.9918C649.139 18.1983 649.109 18.423 649.078 18.6781C649.033 19.1821 649.017 19.7955 649.048 20.5303C649.124 22.4858 649.169 23.676 650.02 22.5951C651.554 20.6335 651.235 26.4088 651.022 29.7003C650.794 33.3198 649.792 35.002 648.972 36.6477C648.805 38.8583 647.848 42.0951 648.744 43.0243C650.445 44.7976 649.974 49.6862 649.397 54.7814C648.395 63.5992 648.364 72.1438 648.076 80.9616C649.595 79.6559 650.035 77.1114 650.157 71.5608C650.4 59.8522 650.491 48.1012 652.07 36.1133C652.784 30.6599 653.225 24.502 653.164 18.4291C653.164 17.4149 653.164 16.5282 653.164 15.7327C653.164 15.3319 653.164 14.9493 653.164 14.5849V14.4513C653.164 14.4513 652.966 14.4149 652.86 14.3906L652.237 14.2813C651.827 14.2084 651.432 14.1416 651.037 14.0748C649.488 13.8015 648.045 13.5465 646.618 13.2914C645.205 13.0667 643.899 12.6537 642.274 12.8541C640.755 12.9088 639.176 12.9635 637.429 13.0303C635.713 13.0849 633.845 13.1396 631.718 13.2064C627.466 13.3218 622.211 13.4614 615.194 13.6497C610.44 13.7712 604.304 14.0748 600.431 14.4088C597.454 14.6517 592.776 14.9675 588.736 15.1497C585.41 15.3076 582.524 15.3987 581.309 15.3501C570.404 14.9372 557.176 15.8116 545.177 15.8542C532.267 15.9027 519.631 15.8967 506.964 15.587C494.297 15.2712 481.63 14.6578 468.736 13.7347C459.775 12.8967 448.916 12.2772 438.724 11.6335C423.096 10.6254 407.452 9.81163 392.401 9.14969C391.657 9.14969 390.958 9.14969 390.123 9.13754C389.819 9.13754 388.741 9.05859 388.832 9.05252C389.09 9.02823 389.774 9.02216 390.29 9.00394C373.841 8.49382 357.894 8.45131 341.035 8.19017C296.747 7.59503 252.277 6.99381 207.852 6.39867C195.033 6.24077 180.772 6.2347 169.806 6.01C162.819 5.85818 160.951 5.68207 154.663 5.98571C150.213 6.21648 143.439 6.3683 137.714 6.58693C136.514 6.38652 134.418 6.20434 128.13 6.22256C110.664 6.29543 93.7595 6.27114 75.4427 7.05454C66.1021 7.4675 54.5896 7.98369 47.0868 7.8926L48.317 7.76507L46.5248 7.8926C42.5759 8.12944 38.7334 8.36021 34.8908 8.59098C32.9771 8.70637 31.0482 8.80353 29.1042 8.88248C28.1321 8.92499 27.1601 8.95536 26.1729 8.98572L25.4287 9.00394H24.9579C24.6389 9.01608 24.3655 8.97357 23.9858 8.95536C22.953 8.89463 21.495 8.8339 19.8699 8.77317C19.4598 8.76102 19.0497 8.7428 18.6245 8.73066L17.9866 8.70637L17.6676 8.69422H17.6524C18.7156 8.28126 8.41812 12.2833 12.7771 10.589V10.6072V10.6375V10.7043C12.7619 11.0566 12.7315 11.4088 12.7163 11.761C12.6556 13.1578 12.6708 14.4574 12.853 14.8764C14.4022 18.6234 14.0832 24.8906 14.4478 30.7084L14.387 30.6781ZM17.6069 34.5404C17.941 34.2429 18.4878 34.9352 18.3814 32.2935C18.3511 31.5465 18.2296 30.4169 18.0929 30.168C17.5613 29.2206 17.5157 31.504 17.2879 32.4392C16.9538 33.8542 17.3031 34.2489 17.622 34.5404H17.6069ZM11.6987 39.1923C11.8354 39.2591 11.9721 38.6396 12.0936 38.336C11.8658 37.4008 11.638 36.3745 11.395 35.5485C11.1975 34.8927 11.076 35.3421 11.0912 36.5445C11.152 37.9898 11.3494 39.0162 11.6987 39.1923ZM22.786 47.7308C22.8923 44.0263 22.9834 40.7226 22.2392 36.1983C22.0721 41.2449 22.4518 44.2814 22.786 47.7308ZM14.2199 65.9798C15.2983 63.8239 15.1464 59.0992 16.1032 59.7429C16.5893 60.0648 16.9234 58.2672 16.4526 56.8036C15.2527 53.1235 15.4957 46.2672 13.582 40.5526C14.4022 49.9777 14.873 57.1923 14.2199 65.9798ZM24.4415 66.5689C24.4566 66.2045 24.487 65.8401 24.5022 65.4636C24.4263 65.1903 24.3503 64.6984 24.2744 64.6802C23.9706 64.6134 23.9251 65.2085 24.1681 66.168C24.2288 66.417 24.3503 66.4413 24.4415 66.5628V66.5689ZM15.5261 73L15.7084 72.666L15.5109 72.3077V73H15.5261ZM19.3687 75.4171C19.4142 75.1802 19.5054 74.913 19.5054 74.7247C19.475 74.3725 19.4142 73.8928 19.3383 73.7713C19.0953 73.3826 19.0042 73.8381 19.1257 74.8705C19.156 75.1377 19.2927 75.2409 19.3687 75.4171ZM17.455 82.0972L17.3942 81.2835L17.3183 81.9636L17.455 82.0912V82.0972ZM23.7124 91.9596C23.3935 96.1013 23.8491 98.1722 25.0794 99.7754C24.8971 92.5365 24.7148 85.8381 24.5478 79.1397C24.7756 78.2835 24.73 77.3847 24.5022 76.4677L24.2896 75.915L24.4566 76.6195L24.5022 77.8462L24.5326 79.079C24.2592 83.3786 23.9858 87.745 23.7124 91.9657V91.9596ZM19.7939 94.3523C19.7332 94.2187 19.5813 94.3827 19.5661 94.571C19.5509 94.8685 19.6117 95.3058 19.6269 95.6823C19.718 95.8463 19.8547 96.2471 19.9002 96.1317C20.0825 95.6033 20.0521 94.8867 19.7939 94.3523ZM16.5133 107.154C16.8323 101.858 15.8602 95.5487 17.7739 94.4556C16.6045 90.8969 15.8754 94.5892 15.116 94.5527C14.144 89.1236 16.2096 90.8301 15.8906 86.8219C14.3414 85.5284 14.2351 90.241 14.2047 94.3705C14.1744 100.644 15.1768 104.196 16.5285 107.16L16.5133 107.154ZM12.9441 107.561C12.853 106.018 12.5189 105.818 12.2455 105.217C11.9873 104.652 11.7139 104.931 11.805 105.581C11.9265 106.595 12.2151 107.397 12.4733 108.101C12.7011 108.745 12.8834 108.441 12.9441 107.561ZM16.726 115.893C16.893 115.686 17.1208 115.352 17.1816 114.769C17.3487 113.251 16.9842 112.844 16.7411 112.48C16.4222 111.982 16.2096 112.516 16.1488 113.925C16.1944 115.261 16.3159 116.348 16.7108 115.887L16.726 115.893ZM23.2416 122.02C23.3024 121.753 23.4087 121.522 23.4087 121.261C23.4087 120.077 23.272 119.865 23.0745 120.715C23.029 120.939 23.029 121.365 22.9986 121.692C23.0897 121.808 23.1657 121.929 23.2416 122.026V122.02ZM13.3542 145.419C13.4605 144.824 13.658 144.278 13.6732 143.61C13.6732 142.662 13.4605 142.243 13.2479 142.826C13.1112 143.221 12.929 143.895 12.929 144.539C12.929 145.486 13.1264 145.82 13.3542 145.413V145.419ZM16.6956 145.522C17.455 144.253 17.1968 141.484 16.9841 139.116C16.8323 137.373 16.3766 136.808 15.9666 136.28C15.8754 130.941 16.7108 130.656 17.698 131.227L17.8802 131.81L17.7284 131.075C16.9386 128.379 16.1336 125.688 15.2983 122.816C14.2503 128.342 15.1768 132.338 15.9514 136.413C16.0881 137.591 16.2855 138.751 16.3311 139.942C16.407 141.782 15.5717 142.832 16.1336 145.17C16.2399 145.632 16.5589 145.771 16.7108 145.522H16.6956ZM23.2872 130.152L23.4694 129.933L23.2872 129.545V130.152ZM20.8115 147.357L20.6445 146.713C20.5989 145.031 20.5685 143.348 20.523 141.66C20.69 141.429 20.8571 141.235 21.009 140.937C21.0545 140.865 21.0545 140.239 21.0545 140.239C20.7204 139.674 20.6293 140.852 20.4622 141.508C20.0066 143.306 20.1584 145.11 20.5989 146.913L20.8115 147.357ZM25.0338 150.818C26.4463 141.727 25.6261 133.79 25.1401 125.937C25.2312 125.263 25.3679 124.638 25.3983 123.897C25.4439 122.919 25.5957 121.668 25.1857 121.031C25.1553 121.808 25.1249 122.579 25.0945 123.369C25.0945 124.164 25.0945 124.984 25.0945 125.792C23.8188 133.255 25.216 141.344 25.049 150.818H25.0338ZM17.5157 155.713C17.5157 155.33 17.4246 154.948 17.3942 154.601C17.3487 154.832 17.2575 155.033 17.2423 155.324C17.2272 155.701 17.212 156.302 17.2727 156.539C17.455 157.298 17.5613 156.964 17.5309 155.713H17.5157ZM24.6389 162.794L25.3831 159.812C25.5654 159.648 25.7476 159.648 25.9299 159.812L26.1273 160.34L25.9754 159.527C25.8995 159.314 25.8084 158.889 25.7476 158.925C25.5957 159.023 25.4591 159.326 25.3224 159.551C25.1097 160.687 24.2592 159.49 24.6237 162.788L24.6389 162.794ZM17.698 165.114L17.5917 164.288L17.5309 165.108H17.698V165.114ZM22.1936 165.569L22.3607 165.12C22.4366 164.033 22.5885 162.952 22.5581 161.865C22.543 160.96 22.1936 160.674 22.1633 161.409C22.1177 162.472 22.2544 163.723 22.2999 164.895L22.1936 165.569ZM16.0577 166.559L16.2399 166.243L16.0425 165.909V166.559H16.0577ZM23.3935 222.253C24.5326 222.527 25.4135 222.63 25.9603 222.909C26.264 223.067 26.9171 223.098 27.2512 222.903C27.555 222.727 27.2816 222.551 26.7652 222.46C25.8691 222.302 24.973 222.126 23.3935 222.253ZM22.2696 222.211L22.1784 222.272L22.3151 222.284L22.2696 222.217V222.211ZM25.5046 221.336C25.2312 221.421 25.5957 221.519 25.8995 221.531C26.2792 221.549 26.7045 221.579 26.9779 221.434C26.8715 221.385 26.7652 221.288 26.6589 221.288C26.264 221.288 25.7476 221.264 25.5046 221.336ZM25.3831 220.438C25.3527 220.535 25.4742 220.571 25.7628 220.547C26.021 220.523 26.3096 220.498 26.5678 220.474C26.4311 220.432 26.3248 220.359 26.1729 220.347C25.8843 220.322 25.5654 220.334 25.3831 220.444V220.438ZM20.2496 219.575L20.1584 219.648H20.3407L20.2496 219.575ZM24.0921 219.405C24.0921 219.405 23.9554 219.454 23.9403 219.484C23.9099 219.515 23.9403 219.551 23.9706 219.581C23.9706 219.594 24.0921 219.587 24.1529 219.594L24.1073 219.411L24.0921 219.405ZM26.2944 203.148L26.4463 203.883L26.826 206.324L26.4918 203.683L26.3096 203.148H26.2944ZM25.049 206.3L24.9123 206.172L24.973 206.998L25.049 206.3ZM25.049 192.545C24.7148 192.6 24.487 193.456 24.8363 194.652C25.0186 195.259 25.3831 195.102 25.6413 194.95C25.7324 194.895 25.778 193.844 25.8691 192.982C25.5806 192.812 25.3072 192.502 25.049 192.545ZM25.9906 170.385L25.9147 169.541L25.8388 170.251L25.9906 170.385ZM17.5765 173.944C17.6524 173.725 17.7739 173.567 17.7891 173.276C17.8347 172.268 17.698 171.636 17.455 171.654C17.379 171.66 17.2575 171.994 17.2423 172.28C17.1968 173.282 17.3335 173.859 17.5765 173.944ZM17.9866 180.982L18.0777 180.272L17.9258 180.144L17.9866 180.982ZM22.953 181.316C22.953 181.316 22.9834 181.201 22.9986 180.994C22.9986 180.788 23.029 180.508 23.0593 180.193C23.0897 179.561 23.1201 178.802 23.0897 178.31C23.029 177.217 22.7708 176.239 22.6037 175.213L21.3127 172.48L21.1001 172.037L21.2824 172.662L21.3583 175.298L21.2064 175.929L21.3887 175.48L22.5733 175.456C22.5885 176.257 22.6189 177.077 22.6341 177.867C22.71 179.093 22.2848 180.982 22.953 181.31V181.316ZM26.1273 183.77L25.9603 182.986L25.7628 182.361L25.9451 183.095L26.1425 183.77H26.1273ZM15.9058 220.14L15.9969 220.073H15.8451L15.9058 220.14ZM17.0753 220.104H17.2575L17.1816 220.037L17.0753 220.104ZM19.1712 221.464C19.475 221.421 19.6572 221.288 19.4294 221.197C18.1384 220.638 18.8827 220 19.5205 219.545C19.6421 219.46 19.7332 219.381 19.7939 219.308C19.8243 219.272 19.8547 219.235 19.8851 219.199C19.8851 219.187 19.8851 219.193 19.9002 219.162V218.847C19.9002 218.634 19.9002 218.428 19.9154 218.221C19.9306 216.563 19.8699 215.027 19.7636 213.551C19.5357 210.606 19.0649 207.934 18.5029 205.134C18.3207 204.229 18.5333 202.219 18.2448 201.782C18.2448 201.606 18.2448 201.466 18.2448 201.29C18.7915 198.679 19.3079 194.446 20.1129 201.253L19.961 201.958L20.1433 201.387C20.8723 201.417 21.3279 202.82 21.5709 205.808C21.6317 206.506 21.5709 210.193 22.1784 207.199C22.8163 204.138 22.2088 194.992 21.5405 195.964C19.4598 199.049 19.0042 190.158 17.4398 186.794C17.6676 189.976 17.9106 192.94 18.1384 201.697C18.0929 201.691 18.0321 201.697 17.9562 201.757C17.3487 202.274 17.2575 204.345 17.5461 206.725C18.1992 211.96 18.3359 217.298 18.3055 209.998C18.3359 212.476 18.3814 215.245 18.4118 218.367C18.4118 218.561 18.4118 218.762 18.4118 218.956V219.187V219.211V219.314C18.3814 219.381 18.3663 219.454 18.3663 219.527C18.3359 219.672 18.3055 219.83 18.2751 219.994C18.2751 220.316 18.2751 220.79 18.3207 221.264C18.3359 221.415 18.6245 221.549 19.156 221.47L19.1712 221.464ZM23.8339 221.154L23.9403 221.094L23.7732 221.136C23.1505 221.27 22.6493 221.27 22.3911 220.984C22.2392 220.814 22.0418 220.656 21.8595 220.486C21.981 220.438 22.1633 220.395 22.224 220.334C22.3303 220.249 22.4518 220.152 22.1177 220.085L21.9658 220.28L21.7836 220.468C21.3127 220.492 20.4166 220.517 20.4166 220.535C20.4318 220.984 20.9938 221.379 22.1177 221.579C23.1201 221.762 23.4846 221.415 23.8339 221.154ZM18.5637 223.049C19.6876 222.575 19.2168 222.314 18.5029 222.017C17.4854 222.369 18.1384 222.648 18.5637 223.049ZM18.8675 223.948V223.887L18.6852 223.917L18.8675 223.948ZM20.7963 224.021C22.224 223.444 21.0545 223.013 20.1433 222.563C20.4926 223.037 20.7204 223.517 20.7963 224.021ZM23.5757 224.039C23.6517 224.033 23.758 224.039 23.8187 224.015C24.0466 223.948 24.001 223.899 23.7276 223.893C23.6669 223.893 23.5606 223.924 23.5302 223.948C23.4998 223.972 23.5606 224.009 23.5757 224.039ZM16.6348 224.458L16.3159 224.239L16.1336 224.191L16.2551 224.258L16.6348 224.458ZM26.993 224.95C27.1145 224.774 26.6133 224.731 26.4007 224.634L25.778 224.428C25.7476 224.361 25.7476 224.288 25.778 224.221L25.9299 224.154L25.7476 224.215C25.5198 224.288 25.535 224.361 25.7476 224.44L26.3551 224.658C26.4918 224.756 26.6133 224.853 26.7652 224.944C26.7956 224.962 27.0082 224.956 27.0082 224.956L26.993 224.95ZM25.3983 225.776C25.7172 225.903 26.1577 226.031 26.826 226.025C26.9627 226.025 27.2057 225.934 27.2057 225.885C27.1449 225.636 26.6589 225.509 26.021 225.478C25.7021 225.466 25.5046 225.581 25.4135 225.776H25.3983ZM18.7156 225.824C18.7915 225.806 18.9282 225.794 18.9586 225.764C19.0497 225.672 18.9282 225.636 18.67 225.672C18.6093 225.685 18.5485 225.727 18.5485 225.758C18.5485 225.776 18.6548 225.794 18.7156 225.818V225.824ZM23.5302 226.085L24.0314 226.025C23.8491 225.909 23.6669 225.788 23.4542 225.679C23.439 225.673 23.029 225.715 22.9986 225.758C22.8619 225.915 23.1657 226.013 23.5302 226.085ZM20.5381 226.462L20.4774 226.389L20.3711 226.45L20.5381 226.462ZM25.6565 226.936C25.5806 227.039 25.8539 227.142 26.1577 227.087C26.3703 227.051 26.4615 226.93 26.6133 226.851C26.4615 226.802 26.264 226.729 26.2336 226.735C26.021 226.79 25.7172 226.857 25.6565 226.936ZM22.6796 227.087C22.8012 227.027 23.2568 227.118 23.1505 226.96L22.6493 227.075C22.4822 227.094 22.3151 227.106 22.1481 227.13C22.1025 227.13 22.0873 227.166 22.0569 227.191C22.3607 227.239 22.4974 227.148 22.6796 227.094V227.087ZM26.0514 227.834C26.0514 227.834 26.1425 227.774 26.1881 227.743C26.1273 227.725 26.0514 227.683 26.0058 227.689C25.9147 227.689 25.7932 227.719 25.7628 227.743C25.6717 227.834 25.7932 227.871 26.0666 227.834H26.0514ZM25.0794 228.885L25.2464 228.824L25.3983 228.764L25.2312 228.818L25.0794 228.885ZM25.3983 229.735L25.7021 229.596L25.4135 229.45C25.292 229.498 25.0794 229.541 25.0642 229.59C25.0642 229.638 25.2768 229.687 25.3983 229.735ZM25.1249 231.083L25.292 231.023L26.0058 230.889L25.6565 230.768L25.2768 231.017L25.1249 231.083ZM24.7908 231.745C25.049 231.745 25.4894 231.739 25.5502 231.691C25.6869 231.575 25.3527 231.539 25.2464 231.533C24.7604 231.509 24.4718 231.533 24.3959 231.654C24.3959 231.679 24.6541 231.751 24.7908 231.751V231.745Z" fill="#5938E0"/>
<path d="M19.3383 231.836C19.7636 231.496 19.9003 231.162 19.1864 230.604C18.8827 231.205 18.8827 231.527 19.3383 231.836Z" fill="#5938E0"/>
<path d="M22.8771 235.487C22.8771 235.487 23.029 235.512 23.0745 235.5C23.1201 235.487 23.1353 235.45 23.1505 235.426L22.953 235.407L22.8771 235.481V235.487Z" fill="#5938E0"/>
<path d="M524.172 13.7712C524.688 13.7529 524.81 13.7226 525.099 13.6922C524.415 13.674 523.747 13.6618 523.063 13.6375L522.198 13.7104C522.881 13.7347 523.944 13.7772 524.172 13.7651V13.7712Z" fill="#5938E0"/>
<path d="M17.9562 228.466C17.9562 228.466 17.8499 228.411 17.8043 228.387C18.0169 227.974 17.2727 227.567 18.0321 227.13C18.5333 226.838 17.7132 226.687 16.9082 226.662C16.1944 226.638 15.359 226.608 14.873 226.82C14.2807 227.087 15.0249 227.27 15.435 227.47C15.6172 227.555 15.678 227.664 15.7995 227.762L15.9665 227.822L15.7843 227.774C15.1768 228.29 15.3742 228.369 17.6068 228.46C17.6828 228.478 17.7587 228.502 17.8347 228.515C17.865 228.515 17.9714 228.478 17.9562 228.466Z" fill="#5938E0"/>
<path d="M602.937 236.44H605.823L608.724 236.397C609.21 236.318 609.164 236.245 608.587 236.173C605.2 236.221 603.317 236.3 602.937 236.44Z" fill="#5938E0"/>
</g>
<path d="M7.35486 208.091C7.41561 210.472 7.47636 213.253 7.56749 216.594C7.52193 214.693 7.47636 211.978 7.38523 208.183C7.38523 208.134 7.37005 208.091 7.35486 208.085V208.091Z" fill="black"/>
<path d="M6.20058 228.66L6.89923 228.375C6.99035 228.326 7.32449 228.411 7.40043 228.338C7.46118 228.284 7.59787 228.253 7.55231 228.187C7.50675 228.15 7.37005 228.108 7.1878 228.083C7.03592 228.059 6.95998 228.059 6.94479 228.071C6.83848 228.089 6.67141 228.071 6.83847 228.175C6.9296 228.235 6.89923 228.253 6.71697 228.199C6.61065 228.162 6.5499 228.15 6.56509 228.181C6.47396 228.326 6.07908 228.43 5.86644 228.563C5.80569 228.606 5.80569 228.666 5.9272 228.697C6.0487 228.733 6.13983 228.691 6.21577 228.654L6.20058 228.66Z" fill="black"/>
<path d="M5.50196 229.474C5.42602 229.413 5.5779 229.401 5.63865 229.371L5.72978 229.334C5.6994 229.243 5.80572 229.195 6.01835 229.195C5.94241 229.152 5.86647 229.098 5.9576 229.061C6.51955 228.843 7.18783 228.557 7.78016 228.503C7.87129 228.49 7.96241 228.503 8.03835 228.539C8.06873 228.557 7.94722 228.563 8.05354 228.588V228.545C8.0991 228.49 8.19023 228.442 8.11429 228.393C7.99279 228.302 7.79535 228.247 8.28136 228.308L8.20542 228.217C8.05354 228.193 7.88647 228.169 7.94722 228.12C7.96241 228.108 8.05354 228.102 8.12948 228.12C8.26617 228.15 8.22061 228.187 8.22061 228.217C8.44843 228.132 8.41805 227.998 8.12948 227.932C8.00798 227.907 7.88647 227.865 7.74978 227.853C6.91444 227.798 6.79294 227.561 6.62587 227.337C6.58031 227.27 6.70181 227.233 6.76256 227.191C6.85369 227.124 6.96001 227.063 6.61068 227.045C6.48918 227.039 6.54993 226.978 6.65625 226.972C6.85369 226.954 7.06632 226.948 7.35489 226.93C6.82331 226.784 6.73218 226.614 6.74737 226.407C6.74737 226.334 6.73219 226.262 6.68662 226.189L6.62587 226.079V226.049L6.59549 226.037V225.727C6.56512 224.834 6.53474 223.942 6.50437 223.049C6.39805 220.098 6.47399 219.193 6.58031 218.306C6.717 220.104 6.86888 221.847 7.02076 221.021C6.88407 217.735 6.73219 219.466 6.59549 218.045C6.39805 213.424 6.3373 208.255 6.0791 203.944C5.66903 197.227 5.39564 190.845 5.66903 184.911C5.66903 184.656 5.56271 182.652 5.50196 181.468C5.50196 182.932 5.56271 185.087 5.39564 184.444C5.38045 184.359 5.33489 183.921 5.3197 183.581C5.21339 180.958 5.36527 181.255 5.42602 180.697C5.60827 174.308 5.3197 168.448 4.89444 162.776C4.69699 160.225 4.51474 157.705 4.84887 157.377L5.06151 159.855C5.12226 159.994 5.1982 162.023 5.24376 160.583L5.07669 159.539L4.86406 157.116C4.68181 151.067 4.15023 144.994 4.39323 138.903C4.39323 138.733 4.30211 137.172 4.27173 136.626C3.74015 130.699 3.78571 123.867 3.66421 117.302C3.66421 116.603 3.83128 117.818 3.74015 115.759L3.64902 117.186C3.54271 117.016 3.40601 116.585 3.39083 114.278C3.39083 111.047 3.43639 108.047 3.20857 104.524C2.98075 100.996 2.78331 98.2694 3.08707 95.8099C3.25413 94.4678 3.02631 90.4475 2.87443 87.6904C2.72255 84.7937 2.6618 82.6196 2.90481 82.8139L3.11744 85.2734C3.17819 86.4637 3.25413 87.8908 3.2997 88.7835C3.36045 89.6034 3.40601 88.9111 3.34526 88.0001C3.25413 86.8888 3.19338 86.0325 3.11744 85.0669L2.90481 82.5345C2.69218 79.6317 2.41879 77.2329 2.40361 72.5143C2.40361 71.3786 2.37323 69.496 2.32767 68.7551C1.73533 60.6357 1.7809 53.0992 1.79609 45.496L1.9024 43.996L1.7809 45.2166C1.20375 41.1842 0.869619 33.2652 1.20375 30.4595C1.67458 26.4089 1.38601 21.915 1.03669 15.836C0.960747 14.585 0.960747 12.502 0.915183 10.8016V10.091L0.899995 10.5586C0.793679 10.8016 0.702551 10.3157 0.611423 9.37443C0.581047 8.90075 0.535483 8.32382 0.489919 7.66188C0.444355 6.82382 0.413979 5.88859 0.368415 4.90479C-0.983317 3.11936 3.57308 3.85418 5.89685 3.75701C7.30933 3.77523 8.58512 3.79952 9.7546 3.81774C10.028 3.81774 10.2862 3.82381 10.5444 3.82989C10.4532 3.82989 10.6355 3.82989 10.757 3.81774C11.243 3.79345 11.6987 3.76916 12.1239 3.74487C12.9745 3.70235 13.7035 3.66592 14.311 3.63555C16.7563 3.52017 17.2727 3.53839 15.8298 3.69021C15.0704 3.76916 9.60272 4.10317 15.4653 3.82381C19.8394 3.55053 24.3199 3.27118 28.8307 3.04648C31.0937 2.92502 33.3567 2.80357 35.6198 2.68211C37.898 2.57887 40.161 2.46956 42.4392 2.36632C47.2841 2.12948 53.2226 1.89871 56.9589 1.83798C60.5888 1.7651 64.7048 1.66794 68.4866 1.5647C72.2532 1.44931 75.6705 1.34607 77.9183 1.27927C90.8433 0.835951 102.113 0.787368 114.202 0.757003L112.577 0.787368L114.582 0.757003C123.695 0.641618 133.02 0.556598 134.342 0.738785C133.719 0.744858 132.504 0.757003 132.58 0.763076C132.777 0.775222 133.506 0.793441 134.023 0.805586H136.255H134.554C134.478 0.787368 134.448 0.763076 134.463 0.744858C147.358 0.787368 160.511 0.835951 173.952 0.878461C177.734 0.884534 180.939 0.890607 184.827 0.89668C208.9 1.01206 211.026 1.06672 211.846 1.31571C211.846 1.31571 212.059 1.32178 212.393 1.32785C212.727 1.32785 213.183 1.34 213.684 1.34607C214.701 1.36429 215.947 1.38251 216.858 1.39466C226.199 1.4736 220.078 1.34607 221.065 1.31571C225.637 1.16996 229.95 1.17603 246.961 1.43109C259.126 1.61328 268.71 1.70437 280.587 1.77725C286.146 1.80761 287.437 1.87442 287.194 1.91693H285.796L287.649 1.923C294.97 1.97765 302.822 2.00195 309.718 2.11126C331.467 2.45134 351.819 2.5728 372.702 3.08899C374.692 3.14365 378.003 3.26511 380.691 3.37442C379.81 3.36227 374.646 3.20438 378.808 3.37442H380.858C390.882 3.73272 401.028 4.2064 411.264 4.78333C421.501 5.36633 431.829 6.04042 442.339 6.71451C463.329 8.06269 485.017 9.41087 507.906 9.74488C495.71 9.72666 484.243 9.35014 483.256 9.44731C495.922 9.97565 503.562 10.0303 508.407 10.0971C513.252 10.1153 515.317 10.0667 516.882 9.98172C518.203 9.8967 518.006 9.85419 529.245 9.79954C541.502 9.70237 548.169 9.56877 552.832 9.57484C555.201 9.55662 559.317 9.54447 564.618 9.34407C567.382 9.2469 570.252 9.14366 573.214 9.04042C576.404 8.91897 579.699 8.79751 583.01 8.67605C594.781 8.22666 606.931 7.68617 616.713 7.13961C618.611 7.03637 620.707 6.92706 622.94 6.8056C624.048 6.75094 625.203 6.69022 626.372 6.62949C626.964 6.59912 627.557 6.56876 628.149 6.53839L629.546 6.47159C629.82 6.43516 630.063 6.50196 630.321 6.54447L631.065 6.67807C633.465 7.10925 635.91 7.54649 638.355 7.98374C639.267 8.19629 640.861 8.23273 640.36 8.79751C640.33 9.1801 640.315 9.56877 640.284 9.95136C640.254 10.4433 640.208 10.9291 640.178 11.4089C639.905 15.0526 639.692 17.5121 639.57 22.0364C639.419 27.7206 638.993 30.7024 638.553 30.0526V29.5182V30.1862C638.522 30.9636 638.492 31.747 638.447 32.5304C638.447 32.834 638.447 33.1194 638.447 33.4595C638.447 33.502 638.401 33.8603 638.386 34.0729V33.168C637.961 38.1478 638.006 40.2004 638.34 38.6579C638.841 36.3259 638.659 38.8279 638.34 43.2247C638.021 47.7915 637.778 52.5162 637.566 57.5567L637.474 59.9859C637.034 61.0487 636.882 65.828 636.746 69.4475C636.487 76.3098 635.971 73.0244 635.773 79.328C635.652 83.0143 635.91 84.1378 635.591 89.7673C635.044 99.2289 634.315 109.365 634.103 118.061C633.966 123.842 632.888 123.794 633.328 129.861C633.024 135.891 632.736 141.921 632.432 147.94C632.068 155.348 631.688 162.296 631.156 169.899C630.716 176.5 630.093 184.292 630.048 192.156C630.063 200.191 630.184 200.67 629.577 202.146C629.531 202.286 629.455 202.359 629.516 203.33C629.577 204.575 629.668 205.984 629.805 206.926C629.987 208.407 630.321 211.037 630.792 213.581C631.232 216.132 631.809 218.604 632.083 219.782C632.873 223.432 633.996 226.948 635.485 230.434L635.546 230.598V230.61C636.032 230.446 631.384 232.067 633.343 231.381H633.298L633.191 231.363L632.994 231.339L632.204 231.241L630.61 231.047C629.835 230.956 630.245 230.98 629.531 230.986L627.861 231.005C625.643 231.029 623.41 231.047 621.178 231.071C616.713 231.108 612.217 231.144 607.66 231.187C600.659 231.235 591.212 231.369 591.318 231.241C591.349 231.193 588.645 231.205 585.486 231.254C575.72 231.405 564.466 231.496 552.938 231.588C541.395 231.66 529.579 231.727 518.659 231.83C498.474 232.019 502.954 231.764 492.991 231.721C485.215 231.976 468.705 232.116 445.954 232.116C436.188 232.122 426.893 232.134 416.763 232.183C403.078 232.256 389.303 232.31 375.451 232.322C361.6 232.347 347.657 232.322 333.654 232.256C321.412 232.371 311.965 232.067 295.957 232.195C286.191 232.28 266.462 232.116 250.925 232.079C232.38 232.043 213.092 231.964 195.003 231.806C179.799 231.66 167.679 231.715 153.342 231.594C116.405 231.308 78.8904 230.986 42.2721 230.579C34.4047 230.482 26.5221 230.391 18.6396 230.294L13.5212 230.233H13.3997L13.1567 230.215L12.1847 230.166C11.5316 230.136 10.8937 230.094 10.2406 230.033C9.28377 229.948 8.34211 229.839 7.38527 229.772C7.17264 229.76 6.86888 229.735 6.88407 229.65C6.89925 229.413 6.5803 229.523 6.36767 229.523C6.13985 229.523 5.91203 229.523 5.68421 229.523C5.59309 229.523 5.50196 229.523 5.47158 229.468C5.45639 229.426 5.47158 229.359 5.54752 229.359C5.88166 229.341 5.83609 229.189 6.00316 229.11C6.47399 228.885 7.0967 228.855 7.70422 228.818C8.82813 228.758 9.96723 228.794 11.1063 228.77C11.9113 228.758 12.7011 228.77 13.506 228.77C30.4558 228.952 47.4056 229.134 64.3403 229.31C83.6442 229.474 102.948 229.644 122.207 229.808C177.354 230.209 232.714 230.513 287.422 230.592C339.106 230.664 391.095 230.671 442.613 230.446C479.61 230.294 517.459 230.13 555.064 229.863C573.381 229.711 591.759 229.559 610.151 229.413L623.942 229.292L627.39 229.262L629.121 229.249L630.184 229.237C630.458 229.231 630.731 229.231 630.989 229.274L631.642 229.353L633.298 229.553L634.118 229.656L634.528 229.705L634.634 229.717C627.921 232.079 632.766 230.361 631.263 230.883V230.859L631.217 230.774L630.685 229.401C629.258 225.739 628.179 222.053 627.39 218.361C624.307 203.579 625.689 188.792 626.311 174.138C626.311 173.021 626.387 171.897 626.494 170.768C627.815 146.045 629.151 121.037 630.458 96.6965C631.506 77.7795 632.493 59.7916 633.526 41.3361C633.996 32.2146 634.467 23.0627 634.923 13.9109L635.105 10.4797L635.151 9.66593L632.66 9.21654L629.015 8.56674L628.164 8.60925L626.038 8.71249L617.517 9.1133C606.157 9.64164 594.811 10.1518 583.451 10.5769C580.17 10.7044 576.89 10.8198 573.594 10.9291C563.144 11.2813 552.695 11.5485 542.261 11.7004C523.519 11.9615 504.671 11.8643 485.944 11.1234C467.217 10.3886 448.748 9.12544 430.356 7.95338C411.963 6.75702 393.631 5.76106 375.178 5.24487C356.724 4.68616 338.256 4.44325 319.818 4.2307C291.006 3.92705 262.134 3.62341 233.307 3.32584C204.48 3.04041 175.729 2.7064 147.145 2.62745C125.396 2.56672 103.601 2.66996 81.852 3.10721C70.9774 3.30154 60.118 3.62948 49.2738 3.98778C38.4447 4.40681 27.6309 4.84406 16.8626 5.46349C15.0856 5.56066 13.2934 5.65782 11.5012 5.75499L11.1367 5.77321C10.9089 5.78536 10.7418 5.7975 10.5444 5.79143L9.76978 5.77928L8.40286 5.75499L5.97279 5.71248C5.72978 5.71248 5.42602 5.68819 5.24376 5.71248V6.0222C5.25895 6.7388 5.27414 7.46147 5.28933 8.18415C5.36527 11.1234 5.42602 14.087 5.50196 17.0627C5.65384 23.0081 5.80572 28.9899 5.94241 34.917C6.39805 55.2612 6.85369 75.4718 7.30933 95.8159C8.15986 131.184 9.01038 166.535 9.86091 201.915L10.4229 225.29V226.007V226.037V226.098L10.4077 226.219V226.462C10.3621 226.784 10.3469 227.106 10.3773 227.428C10.3773 227.561 10.1495 227.695 10.2102 227.792C10.2406 227.828 10.2406 227.853 10.2558 227.889V228.029C10.2558 228.12 10.2406 228.205 10.2406 228.296C10.7266 228.867 9.01038 229.019 8.15986 229.201C7.73459 229.256 7.30933 229.365 6.91444 229.468C6.76256 229.511 6.64106 229.541 6.50437 229.401C6.36767 229.262 6.03354 229.316 5.77534 229.347C5.77534 229.377 5.82091 229.407 5.80572 229.432C5.80572 229.486 5.6994 229.505 5.56271 229.505C5.51715 229.505 5.45639 229.492 5.44121 229.48L5.50196 229.474ZM8.08392 228.982C8.08392 228.982 7.99279 228.97 7.94722 228.97C7.91685 228.97 7.90166 228.982 7.87129 228.988C7.91685 228.988 7.94722 229 7.99279 229C8.02316 229 8.03835 228.988 8.08392 228.982ZM10.4381 229.456C10.4381 229.456 10.514 229.474 10.5596 229.468C10.5899 229.468 10.6203 229.456 10.6659 229.45C10.6203 229.444 10.5747 229.432 10.5444 229.432C10.514 229.432 10.4836 229.444 10.4381 229.45V229.456ZM11 229.638C10.7114 229.626 10.5292 229.614 10.3014 229.602C10.4988 229.711 10.6811 229.687 11 229.638ZM172.099 230.901C173.679 230.901 175.456 230.901 177.142 230.907C179.313 230.907 179.192 230.883 176.58 230.865C175.015 230.865 173.01 230.865 171.552 230.859C169.32 230.859 169.563 230.883 172.099 230.901ZM78.4803 230.118C85.6642 230.191 91.7242 230.258 97.7994 230.318L99.7435 230.349L98.3158 230.318C92.4988 230.227 86.5603 230.154 78.4803 230.118ZM35.1034 229.341C35.3919 229.341 36.6677 229.365 37.5183 229.377C38.0802 229.377 38.6725 229.377 39.2345 229.377C38.6118 229.359 38.2473 229.347 37.5031 229.334C35.073 229.298 34.0554 229.298 35.1034 229.334V229.341ZM13.02 229.42C13.02 229.42 13.0504 229.432 13.0656 229.438C13.0808 229.438 13.1111 229.444 13.1263 229.438C13.1719 229.426 13.1567 229.413 13.0808 229.413C13.0656 229.413 13.0352 229.413 13.02 229.42ZM179.45 231.138L178.736 231.071C170.14 231.017 161.407 230.962 152.947 230.907C115.129 230.707 77.2501 230.306 39.4927 229.911C30.4862 229.814 22.4973 229.729 13.5668 229.632C13.0504 229.656 12.4732 229.735 12.1391 229.462C11.9417 229.474 11.9417 229.559 11.8354 229.596C11.7442 229.62 11.6531 229.632 11.4708 229.669C23.6212 229.808 35.4679 229.942 47.1474 230.075C91.6483 230.543 135.542 230.895 179.435 231.138H179.45ZM316.172 231.369H318.041L319.21 231.345H317.403L316.172 231.369ZM296.2 231.387C296.96 231.387 298.053 231.381 298.418 231.375C298.721 231.375 298.159 231.357 297.977 231.351C297.02 231.351 295.729 231.351 295.167 231.351C293.026 231.369 293.482 231.381 296.2 231.387ZM247.052 231.223C254.57 231.254 261.875 231.296 269.226 231.284C261.541 231.241 254.205 231.199 247.052 231.223ZM203.538 231.011C210.084 231.09 215.263 231.102 220.23 231.12C223.419 231.132 223.45 231.108 220.169 231.09C215.37 231.065 210.434 231.041 203.538 231.011ZM328.171 231.515C308.837 231.581 292.175 231.46 277.868 231.533C250.424 231.417 223.024 231.308 195.58 231.193C223.146 231.399 250.727 231.539 278.415 231.539C293.664 231.545 311.479 231.745 328.171 231.515ZM409.229 230.798H411.113L411.28 230.792H409.229V230.798ZM372.96 231.345C378.686 231.357 384.306 231.417 390.7 231.345C385.642 231.284 379.172 231.32 372.96 231.345ZM339.182 230.901C340.655 230.907 342.098 230.913 343.587 230.92C345.516 230.92 347.46 230.92 349.389 230.913L344.923 230.889L339.182 230.901ZM363.787 231.484C356.967 231.533 347.034 231.484 339.076 231.594C350.148 231.563 359.185 231.594 363.787 231.484ZM419.177 231.46L417.871 231.442C415.274 231.424 412.662 231.436 410.034 231.454L403.989 231.527C392.583 231.557 380.053 231.588 368.996 231.618C363.286 231.648 361.235 231.691 364.956 231.745C367.781 231.788 371.761 231.794 375.512 231.752C383.668 231.66 398.005 231.66 404.673 231.533L410.687 231.46L417.309 231.448L419.162 231.46H419.177ZM460.337 231.454C458.924 231.326 457.74 231.205 446.971 231.126C446.698 231.156 446.03 231.187 446.258 231.217C446.622 231.26 444.587 231.296 443.023 231.339C435.656 231.539 435.975 231.539 460.337 231.454ZM631.035 131.197C631.035 130.923 631.035 130.468 631.035 130.504C630.989 130.632 630.944 130.942 630.898 131.191H631.05L631.035 131.197ZM630.701 133.723L630.868 131.336C630.807 132.059 630.67 132.363 630.701 133.723ZM630.063 142.243L630.093 141.393L630.032 142.104L630.063 142.243ZM629.713 150.314C629.729 150.01 629.729 149.537 629.713 149.403C629.713 149.288 629.668 149.549 629.637 149.646C629.622 150.041 629.592 150.569 629.592 150.794C629.592 151.674 629.653 151.474 629.713 150.314ZM628.164 160L628.331 157.608L628.498 155.203L628.574 154.462L628.498 154.996C628.438 155.67 628.377 156.284 628.301 157.031C628.225 158.021 628.119 159.235 628.164 160ZM626.448 173.033L626.509 172.504V171.946L626.448 173.033ZM627.116 207.563C626.995 206.525 626.904 205.747 626.797 204.855C626.797 205.553 626.797 206.057 626.797 206.561C626.904 207.272 627.04 208.116 627.131 208.65C627.223 209.124 627.223 208.438 627.131 207.563H627.116ZM630.792 227.677L630.534 226.845H630.488L630.792 227.677ZM621.983 229.602L624.048 229.59L624.079 229.571L621.998 229.596L621.983 229.602ZM592.427 230.355C600.811 230.294 609.149 230.227 617.821 230.16C619.993 230.142 622.18 230.13 624.398 230.112C625.506 230.106 626.615 230.094 627.739 230.088L629.425 230.075H630.367L631.263 230.179L632.903 230.379L633.723 230.482L633.936 230.507H633.981L634.012 230.519C634.164 230.47 632.69 230.98 633.313 230.762V230.719L633.222 230.549C633.04 230.094 632.857 229.632 632.675 229.164C632.295 228.235 631.916 227.294 631.597 226.328C631.87 227.282 632.189 228.217 632.554 229.14C632.721 229.602 632.903 230.063 633.07 230.519L633.131 230.689L633.161 230.774C634.968 230.148 633.647 230.598 634.057 230.458H634.027H633.981L633.875 230.44L633.055 230.337L631.43 230.136L630.534 230.027C630.215 229.99 629.789 230.027 629.546 230.015L627.861 230.027C626.737 230.039 625.628 230.045 624.519 230.057C622.302 230.075 620.099 230.1 617.928 230.118C609.21 230.203 600.811 230.288 592.442 230.367L592.427 230.355ZM578.105 229.954C577.391 229.978 578.773 229.972 581.552 229.948C582.281 229.936 582.874 229.93 583.527 229.917L580.808 229.93C579.866 229.942 578.317 229.954 578.105 229.954ZM557.13 230.628C557.13 230.628 557.738 230.634 558.618 230.634C559.499 230.634 560.593 230.634 561.474 230.634C563.995 230.604 568.324 230.567 569.037 230.543C570.784 230.488 565.969 230.531 563.737 230.543C561.124 230.561 557.373 230.586 557.13 230.622V230.628ZM535.153 230.294L537.37 230.27C538.312 230.245 543.339 230.239 542.079 230.203L536.884 230.27L535.153 230.294ZM484.623 231.284C485.033 231.26 483.893 231.254 481.296 231.266C479.55 231.278 477.894 231.296 476.193 231.308C477.378 231.314 478.411 231.332 479.793 231.332C481.205 231.32 482.982 231.302 484.607 231.284H484.623ZM514.74 230.859C510.305 230.877 506.736 230.907 503.851 230.95C497.092 230.968 490.834 230.938 482.739 231.029C489.179 231.09 496.484 231.035 504.154 230.95C507.222 230.907 513.647 230.932 514.74 230.853V230.859ZM591.835 230.865H589.966L589.799 230.883L591.835 230.865ZM633.996 228.861L634.285 229.553C634.331 229.65 634.407 229.845 634.513 230.069C634.558 230.185 634.604 230.306 634.665 230.434L634.741 230.622V230.646V230.658V230.664C634.984 230.579 632.614 231.405 633.617 231.059L633.51 231.047L633.283 231.023C632.128 230.883 631.217 230.774 631.749 230.865L633.04 231.017L633.359 231.053L633.526 231.071H633.571L633.586 231.077C635.941 230.258 634.239 230.847 634.756 230.664V230.628L634.634 230.361L634.179 229.298L633.966 228.861H633.996ZM629.622 216.46C630.032 219.138 630.807 221.986 631.658 224.725C632.144 226.092 632.538 227.434 633.07 228.703C633.313 229.341 633.541 229.96 633.784 230.561L633.829 230.677V230.707L633.845 230.719V230.731C633.875 230.719 633.784 230.762 633.921 230.707L633.784 230.689L633.252 230.622C632.903 230.579 632.538 230.531 632.189 230.488C631.49 230.409 630.837 230.288 630.108 230.252C613.265 230.288 599.079 230.5 583.755 230.646C572.546 230.677 561.671 230.762 550.857 230.859C540.044 230.944 529.321 231.029 518.431 231.12C537.826 231.059 557.267 230.968 577.133 230.768C579.411 230.768 581.643 230.756 583.77 230.719C598.654 230.671 613.113 230.543 627.405 230.403L630.063 230.379C630.853 230.415 631.749 230.567 632.584 230.658L633.222 230.737L633.541 230.774L633.693 230.792L633.769 230.804H633.814C633.921 230.774 633.617 230.889 634.042 230.731L633.829 230.197L633.404 229.146C632.812 227.743 632.341 226.341 631.855 224.938C630.959 222.126 630.154 219.314 629.607 216.484L629.622 216.46ZM627.466 200.355L627.435 199.061V197.768L627.481 197.015L627.435 197.713C627.375 198.612 627.374 199.517 627.466 200.434C627.435 207.144 628.149 213.314 629.668 219.071L629.789 219.745L629.729 219.272C629.303 217.007 629.091 214.565 628.544 211.766C627.891 208.456 627.693 203.482 627.481 200.361L627.466 200.355ZM628.893 201.478V202.11L628.954 201.8L628.893 201.478ZM629.486 184.225L629.455 185.039L629.516 184.292L629.486 184.225ZM629.227 178.425V179.203C629.227 179.591 629.076 181.583 629.212 181.085L629.243 178.978V178.425H629.227ZM629.06 171.284C628.696 172.146 628.605 177.685 628.453 181.347C628.271 185.312 628.149 189.794 627.769 189.533L627.739 189.083V189.764C627.997 193.061 627.769 202.177 628.529 206.743C627.754 197.828 628.468 189.053 628.802 180.338C628.939 176.895 629.425 170.373 629.045 171.278L629.06 171.284ZM628.908 167.087C628.301 170.986 628.164 176.482 627.936 181.705C628.362 177.326 628.498 171.606 628.908 167.087ZM629.668 162.703C629.668 162.703 629.592 163.134 629.577 163.468C629.577 163.766 629.546 164.203 629.531 164.579C629.562 164.519 629.592 164.598 629.607 164.367C629.713 163.456 629.729 162.776 629.668 162.697V162.703ZM629.045 159.326C629.045 159.557 629.045 159.915 629.045 159.988C629.076 160.249 629.106 160.425 629.136 160.632V161.166L629.152 160.45L629.045 159.326ZM631.84 126.035L631.658 128.525C631.43 129.946 631.217 131.184 631.05 131.239C630.746 139.207 630.427 147.18 630.032 157.765C630.777 146.324 631.323 137.531 631.673 128.585C631.733 127.759 631.87 127.407 631.855 126.035H631.84ZM632.478 86.2268L632.508 85.4131L632.447 86.16L632.478 86.2268ZM632.645 95.1236C632.66 94.4131 632.69 93.4354 632.705 93.0589C632.69 92.5062 632.614 93.0831 632.584 94.1034C632.569 94.8686 632.538 95.7188 632.523 96.241C632.523 96.7998 632.584 96.2593 632.645 95.1236ZM631.445 117.897C631.916 112.547 631.976 108.199 632.068 103.589C631.916 107.172 631.688 110.385 631.445 113.688C631.247 116.342 631.339 117.363 631.445 117.891V117.897ZM633.769 79.9778V80.7187C633.176 93.4475 632.599 105.575 631.961 119.47C632.873 111.132 633.07 102.259 633.602 94.5649C634.148 86.8524 634.194 81.8483 633.784 80.5123V79.9718L633.769 79.9778ZM5.65384 58.0426V58.826L5.68421 58.8988L5.65384 58.0426ZM4.45399 54.4413C4.49955 56.6154 4.48436 58.7349 4.63624 60.6721C4.63624 58.4798 4.59068 56.3664 4.45399 54.4413ZM4.94 33.1862L4.89444 33.4717L4.95519 33.9089V33.1862H4.94ZM3.72496 19.2854V21.1012C3.75534 21.8603 3.78571 22.6376 3.81609 23.5546C3.81609 22.838 3.81609 22.2307 3.81609 21.6295C3.78571 20.8522 3.75534 20.0688 3.72496 19.2854ZM4.59068 14.4332V15.089L4.65143 14.8765L4.59068 14.4332ZM20.5836 4.35215C20.7659 4.31572 19.399 4.38252 16.9385 4.53434C16.1184 4.61329 14.5844 4.74082 14.5084 4.78333C14.4933 4.79547 15.283 4.75296 16.2399 4.70438C17.1815 4.64973 18.2751 4.589 18.8066 4.54649C20.0217 4.45539 20.4014 4.40074 20.5836 4.35823V4.35215ZM57.126 3.36227C53.9972 3.45944 51.2026 3.55053 48.6511 3.62948C46.0995 3.72665 43.8061 3.81774 41.6798 3.90276C37.4119 4.06066 33.8276 4.23677 30.228 4.4311C34.0858 4.26106 37.7613 4.09709 41.9835 3.93312C44.0947 3.8481 46.3577 3.75094 48.8485 3.6477C51.3393 3.56268 54.0732 3.46551 57.126 3.36227ZM89.0967 2.33595L87.3653 2.35417L87.0311 2.37239L89.0967 2.33595ZM102.842 1.83798L101.08 1.86834C89.9928 2.06875 78.9055 2.24486 61.1052 2.82179C81.7761 2.2145 93.6227 2.10518 101.672 1.86834L102.827 1.83798H102.842ZM133.172 2.38454H127.37L122.677 2.42098C124.606 2.42098 126.55 2.4149 128.479 2.40883C130.044 2.40276 131.608 2.39061 133.172 2.38454ZM162.288 2.31774L160.541 2.29952L160.207 2.31166H162.288V2.31774ZM236.496 2.90073C234.826 2.8643 232.957 2.85215 231.317 2.85215C231.454 2.8643 231.241 2.87037 231.803 2.88251C233.474 2.91895 235.479 2.93717 236.937 2.9311C237.347 2.9311 237.073 2.91288 236.496 2.90073ZM244.986 2.81571L244.227 2.79142L243.437 2.80357L244.986 2.82179V2.81571ZM270.593 2.85822C270.411 2.82179 267.89 2.77928 264.943 2.74284C260.675 2.7064 258.291 2.7064 257.851 2.73677C257.319 2.76713 260.448 2.81571 264.123 2.85215C267.753 2.88859 270.791 2.90073 270.593 2.85822ZM298.114 3.52624L297.704 3.50195H296.671L298.129 3.52624H298.114ZM308.001 3.44729L305.981 3.43515L307.834 3.45944L308.001 3.44729ZM342.144 4.09102L340.2 4.05458L340.169 4.06673L342.144 4.09102ZM361.19 4.49183L359.094 4.45539L361.007 4.50398L361.19 4.49183ZM364.577 4.07887C362.951 4.04851 361.828 4.04244 360.476 4.02422C361.554 4.05458 362.876 4.09709 364.197 4.13353C366.035 4.16997 369.057 4.24284 369.498 4.24284C370.91 4.24284 368.039 4.14568 364.561 4.0728L364.577 4.07887ZM387.678 4.76511L385.597 4.69224L387.51 4.77118H387.678V4.76511ZM432.998 7.72868C432.391 7.68617 431.875 7.64973 431.161 7.59508C430.234 7.53435 428.867 7.44933 428.199 7.40682C426.331 7.30358 427.121 7.35823 430.189 7.55864C431.115 7.6133 432.042 7.67402 432.983 7.72868H432.998ZM441.109 7.63151L439.377 7.53435L438.208 7.47362L440 7.57686L441.109 7.63151ZM453.274 9.01006L451.285 8.89468L453.244 9.02221L453.274 9.01006ZM469.237 9.48982C468.311 9.44123 467.369 9.39265 466.442 9.34407C467.035 9.38051 467.551 9.41694 468.25 9.45945C469.176 9.50804 470.558 9.58091 471.211 9.61735C473.095 9.70237 472.32 9.65379 469.252 9.48982H469.237ZM506.691 11.3481L504.595 11.3117L506.357 11.3542H506.691V11.3481ZM606.886 8.76107L605.154 8.82787L604.836 8.85824L606.901 8.76107H606.886ZM636.639 10.4008L636.7 10.1093L636.67 9.78132L636.639 10.4008ZM636.366 30.0526C636.396 28.8806 636.442 27.5142 636.472 26.6397C636.472 25.8137 636.381 26.5 636.366 27.3745C636.366 28.4129 636.366 29.1781 636.366 30.0526ZM634.725 56.3057L634.953 52.4919C635.014 51.2956 634.999 50.9494 634.953 51.1438C634.756 52.4859 634.71 53.743 634.695 54.8725C634.695 55.4616 634.695 55.8381 634.71 56.3057H634.725ZM634.224 65.992C634.27 66.2896 634.331 65.7734 634.361 64.7531C634.361 64.4373 634.346 64.3098 634.331 64.0912C634.3 64.3827 634.27 64.6742 634.255 64.9535C634.239 65.3179 634.224 65.9191 634.224 65.9859V65.992ZM636.351 55.8867C636.108 57.4656 636.062 60.1802 636.032 62.2814V62.7369L636.062 62.0446C636.259 59.5851 636.396 59.0689 636.518 59.4272C636.518 59.6458 636.518 60.0648 636.518 60.0345C636.563 59.9434 636.609 59.658 636.639 59.4515L636.867 58.1883L636.654 59.0142C636.594 59.4697 636.563 59.4636 636.548 58.9899C636.487 57.8118 636.578 54.4474 636.351 55.8867ZM637.11 40.832C637.08 41.1903 637.049 41.5486 637.034 41.9008C637.034 42.2713 636.988 42.8846 636.988 42.9757C637.019 43.2612 637.064 42.7085 637.11 41.6154C637.11 41.3239 637.11 41.0931 637.11 40.832ZM638.522 22.9959C638.431 23.4089 638.416 23.8218 638.492 23.998C638.507 24.0465 638.538 23.8401 638.568 23.755C638.568 23.5 638.598 23.0749 638.598 23.0263C638.583 22.917 638.553 22.8684 638.538 22.9959H638.522ZM570.571 9.44123L572.455 9.36229C572.713 9.35014 572.986 9.34407 573.275 9.33192C575.705 9.23476 578.53 9.13152 580.049 9.05257C581.279 8.98577 578.363 9.07686 576.753 9.14366C575.143 9.21047 574.247 9.25905 573.275 9.3137C572.956 9.33192 572.607 9.35014 572.242 9.36836L570.587 9.44123H570.571ZM450.07 7.70439C450.282 7.71653 451.604 7.80763 452.439 7.86228C452.758 7.8805 453.214 7.90479 453.593 7.92301C453.973 7.94123 454.277 7.95338 454.277 7.95338C454.338 7.92909 452.849 7.83192 450.632 7.71046C450.07 7.6801 449.812 7.67402 450.085 7.69832L450.07 7.70439ZM370.09 3.33798C373.811 3.423 377.547 3.52017 381.268 3.62948L382.422 3.6477L380.585 3.59912C379.613 3.56875 378.413 3.53839 377.699 3.5141C375.497 3.46551 370.075 3.27118 370.075 3.33191L370.09 3.33798ZM291.082 2.10518C291.568 2.17806 296.246 2.22664 300.665 2.26915C303.247 2.29344 308.897 2.35417 305.617 2.2813C303.111 2.22057 306.088 2.15984 296.762 2.09911C294.211 2.08089 292.646 2.09911 291.067 2.10518H291.082ZM289.168 2.45741L294.469 2.47563H295.927L294.013 2.46956C292.844 2.47563 287.908 2.40276 289.168 2.46349V2.45741ZM172.934 1.05457L174.803 1.07279L174.97 1.06065H172.934V1.05457ZM116.222 0.963482H118.06C118.425 0.957409 119.139 0.93919 119.078 0.933117C118.865 0.902753 117.68 0.902753 116.329 0.933117C115.888 0.945263 116.253 0.951336 116.238 0.963482H116.222ZM1.84165 19.0911L1.81127 18.2651V18.9635L1.84165 19.0971V19.0911ZM3.01113 32.9615C3.17819 30.3441 2.93519 25.3583 3.13263 24.0101C3.19338 24.4838 3.25413 26.3299 3.2997 24.9089L3.13263 23.7247C3.10225 20.1842 2.99594 16.753 2.85925 13.3522C2.79849 11.6518 2.72255 9.95743 2.6618 8.26309C2.63143 7.3886 2.60105 6.5141 2.57067 5.63961L2.5403 4.8562V4.66187C2.5403 4.63151 2.52511 4.59507 2.5403 4.56471H2.78331L3.75534 4.58292L7.41564 4.63758C8.38768 4.64973 9.32933 4.66794 10.2558 4.68009C10.514 4.68009 10.6355 4.69224 10.8178 4.68009L11.486 4.64365C11.9265 4.61936 12.3669 4.59507 12.7922 4.57078C14.5236 4.47361 16.1336 4.38252 17.6675 4.29143C20.7051 4.12138 23.3327 3.96349 25.5653 3.8724C30.0002 3.67806 32.734 3.58697 33.6757 3.63555C34.344 3.65377 42.4695 3.3562 44.93 3.15579C45.6135 3.10114 45.7653 3.04041 48.727 2.9311C68.441 2.31166 87.3956 1.7651 106.806 1.63757C117.346 1.58292 129.102 1.52826 138.579 1.47968C148.846 1.43717 151.945 1.70437 164.049 1.57684C166.935 1.54648 172.615 1.66186 172.919 1.71652C173.39 1.80154 158.065 1.77118 165.781 1.923C179.025 1.95944 198.541 2.22057 199.787 2.00195C196.704 1.96551 193.165 1.923 190.659 1.89263C188.32 1.8562 185.039 1.78939 185.692 1.78332C188.517 1.74688 192.664 1.81369 195.868 1.86834C198.192 1.91693 199.939 1.95336 201.928 1.99587C203.508 2.00802 205.103 2.02624 206.682 2.03838C207.518 2.03838 208.277 2.03838 209.219 2.03838C209.462 2.03838 210.631 2.06267 210.737 2.06875C210.267 2.06875 209.446 2.06875 208.763 2.06875C223.085 2.27523 222.584 2.04446 237.21 2.22664C265.429 2.57887 297.598 2.76106 323.903 3.22867C327.655 3.29547 334.444 3.3562 339.197 3.38656L332.135 3.25296C336.16 3.25296 338.651 3.33191 341.612 3.39264C358.091 3.60519 374.646 3.95742 391.14 4.63151C407.635 5.29345 424.022 6.36228 440.349 7.40682C442.415 7.53435 444.42 7.64973 446.455 7.77726C450.601 8.09913 454.474 8.42099 463.39 8.93719C475.677 9.62949 481.858 9.87241 485.291 10.0425C488.723 10.2003 489.422 10.2671 490.819 10.425C494.631 10.5344 497.137 10.5708 499.719 10.6194C502.317 10.6497 504.959 10.6862 509.045 10.7348C530.384 10.9595 551.86 10.5283 573.396 9.79346C576.662 9.68415 579.942 9.56269 583.223 9.43516C595.632 8.96148 608.086 8.40884 620.555 7.83799C622.985 7.72868 625.354 7.61937 627.572 7.5222C628.119 7.49791 628.65 7.47362 629.167 7.4554C629.425 7.42504 629.653 7.46755 629.865 7.51613C630.093 7.55864 630.321 7.60115 630.549 7.64366C631.475 7.8137 632.341 7.97767 633.161 8.12949C634.741 8.42706 636.244 8.71856 637.034 8.88253C637.247 8.92504 637.429 8.96755 637.611 9.00399C637.702 9.05864 637.611 9.15581 637.611 9.21047C637.581 9.338 637.535 9.42302 637.49 9.4716C637.459 9.52018 637.414 9.57484 637.383 9.73881C637.338 9.90885 637.307 10.1396 637.262 10.4676C637.186 11.1174 637.125 12.1194 637.08 13.6194C637.019 15.6174 636.973 16.8441 637.231 15.7267C637.702 13.7105 637.383 19.6255 637.186 22.9899C636.973 26.6943 636.654 28.4251 636.381 30.1134C636.244 32.3785 635.88 35.6943 636.062 36.6417C636.411 38.4454 636.092 43.4555 635.728 48.6721C635.105 57.7086 634.741 66.4535 634.3 75.4839C634.741 74.1357 634.953 71.5305 635.212 65.8462C635.758 53.8523 636.275 41.828 637.171 29.5425C637.581 23.9554 637.945 17.6518 638.188 11.4271C638.204 10.9352 638.219 10.4736 638.249 10.0364C638.249 9.81168 638.264 9.59306 638.279 9.38051C638.279 9.27119 638.279 9.16188 638.279 9.05257V8.89468V8.85217L638.188 8.83395L638.006 8.80358C636.184 8.48172 634.574 8.19629 633.07 7.92909C632.341 7.79548 631.627 7.67402 630.928 7.54649C630.245 7.44933 629.531 7.21248 628.741 7.32787C627.283 7.39467 625.84 7.46147 624.322 7.53435C618.277 7.80763 611.108 8.12342 596.786 8.67605C592.488 8.84002 587.035 9.07686 583.147 9.25298C582.555 9.28334 582.084 9.30156 581.628 9.32585C579.456 9.43516 576.419 9.56877 573.351 9.68415C568.536 9.88456 563.646 10.0182 561.975 10.0485C550.903 10.1761 537.219 10.5829 524.916 10.5769C511.672 10.5829 498.687 10.3825 485.716 9.90885C472.746 9.41694 459.805 8.66391 446.577 7.78941C437.312 7.12746 426.209 6.41694 415.76 5.80357C399.737 4.83798 383.698 4.19426 368.282 3.75701C367.523 3.74487 366.809 3.72665 365.974 3.7145C365.67 3.70843 364.561 3.67199 364.653 3.67199C364.926 3.67199 365.609 3.67806 366.126 3.68414C349.297 3.27118 333.016 3.13758 315.762 2.94932C270.411 2.46956 224.862 1.94729 179.359 1.52219C166.237 1.41288 151.641 1.37644 140.417 1.32178C133.263 1.30356 131.365 1.24891 124.925 1.35215C120.384 1.43717 113.458 1.4979 107.596 1.61328C106.365 1.57684 104.224 1.53433 97.7994 1.61328C79.9535 1.84405 62.7303 2.16591 44.0491 2.95539C41.6646 3.05863 39.1434 3.16187 36.5766 3.27118C34.025 3.39264 31.4279 3.52017 28.8915 3.64163C23.8187 3.86025 19.0041 4.12138 15.2375 4.27321L16.4981 4.18819L14.6755 4.30357C13.6731 4.3643 12.6707 4.41896 11.6683 4.47968L10.9241 4.52219C10.6507 4.54041 10.6203 4.54041 10.3621 4.54041L8.87369 4.52219C7.84091 4.51005 6.80813 4.49183 5.79053 4.47968L3.81609 4.44932L2.82887 4.43717H2.34285L2.22135 4.4311V4.47968V4.57685C2.23654 5.48778 2.25173 6.39872 2.26691 7.31572C2.26691 8.1052 2.23654 8.90682 2.23654 9.72059C2.17579 11.4271 2.19097 15.8664 2.29729 16.7348C2.75293 20.5789 2.79849 26.9919 3.01113 32.9555V32.9615ZM3.90722 36.9271C3.98316 36.6235 4.13504 37.334 4.0591 34.6255C4.04391 33.8603 3.98316 32.7065 3.93759 32.4453C3.78571 31.4737 3.81609 33.8117 3.78571 34.7713C3.72496 36.2166 3.83128 36.6235 3.90722 36.9271ZM2.50992 41.6701C2.5403 41.7369 2.57067 41.1053 2.58586 40.7956C2.50992 39.836 2.41879 38.7915 2.35804 37.9413C2.29729 37.2672 2.26691 37.7288 2.29729 38.9616C2.34285 40.4433 2.41879 41.4939 2.50992 41.6761V41.6701ZM5.45639 50.4454C5.41083 46.6559 5.36527 43.2672 5.09188 38.6336C5.15263 43.8016 5.30451 46.911 5.45639 50.4454ZM3.6794 69.1134C3.90722 66.909 3.77053 62.075 4.02872 62.7308C4.15023 63.0648 4.21098 61.2248 4.0591 59.7248C3.6794 55.9535 3.61865 48.9332 3.01113 43.0729C3.40601 52.7288 3.66421 60.1195 3.6794 69.1134ZM6.24617 69.745C6.24617 69.3685 6.24617 68.9981 6.24617 68.6155C6.21579 68.3361 6.20061 67.8321 6.17023 67.8138C6.09429 67.747 6.09429 68.3543 6.17023 69.3381C6.18542 69.5932 6.21579 69.6175 6.24617 69.745ZM4.13504 76.3037L4.1806 75.9637L4.11985 75.5932V76.3037H4.13504ZM5.15263 78.7876C5.15263 78.5507 5.15263 78.2714 5.16782 78.077C5.16782 77.7127 5.12226 77.2208 5.10707 77.0993C5.03113 76.6985 5.03113 77.1661 5.07669 78.2228C5.07669 78.4961 5.12226 78.5993 5.15263 78.7876ZM4.80331 85.6256L4.77293 84.7936V85.492L4.80331 85.6256ZM6.56512 95.7491C6.56512 99.988 6.717 102.107 7.06632 103.759C6.86888 96.3443 6.70181 89.488 6.51955 82.6256C6.56512 81.7511 6.51955 80.8341 6.4588 79.8868L6.39805 79.322L6.4588 80.0446L6.48918 81.3017L6.51955 82.5588C6.53474 86.9617 6.54993 91.4313 6.56512 95.7491ZM5.63865 98.1844C5.62346 98.0508 5.5779 98.2147 5.5779 98.4091C5.5779 98.7127 5.60827 99.156 5.62346 99.5447C5.65384 99.7147 5.68421 100.128 5.6994 100.006C5.72978 99.4658 5.6994 98.737 5.63865 98.1844ZM5.06151 111.278C5.03113 105.854 4.66662 99.3929 5.12226 98.2755C4.75775 94.6257 4.65143 98.403 4.45399 98.3666C4.10466 92.8038 4.65143 94.5528 4.49955 90.4536C4.08947 89.1236 4.15023 93.9516 4.22617 98.1783C4.34767 104.603 4.66662 108.247 5.06151 111.278ZM4.1806 111.69C4.13504 110.105 4.04391 109.899 3.96797 109.286C3.89203 108.709 3.83128 108.994 3.86165 109.656C3.90722 110.695 3.99835 111.514 4.07429 112.237C4.15023 112.899 4.1806 112.589 4.1806 111.69ZM5.28933 120.229C5.33489 120.022 5.38045 119.676 5.38045 119.081C5.38045 117.527 5.28933 117.114 5.22857 116.737C5.13745 116.227 5.09188 116.773 5.10707 118.219C5.15263 119.585 5.1982 120.697 5.28933 120.229ZM7.05113 126.527C7.05113 126.253 7.06632 126.016 7.08151 125.749C7.05113 124.541 7.02076 124.316 6.99038 125.184C6.99038 125.415 6.99038 125.846 6.99038 126.186C7.02076 126.308 7.03595 126.429 7.05113 126.527ZM5.03113 150.454C5.03113 149.84 5.06151 149.282 5.07669 148.601C5.06151 147.63 5.00075 147.199 4.95519 147.8C4.92481 148.201 4.89444 148.893 4.90963 149.555C4.92481 150.527 4.98557 150.867 5.03113 150.448V150.454ZM5.88166 150.569C6.04873 149.276 5.92722 146.433 5.82091 144.01C5.74497 142.225 5.62346 141.648 5.50196 141.101C5.36527 135.636 5.5779 135.344 5.83609 135.933L5.89685 136.529L5.83609 135.776C5.5779 133.012 5.33489 130.249 5.06151 127.31C4.90963 132.964 5.22857 137.063 5.48677 141.235C5.54752 142.438 5.59309 143.628 5.65384 144.848C5.71459 146.731 5.51715 147.806 5.71459 150.205C5.74497 150.678 5.83609 150.824 5.86647 150.569H5.88166ZM7.2182 134.852L7.26377 134.628L7.20301 134.227V134.852H7.2182ZM6.94482 152.464L6.88407 151.808C6.8385 150.083 6.79294 148.359 6.74737 146.634C6.77775 146.397 6.80813 146.191 6.85369 145.893C6.85369 145.814 6.85369 145.182 6.85369 145.182C6.76256 144.606 6.76256 145.808 6.73219 146.476C6.65625 148.316 6.73218 150.162 6.86888 152.008L6.92963 152.464H6.94482ZM8.06873 156.023C8.2358 146.719 7.88647 138.587 7.5979 130.547C7.5979 129.854 7.61309 129.217 7.62828 128.458C7.62828 127.456 7.62828 126.174 7.52196 125.518C7.52196 126.32 7.53715 127.103 7.55234 127.911C7.55234 128.725 7.58271 129.563 7.5979 130.389C7.43083 138.023 7.93204 146.318 8.08392 156.016L8.06873 156.023ZM6.27655 161.008C6.26136 160.614 6.24617 160.225 6.21579 159.867C6.21579 160.104 6.21579 160.31 6.18542 160.608C6.18542 160.99 6.21579 161.61 6.21579 161.853C6.27655 162.63 6.29173 162.29 6.26136 161.008H6.27655ZM8.20542 168.284L8.32692 165.235C8.37249 165.071 8.41805 165.071 8.46362 165.235L8.52437 165.776L8.47881 164.944C8.44843 164.725 8.41805 164.288 8.41805 164.324C8.38768 164.421 8.3573 164.737 8.32692 164.962C8.29655 166.122 8.05354 164.895 8.22061 168.272L8.20542 168.284ZM6.51955 170.634L6.47399 169.79V170.628L6.51955 170.634ZM7.64346 171.12L7.67384 170.658C7.67384 169.547 7.67384 168.442 7.65865 167.324C7.62828 166.395 7.53715 166.104 7.55234 166.857C7.58271 167.944 7.62828 169.225 7.65865 170.427V171.12H7.64346ZM6.13985 172.11L6.18542 171.788L6.12467 171.448V172.116L6.13985 172.11ZM9.01038 226.772C9.29896 226.839 9.51159 226.863 9.64828 226.936C9.72422 226.978 9.89129 226.984 9.96723 226.936C10.0432 226.893 9.96723 226.851 9.84572 226.826C9.6179 226.784 9.40527 226.741 8.9952 226.772H9.01038ZM8.737 226.76L8.70662 226.772H8.737V226.76ZM9.54196 226.541C9.54196 226.541 9.57234 226.583 9.64828 226.59C9.73941 226.59 9.84572 226.602 9.92166 226.565C9.89129 226.553 9.8761 226.529 9.84572 226.529C9.7546 226.529 9.6179 226.523 9.55715 226.541H9.54196ZM9.51159 226.316C9.51159 226.316 9.54196 226.347 9.60272 226.341C9.66347 226.341 9.73941 226.328 9.80016 226.322C9.76978 226.31 9.73941 226.292 9.70903 226.292C9.63309 226.286 9.55715 226.292 9.51159 226.316ZM8.22061 226.104L8.19023 226.122H8.2358L8.22061 226.104ZM9.19264 226.061C9.19264 226.061 9.16226 226.073 9.14708 226.079C9.14708 226.086 9.14708 226.098 9.14708 226.104C9.14708 226.104 9.17745 226.104 9.19264 226.104V226.055V226.061ZM9.42046 209.61L9.46602 210.363L9.60272 212.865L9.46602 210.162L9.40527 209.616L9.42046 209.61ZM9.17745 212.834L9.13189 212.701L9.16226 213.545V212.828L9.17745 212.834ZM8.90407 198.751C8.81294 198.806 8.78256 199.681 8.90407 200.907C8.96482 201.533 9.05595 201.375 9.1167 201.217C9.14708 201.162 9.1167 200.087 9.13189 199.207C9.05595 199.031 8.98001 198.715 8.91926 198.751H8.90407ZM8.69144 176.057L8.66106 175.189V175.917L8.69144 176.051V176.057ZM6.65625 179.676C6.65625 179.452 6.70181 179.288 6.70181 178.996C6.68662 178.48 6.67143 178.061 6.67143 177.776C6.65625 177.49 6.62587 177.332 6.59549 177.338C6.59549 177.338 6.58031 177.43 6.56512 177.551C6.56512 177.672 6.56512 177.83 6.56512 177.976C6.56512 179.002 6.61068 179.591 6.68662 179.676H6.65625ZM6.89925 186.885V186.156L6.86888 186.023L6.89925 186.885ZM8.14467 187.249C8.14467 187.213 8.12948 185.179 8.11429 184.177C8.05354 183.059 7.99279 182.057 7.93204 181L7.55234 178.201L7.49159 177.745L7.55234 178.389L7.62828 181.091L7.5979 181.735L7.64346 181.274L7.93204 181.255C7.94723 182.081 7.9776 182.919 7.99279 183.721C8.03835 184.978 7.96241 186.909 8.14467 187.249ZM8.9952 189.77L8.93444 188.968L8.87369 188.324L8.93444 189.077L8.9952 189.77ZM7.14226 226.243L7.17264 226.225H7.12707L7.14226 226.243ZM7.43083 226.231H7.4764L7.46121 226.213L7.43083 226.231ZM7.96241 226.571C7.96241 226.571 8.08392 226.529 8.02316 226.505C7.70422 226.365 7.88647 226.207 8.03835 226.092C8.06873 226.073 8.08392 226.049 8.11429 226.031V226C8.11429 226 8.14467 226 8.14467 225.982V225.654C8.14467 225.436 8.14467 225.223 8.14467 225.011C8.0991 223.316 8.05354 221.737 8.00798 220.231C7.88647 217.219 7.71941 214.48 7.52196 211.608C7.46121 210.679 7.4764 208.62 7.38527 208.17C7.38527 207.994 7.38527 207.849 7.38527 207.666C7.4764 204.994 7.50677 200.664 7.8561 207.636L7.82572 208.359L7.8561 207.776C7.94722 207.794 8.02317 208.158 8.09911 208.905C8.17505 209.652 8.2358 210.776 8.29655 212.306C8.32692 213.017 8.38768 216.8 8.47881 213.733C8.56993 210.6 8.2358 201.235 8.09911 202.225C7.64347 205.377 7.35489 196.268 6.88407 192.818C6.99038 196.079 7.08151 199.11 7.35489 208.079C7.35489 208.073 7.32452 208.079 7.30933 208.14C7.17264 208.662 7.18782 210.788 7.30933 213.229C7.58271 218.592 7.7194 224.057 7.56752 216.581C7.62828 219.114 7.68903 221.956 7.76497 225.15C7.76497 225.43 7.76497 225.709 7.78016 225.994V226.019V226.073C7.78016 226.11 7.78016 226.146 7.76497 226.189C7.76497 226.268 7.76497 226.389 7.76497 226.505C7.76497 226.541 7.84091 226.577 7.9776 226.553L7.96241 226.571ZM9.1167 226.498L9.14708 226.48L9.10151 226.492C8.94963 226.523 8.81294 226.529 8.75219 226.456L8.6155 226.334C8.6155 226.334 8.69144 226.31 8.70662 226.298C8.737 226.28 8.76738 226.249 8.67625 226.237L8.63068 226.286L8.58512 226.334C8.46362 226.334 8.2358 226.347 8.2358 226.353C8.2358 226.468 8.38768 226.565 8.66106 226.614C8.91926 226.656 9.01038 226.571 9.08632 226.505L9.1167 226.498ZM7.81053 226.972C8.08392 226.857 7.9776 226.79 7.79534 226.711C7.53715 226.802 7.70422 226.869 7.81053 226.972ZM7.88647 227.197V227.185H7.84091L7.88647 227.197ZM8.3573 227.215C8.72181 227.069 8.41805 226.966 8.19023 226.851C8.28136 226.972 8.34211 227.088 8.3573 227.215ZM9.05595 227.215C9.05595 227.215 9.10151 227.215 9.1167 227.215C9.17745 227.197 9.16226 227.185 9.10151 227.185C9.08632 227.185 9.05595 227.191 9.05595 227.197C9.05595 227.203 9.05595 227.209 9.05595 227.221V227.215ZM7.32452 227.324L7.24858 227.27L7.20301 227.258L7.23339 227.276L7.32452 227.324ZM9.90648 227.446C9.93685 227.403 9.81535 227.391 9.7546 227.367L9.60272 227.312C9.60272 227.312 9.60272 227.276 9.60272 227.264L9.64828 227.245L9.60272 227.258C9.60272 227.258 9.54196 227.294 9.60272 227.312L9.7546 227.367L9.86091 227.44H9.92166L9.90648 227.446ZM9.51159 227.652C9.58753 227.683 9.70903 227.713 9.8761 227.713C9.90648 227.713 9.96723 227.689 9.96723 227.677C9.96723 227.616 9.83054 227.579 9.66347 227.573C9.58753 227.573 9.54196 227.598 9.51159 227.646V227.652ZM7.84091 227.664C7.84091 227.664 7.90166 227.658 7.90166 227.652C7.91685 227.628 7.90166 227.622 7.82572 227.628C7.81053 227.628 7.79534 227.64 7.79534 227.652C7.79534 227.652 7.82572 227.664 7.84091 227.664ZM9.04076 227.725L9.16226 227.707C9.16226 227.707 9.07114 227.646 9.01038 227.622C9.01038 227.622 8.90407 227.634 8.90407 227.64C8.87369 227.683 8.94963 227.707 9.04076 227.725ZM8.29655 227.822V227.804L8.25099 227.822H8.29655ZM9.57234 227.956C9.55715 227.986 9.6179 228.023 9.69384 228.005C9.7546 227.992 9.76978 227.956 9.80016 227.932C9.7546 227.913 9.70903 227.889 9.70903 227.895C9.64828 227.913 9.58753 227.932 9.57234 227.956ZM8.82813 227.974C8.82813 227.974 8.98001 227.986 8.94963 227.944L8.82813 227.968C8.82813 227.968 8.75219 227.968 8.70662 227.974C8.70662 227.974 8.70662 227.98 8.69144 227.986C8.76738 227.998 8.79775 227.986 8.84332 227.968L8.82813 227.974ZM9.67866 228.241C9.67866 228.241 9.69384 228.223 9.70903 228.217C9.69384 228.211 9.67866 228.193 9.66347 228.193C9.64828 228.193 9.60272 228.193 9.60272 228.205C9.58753 228.229 9.60272 228.247 9.67866 228.241ZM9.43565 228.527L9.48121 228.515L9.52678 228.503H9.48121L9.43565 228.521V228.527ZM9.13189 228.715H9.28377L9.31414 228.666C9.25339 228.666 9.17745 228.666 9.14708 228.666C9.1167 228.673 9.14708 228.697 9.14708 228.709L9.13189 228.715ZM8.25099 228.928H8.31174L8.50918 228.958V228.909L8.31174 228.922H8.25099V228.928ZM7.82572 229.007C7.82572 229.007 7.93204 229.061 7.96241 229.061C8.03835 229.061 8.00798 229.025 8.00798 229.013C7.94722 228.97 7.90166 228.952 7.82572 228.958C7.82572 228.958 7.82572 228.994 7.82572 229.007Z" fill="black"/>
<path d="M7.00562 228.569C7.26381 228.551 7.37013 228.533 7.46126 228.43C7.18787 228.466 7.14231 228.478 7.00562 228.569Z" fill="black"/>
<path d="M6.26135 229.541C6.26135 229.541 6.29173 229.541 6.30692 229.541C6.30692 229.541 6.30692 229.529 6.3221 229.523H6.27654L6.26135 229.535V229.541Z" fill="black"/>
<path d="M503.288 9.89147C503.82 9.89147 503.957 9.89147 504.245 9.89147L502.134 9.84201H501.253C501.967 9.86674 503.061 9.88529 503.304 9.89147H503.288Z" fill="black"/>
<path d="M7.64347 228.132C7.64347 228.132 7.6131 228.12 7.59791 228.114C7.65866 228.059 7.47641 227.992 7.65866 227.944C7.78017 227.901 7.58272 227.883 7.38528 227.871C7.20302 227.859 6.99039 227.871 6.88407 227.895C6.73219 227.913 6.91445 227.926 7.02077 227.95C7.06633 227.962 7.08152 227.968 7.11189 227.98L7.15746 227.992H7.11189C6.96001 228.017 7.00558 228.017 7.56753 228.114C7.58272 228.114 7.6131 228.126 7.62829 228.132H7.65866H7.64347Z" fill="black"/>
<path d="M577.588 230.745L580.535 230.726L583.512 230.702C584.013 230.677 583.967 230.658 583.39 230.646C579.927 230.677 577.983 230.708 577.588 230.745Z" fill="black"/>
</g>
<defs>
<clipPath id="clip0_459_14489">
<rect width="677.78" height="244.914" fill="white" transform="translate(0.110229 0.617279)"/>
</clipPath>
</defs>
</svg>
