<svg width="29" height="29" viewBox="0 0 29 29" fill="none" xmlns="http://www.w3.org/2000/svg">
<path d="M19.6858 3.66052L9.31423 3.66052C6.4502 3.66052 4.12845 5.98227 4.12845 8.8463L4.12845 19.2179C4.12845 22.0819 6.4502 24.4036 9.31423 24.4036L19.6858 24.4036C22.5498 24.4036 24.8716 22.0819 24.8716 19.2179L24.8716 8.8463C24.8716 5.98227 22.5498 3.66052 19.6858 3.66052Z" stroke="black" stroke-width="2" stroke-linecap="round" stroke-linejoin="round"/>
<path d="M18.7245 13.4057C18.8562 14.2942 18.7044 15.2017 18.2907 15.999C17.877 16.7964 17.2224 17.4429 16.42 17.8468C15.6177 18.2507 14.7084 18.3912 13.8215 18.2485C12.9347 18.1058 12.1154 17.6871 11.4802 17.0519C10.845 16.4167 10.4263 15.5975 10.2836 14.7106C10.1409 13.8237 10.2815 12.9144 10.6853 12.1121C11.0892 11.3097 11.7358 10.6551 12.5331 10.2414C13.3304 9.82768 14.2379 9.67591 15.1264 9.80767C16.0328 9.94207 16.8719 10.3644 17.5198 11.0123C18.1677 11.6602 18.5901 12.4993 18.7245 13.4057Z" stroke="black" stroke-width="2" stroke-linecap="round" stroke-linejoin="round"/>
</svg>
