<svg width="205" height="18" viewBox="0 0 205 18" fill="none" xmlns="http://www.w3.org/2000/svg">
<path d="M201.976 17.26C200.923 17.26 200.096 17.06 199.496 16.66C198.91 16.26 198.583 15.6867 198.516 14.94H198.456C198.11 15.7133 197.616 16.3 196.976 16.7C196.35 17.1 195.596 17.3 194.716 17.3C193.65 17.3 192.796 17.0133 192.156 16.44C191.53 15.8667 191.216 15.0867 191.216 14.1C191.216 13.5267 191.33 13.02 191.556 12.58C191.783 12.1267 192.116 11.7467 192.556 11.44C192.916 11.1867 193.343 10.98 193.836 10.82C194.343 10.66 194.93 10.54 195.596 10.46L197.036 10.3C197.556 10.2333 197.936 10.1133 198.176 9.94C198.416 9.76666 198.536 9.52666 198.536 9.22C198.536 8.94 198.436 8.72 198.236 8.56C198.036 8.4 197.763 8.32 197.416 8.32C196.963 8.32 196.596 8.45333 196.316 8.72C196.05 8.97333 195.876 9.35333 195.796 9.86L191.856 9.32C192.216 7.97333 192.896 6.94 193.896 6.22C194.91 5.48666 196.163 5.12 197.656 5.12C199.296 5.12 200.556 5.52666 201.436 6.34C202.33 7.15333 202.776 8.33333 202.776 9.88V13.36C202.776 13.7733 202.843 14.06 202.976 14.22C203.123 14.38 203.383 14.46 203.756 14.46C203.876 14.46 203.963 14.46 204.016 14.46C204.07 14.46 204.123 14.4533 204.176 14.44V16.94C203.936 17.0333 203.61 17.1067 203.196 17.16C202.796 17.2267 202.39 17.26 201.976 17.26ZM195.616 13.42C195.616 13.7533 195.716 14.0133 195.916 14.2C196.13 14.3867 196.416 14.48 196.776 14.48C197.323 14.48 197.756 14.2733 198.076 13.86C198.41 13.4333 198.576 12.8733 198.576 12.18V11.84C198.496 11.88 198.403 11.92 198.296 11.96C198.203 11.9867 198.07 12.02 197.896 12.06L196.856 12.24C196.43 12.3067 196.116 12.44 195.916 12.64C195.716 12.8267 195.616 13.0867 195.616 13.42ZM199.076 4.44H196.376L197.816 0.619995H201.456L199.076 4.44Z" fill="#000"/>
<path d="M186.366 5.40002H190.726L186.826 17H181.986L178.006 5.40002H182.486L184.486 13.1L186.366 5.40002Z" fill="#000"/>
<path d="M171.208 17.3C169.302 17.3 167.795 16.7733 166.688 15.72C165.582 14.6533 165.028 13.1666 165.028 11.26C165.042 9.40664 165.628 7.91998 166.788 6.79998C167.948 5.66664 169.435 5.09998 171.248 5.09998C173.075 5.09998 174.555 5.64664 175.688 6.73998C176.822 7.83331 177.388 9.29998 177.388 11.14C177.388 13.0733 176.828 14.5866 175.708 15.68C174.602 16.76 173.102 17.3 171.208 17.3ZM171.208 13.88C171.795 13.88 172.242 13.66 172.548 13.22C172.855 12.7666 173.008 12.1 173.008 11.22C173.008 10.34 172.855 9.67331 172.548 9.21998C172.242 8.75331 171.795 8.51998 171.208 8.51998C170.622 8.51998 170.175 8.74664 169.868 9.19998C169.562 9.65331 169.408 10.3266 169.408 11.22C169.408 12.0733 169.562 12.7333 169.868 13.2C170.188 13.6533 170.635 13.88 171.208 13.88Z" fill="#000"/>
<path d="M164.708 17H160.028L157.688 12.38L156.508 13.78V17H152.188V0.699951H156.508V9.67995L159.888 5.39995H164.528L160.868 9.97995L164.708 17Z" fill="#000"/>
<path d="M148.91 17.26C147.857 17.26 147.03 17.06 146.43 16.66C145.843 16.26 145.517 15.6867 145.45 14.94H145.39C145.043 15.7133 144.55 16.3 143.91 16.7C143.283 17.1 142.53 17.3 141.65 17.3C140.583 17.3 139.73 17.0133 139.09 16.44C138.463 15.8667 138.15 15.0867 138.15 14.1C138.15 13.5267 138.263 13.02 138.49 12.58C138.717 12.1267 139.05 11.7467 139.49 11.44C139.85 11.1867 140.277 10.98 140.77 10.82C141.277 10.66 141.863 10.54 142.53 10.46L143.97 10.3C144.49 10.2333 144.87 10.1133 145.11 9.94C145.35 9.76666 145.47 9.52666 145.47 9.22C145.47 8.94 145.37 8.72 145.17 8.56C144.97 8.4 144.697 8.32 144.35 8.32C143.897 8.32 143.53 8.45333 143.25 8.72C142.983 8.97333 142.81 9.35333 142.73 9.86L138.79 9.32C139.15 7.97333 139.83 6.94 140.83 6.22C141.843 5.48666 143.097 5.12 144.59 5.12C146.23 5.12 147.49 5.52666 148.37 6.34C149.263 7.15333 149.71 8.33333 149.71 9.88V13.36C149.71 13.7733 149.777 14.06 149.91 14.22C150.057 14.38 150.317 14.46 150.69 14.46C150.81 14.46 150.897 14.46 150.95 14.46C151.003 14.46 151.057 14.4533 151.11 14.44V16.94C150.87 17.0333 150.543 17.1067 150.13 17.16C149.73 17.2267 149.323 17.26 148.91 17.26ZM142.55 13.42C142.55 13.7533 142.65 14.0133 142.85 14.2C143.063 14.3867 143.35 14.48 143.71 14.48C144.257 14.48 144.69 14.2733 145.01 13.86C145.343 13.4333 145.51 12.8733 145.51 12.18V11.84C145.43 11.88 145.337 11.92 145.23 11.96C145.137 11.9867 145.003 12.02 144.83 12.06L143.79 12.24C143.363 12.3067 143.05 12.44 142.85 12.64C142.65 12.8267 142.55 13.0867 142.55 13.42ZM146.01 4.44H143.31L144.75 0.619995H148.39L146.01 4.44Z" fill="#000"/>
<path d="M133.299 5.40002H137.659L133.759 17H128.919L124.939 5.40002H129.419L131.419 13.1L133.299 5.40002Z" fill="#000"/>
<path d="M118.142 17.3C116.235 17.3 114.729 16.7733 113.622 15.72C112.515 14.6533 111.962 13.1666 111.962 11.26C111.975 9.40664 112.562 7.91998 113.722 6.79998C114.882 5.66664 116.369 5.09998 118.182 5.09998C120.009 5.09998 121.489 5.64664 122.622 6.73998C123.755 7.83331 124.322 9.29998 124.322 11.14C124.322 13.0733 123.762 14.5866 122.642 15.68C121.535 16.76 120.035 17.3 118.142 17.3ZM118.142 13.88C118.729 13.88 119.175 13.66 119.482 13.22C119.789 12.7666 119.942 12.1 119.942 11.22C119.942 10.34 119.789 9.67331 119.482 9.21998C119.175 8.75331 118.729 8.51998 118.142 8.51998C117.555 8.51998 117.109 8.74664 116.802 9.19998C116.495 9.65331 116.342 10.3266 116.342 11.22C116.342 12.0733 116.495 12.7333 116.802 13.2C117.122 13.6533 117.569 13.88 118.142 13.88Z" fill="#000"/>
<path d="M106.35 1.52002H110.25V17H105.95L100.33 7.68002V17H96.4295V1.52002H101.07L106.35 10.44V1.52002Z" fill="#000"/>
<path d="M89.4178 17.26C88.3645 17.26 87.5378 17.06 86.9378 16.66C86.3511 16.26 86.0245 15.6867 85.9578 14.94H85.8978C85.5511 15.7133 85.0578 16.3 84.4178 16.7C83.7911 17.1 83.0378 17.3 82.1578 17.3C81.0911 17.3 80.2378 17.0133 79.5978 16.44C78.9711 15.8667 78.6578 15.0867 78.6578 14.1C78.6578 13.5267 78.7711 13.02 78.9978 12.58C79.2245 12.1267 79.5578 11.7467 79.9978 11.44C80.3578 11.1867 80.7845 10.98 81.2778 10.82C81.7845 10.66 82.3711 10.54 83.0378 10.46L84.4778 10.3C84.9978 10.2333 85.3778 10.1133 85.6178 9.94C85.8578 9.76666 85.9778 9.52666 85.9778 9.22C85.9778 8.94 85.8778 8.72 85.6778 8.56C85.4778 8.4 85.2045 8.32 84.8578 8.32C84.4045 8.32 84.0378 8.45333 83.7578 8.72C83.4911 8.97333 83.3178 9.35333 83.2378 9.86L79.2978 9.32C79.6578 7.97333 80.3378 6.94 81.3378 6.22C82.3511 5.48666 83.6045 5.12 85.0978 5.12C86.7378 5.12 87.9978 5.52666 88.8778 6.34C89.7711 7.15333 90.2178 8.33333 90.2178 9.88V13.36C90.2178 13.7733 90.2845 14.06 90.4178 14.22C90.5645 14.38 90.8245 14.46 91.1978 14.46C91.3178 14.46 91.4045 14.46 91.4578 14.46C91.5111 14.46 91.5645 14.4533 91.6178 14.44V16.94C91.3778 17.0333 91.0511 17.1067 90.6378 17.16C90.2378 17.2267 89.8311 17.26 89.4178 17.26ZM83.0578 13.42C83.0578 13.7533 83.1578 14.0133 83.3578 14.2C83.5711 14.3867 83.8578 14.48 84.2178 14.48C84.7645 14.48 85.1978 14.2733 85.5178 13.86C85.8511 13.4333 86.0178 12.8733 86.0178 12.18V11.84C85.9378 11.88 85.8445 11.92 85.7378 11.96C85.6445 11.9867 85.5111 12.02 85.3378 12.06L84.2978 12.24C83.8711 12.3067 83.5578 12.44 83.3578 12.64C83.1578 12.8267 83.0578 13.0867 83.0578 13.42Z" fill="#000"/>
<path d="M75.0814 5.14001C76.0414 5.14001 76.7681 5.48001 77.2614 6.16001C77.7547 6.84001 78.0014 7.84002 78.0014 9.16002C78.0014 9.34668 77.9881 9.56001 77.9614 9.80001C77.9481 10.04 77.9214 10.2867 77.8814 10.54L73.9614 11C74.0147 10.8133 74.0547 10.5867 74.0814 10.32C74.1081 10.0533 74.1214 9.80002 74.1214 9.56002C74.1214 9.06668 74.0347 8.70002 73.8614 8.46002C73.6881 8.20668 73.4347 8.08002 73.1014 8.08002C72.6481 8.08002 72.3081 8.29335 72.0814 8.72002C71.8681 9.14668 71.7614 9.79335 71.7614 10.66V17H67.4614V5.40001H71.7014V7.56002H71.7614C72.1081 6.76002 72.5614 6.16002 73.1214 5.76002C73.6814 5.34668 74.3347 5.14001 75.0814 5.14001Z" fill="#000"/>
<path d="M59.7239 17.3C57.8172 17.3 56.3106 16.7733 55.2039 15.72C54.0972 14.6533 53.5439 13.1666 53.5439 11.26C53.5572 9.40664 54.1439 7.91998 55.3039 6.79998C56.4639 5.66664 57.9506 5.09998 59.7639 5.09998C61.5906 5.09998 63.0706 5.64664 64.2039 6.73998C65.3372 7.83331 65.9039 9.29998 65.9039 11.14C65.9039 13.0733 65.3439 14.5866 64.2239 15.68C63.1172 16.76 61.6172 17.3 59.7239 17.3ZM59.7239 13.88C60.3106 13.88 60.7572 13.66 61.0639 13.22C61.3706 12.7666 61.5239 12.1 61.5239 11.22C61.5239 10.34 61.3706 9.67331 61.0639 9.21998C60.7572 8.75331 60.3106 8.51998 59.7239 8.51998C59.1372 8.51998 58.6906 8.74664 58.3839 9.19998C58.0772 9.65331 57.9239 10.3266 57.9239 11.22C57.9239 12.0733 58.0772 12.7333 58.3839 13.2C58.7039 13.6533 59.1506 13.88 59.7239 13.88Z" fill="#000"/>
<path d="M48.173 5.11995C49.493 5.11995 50.5396 5.65995 51.313 6.73995C52.0863 7.80662 52.473 9.28662 52.473 11.18C52.473 13.0866 52.0796 14.5866 51.293 15.68C50.5063 16.76 49.453 17.3 48.133 17.3C47.2396 17.3 46.4996 17.08 45.913 16.64C45.3263 16.1866 44.8796 15.5066 44.573 14.6H44.533V17H40.313V0.699951H44.633V7.65995H44.673C45.0063 6.81995 45.4663 6.18662 46.053 5.75995C46.653 5.33328 47.3596 5.11995 48.173 5.11995ZM48.093 11.18C48.093 10.34 47.9396 9.68662 47.633 9.21995C47.3263 8.75329 46.8996 8.51995 46.353 8.51995C45.793 8.51995 45.353 8.75995 45.033 9.23995C44.7263 9.70662 44.573 10.3666 44.573 11.22C44.573 12.0733 44.7263 12.7333 45.033 13.2C45.3396 13.6533 45.773 13.88 46.333 13.88C46.9063 13.88 47.3396 13.6533 47.633 13.2C47.9396 12.7333 48.093 12.06 48.093 11.18Z" fill="#000"/>
<path d="M36.1166 5.14001C37.0766 5.14001 37.8032 5.48001 38.2966 6.16001C38.7899 6.84001 39.0366 7.84002 39.0366 9.16002C39.0366 9.34668 39.0232 9.56001 38.9966 9.80001C38.9832 10.04 38.9566 10.2867 38.9166 10.54L34.9966 11C35.0499 10.8133 35.0899 10.5867 35.1166 10.32C35.1432 10.0533 35.1566 9.80002 35.1566 9.56002C35.1566 9.06668 35.0699 8.70002 34.8966 8.46002C34.7232 8.20668 34.4699 8.08002 34.1366 8.08002C33.6832 8.08002 33.3432 8.29335 33.1166 8.72002C32.9032 9.14668 32.7966 9.79335 32.7966 10.66V17H28.4966V5.40001H32.7366V7.56002H32.7966C33.1432 6.76002 33.5966 6.16002 34.1566 5.76002C34.7166 5.34668 35.3699 5.14001 36.1166 5.14001Z" fill="#000"/>
<path d="M25.2186 17.26C24.1653 17.26 23.3386 17.06 22.7386 16.66C22.1519 16.26 21.8253 15.6867 21.7586 14.94H21.6986C21.3519 15.7133 20.8586 16.3 20.2186 16.7C19.5919 17.1 18.8386 17.3 17.9586 17.3C16.8919 17.3 16.0386 17.0133 15.3986 16.44C14.7719 15.8667 14.4586 15.0867 14.4586 14.1C14.4586 13.5267 14.5719 13.02 14.7986 12.58C15.0253 12.1267 15.3586 11.7467 15.7986 11.44C16.1586 11.1867 16.5853 10.98 17.0786 10.82C17.5853 10.66 18.1719 10.54 18.8386 10.46L20.2786 10.3C20.7986 10.2333 21.1786 10.1133 21.4186 9.94C21.6586 9.76666 21.7786 9.52666 21.7786 9.22C21.7786 8.94 21.6786 8.72 21.4786 8.56C21.2786 8.4 21.0053 8.32 20.6586 8.32C20.2053 8.32 19.8386 8.45333 19.5586 8.72C19.2919 8.97333 19.1186 9.35333 19.0386 9.86L15.0986 9.32C15.4586 7.97333 16.1386 6.94 17.1386 6.22C18.1519 5.48666 19.4053 5.12 20.8986 5.12C22.5386 5.12 23.7986 5.52666 24.6786 6.34C25.5719 7.15333 26.0186 8.33333 26.0186 9.88V13.36C26.0186 13.7733 26.0853 14.06 26.2186 14.22C26.3653 14.38 26.6253 14.46 26.9986 14.46C27.1186 14.46 27.2053 14.46 27.2586 14.46C27.3119 14.46 27.3653 14.4533 27.4186 14.44V16.94C27.1786 17.0333 26.8519 17.1067 26.4386 17.16C26.0386 17.2267 25.6319 17.26 25.2186 17.26ZM18.8586 13.42C18.8586 13.7533 18.9586 14.0133 19.1586 14.2C19.3719 14.3867 19.6586 14.48 20.0186 14.48C20.5653 14.48 20.9986 14.2733 21.3186 13.86C21.6519 13.4333 21.8186 12.8733 21.8186 12.18V11.84C21.7386 11.88 21.6453 11.92 21.5386 11.96C21.4453 11.9867 21.3119 12.02 21.1386 12.06L20.0986 12.24C19.6719 12.3067 19.3586 12.44 19.1586 12.64C18.9586 12.8267 18.8586 13.0867 18.8586 13.42Z" fill="#000"/>
<path d="M7.58 17H0.160004V1.52002H7.28C9.22667 1.52002 10.6867 1.83335 11.66 2.46002C12.6333 3.08669 13.12 4.03335 13.12 5.30002C13.12 6.15335 12.8667 6.89335 12.36 7.52002C11.8533 8.13335 11.1267 8.58669 10.18 8.88002V8.92002C11.3267 9.14669 12.2 9.58002 12.8 10.22C13.4133 10.8467 13.72 11.6334 13.72 12.58C13.72 14.0334 13.2 15.1334 12.16 15.88C11.12 16.6267 9.59334 17 7.58 17ZM8.7 6.24002C8.7 5.77335 8.53334 5.43335 8.2 5.22002C7.88 4.99335 7.36667 4.88002 6.66 4.88002H4.62V7.70002H6.68C7.37334 7.70002 7.88 7.58669 8.2 7.36002C8.53334 7.12002 8.7 6.74669 8.7 6.24002ZM9.18 12.12C9.18 11.6267 9 11.2667 8.64 11.04C8.29334 10.8 7.72667 10.68 6.94 10.68H4.62V13.64H7.02C7.75334 13.64 8.29334 13.52 8.64 13.28C9 13.0267 9.18 12.64 9.18 12.12Z" fill="#000"/>
</svg>
