<svg width="142" height="30" viewBox="0 0 142 30" fill="none" xmlns="http://www.w3.org/2000/svg">
<path d="M130.518 28.9058C131.45 28.9674 132.538 29.0372 133.841 29.123C133.1 29.072 132.037 28.9996 130.554 28.8977C130.535 28.8977 130.518 28.9031 130.516 28.9058H130.518Z" fill="#FF5700"/>
<path d="M141.215 29.6969C141.071 29.7077 140.928 29.7291 140.788 29.7425C140.653 29.7559 140.592 29.595 140.46 29.6353C140.35 29.6514 140.234 29.6621 140.118 29.6862C140.057 29.6996 140.019 29.7559 140.019 29.8284C140.019 29.8927 140.06 29.9222 140.11 29.9356C140.237 29.9678 140.372 30.0241 140.487 29.9115C140.559 29.8418 140.603 29.8364 140.644 29.9276C140.669 29.9866 140.713 30.0134 140.76 29.9893C140.92 29.9008 141.099 29.9169 141.264 29.8659C141.311 29.8498 141.355 29.8015 141.339 29.7425C141.322 29.6782 141.264 29.6943 141.215 29.6996V29.6969Z" fill="#FF5700"/>
<path d="M140.892 29.5629C140.804 29.5119 140.719 29.4904 140.564 29.5521C140.722 29.595 140.807 29.6031 140.892 29.5629Z" fill="#FF5700"/>
<path d="M141.796 28.9734C141.796 28.9734 141.788 28.9596 141.782 28.9568C141.777 28.9568 141.769 28.9623 141.763 28.9651L141.777 28.9817L141.796 28.9706V28.9734Z" fill="#FF5700"/>
<path d="M40.9363 24.2124C41.0217 24.2043 41.041 24.1963 41.0851 24.1855H40.7517L40.6139 24.2124C40.7242 24.2124 40.9005 24.2124 40.9363 24.2124Z" fill="#FF5700"/>
<path d="M139.983 29.6352C139.983 29.6352 139.969 29.6459 139.961 29.6486C139.854 29.6191 139.738 29.6862 139.63 29.5977C139.559 29.5386 139.509 29.6218 139.495 29.7049C139.484 29.78 139.468 29.8658 139.52 29.9195C139.586 29.9865 139.641 29.9141 139.697 29.8739C139.721 29.8578 139.752 29.8524 139.779 29.8417L139.796 29.8256L139.779 29.8444C139.911 29.9195 139.933 29.898 139.978 29.6701C139.983 29.662 139.991 29.6567 139.994 29.6486C139.994 29.6486 139.986 29.6325 139.983 29.6352Z" fill="#FF5700"/>
<path d="M91.7809 21.7048L92.2438 21.7182L92.7095 21.7236C92.7866 21.7048 92.7811 21.6861 92.6929 21.6646C92.1501 21.6592 91.8443 21.6726 91.7837 21.7048H91.7809Z" fill="#FF5700"/>
<path d="M14.3637 6.44198C16.3696 6.44198 17.9594 7.19024 19.1359 8.68675C20.3097 10.1833 20.8994 12.2054 20.8994 14.7533C20.8994 17.3011 20.2987 19.3045 19.0946 20.8198C17.8905 22.3351 16.2952 23.094 14.3086 23.094C13.0273 23.094 11.9334 22.8044 11.0269 22.2305C10.1204 21.6539 9.4178 20.809 8.92183 19.6934H8.83642V22.7347H5.25446V0H8.89428V9.9848H9.01001C9.52526 8.83158 10.2416 7.95459 11.1592 7.34847C12.0767 6.74504 13.1458 6.44198 14.3692 6.44198H14.3637ZM17.1714 14.7559C17.1714 13.1012 16.8022 11.7897 16.0692 10.8242C15.3335 9.85875 14.3444 9.37332 13.1045 9.37332C11.7874 9.37332 10.7486 9.85339 9.99642 10.8108C9.24146 11.7683 8.86397 13.0932 8.86397 14.7854C8.86397 16.4777 9.24697 17.7248 10.0102 18.6903C10.7734 19.6585 11.8067 20.1412 13.1045 20.1412C14.4022 20.1412 15.3831 19.6665 16.0995 18.7198C16.8159 17.7704 17.1741 16.4509 17.1741 14.7586L17.1714 14.7559Z" fill="black"/>
<path d="M37.5748 22.9841C36.3321 22.9841 35.3788 22.7106 34.7092 22.1608C34.0397 21.6137 33.6787 20.7984 33.6208 19.7202H33.563C33.0284 20.8171 32.2873 21.6539 31.3422 22.2305C30.3971 22.8071 29.2839 23.0941 28.0027 23.0941C26.4735 23.0941 25.2611 22.6998 24.3629 21.9087C23.4646 21.1175 23.0155 20.0447 23.0155 18.6877C23.0155 17.9072 23.1588 17.2234 23.4453 16.6387C23.7319 16.054 24.17 15.5472 24.7624 15.118C25.2198 14.7828 25.7846 14.5039 26.4542 14.2813C27.1237 14.0587 27.9145 13.8817 28.832 13.7503L31.1245 13.4445C32.042 13.3158 32.6951 13.1012 33.0863 12.8035C33.4776 12.5059 33.6732 12.0687 33.6732 11.4921C33.6732 10.8055 33.4252 10.2638 32.9293 9.87489C32.4333 9.48332 31.7445 9.29023 30.8655 9.29023C29.835 9.29023 29.0084 9.54501 28.3857 10.0573C27.7657 10.5695 27.3304 11.3553 27.0824 12.4147L23.7016 11.83C24.1782 10.1002 25.0434 8.77262 26.2944 7.84199C27.5453 6.91136 29.0883 6.44739 30.9234 6.44739C32.9485 6.44739 34.4998 6.95963 35.5799 7.98145C36.66 9.00326 37.2001 10.4837 37.2001 12.4173V18.4705C37.2001 19.1597 37.3296 19.6425 37.5858 19.9214C37.8448 20.2003 38.3077 20.3398 38.9745 20.3398C39.1068 20.3398 39.228 20.3344 39.3327 20.3263C39.4374 20.3183 39.5559 20.3022 39.6909 20.2834V22.7106C39.4815 22.7857 39.1756 22.85 38.7734 22.9064C38.3711 22.9627 37.9716 22.9895 37.5693 22.9895L37.5748 22.9841ZM26.771 18.213C26.771 18.9559 27.0052 19.5325 27.4737 19.9428C27.9421 20.3532 28.6061 20.557 29.4658 20.557C30.7443 20.557 31.7665 20.0957 32.5325 19.1758C33.2957 18.2559 33.6787 17.0329 33.6787 15.5069V14.6433C33.4886 14.7935 33.2296 14.9223 32.9045 15.0349C32.5793 15.1475 32.1412 15.2495 31.5874 15.3406L29.6091 15.6759C28.6144 15.8422 27.8952 16.1264 27.4461 16.5261C26.997 16.9257 26.7738 17.4889 26.7738 18.213H26.771Z" fill="black"/>
<path d="M50.1833 6.49829C51.4618 6.49829 52.4509 6.90863 53.1481 7.72661C53.8452 8.5446 54.1951 9.70587 54.1951 11.2131C54.1951 11.5671 54.1703 11.956 54.1234 12.3851C54.0766 12.8142 54.0132 13.2031 53.9361 13.5571L50.5553 13.9192C50.6324 13.6027 50.693 13.2406 50.7426 12.8303C50.7895 12.4227 50.8143 12.0579 50.8143 11.7415C50.8143 10.8484 50.6324 10.1645 50.2687 9.69246C49.905 9.21776 49.3815 8.98175 48.6926 8.98175C47.7172 8.98175 46.9485 9.46986 46.3864 10.4461C45.8216 11.4223 45.5405 12.774 45.5405 14.5038V22.732H41.9007V6.80671H45.5102V9.87483H45.5681C46.0447 8.77793 46.6757 7.94117 47.4582 7.36455C48.2408 6.78794 49.15 6.50097 50.1805 6.50097L50.1833 6.49829Z" fill="black"/>
<path d="M70.3856 22.9841C69.1429 22.9841 68.1895 22.7106 67.52 22.1608C66.8504 21.6137 66.4895 20.7984 66.4316 19.7202H66.3738C65.8392 20.8171 65.098 21.6539 64.1529 22.2305C63.2079 22.8071 62.0947 23.0941 60.8135 23.0941C59.2842 23.0941 58.0719 22.6998 57.1736 21.9087C56.2754 21.1175 55.8263 20.0447 55.8263 18.6877C55.8263 17.9072 55.9695 17.2234 56.2561 16.6387C56.5427 16.054 56.9808 15.5472 57.5732 15.118C58.0305 14.7828 58.5954 14.5039 59.2649 14.2813C59.9345 14.0587 60.7253 13.8817 61.6428 13.7503L63.9353 13.4445C64.8528 13.3158 65.5058 13.1012 65.8971 12.8035C66.2883 12.5059 66.484 12.0687 66.484 11.4921C66.484 10.8055 66.236 10.2638 65.74 9.87489C65.2441 9.48332 64.5552 9.29023 63.6763 9.29023C62.6458 9.29023 61.8192 9.54501 61.1965 10.0573C60.5765 10.5695 60.1411 11.3553 59.8932 12.4147L56.5123 11.83C56.989 10.1002 57.8542 8.77262 59.1051 7.84199C60.3561 6.91136 61.8991 6.44739 63.7341 6.44739C65.7593 6.44739 67.3106 6.95963 68.3907 7.98145C69.4708 9.00326 70.0108 10.4837 70.0108 12.4173V18.4705C70.0108 19.1597 70.1403 19.6425 70.3966 19.9214C70.6556 20.2003 71.1185 20.3398 71.7853 20.3398C71.9175 20.3398 72.0388 20.3344 72.1435 20.3263C72.2482 20.3183 72.3667 20.3022 72.5017 20.2834V22.7106C72.2923 22.7857 71.9864 22.85 71.5841 22.9064C71.1819 22.9627 70.7823 22.9895 70.38 22.9895L70.3856 22.9841ZM59.5818 18.213C59.5818 18.9559 59.816 19.5325 60.2844 19.9428C60.7528 20.3532 61.4169 20.557 62.2766 20.557C63.555 20.557 64.5773 20.0957 65.3433 19.1758C66.1065 18.2559 66.4895 17.0329 66.4895 15.5069V14.6433C66.2994 14.7935 66.0404 14.9223 65.7152 15.0349C65.3901 15.1475 64.952 15.2495 64.3982 15.3406L62.4198 15.6759C61.4251 15.8422 60.706 16.1264 60.2569 16.5261C59.8078 16.9257 59.5846 17.4889 59.5846 18.213H59.5818Z" fill="black"/>
<path d="M89.3452 20.3611C90.3564 20.3611 91.1444 20.1707 91.7092 19.7899C92.2713 19.409 92.5551 18.8646 92.5551 18.1593C92.5551 17.7865 92.4394 17.4888 92.2107 17.2662C91.982 17.0436 91.599 16.8585 91.0645 16.7083C90.7779 16.6332 90.3288 16.5447 89.7171 16.4428C89.1054 16.3409 88.7803 16.29 88.7417 16.29C87.0224 15.9923 85.8128 15.7241 85.1157 15.48C84.4186 15.2386 83.8703 14.9329 83.468 14.5601C83.1043 14.2061 82.8287 13.7797 82.6359 13.2782C82.4457 12.7766 82.3493 12.2081 82.3493 11.5778C82.3493 10.0545 82.9362 8.8208 84.1127 7.88213C85.2865 6.94346 86.8295 6.47412 88.7417 6.47412C90.6539 6.47412 92.1088 6.90323 93.3404 7.75608C94.5721 8.61161 95.3518 9.79166 95.677 11.2989L92.4973 11.8836C92.3072 10.9905 91.8911 10.3066 91.2519 9.83457C90.6126 9.35987 89.775 9.12386 88.7445 9.12386C87.8269 9.12386 87.105 9.31428 86.5815 9.69511C86.0553 10.0759 85.7935 10.6123 85.7935 11.2989C85.7935 11.838 86.0029 12.2483 86.4245 12.5272C86.8433 12.8061 87.8848 13.077 89.549 13.3372C91.7451 13.71 93.1062 14.0023 93.6325 14.2168C94.1588 14.4314 94.6024 14.7049 94.9661 15.0402C95.3105 15.3754 95.5722 15.7804 95.7541 16.2524C95.936 16.7271 96.0269 17.2796 96.0269 17.9125C96.0269 19.4734 95.4097 20.7259 94.178 21.6645C92.9464 22.6032 91.307 23.0725 89.2625 23.0725C87.0858 23.0725 85.3416 22.6542 84.0328 21.8174C82.724 20.9806 81.8892 19.7523 81.5255 18.1351L84.9063 17.4378C85.135 18.4248 85.6172 19.1569 86.3528 19.6424C87.0885 20.1251 88.0859 20.3665 89.3479 20.3665L89.3452 20.3611Z" fill="black"/>
<path d="M109.691 6.80676H113.388L107.486 22.732H103.273L97.1704 6.80676H100.953L105.453 19.4413L109.693 6.80676H109.691Z" fill="black"/>
<path d="M121.9 28.254C119.244 28.254 117.251 27.9617 115.926 27.3744C114.598 26.7897 113.934 25.8993 113.934 24.7112C113.934 23.9871 114.221 23.3756 114.794 22.8848C115.367 22.3913 116.188 22.0534 117.257 21.8657V21.8094C116.513 21.6243 115.948 21.3213 115.565 20.9029C115.182 20.4845 114.992 19.9776 114.992 19.3822C114.992 18.7305 115.215 18.1593 115.664 17.6658C116.113 17.1723 116.777 16.7781 117.656 16.4804V16.4241C116.893 15.9601 116.315 15.3647 115.923 14.6379C115.532 13.9138 115.336 13.0958 115.336 12.1839C115.336 10.4729 115.956 9.08632 117.199 8.02696C118.442 6.9676 120.054 6.43658 122.043 6.43658C122.903 6.43658 123.715 6.54922 124.479 6.77182C125.242 6.99442 125.92 7.31088 126.512 7.72122L128.49 4.48682L130.954 6.43926L127.543 8.69744C127.926 9.16141 128.212 9.67366 128.402 10.2315C128.592 10.7893 128.689 11.3847 128.689 12.0177C128.689 13.6912 128.096 15.0214 126.912 16.0057C125.727 16.9926 124.132 17.4834 122.126 17.4834C121.514 17.4834 120.927 17.4378 120.362 17.344C119.797 17.2501 119.268 17.1214 118.772 16.9524C118.467 17.0838 118.232 17.2447 118.07 17.4405C117.907 17.6363 117.827 17.8643 117.827 18.1244C117.827 18.5347 118.015 18.8324 118.387 19.0175C118.759 19.2025 119.337 19.2964 120.12 19.2964H126.223C127.865 19.2964 129.097 19.5887 129.921 20.1761C130.742 20.7607 131.152 21.6404 131.152 22.8124C131.152 24.561 130.35 25.9047 128.744 26.8433C127.14 27.782 124.856 28.2513 121.894 28.2513L121.9 28.254ZM127.774 23.5124C127.774 23.0672 127.606 22.7507 127.273 22.563C126.939 22.3779 126.369 22.2841 125.567 22.2841H120.381C119.312 22.2841 118.524 22.4182 118.017 22.689C117.51 22.9599 117.257 23.3729 117.257 23.9308C117.257 24.5637 117.673 25.0357 118.502 25.3522C119.334 25.6687 120.569 25.8269 122.214 25.8269C123.952 25.8269 125.314 25.6231 126.297 25.2127C127.281 24.8024 127.774 24.2365 127.774 23.5124ZM118.918 12.1062C118.918 12.9805 119.199 13.6724 119.764 14.1847C120.326 14.6969 121.106 14.9517 122.101 14.9517C123.096 14.9517 123.82 14.6862 124.335 14.1578C124.851 13.6268 125.11 12.8598 125.11 11.8567C125.11 10.9824 124.831 10.2851 124.278 9.76484C123.724 9.24455 122.977 8.9844 122.043 8.9844C121.109 8.9844 120.329 9.26332 119.764 9.82116C119.199 10.379 118.918 11.1407 118.918 12.1088V12.1062Z" fill="black"/>
<path d="M75.0421 12.5756C75.4802 12.1679 76.0037 11.9641 76.6099 11.9641C77.2161 11.9641 77.7396 12.1733 78.1777 12.589C78.6158 13.0074 78.8362 13.5089 78.8362 14.0989C78.8362 14.6889 78.6158 15.1985 78.1777 15.6249C77.7396 16.0514 77.2161 16.2659 76.6099 16.2659C76.0037 16.2659 75.4802 16.0514 75.0421 15.6249C74.604 15.1985 74.3836 14.6889 74.3836 14.0989C74.3836 13.5089 74.604 12.9806 75.0421 12.5729V12.5756Z" fill="black"/>
</svg>
