<svg width="224" height="21" viewBox="0 0 224 21" fill="none" xmlns="http://www.w3.org/2000/svg">
<path d="M7.58 17H0.16V1.52H7.28C9.22667 1.52 10.6867 1.83333 11.66 2.46C12.6333 3.08667 13.12 4.03333 13.12 5.3C13.12 6.15333 12.8667 6.89333 12.36 7.52C11.8533 8.13333 11.1267 8.58667 10.18 8.88V8.92C11.3267 9.14667 12.2 9.58 12.8 10.22C13.4133 10.8467 13.72 11.6333 13.72 12.58C13.72 14.0333 13.2 15.1333 12.16 15.88C11.12 16.6267 9.59333 17 7.58 17ZM8.7 6.24C8.7 5.77333 8.53333 5.43333 8.2 5.22C7.88 4.99333 7.36667 4.88 6.66 4.88H4.62V7.7H6.68C7.37333 7.7 7.88 7.58667 8.2 7.36C8.53333 7.12 8.7 6.74667 8.7 6.24ZM9.18 12.12C9.18 11.6267 9 11.2667 8.64 11.04C8.29333 10.8 7.72667 10.68 6.94 10.68H4.62V13.64H7.02C7.75333 13.64 8.29333 13.52 8.64 13.28C9 13.0267 9.18 12.64 9.18 12.12ZM25.2186 17.26C24.1653 17.26 23.3386 17.06 22.7386 16.66C22.1519 16.26 21.8253 15.6867 21.7586 14.94H21.6986C21.3519 15.7133 20.8586 16.3 20.2186 16.7C19.5919 17.1 18.8386 17.3 17.9586 17.3C16.8919 17.3 16.0386 17.0133 15.3986 16.44C14.7719 15.8667 14.4586 15.0867 14.4586 14.1C14.4586 13.5267 14.5719 13.02 14.7986 12.58C15.0253 12.1267 15.3586 11.7467 15.7986 11.44C16.1586 11.1867 16.5853 10.98 17.0786 10.82C17.5853 10.66 18.1719 10.54 18.8386 10.46L20.2786 10.3C20.7986 10.2333 21.1786 10.1133 21.4186 9.94C21.6586 9.76667 21.7786 9.52667 21.7786 9.22C21.7786 8.94 21.6786 8.72 21.4786 8.56C21.2786 8.4 21.0053 8.32 20.6586 8.32C20.2053 8.32 19.8386 8.45333 19.5586 8.72C19.2919 8.97333 19.1186 9.35333 19.0386 9.86L15.0986 9.32C15.4586 7.97333 16.1386 6.94 17.1386 6.22C18.1519 5.48667 19.4053 5.12 20.8986 5.12C22.5386 5.12 23.7986 5.52667 24.6786 6.34C25.5719 7.15333 26.0186 8.33333 26.0186 9.88V13.36C26.0186 13.7733 26.0853 14.06 26.2186 14.22C26.3653 14.38 26.6253 14.46 26.9986 14.46C27.1186 14.46 27.2053 14.46 27.2586 14.46C27.3119 14.46 27.3653 14.4533 27.4186 14.44V16.94C27.1786 17.0333 26.8519 17.1067 26.4386 17.16C26.0386 17.2267 25.6319 17.26 25.2186 17.26ZM18.8586 13.42C18.8586 13.7533 18.9586 14.0133 19.1586 14.2C19.3719 14.3867 19.6586 14.48 20.0186 14.48C20.5653 14.48 20.9986 14.2733 21.3186 13.86C21.6519 13.4333 21.8186 12.8733 21.8186 12.18V11.84C21.7386 11.88 21.6453 11.92 21.5386 11.96C21.4453 11.9867 21.3119 12.02 21.1386 12.06L20.0986 12.24C19.6719 12.3067 19.3586 12.44 19.1586 12.64C18.9586 12.8267 18.8586 13.0867 18.8586 13.42ZM36.1166 5.14C37.0766 5.14 37.8032 5.48 38.2966 6.16C38.7899 6.84 39.0366 7.84 39.0366 9.16C39.0366 9.34667 39.0232 9.56 38.9966 9.8C38.9832 10.04 38.9566 10.2867 38.9166 10.54L34.9966 11C35.0499 10.8133 35.0899 10.5867 35.1166 10.32C35.1432 10.0533 35.1566 9.8 35.1566 9.56C35.1566 9.06667 35.0699 8.7 34.8966 8.46C34.7232 8.20667 34.4699 8.08 34.1366 8.08C33.6832 8.08 33.3432 8.29333 33.1166 8.72C32.9032 9.14667 32.7966 9.79333 32.7966 10.66V17H28.4966V5.4H32.7366V7.56H32.7966C33.1432 6.76 33.5966 6.16 34.1566 5.76C34.7166 5.34667 35.3699 5.14 36.1166 5.14ZM48.173 5.12C49.493 5.12 50.5396 5.66 51.313 6.74C52.0863 7.80667 52.473 9.28667 52.473 11.18C52.473 13.0867 52.0796 14.5867 51.293 15.68C50.5063 16.76 49.453 17.3 48.133 17.3C47.2396 17.3 46.4996 17.08 45.913 16.64C45.3263 16.1867 44.8796 15.5067 44.573 14.6H44.533V17H40.313V0.699999H44.633V7.66H44.673C45.0063 6.82 45.4663 6.18667 46.053 5.76C46.653 5.33333 47.3596 5.12 48.173 5.12ZM48.093 11.18C48.093 10.34 47.9396 9.68667 47.633 9.22C47.3263 8.75333 46.8996 8.52 46.353 8.52C45.793 8.52 45.353 8.76 45.033 9.24C44.7263 9.70667 44.573 10.3667 44.573 11.22C44.573 12.0733 44.7263 12.7333 45.033 13.2C45.3396 13.6533 45.773 13.88 46.333 13.88C46.9063 13.88 47.3396 13.6533 47.633 13.2C47.9396 12.7333 48.093 12.06 48.093 11.18ZM59.7239 17.3C57.8172 17.3 56.3106 16.7733 55.2039 15.72C54.0972 14.6533 53.5439 13.1667 53.5439 11.26C53.5572 9.40667 54.1439 7.92 55.3039 6.8C56.4639 5.66667 57.9506 5.1 59.7639 5.1C61.5906 5.1 63.0706 5.64667 64.2039 6.74C65.3372 7.83333 65.9039 9.3 65.9039 11.14C65.9039 13.0733 65.3439 14.5867 64.2239 15.68C63.1172 16.76 61.6172 17.3 59.7239 17.3ZM59.7239 13.88C60.3106 13.88 60.7572 13.66 61.0639 13.22C61.3706 12.7667 61.5239 12.1 61.5239 11.22C61.5239 10.34 61.3706 9.67333 61.0639 9.22C60.7572 8.75333 60.3106 8.52 59.7239 8.52C59.1372 8.52 58.6906 8.74667 58.3839 9.2C58.0772 9.65333 57.9239 10.3267 57.9239 11.22C57.9239 12.0733 58.0772 12.7333 58.3839 13.2C58.7039 13.6533 59.1506 13.88 59.7239 13.88ZM75.0814 5.14C76.0414 5.14 76.7681 5.48 77.2614 6.16C77.7547 6.84 78.0014 7.84 78.0014 9.16C78.0014 9.34667 77.9881 9.56 77.9614 9.8C77.9481 10.04 77.9214 10.2867 77.8814 10.54L73.9614 11C74.0147 10.8133 74.0547 10.5867 74.0814 10.32C74.1081 10.0533 74.1214 9.8 74.1214 9.56C74.1214 9.06667 74.0347 8.7 73.8614 8.46C73.6881 8.20667 73.4347 8.08 73.1014 8.08C72.6481 8.08 72.3081 8.29333 72.0814 8.72C71.8681 9.14667 71.7614 9.79333 71.7614 10.66V17H67.4614V5.4H71.7014V7.56H71.7614C72.1081 6.76 72.5614 6.16 73.1214 5.76C73.6814 5.34667 74.3347 5.14 75.0814 5.14ZM89.4178 17.26C88.3645 17.26 87.5378 17.06 86.9378 16.66C86.3511 16.26 86.0245 15.6867 85.9578 14.94H85.8978C85.5511 15.7133 85.0578 16.3 84.4178 16.7C83.7911 17.1 83.0378 17.3 82.1578 17.3C81.0911 17.3 80.2378 17.0133 79.5978 16.44C78.9711 15.8667 78.6578 15.0867 78.6578 14.1C78.6578 13.5267 78.7711 13.02 78.9978 12.58C79.2245 12.1267 79.5578 11.7467 79.9978 11.44C80.3578 11.1867 80.7845 10.98 81.2778 10.82C81.7845 10.66 82.3711 10.54 83.0378 10.46L84.4778 10.3C84.9978 10.2333 85.3778 10.1133 85.6178 9.94C85.8578 9.76667 85.9778 9.52667 85.9778 9.22C85.9778 8.94 85.8778 8.72 85.6778 8.56C85.4778 8.4 85.2045 8.32 84.8578 8.32C84.4045 8.32 84.0378 8.45333 83.7578 8.72C83.4911 8.97333 83.3178 9.35333 83.2378 9.86L79.2978 9.32C79.6578 7.97333 80.3378 6.94 81.3378 6.22C82.3511 5.48667 83.6045 5.12 85.0978 5.12C86.7378 5.12 87.9978 5.52667 88.8778 6.34C89.7711 7.15333 90.2178 8.33333 90.2178 9.88V13.36C90.2178 13.7733 90.2845 14.06 90.4178 14.22C90.5645 14.38 90.8245 14.46 91.1978 14.46C91.3178 14.46 91.4045 14.46 91.4578 14.46C91.5111 14.46 91.5645 14.4533 91.6178 14.44V16.94C91.3778 17.0333 91.0511 17.1067 90.6378 17.16C90.2378 17.2267 89.8311 17.26 89.4178 17.26ZM83.0578 13.42C83.0578 13.7533 83.1578 14.0133 83.3578 14.2C83.5711 14.3867 83.8578 14.48 84.2178 14.48C84.7645 14.48 85.1978 14.2733 85.5178 13.86C85.8511 13.4333 86.0178 12.8733 86.0178 12.18V11.84C85.9378 11.88 85.8445 11.92 85.7378 11.96C85.6445 11.9867 85.5111 12.02 85.3378 12.06L84.2978 12.24C83.8711 12.3067 83.5578 12.44 83.3578 12.64C83.1578 12.8267 83.0578 13.0867 83.0578 13.42ZM103.33 5.06H96.1295V1.52H108.15V5.18L101.07 13.46H108.33V17H95.8895V13.34L103.33 5.06ZM119.945 17.26C118.892 17.26 118.065 17.06 117.465 16.66C116.878 16.26 116.552 15.6867 116.485 14.94H116.425C116.078 15.7133 115.585 16.3 114.945 16.7C114.318 17.1 113.565 17.3 112.685 17.3C111.618 17.3 110.765 17.0133 110.125 16.44C109.498 15.8667 109.185 15.0867 109.185 14.1C109.185 13.5267 109.298 13.02 109.525 12.58C109.752 12.1267 110.085 11.7467 110.525 11.44C110.885 11.1867 111.312 10.98 111.805 10.82C112.312 10.66 112.898 10.54 113.565 10.46L115.005 10.3C115.525 10.2333 115.905 10.1133 116.145 9.94C116.385 9.76667 116.505 9.52667 116.505 9.22C116.505 8.94 116.405 8.72 116.205 8.56C116.005 8.4 115.732 8.32 115.385 8.32C114.932 8.32 114.565 8.45333 114.285 8.72C114.018 8.97333 113.845 9.35333 113.765 9.86L109.825 9.32C110.185 7.97333 110.865 6.94 111.865 6.22C112.878 5.48667 114.132 5.12 115.625 5.12C117.265 5.12 118.525 5.52667 119.405 6.34C120.298 7.15333 120.745 8.33333 120.745 9.88V13.36C120.745 13.7733 120.812 14.06 120.945 14.22C121.092 14.38 121.352 14.46 121.725 14.46C121.845 14.46 121.932 14.46 121.985 14.46C122.038 14.46 122.092 14.4533 122.145 14.44V16.94C121.905 17.0333 121.578 17.1067 121.165 17.16C120.765 17.2267 120.358 17.26 119.945 17.26ZM113.585 13.42C113.585 13.7533 113.685 14.0133 113.885 14.2C114.098 14.3867 114.385 14.48 114.745 14.48C115.292 14.48 115.725 14.2733 116.045 13.86C116.378 13.4333 116.545 12.8733 116.545 12.18V11.84C116.465 11.88 116.372 11.92 116.265 11.96C116.172 11.9867 116.038 12.02 115.865 12.06L114.825 12.24C114.398 12.3067 114.085 12.44 113.885 12.64C113.685 12.8267 113.585 13.0867 113.585 13.42ZM127.543 20.7H123.223V5.4H127.443V7.88H127.483C127.816 6.98667 128.29 6.30667 128.903 5.84C129.53 5.36 130.27 5.12 131.123 5.12C132.443 5.12 133.483 5.65333 134.243 6.72C135.003 7.78667 135.383 9.26667 135.383 11.16C135.383 13.0533 134.976 14.5533 134.163 15.66C133.363 16.7533 132.303 17.3 130.983 17.3C130.183 17.3 129.496 17.1133 128.923 16.74C128.363 16.3533 127.923 15.78 127.603 15.02H127.543V20.7ZM131.003 11.18C131.003 10.34 130.85 9.68667 130.543 9.22C130.236 8.75333 129.81 8.52 129.263 8.52C128.703 8.52 128.263 8.76 127.943 9.24C127.636 9.70667 127.483 10.3667 127.483 11.22C127.483 12.0733 127.636 12.7333 127.943 13.2C128.25 13.6533 128.683 13.88 129.243 13.88C129.816 13.88 130.25 13.6533 130.543 13.2C130.85 12.7333 131.003 12.06 131.003 11.18ZM136.934 17V0.699999H141.254V17H136.934ZM148.962 17.3C147.042 17.3 145.535 16.7733 144.442 15.72C143.348 14.6533 142.802 13.18 142.802 11.3C142.802 9.46 143.382 7.97333 144.542 6.84C145.715 5.69333 147.195 5.12 148.982 5.12C150.142 5.12 151.148 5.35333 152.002 5.82C152.855 6.28667 153.502 6.96667 153.942 7.86C154.222 8.39333 154.428 9.00667 154.562 9.7C154.695 10.38 154.755 11.12 154.742 11.92H147.022C147.062 12.6133 147.268 13.1467 147.642 13.52C148.015 13.88 148.528 14.06 149.182 14.06C149.715 14.06 150.155 13.9467 150.502 13.72C150.848 13.48 151.102 13.12 151.262 12.64L154.862 13.46C154.462 14.66 153.742 15.6 152.702 16.28C151.675 16.96 150.428 17.3 148.962 17.3ZM150.402 9.06C150.268 8.78 150.075 8.56667 149.822 8.42C149.582 8.27333 149.282 8.2 148.922 8.2C148.402 8.2 147.975 8.35333 147.642 8.66C147.322 8.95333 147.122 9.37333 147.042 9.92H150.602C150.575 9.73333 150.548 9.57333 150.522 9.44C150.495 9.29333 150.455 9.16667 150.402 9.06ZM162.852 14.02C163.012 14.02 163.179 14.0133 163.352 14C163.526 13.9867 163.706 13.9667 163.892 13.94V16.82C163.479 16.98 163.032 17.1 162.552 17.18C162.086 17.26 161.612 17.3 161.132 17.3C159.719 17.3 158.679 16.98 158.012 16.34C157.346 15.6867 157.012 14.6733 157.012 13.3V8.34H154.972V5.4H157.132V3.32L161.312 1.8V5.4H163.912V8.34H161.312V12.58C161.312 13.1267 161.419 13.5067 161.632 13.72C161.859 13.92 162.266 14.02 162.852 14.02ZM175.512 17.26C174.458 17.26 173.632 17.06 173.032 16.66C172.445 16.26 172.118 15.6867 172.052 14.94H171.992C171.645 15.7133 171.152 16.3 170.512 16.7C169.885 17.1 169.132 17.3 168.252 17.3C167.185 17.3 166.332 17.0133 165.692 16.44C165.065 15.8667 164.752 15.0867 164.752 14.1C164.752 13.5267 164.865 13.02 165.092 12.58C165.318 12.1267 165.652 11.7467 166.092 11.44C166.452 11.1867 166.878 10.98 167.372 10.82C167.878 10.66 168.465 10.54 169.132 10.46L170.572 10.3C171.092 10.2333 171.472 10.1133 171.712 9.94C171.952 9.76667 172.072 9.52667 172.072 9.22C172.072 8.94 171.972 8.72 171.772 8.56C171.572 8.4 171.298 8.32 170.952 8.32C170.498 8.32 170.132 8.45333 169.852 8.72C169.585 8.97333 169.412 9.35333 169.332 9.86L165.392 9.32C165.752 7.97333 166.432 6.94 167.432 6.22C168.445 5.48667 169.698 5.12 171.192 5.12C172.832 5.12 174.092 5.52667 174.972 6.34C175.865 7.15333 176.312 8.33333 176.312 9.88V13.36C176.312 13.7733 176.378 14.06 176.512 14.22C176.658 14.38 176.918 14.46 177.292 14.46C177.412 14.46 177.498 14.46 177.552 14.46C177.605 14.46 177.658 14.4533 177.712 14.44V16.94C177.472 17.0333 177.145 17.1067 176.732 17.16C176.332 17.2267 175.925 17.26 175.512 17.26ZM169.152 13.42C169.152 13.7533 169.252 14.0133 169.452 14.2C169.665 14.3867 169.952 14.48 170.312 14.48C170.858 14.48 171.292 14.2733 171.612 13.86C171.945 13.4333 172.112 12.8733 172.112 12.18V11.84C172.032 11.88 171.938 11.92 171.832 11.96C171.738 11.9867 171.605 12.02 171.432 12.06L170.392 12.24C169.965 12.3067 169.652 12.44 169.452 12.64C169.252 12.8267 169.152 13.0867 169.152 13.42ZM178.79 17V0.699999H183.11V17H178.79ZM190.837 17.3C188.931 17.3 187.424 16.7733 186.317 15.72C185.211 14.6533 184.657 13.1667 184.657 11.26C184.671 9.40667 185.257 7.92 186.417 6.8C187.577 5.66667 189.064 5.1 190.877 5.1C192.704 5.1 194.184 5.64667 195.317 6.74C196.451 7.83333 197.017 9.3 197.017 11.14C197.017 13.0733 196.457 14.5867 195.337 15.68C194.231 16.76 192.731 17.3 190.837 17.3ZM190.837 13.88C191.424 13.88 191.871 13.66 192.177 13.22C192.484 12.7667 192.637 12.1 192.637 11.22C192.637 10.34 192.484 9.67333 192.177 9.22C191.871 8.75333 191.424 8.52 190.837 8.52C190.251 8.52 189.804 8.74667 189.497 9.2C189.191 9.65333 189.037 10.3267 189.037 11.22C189.037 12.0733 189.191 12.7333 189.497 13.2C189.817 13.6533 190.264 13.88 190.837 13.88ZM205.995 5.4H210.355L206.455 17H201.615L197.635 5.4H202.115L204.115 13.1L205.995 5.4ZM221.605 17.26C220.552 17.26 219.725 17.06 219.125 16.66C218.539 16.26 218.212 15.6867 218.145 14.94H218.085C217.739 15.7133 217.245 16.3 216.605 16.7C215.979 17.1 215.225 17.3 214.345 17.3C213.279 17.3 212.425 17.0133 211.785 16.44C211.159 15.8667 210.845 15.0867 210.845 14.1C210.845 13.5267 210.959 13.02 211.185 12.58C211.412 12.1267 211.745 11.7467 212.185 11.44C212.545 11.1867 212.972 10.98 213.465 10.82C213.972 10.66 214.559 10.54 215.225 10.46L216.665 10.3C217.185 10.2333 217.565 10.1133 217.805 9.94C218.045 9.76667 218.165 9.52667 218.165 9.22C218.165 8.94 218.065 8.72 217.865 8.56C217.665 8.4 217.392 8.32 217.045 8.32C216.592 8.32 216.225 8.45333 215.945 8.72C215.679 8.97333 215.505 9.35333 215.425 9.86L211.485 9.32C211.845 7.97333 212.525 6.94 213.525 6.22C214.539 5.48667 215.792 5.12 217.285 5.12C218.925 5.12 220.185 5.52667 221.065 6.34C221.959 7.15333 222.405 8.33333 222.405 9.88V13.36C222.405 13.7733 222.472 14.06 222.605 14.22C222.752 14.38 223.012 14.46 223.385 14.46C223.505 14.46 223.592 14.46 223.645 14.46C223.699 14.46 223.752 14.4533 223.805 14.44V16.94C223.565 17.0333 223.239 17.1067 222.825 17.16C222.425 17.2267 222.019 17.26 221.605 17.26ZM215.245 13.42C215.245 13.7533 215.345 14.0133 215.545 14.2C215.759 14.3867 216.045 14.48 216.405 14.48C216.952 14.48 217.385 14.2733 217.705 13.86C218.039 13.4333 218.205 12.8733 218.205 12.18V11.84C218.125 11.88 218.032 11.92 217.925 11.96C217.832 11.9867 217.699 12.02 217.525 12.06L216.485 12.24C216.059 12.3067 215.745 12.44 215.545 12.64C215.345 12.8267 215.245 13.0867 215.245 13.42ZM218.705 4.44H216.005L217.445 0.619999H221.085L218.705 4.44Z" fill="black"/>
</svg>
