<?xml version="1.0" encoding="UTF-8"?><svg id="Object" xmlns="http://www.w3.org/2000/svg" xmlns:xlink="http://www.w3.org/1999/xlink" viewBox="0 0 783.72 1567.23"><defs><style>.cls-1{fill:none;}.cls-2{fill:#fff;opacity:.5;}.cls-3{fill:#efefef;}.cls-4{clip-path:url(#clippath);}</style><filter id="drop-shadow-2" x="-61.55" y="-60.02" width="906.96" height="1689.12" filterUnits="userSpaceOnUse"><feOffset dx="0" dy="0"/><feGaussianBlur result="blur" stdDeviation="20"/><feFlood flood-color="#000" flood-opacity=".25"/><feComposite in2="blur" operator="in"/><feComposite in="SourceGraphic"/></filter><clipPath id="clippath"><path class="cls-1" d="M781.94,7.45h-72.92c-2.98,2.89-5.89,5.89-9.37,8.63-3.78,2.98-8.44,4.66-12.3,7.53-2.96,2.2-5.72,5.15-8.73,7.22v29.83h-33.93V26.73h30.85c.49-.4.99-.79,1.48-1.16,6.57-5.01,10.77-11.35,15.25-18.28l-65.04-7.29c-3.2,4.03-10.57,16.21-13.39,20.57-1.39,2.15-2.99,4.27-4.79,6.16h.96v33.93h-33.93V26.73h23.59c2.26-3.53,5.85-6.55,8.91-9.55,2.98-2.92,7.93-10.57,10.16-14.09h-57.83c-3.85,4.24-9,13.73-12.72,18.13-2.03,2.4-4.33,4.55-6.81,6.47v32.97h-33.93V26.73h29.64c.69-3.6,4.33-7.07,6.87-10.24,2.16-2.7,3.62-5.83,4.97-9.03h-188.09c-8.24,6.81-16.71,13.33-25.33,19.65v33.55h-33.93V26.73h28.58c2.99-7.1,10.19-12.64,14.7-19.28h-63.41c-4.64,7.27-9.95,14.41-16.43,19.28h1.86v33.93h-33.93v-30.27c-3.28-.87-6.56-1.76-9.88-2.3-.08-4.07-3.34-7.53-7.1-9.11-3.75-1.58-7.94-1.66-12.02-1.72-1.79-.03-3.64-.04-5.28.67-1.53.66-2.74,1.89-3.96,3.03-2.31,2.16-4.83,4.09-7.5,5.78h11.04v33.93s-33.93,0-33.93,0v-26.78c-1.54-.18-3.02-.61-4.38-1.39-1.99-1.14-3.5-2.93-5.12-4.56-3.89-3.92-8.56-7.07-13.66-9.21-18.99-7.96-40.7-1.23-61.23-2.82-10.13-.78-20.05-3.73-29.05-8.45H-1.45L1.75,1561.52h72.92c2.98-2.89,5.89-5.89,9.37-8.63,3.78-2.98,8.44-4.66,12.3-7.53,2.96-2.2,5.71-5.14,8.73-7.22v-29.83h33.93v33.93h-30.85c-.49.4-.99.79-1.48,1.16-6.57,5.01-10.77,11.35-15.25,18.28l65.04,7.29c3.2-4.03,10.57-16.21,13.39-20.57,1.39-2.15,2.99-4.27,4.79-6.16h-.96v-33.93h33.93v33.93h-23.59c-2.26,3.53-5.85,6.55-8.91,9.55-2.98,2.92-7.93,10.57-10.16,14.09h57.83c3.85-4.24,9-13.73,12.72-18.13,2.03-2.4,4.33-4.55,6.81-6.47v-32.97h33.93v33.93h-29.64c-.69,3.6-4.33,7.07-6.87,10.24-2.16,2.7-3.62,5.83-4.97,9.03h188.09c8.24-6.81,16.71-13.33,25.33-19.65v-33.55h33.93v33.93h-28.58c-2.99,7.1-10.19,12.64-14.7,19.28h63.41c4.64-7.27,9.95-14.41,16.43-19.28h-1.86v-33.93h33.93v30.27c3.28.87,6.56,1.76,9.88,2.3.08,4.07,3.34,7.53,7.1,9.11,3.75,1.58,7.94,1.66,12.02,1.72,1.79.03,3.64.04,5.28-.67,1.53-.66,2.74-1.89,3.96-3.03,2.31-2.16,4.83-4.09,7.5-5.78h-11.04v-33.93h33.93v26.78c1.54.18,3.02.61,4.38,1.39,1.99,1.14,3.5,2.93,5.12,4.56,3.89,3.92,8.56,7.07,13.66,9.21,18.99,7.96,40.7,1.23,61.23,2.82,10.13.78,20.05,3.73,29.05,8.45h52.34l-3.2-1554.07ZM713.32,26.73h33.93v33.93h-33.93V26.73ZM438.82,26.73h33.93v33.93h-33.93V26.73ZM370.2,26.73h33.93v33.93h-33.93V26.73ZM95.7,30.59h33.93v33.93h-33.93V30.59ZM27.08,30.59h33.93v33.93H27.08V30.59ZM70.37,1542.25h-33.93v-33.93h33.93v33.93ZM344.87,1542.25h-33.93v-33.93h33.93v33.93ZM413.49,1542.25h-33.93v-33.93h33.93v33.93ZM687.99,1538.39h-33.93v-33.93h33.93v33.93ZM756.61,1538.39h-33.93v-33.93h33.93v33.93Z"/></clipPath></defs><path class="cls-2" d="M781.97,7.45h-72.92c-2.98,2.89-5.89,5.89-9.37,8.63-3.78,2.98-8.44,4.66-12.3,7.53-2.96,2.2-5.72,5.15-8.73,7.22v29.83h-33.93V26.73h30.85c.49-.4.99-.79,1.48-1.16,6.57-5.01,10.77-11.35,15.25-18.28L627.24,0c-3.2,4.03-10.57,16.21-13.39,20.57-1.39,2.15-2.99,4.27-4.79,6.16h.96v33.93h-33.93V26.73h23.59c2.26-3.53,5.85-6.55,8.91-9.55,2.98-2.92,7.93-10.57,10.16-14.09h-57.83c-3.85,4.24-9,13.73-12.72,18.13-2.03,2.4-4.33,4.55-6.81,6.47v32.97h-33.93V26.73h29.64c.69-3.6,4.33-7.07,6.87-10.24,2.16-2.7,3.62-5.83,4.97-9.03h-188.09c-8.24,6.81-16.71,13.33-25.33,19.65v33.55h-33.93V26.73h28.58c2.99-7.1,10.19-12.64,14.7-19.28h-63.41c-4.64,7.27-9.95,14.41-16.43,19.28h1.86v33.93h-33.93v-30.27c-3.28-.87-6.56-1.76-9.88-2.3-.08-4.07-3.34-7.53-7.1-9.11-3.75-1.58-7.94-1.66-12.02-1.72-1.79-.03-3.64-.04-5.28.67-1.53.66-2.74,1.89-3.96,3.03-2.31,2.16-4.83,4.09-7.5,5.78h11.04v33.93s-33.93,0-33.93,0v-26.78c-1.54-.18-3.02-.61-4.38-1.39-1.99-1.14-3.5-2.93-5.12-4.56-3.89-3.92-8.56-7.07-13.66-9.21-18.99-7.96-40.7-1.23-61.23-2.82-10.13-.78-20.05-3.73-29.05-8.45H-1.42L1.78,1561.52h72.92c2.98-2.89,5.89-5.89,9.37-8.63,3.78-2.98,8.44-4.66,12.3-7.53,2.96-2.2,5.71-5.14,8.73-7.22v-29.83h33.93v33.93h-30.85c-.49.4-.99.79-1.48,1.16-6.57,5.01-10.77,11.35-15.25,18.28l65.04,7.29c3.2-4.03,10.57-16.21,13.39-20.57,1.39-2.15,2.99-4.27,4.79-6.16h-.96v-33.93h33.93v33.93h-23.59c-2.26,3.53-5.85,6.55-8.91,9.55-2.98,2.92-7.93,10.57-10.16,14.09h57.83c3.85-4.24,9-13.73,12.72-18.13,2.03-2.4,4.33-4.55,6.81-6.47v-32.97h33.93v33.93h-29.64c-.69,3.6-4.33,7.07-6.87,10.24-2.16,2.7-3.62,5.83-4.97,9.03h188.09c8.24-6.81,16.71-13.33,25.33-19.65v-33.55h33.93v33.93h-28.58c-2.99,7.1-10.19,12.64-14.7,19.28h63.41c4.64-7.27,9.95-14.41,16.43-19.28h-1.86v-33.93h33.93v30.27c3.28.87,6.56,1.76,9.88,2.3.08,4.07,3.34,7.53,7.1,9.11,3.75,1.58,7.94,1.66,12.02,1.72,1.79.03,3.64.04,5.28-.67,1.53-.66,2.74-1.89,3.96-3.03,2.31-2.16,4.83-4.09,7.5-5.78h-11.04v-33.93h33.93v26.78c1.54.18,3.02.61,4.38,1.39,1.99,1.14,3.5,2.93,5.12,4.56,3.89,3.92,8.56,7.07,13.66,9.21,18.99,7.96,40.7,1.23,61.23,2.82,10.13.78,20.05,3.73,29.05,8.45h52.34l-3.2-1554.07ZM713.34,26.73h33.93v33.93h-33.93V26.73ZM438.85,26.73h33.93v33.93h-33.93V26.73ZM370.22,26.73h33.93v33.93h-33.93V26.73ZM95.73,30.59h33.93v33.93h-33.93V30.59ZM27.1,30.59h33.93v33.93H27.1V30.59ZM70.4,1542.25h-33.93v-33.93h33.93v33.93ZM344.89,1542.25h-33.93v-33.93h33.93v33.93ZM413.52,1542.25h-33.93v-33.93h33.93v33.93ZM688.02,1538.39h-33.93v-33.93h33.93v33.93ZM756.64,1538.39h-33.93v-33.93h33.93v33.93Z"/><g class="cls-4"><rect class="cls-3" x="560.12" y="-.39" width="3.12" height="1594.79"/><rect class="cls-3" x="599.14" y="-.39" width="3.12" height="1594.79"/><rect class="cls-3" x="642.85" y="-.39" width="3.12" height="1594.79"/><rect class="cls-3" x="681.87" y="-.39" width="3.12" height="1594.79"/><rect class="cls-3" x="726.09" y="-.39" width="3.12" height="1594.79"/><rect class="cls-3" x="765.11" y="-.39" width="3.12" height="1594.79"/><rect class="cls-3" x="477.91" y="-.39" width="3.12" height="1594.79"/><rect class="cls-3" x="516.93" y="-.39" width="3.12" height="1594.79"/><rect class="cls-3" x="233.89" y="-.39" width="3.12" height="1594.79"/><rect class="cls-3" x="272.92" y="-.39" width="3.12" height="1594.79"/><rect class="cls-3" x="316.62" y="-.39" width="3.12" height="1594.79"/><rect class="cls-3" x="355.64" y="-.39" width="3.12" height="1594.79"/><rect class="cls-3" x="399.87" y="-.39" width="3.12" height="1594.79"/><rect class="cls-3" x="438.89" y="-.39" width="3.12" height="1594.79"/><rect class="cls-3" x="151.69" y="-.39" width="3.12" height="1594.79"/><rect class="cls-3" x="190.71" y="-.39" width="3.12" height="1594.79"/><rect class="cls-3" x="75.73" y="-.39" width="3.12" height="1594.79"/><rect class="cls-3" x="114.75" y="-.39" width="3.12" height="1594.79"/><rect class="cls-3" x="32.54" y="-.39" width="3.12" height="1594.79"/><rect class="cls-3" x="-11.42" y="101.33" width="806.46" height="3.12"/><rect class="cls-3" x="-11.42" y="140.35" width="806.46" height="3.12"/><rect class="cls-3" x="-11.42" y="22.24" width="806.46" height="3.12"/><rect class="cls-3" x="-11.42" y="61.27" width="806.46" height="3.12"/><rect class="cls-3" x="-11.42" y="183.8" width="806.46" height="3.12"/><rect class="cls-3" x="-11.42" y="222.82" width="806.46" height="3.12"/><rect class="cls-3" x="-11.42" y="264.7" width="806.46" height="3.12"/><rect class="cls-3" x="-11.42" y="303.72" width="806.46" height="3.12"/><rect class="cls-3" x="-11.42" y="344.83" width="806.46" height="3.12"/><rect class="cls-3" x="-11.42" y="383.85" width="806.46" height="3.12"/><rect class="cls-3" x="-11.42" y="427.29" width="806.46" height="3.12"/><rect class="cls-3" x="-11.42" y="466.32" width="806.46" height="3.12"/><rect class="cls-3" x="-11.42" y="508.2" width="806.46" height="3.12"/><rect class="cls-3" x="-11.42" y="547.22" width="806.46" height="3.12"/><rect class="cls-3" x="-11.42" y="586.76" width="806.46" height="3.12"/><rect class="cls-3" x="-11.42" y="625.79" width="806.46" height="3.12"/><rect class="cls-3" x="-11.42" y="669.23" width="806.46" height="3.12"/><rect class="cls-3" x="-11.42" y="708.25" width="806.46" height="3.12"/><rect class="cls-3" x="-11.42" y="787.34" width="806.46" height="3.12"/><rect class="cls-3" x="-11.42" y="826.36" width="806.46" height="3.12"/><rect class="cls-3" x="-11.42" y="708.25" width="806.46" height="3.12"/><rect class="cls-3" x="-11.42" y="747.27" width="806.46" height="3.12"/><rect class="cls-3" x="-11.42" y="869.8" width="806.46" height="3.12"/><rect class="cls-3" x="-11.42" y="908.83" width="806.46" height="3.12"/><rect class="cls-3" x="-11.42" y="950.71" width="806.46" height="3.12"/><rect class="cls-3" x="-11.42" y="989.73" width="806.46" height="3.12"/><rect class="cls-3" x="-11.42" y="1030.83" width="806.46" height="3.12"/><rect class="cls-3" x="-11.42" y="1069.86" width="806.46" height="3.12"/><rect class="cls-3" x="-11.42" y="1113.3" width="806.46" height="3.12"/><rect class="cls-3" x="-11.42" y="1152.32" width="806.46" height="3.12"/><rect class="cls-3" x="-11.42" y="1194.21" width="806.46" height="3.12"/><rect class="cls-3" x="-11.42" y="1233.23" width="806.46" height="3.12"/><rect class="cls-3" x="-11.42" y="1272.77" width="806.46" height="3.12"/><rect class="cls-3" x="-11.42" y="1311.79" width="806.46" height="3.12"/><rect class="cls-3" x="-11.42" y="1355.24" width="806.46" height="3.12"/><rect class="cls-3" x="-11.42" y="1476.47" width="806.46" height="3.12"/><rect class="cls-3" x="-11.42" y="1515.49" width="806.46" height="3.12"/><rect class="cls-3" x="-11.42" y="1397.38" width="806.46" height="3.12"/><rect class="cls-3" x="-11.42" y="1436.4" width="806.46" height="3.12"/><rect class="cls-3" x="-11.42" y="1558.93" width="806.46" height="3.12"/><rect class="cls-3" x="-11.42" y="1474.91" width="806.46" height="3.12"/><rect class="cls-3" x="-11.42" y="1476.47" width="806.46" height="3.12"/><rect class="cls-3" x="-11.42" y="1515.49" width="806.46" height="3.12"/><rect class="cls-3" x="-11.42" y="1557.37" width="806.46" height="3.12"/></g></svg>