<?xml version="1.0" encoding="UTF-8"?><svg id="Vrstva_2" xmlns="http://www.w3.org/2000/svg" xmlns:xlink="http://www.w3.org/1999/xlink" viewBox="0 0 856 882"><defs><style>.cls-1{fill:#fff;filter:url(#drop-shadow-0.5);opacity:.5;}.cls-2{fill:none;}.cls-3{fill:#efefef;}.cls-4{clip-path:url(#clippath);}</style><filter id="drop-shadow-1" x="0" y="0" width="856" height="882" filterUnits="userSpaceOnUse"><feOffset dx="0" dy="0"/><feGaussianBlur result="blur" stdDeviation="20"/><feFlood flood-color="#000" flood-opacity=".25"/><feComposite in2="blur" operator="in"/><feComposite in="SourceGraphic"/></filter><clipPath id="clippath"><path class="cls-2" d="M795.75,60.28H67.41s0,70.86,0,70.86c2.81,2.9,5.72,5.72,8.38,9.1,2.89,3.68,4.53,8.2,7.32,11.96,2.14,2.88,5,5.55,7.01,8.49h28.99s0,32.97,0,32.97h-32.97s0-29.98,0-29.98c-.39-.48-.76-.96-1.12-1.43-4.87-6.38-11.03-10.47-17.77-14.82l-7.08,63.21c3.92,3.11,15.75,10.27,19.99,13.01,2.09,1.35,4.15,2.91,5.99,4.66v-.94s32.97,0,32.97,0v32.97s-32.97,0-32.97,0v-22.93c-3.43-2.19-6.36-5.68-9.28-8.66-2.84-2.89-10.27-7.7-13.7-9.88v56.2c4.12,3.74,13.34,8.75,17.62,12.36,2.33,1.97,4.43,4.21,6.29,6.62h32.04s0,32.97,0,32.97h-32.97s0-28.8,0-28.8c-3.5-.67-6.87-4.21-9.95-6.67-2.62-2.09-5.67-3.51-8.78-4.83v182.79c6.62,8.01,12.96,16.24,19.1,24.62h32.6s0,32.97,0,32.97h-32.97s0-27.78,0-27.78c-6.9-2.9-12.28-9.9-18.73-14.29v61.62c7.07,4.51,14,9.67,18.73,15.96v-1.8s32.97,0,32.97,0v32.97s-29.42,0-29.42,0c-.85,3.19-1.71,6.38-2.24,9.6-3.96.08-7.32,3.25-8.85,6.9-1.54,3.65-1.61,7.72-1.67,11.68-.02,1.74-.04,3.54.65,5.13.64,1.49,1.84,2.66,2.95,3.85,2.1,2.24,3.97,4.69,5.62,7.28v-10.73s32.97,0,32.97,0v32.97s-26.03,0-26.03,0c-.18,1.5-.59,2.94-1.35,4.26-1.11,1.93-2.85,3.4-4.43,4.97-3.81,3.78-6.87,8.32-8.95,13.28-7.73,18.46-1.2,39.55-2.74,59.51-.76,9.84-3.63,19.49-8.21,28.23v50.86s612.94-5.99,728.34,0c0,0-10.49-683.38,0-761.31ZM86.14,126.97v-32.97s32.97,0,32.97,0v32.97s-32.97,0-32.97,0ZM86.14,360.75h32.97s0,32.97,0,32.97h-32.97s0-32.97,0-32.97ZM86.14,460.41v-32.97s32.97,0,32.97,0v32.97s-32.97,0-32.97,0ZM122.86,793.86h-32.97s0-32.97,0-32.97h32.97s0,32.97,0,32.97ZM122.86,727.17h-32.97s0-32.97,0-32.97h32.97s0,32.97,0,32.97Z"/></clipPath></defs><g id="Object"><path class="cls-1" d="M795.75,60.28H67.41s0,70.86,0,70.86c2.81,2.9,5.72,5.72,8.38,9.1,2.89,3.68,4.53,8.2,7.32,11.96,2.14,2.88,5,5.55,7.01,8.49h28.99s0,32.97,0,32.97h-32.97s0-29.98,0-29.98c-.39-.48-.76-.96-1.12-1.43-4.87-6.38-11.03-10.47-17.77-14.82l-7.08,63.21c3.92,3.11,15.75,10.27,19.99,13.01,2.09,1.35,4.15,2.91,5.99,4.66v-.94s32.97,0,32.97,0v32.97s-32.97,0-32.97,0v-22.93c-3.43-2.19-6.36-5.68-9.28-8.66-2.84-2.89-10.27-7.7-13.7-9.88v56.2c4.12,3.74,13.34,8.75,17.62,12.36,2.33,1.97,4.43,4.21,6.29,6.62h32.04s0,32.97,0,32.97h-32.97s0-28.8,0-28.8c-3.5-.67-6.87-4.21-9.95-6.67-2.62-2.09-5.67-3.51-8.78-4.83v182.79c6.62,8.01,12.96,16.24,19.1,24.62h32.6s0,32.97,0,32.97h-32.97s0-27.78,0-27.78c-6.9-2.9-12.28-9.9-18.73-14.29v61.62c7.07,4.51,14,9.67,18.73,15.96v-1.8s32.97,0,32.97,0v32.97s-29.42,0-29.42,0c-.85,3.19-1.71,6.38-2.24,9.6-3.96.08-7.32,3.25-8.85,6.9-1.54,3.65-1.61,7.72-1.67,11.68-.02,1.74-.04,3.54.65,5.13.64,1.49,1.84,2.66,2.95,3.85,2.1,2.24,3.97,4.69,5.62,7.28v-10.73s32.97,0,32.97,0v32.97s-26.03,0-26.03,0c-.18,1.5-.59,2.94-1.35,4.26-1.11,1.93-2.85,3.4-4.43,4.97-3.81,3.78-6.87,8.32-8.95,13.28-7.73,18.46-1.2,39.55-2.74,59.51-.76,9.84-3.63,19.49-8.21,28.23v50.86s612.94-5.99,728.34,0c0,0-10.49-683.38,0-761.31ZM86.14,126.97v-32.97s32.97,0,32.97,0v32.97s-32.97,0-32.97,0ZM86.14,360.75h32.97s0,32.97,0,32.97h-32.97s0-32.97,0-32.97ZM86.14,460.41v-32.97s32.97,0,32.97,0v32.97s-32.97,0-32.97,0ZM122.86,793.86h-32.97s0-32.97,0-32.97h32.97s0,32.97,0,32.97ZM122.86,727.17h-32.97s0-32.97,0-32.97h32.97s0,32.97,0,32.97Z"/><g class="cls-4"><rect class="cls-3" x="58.82" y="278.82" width="747.82" height="3.03"/><rect class="cls-3" x="58.82" y="240.9" width="747.82" height="3.03"/><rect class="cls-3" x="58.82" y="198.43" width="747.82" height="3.03"/><rect class="cls-3" x="58.82" y="160.51" width="747.82" height="3.03"/><rect class="cls-3" x="58.82" y="117.53" width="747.82" height="3.03"/><rect class="cls-3" x="58.82" y="79.61" width="747.82" height="3.03"/><rect class="cls-3" x="58.82" y="358.71" width="747.82" height="3.03"/><rect class="cls-3" x="58.82" y="320.79" width="747.82" height="3.03"/><rect class="cls-3" x="58.82" y="595.85" width="747.82" height="3.03"/><rect class="cls-3" x="58.82" y="557.93" width="747.82" height="3.03"/><rect class="cls-3" x="58.82" y="515.46" width="747.82" height="3.03"/><rect class="cls-3" x="58.82" y="477.53" width="747.82" height="3.03"/><rect class="cls-3" x="58.82" y="434.56" width="747.82" height="3.03"/><rect class="cls-3" x="58.82" y="396.64" width="747.82" height="3.03"/><rect class="cls-3" x="58.82" y="675.74" width="747.82" height="3.03"/><rect class="cls-3" x="58.82" y="637.82" width="747.82" height="3.03"/><rect class="cls-3" x="58.82" y="749.56" width="747.82" height="3.03"/><rect class="cls-3" x="58.82" y="711.64" width="747.82" height="3.03"/><rect class="cls-3" x="58.82" y="791.53" width="747.82" height="3.03"/><rect class="cls-3" x="157.67" y="53.57" width="3.03" height="783.72"/><rect class="cls-3" x="195.59" y="53.57" width="3.03" height="783.72"/><rect class="cls-3" x="80.81" y="53.57" width="3.03" height="783.72"/><rect class="cls-3" x="118.74" y="53.57" width="3.03" height="783.72"/><rect class="cls-3" x="237.81" y="53.57" width="3.03" height="783.72"/><rect class="cls-3" x="275.73" y="53.57" width="3.03" height="783.72"/><rect class="cls-3" x="316.43" y="53.57" width="3.03" height="783.72"/><rect class="cls-3" x="354.36" y="53.57" width="3.03" height="783.72"/><rect class="cls-3" x="394.3" y="53.57" width="3.03" height="783.72"/><rect class="cls-3" x="432.22" y="53.57" width="3.03" height="783.72"/><rect class="cls-3" x="474.44" y="53.57" width="3.03" height="783.72"/><rect class="cls-3" x="512.36" y="53.57" width="3.03" height="783.72"/><rect class="cls-3" x="553.07" y="53.57" width="3.03" height="783.72"/><rect class="cls-3" x="590.99" y="53.57" width="3.03" height="783.72"/><rect class="cls-3" x="629.42" y="53.57" width="3.03" height="783.72"/><rect class="cls-3" x="667.34" y="53.57" width="3.03" height="783.72"/><rect class="cls-3" x="709.56" y="53.57" width="3.03" height="783.72"/><rect class="cls-3" x="747.48" y="53.57" width="3.03" height="783.72"/><rect class="cls-3" x="788.18" y="53.57" width="3.03" height="783.72"/></g></g></svg>