<svg width="27" height="11" viewBox="0 0 27 11" fill="currentColor" xmlns="http://www.w3.org/2000/svg">
<path d="M15.9986 7.07689C16.0255 7.07689 16.0597 7.07928 16.0964 7.08407C16.0744 7.07928 16.0426 7.0697 15.9986 7.06012C15.9986 7.06491 15.9986 7.0697 15.9986 7.07689Z" stroke="currentColor" fill="currentColor"/>
<path d="M21.8082 7.20861C21.5931 7.24214 21.3805 7.28526 21.1679 7.32358C20.965 7.35951 20.8575 7.11998 20.6644 7.19424C20.5006 7.22777 20.3246 7.25652 20.156 7.30442C20.0631 7.33077 20.0142 7.4194 20.0191 7.53198C20.024 7.63258 20.09 7.6733 20.1658 7.68528C20.3613 7.72121 20.5715 7.79307 20.7328 7.61102C20.8355 7.49605 20.9014 7.48886 20.9723 7.6206C21.0188 7.70684 21.0872 7.74277 21.1532 7.69965C21.3878 7.54635 21.6567 7.55354 21.9035 7.46012C21.9744 7.43377 22.0331 7.35233 22.0013 7.2661C21.9671 7.17028 21.8864 7.20142 21.8106 7.2134L21.8082 7.20861Z" stroke="currentColor" fill="currentColor"/>
<path d="M22.9349 6.41332C22.9129 6.51871 22.8298 6.48518 22.7663 6.49955C22.7394 6.50674 22.7101 6.50913 22.6832 6.51392C22.6099 6.64327 22.5145 6.66483 22.3997 6.58578L22.3752 6.56183L22.3948 6.59057C22.3972 6.6768 22.385 6.77022 22.2995 6.7822C21.774 6.86124 21.2461 6.98341 20.7157 6.83969C20.6448 6.82052 20.6277 6.77022 20.6448 6.69597C20.6546 6.66243 20.7279 6.70076 20.7035 6.6289L20.635 6.6816C20.5348 6.73908 20.4004 6.76783 20.3393 6.85885C20.2171 7.0385 20.1462 7.13431 20.0851 6.8301L19.9238 6.88041C19.9091 6.97143 19.9116 7.0864 19.782 7.04329C19.7405 7.03131 19.7112 6.97382 19.7332 6.9331C19.7747 6.84927 19.8554 6.87801 19.9238 6.87801C19.677 6.7295 19.4619 6.74627 19.3201 6.93071C19.2639 7.00496 19.1857 7.08161 19.1686 7.16784C19.0708 7.69002 18.692 7.76428 18.3229 7.86249C18.2154 7.89123 18.1616 7.81698 18.0883 7.77386C17.9808 7.71158 17.8879 7.64212 17.8512 7.86249C17.839 7.93674 17.7461 7.89842 17.729 7.82895C17.6997 7.7044 17.6899 7.57265 17.663 7.39061C17.426 7.71877 17.1449 7.77865 16.8174 7.76188C16.7001 7.7547 16.5803 7.77146 16.463 7.79302C16.4043 7.805 16.3457 7.81698 16.2846 7.83135C16.2577 7.83853 16.2186 7.84332 16.2015 7.85051L16.1697 7.86728C16.1355 7.88644 16.1257 7.81937 16.1159 7.74272C16.1379 7.68044 16.1575 7.61816 16.1477 7.51037C16.1086 7.54391 16.1281 7.66847 16.1135 7.73314C16.0597 7.78344 16.0011 7.73314 15.9497 7.83135C15.8715 7.98465 15.7982 8.05411 15.7298 7.78105C15.7273 7.76907 15.7029 7.81218 15.6907 7.82895C15.7078 7.84811 15.7322 7.84332 15.7249 7.93914C15.7249 7.95111 15.72 7.96788 15.7151 7.97028C15.6858 7.99183 15.6882 7.908 15.6809 7.8553C15.6076 7.64212 15.5391 7.72116 15.4731 7.90081C15.4438 7.97986 15.4145 8.05651 15.4096 7.84332L15.4389 7.7523C15.4389 7.71637 15.4634 7.702 15.4487 7.6493L15.4365 7.74033L15.4071 7.83374C15.3363 7.85051 15.2654 8.08765 15.1969 7.83135C15.1969 7.82416 15.1774 7.84811 15.1701 7.86967C15.1016 8.1116 15.0234 7.96549 14.9477 7.93435C14.9403 7.91518 14.9525 7.84093 14.9305 7.86009L14.9477 7.93914C14.9477 8.00621 14.9403 8.08286 14.9134 8.05172C14.8768 8.0086 14.8426 7.92237 14.801 8.00621C14.7595 8.09004 14.7277 8.16909 14.7008 7.94153C14.6861 7.81698 14.6397 7.89602 14.6079 7.94153C14.5737 7.98704 14.5493 7.99423 14.5517 7.83853L14.581 7.74272C14.5957 7.72356 14.6104 7.71398 14.6226 7.68284C14.6324 7.65409 14.6226 7.61816 14.6128 7.63733C14.6006 7.66128 14.5908 7.702 14.5786 7.73553L14.5493 7.82895C14.515 7.91758 14.4882 8.04932 14.4344 7.97746C14.4222 7.96069 14.4002 7.94632 14.3904 7.96788C14.2975 8.20741 14.2095 8.05651 14.1216 7.92956L14.1044 7.84093L14.1191 7.93914C14.0727 8.23855 13.9822 8.31999 13.948 8.06609C13.9016 7.6996 13.8478 7.80739 13.7794 7.93674C13.7647 7.96309 13.7403 7.93674 13.7207 7.93195L13.7134 7.91518L13.7183 7.94153C13.7232 8.08525 13.6963 8.14992 13.6596 8.19064C13.601 8.25532 13.579 8.18106 13.5912 7.96788C13.5936 7.91039 13.6205 7.86728 13.5912 7.78584C13.5496 7.86967 13.5081 7.95351 13.4665 8.03974C13.4445 8.08525 13.4177 8.13555 13.4005 8.04932C13.3663 7.88404 13.3248 7.95351 13.3028 8.03734C13.2441 8.28167 13.1928 8.16909 13.1366 8.04214L13.1439 8.01579L13.1341 8.03495C13.0926 8.12358 13.051 8.22178 13.0437 7.94153C13.0462 7.93195 13.051 7.91997 13.051 7.91039C13.051 7.88644 13.0462 7.86249 13.0437 7.83853L13.0339 7.81698L13.0413 7.84332V7.93914C12.9826 7.83374 12.9215 7.81698 12.8604 7.91518C12.8433 7.94393 12.8286 7.99183 12.8115 8.01339C12.7015 8.14992 12.6918 8.12597 12.6844 7.73553C12.6844 7.71637 12.6698 7.69961 12.66 7.68284C12.616 7.70679 12.6453 7.80979 12.6429 7.87446C12.6233 8.17148 12.6038 8.22897 12.5256 8.09004C12.4693 7.99183 12.4254 7.99183 12.3691 8.06609C12.3447 8.10202 12.3374 8.01579 12.3374 7.94632L12.3447 7.91758L12.3374 7.93914C12.3032 7.96309 12.2689 8.04693 12.2347 7.98225C12.1321 7.78105 12.0392 7.908 11.9439 8.011C11.9341 8.02058 11.9194 7.97028 11.9072 7.94872C11.9121 7.91758 11.9341 7.9056 11.9145 7.85291L11.9048 7.94632C11.719 7.78105 11.5259 7.91997 11.3109 7.82895C11.3646 7.58463 11.4159 7.42175 11.4184 7.18701C11.3011 7.22773 11.2766 7.27563 11.2669 7.61337C11.262 7.7547 11.2644 7.8553 11.2131 7.90081C11.1569 7.95351 11.1251 7.88883 11.1007 7.73314C11.0884 7.65409 11.0689 7.55589 11.0444 7.60379C10.9711 7.74751 10.8709 7.56068 10.8049 7.78344C10.7707 7.89602 10.7218 7.9056 10.6754 7.85051C10.6314 7.80021 10.6045 7.75709 10.5532 7.83374C10.4896 7.93195 10.453 7.77146 10.4554 7.46965L10.4603 7.44091L10.453 7.46486C10.453 7.46486 10.4359 7.47684 10.4261 7.48163C10.4237 7.49361 10.4188 7.50558 10.4163 7.51517C10.4163 7.51517 10.4114 7.50079 10.409 7.49361L10.4188 7.46007C10.3601 7.36905 10.3381 7.46726 10.3577 7.62296C10.387 7.8577 10.3577 7.83374 10.3063 7.78584C10.2526 7.73793 10.1988 7.74751 10.1401 7.79302L10.1133 7.81458C10.0961 7.57026 10.0424 7.64451 10.0008 7.68284C9.92262 7.7523 9.95439 7.32114 9.88107 7.41217C9.83952 7.46726 9.82974 7.66368 9.76375 7.6517C9.65377 7.63254 9.53401 7.52235 9.43624 7.69002C9.37025 7.80021 9.36048 7.12473 9.29937 7.60858C9.23094 7.62775 9.16006 7.64451 9.09163 7.66607C9.00608 7.69481 8.92543 7.69002 8.83744 7.61577C8.75923 7.5511 8.6688 7.48642 8.58081 7.61577C8.49038 7.74512 8.48305 7.70679 8.45861 7.33312C8.45861 7.29719 8.45372 7.25887 8.44394 7.26366C8.42928 7.26845 8.41461 7.28521 8.40239 7.31396C8.37062 7.40498 8.28508 7.57026 8.25819 7.54391C8.17021 7.46007 8.09444 7.63493 8.0089 7.58463C7.97712 7.56547 7.93313 7.6493 7.93069 7.45289C7.93069 7.37863 7.91602 7.36426 7.9038 7.40498C7.81826 7.65888 7.6985 7.48882 7.60074 7.62775C7.5103 7.75709 7.52252 7.3978 7.47364 7.26366C7.44676 7.599 7.37344 7.70919 7.26345 7.60379C7.21701 7.55828 7.17302 7.5511 7.12903 7.599C7.00682 7.73074 6.87973 7.82177 6.74531 7.63972C6.69398 7.83135 6.63777 7.37384 6.57178 7.63014C6.53023 7.78584 6.43491 7.61816 6.36403 7.65409C6.27849 7.69721 6.1905 7.72595 6.10496 7.62775C6.03163 7.5463 5.98031 7.72595 5.91432 7.7044C5.74079 7.64691 5.5697 7.69481 5.39862 7.64691L5.28863 7.61816C5.27641 7.61816 5.27641 7.61337 5.25442 7.61098L5.1762 7.60619L5.01978 7.59661C4.80959 7.58463 4.60184 7.57265 4.39165 7.55828C3.97372 7.52954 3.55333 7.4984 3.1354 7.42893C2.51704 7.33073 1.89624 7.19898 1.273 7.1415C1.13858 7.12952 0.940608 7.10557 0.93572 6.96903C0.921055 6.59297 0.723085 6.78459 0.58866 6.78699C0.442015 6.78699 0.29537 6.80615 0.148725 6.81573C0.0900668 6.82052 0.0289648 6.82052 0.00941208 6.73669C-0.0076965 6.66962 -0.000364246 6.56902 0.0460733 6.55943C0.261153 6.51632 0.214715 6.27679 0.310034 6.14265C0.583772 5.76419 0.987045 5.68754 1.36832 5.61089C2.08688 5.46238 2.825 5.47435 3.55089 5.39291C4.06415 5.33543 4.57985 5.32105 5.09555 5.30668L5.29352 5.2995L5.42795 5.29231C5.51838 5.28512 5.60636 5.27315 5.69679 5.2492C5.95098 5.18452 6.2125 5.21566 6.46424 5.12943C6.70376 5.04799 6.94572 5.07194 7.18524 4.94739C7.35633 4.85876 7.53475 4.90906 7.70828 4.85876C8.048 4.76055 8.39506 4.83241 8.73723 4.69827C8.74945 4.66474 8.76167 4.66474 8.77634 4.69827C9.06474 4.68869 9.35803 4.76295 9.64155 4.64318C9.86151 4.54976 10.0741 4.74378 10.2892 4.66953C10.5654 4.57372 10.8465 4.60965 11.1227 4.6815C11.4722 4.77253 11.8217 4.64318 12.1663 4.7869C12.4376 4.89708 12.7064 4.85636 12.9728 4.95218C13.1757 5.02643 13.381 5.00008 13.5839 5.07194C13.7183 5.11985 13.86 5.09829 13.9969 5.11266C14.234 5.13422 14.4686 5.22045 14.7081 5.23722C15.1212 5.26596 15.5318 5.32585 15.9448 5.35219C16.0353 5.35698 16.1257 5.36896 16.2161 5.37854L16.9787 5.41447C17.4968 5.43843 18.015 5.45519 18.5331 5.44322C18.7458 5.43843 18.9559 5.59652 19.1173 5.5558C19.3323 5.5031 19.5205 5.5558 19.7185 5.5534C20.244 5.54382 20.7548 5.61089 21.2729 5.7594C21.5442 5.83844 21.8717 5.8624 22.1748 5.87198C22.2921 5.87677 22.3874 5.87916 22.3239 6.10911C22.2628 6.33667 22.4901 6.39416 22.6538 6.44685C22.6734 6.40613 22.6856 6.35583 22.7125 6.3223C22.7712 6.25523 22.8396 6.2672 22.9031 6.31511C22.9227 6.32948 22.9471 6.3702 22.9447 6.38937L22.9349 6.41332ZM1.61273 5.88635C1.57851 5.88156 1.54918 5.87198 1.52474 5.87677C1.50764 5.87677 1.49541 5.90072 1.47831 5.9127C1.50519 5.91749 1.53208 5.92467 1.55896 5.92228C1.57607 5.92228 1.59073 5.90072 1.61273 5.88395V5.88635ZM3.17694 6.53069C3.20383 6.53788 3.23071 6.55225 3.2576 6.54985C3.2796 6.54985 3.29915 6.52829 3.32359 6.51392C3.29426 6.50674 3.26493 6.49236 3.24049 6.49476C3.21849 6.49476 3.19894 6.51871 3.17694 6.53069ZM3.56311 6.79897C3.37736 6.78699 3.26004 6.7798 3.11095 6.77022C3.24538 6.93789 3.36269 6.88999 3.56311 6.79897ZM5.95342 6.43488C5.95342 6.43488 5.96809 6.41332 5.97542 6.39895C5.9852 6.3702 5.98275 6.34146 5.97053 6.33667C5.9632 6.33427 5.95342 6.35583 5.94853 6.3726C5.93876 6.39895 5.9412 6.43009 5.95342 6.43488ZM5.51593 6.36062C5.55015 6.37739 5.57948 6.38937 5.60636 6.40374L5.61614 6.4229L5.60881 6.39655C5.57948 6.33667 5.55015 6.29116 5.51593 6.36302V6.36062ZM5.29841 5.84323C5.29841 5.84323 5.30574 5.86 5.31063 5.8624C5.31307 5.8624 5.31552 5.84802 5.31796 5.84084C5.31552 5.82647 5.31307 5.8097 5.30819 5.80491C5.29596 5.79054 5.29108 5.8073 5.29841 5.84563V5.84323ZM4.83403 6.36781C4.83403 6.36781 4.85114 6.38937 4.86092 6.39176C4.87314 6.39655 4.89269 6.39895 4.90247 6.39176C4.92691 6.36781 4.91469 6.34865 4.87314 6.35104C4.86092 6.35104 4.8487 6.36062 4.83403 6.36781ZM5.99742 6.73908L5.99008 6.64087C5.95098 6.64087 5.90943 6.6289 5.87032 6.64567C5.69679 6.72711 5.51838 6.66483 5.34485 6.66243C5.29841 6.66243 5.27152 6.66962 5.21287 6.68878C4.88291 6.74387 4.51875 6.89478 4.27923 6.4732C4.14969 6.49955 4.1668 6.63608 4.10081 6.69357C4.04948 6.73908 3.98349 6.76304 3.87351 6.82531C4.17902 6.81813 4.48208 6.80855 4.78271 6.80136C4.98557 6.79657 5.18598 6.79417 5.3864 6.78938C5.5917 6.78699 5.797 6.77262 5.99986 6.73669L5.99742 6.73908ZM6.62066 6.28876L6.62799 6.2696L6.63288 6.24325L6.62555 6.26002L6.62066 6.28876ZM6.53023 6.38218C6.53023 6.38218 6.53756 6.36541 6.54 6.35344C6.54 6.34386 6.54 6.32709 6.53756 6.31511C6.53267 6.31751 6.52778 6.31511 6.52534 6.32469C6.51556 6.35823 6.51801 6.38218 6.53267 6.38218H6.53023ZM6.30048 6.34386C6.3347 6.35583 6.37136 6.37979 6.40313 6.3223C6.36647 6.29355 6.33226 6.26241 6.30048 6.34386ZM6.09762 6.31272C6.1294 6.38458 6.15384 6.36781 6.17583 6.35823C6.1905 6.35104 6.1905 6.31751 6.17583 6.31272C6.15384 6.30313 6.1294 6.31272 6.09762 6.31272ZM6.68176 6.50195C6.59622 6.63369 6.51556 6.51632 6.45202 6.67201C6.32248 6.56901 6.19783 6.70794 6.07074 6.6792C6.20028 6.76783 6.32981 6.80855 6.45446 6.68399C6.52534 6.65285 6.61333 6.87801 6.67932 6.50195H6.68176ZM7.02882 5.41447L7.0386 5.42884V5.40729L7.02882 5.41447ZM6.88217 6.21451C6.90906 6.23846 6.93839 6.34386 6.96527 6.23846C6.93839 6.14265 6.90906 6.18816 6.88217 6.21451ZM6.7062 5.51987C6.7062 5.51987 6.72087 5.54621 6.7282 5.54621C6.73797 5.54621 6.74531 5.53424 6.75508 5.52705L6.73309 5.49831L6.7062 5.51987ZM6.84551 6.4253C6.81618 6.48997 6.7673 6.43009 6.73553 6.60974C6.78441 6.55225 6.8284 6.5762 6.84551 6.4253ZM7.10214 6.48278L7.09481 6.45404C7.08259 6.42051 7.07037 6.4253 7.05815 6.45404L7.03371 6.54985C6.98238 6.60255 6.92128 6.54985 6.8724 6.64087C6.84796 6.68878 6.83818 6.74866 6.85773 6.8349C6.8724 6.89957 6.89195 6.91873 6.90662 6.85645C6.94083 6.72232 7.00682 6.72471 7.03371 6.56183L7.05815 6.46602H7.08992L7.0997 6.48518L7.10214 6.48278ZM7.29767 6.65046C7.28545 6.44685 7.27567 6.24325 7.2219 6.066C7.2219 6.11151 7.2219 6.15702 7.2219 6.20253C7.22435 6.2696 7.21701 6.3223 7.21213 6.38218C7.18524 6.66483 7.18769 6.66722 7.30011 6.65046H7.29767ZM9.25294 6.20732C9.25294 6.20732 9.26027 6.18576 9.26027 6.17858C9.26027 6.15702 9.25538 6.13546 9.25049 6.1139V6.20493L9.25294 6.20732ZM9.22361 6.08516L9.25294 6.10911C9.24316 6.09235 9.23827 6.02288 9.22361 6.08516ZM9.12096 5.97737L9.13073 5.97019L9.1234 5.95342V5.97737H9.12096ZM9.02808 6.03486C9.02808 6.03486 9.03786 6.02049 9.03786 6.00612C9.03786 5.99653 9.03786 5.97977 9.03541 5.9654C9.03052 5.9654 9.02564 5.96539 9.02319 5.97258C9.01342 6.00612 9.01586 6.03007 9.03052 6.03246L9.02808 6.03486ZM8.90343 5.38812L8.93276 5.40968L8.96209 5.43124L8.97187 5.4504L8.96453 5.42405C8.9572 5.40729 8.94987 5.38333 8.94009 5.37375C8.92787 5.36177 8.91321 5.33303 8.90588 5.39052L8.90343 5.38812ZM8.73723 4.75336L8.74457 4.77732L8.74945 4.75576H8.73723V4.75336ZM8.35351 5.58214C8.36573 5.56538 8.37307 5.52466 8.38284 5.49591C8.37307 5.46717 8.36818 5.44322 8.36085 5.42166C8.35351 5.45759 8.34374 5.48873 8.33885 5.52705C8.33396 5.56298 8.34374 5.59652 8.35351 5.58214ZM8.11155 5.28752L8.12133 5.30189V5.27315L8.11155 5.28752ZM8.01867 5.2971L8.02845 5.30908V5.28273L8.01867 5.29471V5.2971ZM7.89891 6.09235C7.97712 6.07079 8.05778 6.21451 8.14577 6.09235C8.05289 5.94384 7.97712 6.09235 7.89891 6.09235ZM7.81337 5.28992C7.81093 5.31626 7.81826 5.32824 7.83048 5.31626C7.83292 5.31387 7.83537 5.30189 7.84026 5.29471L7.82804 5.27794C7.82804 5.27794 7.81581 5.28033 7.81581 5.28992H7.81337ZM7.73516 6.1187C7.73516 6.13546 7.74738 6.15463 7.75716 6.17618C7.76938 6.15942 7.78893 6.14983 7.79137 6.1187C7.79871 6.04684 7.77671 6.06839 7.76449 6.066C7.75227 6.066 7.73516 6.05642 7.73516 6.1163V6.1187ZM7.6154 5.37854L7.62518 5.36178C7.62762 5.33064 7.65206 5.36657 7.64473 5.2971L7.62273 5.35219L7.6154 5.37615V5.37854ZM7.40765 6.53309C7.40765 6.49955 7.40276 6.4756 7.39054 6.48039C7.38321 6.48278 7.37588 6.50195 7.36855 6.51153C7.37344 6.53309 7.38077 6.56901 7.38566 6.57141C7.39299 6.57381 7.40032 6.54506 7.40765 6.53069V6.53309ZM7.53719 6.08037C7.51519 6.07318 7.50053 6.09714 7.48831 6.14744C7.45653 6.12588 7.42476 6.03246 7.39054 6.12109C7.42476 6.26241 7.45653 6.22888 7.49075 6.15223C7.50297 6.1139 7.53475 6.18576 7.53719 6.08037ZM7.91358 6.8852L7.9038 6.87083V6.89238L7.91358 6.8828V6.8852ZM8.13355 7.00017L8.12621 7.01694C8.12133 7.04808 8.09933 7.01454 8.10666 7.07922L8.1311 7.02413L8.13599 6.99778L8.13355 7.00017ZM8.26797 6.42769C8.20442 6.36302 8.13599 6.52829 8.08222 6.42051C8.00156 6.26002 7.93802 6.37978 7.86714 6.43248C7.7596 6.28397 7.66428 6.44925 7.56652 6.50195C7.65939 6.58099 7.74982 6.61453 7.84026 6.54027C7.85248 6.57141 7.86225 6.5762 7.87203 6.53548C8.01379 6.72711 8.14088 6.56902 8.27041 6.4253L8.26797 6.42769ZM8.44639 6.03007L8.46105 6.02528H8.47572C8.4635 5.98695 8.45372 5.98695 8.44394 6.02528C8.36329 5.92947 8.29241 5.97977 8.22886 6.12828L8.22153 6.10432L8.22886 6.13546C8.25575 6.19774 8.28752 6.3199 8.31685 6.21211C8.35351 6.08516 8.41217 6.14504 8.44639 6.03007ZM8.45128 6.91394H8.44394L8.44883 6.94268V6.91394H8.45128ZM8.65414 7.05526L8.64436 7.06245L8.65414 7.07682V7.05526ZM8.71524 6.69118L8.70546 6.70794C8.70057 6.73908 8.67858 6.70315 8.68591 6.77022L8.71035 6.71513L8.71524 6.68878V6.69118ZM8.791 6.34625C8.77634 6.14744 8.71524 6.28158 8.67369 6.30553C8.62725 6.33188 8.57592 6.3726 8.57592 6.12588L8.58081 6.09714L8.57348 6.1163C8.54171 6.38458 8.43417 6.31032 8.38529 6.51871C8.48794 6.43727 8.59303 6.5786 8.6908 6.49955C8.7299 6.46841 8.80811 6.55225 8.79345 6.34386L8.791 6.34625ZM8.835 6.10672C8.78367 5.85282 8.72257 5.9654 8.66391 5.99893C8.71768 6.1163 8.78123 6.00612 8.835 6.10672ZM8.89121 6.43488C8.89121 6.43488 8.88632 6.40613 8.88144 6.40134C8.87899 6.39655 8.8741 6.40613 8.86922 6.41092C8.86922 6.4253 8.86922 6.44685 8.87166 6.45404C8.88388 6.48518 8.89121 6.47799 8.89121 6.43488ZM8.92054 5.92228C8.92054 5.92228 8.91321 5.92947 8.91321 5.93665C8.91321 5.963 8.90832 5.98935 8.90832 6.01809L8.90343 6.04444L8.91076 6.02528L8.92298 5.92467L8.92054 5.92228ZM9.31893 6.53309L9.2896 6.50434C9.27249 6.41332 9.25538 6.3199 9.25294 6.20972C9.16251 6.29116 9.06963 6.3702 8.94987 6.47799C9.08429 6.55464 9.18695 6.59057 9.2896 6.50674C9.29937 6.51871 9.30426 6.59536 9.31893 6.53309ZM9.76619 5.57017L9.77597 5.56298L9.76619 5.54861V5.57017ZM9.66843 5.97977C9.66843 5.97977 9.68798 5.963 9.69287 5.94144C9.69776 5.9103 9.69287 5.88635 9.68065 5.89593C9.67087 5.90312 9.6611 5.91509 9.65621 5.93665C9.64888 5.95821 9.65621 5.97737 9.67087 5.97737L9.66843 5.97977ZM9.40447 6.01091C9.46802 6.12349 9.5169 6.00851 9.56822 5.91509C9.52667 5.93905 9.49001 5.9127 9.45091 5.87437C9.41913 5.84323 9.40936 5.92947 9.40447 6.0133V6.01091ZM9.84929 6.17379L9.84196 6.19535C9.69287 6.18337 9.556 6.3199 9.39469 6.38697C9.49734 6.66962 9.59755 6.48997 9.68798 6.56901C9.77841 6.64566 9.83463 6.50434 9.8444 6.20253L9.84929 6.17379ZM14.256 5.71389L14.2658 5.72826V5.70431L14.256 5.71389ZM14.2169 6.41811C14.2413 6.4229 14.2658 6.46841 14.2902 6.40374C14.2658 6.36302 14.2389 6.36781 14.2169 6.41811ZM13.9676 5.7594V5.79054L13.9749 5.76179H13.9676V5.7594ZM13.8063 6.30793C13.8063 6.30793 13.8209 6.33667 13.8283 6.33667C13.838 6.33667 13.8454 6.32469 13.8576 6.31511C13.8503 6.30313 13.8429 6.28637 13.8356 6.28637C13.8258 6.28637 13.8185 6.29834 13.8087 6.30553L13.8063 6.30793ZM13.75 5.67796L13.7574 5.68275V5.64921L13.75 5.67556V5.67796ZM13.5594 6.48997C13.5594 6.53309 13.5643 6.54746 13.5765 6.52829C13.5814 6.4756 13.5863 6.41571 13.5863 6.35583C13.5863 6.32469 13.5716 6.3199 13.5667 6.35583C13.5619 6.39655 13.5594 6.44446 13.5594 6.48997ZM13.3859 5.62286C13.4445 5.6564 13.4788 5.67796 13.513 5.61568C13.4763 5.55819 13.4445 5.59173 13.3859 5.62286ZM13.2368 6.0157L13.2441 6.03007V6.00851L13.2368 6.0157ZM13.1757 6.49236L13.183 6.4732C13.2343 6.41332 13.2857 6.35583 13.3688 6.26241C13.2735 6.25523 13.2172 6.28876 13.1806 6.46602L13.1757 6.49236ZM13.029 5.33064L13.0559 5.35459L13.0779 5.32345C13.0779 5.32345 13.0608 5.2995 13.051 5.30189C13.0437 5.30189 13.0364 5.32105 13.029 5.33064ZM12.8946 5.52226L12.902 5.53663V5.51508L12.8946 5.52226ZM12.55 5.59891C12.5573 5.62766 12.5671 5.62286 12.5744 5.59412C12.5744 5.57975 12.5744 5.56059 12.572 5.551C12.5647 5.52226 12.5549 5.52466 12.5476 5.55819C12.5476 5.56777 12.5476 5.59173 12.5476 5.60131L12.55 5.59891ZM12.5109 5.86719L12.5158 5.89593V5.86719H12.5109ZM12.3936 6.19535C12.3936 6.24804 12.4058 6.28158 12.4205 6.29355C12.44 6.28397 12.4498 6.24565 12.4522 6.19535C12.4522 6.13546 12.44 6.10911 12.4229 6.10911C12.4058 6.10911 12.3911 6.13307 12.3936 6.19535ZM12.2616 5.56538V5.59652L12.2689 5.57017L12.2616 5.56538ZM12.2176 5.83605L12.2274 5.82886L12.2176 5.81449V5.83605ZM12.0563 5.43124L12.0661 5.44322V5.42166L12.0563 5.43124ZM11.9659 5.34501L11.9756 5.33782L11.9659 5.32345V5.34501ZM11.9561 6.1187C11.9561 6.1187 11.9683 6.07797 11.9756 6.05642C11.9708 6.04205 11.9634 6.0133 11.9585 6.0133C11.9512 6.0133 11.9365 6.03007 11.9341 6.04923C11.9292 6.11151 11.9414 6.13307 11.9585 6.1187H11.9561ZM11.8486 6.13786L11.8583 6.13067L11.8486 6.1163V6.13786ZM11.6261 5.32824C11.6261 5.32824 11.631 5.3498 11.6359 5.35219C11.6408 5.35698 11.6457 5.35938 11.6506 5.35219C11.6604 5.33064 11.6555 5.31387 11.6408 5.31387C11.6359 5.31387 11.631 5.32345 11.6286 5.32824H11.6261ZM11.5993 6.29595L11.6066 6.27679L11.6115 6.25044L11.6041 6.26721L11.5993 6.29595ZM11.5308 5.3474L11.5406 5.33543L11.5308 5.32345V5.34501V5.3474ZM11.4648 6.05402C11.4648 6.05402 11.4746 6.04444 11.4771 6.03965C11.4746 6.03246 11.4722 6.01809 11.4673 6.0157C11.4624 6.01091 11.4575 6.00851 11.4526 6.0157C11.4428 6.03725 11.4477 6.05402 11.4624 6.05402H11.4648ZM11.2815 5.25159L11.2913 5.2444L11.284 5.23003V5.25159H11.2815ZM10.822 5.93665L10.8294 5.95102V5.92947L10.822 5.93665ZM10.651 5.58694L10.6558 5.61568V5.58694H10.651ZM10.4285 6.09235C10.4408 6.07558 10.4579 6.06839 10.4676 6.03965C10.4774 6.0133 10.4676 5.97498 10.4579 5.99414C10.4456 6.01809 10.4383 6.05881 10.4285 6.09235ZM10.1206 5.9606C10.1353 5.9654 10.1499 5.97737 10.1646 5.97737C10.1792 5.97737 10.1817 5.94863 10.1792 5.93426C10.1621 5.85761 10.1475 5.87437 10.1353 5.90072C10.1279 5.91509 10.1255 5.94144 10.1206 5.963V5.9606ZM10.0082 5.97258C10.0057 6.0157 10.0106 6.03246 10.0228 6.0133C10.0253 6.00851 10.0277 5.98695 10.0302 5.97498C10.0277 5.96779 10.0228 5.95102 10.0204 5.95342C10.0155 5.95342 10.0082 5.96539 10.0082 5.97498V5.97258ZM10.1426 6.97382C10.123 6.87322 10.0913 6.9355 10.0693 6.9882L10.0644 7.01694L10.0717 6.99778C10.101 7.03371 10.1084 7.10557 10.1059 7.19419C10.1059 7.20377 10.0986 7.21336 10.0986 7.22294C10.0986 7.24449 10.1035 7.26366 10.1059 7.28282L10.123 7.37863L10.1108 7.27084C10.1059 7.24929 10.1059 7.22533 10.1108 7.20377C10.123 7.12712 10.1621 7.06485 10.1426 6.97382ZM10.3161 6.9331L10.3039 6.91634C10.3039 6.91634 10.2917 6.91873 10.2917 6.92831C10.2892 6.95466 10.2941 6.96664 10.3088 6.95466C10.3112 6.95227 10.3137 6.94029 10.3186 6.9331H10.3161ZM10.5263 7.21336C10.5214 7.17024 10.5165 7.17503 10.5141 7.22533C10.5141 7.2397 10.5141 7.25408 10.5165 7.26605C10.519 7.26366 10.5239 7.26126 10.5239 7.25647C10.5239 7.2421 10.5239 7.22533 10.5239 7.21336H10.5263ZM11.0053 7.14868L10.998 7.17264C10.9858 7.19419 10.9711 7.20856 10.9638 7.2421C10.9589 7.26605 10.9736 7.30917 10.9785 7.29001C10.9882 7.26366 10.9907 7.21575 10.998 7.17503L11.0053 7.14629V7.14868ZM11.5675 7.06724C11.5675 7.06724 11.5602 7.05766 11.5553 7.05287C11.5528 7.06245 11.5479 7.07443 11.5479 7.0864C11.5479 7.12952 11.5553 7.13671 11.565 7.10796C11.5675 7.10078 11.5675 7.07922 11.565 7.06724H11.5675ZM11.9439 7.496L11.8925 7.56307L11.8877 7.59182L11.895 7.57505C11.895 7.57505 11.9048 7.56786 11.9072 7.55828C11.917 7.52714 11.9439 7.58942 11.9414 7.4984L11.9439 7.496ZM12.3105 7.6996C12.308 7.59421 12.286 7.58702 12.264 7.58702C12.2518 7.58702 12.2249 7.57984 12.2421 7.6493C12.2543 7.702 12.2421 7.84811 12.2836 7.80021C12.2958 7.78823 12.3032 7.73074 12.308 7.702L12.3105 7.6996ZM12.3154 7.10796L12.2909 7.16305L12.2836 7.1918L12.2934 7.17024C12.2983 7.1415 12.3227 7.17982 12.3154 7.11036V7.10796ZM12.858 7.60858L12.8482 7.59421V7.61577L12.858 7.60858ZM13.1195 7.68284L13.1121 7.66368C13.1121 7.67805 13.1073 7.69242 13.1073 7.7044C13.1073 7.7523 13.1146 7.76188 13.1195 7.72595C13.1195 7.71398 13.1195 7.69721 13.1195 7.68044V7.68284ZM13.8087 7.49361L13.7989 7.4984L13.8063 7.51277V7.49121L13.8087 7.49361ZM13.9676 6.97382C13.9358 6.82292 13.8796 6.89717 13.8625 6.75345C13.8674 6.72471 13.8894 6.71513 13.8723 6.66243L13.8576 6.74627C13.7745 6.66722 13.6987 6.80376 13.6181 6.82771C13.5472 6.84687 13.5032 6.90436 13.4934 6.60015C13.491 6.49237 13.4519 6.45404 13.4421 6.62171C13.4397 6.66722 13.4397 6.75345 13.425 6.7319C13.3321 6.59057 13.2466 6.85885 13.1561 6.74627C13.1073 6.64806 13.0535 6.66722 13.0095 6.74148C12.9631 6.82292 12.9459 6.40374 12.8922 6.68878C12.88 6.75824 12.8531 6.64087 12.8506 6.55464C12.8482 6.41332 12.9191 6.33427 12.8824 6.15463C12.8213 6.20493 12.7284 6.08037 12.726 6.44446C12.7406 6.45883 12.7578 6.46123 12.7675 6.48757C12.7797 6.51153 12.7944 6.57381 12.792 6.59536C12.7797 6.68399 12.7602 6.63848 12.7455 6.59536C12.7333 6.56422 12.726 6.52111 12.7162 6.48278C12.7089 6.48278 12.7015 6.48278 12.6942 6.48278C12.6893 6.49237 12.6869 6.50674 12.682 6.51153C12.682 6.51153 12.6747 6.49236 12.6747 6.48997C12.6747 6.4756 12.6795 6.46362 12.6844 6.45164C12.616 6.34386 12.6209 6.70076 12.5524 6.64087C12.4205 6.5235 12.2738 6.72232 12.1492 6.40853C12.1321 6.36302 12.1003 6.39416 12.0783 6.44446L12.1125 6.51153C12.0954 6.58099 12.0832 6.51392 12.0685 6.48757C11.917 6.56422 11.7606 6.50434 11.609 6.53548C11.5993 6.53548 11.5895 6.55943 11.5797 6.57141C11.5602 6.4756 11.5406 6.3702 11.499 6.37499C11.3842 6.38458 11.3842 6.38697 11.3671 6.06839C11.3329 6.09714 11.3231 6.22169 11.284 6.26241C11.1153 6.44206 10.9418 6.45164 10.7658 6.36781C10.7194 6.34625 10.6778 6.2696 10.6705 6.08516C10.6681 5.99893 10.6534 5.91988 10.6192 5.9654C10.5972 5.99414 10.5825 6.0133 10.5972 6.13786C10.6241 6.36302 10.5556 6.36302 10.5165 6.35823C10.4725 6.35344 10.4505 6.20972 10.431 6.09474C10.4041 6.08756 10.365 5.96539 10.3552 6.1163C10.3381 6.40134 10.2795 6.36781 10.2183 6.3223C10.1133 6.24086 10.0106 6.31032 9.90795 6.34386C9.9275 6.57141 9.95928 6.61932 10.0228 6.59057C10.1621 6.52829 10.299 6.43727 10.4432 6.58099C10.5092 6.64567 10.5825 6.66004 10.6534 6.59776C10.7438 6.51871 10.7438 6.53548 10.8807 6.74387C10.9027 6.7798 10.932 6.75824 10.9516 6.69118C10.976 6.59536 11.0273 6.51392 11.042 6.58578C11.0958 6.8828 11.1569 6.65285 11.2155 6.66243C11.3377 6.68399 11.4551 6.48039 11.5797 6.5762C11.6237 6.68878 11.6775 6.64806 11.7263 6.65285C11.8021 6.66004 11.8754 6.66962 11.9488 6.75345C11.9512 6.74627 11.9561 6.73429 11.9585 6.7319C11.9585 6.7319 11.9659 6.74627 11.9659 6.75106C11.9659 6.76304 11.961 6.77501 11.9585 6.78699C12.0367 6.79417 12.1125 6.71513 12.1907 6.74627C12.4009 6.82292 12.6136 6.87562 12.8237 6.9355C12.8848 6.95227 12.9533 6.91394 13.0046 6.99059C13.0388 7.0385 13.0462 7.11275 13.0755 6.99059C13.095 6.90196 13.1268 6.84208 13.1537 6.76783C13.1586 6.84927 13.1708 6.92592 13.2001 6.9331C13.2832 6.95706 13.3639 7.06964 13.4494 6.97382C13.4934 6.92352 13.5472 6.88759 13.5839 7.06245L13.579 7.0888L13.5863 7.07203C13.623 7.0361 13.6596 6.96903 13.6963 7.09598C13.7158 7.16305 13.7672 7.22054 13.7769 7.16784C13.8209 6.93789 13.8967 7.01454 13.9651 6.98101L13.9676 6.97382ZM14.0116 6.48278C14.0091 6.42769 14.0165 6.34625 13.9847 6.35344C13.9749 6.35344 13.9627 6.3702 13.9602 6.39176C13.948 6.47081 13.9773 6.48757 13.9871 6.52829C14.0042 6.58578 14.0091 6.53309 14.0116 6.48518V6.48278ZM14.0702 7.43372C14.0702 7.41217 14.0629 7.39061 14.0604 7.36666C14.0482 7.40019 14.0385 7.42893 14.0287 7.46726C14.0213 7.496 14.0287 7.51756 14.0409 7.51996C14.058 7.51517 14.0702 7.48882 14.0727 7.43372H14.0702ZM14.168 5.71868C14.124 5.68754 14.0849 5.65879 14.0311 5.757C14.0922 5.80491 14.1264 5.757 14.168 5.71868ZM14.388 7.14389C14.3635 6.96424 14.3073 6.97143 14.3146 6.82052C14.3195 6.74627 14.2975 6.68399 14.2804 6.75345C14.2364 6.92831 14.1558 6.86124 14.0873 7.1415C14.1998 7.05047 14.2853 7.00496 14.388 7.1415V7.14389ZM14.3928 5.53424L14.3806 5.51987C14.3806 5.51987 14.3708 5.54142 14.3708 5.551C14.3708 5.59891 14.3782 5.6061 14.388 5.57496C14.3904 5.56538 14.3904 5.54861 14.3928 5.53424ZM14.4711 6.96664L14.4662 6.9355L14.4613 6.96664H14.4686H14.4711ZM14.4979 6.3702C14.4979 6.3702 14.4931 6.34625 14.4906 6.34625C14.4857 6.34625 14.4808 6.35823 14.4784 6.3702C14.4735 6.40853 14.4784 6.4229 14.4906 6.40613C14.4931 6.40134 14.4955 6.38218 14.4979 6.3702ZM14.5786 6.70076L14.5688 6.70794L14.5761 6.72232V6.70076H14.5786ZM14.6959 5.75221C14.7448 5.81928 14.7692 5.757 14.7888 5.56777C14.7032 5.56777 14.6226 5.56777 14.5419 5.56777C14.5322 5.52945 14.5199 5.53184 14.5102 5.56298L14.5028 5.59412L14.5102 5.57017H14.5248H14.5395C14.5908 5.63005 14.6421 5.68275 14.6935 5.74982L14.6959 5.75221ZM14.7252 6.37739C14.7252 6.37739 14.7252 6.41092 14.7277 6.41571C14.7301 6.42051 14.7375 6.41332 14.7399 6.40853C14.7399 6.39416 14.7472 6.37499 14.7448 6.36781C14.7375 6.33667 14.7301 6.33906 14.7228 6.37739H14.7252ZM14.8768 6.94747C14.8132 6.87562 14.7399 7.00496 14.7252 6.69836C14.6837 6.86843 14.7252 6.99778 14.7252 7.11754C14.6617 7.24929 14.6812 6.92831 14.6324 6.96424C14.6177 7.20377 14.6739 7.2397 14.7228 7.25887C14.7961 7.28761 14.8401 7.14629 14.8743 6.94508L14.8768 6.94747ZM14.8792 7.51277C14.8621 7.51996 14.8597 7.57265 14.8523 7.61337C14.845 7.6517 14.8499 7.69481 14.8572 7.68523C14.8694 7.66847 14.8792 7.62775 14.8865 7.58942C14.8939 7.55589 14.8914 7.52714 14.8792 7.51277ZM14.9794 6.94987C14.9794 6.92113 14.9721 6.8852 14.9672 6.87322C14.9501 6.83969 14.9452 6.89717 14.9403 6.9331C14.9354 6.9834 14.9403 7.01933 14.9574 7.03131C14.9721 7.02892 14.9868 7.01454 14.9819 6.95227L14.9794 6.94987ZM15.0527 5.94623C15.0527 5.94623 15.0479 5.91749 15.043 5.91749C15.0283 5.9127 15.0259 5.93426 15.0356 5.96779C15.0381 5.97737 15.043 5.97737 15.0479 5.98216C15.0479 5.97019 15.0503 5.95581 15.0527 5.94623ZM15.3289 7.6014C15.3216 7.58223 15.3167 7.5487 15.3069 7.54391C15.2947 7.53672 15.2898 7.57265 15.2972 7.60858C15.302 7.63254 15.3094 7.66128 15.3167 7.66607C15.3289 7.67086 15.3314 7.63972 15.3265 7.6014H15.3289ZM15.3314 7.07682C15.3167 6.95227 15.2825 6.98101 15.2556 7.00496C15.2361 7.02173 15.2287 7.09359 15.2214 7.15347C15.1578 7.14629 15.1554 7.01454 15.1627 6.85885L15.1701 6.8325L15.1603 6.85406C15.1285 6.96903 15.0967 7.08401 15.0625 7.20377C15.1285 7.39061 15.175 7.26126 15.2238 7.15826C15.2385 7.1415 15.2507 7.11515 15.2654 7.11275C15.2874 7.11036 15.2996 7.24449 15.3265 7.16545C15.3314 7.14868 15.3338 7.10078 15.3314 7.07682ZM15.1505 5.97258V5.94144L15.1432 5.97019H15.1505V5.97258ZM15.3534 6.43488L15.346 6.45883H15.2849C15.2825 6.43009 15.28 6.40374 15.2776 6.37739C15.2776 6.3702 15.2703 6.36781 15.2703 6.36781C15.2629 6.41811 15.2776 6.43727 15.2849 6.46602C15.3069 6.54506 15.3265 6.53069 15.3485 6.46602L15.3534 6.43488ZM15.3974 5.78096C15.2898 5.52226 15.1945 5.61807 15.1016 5.66359C15.0943 5.64682 15.087 5.62286 15.0772 5.61328C15.065 5.60131 15.0503 5.57496 15.043 5.63724C15.0527 5.64442 15.0625 5.654 15.0699 5.66119C15.0796 5.66598 15.0894 5.66838 15.0992 5.67317C15.1872 5.90312 15.2849 5.71628 15.3974 5.78335V5.78096ZM15.4536 6.9882C15.4536 6.9882 15.4438 6.99778 15.4414 7.00257C15.4438 7.01215 15.4462 7.02652 15.4487 7.02892C15.4536 7.03371 15.4609 7.0361 15.4634 7.02892C15.4731 7.00257 15.4682 6.9858 15.4536 6.9858V6.9882ZM15.5391 5.89354L15.5049 5.76179C15.5049 5.73305 15.5049 5.70431 15.5049 5.67556L15.5122 5.64682L15.5025 5.66598C15.5025 5.66598 15.4951 5.68993 15.4951 5.69951C15.4951 5.72347 15.5 5.74503 15.5025 5.76898C15.5147 5.8073 15.5025 5.93665 15.5416 5.89114L15.5391 5.89354ZM15.5636 6.99538L15.5538 7.00736L15.5636 7.02173V6.99538ZM15.5709 6.29116L15.566 6.26241C15.5538 6.24565 15.5416 6.2193 15.5269 6.2193C15.5171 6.2193 15.5122 6.272 15.522 6.27918C15.5342 6.29116 15.5489 6.27439 15.5636 6.272L15.5709 6.29116ZM15.5807 7.26126V7.23012L15.5733 7.26126H15.5807ZM17.4577 6.33906C17.5702 6.15942 17.6141 6.02288 17.729 5.93905C17.795 5.89114 17.8072 5.79054 17.729 5.73544C17.6581 5.68514 17.5873 5.72826 17.5506 5.8097C17.4846 5.94863 17.4113 6.08995 17.4577 6.33906ZM17.4357 6.51632L17.4602 6.53309L17.4651 6.51153L17.4382 6.51632H17.4357ZM17.0911 5.99893C17.1229 6.04205 17.1644 5.98456 17.1718 5.93665C17.1791 5.87677 17.1913 5.8097 17.1351 5.76658C17.1131 5.78335 17.0764 5.79772 17.0764 5.81689C17.074 5.87916 17.0642 5.9606 17.0936 5.99893H17.0911ZM16.7294 6.0133C16.7685 6.01809 16.7832 5.99893 16.7734 5.95581L16.7465 5.82647C16.7269 5.84563 16.7001 5.86479 16.6927 5.88874C16.6829 5.93426 16.6878 5.98456 16.7294 6.0133ZM16.3701 6.81573L16.397 6.8301V6.80136L16.3701 6.81573ZM16.3114 6.21211C16.3114 6.21211 16.331 6.23367 16.3408 6.23607C16.353 6.24086 16.3677 6.23607 16.3799 6.23367C16.3848 6.23367 16.3848 6.21451 16.3848 6.20493L16.3114 6.21211ZM16.0206 5.79772L16.0304 5.77856L16.0597 5.72826L16.0279 5.77137L16.0206 5.80012V5.79772ZM16.0573 6.00612V6.02767L16.0646 6.02049L16.0573 6.00612ZM15.8935 5.94863C15.8935 6.00132 15.9033 6.03965 15.918 5.98935C15.9253 5.963 15.9228 5.90551 15.9228 5.8624C15.9228 5.84802 15.9106 5.83605 15.8984 5.81928C15.8984 5.86479 15.8935 5.90551 15.8935 5.94623V5.94863ZM15.6295 5.71149L15.6198 5.71868L15.6271 5.73544V5.71149H15.6295ZM15.6687 7.05287C15.6662 7.04089 15.6638 7.01933 15.6613 7.01694C15.6491 7.00736 15.6418 7.02413 15.6418 7.06245C15.6418 7.07443 15.6467 7.09598 15.6491 7.09838C15.6613 7.11036 15.6687 7.09119 15.6687 7.05287ZM15.7518 7.01454L15.7444 6.99778V7.02173L15.7518 7.01454ZM15.7591 6.23607C15.7591 6.23607 15.7346 6.19774 15.7224 6.20253C15.7102 6.20732 15.698 6.24325 15.6858 6.26721L15.6515 6.46123L15.6467 6.49236L15.654 6.46602H15.6858L15.6931 6.48997L15.6882 6.45883V6.272C15.6882 6.272 15.7078 6.27679 15.7175 6.272C15.7322 6.26481 15.7542 6.33906 15.7591 6.23367V6.23607ZM15.7884 5.74503L15.7786 5.76898L15.7713 5.79772L15.7811 5.77377L15.7884 5.74742V5.74503ZM16.5876 7.50558L16.5607 7.49121V7.51517L16.5876 7.50558ZM16.5754 7.32114V7.2924L16.5485 7.30438L16.5754 7.32114ZM17.1278 7.00017C17.1107 6.95227 17.0593 6.92352 17.0202 6.95706C16.7929 7.15826 16.5387 7.0361 16.3579 6.9331C16.3261 6.91394 16.2943 6.89957 16.2626 6.88759C16.2332 6.87562 16.199 6.86843 16.1966 6.86364C16.177 6.85406 16.1575 6.85645 16.1404 6.86843C16.1061 6.89238 16.0744 6.95706 16.0402 7.03371C16.0304 7.05766 16.0059 7.01694 16.0011 7.06006H15.9962C15.9644 6.96185 15.9155 6.86364 15.9962 6.76543L16.0035 6.79178L15.9962 6.76064C15.9962 6.64567 16.0133 6.5786 16.0499 6.55225C16.0573 6.54506 16.1013 6.57141 16.067 6.46362C16.0304 6.35104 15.9228 6.40853 15.9326 6.51632C15.9693 6.85885 15.8617 6.89238 15.8226 7.12712C15.8593 7.10557 15.896 7.07682 15.9986 7.07922C15.9986 7.0864 15.9986 7.09598 15.9986 7.10796C16.0035 7.20617 16.0279 7.23012 16.0573 7.1918C16.1208 7.11036 16.1844 7.11036 16.0964 7.0864C16.1257 7.09119 16.1575 7.09599 16.1966 7.10317C16.2968 7.11275 16.4092 7.11994 16.5339 7.13191C16.6634 7.13191 16.854 7.1391 17.0422 7.13191C17.1033 7.13191 17.1571 7.0864 17.1253 7.00257L17.1278 7.00017ZM17.0153 6.26241L16.9909 6.24325L17.008 6.2696C17.0593 6.3702 17.0593 6.44685 16.942 6.48757C16.8736 6.51153 16.8076 6.54267 16.7416 6.56901C16.7221 6.54985 16.7049 6.52111 16.683 6.50913C16.6487 6.49236 16.6096 6.4732 16.5803 6.5235C16.6072 6.53309 16.6316 6.54027 16.6585 6.54985C16.6829 6.55943 16.7098 6.56902 16.7343 6.5786C16.7416 6.65285 16.7489 6.79417 16.7563 6.79417C16.9371 6.79417 17.0984 6.70794 17.1815 6.53309C17.2573 6.37499 17.118 6.31511 17.0153 6.26002V6.26241ZM17.7632 7.10317C17.5775 6.92352 17.4699 6.99538 17.3477 7.10557C17.4871 7.26845 17.5995 7.16545 17.7632 7.10317ZM18.125 7.06245H18.1005L18.1127 7.09119L18.125 7.06245ZM18.1592 6.76064C17.9294 6.53069 17.7535 6.71273 17.5702 6.85406C17.7632 6.80136 17.9563 6.77022 18.1592 6.76064ZM18.1763 6.3199C18.1738 6.30793 18.1763 6.29116 18.169 6.28158C18.1421 6.24565 18.1225 6.25044 18.1176 6.29355C18.1176 6.30313 18.1298 6.3199 18.1396 6.32469C18.1494 6.32948 18.1641 6.3223 18.1763 6.3199ZM18.3254 7.41696L18.2374 7.46726L18.2178 7.49361L18.2447 7.47445L18.3254 7.41696ZM18.5502 5.78814C18.4794 5.76898 18.4622 5.84563 18.4207 5.88156L18.3351 5.97977C18.3083 5.98456 18.2789 5.98456 18.2521 5.97977L18.2252 5.95581L18.2496 5.98456C18.2789 6.02049 18.3083 6.02049 18.34 5.98456L18.428 5.88874C18.4671 5.86719 18.5062 5.85042 18.5429 5.82647C18.5502 5.82168 18.5502 5.78814 18.5478 5.78814H18.5502ZM18.8777 6.04444C18.9291 5.99653 18.9828 5.92707 18.9804 5.82168C18.9804 5.80012 18.9437 5.76179 18.9266 5.76179C18.8264 5.76898 18.7726 5.84563 18.7604 5.94623C18.7531 5.99653 18.7995 6.02767 18.8777 6.04444ZM18.8802 7.10078C18.8728 7.0888 18.868 7.06724 18.8582 7.06245C18.8215 7.04808 18.8069 7.06724 18.8215 7.10796C18.8264 7.11754 18.8435 7.12712 18.8557 7.12712C18.8631 7.12712 18.8728 7.11036 18.8802 7.10078ZM18.9975 6.34146L18.9731 6.26241C18.9266 6.29116 18.8777 6.31751 18.8313 6.35104C18.8289 6.35344 18.846 6.41811 18.8606 6.4229C18.9242 6.44446 18.9633 6.39895 18.9951 6.34146H18.9975ZM19.1417 6.81573L19.1124 6.82531L19.1368 6.84208L19.1417 6.81573ZM19.3446 6.0133C19.3861 6.02528 19.4277 5.98216 19.4081 5.93426C19.3934 5.90072 19.3446 5.88395 19.3128 5.8624C19.2932 5.88635 19.2639 5.91749 19.2663 5.92228C19.2883 5.95821 19.3128 6.00372 19.3446 6.0133ZM19.3983 6.48278C19.3739 6.46362 19.413 6.39176 19.347 6.40613L19.3934 6.48757C19.4008 6.51392 19.4057 6.54027 19.413 6.56662C19.413 6.57381 19.4277 6.5762 19.435 6.58099C19.4545 6.53309 19.4203 6.51153 19.3959 6.48278H19.3983ZM19.7087 5.95581C19.7087 5.95581 19.6843 5.94144 19.6721 5.93426C19.6647 5.94384 19.6476 5.95342 19.6501 5.963C19.6501 5.97737 19.6598 5.99893 19.6721 6.00132C19.7087 6.0157 19.7234 5.99653 19.7087 5.95581ZM20.1291 6.1163L20.1047 6.08995L20.0802 6.0636L20.1022 6.09235L20.1291 6.1163ZM20.4713 6.06839L20.4151 6.02049L20.3564 6.066C20.376 6.08516 20.3931 6.12109 20.4126 6.12109C20.4322 6.12109 20.4517 6.08756 20.4713 6.06839ZM21.0114 6.1187L20.9894 6.09235L20.9381 5.97977L20.8868 6.03486L20.987 6.09474L21.0139 6.1187H21.0114ZM21.2778 6.17618C21.2778 6.13546 21.2778 6.066 21.2558 6.05642C21.2094 6.03486 21.1947 6.08756 21.1898 6.10432C21.1801 6.18097 21.1898 6.22648 21.2363 6.23846C21.2461 6.24086 21.2754 6.20014 21.2754 6.17618H21.2778Z" fill="currentColor"/>
<path d="M11.3231 7.44574C11.3231 7.44574 11.3206 7.4673 11.3182 7.47928L11.328 7.49125L11.3328 7.45532C11.3328 7.45532 11.3231 7.44095 11.3231 7.44574Z" fill="currentColor"/>
<path d="M19.9409 7.23735C19.9409 7.23735 19.9189 7.25411 19.9091 7.2613C19.7429 7.22537 19.5767 7.33795 19.4057 7.21579C19.2908 7.13435 19.2272 7.26369 19.215 7.39065C19.2052 7.50323 19.1881 7.63497 19.2712 7.71162C19.3763 7.80743 19.4545 7.69246 19.5352 7.62778C19.5694 7.60143 19.6134 7.58946 19.655 7.57269L19.6794 7.54634L19.6574 7.57509C19.8627 7.67569 19.8945 7.64215 19.9385 7.29244C19.9458 7.28046 19.9556 7.27088 19.9605 7.25651C19.9605 7.25172 19.9458 7.23495 19.9434 7.23735H19.9409Z" fill="currentColor"/>
<path d="M19.1246 7.86255C19.1026 7.86734 19.0757 7.87213 19.0415 7.87453C19.0611 7.87453 19.0879 7.87692 19.127 7.87932C19.127 7.87453 19.127 7.86973 19.1246 7.86255Z" fill="currentColor"/>
<path d="M13.5008 9.6494C13.6816 9.52723 13.8698 9.40268 14.0507 9.28052C14.2267 9.16554 14.4246 9.34279 14.5786 9.19908C14.7204 9.10566 14.8743 9.00745 15.021 8.90206C15.0992 8.84457 15.1139 8.74397 15.0674 8.64097C15.0259 8.54995 14.9452 8.53797 14.867 8.55234C14.6641 8.59306 14.4344 8.61222 14.3513 8.84217C14.3 8.98829 14.2389 9.02182 14.1191 8.92601C14.0409 8.86613 13.9602 8.86134 13.9138 8.92601C13.7549 9.16075 13.4959 9.26614 13.3077 9.46017C13.2539 9.51526 13.2344 9.61107 13.3003 9.67814C13.3737 9.75 13.4372 9.68772 13.5008 9.6446V9.6494Z" fill="currentColor"/>
<path d="M12.8286 10.8519C12.7993 10.7489 12.8897 10.7417 12.9411 10.701C12.9631 10.6842 12.9875 10.6674 13.0095 10.6507C13.0168 10.5022 13.0926 10.4423 13.2319 10.4638L13.2637 10.4758L13.2343 10.4566C13.1952 10.38 13.1635 10.2914 13.2343 10.2435C13.6792 9.94883 14.1167 9.61589 14.6715 9.54403C14.7448 9.53445 14.7815 9.57517 14.7937 9.64942C14.7986 9.68295 14.7155 9.67816 14.7668 9.73326L14.8083 9.659C14.8792 9.56798 14.9916 9.48893 15.0161 9.38115C15.0601 9.16796 15.0943 9.05299 15.2654 9.31408L15.3998 9.20868C15.3803 9.11766 15.3338 9.01466 15.4731 9.00508C15.5171 9.00268 15.566 9.04341 15.5611 9.09131C15.5513 9.18473 15.4658 9.18712 15.4022 9.21108C15.6907 9.25898 15.8862 9.17036 15.9571 8.94759C15.9839 8.85897 16.0328 8.76076 16.0206 8.67213C15.9326 8.14277 16.2821 7.94875 16.6218 7.73317C16.7196 7.67089 16.8003 7.72598 16.8858 7.74275C17.0129 7.7691 17.1253 7.80742 17.096 7.58466C17.0862 7.5104 17.1913 7.51759 17.228 7.57987C17.294 7.69005 17.3429 7.81221 17.4235 7.97988C17.5604 7.59663 17.8317 7.45771 18.169 7.38585C18.2912 7.36189 18.406 7.31638 18.5233 7.26368C18.5796 7.23734 18.6382 7.20859 18.6969 7.18224C18.7213 7.16787 18.7629 7.1535 18.7751 7.14392L18.7971 7.11997C18.8215 7.09601 18.846 7.15829 18.8728 7.23015C18.8704 7.29482 18.868 7.3595 18.9022 7.4625C18.9266 7.42178 18.8802 7.3044 18.8777 7.23734C18.9095 7.17985 18.9779 7.21338 18.9877 7.11038C18.9682 6.95708 18.9437 6.89241 19.0464 7.14871C19.0513 7.15829 19.0415 7.11997 19.039 7.1032C19.0293 7.08404 19.0268 7.09122 18.9951 6.9978C18.9926 6.98583 18.9877 6.97385 18.9853 6.96666C18.9804 6.94511 19.0097 7.02415 19.0293 7.07445C19.1173 7.27327 19.1148 7.19182 19.0439 7.02415C19.0122 6.9499 18.9779 6.87804 19.0806 7.07445L19.1173 7.16069C19.1319 7.19182 19.1344 7.20859 19.1612 7.2541L19.1221 7.17027L19.083 7.08164C19.0928 7.06248 18.9682 6.8469 19.1197 7.07685C19.1246 7.08404 19.1148 7.06008 19.1026 7.04092C18.9706 6.82295 19.0586 6.95229 19.0928 6.97625C19.1075 6.99301 19.1564 7.06008 19.1466 7.04092L19.0904 6.97146C19.0439 6.91157 18.9926 6.8445 19.0146 6.87085C19.0464 6.90918 19.1148 6.98104 19.0562 6.90918C18.9975 6.83492 18.9339 6.76785 19.1173 6.96187C19.2175 7.06727 19.1637 6.9978 19.1295 6.96187C19.0953 6.92115 19.0928 6.91636 19.2248 7.04811L19.3006 7.12955C19.3128 7.14631 19.3177 7.1535 19.3397 7.18224C19.3617 7.2062 19.3934 7.23734 19.3788 7.22057C19.3592 7.19901 19.3299 7.16548 19.3054 7.13673L19.2321 7.05769C19.1612 6.98104 19.0464 6.87085 19.1148 6.92834C19.1319 6.94271 19.1466 6.95469 19.127 6.93553C18.912 6.73671 19.0488 6.86127 19.1979 6.96187L19.2957 7.03373L19.1906 6.95469C18.8826 6.71037 18.78 6.64809 19.0684 6.85169C19.4888 7.14392 19.3837 7.0529 19.237 6.95229C19.2077 6.93074 19.2443 6.95229 19.2517 6.95469L19.2737 6.96666L19.2419 6.9475C19.0781 6.8445 19.0073 6.79899 18.9364 6.75348C18.8557 6.70318 18.9486 6.76067 19.2248 6.92355C19.2981 6.96667 19.3494 7.0002 19.4594 7.06487C19.3617 7.0002 19.2566 6.93553 19.1417 6.86846C19.0806 6.83253 19.0146 6.7966 19.1344 6.86127C19.3666 6.98583 19.2761 6.93313 19.1588 6.86846C18.8166 6.68641 18.9682 6.77025 19.1686 6.86367L19.2052 6.88283L19.1759 6.86846C19.0488 6.80378 18.8973 6.73192 19.325 6.93553C19.3397 6.94271 19.3568 6.95229 19.3714 6.95708C19.4081 6.97385 19.4448 6.99301 19.4839 7.00978L19.5181 7.02415L19.4765 7.00499L19.3299 6.93553C19.4985 7.01218 19.545 7.02415 19.3959 6.95229C19.3494 6.93074 19.2835 6.8996 19.2419 6.88043C19.0268 6.78223 19.061 6.80139 19.7283 7.07685C19.7552 7.08883 19.7918 7.1008 19.8236 7.11517C19.7943 7.09841 19.6085 7.02415 19.4985 6.97864C18.9902 6.76785 18.8875 6.72713 19.1344 6.82534C19.3128 6.89481 19.3226 6.89241 19.1881 6.83971C19.1246 6.81576 19.2835 6.87325 19.4154 6.92355L19.4668 6.94271L19.4277 6.92834C19.3885 6.91157 19.2346 6.85408 19.3592 6.8972C19.76 7.03373 19.5376 6.94511 19.3348 6.87564C19.3592 6.88283 19.4252 6.90439 19.4692 6.91876C19.5279 6.93792 19.5499 6.94511 19.6623 6.98343L19.4741 6.92115C19.6574 6.97625 19.6941 6.97864 19.7063 6.97625C19.7136 6.97625 19.7136 6.97146 19.7283 6.97385C19.7332 6.97146 19.7429 6.96906 19.7869 6.97864C20.3491 7.14152 20.7255 7.25171 21.2436 7.40261C21.1165 7.34033 21.0016 7.3044 20.2586 7.1032C19.9654 7.02176 19.7967 6.97625 19.6207 6.92594C19.5034 6.89241 19.6378 6.92594 19.9678 7.00499C20.134 7.04571 20.3369 7.09362 20.2342 7.06487C19.9214 6.97864 20.2904 7.0529 19.8236 6.93792C19.5914 6.88283 19.5694 6.87564 19.6721 6.89241C19.7698 6.90918 19.8505 6.92115 19.6916 6.88522C19.4961 6.84211 19.7992 6.89481 20.3808 7.00259L20.4371 7.01457L20.3906 7.00499L20.354 6.99301C20.332 6.98822 20.3075 6.98343 20.288 6.97864C20.288 6.97864 20.3149 6.98343 20.3271 6.98343L20.3955 6.9978C20.5544 7.01457 20.3613 6.97625 20.0729 6.93074C19.633 6.85888 19.6769 6.86367 19.7576 6.87085C19.8407 6.87804 19.8138 6.86606 19.7234 6.8469L19.6794 6.83732C20.1193 6.89481 19.9702 6.86606 19.8994 6.85169C19.7649 6.82534 20.525 6.91636 20.3466 6.88043C20.2415 6.85888 19.9018 6.82534 19.9116 6.81576C19.9287 6.80139 20.0753 6.78223 19.7918 6.75588C19.611 6.7439 20.6546 6.75588 19.8945 6.73192C19.8529 6.71755 19.8138 6.70558 19.7698 6.6936C19.7136 6.67923 19.7087 6.66725 19.7918 6.6409C19.8651 6.61934 19.9262 6.58102 19.7429 6.5882C19.5596 6.59779 19.6134 6.593 20.0729 6.49479C20.1169 6.48521 20.1633 6.47563 20.156 6.47323C20.1462 6.47083 20.1218 6.46844 20.0827 6.47323C19.958 6.48521 19.7429 6.51395 19.7698 6.49958C19.8456 6.45167 19.6305 6.49239 19.6672 6.45886C19.6794 6.44449 19.5816 6.46844 19.7918 6.38939C19.87 6.36065 19.8823 6.34867 19.8358 6.36305C19.5474 6.44928 19.6965 6.34628 19.5376 6.39179C19.4008 6.43969 19.7356 6.25765 19.8456 6.16902C19.5279 6.33909 19.4228 6.39179 19.4912 6.30556C19.5205 6.26723 19.5156 6.25046 19.4668 6.27202C19.4008 6.30077 19.347 6.32712 19.325 6.32472C19.3128 6.32472 19.3079 6.31753 19.3128 6.30077C19.3226 6.2864 19.3079 6.23609 19.325 6.18819C19.1612 6.29837 19.4472 5.93428 19.2272 6.08279C19.0928 6.17382 19.1539 5.99656 19.0879 5.98219C19.0073 5.96542 18.9339 5.93668 18.9511 5.81691C18.9657 5.71631 18.8069 5.81691 18.7849 5.76422C18.7213 5.62529 18.5869 5.56061 18.5185 5.43127L18.472 5.34743C18.472 5.34743 18.472 5.33785 18.4549 5.32108L18.4011 5.26359L18.2936 5.15101C18.1518 5.00011 18.0101 4.8492 17.8659 4.6959C17.5824 4.3893 17.3062 4.07791 17.0544 3.74257C16.6805 3.24674 16.3286 2.72935 15.9253 2.25747C15.8373 2.15447 15.7151 2.00357 15.808 1.90296C16.067 1.62511 15.7884 1.62511 15.6906 1.53409C15.5856 1.43348 15.4682 1.34725 15.3558 1.25144C15.3118 1.21311 15.2654 1.17239 15.3118 1.09814C15.3485 1.03825 15.4267 0.971186 15.4658 0.997534C15.6491 1.1149 15.7909 0.911303 15.9522 0.884954C16.4165 0.803514 16.7587 1.02628 17.0838 1.23228C17.6972 1.62271 18.2178 2.13052 18.7946 2.56886C19.2028 2.87786 19.5816 3.21799 19.9629 3.55573L20.0973 3.6731L20.1829 3.74257C20.2415 3.78808 20.3026 3.8288 20.3711 3.86233C20.5666 3.95815 20.6986 4.12582 20.9088 4.20486C20.9576 4.22403 21.0041 4.24798 21.0456 4.27193L21.1092 4.31026C21.1263 4.31984 21.1752 4.35816 21.2069 4.37972C21.3511 4.48512 21.5002 4.58572 21.6835 4.66956C21.9499 4.79172 22.1039 5.0025 22.3508 5.1582C22.5927 5.3115 22.8005 5.49115 23.0082 5.66601C23.2184 5.84326 23.4335 6.01572 23.7219 6.18579C23.7806 6.19537 23.7977 6.20974 23.7708 6.22651C24.1276 6.5379 24.3403 6.83492 24.8706 7.14631C25.0784 7.27087 25.1664 7.38585 25.2446 7.49124C25.3228 7.59903 25.3888 7.70203 25.5843 7.82658C26.0902 8.14995 26.364 8.44937 26.5302 8.69608C26.5839 8.77513 26.6646 8.85897 26.7575 8.94759L26.8919 9.07454L26.9603 9.13682C26.975 9.15598 27.0336 9.18712 26.9701 9.18233C26.6817 9.21347 26.3713 9.23982 25.9289 9.21347C25.2421 9.17036 24.8731 9.2518 24.2669 9.22066C23.8148 9.19431 23.5288 9.2518 23.1084 9.22545C22.8347 9.20868 22.6441 9.24701 22.4265 9.26377C22.0477 9.29012 21.6176 9.25898 21.2778 9.29012C20.6986 9.36438 20.1169 9.40031 19.6012 9.49612C19.5694 9.50091 19.5474 9.5057 19.5327 9.5057L19.479 9.51049L19.3714 9.52007C19.3714 9.52007 19.3592 9.52007 19.3421 9.52486L19.2957 9.53444L19.2052 9.55361L19.0219 9.58954L18.6553 9.66379C18.169 9.77398 17.685 9.89614 17.2158 10.0638C17.0251 10.1333 16.7758 10.0446 16.6438 10.1381C16.4679 10.2602 16.2748 10.2674 16.0964 10.3393C15.6247 10.5285 15.1407 10.6483 14.6177 10.7153C14.3391 10.7465 14.0409 10.8591 13.7672 10.974C13.6621 11.0171 13.5765 11.0555 13.5276 10.8231C13.4812 10.5908 13.2515 10.6387 13.0804 10.6626C13.0804 10.7082 13.0926 10.7585 13.0828 10.7992C13.0633 10.8854 12.9948 10.9022 12.9166 10.8878C12.8922 10.883 12.8506 10.8591 12.8457 10.8375L12.8286 10.8519ZM17.0716 1.59397C17.0496 1.56762 17.0373 1.54127 17.0153 1.5269C17.0031 1.51732 16.9762 1.52211 16.9567 1.52211C16.9738 1.54367 16.986 1.57002 17.008 1.58439C17.0202 1.59397 17.0471 1.59157 17.0716 1.59397ZM17.7315 3.12458C17.7461 3.14853 17.7559 3.17727 17.7755 3.19164C17.7926 3.20602 17.8219 3.20602 17.8488 3.21081C17.8317 3.18446 17.8243 3.15571 17.8023 3.13895C17.7852 3.12458 17.7559 3.12697 17.7315 3.12218V3.12458ZM17.817 3.57969C17.6924 3.44555 17.6141 3.35932 17.5139 3.24913C17.4919 3.45992 17.6093 3.50783 17.817 3.57969ZM19.6989 4.86358C19.6989 4.86358 19.7234 4.85639 19.7381 4.8492C19.7649 4.83244 19.7845 4.81088 19.7796 4.8013C19.7772 4.79411 19.7576 4.80609 19.7405 4.81567C19.7161 4.83004 19.6941 4.854 19.6989 4.86358ZM19.4912 4.56177C19.501 4.59291 19.5083 4.61925 19.5156 4.64321L19.5083 4.66237L19.523 4.63842C19.5474 4.57853 19.5621 4.52823 19.4912 4.56177ZM19.7258 4.06354C19.7258 4.06354 19.7185 4.08031 19.7209 4.0827C19.7209 4.0827 19.7332 4.07552 19.7405 4.07073C19.7478 4.05875 19.76 4.04438 19.76 4.03959C19.7625 4.02282 19.7478 4.0324 19.7258 4.06354ZM19.0366 4.13779C19.0366 4.14977 19.0342 4.16414 19.0366 4.17372C19.0415 4.1857 19.0537 4.20247 19.0659 4.20247C19.1001 4.20247 19.105 4.18091 19.0733 4.15217C19.0635 4.14259 19.0488 4.14259 19.0342 4.13779H19.0366ZM19.5108 5.1079L19.5767 5.03125C19.5523 5.00969 19.5376 4.97616 19.501 4.96897C19.3421 4.93065 19.281 4.78453 19.1784 4.68393C19.149 4.65758 19.1319 4.65039 19.0806 4.62644C18.8044 4.442 18.4354 4.30068 18.56 3.83599C18.4476 3.76892 18.362 3.87671 18.2765 3.87431C18.2081 3.87431 18.1445 3.84317 18.0199 3.81203C18.2472 4.01563 18.4696 4.21445 18.692 4.41326C18.8337 4.5426 18.9755 4.66956 19.1148 4.79651C19.2395 4.91148 19.3666 5.01688 19.5132 5.1055L19.5108 5.1079ZM20.1975 5.12946L20.2146 5.11988L20.2366 5.10311L20.2195 5.11029L20.1975 5.12706V5.12946ZM20.0778 5.14622C20.0778 5.14622 20.0949 5.13904 20.1047 5.12946C20.112 5.12227 20.1218 5.11029 20.1291 5.10071C20.1242 5.10071 20.1218 5.09592 20.1144 5.10071C20.0851 5.11988 20.0704 5.13904 20.0778 5.14622ZM19.9678 4.99053C19.98 5.01927 19.9849 5.0552 20.0436 5.03125C20.0436 4.99053 20.0436 4.94741 19.9678 4.99053ZM19.87 4.854C19.8383 4.92585 19.8651 4.92585 19.8847 4.93064C19.8969 4.93544 19.9214 4.90909 19.9165 4.89711C19.9091 4.87795 19.8896 4.87076 19.87 4.854ZM20.0851 5.31869C19.9434 5.3642 19.9751 5.23485 19.8285 5.3139C19.8236 5.16539 19.6525 5.19653 19.5963 5.1055C19.6134 5.24204 19.6598 5.34504 19.8212 5.32587C19.8847 5.34264 19.7796 5.55582 20.0827 5.31869H20.0851ZM21.1532 4.81088V4.82765L21.1678 4.81327H21.1532V4.81088ZM20.4151 5.23246C20.4151 5.26599 20.3564 5.35462 20.4542 5.30192C20.5104 5.22048 20.4542 5.23246 20.4151 5.23246ZM20.7866 4.61925C20.7866 4.61925 20.7768 4.6456 20.7792 4.65039C20.7841 4.65518 20.7988 4.65039 20.8086 4.65039L20.8159 4.61686H20.7841L20.7866 4.61925ZM20.2366 5.35462C20.1731 5.38336 20.1853 5.3139 20.0387 5.42648C20.1096 5.4145 20.1144 5.45282 20.2366 5.35462ZM20.3515 5.54385L20.3711 5.52229C20.3882 5.49355 20.3784 5.48875 20.3491 5.50073L20.2586 5.54864C20.1878 5.55582 20.1927 5.48636 20.0998 5.52468C20.0509 5.54385 20.0045 5.58457 19.9531 5.65403C19.914 5.70673 19.9067 5.72829 19.9605 5.69236C20.0778 5.61571 20.1071 5.65164 20.2538 5.55822L20.3442 5.51031L20.3637 5.52708L20.3515 5.54624V5.54385ZM20.3197 5.74984C20.4908 5.62529 20.6619 5.50552 20.7743 5.3642C20.7352 5.39055 20.6961 5.41689 20.6595 5.44564C20.6033 5.48875 20.5544 5.51271 20.5006 5.54624C20.2464 5.69954 20.2464 5.70433 20.3222 5.75224L20.3197 5.74984ZM22.033 6.72474C22.0502 6.72474 22.0697 6.72953 22.0795 6.72953C22.1113 6.72953 22.1406 6.72713 22.1699 6.72474H22.0306H22.033ZM22.1992 6.70558L22.1821 6.72474C22.2017 6.71995 22.3043 6.71755 22.1992 6.70558ZM22.2872 6.63611L22.3068 6.6433L22.3239 6.63611H22.2872ZM22.1333 6.57623C22.1333 6.57623 22.1626 6.58102 22.1821 6.58102C22.1992 6.58102 22.2188 6.57862 22.2383 6.57623C22.231 6.57383 22.231 6.56904 22.2164 6.56665C22.1601 6.56186 22.1284 6.56665 22.1333 6.57383V6.57623ZM22.9618 6.4349V6.46125L22.9569 6.4876L22.9374 6.49718L22.9691 6.49C22.9862 6.48281 23.0131 6.47323 23.018 6.46604C23.0253 6.45407 23.0498 6.4397 22.9594 6.4373L22.9618 6.4349ZM23.6804 6.20974L23.6559 6.21933L23.695 6.22412L23.6828 6.20974H23.6804ZM22.2017 6.00614C22.2335 6.01093 22.2897 6.00614 22.3361 6.00854C22.3654 5.99417 22.3874 5.98219 22.407 5.97261C22.3557 5.97261 22.3068 5.97261 22.2555 5.97979C22.209 5.98458 22.1748 6.00135 22.2017 6.00375V6.00614ZM22.3312 5.71631L22.3239 5.73068L22.3581 5.7211L22.3312 5.71631ZM22.2286 5.63487L22.2237 5.64924L22.253 5.63966L22.2286 5.63487ZM21.2436 5.83368C21.3243 5.87919 21.2192 5.97979 21.4171 5.99896C21.5198 5.88877 21.2925 5.88638 21.2436 5.83368ZM22.033 5.44803C22.0013 5.45522 21.9964 5.4672 22.0208 5.47438C22.0282 5.47438 22.0428 5.47438 22.0526 5.47438L22.0575 5.45522C22.0575 5.45522 22.0428 5.44564 22.033 5.44803ZM21.0994 5.73787C21.0823 5.74505 21.0725 5.76182 21.0554 5.77859C21.0823 5.77859 21.1067 5.78817 21.1385 5.77859C21.2167 5.75224 21.1801 5.74745 21.1752 5.73787C21.1678 5.72829 21.163 5.71391 21.1018 5.73787H21.0994ZM21.7471 5.30911H21.774C21.8082 5.29952 21.796 5.33545 21.8571 5.29952L21.7789 5.30432L21.7471 5.30911ZM20.4859 5.74266C20.5177 5.72589 20.5348 5.70912 20.5226 5.70433C20.5153 5.70194 20.4957 5.70673 20.4811 5.70912C20.4664 5.7235 20.4371 5.74745 20.4371 5.75224C20.4371 5.75703 20.4688 5.74505 20.4859 5.74266ZM20.9943 5.58696C20.987 5.5678 20.9528 5.5702 20.8965 5.58696C20.8965 5.55582 20.9576 5.48396 20.8526 5.50792C20.7475 5.60612 20.7988 5.60852 20.8941 5.59175C20.9405 5.57978 20.8941 5.63726 20.9968 5.58696H20.9943ZM20.4004 6.15465L20.4102 6.14507L20.3857 6.15465H20.398H20.4004ZM20.3662 6.28879H20.3442C20.3075 6.30077 20.3369 6.27921 20.2635 6.30556L20.3344 6.29598L20.3662 6.28879ZM21.1043 6.17381C21.141 6.11633 20.9088 6.13309 20.9992 6.06603C21.1287 5.96303 20.9528 5.96542 20.855 5.94866C20.943 5.8241 20.7108 5.83847 20.6033 5.81212C20.5813 5.90314 20.5935 5.96063 20.723 5.9774C20.6961 5.99656 20.6986 6.00375 20.745 5.99177C20.6179 6.14268 20.8526 6.13789 21.1043 6.17142V6.17381ZM21.7153 6.1834L21.7324 6.19298L21.7398 6.20495L21.7153 6.21693L21.7422 6.20495C21.7837 6.18819 21.774 6.181 21.7178 6.1834C21.7789 6.10675 21.6591 6.06603 21.4367 6.06603L21.4611 6.05405L21.4269 6.06842C21.3731 6.10435 21.2461 6.15705 21.3951 6.14747C21.5736 6.13789 21.5418 6.19058 21.7129 6.18579L21.7153 6.1834ZM20.6081 6.39179H20.6057L20.569 6.39658L20.6081 6.39179ZM20.5079 6.50197H20.4933L20.4786 6.50676L20.5079 6.50197ZM21.0212 6.46604H20.9943C20.9503 6.46604 20.987 6.45167 20.899 6.46604H20.9845H21.0212ZM21.532 6.45646C21.796 6.42293 21.5711 6.40137 21.5125 6.38221C21.4489 6.35825 21.3634 6.33909 21.6835 6.28879H21.7251L21.6933 6.2864C21.3218 6.31753 21.3463 6.23849 21.0603 6.26484C21.2216 6.30077 21.1019 6.387 21.2607 6.42532C21.3267 6.44209 21.2558 6.49479 21.532 6.45886V6.45646ZM21.8937 6.45407C22.209 6.39179 22.0037 6.35825 21.9157 6.32472C21.796 6.37981 21.9939 6.40616 21.8937 6.45407ZM21.4734 6.52353C21.488 6.52353 21.51 6.51635 21.5149 6.51395C21.5198 6.51155 21.5027 6.50916 21.4953 6.50676C21.4758 6.50676 21.4465 6.51155 21.4367 6.51395C21.3976 6.52353 21.4122 6.52593 21.4734 6.52353ZM22.2164 6.49479C22.2164 6.49479 22.1992 6.49 22.1895 6.49C22.1504 6.49 22.1113 6.49 22.0722 6.49239H22.0306H22.0648H22.2164V6.49479ZM21.5711 6.75827L21.598 6.7439C21.7275 6.73671 21.862 6.72713 22.0257 6.72713C21.8424 6.66965 21.664 6.61934 21.4416 6.56186C21.4074 6.6409 21.4074 6.68881 21.5931 6.7439C21.5809 6.74869 21.466 6.75109 21.5711 6.75827ZM23.4677 7.14392L23.4897 7.1535L23.5044 7.14871L23.4677 7.14392ZM22.6929 7.01218C22.7198 7.01936 22.7369 7.02655 22.7736 7.03373C22.8298 7.04331 22.864 7.04092 22.8396 7.03134C22.82 7.02415 22.7932 7.01457 22.7541 7.00978C22.7125 7.00259 22.6856 7.00499 22.6954 7.01457L22.6929 7.01218ZM22.4485 6.83013C22.3166 6.86606 22.5341 6.90439 22.7296 6.95229C22.6587 6.92115 22.6734 6.8972 22.7052 6.87325C22.7296 6.85169 22.5854 6.83971 22.4485 6.83253V6.83013ZM22.4925 7.09841L22.4485 7.08883C22.3654 6.9978 22.0477 6.89481 21.8449 6.80378C21.4538 6.84211 21.7935 6.90439 21.7202 6.94271C21.6371 6.97625 21.906 7.02415 22.4388 7.08883L22.495 7.09841H22.4925ZM21.4122 8.82304L21.3854 8.81106L21.4074 8.83022V8.82064L21.4122 8.82304ZM20.7132 8.20983C20.6888 8.20983 20.6228 8.1763 20.6692 8.23139C20.7304 8.26253 20.7499 8.25535 20.7132 8.20983ZM21.6982 8.73441L21.6567 8.70806L21.686 8.73441H21.6982ZM21.1825 8.24576C21.163 8.23858 21.1336 8.22421 21.1263 8.22421C21.1165 8.22421 21.1263 8.23618 21.1263 8.24576C21.1483 8.25295 21.1752 8.26732 21.1801 8.26732C21.1874 8.26732 21.1801 8.25535 21.1801 8.24816L21.1825 8.24576ZM22.0599 8.77034H22.0428L22.0893 8.79429L22.0599 8.77034ZM21.1532 8.06612C21.097 8.03258 21.0725 8.023 21.0921 8.03977C21.1605 8.08288 21.2363 8.13079 21.312 8.1787C21.356 8.20504 21.3756 8.20744 21.3267 8.1763C21.2729 8.14277 21.2118 8.10444 21.1532 8.06851V8.06612ZM22.5927 8.76315C22.4681 8.74399 22.3948 8.72962 22.4461 8.7895C22.5756 8.83262 22.5683 8.79908 22.5927 8.76315ZM22.1528 8.41583L22.121 8.40386L22.1528 8.42302V8.41583ZM21.4562 8.023L21.4758 8.03737C21.5173 8.08528 21.5736 8.14277 21.642 8.23139C21.7446 8.2266 21.7324 8.18588 21.4905 8.04456L21.4538 8.023H21.4562ZM23.5386 8.94759L23.4579 8.93083L23.4775 8.95957C23.5044 8.96436 23.541 8.97634 23.5557 8.97394C23.5655 8.97394 23.5459 8.95717 23.5386 8.94759ZM23.392 8.77273L23.3529 8.76076L23.3895 8.77752V8.77034L23.392 8.77273ZM23.6926 8.66255C23.629 8.64099 23.6241 8.64578 23.673 8.66974C23.7024 8.68171 23.7415 8.69608 23.761 8.70327C23.827 8.72483 23.8343 8.72243 23.7806 8.69608C23.7659 8.6889 23.7146 8.66974 23.6926 8.66255ZM23.2087 8.44458L23.1451 8.42062L23.1989 8.44458H23.2087ZM22.6661 8.17151C22.5536 8.12839 22.4754 8.10444 22.4412 8.09725C22.4412 8.10684 22.5096 8.13798 22.6099 8.1787C22.7296 8.2266 22.798 8.24576 22.8152 8.24337C22.8323 8.24337 22.7956 8.21942 22.6685 8.17151H22.6661ZM24.1325 8.64818L24.0641 8.62422L24.113 8.64578H24.1325V8.64818ZM23.607 8.4302L23.6144 8.43739L23.6535 8.44697L23.6095 8.4302H23.607ZM24.6947 8.72483L24.658 8.71764L24.7069 8.73441L24.6947 8.72483ZM25.0148 8.77992L25.0197 8.78711L25.0637 8.79669L25.0148 8.77992ZM23.2575 8.18588C23.2575 8.18588 23.3382 8.21942 23.3822 8.23618C23.4164 8.24576 23.4897 8.26732 23.4971 8.26732C23.5068 8.26732 23.4848 8.25295 23.4433 8.23858C23.3064 8.19067 23.2429 8.1763 23.2575 8.18828V8.18588ZM23.3235 8.16193L23.3309 8.16911L23.3724 8.1787L23.3235 8.16193ZM25.5232 8.74639C25.4988 8.74159 25.467 8.73201 25.4523 8.72962C25.4352 8.72722 25.4205 8.72483 25.4328 8.72962C25.4719 8.74639 25.5159 8.75836 25.5379 8.75597C25.5452 8.75597 25.5281 8.74878 25.5232 8.74399V8.74639ZM23.172 8.01821L23.2111 8.03258L23.2698 8.05174L23.2355 8.03737L23.172 8.01581V8.01821ZM25.4597 8.67453L25.489 8.6889H25.5134L25.4597 8.67453ZM23.8197 8.15953C23.8197 8.15953 23.8368 8.16911 23.8466 8.1739C23.8661 8.1787 23.893 8.18588 23.9052 8.18828C23.9174 8.18828 23.9248 8.18828 23.9101 8.18349C23.8661 8.16672 23.827 8.15714 23.8197 8.16193V8.15953ZM25.5012 8.54278L25.5232 8.55476H25.5501L25.5012 8.54278ZM23.6364 7.80982H23.6119L23.6584 7.8194L23.6388 7.80982H23.6364ZM24.2083 7.84096L24.1545 7.83137L24.2156 7.84575L24.2107 7.84096H24.2083ZM23.04 7.48405C23.0816 7.49843 23.106 7.5104 23.1695 7.52956C23.2282 7.54633 23.2966 7.55352 23.2502 7.53915C23.1964 7.52238 23.1109 7.50322 23.04 7.48405ZM23.0645 7.32357C23.0645 7.32357 23.0571 7.34033 23.0693 7.34992C23.0816 7.3595 23.1353 7.36908 23.1622 7.37147C23.2893 7.38105 23.2478 7.36668 23.1891 7.34992C23.1598 7.34033 23.106 7.33075 23.0645 7.32117V7.32357ZM22.9594 7.24213C22.8811 7.23015 22.8567 7.23015 22.8983 7.24213C22.9105 7.24692 22.9471 7.25171 22.9716 7.2565C22.9838 7.2565 23.0082 7.2565 23.0033 7.2565C22.9985 7.2541 22.9765 7.24692 22.9569 7.24452L22.9594 7.24213ZM21.2265 7.06248C21.4025 7.08164 21.2754 7.0529 21.1703 7.03134L21.119 7.02176L21.1556 7.02894C21.1019 7.02894 20.9748 7.01457 20.8134 6.99301C20.7963 6.99062 20.7743 6.98583 20.7621 6.98343C20.7255 6.97864 20.6912 6.97385 20.6546 6.97146L20.4859 6.95229L20.6766 6.97625C20.7157 6.98104 20.7548 6.98583 20.7963 6.99301C20.9381 7.01697 21.0652 7.04571 21.2265 7.06487V7.06248ZM21.3731 7.14152H21.3976C21.3976 7.14152 21.3878 7.13673 21.3731 7.13434C21.3218 7.12476 21.3023 7.12476 21.3291 7.13434C21.3389 7.13434 21.3585 7.14152 21.3731 7.14392V7.14152ZM20.9185 7.11757C20.9992 7.13194 20.9894 7.12955 20.8941 7.11038C20.8697 7.10559 20.8403 7.1008 20.8134 7.09601C20.8208 7.09601 20.8232 7.1008 20.833 7.1008C20.8599 7.10559 20.8917 7.11278 20.9185 7.11757ZM21.2069 7.29722L21.1532 7.28285C21.1018 7.26848 21.0603 7.2565 20.9968 7.23734C20.9454 7.22296 20.8574 7.2062 20.899 7.21817C20.9601 7.23494 21.0603 7.26129 21.1458 7.28285L21.2069 7.29961V7.29722ZM21.4807 7.50082C21.4953 7.50322 21.5051 7.50561 21.5173 7.50801C21.4953 7.50082 21.4709 7.49363 21.4514 7.48645C21.3585 7.4601 21.3365 7.45291 21.3951 7.47447C21.4122 7.47926 21.4562 7.49364 21.4807 7.50082ZM20.4004 7.23015L20.2806 7.18464L20.2244 7.16548L20.2586 7.17745C20.2586 7.17745 20.2758 7.18464 20.288 7.18943C20.3466 7.21099 20.2146 7.17027 20.398 7.23015H20.4004ZM19.8945 7.1008C20.09 7.17266 20.1096 7.17745 20.1193 7.17745C20.1242 7.17745 20.1438 7.18224 20.0093 7.13434C19.9067 7.09841 19.6354 6.9978 19.7161 7.03134C19.7503 7.04571 19.8431 7.08164 19.8945 7.1008ZM20.9919 7.50801L20.9039 7.46968L20.855 7.45052L20.8892 7.46489C20.9381 7.48405 20.855 7.4601 20.9919 7.50801ZM19.9018 7.17985L19.9262 7.18943L19.892 7.17266L19.9018 7.17985ZM19.7161 7.13434L19.7478 7.14871C19.7283 7.13913 19.7063 7.12715 19.6867 7.11757C19.6134 7.08164 19.5987 7.07685 19.6501 7.1008C19.6672 7.11038 19.6941 7.12236 19.7185 7.13434H19.7161ZM19.7674 7.3068L19.7625 7.30201L19.7405 7.29003L19.7649 7.3068H19.7674ZM20.2929 7.73077C20.4786 7.84814 20.4297 7.78347 20.6081 7.89605C20.6375 7.92 20.6326 7.92958 20.7084 7.9703L20.6228 7.90323C20.7719 7.95593 20.6619 7.84096 20.6815 7.817C20.701 7.79544 20.6497 7.74754 21.0603 7.97988C21.2069 8.06372 21.2876 8.08767 21.0701 7.95833C21.009 7.9224 20.8941 7.85772 20.9332 7.8721C21.1947 7.96791 20.877 7.75951 21.0945 7.83377C21.2729 7.90084 21.2876 7.88168 21.1996 7.82419C21.1019 7.76191 21.7764 8.06612 21.3634 7.85293C21.2632 7.80263 21.4685 7.88407 21.6078 7.94635C21.8326 8.04456 21.9206 8.12121 22.2726 8.26253C22.2408 8.21463 22.5561 8.30325 21.8864 8.01342C21.8522 8.00623 21.8326 8.00384 21.7789 7.98707C21.73 7.9703 21.6151 7.92719 21.5833 7.91282C21.4489 7.84814 21.5369 7.87928 21.6224 7.91042C21.686 7.93437 21.7618 7.96312 21.8326 7.98707C21.8375 7.98707 21.8424 7.98707 21.8497 7.98707C21.8351 7.97988 21.8204 7.9703 21.8082 7.96551C21.8131 7.96551 21.8449 7.97749 21.8522 7.97988C21.8717 7.98947 21.8913 7.99905 21.9084 8.00863C22.1479 8.07809 21.5296 7.82419 21.6835 7.86251C21.8351 7.89844 21.8522 7.87689 21.9133 7.87449C21.9744 7.8721 22.0722 7.88407 22.4339 7.98947C22.5487 8.023 22.4999 7.99426 22.4192 7.95833L22.2603 7.91521C22.1381 7.8673 22.2799 7.91042 22.341 7.92719C22.3068 7.86251 22.5536 7.89365 22.6099 7.86012C22.6123 7.86012 22.5732 7.84335 22.5536 7.83377C22.6661 7.86251 22.7834 7.89605 22.8787 7.92C22.9765 7.94395 23.0498 7.96072 23.062 7.95833C23.0718 7.95114 23.1036 7.95354 23.0987 7.94635C23.0962 7.93916 23.1084 7.93916 23.1475 7.94635C23.2233 7.96072 23.3968 8.00863 23.7488 8.10444C23.6559 8.06372 23.3748 7.97988 23.2624 7.93437C22.7565 7.72598 22.649 7.64214 22.7149 7.58226C22.7321 7.56789 22.8591 7.57508 23.2233 7.64933C23.392 7.68286 23.5435 7.70921 23.4262 7.6661C23.3504 7.63735 23.304 7.62298 23.0693 7.57987C22.6416 7.50322 22.5952 7.46489 22.583 7.44573C22.5683 7.42417 22.8298 7.4625 23.0376 7.49124C23.0351 7.47687 23.2355 7.49124 22.9447 7.43615C22.3923 7.33075 22.4192 7.31159 22.4681 7.28764C22.5487 7.24931 22.3557 7.16787 22.2359 7.1032C21.8497 7.06966 21.7789 7.07206 21.8668 7.11278C22.0502 7.19422 22.3043 7.30201 22.1088 7.32357C22.0184 7.33315 22.0233 7.3595 22.187 7.41938C22.3899 7.49603 22.3679 7.49843 22.0062 7.4601C21.9451 7.45291 22.0013 7.47447 22.1528 7.51759C22.3654 7.57747 22.5707 7.64693 22.4217 7.6158C21.8155 7.48166 22.3361 7.63256 22.3459 7.65652C22.3532 7.67807 22.4828 7.73317 22.5976 7.78586C22.6245 7.79784 22.6514 7.81221 22.6783 7.82419C22.6856 7.83137 22.6832 7.83377 22.6783 7.83856C22.6661 7.84335 22.6294 7.84335 22.5512 7.82898C22.2701 7.75712 22.3239 7.78826 22.2775 7.79065C22.2066 7.79065 22.1284 7.79065 21.9108 7.73796C21.9231 7.74275 21.9377 7.74993 21.9475 7.75472C21.9426 7.75472 21.9133 7.74514 21.9035 7.74275C21.8791 7.73317 21.8595 7.72598 21.8375 7.71879C21.774 7.71879 21.8717 7.77628 21.7593 7.76191C21.51 7.73317 21.2656 7.70442 21.0188 7.67807C20.9552 7.67089 20.9748 7.70203 20.8281 7.65173C20.7352 7.61819 20.6155 7.5631 20.7915 7.65891C20.9137 7.72598 20.9845 7.77389 21.075 7.83137C20.9503 7.77149 20.833 7.7164 20.8037 7.71161C20.7181 7.70203 20.5177 7.62059 20.6008 7.70203C20.6424 7.74275 20.6546 7.77628 20.4077 7.64454L20.376 7.62298L20.3955 7.63735C20.4248 7.66849 20.4835 7.72359 20.3075 7.62777C20.2146 7.57747 20.1218 7.53675 20.1804 7.57747C20.4346 7.76191 20.2977 7.70682 20.2977 7.74035L20.2929 7.73077ZM20.8086 8.13079C20.8697 8.17151 20.9576 8.24337 20.9796 8.23379C20.9845 8.23139 20.9796 8.21702 20.9552 8.19786C20.8721 8.13079 20.833 8.12121 20.7817 8.09246C20.7059 8.04935 20.7621 8.09246 20.811 8.13079H20.8086ZM19.7454 7.37147C19.7674 7.38824 19.7943 7.4074 19.8212 7.42417C19.7894 7.39782 19.76 7.37147 19.7258 7.34273C19.6965 7.31878 19.6721 7.30201 19.6647 7.30201C19.6647 7.3068 19.6892 7.32836 19.7478 7.37387L19.7454 7.37147ZM21.5125 8.80387C21.598 8.82304 21.6787 8.8398 21.6298 8.74878C21.5051 8.71764 21.5198 8.76555 21.5125 8.80387ZM19.9018 7.63017C20.0802 7.77628 20.1096 7.7667 20.2489 7.88886C20.3173 7.95114 20.3906 7.99905 20.3344 7.93916C20.1878 7.79065 20.31 7.83617 20.0509 7.60382C20.0949 7.68766 20.0827 7.73317 19.9018 7.62777V7.63017ZM21.4269 9.00268L21.4587 9.01227C21.4587 9.01227 21.4489 8.9931 21.4391 8.98352C21.3951 8.9428 21.3756 8.93562 21.3951 8.96675C21.4 8.97394 21.4171 8.99071 21.4294 9.00268H21.4269ZM20.0191 7.78586L20.0485 7.81221L20.024 7.78586H20.0191ZM20.5299 8.29367C20.5299 8.29367 20.5568 8.31523 20.5593 8.31283C20.5593 8.31044 20.5568 8.30086 20.547 8.29128C20.5153 8.25774 20.4982 8.24576 20.5031 8.26014C20.5031 8.26493 20.5226 8.28169 20.5324 8.29367H20.5299ZM20.1829 8.023V8.01581L20.1658 8.00384L20.1829 8.023ZM20.8648 8.86376C20.7572 8.81585 20.7817 8.87573 20.9014 9.0458C21.0041 9.02664 21.1019 9.00987 21.2045 8.99789C21.2509 9.02903 21.2632 9.02424 21.2485 8.99789L21.2289 8.96915L21.2387 8.99071L21.2216 8.9955H21.2021C21.0847 8.95478 20.9748 8.91645 20.8648 8.86615V8.86376ZM20.3344 8.32002C20.3344 8.32002 20.3075 8.28888 20.3026 8.28648C20.2953 8.28409 20.2977 8.29128 20.2977 8.29367C20.3075 8.30565 20.3197 8.32481 20.3246 8.3296C20.354 8.35595 20.3588 8.35116 20.3344 8.31762V8.32002ZM19.804 7.84575C19.892 7.90084 19.8383 7.78107 20.0851 8.04216C19.98 7.89126 19.8505 7.78586 19.7576 7.68047C19.6843 7.5607 19.9287 7.83617 19.9287 7.80263C19.7381 7.59663 19.6843 7.57028 19.6476 7.55831C19.5939 7.53915 19.6843 7.6661 19.804 7.84575ZM19.4008 7.35471C19.4008 7.35471 19.3641 7.30201 19.3372 7.26608C19.3128 7.23254 19.2786 7.19422 19.2835 7.2038C19.2908 7.21817 19.3201 7.2565 19.3421 7.28764C19.3641 7.31638 19.3837 7.34273 19.3983 7.35471H19.4008ZM19.7429 7.85772C19.7625 7.88168 19.7894 7.91521 19.8016 7.92479C19.8358 7.95114 19.8016 7.90084 19.7772 7.8697C19.7478 7.82658 19.7185 7.79544 19.7014 7.78586C19.6941 7.79065 19.6965 7.80503 19.7429 7.85772ZM20.3417 8.76315C20.3417 8.76315 20.3662 8.78711 20.3711 8.7895C20.3882 8.7895 20.3784 8.77034 20.3442 8.74159C20.3369 8.73441 20.3295 8.73441 20.3222 8.72962C20.3295 8.7416 20.3369 8.75357 20.3417 8.76315ZM19.2126 7.30201C19.2248 7.31878 19.2443 7.34992 19.2492 7.35231C19.2566 7.3571 19.2395 7.32596 19.2199 7.29482C19.2052 7.27327 19.1881 7.24692 19.1857 7.24452C19.1808 7.23973 19.1955 7.26848 19.215 7.3044L19.2126 7.30201ZM19.479 7.78107C19.5499 7.89365 19.5547 7.86251 19.5572 7.83856C19.5572 7.82179 19.523 7.75712 19.4936 7.69963C19.5279 7.69963 19.6085 7.817 19.6941 7.95833L19.7063 7.98467L19.6989 7.96551C19.6525 7.85772 19.5987 7.75233 19.5401 7.64214C19.3959 7.48166 19.4594 7.60142 19.4936 7.69963C19.4936 7.714 19.5034 7.74035 19.4985 7.74514C19.4888 7.74993 19.413 7.62777 19.4423 7.70442C19.4472 7.71879 19.4716 7.76431 19.4863 7.78586L19.479 7.78107ZM20.2269 8.75836L20.2489 8.78471L20.2366 8.75836H20.2269ZM19.7869 8.37272L19.782 8.34876L19.8309 8.34158C19.848 8.36553 19.8651 8.38948 19.8798 8.41344C19.8847 8.41823 19.892 8.42062 19.892 8.42062C19.87 8.37272 19.848 8.35834 19.826 8.332C19.7674 8.26493 19.76 8.28169 19.7747 8.34158L19.7869 8.37032V8.37272ZM20.068 8.98352C20.3173 9.2015 20.3931 9.09131 20.4688 9.02903C20.4884 9.0434 20.5128 9.06257 20.5275 9.06736C20.547 9.07454 20.5837 9.0961 20.5519 9.03861C20.5348 9.03382 20.5202 9.02664 20.5055 9.02424C20.4908 9.02185 20.4786 9.02185 20.4664 9.01945C20.2269 8.82783 20.2318 9.01945 20.0704 8.98113L20.068 8.98352ZM19.457 7.87689C19.457 7.87689 19.457 7.8673 19.457 7.86012C19.4521 7.85293 19.4423 7.83856 19.4399 7.83617C19.435 7.83137 19.4301 7.82898 19.4325 7.83617C19.4399 7.86012 19.4497 7.87689 19.457 7.87449V7.87689ZM19.8651 8.90927L19.958 9.02424C19.9727 9.05059 19.9849 9.07694 19.9947 9.10329L19.9996 9.13203V9.11047C19.9996 9.11047 19.9996 9.08652 19.9971 9.07933C19.9849 9.05778 19.9727 9.03861 19.958 9.01706C19.9262 8.98352 19.8871 8.86136 19.8651 8.91166V8.90927ZM19.391 7.88168V7.8697L19.3812 7.85772L19.391 7.88168ZM19.6721 8.54278L19.6892 8.56913C19.7063 8.58111 19.7307 8.60506 19.7405 8.60267C19.7503 8.60267 19.7307 8.54997 19.7185 8.54518C19.7038 8.53799 19.6965 8.55476 19.6867 8.55955L19.6721 8.54278ZM19.2786 7.63735L19.2932 7.6661L19.2835 7.63735H19.281H19.2786ZM17.927 8.93562C17.8708 9.13682 17.8708 9.28054 17.7877 9.39552C17.7412 9.46019 17.7608 9.56079 17.8463 9.58954C17.927 9.61828 17.9808 9.556 17.993 9.46977C18.015 9.31887 18.0443 9.16317 17.927 8.93562ZM17.8952 8.76076L17.8683 8.75118V8.77273L17.8952 8.75836V8.76076ZM18.3694 9.16317C18.3278 9.12964 18.3034 9.19671 18.3107 9.24461C18.3205 9.30449 18.3254 9.37156 18.3914 9.39791C18.406 9.37635 18.4378 9.3524 18.4329 9.33563C18.4182 9.27575 18.406 9.19431 18.3669 9.16317H18.3694ZM18.7091 9.05778C18.6724 9.06257 18.6627 9.08413 18.6822 9.12485L18.7433 9.24222C18.7555 9.21826 18.7775 9.19431 18.7775 9.17036C18.7775 9.12245 18.758 9.07694 18.7091 9.05778ZM18.8533 8.19307L18.8215 8.18588L18.8289 8.21223L18.8533 8.19307ZM19.0586 8.76555C19.0586 8.76555 19.0342 8.74878 19.0244 8.74878C19.0122 8.74878 18.9975 8.75357 18.9877 8.76076C18.9828 8.76315 18.9877 8.77992 18.9877 8.7895L19.0586 8.76315V8.76555ZM19.4057 9.11047V9.13203L19.3934 9.18712L19.4081 9.13922V9.11047H19.4057ZM19.3274 8.91406L19.3226 8.8925L19.3152 8.89969L19.325 8.91406H19.3274ZM19.4863 8.93562C19.4716 8.88292 19.4521 8.84938 19.4497 8.89969C19.4497 8.92603 19.4643 8.98352 19.4765 9.02424C19.4814 9.03861 19.4961 9.0458 19.5132 9.06017C19.5034 9.01466 19.4961 8.97394 19.4863 8.93562ZM19.8407 9.10089L19.848 9.09131L19.8334 9.07933L19.8407 9.10089ZM19.3152 7.84096C19.3152 7.84096 19.3299 7.8721 19.3323 7.87449C19.3421 7.88407 19.3397 7.86491 19.325 7.82898C19.3201 7.817 19.3103 7.79784 19.3079 7.79544C19.2981 7.78586 19.3006 7.80503 19.3152 7.84096ZM19.2835 7.88647L19.2932 7.90084L19.2859 7.87928V7.88647H19.2835ZM19.5279 8.63141C19.5279 8.63141 19.5621 8.66494 19.5719 8.65536C19.5816 8.64818 19.5792 8.60985 19.5816 8.5859L19.5401 8.39667L19.5327 8.36553V8.38948L19.5108 8.39667L19.4961 8.37511L19.5108 8.40386L19.5767 8.58111C19.5767 8.58111 19.5596 8.58111 19.5523 8.5859C19.5425 8.59548 19.4985 8.53081 19.5279 8.62902V8.63141ZM19.6525 9.10808V9.08413V9.05538V9.08173V9.11047V9.10808ZM18.4622 7.57987L18.4916 7.58705L18.4867 7.5631L18.4598 7.57987H18.4622ZM18.5233 7.75472L18.5282 7.78347L18.5551 7.7667L18.5233 7.75712V7.75472ZM18.0614 8.20983C18.0907 8.25056 18.1518 8.26493 18.1787 8.22181C18.3474 7.96551 18.6358 8.023 18.8386 8.0757C18.8753 8.08528 18.9095 8.09246 18.9437 8.09486C18.9779 8.09965 19.0122 8.09965 19.0146 8.10444C19.0317 8.10923 19.0464 8.10444 19.0586 8.08767C19.0806 8.05653 19.0928 7.98947 19.1026 7.90802C19.105 7.88168 19.1344 7.91761 19.1295 7.87449H19.1344C19.1832 7.96312 19.2443 8.04935 19.2028 8.16193L19.1906 8.13798L19.2028 8.16672C19.2297 8.2769 19.2321 8.34637 19.2077 8.3799C19.2028 8.38709 19.1612 8.37032 19.215 8.47092C19.2712 8.57392 19.3446 8.49727 19.3079 8.39427C19.2004 8.06851 19.2639 8.01821 19.215 7.78826C19.1979 7.81461 19.2052 7.84096 19.1246 7.85772C19.1246 7.85054 19.1197 7.84096 19.1173 7.82898C19.0904 7.73317 19.0635 7.7164 19.0488 7.75712C19.017 7.84814 18.9633 7.86012 19.0415 7.8673C19.017 7.8673 18.9877 7.8697 18.9559 7.8697C18.9559 7.8697 18.9193 7.87449 18.8924 7.87928C18.8631 7.88407 18.8337 7.88886 18.8044 7.89365C18.7433 7.90323 18.6822 7.91521 18.6138 7.92479C18.4842 7.95833 18.2936 7.99665 18.1078 8.05653C18.0492 8.0757 18.0076 8.13318 18.0614 8.20504V8.20983ZM18.3694 8.89011L18.3987 8.89969L18.3743 8.87813C18.2985 8.79669 18.2765 8.72004 18.3767 8.65057C18.4354 8.61225 18.4916 8.56434 18.5502 8.52123C18.5747 8.5356 18.5991 8.55716 18.6235 8.56434C18.6602 8.57153 18.7042 8.58111 18.7189 8.52362C18.692 8.52362 18.6651 8.52123 18.6358 8.51883C18.6089 8.51644 18.582 8.51164 18.5527 8.50925C18.5258 8.43739 18.4818 8.30325 18.4745 8.30565C18.296 8.35116 18.1641 8.47811 18.1323 8.66974C18.103 8.8422 18.252 8.86136 18.3669 8.88771L18.3694 8.89011ZM17.404 8.28888C17.6386 8.40386 17.7241 8.30804 17.8121 8.16672C17.6288 8.04935 17.5433 8.1787 17.404 8.28888ZM17.0642 8.43739L17.0862 8.4302L17.0667 8.40625V8.43739H17.0642ZM17.1253 8.73441C17.4186 8.88531 17.5286 8.66015 17.6655 8.47092C17.4944 8.57632 17.3184 8.66495 17.1253 8.73441ZM17.2475 9.15838C17.2475 9.15838 17.2573 9.18473 17.2671 9.19191C17.3037 9.21826 17.3209 9.20629 17.3111 9.16557C17.3111 9.15598 17.2915 9.14401 17.2793 9.14161C17.2695 9.14161 17.2573 9.15119 17.2475 9.15838ZM16.7563 8.16193L16.8271 8.08767L16.8394 8.05653L16.8174 8.08288L16.7563 8.16432V8.16193ZM17.0667 9.77877C17.1375 9.77637 17.1302 9.69733 17.1571 9.65182L17.206 9.53205C17.2304 9.52007 17.2549 9.51049 17.2842 9.5057L17.316 9.52247L17.2842 9.50331C17.2451 9.47696 17.2182 9.48893 17.1987 9.52965L17.1473 9.64703C17.118 9.67816 17.0862 9.7093 17.0593 9.74284C17.0544 9.74763 17.0667 9.78116 17.0667 9.78116V9.77877ZM16.6756 9.63744C16.6438 9.69972 16.6194 9.78116 16.6561 9.88177C16.6634 9.90093 16.7098 9.92728 16.7269 9.92009C16.8174 9.88177 16.8418 9.79314 16.8198 9.69493C16.81 9.64703 16.7563 9.63026 16.6781 9.63984L16.6756 9.63744ZM16.3188 8.64099C16.3188 8.64099 16.3432 8.66974 16.353 8.66974C16.3921 8.66974 16.4019 8.65057 16.3725 8.61704C16.3652 8.60746 16.3432 8.60506 16.331 8.60985C16.3237 8.61225 16.3212 8.63141 16.3163 8.64339L16.3188 8.64099ZM16.463 9.39552L16.5119 9.46259C16.5461 9.41947 16.5827 9.37875 16.6145 9.33324C16.617 9.32845 16.5803 9.27575 16.5632 9.27575C16.4948 9.27575 16.4728 9.33084 16.463 9.39552ZM16.1648 8.99789L16.1892 8.97873L16.1599 8.97155L16.1648 8.99789ZM16.2552 9.81949C16.2137 9.81949 16.1892 9.87458 16.2259 9.9153C16.2503 9.94165 16.3017 9.94165 16.3383 9.95123C16.3481 9.92249 16.3652 9.88177 16.3603 9.87937C16.3286 9.85302 16.2895 9.81709 16.2552 9.81949ZM16.0377 9.39791C16.067 9.40749 16.0573 9.48893 16.111 9.45061L16.0402 9.39073C16.0255 9.36677 16.0108 9.34521 15.9937 9.32366C15.9888 9.31887 15.9766 9.32126 15.9668 9.31887C15.9668 9.37156 16.0059 9.37875 16.0377 9.39791ZM15.9424 9.99674C15.9424 9.99674 15.9693 10.0015 15.9839 10.0039C15.9888 9.99195 15.9986 9.97758 15.9937 9.968C15.9864 9.95602 15.9717 9.93925 15.9595 9.93925C15.9204 9.93925 15.9131 9.96321 15.9424 9.99435V9.99674ZM15.4951 9.99435L15.5269 10.0111L15.5587 10.0255L15.5293 10.0063L15.4951 9.99195V9.99435ZM15.1994 10.1644L15.2678 10.1884L15.3045 10.1261C15.28 10.1141 15.2507 10.0902 15.2312 10.0973C15.2141 10.1045 15.2092 10.1429 15.1969 10.1668L15.1994 10.1644ZM14.6861 10.3201L14.7179 10.3345L14.8108 10.4183L14.8352 10.3489L14.7203 10.3321L14.6886 10.3201H14.6861ZM14.4246 10.3728C14.4417 10.4111 14.4711 10.4734 14.493 10.4734C14.5444 10.4758 14.537 10.4207 14.5322 10.4039C14.5102 10.3297 14.4833 10.2914 14.4344 10.2986C14.4246 10.2986 14.4148 10.3489 14.4246 10.3704V10.3728Z" fill="currentColor"/>
<path d="M15.2507 8.8853C15.2507 8.8853 15.2654 8.86374 15.2727 8.85176C15.4438 8.82541 15.5636 8.65534 15.7738 8.71283C15.9155 8.74876 15.9302 8.60744 15.896 8.48288C15.8666 8.3727 15.8373 8.24335 15.7273 8.20023C15.5904 8.14754 15.5562 8.28407 15.5 8.3703C15.4756 8.40863 15.4365 8.43258 15.4047 8.46611L15.39 8.49965L15.3998 8.46372C15.1627 8.44695 15.1432 8.49007 15.2336 8.8302C15.2312 8.84457 15.2263 8.85655 15.2263 8.87092C15.2263 8.87571 15.2483 8.88529 15.2507 8.8829V8.8853Z" fill="currentColor"/>
</svg>
