<svg width="164" height="73" viewBox="0 0 164 73" fill="none" xmlns="http://www.w3.org/2000/svg">
<path d="M135.25 14.5032C135.357 14.4324 135.442 14.5216 135.533 14.5547C135.574 14.5689 135.614 14.5872 135.654 14.6035C135.846 14.5503 135.987 14.6046 136.076 14.7505L136.09 14.7868L136.09 14.7499C136.152 14.68 136.237 14.6122 136.36 14.6661C137.112 14.9819 137.888 15.284 138.457 15.7969C138.531 15.8645 138.513 15.9169 138.431 15.9603C138.391 15.9788 138.328 15.896 138.3 15.9688L138.429 15.9783C138.604 16.0101 138.8 16.0852 138.952 16.0642C139.253 16.0192 139.427 16.0025 139.249 16.2838L139.495 16.3707C139.588 16.3121 139.682 16.2239 139.811 16.3556C139.851 16.3971 139.843 16.4617 139.779 16.4781C139.656 16.5095 139.579 16.4252 139.494 16.3728C139.68 16.6782 139.965 16.8297 140.303 16.8022C140.438 16.7903 140.603 16.794 140.701 16.7436C141.275 16.4333 141.815 16.6882 142.375 16.9213C142.54 16.9893 142.542 17.0893 142.596 17.1788C142.679 17.3113 142.729 17.4389 142.976 17.3138C143.061 17.2713 143.138 17.3767 143.096 17.4406C143.018 17.5545 142.912 17.6579 142.778 17.8088C143.367 17.773 143.775 17.9712 144.166 18.2596C144.307 18.3624 144.463 18.4582 144.628 18.5451L144.878 18.675L144.942 18.7072L144.972 18.7228L144.987 18.7317L145.162 18.8562C145.685 19.2193 146.187 19.5948 146.688 19.9725C148.335 21.2231 148.731 21.6746 149.108 22.1112C148.858 21.9213 148.611 21.7323 148.378 21.5637C148.145 21.3995 147.934 21.2532 147.765 21.1443C147.426 20.9243 147.259 20.8532 147.424 21.0624C148.326 21.7588 148.56 21.9093 148.689 21.9535C148.815 21.9968 148.827 21.9331 149.233 22.2304C149.858 22.7316 150.45 23.2763 151.06 23.817C151.645 24.3715 152.251 24.9272 152.804 25.4977C153.38 26.0609 153.908 26.6357 154.441 27.1891C154.948 27.7531 155.469 28.2912 155.926 28.8203C158.869 32.0776 160.989 35.4858 161.795 38.6678C161.807 38.7337 161.946 39.0325 162.087 39.3965C162.222 39.7588 162.39 40.186 162.5 40.5018C162.384 40.1104 162.243 39.6262 162.141 39.2826C162.035 38.9403 161.986 38.7368 162.125 38.906C162.157 38.95 162.281 39.182 162.342 39.366C162.848 40.7752 162.648 40.6138 162.655 40.9138C163.288 44.3253 163.482 47.4049 163.128 50.3406C163.059 51.002 162.916 51.6423 162.771 52.1341C162.604 52.6173 162.416 52.9422 162.232 52.9698C162.33 52.5548 162.454 52.1513 162.52 51.7292C162.489 51.6441 162.762 50.6465 162.476 51.3263L162.456 51.8772C162.383 52.2881 162.266 52.6839 162.172 53.0913C161.604 54.5352 160.92 55.9481 160.019 57.2687C159.119 58.5871 158.004 59.8133 156.604 60.8468C156.536 60.9128 155.905 61.4931 155.703 61.71C154.589 62.8718 153.121 63.9597 151.457 64.9377C149.792 65.9156 147.933 66.7846 146.05 67.5587C145.63 67.7056 146.259 67.3509 145.093 67.851C145.396 67.7721 145.692 67.6841 145.986 67.5908C145.954 67.6996 145.79 67.8855 144.411 68.3775C142.463 69.052 140.562 69.5507 138.39 70.2208C136.212 70.8847 134.447 71.3231 132.654 71.3632C132.164 71.3676 131.261 71.5048 130.235 71.6525C129.721 71.7263 129.178 71.8055 128.647 71.8833C128.11 71.9528 127.588 72.0217 127.116 72.0844C125.123 72.3234 123.584 72.372 123.658 72.2014C124.218 72.1341 124.785 72.0897 125.339 72.0068C126.161 71.9224 127.147 71.8323 127.738 71.7278C128.284 71.6379 127.792 71.6487 127.178 71.7351C126.427 71.8398 125.849 71.9205 125.196 72.0116C124.62 72.0838 124.04 72.1361 123.461 72.2C122.961 72.2501 122.483 72.2972 121.994 72.3458C121.503 72.3892 121.013 72.4557 120.458 72.4669C119.363 72.5047 118.095 72.539 116.395 72.4857C115.57 72.4374 114.212 72.3742 113.681 72.3782C107.867 72.3825 102.31 71.5712 96.8127 70.5487L95.7296 70.2782L96.6083 70.5245C96.2431 70.5047 95.8325 70.4742 95.39 70.4345C95.1677 70.412 94.9378 70.392 94.7053 70.3689C94.4715 70.3385 94.228 70.3053 93.984 70.2742C93.0006 70.1387 91.9429 69.9726 90.9131 69.7936C90.3973 69.7074 89.8928 69.6059 89.4073 69.4984C88.9213 69.393 88.4589 69.2898 88.0245 69.1854C87.1622 68.9786 86.4295 68.779 85.9345 68.6086C84.5079 68.0867 82.9899 67.6655 81.2795 67.2628C80.4298 67.048 79.5305 66.8374 78.5705 66.6208C78.0914 66.5152 77.5964 66.4049 77.0854 66.29C76.5756 66.1708 76.0498 66.047 75.508 65.9186C74.6137 65.7025 73.1385 65.289 71.9385 64.9433L71.4403 64.7836L71.7626 64.9042C72.067 65.1466 70.3251 64.721 68.1066 64.1326C64.5561 63.1396 63.1732 62.6464 64.077 62.6851C64.3164 62.6963 65.8765 63.1158 64.2477 62.5379C61.7501 61.8599 59.15 61.1407 56.5917 60.3967C55.2234 60.0094 53.5488 59.5061 52.5475 59.0721C50.6045 58.2374 48.0101 57.4021 46.7435 57.0348C44.9034 56.5046 43.2202 55.9111 41.5976 55.2634C39.9751 54.6157 38.412 53.9182 36.8131 53.1641L37.2654 53.3268L36.7131 53.1145C34.1958 52.1559 31.6413 51.0618 31.4722 50.6504C31.6453 50.7234 31.9722 50.8638 31.9599 50.8464C31.9211 50.8006 31.7451 50.6898 31.6248 50.602L31.0498 50.3001L31.4805 50.5373C31.4803 50.5742 31.4711 50.6062 31.4433 50.6306C28.0984 48.9115 24.7211 47.0767 21.3835 45.0317C20.9076 44.7468 20.4772 44.4726 20.0429 44.1996C19.6042 43.93 19.1786 43.6388 18.7125 43.3197C18.35 43.0743 18.0257 42.8284 17.7132 42.6021C17.4006 42.3757 17.1092 42.1601 16.8479 41.9485C16.5821 41.7403 16.3337 41.5439 16.0988 41.3608C15.8727 41.1709 15.6635 40.9951 15.4683 40.8303C15.0736 40.5041 14.7591 40.2125 14.4922 39.96C14.2285 39.7085 14.0042 39.5006 13.8426 39.3155C13.1762 38.5853 13.1594 38.391 13.324 38.2167C13.3429 38.199 12.7778 37.5742 12.491 37.1982C11.6743 36.2676 11.5353 36.1005 11.5201 36.1654C11.5087 36.2291 11.656 36.5118 11.5363 36.4219C11.2609 36.2109 11.0078 35.9947 10.7408 35.7307C10.6086 35.6002 10.473 35.4572 10.3322 35.2965C10.2617 35.2161 10.1887 35.1327 10.1137 35.0441C10.0496 34.954 9.98025 34.8578 9.90896 34.7564C9.35139 33.949 8.58817 32.7728 7.96496 30.87C7.90632 30.7006 7.84324 30.5346 7.791 30.3671C7.74836 30.2024 7.70571 30.0376 7.66504 29.8781C7.58111 29.5559 7.49533 29.2401 7.41473 28.9305C7.35135 28.6212 7.30398 28.3164 7.24836 28.0163C7.19976 27.7159 7.1199 27.4157 7.10453 27.1202C7.05914 26.5319 6.95369 25.9356 6.96823 25.3438C6.96049 25.0459 6.95398 24.7437 6.94611 24.4343C6.96445 24.13 6.98403 23.8215 7.00225 23.5057C7.02245 22.9063 7.13542 22.5623 7.21498 22.3704C7.29514 22.1764 7.36811 22.1396 7.41637 22.1766L7.39987 22.4745L7.44538 22.088C7.74917 20.5886 8.22042 19.0011 9.07025 17.7838C10.3492 15.8469 11.9492 14.1551 13.7216 12.6468C15.4978 11.1374 17.4691 9.79275 19.6436 8.59675C19.8497 8.48289 20.1456 8.34636 20.4636 8.20471C20.7895 8.07221 21.1382 7.93246 21.4514 7.80786C21.2855 7.92639 20.1596 8.46592 21.1348 8.08856L21.4939 7.79241C26.0283 5.828 31.0812 4.31328 36.5663 3.16331C37.255 3.0222 37.9418 2.87591 38.6435 2.75007C39.3458 2.6221 40.0448 2.48162 40.7698 2.38328C42.2112 2.16798 43.6673 1.94998 45.1342 1.73047C46.6259 1.55736 48.1504 1.41451 49.6824 1.25766C50.0674 1.22073 50.4498 1.18075 50.8385 1.14262C51.23 1.11913 51.6247 1.09656 52.0193 1.07399C52.8087 1.02885 53.6012 0.984631 54.4008 0.940124C53.5803 1.05715 52.7745 1.17146 52.0191 1.27949C51.6432 1.3329 51.2814 1.38573 50.9381 1.43464C50.6038 1.50003 50.2842 1.56272 49.9875 1.61814C48.8105 1.85417 48.0228 2.04993 47.958 2.19065C51.368 1.77102 53.4851 1.67649 54.7887 1.5185C56.0988 1.37394 56.6216 1.21964 56.9934 1.03572C57.3042 0.871184 57.2061 0.766683 60.3622 0.638868C60.7927 0.624308 61.1989 0.609691 61.5809 0.59502C61.7729 0.590278 61.9585 0.583692 62.1403 0.578317C62.3214 0.575075 62.5001 0.580362 62.673 0.581675C63.3635 0.591189 63.9723 0.607225 64.5168 0.630125C65.6025 0.675002 66.4244 0.745495 67.1081 0.838536C67.4564 0.892695 67.9212 0.927302 68.4993 0.989916C69.0754 1.04734 69.7516 1.09433 70.5071 1.10643C71.6698 1.12496 72.9137 1.16227 74.198 1.22742C75.4886 1.33131 76.8124 1.44015 78.1265 1.54623C78.7836 1.59927 79.4369 1.65352 80.0838 1.70593C80.7328 1.77511 81.3715 1.84365 81.9968 1.91064C83.2462 2.0373 84.4429 2.14189 85.5359 2.20965C86.0868 2.2344 86.6951 2.31263 87.3454 2.38913C87.9951 2.46777 88.6826 2.5596 89.3855 2.65817C90.7939 2.85837 92.2751 3.07033 93.6552 3.36865C94.9724 3.63267 96.0722 3.85716 97.253 4.07727C97.549 4.13253 97.8488 4.18658 98.1583 4.24339C98.4658 4.3066 98.7862 4.3735 99.12 4.44196C99.7844 4.57795 100.509 4.71987 101.325 4.87175C102.351 5.06346 103.255 5.24756 104.024 5.41824C104.79 5.59745 105.422 5.78642 105.908 5.93816C106.883 6.24896 107.276 6.47091 107.016 6.5691L106.629 6.50388L107.112 6.59677C107.666 6.72884 108.225 6.85971 108.789 6.99455C109.006 7.03621 109.212 7.07724 109.462 7.12599C109.491 7.13215 109.742 7.21139 109.892 7.25686C109.675 7.2152 109.458 7.17354 109.238 7.13096C110.125 7.3632 110.868 7.59602 111.484 7.76879C112.099 7.94369 112.58 8.06828 112.917 8.14711C113.593 8.30264 113.705 8.2654 113.176 8.03215C111.579 7.33178 113.355 7.84352 116.464 8.79251C118.064 9.32732 119.696 9.85763 121.373 10.3893C121.582 10.4565 121.792 10.5216 122.005 10.5898C122.212 10.6635 122.423 10.7359 122.631 10.8096C123.05 10.9557 123.475 11.1036 123.9 11.2537C124.754 11.5483 125.618 11.8458 126.497 12.15C127.06 12.3491 127.637 12.5246 128.19 12.7463C128.497 13.0055 129.476 13.4426 130.687 13.9323C131.897 14.4241 133.35 14.9513 134.579 15.4718C136.915 16.4474 137.453 16.8288 137.948 17.1562C138.438 17.5007 138.889 17.7877 140.963 18.8172C142.174 19.4249 142.98 19.8164 143.933 20.3199C144.403 20.5777 144.919 20.8557 145.51 21.234C145.66 21.3279 145.815 21.4258 145.977 21.5277C146.136 21.636 146.301 21.7504 146.474 21.8698C146.647 21.9912 146.829 22.1175 147.019 22.2509C147.204 22.3919 147.394 22.539 147.599 22.6928C148.943 23.7429 150.221 24.9127 151.24 26.1859C152.269 27.4524 153.064 28.7949 153.592 30.1251C154.659 32.7979 154.688 35.3564 154.356 37.5661C154.314 37.9398 154.224 38.2513 154.141 38.5276C154.061 38.8049 153.966 39.0406 153.861 39.2483C153.759 39.457 153.657 39.6424 153.555 39.8163C153.444 39.9853 153.342 40.1454 153.237 40.3067C152.831 40.9568 152.446 41.6081 152.069 43.0979C150.587 45.7754 148.607 48.2448 146.244 50.4676C143.337 53.206 140.036 55.4241 135.983 57.4162C134.217 58.2771 132.231 59.1556 130.072 59.9842C127.919 60.8168 125.619 61.6186 123.259 62.3754C120.845 63.1492 119.491 63.4705 118.633 63.6228C117.776 63.7803 117.374 63.722 116.773 63.6298C116.657 63.6103 116.586 63.5806 115.965 63.7157C115.171 63.8844 114.261 64.0609 113.671 64.2075C113.203 64.3174 112.54 64.4521 111.792 64.6062C111.044 64.7624 110.189 64.8998 109.352 65.0512C108.508 65.1893 107.664 65.3041 106.938 65.4067C106.202 65.4949 105.577 65.5597 105.17 65.5901C104.541 65.6445 103.907 65.6769 103.284 65.7215C102.662 65.7661 102.042 65.8116 101.42 65.8425C100.8 65.8765 100.183 65.9229 99.5661 65.9483C98.9462 65.9707 98.3263 65.993 97.7071 66.0133L95.848 66.0782L94.9169 66.1102L93.9726 66.1038C92.7105 66.0936 91.4362 66.0775 90.142 66.0465C88.1419 65.9391 85.4579 65.8842 85.4492 65.6738C85.4468 65.6338 85.2519 65.6008 84.9473 65.5754C84.6407 65.5448 84.2231 65.5146 83.7738 65.4983C83.0807 65.4741 82.3561 65.4386 81.6098 65.3945C81.2351 65.372 80.8571 65.3486 80.4753 65.3263C80.0936 65.3041 79.7028 65.277 79.3106 65.231C77.7367 65.0639 76.0963 64.887 74.4346 64.6761C72.7705 64.4253 71.0865 64.1711 69.4256 63.9213C67.7648 63.6229 66.1277 63.3383 64.5484 63.0819C58.727 61.959 60.0629 61.8935 57.254 61.0449C56.1146 60.9337 54.3493 60.6492 52.0841 60.0427C51.516 59.8975 50.9171 59.7388 50.2868 59.5687C49.9719 59.4826 49.6475 59.3938 49.3166 59.3031C48.987 59.2081 48.6547 59.0985 48.3115 58.9904C46.9445 58.5503 45.4509 58.0807 43.8721 57.5218C42.5261 57.0208 41.2091 56.5397 39.8762 56.0656L39.3766 55.887L38.8813 55.6935C38.5507 55.5659 38.2169 55.4373 37.8798 55.3079C37.2078 55.0542 36.5235 54.7947 35.8265 54.5315C35.355 54.3517 34.8791 54.1869 34.4145 53.9953L33.0211 53.4182C32.0898 53.0298 31.1579 52.6435 30.2266 52.255C29.3034 51.8504 28.3959 51.4157 27.4808 50.995L26.1091 50.3549L25.426 50.031L24.7568 49.6834C22.9805 48.7512 21.1759 47.8455 19.4593 46.8265C17.732 45.8206 16.055 44.7484 14.4443 43.6145C12.9185 42.7152 11.7248 41.7822 10.5029 40.7302C9.27786 39.6773 7.99566 38.534 6.33355 37.0734C5.31764 36.1847 3.98277 34.719 2.90157 32.9984C2.35875 32.1398 1.87401 31.224 1.49264 30.3102C1.1221 29.395 0.853714 28.4861 0.658083 27.6374C0.192976 25.6069 0.29313 23.5753 0.857073 21.7143C1.42163 19.8511 2.45134 18.1658 3.72665 16.7107C4.81253 15.4921 5.86721 14.4539 6.9922 13.4845C8.12297 12.519 9.34398 11.6373 10.8233 10.8093C11.777 10.2779 12.7674 9.77554 13.8043 9.31661C14.3133 9.07752 14.8496 8.8763 15.3741 8.65554L16.1642 8.33111L16.975 8.03113C19.1238 7.21344 21.3837 6.52713 23.6826 5.90981C25.977 5.28424 28.3371 4.76768 30.7149 4.29781C33.0875 3.82183 35.4974 3.43282 37.8999 3.06942C39.9701 2.76501 42.0488 2.47922 44.1379 2.21723L45.5039 2.04719L45.6168 2.04044L45.8425 2.02693L46.7511 1.97688C47.3562 1.94565 47.9685 1.92571 48.5971 1.94515C49.5257 1.97015 50.4687 2.02933 51.3834 2.01802C51.5818 2.01512 51.8727 2.01579 51.9484 2.16232C52.157 2.56893 52.342 2.3358 52.5313 2.31641C52.7384 2.29524 52.9364 2.25758 53.1384 2.2303C53.2212 2.21952 53.3072 2.20965 53.3752 2.29854C53.4308 2.37001 53.4722 2.47895 53.4118 2.49619C53.1274 2.56902 53.314 2.82374 53.2448 2.97938C53.0449 3.42072 52.5149 3.55214 52.0161 3.68332C51.0759 3.92751 50.0382 4.0166 49.0608 4.19699C48.3719 4.32651 47.6596 4.41695 46.9511 4.50618L44.9303 4.77168C43.6663 4.93647 42.4147 5.11866 41.1642 5.2966C38.6667 5.66497 36.1995 6.07213 33.7679 6.52419C31.3416 6.98237 28.9663 7.50377 26.651 8.09331C24.339 8.68377 22.113 9.37291 19.9803 10.1467C19.2255 10.4328 18.4604 10.7067 17.7442 11.027L16.6507 11.4904C16.299 11.6524 15.9474 11.8144 15.6015 11.9804C14.2225 12.6526 12.9234 13.3963 11.7195 14.2067C10.5129 15.014 9.42213 15.9009 8.44876 16.8494C7.47539 17.7978 6.62844 18.8127 5.9596 19.8951C5.61077 20.4321 5.33494 20.9925 5.0719 21.5566C4.83767 22.1289 4.61563 22.7071 4.47801 23.305C4.17079 24.4916 4.10147 25.7305 4.24729 26.9807C4.3931 28.2308 4.80771 29.4983 5.41983 30.7419C6.0498 31.9836 6.90228 33.211 7.92654 34.3955C9.86967 36.637 12.3848 38.7338 15.1292 40.6841C16.5123 41.6578 17.9619 42.5929 19.4514 43.4979C20.9453 44.3996 22.4716 45.2852 24.0622 46.1038C30.3522 49.4615 37.0948 52.319 44.0114 54.6445C45.2419 55.0891 46.5086 55.4564 47.7666 55.8535C48.3959 56.051 49.0259 56.2464 49.6552 56.4439C50.2833 56.6456 50.9269 56.8057 51.5637 56.9892C52.2018 57.1684 52.8399 57.3476 53.4785 57.5247C54.1184 57.6975 54.7542 57.8969 55.4002 58.0484C56.6906 58.3693 57.981 58.6903 59.2746 59.0122C64.4627 60.216 69.7069 61.1888 74.9257 61.8771C80.0107 62.5245 85.0793 62.9038 90.0879 63.0464L93.8278 63.0938C95.0608 63.0725 96.2918 63.0345 97.5234 63.0059C99.9828 62.9384 102.406 62.768 104.789 62.5214C107.172 62.2747 109.52 61.9557 111.815 61.5567C114.105 61.1494 116.348 60.6661 118.53 60.1052C122.899 58.9917 126.989 57.5251 130.726 55.7631C131.255 55.4579 131.839 55.1989 132.427 54.9386C138.569 51.8458 143.732 47.8059 146.969 42.9242L147.273 42.4691L147.55 42.0014C147.727 41.6875 147.935 41.3849 148.088 41.0614L148.581 40.1064C148.722 39.7844 148.88 39.465 149.009 39.1393C149.536 37.8404 149.896 36.5052 150.025 35.1542C150.266 32.4539 149.488 29.6702 147.362 27.2676C145.766 25.3986 143.441 23.7123 140.863 22.1935C138.279 20.6749 135.435 19.3198 132.509 18.0493C126.597 15.5443 120.517 13.3351 114.223 11.5171C98.0182 6.88259 81.0209 4.31132 65.0222 4.12056C64.3873 4.11087 63.7484 4.0908 63.1168 4.09362L61.2313 4.13014C59.9779 4.16171 58.7141 4.16948 57.4661 4.21875L53.7554 4.44316L52.8277 4.49927L52.3655 4.52778L51.9117 4.57491L50.0936 4.76251L48.2754 4.95011C47.6681 5.01305 47.0594 5.06867 46.4729 5.16763L42.9232 5.69945C40.5647 6.06631 38.2756 6.54096 36.0395 7.07244C31.5854 8.15679 27.3804 9.55546 23.6832 11.3568C21.8365 12.2569 20.125 13.2653 18.6049 14.3911C17.0848 15.517 15.749 16.7491 14.6875 18.0995C14.4581 18.3544 14.287 18.6355 14.0979 18.9067C13.9115 19.181 13.7096 19.4485 13.5635 19.7391C13.4052 20.0238 13.2367 20.3079 13.0881 20.5953L12.6972 21.4829C12.2267 22.6825 11.9189 23.9313 11.8214 25.2199C11.7502 26.5137 11.8757 27.8342 12.2036 29.1622C12.5346 30.4911 13.1336 31.8164 13.8823 33.1155L14.4831 34.0855L15.1864 35.0366C15.6515 35.6718 16.2044 36.2908 16.7694 36.9041C17.9109 38.1269 19.2233 39.2974 20.645 40.4138C23.4914 42.6477 26.7737 44.656 30.2289 46.4854C35.5045 49.2736 41.2305 51.6418 47.0658 53.799C49.9895 54.8747 52.9452 55.8996 55.9209 56.8909L60.398 58.3611L64.8879 59.7865C68.8564 61.013 72.9393 62.2033 77.0664 63.2885C78.0954 63.5665 79.1335 63.8125 80.1694 64.0786L81.724 64.4688C82.2416 64.5971 82.7628 64.7127 83.2822 64.8346C84.3223 65.0742 85.3585 65.315 86.3953 65.5537C87.4339 65.7744 88.4698 65.992 89.502 66.2109C90.3884 66.4062 91.2764 66.572 92.1644 66.7378L94.8266 67.2415L97.4868 67.6799C98.3733 67.8268 99.2586 67.9779 100.145 68.0901L102.798 68.455C103.241 68.5201 103.681 68.5683 104.121 68.6145L105.442 68.7572L106.763 68.8998C107.203 68.9481 107.646 68.9994 108.082 69.0257L110.708 69.2233C111.143 69.2517 111.587 69.3009 112.02 69.3126L113.322 69.3643L115.927 69.4658L118.502 69.4662L119.791 69.4679C120.217 69.4567 120.636 69.4342 121.06 69.4178C124.47 69.3354 127.766 69.0079 130.961 68.4823C133.724 68.0102 136.403 67.3962 138.935 66.6081C141.462 65.8138 143.873 64.88 146.076 63.7639C150.504 61.5541 154.188 58.6679 156.609 55.2003C156.922 54.7733 157.181 54.3211 157.458 53.8766L157.825 53.1923C157.953 52.9658 158.061 52.7337 158.164 52.4976C158.608 51.5678 158.933 50.5986 159.179 49.6095C159.67 47.6303 159.745 45.5407 159.446 43.4148C158.843 39.1571 156.723 34.7741 153.53 30.6894C152.137 28.8836 150.518 27.1398 148.757 25.4588C146.995 23.7778 145.064 22.1702 142.998 20.6534L142.623 20.3812L142.598 20.3601L142.544 20.3191L142.439 20.2381L142.23 20.0739C142.092 19.9626 141.946 19.8558 141.803 19.75C141.222 19.324 140.641 18.8979 140.011 18.5129C139.755 18.3537 139.642 18.0739 139.413 17.9779C139.109 17.8534 138.921 17.6747 138.676 17.5277C138.35 17.3346 138.046 17.1269 137.756 16.9091C137.46 16.6947 137.183 16.4648 136.919 16.2154C136.642 15.9507 136.247 15.6982 135.864 15.4748C135.719 15.3891 135.598 15.3171 135.852 15.1781C136.107 15.039 135.856 14.8302 135.684 14.6676C135.626 14.6879 135.576 14.7195 135.515 14.7251C135.39 14.7377 135.31 14.6777 135.262 14.5922C135.246 14.5645 135.246 14.516 135.268 14.5014L135.25 14.5032ZM51.5208 3.42972C51.5725 3.43075 51.6159 3.43634 51.6529 3.4285C51.6751 3.42337 51.6857 3.39869 51.7002 3.3844C51.6588 3.384 51.6159 3.37628 51.5796 3.38199C51.5573 3.38712 51.5442 3.40873 51.5214 3.42759L51.5208 3.42972ZM48.9844 2.93453C48.9442 2.92986 48.8987 2.91908 48.8624 2.92479C48.8332 2.93021 48.8124 2.95425 48.7864 2.97218C48.8337 2.97656 48.8785 2.98947 48.9148 2.98376C48.9441 2.97834 48.9616 2.95338 48.9838 2.93666L48.9844 2.93453ZM48.3048 2.69484C48.5714 2.68386 48.7404 2.6748 48.9578 2.66585C48.6824 2.50331 48.5415 2.57129 48.3048 2.69484ZM8.80161 14.2414C8.52244 14.4405 8.27148 14.7101 8.0093 14.9464C7.70151 15.2689 7.75258 15.272 8.17938 14.9215C8.44058 14.7126 8.73534 14.4233 8.96984 14.2229C9.31985 13.9103 9.23887 13.9147 8.80161 14.2414ZM29.4736 6.12771C28.5632 6.30429 27.7423 6.4951 26.9557 6.67501C26.1614 6.84576 25.4228 7.0395 24.6822 7.22805L24.1947 7.33243L24.5633 7.26772C26.0203 6.95062 27.5046 6.6345 29.4743 6.12558L29.4736 6.12771ZM40.8976 4.7185C40.821 4.71955 40.4833 4.76085 40.2623 4.79418C40.1177 4.81489 39.9708 4.85571 39.8307 4.88466C39.9997 4.8756 40.1057 4.88072 40.3 4.85586C40.9365 4.77591 41.1923 4.71796 40.8969 4.72064L40.8976 4.7185ZM46.7399 3.33885C46.7213 3.33118 46.7046 3.31712 46.6911 3.31556C46.6713 3.31216 46.6401 3.31239 46.6338 3.32214C46.6112 3.35257 46.6375 3.3694 46.6949 3.36283C46.7127 3.36104 46.7234 3.34796 46.7393 3.34098L46.7399 3.33885ZM7.21109 14.9982L7.44947 14.9768C8.82518 13.7747 10.4274 12.6887 12.0865 11.7299C13.014 11.1933 13.9782 10.6857 14.9978 10.2264C15.505 9.99374 16.0303 9.78243 16.5478 9.56196C17.0602 9.33538 17.599 9.13721 18.1385 8.93691C19.2007 8.52225 20.3178 8.16961 21.4245 7.80475C22.5565 7.47257 23.6814 7.1291 24.847 6.83664C25.9945 6.52279 27.1821 6.26208 28.3569 5.98611C29.5491 5.73364 30.7329 5.47415 31.9439 5.25253C33.1427 5.0135 34.3648 4.81355 35.5778 4.59712C36.8025 4.40023 38.0189 4.1963 39.2527 4.01589C40.468 3.82782 41.6229 3.66857 42.7733 3.50108C43.8454 3.35262 44.9143 3.20324 46.0444 3.04607C46.4803 2.94066 46.9131 2.72578 47.4715 3.14539C47.6381 3.09638 47.5446 2.95164 47.6064 2.88166C47.6536 2.82597 47.7362 2.79201 47.8571 2.70905C47.4296 2.76143 47.0059 2.81259 46.5892 2.86346C46.3738 2.88919 46.1585 2.91492 45.9431 2.94064C42.9914 3.32138 40.0636 3.72749 37.1786 4.18979C31.4064 5.10921 25.7985 6.27689 20.6121 7.95411C18.0292 8.79915 15.5387 9.7563 13.2688 10.9225C11.0058 12.0884 8.95748 13.4478 7.21749 15L7.21109 14.9982ZM11.8302 39.8768L12.2449 40.1695L12.5173 40.3427L12.1205 40.0598L11.8302 39.8768ZM7.84057 36.4981C7.97415 36.636 8.18295 36.8255 8.27035 36.883C8.33658 36.9298 8.25248 36.8247 8.2329 36.7844C8.06004 36.6145 7.83609 36.3814 7.72849 36.2857C7.31484 35.917 7.36176 36.0068 7.84057 36.4981ZM2.49895 26.962C2.69396 28.4504 3.13905 29.9369 4.01043 31.3753C3.22492 29.8554 2.82538 28.3912 2.49895 26.962ZM4.53509 18.9811C3.73171 20.0131 3.32974 20.9391 3.02634 21.8357C2.84393 22.4207 2.8907 22.4388 3.09921 21.8475C3.426 20.9899 3.80559 20.1176 4.53509 18.9811ZM14.2205 41.9376C11.9905 40.475 10.1045 38.9615 8.52126 37.4797C6.93163 35.996 5.64857 34.543 4.57366 33.1614C4.12789 32.4832 3.72605 31.7969 3.37837 31.1031C3.04791 30.4096 2.74674 29.7106 2.53615 29.0101C2.30132 28.3095 2.16666 27.6101 2.05502 26.915C1.97723 26.2227 1.92048 25.5295 1.966 24.8542C2.0803 22.136 3.20101 19.6177 4.96747 17.4563C3.153 19.6038 1.93137 22.1116 1.7894 24.8657C1.60965 27.6067 2.61907 30.5747 4.63548 33.2717C5.70268 34.7642 7.04326 36.3423 8.66502 37.8468C10.2836 39.3503 12.1844 40.7642 14.2237 41.9385L14.2205 41.9376ZM34.9563 51.6936L35.4392 51.9182L35.4947 51.918L34.9595 51.6945L34.9563 51.6936ZM25.1715 48.0635C25.5252 48.2555 25.8706 48.452 26.2224 48.6504C26.5698 48.8522 26.9392 49.0256 27.3069 49.217C28.0459 49.587 28.8162 49.9568 29.6698 50.3021C29.0503 49.9503 28.3196 49.5873 27.5417 49.22C27.1549 49.0346 26.7485 48.8574 26.3508 48.662C25.9575 48.4632 25.561 48.2635 25.1703 48.0678L25.1715 48.0635ZM17.5939 42.8957C17.9191 43.1142 18.2393 43.3381 18.576 43.5529C19.0243 43.8253 19.4885 44.0907 19.9451 44.3586L18.9273 43.7049C18.4721 43.4444 18.039 43.1672 17.5933 42.8979L17.5939 42.8957ZM22.7269 47.0334C20.9719 46.1836 18.6254 44.7406 16.6117 43.6822C19.251 45.2881 21.4621 46.5512 22.7269 47.0334ZM37.0313 53.7421L36.6939 53.5779C36.0162 53.2718 35.3033 53.0155 34.6015 52.7325L32.9559 52.129C32.197 51.8156 31.4214 51.4882 30.6375 51.1537C29.8749 50.7931 29.1034 50.4276 28.3344 50.0651C27.5699 49.6993 26.7947 49.3466 26.05 48.9842C25.316 48.6087 24.5891 48.2445 23.881 47.8996C22.4127 47.1855 21.8501 46.961 22.724 47.5246C23.3877 47.9515 24.3813 48.4965 25.3694 48.9406C27.5349 49.881 31.2566 51.6393 33.1342 52.2196L34.7741 52.8192C35.3505 53.08 35.9545 53.2933 36.5447 53.5303L37.0307 53.7442L37.0313 53.7421ZM48.213 57.8648C47.8911 57.5387 47.6281 57.2365 44.7377 56.1173C44.646 56.1348 44.4442 56.1136 44.4909 56.1802C44.5628 56.2794 43.9908 56.1354 43.5394 56.0423C42.4766 55.8215 41.9619 55.7194 42.5528 55.9659C42.847 56.0877 43.4171 56.2981 44.3318 56.624C45.2501 56.9371 46.5279 57.3261 48.2136 57.8626L48.213 57.8648ZM149.679 42.8506C149.735 42.7303 149.83 42.5314 149.812 42.5448C149.749 42.5843 149.642 42.7035 149.549 42.7969L149.679 42.8506ZM148.842 43.8198L149.185 43.3388L149.501 42.8453C149.298 43.1403 149.132 43.224 148.839 43.8188L148.842 43.8198ZM146.08 47.0917L146.36 46.7682L146.097 47.0204L146.077 47.0886L146.08 47.0917ZM143.181 50.031C143.307 49.931 143.466 49.7505 143.503 49.6942C143.535 49.6455 143.415 49.7242 143.36 49.7475C143.215 49.8884 142.988 50.0632 142.912 50.1453C142.598 50.4681 142.708 50.4214 143.181 50.031ZM138.277 52.5912C138.655 52.3649 139.005 52.124 139.362 51.8827C139.719 51.6414 140.082 51.4041 140.419 51.1479L140.754 50.9255L140.496 51.0752C140.198 51.2782 139.908 51.4534 139.568 51.6719C139.12 51.9654 138.567 52.319 138.278 52.5891L138.277 52.5912ZM131.318 55.527L131.611 55.4221L131.872 55.2639L131.318 55.527ZM112.122 62.4144C112.77 62.2845 113.225 62.1456 113.766 62.0127C113.309 62.061 112.979 62.0978 112.65 62.1324C112.233 62.2571 111.705 62.3705 111.399 62.4695C111.121 62.5557 111.575 62.5202 112.125 62.4154L112.122 62.4144ZM98.8385 63.4818L99.401 63.4661L99.3962 63.4346L98.8385 63.4818ZM93.4403 63.5966L94.009 63.6195L94.0068 63.5912L93.4403 63.5966ZM85.4757 64.1984C86.6458 64.2514 87.8127 64.3151 88.9951 64.3855C89.5889 64.4295 90.1714 64.4288 90.7656 64.4475C91.3578 64.4611 91.9532 64.4755 92.5557 64.4897C93.1587 64.5018 93.765 64.5148 94.3814 64.5284C94.9886 64.5139 95.6023 64.5013 96.2267 64.4872C96.8492 64.4679 97.4787 64.4483 98.119 64.4272C98.4379 64.4151 98.7606 64.4018 99.0832 64.3886C99.404 64.3701 99.7277 64.341 100.053 64.317C99.7256 64.3242 99.401 64.3323 99.0763 64.3404C98.7503 64.3412 98.4275 64.3429 98.1085 64.3433C97.4687 64.3507 96.8391 64.3587 96.2164 64.3664C95.5958 64.3793 94.9816 64.3941 94.3744 64.4085C93.7624 64.4032 93.1537 64.3987 92.5527 64.3918C91.9504 64.3892 91.3551 64.3863 90.763 64.3844C90.1689 64.3772 89.586 64.3917 88.9955 64.3602C87.814 64.3108 86.6459 64.263 85.4751 64.2006L85.4757 64.1984ZM81.3457 63.0154C81.1486 63.0256 81.5377 63.0707 82.3052 63.1255C82.5088 63.1403 82.6715 63.141 82.8528 63.1493L82.0965 63.0677C81.8348 63.05 81.4024 63.0109 81.3457 63.0154ZM75.5439 63.2679C75.5256 63.2834 76.2803 63.3946 76.7731 63.4765C77.4852 63.5431 78.7046 63.6773 78.9042 63.6702C79.3908 63.6533 78.0348 63.5121 77.4055 63.4347C76.6657 63.344 75.6122 63.2114 75.5439 63.2679ZM69.3665 61.5643C69.5717 61.598 69.7793 61.6231 69.9837 61.6474C70.2486 61.6544 71.6492 61.9055 71.3008 61.7797L69.8501 61.6181C69.6879 61.6037 69.5269 61.5851 69.3665 61.5643ZM55.0266 59.694C55.1509 59.6836 54.8328 59.5966 54.1078 59.3946C53.6201 59.2587 53.1531 59.1472 52.6758 59.0236C52.9999 59.1377 53.2807 59.2579 53.6679 59.3695C54.0641 59.4859 54.5681 59.6011 55.0272 59.6918L55.0266 59.694ZM63.5855 61.2153C62.3384 60.9368 61.3333 60.7442 60.5134 60.6188C59.5605 60.4136 58.6579 60.142 57.7045 59.8904C56.7518 59.6366 55.7467 59.384 54.6058 59.1454C55.4908 59.442 56.4495 59.7113 57.4552 59.9618C58.4621 60.208 59.5119 60.462 60.6004 60.6416C61.4697 60.7881 63.2683 61.2578 63.5894 61.2141L63.5855 61.2153ZM85.4595 65.0484L84.9308 65.007L84.8864 65.0288L85.4595 65.0484ZM98.6168 65.3699L98.1367 65.4002C97.8788 65.4414 96.4942 65.4351 96.8395 65.5L98.3192 65.4043L98.6174 65.3677L98.6168 65.3699ZM106.84 64.1335C105.946 64.2199 105.02 64.3065 104.086 64.3955C103.149 64.472 102.208 64.5634 101.277 64.6302C99.4186 64.7763 97.595 64.8144 96.031 64.7935C95.4452 64.7818 94.8749 64.7884 94.3101 64.7758C93.7434 64.758 93.1869 64.7409 92.6373 64.7235C91.5403 64.6938 90.478 64.688 89.4263 64.6691C88.3668 64.6295 87.3245 64.5902 86.2752 64.5512C85.7499 64.5338 85.2247 64.5165 84.6962 64.4982C84.163 64.4601 83.6293 64.4241 83.0891 64.3862C76.7509 63.7219 70.7552 63.0477 64.5702 61.8755C70.0603 63.0416 75.6191 63.8971 81.2333 64.3436C81.8838 64.4316 82.5148 64.491 83.112 64.4991C83.6397 64.5564 84.1679 64.6116 84.6923 64.668C85.2127 64.7024 85.7324 64.739 86.2528 64.7734C87.2883 64.8362 88.3174 64.8971 89.3427 64.9592C90.3628 65.0036 91.3682 65.0023 92.372 65.0189C92.8729 65.0246 93.3744 65.0282 93.8721 65.033C94.1216 65.0333 94.373 65.0388 94.6199 65.036L95.3578 65.013C97.3201 64.9385 99.279 64.9 101.185 64.7331C102.144 64.6651 103.085 64.56 104.033 64.4725C104.967 64.356 105.912 64.2634 106.838 64.1305L106.84 64.1335ZM116.94 62.0032L117.733 61.8136L118.531 61.63C118.692 61.6023 118.855 61.5777 119.013 61.5448C118.866 61.5741 118.715 61.5951 118.565 61.6191C117.982 61.7074 117.428 61.8388 116.893 62.0104C112.657 62.8203 108.724 63.4658 104.958 63.9908L104.5 64.0065L104.827 64.0109C105.214 63.9929 105.607 63.9767 106.01 63.959C106.411 63.9383 106.819 63.9057 107.238 63.8737C107.653 63.8387 108.081 63.7979 108.51 63.7413C108.937 63.6773 109.371 63.6036 109.813 63.5116C110.338 63.4089 110.926 63.2941 111.547 63.1726C112.169 63.0564 112.826 62.9429 113.468 62.809C114.762 62.5629 116.013 62.2743 116.943 62.0063L116.94 62.0032ZM116.869 63.08L116.467 63.1629L116.685 63.1539L116.869 63.08ZM127.471 60.2788L127.002 60.4509L127.45 60.3145L127.471 60.2788ZM130.406 58.6553L129.99 58.8473C129.803 58.9667 128.659 59.3785 129.002 59.3317L130.124 58.8049L130.406 58.6553ZM133.88 56.5933C133.55 56.609 132.705 57.0031 131.676 57.4828C130.647 57.9646 129.422 58.5219 128.41 58.9303C127.856 59.1449 127.288 59.3716 126.738 59.5756C126.179 59.7703 125.648 59.9545 125.182 60.1022C124.244 60.3864 123.575 60.5214 123.547 60.375L123.787 60.264L123.405 60.4103C122.555 60.849 120.734 61.4308 118.758 61.9611C116.784 62.4965 114.636 62.9517 113.242 63.3262C118.906 62.23 124.358 60.9065 129.156 58.9049C129.628 58.7084 130.208 58.4664 130.802 58.2196C131.386 57.9605 131.993 57.7058 132.505 57.4582C133.524 56.9642 134.225 56.577 133.88 56.5954L133.88 56.5933ZM135.743 55.2521C133.544 56.0876 130.829 57.5736 127.922 58.7017C128.57 58.5075 129.218 58.2458 129.899 57.9849C130.573 57.7147 131.247 57.4099 131.925 57.1111C133.26 56.4839 134.575 55.8302 135.74 55.2511L135.743 55.2521ZM138.238 54.3053C138.236 54.2885 137.998 54.4026 137.832 54.498C137.687 54.5809 137.485 54.7167 137.307 54.8273C137.354 54.8222 137.338 54.8639 137.456 54.8032C137.93 54.5677 138.248 54.3639 138.238 54.3032L138.238 54.3053ZM139.211 52.851C139.111 52.9237 138.947 53.0337 138.925 53.062C138.833 53.1648 138.787 53.2394 138.721 53.3243L138.509 53.508L138.815 53.2751L139.211 52.851ZM151.336 40.8055C151.164 41.174 150.943 41.5214 150.749 41.8792C150.636 42.0198 150.524 42.1561 150.422 42.2815C150.311 42.402 150.203 42.5118 150.105 42.6012C149.911 42.781 149.759 42.8874 149.674 42.8676C148.728 44.5632 147.579 46.1838 146.118 47.8257C144.66 49.4685 142.873 51.1249 140.567 52.8374C143.182 51.0731 145.202 49.2944 146.854 47.4972C147.283 47.0548 147.642 46.5901 148.021 46.1403C148.39 45.6878 148.716 45.2181 149.055 44.7636C149.358 44.2917 149.681 43.8305 149.954 43.3525C150.218 42.8695 150.512 42.4022 150.736 41.9029C150.932 41.5461 151.145 41.4435 151.331 40.7994L151.336 40.8055ZM143.618 22.7145L143.167 22.4253L143.561 22.7052L143.618 22.7145ZM148.406 26.0275C148.084 25.7246 147.66 25.2953 147.457 25.1582C147.312 25.0493 147.302 25.0603 147.383 25.1507C147.468 25.2421 147.652 25.4084 147.87 25.626C148.038 25.7877 148.217 25.9616 148.383 26.1202C148.536 26.2846 148.68 26.4346 148.794 26.5458C149.036 26.7867 148.855 26.5359 148.406 26.0275ZM151.788 36.8657C152.12 35.6423 152.177 34.4691 152.031 33.3297C151.884 32.1902 151.537 31.0854 150.978 29.9819C151.743 31.706 151.949 33.2899 151.817 34.8433C151.707 36.0913 151.704 36.5825 151.789 36.8635L151.788 36.8657ZM140.463 20.0707L140.933 20.3032C141.909 20.8363 142.841 21.4028 143.757 21.9785C144.66 22.562 145.528 23.168 146.35 23.8044C147.971 25.0823 149.418 26.4833 150.435 28.0189C151.46 29.5479 152.142 31.1764 152.407 32.8189C152.665 34.4617 152.599 36.1221 152.193 37.7468C152.542 36.7988 152.777 35.7923 152.826 34.7438C152.875 33.6954 152.764 32.6146 152.478 31.5367C151.905 29.3779 150.561 27.2676 148.861 25.4956C148.016 24.6031 147.12 23.8369 146.254 23.1992C145.835 22.8729 145.396 22.5917 145.006 22.3222C144.599 22.0618 144.217 21.8246 143.856 21.6119C142.404 20.7685 141.327 20.3313 140.814 20.2249C140.697 20.1728 140.581 20.1186 140.46 20.0677L140.463 20.0707ZM105.689 69.3572L106.24 69.4304L106.287 69.4116L105.688 69.3593L105.689 69.3572ZM103.209 69.8439C104.752 70.0227 106.259 70.2189 107.623 70.2955C106.064 70.0889 104.57 69.9449 103.209 69.8439ZM88.2086 66.6098L88.4053 66.6849L88.7177 66.7195L88.2086 66.6098ZM78.3409 64.8915C78.7645 65.009 79.1793 65.1331 79.6125 65.2417C80.1454 65.3768 80.6954 65.5006 81.3415 65.6521C80.8372 65.5138 80.4186 65.3908 79.9919 65.2841C79.4455 65.1474 78.8929 65.0206 78.3409 64.8915ZM75.0989 63.3568L75.5533 63.4878L75.4121 63.4124L75.0957 63.3559L75.0989 63.3568ZM63.3107 60.8219C63.244 60.8489 63.6213 60.983 64.3143 61.1758C64.5659 61.1928 65.0203 61.2637 65.0631 61.2114C65.0883 61.184 64.1762 60.9096 63.8584 60.8457C63.5029 60.7803 63.378 60.7928 63.3075 60.821L63.3107 60.8219ZM53.5277 56.7165C55.2371 57.3153 56.5966 57.7694 57.7754 58.1529C58.9548 58.5343 59.9542 58.8546 60.966 59.1323C59.9023 58.7703 58.8923 58.4262 57.7169 58.0552C56.5452 57.683 55.2124 57.2689 53.5277 56.7165ZM44.6493 53.9944L45.1108 54.1851L45.2111 54.1978L44.6525 53.9953L44.6493 53.9944ZM40.7114 52.9984L41.1924 53.1693C44.2022 54.2952 47.2331 55.3718 52.1586 56.9573C46.4851 55.0084 43.29 53.7922 41.0366 53.0967L40.7114 52.9984ZM33.4559 48.517C33.9427 48.752 34.4289 48.9891 34.919 49.225L36.1458 49.7425C35.6545 49.5109 35.1601 49.2783 34.6714 49.0498C34.2712 48.8628 33.8623 48.6942 33.4591 48.518L33.4559 48.517ZM26.1891 44.9287L26.5875 45.1821L26.6835 45.2098L26.1923 44.9297L26.1891 44.9287ZM12.5575 32.6852C12.6644 33.0117 12.9215 33.3584 13.1469 33.6589C13.1523 33.6281 13.2012 33.663 13.1489 33.5556C13.07 33.3965 12.9711 33.2225 12.8665 33.0561C12.755 32.89 12.6773 32.7267 12.5775 32.5917C12.5237 32.5138 12.5167 32.5742 12.5581 32.6831L12.5575 32.6852ZM11.3922 31.0882L11.4104 31.2413L11.5161 31.3919L11.3954 31.0892L11.3922 31.0882ZM9.77596 26.0281C9.74101 26.0411 9.68752 26.1666 9.68907 26.3657C9.68361 26.5651 9.69294 26.8334 9.71213 27.1277C9.74613 27.551 9.84041 27.8854 9.91323 28.1258C9.98667 28.3641 10.0463 28.506 10.0953 28.5525C10.152 28.6081 10.1583 28.4782 10.1347 28.2473C10.1232 28.1308 10.1018 27.9884 10.0746 27.8304C10.0629 27.7508 10.0486 27.6681 10.0323 27.5803C10.0256 27.4952 10.017 27.4049 10.0083 27.3147C9.97248 26.9579 9.93187 26.6297 9.88907 26.3933C9.83988 26.1551 9.82813 26.0154 9.77596 26.0281ZM11.612 21.1472L11.5367 21.204C11.5253 21.2677 11.5075 21.3296 11.5057 21.396C11.5303 21.3107 11.5772 21.2319 11.6152 21.1481L11.612 21.1472ZM12.0118 19.3266L11.8402 19.6699L12.0282 19.366L12.0118 19.3266ZM16.9183 14.5312L16.5918 14.7743L16.6137 14.7945L16.9183 14.5312ZM20.3101 12.286L19.9402 12.5352L20.3022 12.3254L20.3133 12.287L20.3101 12.286ZM20.0872 11.2193C19.783 11.4089 19.5888 11.5539 19.3694 11.7378C19.5812 11.6163 19.8772 11.503 20.1346 11.3554C20.4942 11.1541 21.0613 10.7977 21.134 10.7378C21.2432 10.6353 21.1477 10.654 20.9375 10.7459C20.7325 10.8439 20.4219 11.0201 20.0872 11.2193ZM24.8539 8.85753L24.4056 9.05407L24.8371 8.89194L24.8545 8.85539L24.8539 8.85753ZM36.1996 6.31239C36.0436 6.33673 35.9066 6.35501 35.7264 6.39088C35.4941 6.43944 35.1613 6.52374 35.0056 6.57125C34.5681 6.70623 34.7745 6.6756 35.522 6.48676C35.7466 6.42904 35.9718 6.36919 36.1996 6.31239ZM37.4641 4.85879L37.0372 4.9691C36.9424 4.99723 36.8535 5.02935 36.7613 5.06054C36.905 5.0188 37.0546 4.98103 37.2035 4.94539L37.4641 4.85879ZM41.2677 5.25018L40.7699 5.35393L41.2744 5.2752L41.2677 5.25018ZM44.923 3.87099C44.6803 3.90732 44.4415 3.95403 44.204 3.99648C44.364 3.98252 44.5049 3.97461 44.6884 3.95125C44.9331 3.9201 45.2943 3.8694 45.4598 3.83624C45.9379 3.74069 45.7262 3.75362 44.923 3.87099ZM55.2664 3.76976L54.7105 3.81056L55.1857 3.79732L55.2632 3.76883L55.2664 3.76976ZM82.7521 3.87228L82.2569 3.79888L82.1664 3.81208L82.7521 3.87228ZM92.8918 5.6573L92.6862 5.58884L92.4539 5.57732L92.8918 5.6573ZM106.755 8.00245C105.932 7.81609 104.969 7.58703 104.352 7.46487C103.769 7.3498 104.243 7.50731 104.86 7.63892C105.598 7.79611 106.134 7.88364 106.752 8.00153L106.755 8.00245ZM124.844 13.6069C123.984 13.2946 123.124 12.9822 122.262 12.6689C121.451 12.3798 121.207 12.3235 121.334 12.3878C122.214 12.7868 123.071 13.0729 123.845 13.3193C124.251 13.4501 124.514 13.512 124.844 13.6069ZM131.334 16.0891C131.555 16.1274 131.217 15.9769 130.531 15.726C130.317 15.6483 130.221 15.6322 130.072 15.5868C130.259 15.6708 130.447 15.762 130.637 15.8375C130.88 15.9329 131.284 16.0817 131.337 16.0922L131.334 16.0891ZM124.989 12.5355C125.509 12.7776 126.242 13.0488 127.03 13.3199C127.812 13.6006 128.638 13.8986 129.357 14.1588L129.679 14.2562L129.2 14.0883C127.556 13.3952 127.238 13.188 127.519 13.1996C127.671 13.2503 127.963 13.3531 127.944 13.336C127.891 13.2907 127.707 13.1961 127.576 13.1214C127.305 12.9808 127.026 12.8521 126.75 12.717L127.275 13.0232C127.58 13.1571 127.564 13.1757 127.23 13.0819C126.381 12.865 124.041 12.0983 124.992 12.5386L124.989 12.5355ZM114.518 9.1719C114.766 9.24809 115.018 9.3252 115.267 9.39925C115.531 9.47059 115.964 9.59081 116.025 9.60619C116.127 9.62411 116.086 9.60054 115.919 9.54314C115.754 9.48879 115.462 9.40915 115.076 9.3049C114.87 9.25015 114.703 9.21593 114.518 9.1719ZM101.941 5.68207C102.229 5.78822 102.523 5.84988 102.659 5.82428C102.695 5.81857 102.549 5.77189 102.488 5.74278C102.308 5.707 101.997 5.64286 101.967 5.64096C101.887 5.63895 101.85 5.64893 101.938 5.68115L101.941 5.68207ZM72.2949 1.69778L72.8251 1.69808C73.194 1.70503 73.6139 1.71514 74 1.72243C74.3886 1.73278 74.7455 1.75707 74.981 1.75792C75.3332 1.76239 74.4872 1.64336 74.0296 1.63164C73.4132 1.62961 73.1655 1.67142 72.7606 1.69336L72.2943 1.69991L72.2949 1.69778ZM39.1894 3.59803C39.2487 3.59664 39.5964 3.5328 39.8174 3.49947C39.9784 3.45807 40.2787 3.38985 40.2754 3.37734C40.2615 3.32944 39.8654 3.39317 39.3054 3.53214C39.1636 3.56748 39.1116 3.60334 39.192 3.60109L39.1894 3.59803ZM19.6635 9.35783L20.8106 8.72048C21.1911 8.50671 21.5986 8.31921 21.9932 8.11645L22.2182 7.97336L21.8338 8.17676C21.6237 8.28024 21.3629 8.40374 21.2183 8.48451C20.7674 8.73807 19.565 9.27863 19.6629 9.35996L19.6635 9.35783ZM7.98875 21.4892C8.08289 21.4632 8.20464 21.2211 8.33743 20.8805C8.40062 20.7093 8.47439 20.5134 8.55061 20.309C8.63964 20.1083 8.73174 19.8969 8.82323 19.6876C9.0021 19.1871 9.58999 18.1691 9.16168 18.7295C8.84678 19.1608 8.87928 18.5188 8.19864 20.3277C8.05497 20.8384 8.04586 21.1707 7.99134 21.4922L7.98875 21.4892ZM8.77774 22.1069C8.82105 21.7521 8.92578 21.4127 8.99789 21.0662L9.04381 20.7745L8.95989 21.1499C8.94652 21.2685 8.84891 21.5592 8.77811 21.7928C8.7099 22.0296 8.70049 22.2186 8.77454 22.106L8.77774 22.1069ZM21.902 44.9524L21.4655 44.6511L21.406 44.6409L21.902 44.9524ZM36.4713 52.5944L35.9902 52.3634C35.8846 52.333 35.6861 52.2642 35.6946 52.2828C35.7234 52.3512 36.0383 52.4974 36.4206 52.626C36.5474 52.6671 36.4574 52.6066 36.4707 52.5965L36.4713 52.5944ZM77.9378 66.062L77.348 65.9198L77.8376 66.0609L77.9378 66.062ZM87.8923 67.8399C87.4295 67.702 86.8614 67.5567 86.255 67.412C85.6472 67.26 85.003 67.1021 84.3888 66.9483C83.156 66.6439 82.0371 66.3654 81.5738 66.1811C81.9131 66.2303 83.2223 66.5221 82.2271 66.2353C81.9434 66.1975 81.6579 66.166 81.376 66.1218C76.3853 64.8224 71.6986 63.6707 66.9021 62.2748C65.819 61.9558 64.8442 61.6703 63.9884 61.4168C63.1351 61.1548 62.3976 60.9238 61.7841 60.7193C60.5534 60.3116 59.8139 60.0154 59.6142 59.7823C59.4713 59.6164 57.2344 58.8517 56.4822 58.7921C56.2759 58.7742 56.1963 58.846 55.3822 58.556C49.9895 56.6187 44.6722 55.0335 39.5194 52.8051C36.749 51.5703 33.6454 50.2048 31.1575 49.0722C29.8109 48.4532 29.0186 47.9431 28.1688 47.4164C27.3207 46.8833 26.3994 46.3522 24.8228 45.593C24.0603 45.2324 22.8186 44.2972 22.8333 44.1859C22.8354 44.1426 23.0676 44.2511 23.3807 44.4152C23.6977 44.5782 24.1109 44.7919 24.467 44.9754C25.1843 45.3368 25.6951 45.5487 24.843 44.9336C23.248 44.0097 21.4057 42.7536 19.9623 41.6886C18.5069 40.6294 17.4459 39.7647 17.1179 39.7603C17.7058 40.3062 18.4346 40.9042 18.9338 41.3368C19.4078 41.7367 20.0553 42.316 19.896 42.2193C19.5442 42.0209 19.1615 41.7374 18.7799 41.438C18.4059 41.1362 18.0501 40.8073 17.7401 40.5239C17.3041 40.1003 17.0014 39.7798 16.6579 39.4083C16.3575 39.1277 16.0495 38.8495 15.7611 38.5632C15.5987 38.417 15.4493 38.2862 15.2688 38.1187C15.2224 38.0753 14.9962 37.8138 15.0194 37.8297C15.1185 37.9068 15.2815 38.0507 15.4206 38.1694C15.2669 38.005 15.121 37.8497 14.9861 37.7046C14.855 37.5583 14.7316 37.4211 14.616 37.293C14.3816 37.0361 14.1679 36.8152 13.9877 36.6108C13.8036 36.4076 13.6306 36.2261 13.4648 36.0559C13.2952 35.8869 13.1593 35.7207 13.0089 35.5572C12.7188 35.2288 12.3969 34.9027 12.068 34.4684C11.9131 34.2482 11.7445 34.0033 11.5621 33.7221C11.4713 33.5804 11.379 33.4314 11.2764 33.2701C11.1771 33.1098 11.103 32.9337 11.0078 32.7469C10.252 31.3164 9.74354 29.8094 9.43283 28.3015C9.12594 26.7925 9.04673 25.2751 9.25861 23.8301C9.45965 22.3865 9.87375 20.9974 10.519 19.7443C10.6693 19.4272 10.8689 19.1313 11.0423 18.8302C11.1338 18.681 11.219 18.5299 11.3131 18.3838C11.4161 18.2426 11.5224 18.1022 11.6249 17.9631C11.8394 17.6877 12.0289 17.4027 12.2622 17.1466C12.4986 16.8913 12.7338 16.6403 12.9646 16.3926C13.0926 16.2493 13.2579 16.0844 13.439 15.901C13.6169 15.7166 13.8035 15.514 13.992 15.305C14.3753 14.8888 14.8167 14.4754 15.1464 14.113L13.9696 15.0698C14.2303 14.7546 14.488 14.5216 14.7308 14.3167C14.8566 14.2166 14.9781 14.12 15.0989 14.0254C15.2287 13.9358 15.3553 13.8452 15.4895 13.7522C15.8329 13.4746 16.1563 13.182 16.5177 12.9143L17.6101 12.1179L18.7656 11.3675C19.1475 11.1126 19.5713 10.8928 19.9725 10.655C21.6148 9.73063 23.3659 8.89771 25.2144 8.15983C27.0648 7.42714 28.9927 6.77452 30.9704 6.18939C32.9566 5.61129 34.9977 5.1068 37.0701 4.65055C37.5977 4.53926 38.0953 4.41234 38.6082 4.29217C39.7535 4.19022 40.8205 4.09572 43.1666 3.75993C43.9711 3.63829 44.6774 3.53229 45.2972 3.43828C45.6055 3.39081 45.8947 3.3494 46.1628 3.30886C46.4375 3.28174 46.6911 3.2555 46.9269 3.23104C47.8689 3.13746 48.5164 3.07919 48.9851 3.05252C49.9262 2.99798 50.1534 3.06344 50.6142 3.19622C51.1157 3.13974 51.5239 3.07025 51.8998 3.02843C52.2758 2.98661 52.6103 2.94439 52.9486 2.90095C53.6252 2.81409 54.3228 2.72636 55.4199 2.63588C56.0401 2.58822 56.657 2.52805 57.2812 2.49076L59.1746 2.41492C60.4387 2.37027 61.7038 2.30975 62.9789 2.28677C64.2665 2.29278 65.554 2.29879 66.8416 2.3048C67.4873 2.31299 68.1316 2.30227 68.782 2.3303L70.7429 2.41713C72.0516 2.48234 73.3567 2.52345 74.6752 2.61459C75.9952 2.72465 77.3151 2.83471 78.6383 2.94568L79.6294 3.03028C79.9615 3.05666 80.2923 3.0873 80.6232 3.12952L82.6196 3.3698L84.6154 3.61221L85.6165 3.73434L86.1155 3.79494L86.6165 3.87232C89.3889 4.30616 91.921 4.75622 92.2102 5.00355C92.3435 5.1182 93.0451 5.32958 95.1702 5.66467C96.5826 5.88684 97.4473 6.02512 96.6666 5.75166C95.9582 5.50367 96.6531 5.56991 97.8246 5.75035C98.9925 5.95519 100.635 6.31753 101.824 6.56997C104.447 7.11111 105.634 7.61021 106.799 8.00804C107.593 8.20927 108.565 8.48225 109.425 8.70925C110.284 8.93837 111.022 9.15777 111.371 9.17077C112.034 9.20461 113.238 9.47538 114.732 9.87122C115.105 9.97392 115.499 10.0715 115.9 10.1983C116.299 10.3273 116.715 10.4588 117.14 10.5951C117.989 10.8742 118.875 11.1665 119.774 11.4625C121.337 11.9567 122.848 12.5331 124.366 13.0744C125.127 13.3466 125.884 13.6157 126.641 13.887C127.024 14.0156 127.391 14.1723 127.765 14.3171L128.883 14.7568L131.122 15.6331C131.87 15.9248 132.619 16.2122 133.356 16.5285C134.834 17.1484 136.301 17.7952 137.755 18.4867C137.397 18.1779 136.801 17.8146 135.822 17.327C135.332 17.0816 134.744 16.8107 134.043 16.5024C133.342 16.194 132.522 15.8494 131.561 15.4823C123.502 12.2617 115.128 9.67791 106.492 7.41156C106 7.28115 105.5 7.15103 104.994 7.01693C104.488 6.88496 103.974 6.74596 103.451 6.63683C102.404 6.40697 101.338 6.17371 100.256 5.93584C98.0916 5.43692 95.8599 5.08725 93.6457 4.71262C92.9465 4.60125 92.3353 4.4852 91.7807 4.41319C91.2274 4.33692 90.7373 4.26963 90.2772 4.20637C89.3609 4.07864 88.5768 3.96128 87.7121 3.82301C87.2787 3.75127 86.8255 3.67614 86.3257 3.5945C85.8259 3.51285 85.2797 3.44787 84.6579 3.3565C83.4177 3.18626 81.8769 2.95252 79.8266 2.68284C78.4391 2.53025 76.6418 2.40508 75.5104 2.38632C75.1147 2.37626 74.6201 2.36079 74.0866 2.34798C73.5538 2.34462 72.9846 2.33538 72.4409 2.32194C71.3502 2.29412 70.3615 2.24947 69.9659 2.19093C68.3642 1.92809 66.63 1.92044 64.8582 1.91119C64.4173 1.91353 63.9733 1.91494 63.5261 1.91544C63.084 1.92205 62.636 1.91309 62.1986 1.93952C61.325 1.97654 60.4551 2.01235 59.6049 2.02839C58.6876 2.04823 57.778 2.06565 56.875 2.09651C55.9837 2.15849 55.0963 2.21925 54.2088 2.28002C53.324 2.34385 52.4423 2.40859 51.5607 2.47334C50.6921 2.56495 49.8294 2.67212 48.966 2.76984C48.102 2.86969 47.2347 2.96861 46.3675 3.06754C45.5074 3.17777 44.6631 3.3295 43.8057 3.45436C42.9477 3.58136 42.0859 3.70958 41.2235 3.83992C40.3604 3.9724 39.5098 4.13387 38.6399 4.27822C36.1625 4.62468 33.3892 5.32476 30.8542 6.0635C28.9114 6.6356 27.0273 7.26851 25.2204 7.95831C23.4271 8.66125 21.7173 9.42292 20.1056 10.229C19.9612 10.3214 19.8346 10.412 19.6705 10.5125C19.6115 10.5486 19.3716 10.6597 19.3861 10.6454C19.4258 10.6037 19.548 10.5165 19.6404 10.4484C17.9543 11.3925 16.4237 12.4344 15.0771 13.608C13.7252 14.7754 12.5245 16.0556 11.5137 17.483L11.0283 18.1932C10.8727 18.4325 10.7479 18.6853 10.6045 18.9304C10.4739 19.1792 10.3113 19.4188 10.2089 19.678L9.86899 20.4486C9.74417 20.7014 9.66034 20.9683 9.5733 21.2343L9.309 22.0313L9.12471 22.8513C9.06327 23.1247 8.99224 23.3953 8.97241 23.6806L8.87194 24.5225L8.84617 24.7322L8.84342 24.9463L8.83731 25.3765C8.83791 25.6631 8.81488 25.9475 8.83529 26.2375L8.90995 27.1091C8.92367 27.2539 8.93037 27.3991 8.95049 27.5458L9.03508 27.986L9.20044 28.8675C9.27514 29.1616 9.37026 29.457 9.45135 29.7529C9.54327 30.0473 9.61033 30.3438 9.74052 30.6378C10.6137 32.996 12.0942 35.3399 14.0613 37.4982C15.0397 38.577 16.1224 39.6189 17.2881 40.6132C18.4576 41.6062 19.7 42.5508 20.9949 43.4575C23.9815 45.5539 27.665 47.5531 30.5115 49.0408C32.3275 49.9914 32.7819 50.2909 34.5538 50.9493C35.8024 51.4153 37.6793 52.1548 39.2883 52.7292C39.5739 52.9409 40.1061 53.2467 41.837 53.9394C46.652 55.8488 51.346 57.6125 56.5741 59.2066C59.2385 60.0275 62.5332 61.0183 64.5819 61.835L64.2167 61.7552L64.7388 61.8918C65.8799 62.2136 66.9915 62.5177 68.0969 62.8431C69.2042 63.1622 70.3064 63.4867 71.4246 63.8759C72.5981 64.3018 75.7212 65.1785 76.3458 65.2961C77.726 65.546 79.5551 65.9459 81.5588 66.4378C83.5727 66.8817 85.7633 67.4344 87.8917 67.842L87.8923 67.8399ZM90.7667 67.9081C90.5569 67.8061 91.0683 67.8356 89.1518 67.4382C88.6089 67.3257 87.7906 67.1707 87.6047 67.1541C86.9054 67.0913 88.5568 67.4585 89.2351 67.6424C90.2538 67.9197 90.548 67.9213 90.766 67.9103L90.7667 67.9081ZM94.0838 69.543C94.1327 69.5294 93.6824 69.4204 93.4584 69.3559C92.7677 69.2631 92.013 69.1519 91.4003 69.077C90.9116 69.0171 91.241 69.1005 92.1284 69.2684C93.1948 69.4647 93.9527 69.5768 94.0838 69.543ZM100.356 68.7147C99.0255 68.5345 97.7615 68.2904 96.4251 68.0809C95.7572 67.9693 95.069 67.8796 94.3441 67.7493C93.6205 67.6262 92.8593 67.5016 92.04 67.3741C92.9473 67.557 93.7676 67.7171 94.524 67.8588C95.2815 67.9962 95.9736 68.0963 96.6299 68.2C97.9451 68.3987 99.116 68.5813 100.353 68.7137L100.356 68.7147ZM113.748 71.4713C113.346 71.4088 112.832 71.3551 112.291 71.3057C111.749 71.2511 111.181 71.1775 110.68 71.1255C109.673 71.0109 108.923 70.9196 109.146 70.8545C109.259 70.8225 108.984 70.7664 108.554 70.7187C108.339 70.696 108.082 70.6728 107.813 70.6576C107.546 70.6359 107.264 70.6148 107 70.6057C104.33 70.5502 99.3137 69.8556 95.1044 69.4167C95.9684 69.5455 96.8094 69.67 97.6306 69.7911C98.4511 69.9143 99.2507 70.0384 100.036 70.1284C100.822 70.2277 101.591 70.3246 102.354 70.4197C102.734 70.4693 103.112 70.5181 103.49 70.5668C103.866 70.6061 104.241 70.6423 104.614 70.6807C105.361 70.7596 106.108 70.8384 106.852 70.9142C107.226 70.9526 107.6 71.0004 107.972 71.0314C108.345 71.0603 108.721 71.0923 109.097 71.1221C110.602 71.2393 112.146 71.4023 113.744 71.4725L113.748 71.4713ZM113.791 69.735C113.531 69.7203 113.272 69.7057 113.009 69.6923C112.82 69.698 112.471 69.6944 112.465 69.7063C112.429 69.7562 112.852 69.781 113.52 69.7703C113.695 69.7674 113.707 69.7479 113.79 69.7371L113.791 69.735ZM118.766 71.3648L118.515 71.3319L118.266 71.3664L118.762 71.366L118.766 71.3648ZM120.285 70.71C120.118 70.7011 119.922 70.6839 119.786 70.6863C119.535 70.6903 119.199 70.702 119.12 70.7137C118.858 70.7561 119.186 70.7721 119.913 70.7528C120.101 70.7471 120.166 70.7265 120.289 70.7109L120.285 70.71ZM125.095 70.8345L124.533 70.885L125.013 70.8642L125.095 70.8345ZM131.223 69.0174C133.951 68.63 135.187 68.224 136.043 67.7936C133.816 68.3531 131.589 68.7789 129.349 69.0966C128.784 69.1694 128.226 69.2419 127.664 69.3135C127.1 69.3725 126.535 69.4316 125.974 69.4916C125.41 69.5464 124.838 69.5847 124.273 69.6322C123.706 69.6766 123.123 69.689 122.553 69.721C121.95 69.7068 121.335 69.7374 120.714 69.8009L120.345 69.8519L120.82 69.8039L121.664 69.7628L122.51 69.7248C123.254 69.7037 124.007 69.7011 124.74 69.6467L125.847 69.5822L126.94 69.4929C128.402 69.3758 129.827 69.2044 131.223 69.0174ZM133.18 69.4036C133.101 69.4269 133.226 69.4375 133.35 69.4156C133.547 69.3822 133.82 69.313 134.064 69.2608C134.161 69.2241 134.408 69.1497 134.325 69.1583C133.962 69.1944 133.506 69.2943 133.184 69.4045L133.18 69.4036ZM141.654 67.8903C140.028 68.3946 138.231 68.9207 136.699 69.2787C135.169 69.6347 133.914 69.816 133.46 69.7314C131.217 70.3348 133.744 70.0348 133.804 70.163C132.921 70.3637 132.316 70.4803 131.861 70.5412C131.405 70.599 131.102 70.6135 130.829 70.6227C130.287 70.6418 129.854 70.6165 128.495 70.8094C127.728 71.1729 131.022 70.856 133.778 70.338C137.955 69.539 140.046 68.6836 141.654 67.8882L141.654 67.8903ZM142.391 68.3732C141.455 68.7015 141.368 68.7852 141.034 68.9475C140.716 69.0986 140.927 69.0878 141.318 68.9485C141.935 68.7292 142.392 68.5259 142.781 68.3329C143.139 68.1612 142.931 68.196 142.388 68.3722L142.391 68.3732ZM146.69 65.8673C146.547 65.8932 146.328 65.9455 145.998 66.0813C145.113 66.4223 144.935 66.5697 144.764 66.6959C144.527 66.8658 144.867 66.7696 145.679 66.44C146.432 66.114 147.003 65.8049 146.694 65.8661L146.69 65.8673ZM148.834 63.2605C148.697 63.3294 148.556 63.3742 148.423 63.4492C147.826 63.7762 147.738 63.8546 148.203 63.649C148.326 63.5944 148.54 63.4781 148.711 63.3889C148.758 63.3448 148.799 63.2988 148.834 63.2605ZM160.255 55.9807C160.069 56.2413 159.842 56.4508 159.641 56.7416C159.349 57.154 159.253 57.3529 159.492 57.126C159.645 56.969 159.89 56.6933 160.093 56.4099C160.389 55.9963 160.417 55.8171 160.255 55.9807ZM159.541 55.6065C159.293 55.8538 158.941 56.2603 158.598 56.7529C158.222 57.2267 157.832 57.775 157.421 58.2524C157.133 58.6131 156.943 58.8517 156.82 59.038C156.697 59.2243 156.638 59.3553 156.577 59.4832C155.541 60.5059 154.876 60.9727 154.531 61.1713C154.181 61.3659 154.116 61.2758 154.148 61.1164C154.222 61.0428 154.29 60.9631 154.36 60.8864C154.36 60.8864 154.291 60.9567 154.22 61.026C154.151 61.0963 154.076 61.1626 154.076 61.1626C153.059 62.2046 151.924 63.1828 150.612 64.1631C151.371 63.7926 152.015 63.3983 152.62 63.0182C153.198 62.6214 153.741 62.2418 154.206 61.8422C155.167 61.0587 155.917 60.2586 156.633 59.4345C156.839 59.1984 157.049 58.9632 157.256 58.7271C157.451 58.4851 157.646 58.241 157.854 57.9985C158.473 57.2459 159.001 56.8922 159.567 55.8194C159.67 55.6043 159.641 55.5128 159.538 55.6077L159.541 55.6065ZM152.602 60.747L152.47 60.7946L152.339 60.9485L152.602 60.747ZM159.113 54.4112C159.113 54.4112 159.084 54.4861 159.05 54.5592C159.015 54.6323 158.983 54.7064 158.983 54.7064C158.757 55.0687 158.553 55.4396 158.297 55.7884C158.056 56.144 157.808 56.4977 157.534 56.8367C157.422 56.913 157.325 56.9728 157.195 57.0741C157.177 57.0874 157.119 57.1562 157.066 57.2216C157.012 57.2871 156.954 57.3464 156.954 57.3464C156.893 57.4743 156.969 57.4269 157.091 57.3165C157.21 57.2031 157.369 57.0248 157.494 56.9016C157.662 56.7303 157.829 56.559 157.978 56.3779C158.121 56.195 158.258 56.0081 158.386 55.8163C158.657 55.4416 158.845 55.0271 159.045 54.6227C159.069 54.5532 159.095 54.4846 159.113 54.4112ZM158.926 52.5116C157.854 54.462 156.565 56.1579 155.15 57.6999C153.708 59.2272 152.154 60.6158 150.374 61.8377C150.042 62.0284 149.735 62.2033 149.371 62.4101C148.886 62.684 148.264 63.0268 148.005 63.2525C148.407 63.0494 148.782 62.8295 149.169 62.6039C149.566 62.3831 149.937 62.1297 150.315 61.8876C152.167 60.8481 153.806 59.5256 155.26 57.9672C155.982 57.1841 156.666 56.3466 157.27 55.4323C157.885 54.5239 158.452 53.5554 158.926 52.5094L158.926 52.5116ZM161.532 50.8162C161.478 51.0039 161.434 51.1922 161.391 51.3647C161.44 51.2563 161.49 51.1646 161.538 51.0236C161.603 50.8438 161.692 50.5483 161.699 50.4278C161.742 50.0383 161.691 50.2016 161.528 50.8153L161.532 50.8162ZM160.438 46.939C160.397 47.1768 160.33 47.4092 160.279 47.6463C160.225 47.8804 160.172 48.1144 160.095 48.3441C160.041 48.4117 159.996 48.4009 159.966 48.3115L159.965 48.0502L159.935 48.4435C159.935 48.5499 159.921 48.756 159.939 48.7426C159.981 48.704 160.038 48.5678 160.09 48.4697C160.225 47.9404 160.374 48.5655 160.441 46.9399L160.438 46.939ZM162.144 46.0563C162.161 46.2021 162.161 46.3454 162.162 46.4887C162.171 46.3481 162.187 46.2095 162.183 46.0652L162.142 46.0532L162.144 46.0563ZM161.056 45.6574L161.021 45.8781C161.022 46.151 160.983 46.4171 160.968 46.6875C160.949 46.957 160.93 47.2265 160.899 47.4923C160.856 47.9398 160.925 48.0982 160.97 47.737C161.051 47.2173 161.036 46.5824 161.039 45.9943L161.056 45.6574ZM162.519 45.358L162.48 45.5177L162.535 45.6999L162.522 45.3568L162.519 45.358ZM142.053 18.7249C141.755 18.7614 141.578 18.8235 141.366 18.7901C141.246 18.7718 141.142 18.8341 141.182 18.9357C141.218 19.027 141.342 19.0535 141.46 19.0275C141.664 18.9801 141.88 18.9407 142.057 18.7258L142.053 18.7249ZM142.24 18.6171L142.228 18.5881L142.204 18.5996L142.244 18.618L142.24 18.6171ZM142.17 19.2575C142.173 19.2005 142.07 19.2079 142.02 19.2374C141.954 19.2738 141.878 19.3096 141.904 19.3865C141.945 19.3912 142.002 19.4099 142.019 19.3987C142.079 19.3582 142.166 19.3072 142.17 19.2575ZM142.609 19.5387C142.57 19.5045 142.532 19.505 142.504 19.5431C142.476 19.579 142.445 19.6161 142.416 19.6542C142.458 19.6546 142.506 19.6663 142.534 19.6557C142.589 19.6323 142.631 19.5958 142.609 19.5387ZM143.79 19.2878L143.772 19.2548L143.746 19.2727L143.794 19.2866L143.79 19.2878ZM143.279 19.7504C143.277 19.7357 143.278 19.7199 143.267 19.7077C143.257 19.6954 143.24 19.6835 143.221 19.678C143.214 19.6761 143.197 19.6874 143.185 19.6931L143.279 19.7504ZM151.008 27.0058L150.65 26.6812C150.262 26.3199 149.886 25.955 149.477 25.6041C149.915 25.9865 150.313 26.3853 150.731 26.7759L151.004 27.0049L151.008 27.0058ZM149.817 25.4731L149.903 25.5212L149.504 25.152L149.817 25.4731ZM155.385 31.9861C155.431 31.9463 155.208 31.5055 154.689 30.9472C154.429 30.6597 154.412 30.7563 154.411 30.8438C154.408 30.8777 154.796 31.3823 155.061 31.8097C155.18 31.8786 155.344 32.0183 155.385 31.9861ZM159.934 43.1303L160.012 43.5549L159.98 43.199L159.934 43.1303ZM161.584 41.4089C161.595 41.5254 161.592 41.6099 161.618 41.7606C161.717 42.2929 161.818 42.6291 161.872 42.6237C161.889 42.6219 161.881 42.4463 161.855 42.2956C161.759 41.7621 161.657 41.4555 161.584 41.4089ZM160.24 37.6769L160.381 38.0547L160.441 38.1207L160.239 37.6791L160.24 37.6769ZM159.026 37.572C159.026 37.572 159.043 37.6324 159.086 37.7371C159.129 37.8418 159.184 37.987 159.248 38.1488C159.363 38.4728 159.503 38.8643 159.604 39.1152C159.72 39.396 159.81 39.6621 159.918 39.9242C160.023 40.1876 160.136 40.4443 160.219 40.7106C160.446 41.1828 160.677 41.656 160.865 42.1351L160.962 42.3661L160.851 42.0387C160.764 41.5839 160.622 41.125 160.501 40.6695C160.484 40.5606 160.47 40.4505 160.443 40.341C160.455 40.4185 160.461 40.4962 160.466 40.574L160.19 40.5822C160.07 40.1667 159.925 39.7459 159.789 39.3394C159.668 39.0251 159.535 38.6217 159.408 38.2781C159.279 37.9336 159.132 37.6509 159.02 37.5702L159.026 37.572ZM157.731 36.3881L157.958 36.7792L158.156 37.0904L157.94 36.7231L157.734 36.3891L157.731 36.3881ZM144.188 18.6307L144.203 18.6628L144.228 18.647L144.184 18.6298L144.188 18.6307ZM144.03 18.7679L144.001 18.7849L144.048 18.803L144.034 18.7688L144.03 18.7679ZM143.059 18.5297C143.035 18.5759 143.072 18.6419 143.15 18.6482C143.618 18.6953 143.805 18.9963 143.92 19.2213C143.94 19.2616 143.964 19.2986 143.989 19.3334C144.001 19.3508 144.014 19.3661 144.027 19.3813C144.032 19.3874 144.026 19.3835 144.043 19.3975L144.223 19.5303C144.343 19.618 144.46 19.7049 144.577 19.7918C145.503 20.4903 146.351 21.1435 147.149 21.7777C148.744 23.0482 150.162 24.226 151.587 25.5004C151.814 25.7091 152.151 26.0557 152.462 26.3738C152.764 26.6964 153.036 26.9898 153.161 27.0858C153.237 27.1701 153.301 27.2371 153.38 27.3244C153.895 27.9787 154.561 28.8312 154.704 29.1151C154.847 29.4011 154.564 29.084 153.033 27.4694L152.752 27.1227L152.968 27.4067C152.808 27.446 152.136 26.795 150.703 25.4282C150.534 25.2708 150.013 24.7674 149.697 24.4801C149.537 24.3392 149.427 24.252 149.444 24.2871C149.462 24.3222 149.607 24.4796 149.93 24.8383C150.618 25.5561 152 26.9776 153.093 28.1888C153.366 28.4916 153.622 28.7803 153.857 29.0372C154.08 29.2978 154.284 29.5276 154.446 29.7106C154.781 30.0772 154.953 30.2609 154.897 30.1315C154.709 29.724 154.778 29.6885 155.032 29.8909C155.282 30.0946 155.687 30.5416 156.172 31.0927C156.632 31.6502 157.166 32.31 157.635 32.9462C157.88 33.2617 158.102 33.5729 158.308 33.8564C158.514 34.1398 158.714 34.396 158.881 34.6126C158.632 34.1992 158.375 33.7946 158.098 33.3476C157.792 32.906 157.489 32.419 157.076 31.8543C156.269 30.721 155.169 29.233 153.22 27.1213C153.234 27.1207 153.242 27.1162 153.229 27.0799C153.122 26.7881 152.219 25.7726 151.005 24.6813C150.351 24.077 149.653 23.4903 149.071 22.9853C148.468 22.4905 147.977 22.0787 147.68 21.8454C147.074 21.3888 147.374 21.584 149.249 23.2329C147.981 22.1123 146.504 20.8896 144.733 19.5756C144.621 19.4949 144.51 19.412 144.396 19.3282L144.264 19.2303L144.253 19.2203L144.208 19.1842C144.178 19.1591 144.147 19.134 144.113 19.1059C144.049 19.0527 143.979 18.9955 143.906 18.9353C143.755 18.8224 143.528 18.66 143.291 18.5064C143.215 18.4568 143.109 18.4423 143.067 18.5272L143.059 18.5297ZM142.506 19.1373L142.521 19.1714L142.53 19.1395C142.556 19.0267 142.63 18.972 142.805 19.0386C142.908 19.0775 143.016 19.111 143.121 19.1457C143.126 19.1771 143.12 19.21 143.136 19.2378C143.159 19.2769 143.187 19.3242 143.27 19.3134L143.203 19.2319L143.141 19.147C143.203 19.0886 143.326 18.9855 143.318 18.9784C143.098 18.8295 142.824 18.7575 142.562 18.8115C142.326 18.8612 142.434 19.0148 142.506 19.1373ZM142.38 17.9274C142.444 18.2114 142.638 18.2467 142.891 18.271C142.871 18.0389 142.638 18.018 142.38 17.9274ZM141.899 17.6617L141.928 17.6816L141.937 17.6496L141.899 17.6617ZM141.587 17.8537C141.667 18.2002 142.034 18.2136 142.387 18.2644C142.106 18.1442 141.848 18.0073 141.587 17.8537ZM141.173 18.1594C141.166 18.1713 141.149 18.1825 141.149 18.1941C141.15 18.2405 141.177 18.253 141.22 18.2239C141.229 18.2172 141.229 18.194 141.222 18.1827C141.215 18.1714 141.188 18.1662 141.173 18.1594ZM141.964 17.2438L142.12 17.2795L142.169 17.2754L142.117 17.2649L141.964 17.2417L141.964 17.2438ZM140.244 18.2546C140.311 18.3245 140.4 18.2808 140.481 18.288L140.67 18.2824C140.706 18.2998 140.742 18.3216 140.769 18.3457L140.779 18.3854L140.776 18.3454C140.773 18.296 140.735 18.2734 140.669 18.2729L140.478 18.2734C140.414 18.2571 140.349 18.2408 140.283 18.2287C140.274 18.226 140.242 18.2515 140.241 18.2536L140.244 18.2546ZM140.074 17.8105C139.968 17.8054 139.844 17.8158 139.755 17.8964C139.737 17.9119 139.744 17.9696 139.768 17.9833C139.893 18.0562 140.025 18.0412 140.13 17.9768C140.181 17.9452 140.156 17.8873 140.074 17.8127L140.074 17.8105ZM140.993 17.0288C140.988 17.0437 140.979 17.0641 140.989 17.0763C141.02 17.1151 141.055 17.1137 141.074 17.0728C141.077 17.0622 141.062 17.0396 141.048 17.0307C141.039 17.0237 141.013 17.03 140.995 17.0318L140.993 17.0288ZM140.19 17.4949L140.15 17.5735C140.231 17.5902 140.317 17.6077 140.4 17.618C140.407 17.6198 140.442 17.5583 140.426 17.5421C140.365 17.474 140.277 17.4787 140.19 17.4949ZM140.421 17.0281L140.465 17.0452L140.45 17.0132L140.421 17.0281ZM139.479 17.4726C139.439 17.431 139.351 17.4335 139.333 17.4838C139.323 17.5201 139.368 17.5677 139.387 17.6102C139.433 17.6072 139.495 17.6068 139.497 17.6004C139.499 17.5571 139.511 17.505 139.479 17.4726ZM139.814 17.0794C139.829 17.1114 139.717 17.1371 139.813 17.1764L139.827 17.081C139.841 17.0551 139.858 17.0322 139.87 17.0054C139.871 16.999 139.858 16.9859 139.853 16.9777C139.789 16.9982 139.814 17.0425 139.817 17.0803L139.814 17.0794ZM138.98 17.2412C138.977 17.2519 138.997 17.269 139.006 17.2834C139.024 17.2816 139.054 17.2856 139.059 17.2801C139.069 17.2692 139.076 17.2457 139.065 17.2356C139.031 17.198 138.996 17.1995 138.98 17.2412ZM138.592 16.7967L138.598 16.8354L138.605 16.872L138.602 16.8342L138.589 16.7958L138.592 16.7967ZM138.132 16.5764L138.162 16.6542L138.27 16.6645C138.264 16.6353 138.269 16.595 138.246 16.5791C138.223 16.5632 138.17 16.5759 138.129 16.5755L138.132 16.5764ZM137.486 16.1362L137.493 16.1728L137.467 16.2993L137.576 16.2937L137.499 16.1746L137.485 16.1383L137.486 16.1362ZM137.198 15.8962C137.165 15.9281 137.111 15.9841 137.129 16.0055C137.169 16.0565 137.23 16.0277 137.247 16.0164C137.321 15.9638 137.347 15.9227 137.294 15.8775C137.283 15.8674 137.213 15.8797 137.195 15.8952L137.198 15.8962Z" fill="currentColor"/>
</svg>
