<svg width="38" height="30" viewBox="0 0 38 30" fill="none" xmlns="http://www.w3.org/2000/svg">
<g clip-path="url(#clip0_236_1342)">
<path d="M26.7202 2.77401C26.7725 2.77401 26.8334 2.77975 26.9089 2.78549C26.8683 2.77975 26.8073 2.76826 26.7231 2.75391C26.7231 2.75965 26.7231 2.76539 26.7231 2.77401H26.7202Z" fill="#EE0061"/>
<path d="M33.7291 3.10138C33.4765 3.12723 33.221 3.1703 32.9684 3.20189C32.7274 3.23348 32.6142 2.94344 32.3819 3.02385C32.1874 3.05831 31.9783 3.08415 31.778 3.13584C31.6677 3.16456 31.6067 3.26794 31.6096 3.40291C31.6096 3.52351 31.688 3.57233 31.7751 3.59243C32.0016 3.64125 32.2454 3.73602 32.4429 3.52351C32.5677 3.39142 32.6461 3.3828 32.7216 3.54649C32.771 3.65274 32.8494 3.69868 32.9307 3.64987C33.2123 3.48044 33.5288 3.50341 33.822 3.40291C33.9062 3.37419 33.9788 3.2823 33.9498 3.17605C33.9149 3.06118 33.8162 3.09277 33.7291 3.10138Z" fill="#EE0061"/>
<path d="M35.5837 3.64899C35.6415 3.76349 35.5334 3.80398 35.4808 3.86773C35.4591 3.89535 35.4331 3.92298 35.4095 3.94848C35.4336 4.12881 35.3565 4.22655 35.1841 4.24805L35.1438 4.24599L35.1853 4.25866C35.2551 4.33494 35.3101 4.43246 35.2365 4.51534C34.7772 5.02112 34.3508 5.56292 33.7256 5.87799C33.6431 5.91845 33.5861 5.88883 33.5469 5.80401C33.5291 5.76584 33.6318 5.73809 33.5527 5.69366L33.5283 5.79768C33.4734 5.93357 33.3669 6.0738 33.3782 6.20747C33.3988 6.47269 33.4043 6.62334 33.1078 6.39252L32.987 6.57309C33.0444 6.66848 33.1355 6.76807 32.9755 6.84048C32.9243 6.8639 32.8542 6.83855 32.8402 6.78128C32.8162 6.67098 32.9157 6.6305 32.9827 6.5731C32.6247 6.6437 32.4299 6.84137 32.4359 7.12783C32.4382 7.24241 32.4216 7.37825 32.4771 7.47153C32.7927 8.03123 32.4895 8.41368 32.2122 8.81519C32.1313 8.93203 32.0181 8.91099 31.9158 8.9345C31.7613 8.97083 31.6214 8.98591 31.7583 9.21486C31.8044 9.2933 31.6855 9.33593 31.6153 9.28724C31.487 9.19832 31.3754 9.09028 31.2049 8.95051C31.2388 9.44488 31.018 9.7402 30.6934 10.006C30.5761 10.1017 30.4762 10.2164 30.3821 10.3375C30.336 10.3991 30.2899 10.4607 30.2415 10.5245C30.2217 10.5542 30.1908 10.5903 30.178 10.6137L30.1451 10.6711C30.1075 10.7327 30.0389 10.6903 29.961 10.6332C29.9432 10.5483 29.923 10.4656 29.8261 10.383C29.7951 10.4658 29.9238 10.5505 29.9505 10.6311C29.908 10.7478 29.7786 10.7884 29.7794 10.9433C29.783 11.1852 29.7234 11.3487 29.4021 11.2028C29.3878 11.1964 29.3878 11.2664 29.3805 11.3004C29.4215 11.294 29.4549 11.2557 29.5227 11.3532C29.5324 11.3638 29.5367 11.3872 29.5316 11.3957C29.5026 11.4572 29.4417 11.3767 29.3898 11.3386C29.1057 11.252 29.0675 11.4155 29.1106 11.668C29.1304 11.7783 29.1459 11.8886 28.9688 11.7043L28.9393 11.5833C28.9125 11.5494 28.9381 11.5027 28.8699 11.4795L28.9249 11.577L28.9587 11.6979C28.8654 11.8105 28.9503 12.1181 28.6361 11.9891C28.6279 11.9849 28.6194 12.0316 28.6276 12.0592C28.7187 12.3689 28.482 12.348 28.3406 12.4268C28.3135 12.4204 28.2743 12.3356 28.2526 12.3866L28.3421 12.4331C28.3941 12.4946 28.4491 12.5688 28.3821 12.5795C28.2915 12.5924 28.1682 12.565 28.1733 12.6965C28.1784 12.8281 28.1959 12.9405 27.9676 12.7796C27.8436 12.6907 27.8355 12.8265 27.8259 12.9093C27.8135 12.9984 27.7802 13.0367 27.6585 12.899L27.6228 12.7759C27.6282 12.7398 27.646 12.708 27.6347 12.6677C27.6254 12.6295 27.5824 12.6105 27.584 12.6402C27.5848 12.6784 27.6014 12.7293 27.6123 12.7738L27.6437 12.8969C27.6663 13.0241 27.731 13.1789 27.5916 13.1898C27.5571 13.1941 27.5129 13.2111 27.5187 13.2408C27.5708 13.5824 27.3182 13.5722 27.0826 13.5853L26.983 13.5324L27.0857 13.598C27.2606 13.9245 27.1913 14.1241 26.9324 13.9484C26.5615 13.6922 26.5716 13.862 26.5717 14.0721C26.5721 14.1145 26.5136 14.1252 26.4795 14.1486L26.4543 14.1444L26.485 14.1592C26.6129 14.2757 26.6211 14.3733 26.6006 14.4582C26.5669 14.5941 26.4716 14.5645 26.3177 14.3589C26.2758 14.3038 26.2781 14.2317 26.1704 14.1979C26.1778 14.3273 26.1848 14.461 26.1918 14.5947C26.1981 14.6668 26.195 14.7475 26.0993 14.6988C25.9121 14.6015 25.9052 14.7246 25.9451 14.8243C26.0588 15.1212 25.8883 15.0981 25.6996 15.0645L25.6899 15.0305L25.6914 15.0602C25.7004 15.196 25.719 15.3424 25.4803 15.1094C25.4772 15.0966 25.4744 15.0797 25.4667 15.0712C25.4473 15.05 25.421 15.0352 25.3969 15.0183L25.3652 15.0162L25.3981 15.0289L25.4756 15.1136C25.3016 15.1054 25.1951 15.1756 25.1859 15.3475C25.1836 15.3963 25.2014 15.4578 25.1929 15.5045C25.1404 15.7784 25.1047 15.772 24.7748 15.4394C24.7593 15.4225 24.7245 15.431 24.695 15.4268C24.6493 15.5075 24.7791 15.5561 24.8245 15.6197C25.0393 15.9058 25.0579 15.9822 24.8262 15.9762C24.6604 15.9722 24.593 16.0339 24.5737 16.1761C24.5655 16.2419 24.4861 16.1784 24.4279 16.1148L24.414 16.0809L24.4198 16.1106C24.39 16.1806 24.4044 16.3037 24.3052 16.2932C23.9882 16.264 23.9554 16.5081 23.8985 16.7353C23.8923 16.7565 23.8261 16.7354 23.79 16.7333C23.7695 16.7015 23.797 16.6569 23.7218 16.6401L23.7858 16.7333C23.3716 16.8592 23.1994 17.2542 22.8081 17.4797C22.6852 17.1913 22.6258 16.9771 22.4359 16.7695C22.2937 16.9734 22.2976 17.0477 22.5659 17.3549C22.6756 17.4842 22.7617 17.5689 22.7237 17.6815C22.6847 17.8067 22.5851 17.8005 22.4219 17.6968C22.337 17.646 22.227 17.591 22.2309 17.6653C22.2418 17.8966 21.9388 17.878 22.0277 18.1664C22.0719 18.3128 22.0049 18.3935 21.8945 18.4128C21.7883 18.4321 21.7093 18.4343 21.6985 18.5765C21.6865 18.7548 21.4982 18.6702 21.2497 18.4032L21.2334 18.3714L21.2412 18.4032C21.2331 18.4223 21.223 18.4393 21.2153 18.4542C21.2203 18.4691 21.2254 18.4839 21.2285 18.4966C21.2285 18.4966 21.2099 18.4903 21.1994 18.4882L21.1843 18.4436C21.0215 18.4524 21.0708 18.5669 21.2316 18.6727C21.475 18.8315 21.4092 18.8528 21.2953 18.887C21.1748 18.9232 21.1031 19.0082 21.0578 19.1314L21.0354 19.1908C20.8075 19.0023 20.7901 19.1467 20.7626 19.238C20.7065 19.4099 20.3906 18.9945 20.3631 19.1792C20.3469 19.2874 20.4985 19.4718 20.3927 19.5569C20.2157 19.6993 19.9507 19.7783 19.9481 20.0647C19.9478 20.2557 19.3598 19.6922 19.6785 20.1946C19.5933 20.3115 19.5062 20.4262 19.4229 20.5452C19.3223 20.6918 19.201 20.8065 19.0116 20.8747C18.8442 20.9344 18.6579 21.0154 18.6386 21.2509C18.6186 21.495 18.5759 21.4717 18.2224 21.188C18.1887 21.1604 18.1531 21.1308 18.1426 21.152C18.1275 21.1775 18.1155 21.2157 18.1248 21.2539C18.1539 21.3791 18.1727 21.6422 18.1091 21.6614C17.9123 21.7168 17.9504 21.9778 17.785 22.0629C17.7203 22.0949 17.7316 22.2285 17.5587 22.0675C17.494 22.0061 17.4614 22.0125 17.4777 22.0677C17.5705 22.4071 17.2497 22.4436 17.2281 22.7047C17.2061 22.9466 16.9219 22.6267 16.7359 22.5867C16.9813 22.9109 16.969 23.1168 16.7242 23.1851C16.6192 23.215 16.5502 23.2702 16.5274 23.3806C16.4624 23.6736 16.3618 23.9369 16.0123 23.9841C16.1016 24.2216 15.6307 23.9168 15.7552 24.2349C15.8293 24.4279 15.5499 24.4305 15.4802 24.5643C15.3973 24.7257 15.2978 24.8829 15.0909 24.932C14.917 24.9705 15.0004 25.2017 14.8865 25.2825C14.5925 25.493 14.3869 25.7862 14.1049 26.0052L13.9256 26.1498C13.9093 26.1647 13.9023 26.1711 13.8791 26.1923L13.8047 26.2604L13.6579 26.3985L13.0688 26.9491C12.6714 27.3126 12.2698 27.6761 11.8429 28.0121C11.2116 28.5118 10.5445 28.9818 9.94769 29.5239C9.81987 29.6408 9.62582 29.8066 9.49907 29.7008C9.15256 29.4106 9.14921 29.7522 9.03303 29.8819C8.90522 30.0221 8.79331 30.1751 8.67364 30.3196C8.62562 30.3791 8.57334 30.4386 8.47993 30.3878C8.40475 30.3476 8.32102 30.2607 8.35316 30.2119C8.50456 29.9761 8.24761 29.8259 8.21421 29.6307C8.11827 29.0685 8.40558 28.6267 8.67198 28.2039C9.17497 27.4053 9.84423 26.723 10.4154 25.9709C10.8255 25.444 11.2732 24.9488 11.7186 24.4558L11.9436 24.2071L12.1291 23.9946C12.2508 23.8523 12.3704 23.7078 12.4781 23.5548C12.7886 23.1151 13.186 22.7516 13.4745 22.297C13.7498 21.87 14.124 21.5278 14.3597 21.0669C14.5305 20.7356 14.8318 20.5144 15.0406 20.2106C15.4541 19.6222 16.0216 19.1692 16.4037 18.5511C16.3952 18.5045 16.4119 18.4853 16.4603 18.4916C16.877 18.0559 17.3724 17.6923 17.688 17.174C17.9335 16.7704 18.4092 16.6232 18.6691 16.2493C18.9986 15.765 19.4506 15.3865 19.9162 15.0462C20.5135 14.6166 20.9313 14.0048 21.5686 13.6282C22.064 13.3345 22.4389 12.9138 22.922 12.6159C23.2919 12.3904 23.5742 12.0737 23.9442 11.8482C24.1878 11.6993 24.3865 11.4825 24.6057 11.2975C24.9861 10.9807 25.4126 10.719 25.7887 10.4022L27.78 8.77144C27.9252 8.65025 28.0743 8.5333 28.2235 8.41634L28.9904 7.78486C29.5048 7.35326 30.0269 6.93014 30.5199 6.47523C30.7221 6.29029 31.0538 6.25155 31.1785 6.07522C31.3446 5.84153 31.5739 5.73294 31.7664 5.56074C32.2765 5.10581 32.8262 4.73144 33.458 4.43758C33.7896 4.28214 34.1317 4.03543 34.4415 3.7909C34.5608 3.69734 34.6573 3.62079 34.7694 3.88798C34.8819 4.15092 35.1499 4.01468 35.3537 3.92947C35.3417 3.87432 35.3168 3.81919 35.3195 3.76613C35.3253 3.65578 35.4063 3.60896 35.5027 3.60244C35.5349 3.60027 35.5868 3.61504 35.5996 3.63836L35.5837 3.64899ZM9.11291 28.182C9.07805 28.2139 9.04668 28.2309 9.02693 28.2607C9.01454 28.2798 9.02036 28.3095 9.02037 28.3328C9.04593 28.3094 9.08157 28.2924 9.10132 28.2627C9.11565 28.2457 9.10983 28.216 9.11717 28.182L9.11291 28.182ZM11.0677 27.2346C11.0971 27.2154 11.1347 27.2005 11.1541 27.175C11.173 27.1537 11.1742 27.1177 11.1815 27.0837C11.1474 27.1071 11.1122 27.1199 11.0905 27.1475C11.0735 27.1709 11.0746 27.2048 11.0677 27.2346ZM11.6453 27.0914C11.4706 27.2551 11.361 27.3593 11.2212 27.4911C11.4866 27.5012 11.5493 27.3505 11.6453 27.0914ZM13.8476 24.1468C13.8476 24.1468 13.8492 24.1064 13.8492 24.0831C13.8356 24.0449 13.81 24.0216 13.7895 24.0365C13.7778 24.0471 13.7837 24.0768 13.7879 24.1002C13.7973 24.1384 13.8271 24.1617 13.8476 24.1468ZM13.1566 24.7399C13.2198 24.7016 13.2717 24.6697 13.3236 24.6378L13.3554 24.6399L13.3224 24.6272C13.2314 24.621 13.15 24.6253 13.159 24.7378L13.1566 24.7399ZM12.4034 24.635C12.4034 24.635 12.4309 24.6371 12.4355 24.6329C12.4402 24.6286 12.4309 24.6138 12.4254 24.6032C12.4091 24.5947 12.3909 24.5841 12.3801 24.5863C12.3518 24.5927 12.3607 24.6118 12.3991 24.6351L12.4034 24.635ZM12.3964 25.556C12.3964 25.556 12.4281 25.5581 12.4436 25.5517C12.4572 25.5432 12.4801 25.5262 12.4812 25.5134C12.4808 25.471 12.4556 25.4668 12.42 25.5072C12.4084 25.5178 12.4064 25.539 12.4006 25.556L12.3964 25.556ZM14.167 24.3372L14.0736 24.2631C14.017 24.3226 13.9485 24.3737 13.9097 24.448C13.7328 24.7772 13.4218 24.9878 13.1739 25.2534C13.1104 25.3193 13.0709 25.3788 13.0159 25.468C12.7708 25.8207 12.5776 26.2814 11.996 26.1636C11.9042 26.3059 12.0403 26.4033 12.0306 26.5094C12.0252 26.5922 11.9881 26.6729 11.942 26.8278C12.4176 26.3072 12.8812 25.8014 13.3359 25.2998C13.6263 24.9874 13.9064 24.6729 14.1647 24.3394L14.167 24.3372ZM14.6698 23.025L14.6659 22.9974L14.6515 22.9677L14.6535 22.9932L14.6698 23.025ZM14.6206 23.2373C14.6206 23.2373 14.6187 23.2118 14.6094 23.197C14.6016 23.1885 14.5834 23.1779 14.5714 23.1695C14.5683 23.1801 14.5571 23.1865 14.5625 23.1971C14.578 23.2374 14.602 23.2543 14.6206 23.2373ZM14.2596 23.5519C14.3189 23.5094 14.3902 23.4753 14.3882 23.3798C14.3131 23.4097 14.236 23.4374 14.2596 23.5519ZM13.9447 23.8283C14.0544 23.8409 14.0718 23.7899 14.097 23.7474C14.1144 23.7198 14.0826 23.6944 14.0555 23.7114C14.0148 23.7369 13.9897 23.7794 13.9447 23.8283ZM14.9387 23.1137C14.9256 23.3514 14.7125 23.3751 14.756 23.5999C14.4821 23.7065 14.4268 24.01 14.2196 24.1801C14.4799 24.0587 14.7011 23.8992 14.7703 23.6063C14.842 23.4746 15.1628 23.5314 14.9387 23.1137ZM14.5154 21.6757L14.539 21.6735L14.5216 21.6544L14.5154 21.6757ZM14.9857 22.5725C15.045 22.5533 15.1752 22.5977 15.1252 22.4683C15.0054 22.4261 15.0024 22.5067 14.9857 22.5725ZM14.1374 22.2471C14.1374 22.2471 14.182 22.2491 14.1894 22.2385C14.2033 22.2258 14.2033 22.2024 14.2114 22.1833L14.1552 22.1919L14.1351 22.2492L14.1374 22.2471ZM15.1094 22.8057C15.1196 22.9055 15.0025 22.9269 15.108 23.1262C15.132 23.003 15.2126 22.9605 15.1094 22.8057ZM15.5301 22.4677L15.4952 22.4529C15.4491 22.4444 15.4344 22.4657 15.4433 22.5081L15.4879 22.6269C15.4577 22.7479 15.328 22.7926 15.3358 22.9412C15.3393 23.0197 15.3785 23.0812 15.4811 23.1234C15.559 23.1573 15.6028 23.1445 15.5714 23.0681C15.5055 22.9027 15.6058 22.8071 15.5026 22.629L15.458 22.5102L15.5006 22.4635L15.5301 22.4677ZM15.9547 22.3205C15.7644 22.1638 15.576 22.0092 15.3478 21.9417C15.3846 21.9819 15.4214 22.0222 15.4629 22.0582C15.5241 22.1112 15.5575 22.1663 15.599 22.2256C15.7994 22.5054 15.8037 22.5054 15.9524 22.3227L15.9547 22.3205ZM18.4223 19.0593C18.4223 19.0593 18.4164 19.0296 18.4106 19.0232C18.3885 19.0084 18.3664 18.9936 18.344 18.983L18.4223 19.0593ZM18.27 19.0001L18.3316 18.9788C18.3041 18.9767 18.2386 18.9237 18.27 19.0001ZM18.0325 19.0578L18.0406 19.0387L18.015 19.0387L18.0344 19.0599L18.0325 19.0578ZM17.9454 19.2425C17.9454 19.2425 17.9457 19.2149 17.9361 19.2043C17.9283 19.1959 17.9101 19.1853 17.8961 19.1747C17.8911 19.1832 17.8799 19.1896 17.883 19.2023C17.8962 19.2447 17.9202 19.2617 17.943 19.2446L17.9454 19.2425ZM17.2141 18.8724L17.2737 18.8489L17.3334 18.8255L17.3628 18.8297L17.3299 18.817C17.3024 18.8149 17.2714 18.8044 17.2516 18.8108C17.2233 18.8172 17.1788 18.8151 17.216 18.8745L17.2141 18.8724ZM16.4402 18.5723L16.4712 18.5828L16.4611 18.5532L16.4425 18.5702L16.4402 18.5723ZM16.5775 19.8516C16.5782 19.8198 16.5589 19.7753 16.5476 19.735C16.5104 19.7223 16.4813 19.7139 16.4546 19.7033C16.4744 19.7436 16.4876 19.786 16.5116 19.8263C16.5337 19.8644 16.5752 19.8771 16.5775 19.8516ZM15.9758 19.9545L16.0037 19.9523L15.9804 19.9269L15.9758 19.9545ZM15.8495 20.1011L15.8755 20.0968L15.8542 20.0735L15.8495 20.1011ZM16.3493 20.9555C16.4446 20.8216 16.6829 20.8255 16.706 20.5941C16.4472 20.6052 16.464 20.8428 16.3493 20.9555ZM15.5455 20.3987C15.5645 20.4241 15.5835 20.4262 15.5924 20.3986C15.5951 20.3922 15.59 20.3774 15.5846 20.3668L15.5521 20.3732C15.5521 20.3732 15.5374 20.3944 15.5432 20.4008L15.5455 20.3987ZM16.1336 21.2189C16.1472 21.2338 16.1836 21.2316 16.215 21.2379C16.2158 21.2061 16.2363 21.1678 16.2153 21.1403C16.1642 21.0703 16.1491 21.1192 16.1328 21.1341C16.1142 21.1511 16.0805 21.1702 16.1313 21.2211L16.1336 21.2189ZM15.3329 20.7682L15.3314 20.7385C15.3108 20.7067 15.3732 20.7003 15.3069 20.6558L15.3209 20.7364L15.3306 20.7704L15.3329 20.7682ZM16.0127 22.0573C15.9856 22.0277 15.9588 22.0171 15.9441 22.0383C15.9344 22.0511 15.9383 22.0787 15.9387 22.0978C15.9654 22.1083 16.0042 22.1274 16.0154 22.121C16.0267 22.1146 16.015 22.0785 16.0108 22.0552L16.0127 22.0573ZM15.8156 21.4826C15.7792 21.5081 15.7754 21.5505 15.8017 21.612C15.7374 21.6397 15.6123 21.6102 15.6371 21.7354C15.8053 21.8073 15.8254 21.7266 15.8079 21.6142C15.7936 21.5611 15.9009 21.5758 15.8156 21.4826ZM17.0424 21.6058L17.0188 21.6079L17.0362 21.627L17.0424 21.6058ZM17.4592 21.3802L17.4612 21.4056C17.4817 21.4374 17.4193 21.4439 17.4833 21.4905L17.4736 21.4099L17.4592 21.3802ZM17.1676 20.6974C17.0192 20.7358 17.0634 20.9755 16.8918 20.9652C16.6376 20.9486 16.6454 21.1438 16.5893 21.2925C16.3073 21.3247 16.3116 21.6048 16.2129 21.8002C16.4132 21.7299 16.572 21.6235 16.639 21.4261C16.6808 21.4345 16.701 21.4238 16.6796 21.3772C17.0504 21.3299 17.0968 21.0073 17.1633 20.6974L17.1676 20.6974ZM17.0902 20.0948L17.1096 20.0693L17.1328 20.0481L17.1661 20.0565L17.1309 20.046C17.0813 20.0291 17.0669 20.0461 17.084 20.0927C16.8868 20.1291 16.8245 20.2756 16.8598 20.4963L16.8265 20.4878L16.8633 20.5048C16.9559 20.5173 17.102 20.5744 17.059 20.4387C17.0054 20.2775 17.1406 20.2433 17.0925 20.0927L17.0902 20.0948ZM17.843 20.8384L17.8314 20.8491L17.8635 20.8702L17.843 20.8384ZM18.2575 20.6616L18.2513 20.6829L18.2749 20.6807L18.2575 20.6616ZM18.038 20.2631L18.0419 20.2906C18.0624 20.3224 18.0001 20.3289 18.064 20.3755L18.0524 20.2927L18.038 20.2631ZM17.8577 19.8559C17.6709 19.7077 17.6926 19.9135 17.6512 19.9942C17.6067 20.0855 17.5668 20.1959 17.3556 19.9883L17.3393 19.9565L17.3451 19.9862C17.5223 20.2639 17.3069 20.3597 17.4101 20.6078C17.4898 20.387 17.7591 20.3548 17.8384 20.1382C17.8674 20.0533 18.0522 20.0126 17.8577 19.8559ZM17.7204 19.5845C17.4328 19.4428 17.4372 19.6296 17.3776 19.7464C17.5546 19.7673 17.5526 19.5784 17.7204 19.5845ZM18.0797 19.7813C18.0797 19.7813 18.0471 19.7644 18.0363 19.7665C18.0277 19.7665 18.0305 19.7835 18.0254 19.792C18.037 19.8047 18.0545 19.8238 18.0673 19.8238C18.1111 19.8343 18.1169 19.8173 18.0797 19.7813ZM17.6928 19.3023C17.6928 19.3023 17.6893 19.3172 17.6928 19.3257C17.7141 19.349 17.7308 19.3766 17.7517 19.4041L17.7661 19.4338L17.7602 19.4041L17.6908 19.3002L17.6928 19.3023ZM18.7893 19.2412L18.7215 19.2604C18.6196 19.2096 18.5161 19.1525 18.4219 19.0635C18.3545 19.2652 18.2892 19.469 18.2009 19.7365C18.462 19.6067 18.6433 19.4875 18.723 19.2667C18.749 19.2624 18.8184 19.3196 18.7889 19.2454L18.7893 19.2412ZM18.6341 17.7602L18.6403 17.739L18.6166 17.7412L18.6341 17.7602ZM18.8385 18.2543C18.8404 18.2331 18.8532 18.2098 18.8423 18.1886C18.8264 18.1525 18.7954 18.1419 18.7865 18.1695C18.7784 18.1887 18.7761 18.2141 18.7846 18.2375C18.7927 18.265 18.8175 18.2735 18.8408 18.2522L18.8385 18.2543ZM18.4748 18.6687C18.6643 18.6705 18.6371 18.5008 18.6343 18.3438C18.5948 18.4266 18.5154 18.4565 18.4278 18.4821C18.3558 18.5013 18.4116 18.5903 18.4748 18.6687ZM19.2627 18.1582L19.2705 18.19C19.0427 18.3983 18.9541 18.7168 18.7764 19.0078C19.1643 19.1005 19.1595 18.8013 19.3552 18.7352C19.5531 18.667 19.5158 18.4676 19.279 18.19L19.2608 18.156L19.2627 18.1582ZM25.4799 11.4319L25.5055 11.4319L25.4861 11.4107L25.4799 11.4319ZM25.9916 12.108C26.035 12.0761 26.109 12.0824 26.0916 11.9933C26.021 11.9955 25.9858 12.0316 25.9916 12.108ZM25.0767 11.8824L25.1066 11.9057L25.0903 11.8739L25.0764 11.8867L25.0767 11.8824ZM25.2832 12.5887C25.2832 12.5887 25.3273 12.595 25.339 12.5844C25.3529 12.5717 25.3572 12.5483 25.3657 12.5249C25.342 12.5271 25.3211 12.5229 25.3095 12.5335C25.2955 12.5463 25.2913 12.5696 25.2832 12.5887ZM24.6781 12.1186L24.6936 12.1122L24.6618 12.0868L24.6762 12.1165L24.6781 12.1186ZM25.0536 13.0984C25.0885 13.1365 25.1094 13.1407 25.1102 13.1089C25.0722 13.058 25.0354 12.9944 24.9869 12.9415C24.9617 12.9139 24.9346 12.9309 24.9567 12.9691C24.9827 13.0115 25.0191 13.056 25.0536 13.0984ZM24.0797 12.5843C24.1955 12.529 24.2641 12.5013 24.2629 12.3973C24.1606 12.3975 24.1385 12.476 24.0797 12.5843ZM24.1783 13.1401L24.2016 13.1422L24.1841 13.1231L24.1783 13.1401ZM24.4777 13.6447L24.4738 13.6171C24.502 13.494 24.5326 13.3687 24.5786 13.1671C24.4283 13.2968 24.3737 13.4051 24.4614 13.6129L24.4757 13.6426L24.4777 13.6447ZM23.3021 12.8402L23.3634 12.8231L23.3707 12.7658C23.3509 12.7722 23.3254 12.7723 23.3114 12.785C23.2998 12.7957 23.306 12.8211 23.3021 12.8402ZM23.257 13.1968L23.2802 13.1989L23.2628 13.1798L23.257 13.1968ZM22.7988 13.7599C22.8318 13.7726 22.8438 13.7577 22.8302 13.7195C22.8186 13.7068 22.8031 13.6898 22.7907 13.6856C22.7558 13.6708 22.7434 13.6899 22.7593 13.726C22.7647 13.7366 22.7864 13.7556 22.7988 13.7599ZM22.9644 14.0482L22.9946 14.0672L22.976 14.0376L22.9644 14.0482ZM23.0599 14.4979C23.1049 14.5424 23.1506 14.5551 23.1793 14.5444C23.2017 14.5083 23.187 14.4595 23.1486 14.4129C23.1001 14.3599 23.0579 14.3557 23.0323 14.3791C23.0068 14.4025 23.0072 14.4449 23.058 14.4958L23.0599 14.4979ZM22.3402 14.1405L22.3701 14.1637L22.3557 14.1341L22.3402 14.1405ZM22.4984 14.4394L22.5066 14.4203L22.4829 14.4224L22.5004 14.4415L22.4984 14.4394ZM21.9211 14.3215L21.9428 14.3172L21.9253 14.2982L21.9211 14.3215ZM21.7138 14.3749L21.72 14.3537L21.6944 14.3537L21.7118 14.3728L21.7138 14.3749ZM22.3418 15.0614C22.3418 15.0614 22.3274 15.0084 22.3173 14.9787C22.2983 14.9766 22.2658 14.9597 22.2565 14.9682C22.2425 14.9809 22.2352 15.0149 22.2484 15.034C22.2918 15.0954 22.3302 15.0954 22.3418 15.0614ZM22.1985 15.2314L22.2066 15.2123L22.181 15.2123L22.1985 15.2314ZM21.1956 14.8489C21.1956 14.8489 21.2223 14.8595 21.2289 14.8574C21.2397 14.8552 21.251 14.8488 21.2498 14.8382C21.244 14.8085 21.2258 14.798 21.2025 14.8192C21.1955 14.8256 21.1963 14.8404 21.1956 14.8489ZM21.9573 15.7283L21.9534 15.7008L21.9391 15.6711L21.941 15.6965L21.9573 15.7283ZM21.0685 15.0041L21.0728 14.9807L21.0491 14.9829L21.0666 15.0019L21.0685 15.0041ZM21.5539 15.712C21.5539 15.712 21.5601 15.6908 21.5609 15.6823C21.5504 15.6802 21.5342 15.6717 21.5276 15.6739C21.5167 15.676 21.5055 15.6824 21.5067 15.693C21.5125 15.7227 21.5307 15.7333 21.5539 15.712ZM20.6149 15.2828L20.6231 15.2637L20.5975 15.2637L20.6149 15.2828ZM20.5027 16.5413L20.5283 16.5413L20.5108 16.5222L20.5027 16.5413ZM19.9579 16.487L19.9881 16.5061L19.9695 16.4764L19.9579 16.487ZM20.0489 17.2444C20.0562 17.2105 20.0717 17.1807 20.0624 17.1425C20.0531 17.1044 20.0101 17.0853 20.0093 17.1172C20.0101 17.1554 20.0314 17.202 20.0489 17.2444ZM19.4837 17.5785C19.5108 17.5615 19.5418 17.5487 19.5631 17.5253C19.584 17.5062 19.5654 17.4765 19.5472 17.4659C19.4592 17.4258 19.4519 17.4597 19.4546 17.5C19.4569 17.5212 19.4736 17.5488 19.4818 17.5764L19.4837 17.5785ZM19.3296 17.7506C19.3621 17.7909 19.385 17.7972 19.3838 17.7633C19.3826 17.7527 19.3695 17.7336 19.3621 17.7209C19.3516 17.7188 19.333 17.7124 19.3284 17.7167C19.3214 17.7231 19.3218 17.7422 19.3296 17.7506ZM20.364 18.4195C20.25 18.3603 20.2559 18.46 20.2679 18.5385L20.2842 18.5703L20.2803 18.5427C20.3516 18.532 20.4237 18.5828 20.4931 18.6633C20.4985 18.6739 20.4993 18.6888 20.5071 18.6973C20.5268 18.7142 20.5493 18.7248 20.5695 18.7375L20.6749 18.7967L20.5687 18.7226C20.542 18.7121 20.5245 18.693 20.5121 18.6654C20.4663 18.5827 20.4721 18.4724 20.3682 18.4195L20.364 18.4195ZM20.5839 18.1327L20.5537 18.137C20.5537 18.137 20.5413 18.1561 20.5448 18.1646C20.5615 18.1921 20.5828 18.1921 20.5917 18.1645C20.5944 18.1581 20.5894 18.1433 20.5859 18.1348L20.5839 18.1327ZM21.1287 18.0703C21.0845 18.0406 21.0814 18.0512 21.1221 18.0957C21.1338 18.1084 21.1481 18.1148 21.162 18.1254C21.1648 18.119 21.1698 18.1105 21.1659 18.1063C21.1543 18.0936 21.1407 18.0787 21.131 18.0681L21.1287 18.0703ZM21.7828 17.3201L21.7906 17.3519C21.7894 17.388 21.7821 17.422 21.7976 17.4623C21.81 17.4898 21.8658 17.5089 21.8619 17.4813C21.8546 17.4452 21.8185 17.3965 21.7968 17.3541L21.7851 17.318L21.7828 17.3201ZM22.5465 16.4425C22.5465 16.4425 22.5272 16.4447 22.5206 16.4468C22.5256 16.4616 22.5264 16.4765 22.5361 16.4871C22.569 16.5231 22.5884 16.5209 22.5795 16.4785C22.5783 16.4679 22.5609 16.4488 22.5489 16.4404L22.5465 16.4425ZM23.4632 16.2734L23.4427 16.405L23.459 16.4368L23.4551 16.4092C23.4551 16.4092 23.4656 16.388 23.4602 16.3774C23.4489 16.3371 23.5392 16.3518 23.4609 16.2755L23.4632 16.2734ZM24.1768 15.9242C24.0845 15.8374 24.0481 15.8629 24.0179 15.8905C23.9993 15.9075 23.9559 15.9394 24.0358 15.9754C24.097 16.005 24.199 16.1491 24.2233 16.0451C24.2303 16.0154 24.1931 15.956 24.1791 15.9221L24.1768 15.9242ZM23.6934 15.4051L23.7031 15.4857L23.7171 15.5197L23.7136 15.4878C23.6973 15.456 23.7655 15.4559 23.6957 15.403L23.6934 15.4051ZM24.9169 15.0721L24.8913 15.0721L24.9087 15.0912L24.9169 15.0721ZM25.3709 14.7658L25.3414 14.7616C25.353 14.7743 25.3577 14.7934 25.3674 14.804C25.4085 14.8442 25.4255 14.8442 25.4057 14.8039C25.3984 14.7912 25.3825 14.7785 25.3689 14.7637L25.3709 14.7658ZM26.2523 13.6248L26.2441 13.6439L26.2674 13.646L26.2499 13.627L26.2523 13.6248ZM26.0687 12.9482C25.8978 12.8594 25.8738 13.0058 25.732 12.9021C25.7157 12.8703 25.7405 12.832 25.6723 12.8088L25.7192 12.9021C25.5317 12.9491 25.526 13.1761 25.4245 13.3079C25.3327 13.4269 25.3142 13.5372 25.0517 13.283C24.9556 13.1919 24.8684 13.2133 24.9902 13.3744C25.0224 13.4189 25.0921 13.4951 25.0557 13.4973C24.8015 13.5041 24.8904 13.8626 24.6638 13.8948C24.5095 13.8802 24.4414 13.9737 24.4383 14.101C24.4345 14.2368 24.0647 13.8979 24.2183 14.2244C24.2559 14.3029 24.1187 14.2416 24.0466 14.1674C23.9253 14.0488 23.9663 13.8789 23.7648 13.7753C23.7145 13.9069 23.4739 13.9285 23.7685 14.2506C23.8033 14.2421 23.8285 14.2229 23.8684 14.2292C23.9041 14.2355 23.98 14.2672 23.9928 14.2906C24.046 14.386 23.9789 14.3733 23.9208 14.3565C23.8793 14.3438 23.8305 14.3184 23.7852 14.3015C23.7735 14.3121 23.7619 14.3228 23.7503 14.3334C23.7534 14.3461 23.7581 14.3652 23.7592 14.3758C23.7592 14.3758 23.7321 14.3695 23.7302 14.3674C23.7209 14.3525 23.7181 14.3356 23.7131 14.3207C23.5232 14.3232 23.8236 14.6282 23.6726 14.673C23.3773 14.7563 23.319 15.1405 22.8757 15.0478C22.8129 15.0352 22.7916 15.1052 22.8017 15.1816L22.9052 15.1921C22.9358 15.2769 22.8626 15.2388 22.8204 15.2346C22.6558 15.5214 22.3761 15.6916 22.1747 15.9381C22.1627 15.9529 22.1662 15.9848 22.162 16.0081C22.0539 15.9552 21.936 15.8918 21.8772 15.9534C21.7141 16.1298 21.7141 16.1298 21.4281 15.8777C21.3998 15.9542 21.489 16.075 21.4638 16.1642C21.3594 16.5633 21.1162 16.8247 20.7842 17.0077C20.699 17.0545 20.5715 17.0505 20.406 16.9022C20.3292 16.8323 20.2444 16.7815 20.232 16.8707C20.2223 16.9301 20.2169 16.9662 20.3413 17.0508C20.5681 17.2054 20.4674 17.3053 20.405 17.3584C20.338 17.4158 20.1865 17.3248 20.0562 17.2571C20.0109 17.2869 19.8509 17.2426 19.9594 17.3846C20.1715 17.6538 20.0576 17.7113 19.9274 17.7603C19.7023 17.8455 19.6114 18.0494 19.4863 18.2299C19.7033 18.3972 19.7909 18.395 19.8618 18.2718C20.0128 18.0169 20.1444 17.7408 20.4784 17.6533C20.631 17.6148 20.7503 17.5213 20.8029 17.3642C20.8699 17.1667 20.8858 17.1794 21.2604 17.1597C21.3224 17.1575 21.3492 17.098 21.3185 17.0132C21.2758 16.8966 21.2851 16.748 21.3641 16.7924C21.6932 16.9701 21.5915 16.6817 21.6833 16.6094C21.8851 16.4521 21.8865 16.1083 22.1554 16.0102C22.3143 16.0439 22.3584 15.9335 22.4347 15.8676C22.5505 15.7656 22.6725 15.6656 22.848 15.6335C22.8469 15.6229 22.8418 15.6081 22.8469 15.5996C22.8469 15.5996 22.8701 15.6017 22.8717 15.608C22.8814 15.6186 22.8841 15.6356 22.8914 15.6483C23.0119 15.542 23.0618 15.3679 23.2044 15.2765C23.5797 15.0382 23.9434 14.7872 24.3091 14.5383C24.4137 14.466 24.483 14.3365 24.6244 14.3277C24.7143 14.3233 24.7907 14.3742 24.7298 14.2236C24.6883 14.1176 24.6867 14.0178 24.6661 13.916C24.7413 13.9795 24.82 14.0282 24.8719 13.9963C25.0171 13.8985 25.2295 13.8833 25.2801 13.6773C25.3068 13.5712 25.3595 13.4608 25.5567 13.5644L25.5688 13.5962L25.5649 13.5687C25.5896 13.4837 25.5908 13.3776 25.7539 13.4347C25.8384 13.4664 25.962 13.4428 25.9356 13.3813C25.8146 13.1184 25.9886 13.0799 26.066 12.9546L26.0687 12.9482ZM25.7345 12.4522C25.683 12.4098 25.6287 12.3272 25.588 12.376C25.5741 12.3888 25.5667 12.4228 25.5818 12.444C25.6295 12.5288 25.6849 12.5053 25.7322 12.5244C25.8043 12.5518 25.7686 12.4988 25.7345 12.4522ZM26.595 13.2062C26.5776 13.1872 26.5508 13.1766 26.5245 13.1618C26.5353 13.2063 26.5419 13.2509 26.5571 13.2954C26.5687 13.3315 26.5954 13.342 26.6183 13.325C26.64 13.2974 26.6372 13.2571 26.595 13.2062ZM25.3467 11.5616C25.2541 11.5957 25.1723 11.6276 25.1705 11.7889C25.3022 11.7463 25.3149 11.6529 25.3467 11.5616ZM26.8419 12.5056C26.659 12.3849 26.5769 12.4678 26.466 12.3279C26.4106 12.258 26.3276 12.2327 26.3602 12.3196C26.4386 12.5359 26.2588 12.5914 26.3856 12.9307C26.4797 12.6929 26.573 12.5336 26.8438 12.5077L26.8419 12.5056ZM25.5394 11.0817L25.5069 11.0881C25.5069 11.0881 25.5104 11.1199 25.5181 11.1284C25.5569 11.1708 25.572 11.1686 25.5654 11.1241C25.5623 11.1114 25.5487 11.0965 25.5394 11.0817ZM26.822 12.2319L26.7899 12.2107L26.8081 12.2446L26.8197 12.234L26.822 12.2319ZM26.3789 11.6681C26.3789 11.6681 26.3502 11.6554 26.3479 11.6576C26.3409 11.664 26.3413 11.683 26.351 11.6936C26.3751 11.7339 26.3937 11.7403 26.401 11.7063C26.4018 11.6978 26.3886 11.6787 26.3812 11.666L26.3789 11.6681ZM26.7676 11.8458L26.7595 11.8649L26.7827 11.8669L26.7653 11.8479L26.7676 11.8458ZM26.1767 10.8451C26.3077 10.8343 26.2945 10.7452 26.1692 10.5523C26.0368 10.6735 25.9136 10.7861 25.7928 10.8967C25.7455 10.8776 25.7331 10.8968 25.742 10.9392L25.7579 10.9752L25.7502 10.9434L25.7734 10.9222L25.7966 10.9009C25.9241 10.8816 26.0438 10.8538 26.179 10.843L26.1767 10.8451ZM26.7267 11.3578C26.7267 11.3578 26.7539 11.3874 26.7624 11.3874C26.7709 11.3874 26.7744 11.3725 26.7775 11.3619C26.7682 11.3471 26.7597 11.3237 26.7515 11.3195C26.717 11.3005 26.705 11.3154 26.7267 11.3578ZM27.4227 11.6473C27.2693 11.6709 27.2582 11.8874 26.9911 11.6374C27.0637 11.8474 27.2357 11.9002 27.3326 12.0061C27.3416 12.2119 27.1121 11.9004 27.0691 11.9981C27.2397 12.2312 27.3548 12.1843 27.4466 12.1354C27.5857 12.0588 27.5321 11.8742 27.4227 11.6473ZM27.8871 12.141C27.8651 12.1729 27.9031 12.2238 27.9267 12.2683C27.9484 12.3107 27.988 12.3446 27.9918 12.3255C27.9969 12.2936 27.9779 12.2449 27.9585 12.2003C27.9429 12.16 27.915 12.1389 27.8871 12.141ZM27.5827 11.5049C27.5548 11.4837 27.5211 11.4562 27.4998 11.4562C27.4448 11.4521 27.4843 11.5093 27.5064 11.5475C27.5378 11.6005 27.5762 11.6238 27.6114 11.611C27.6327 11.5876 27.642 11.5557 27.5823 11.5092L27.5827 11.5049ZM26.8841 10.5172C26.8841 10.5172 26.8515 10.5003 26.8469 10.5045C26.8221 10.5194 26.8349 10.5427 26.8783 10.5575C26.8907 10.5617 26.8977 10.5554 26.9085 10.5532C26.8988 10.5426 26.8918 10.5257 26.8864 10.5151L26.8841 10.5172ZM28.644 11.5966C28.6169 11.5902 28.5805 11.5691 28.565 11.5755C28.5429 11.584 28.5627 11.6243 28.6034 11.6454C28.6297 11.6602 28.6646 11.675 28.6801 11.6687C28.7002 11.658 28.682 11.6241 28.644 11.5966ZM28.2223 11.1262C28.0982 11.0372 28.0727 11.1073 28.0479 11.1689C28.029 11.2135 28.0778 11.2855 28.117 11.347C28.0135 11.4299 27.9023 11.3177 27.7879 11.1693L27.7782 11.1354L27.7817 11.1672L27.916 11.6126C28.1671 11.6865 28.1345 11.5061 28.1255 11.347C28.1328 11.313 28.1324 11.2706 28.1537 11.2472C28.1843 11.2153 28.3115 11.317 28.2917 11.2067C28.2874 11.1833 28.2509 11.1388 28.2269 11.1219L28.2223 11.1262ZM27.0541 10.4044L27.0243 10.3811L27.0406 10.413L27.0522 10.4023L27.0541 10.4044ZM27.7377 10.5264L27.7454 10.5582L27.6548 10.6411C27.6269 10.62 27.6009 10.6009 27.575 10.5818C27.5692 10.5755 27.5556 10.584 27.5556 10.584C27.587 10.637 27.6234 10.6348 27.6583 10.6496C27.7548 10.6898 27.7757 10.6473 27.7559 10.5603L27.74 10.5243L27.7377 10.5264ZM27.2756 9.89056C26.9012 9.81265 26.8324 10.0313 26.7274 10.2013C26.7022 10.1971 26.6712 10.1865 26.6495 10.1908C26.6213 10.1972 26.5767 10.1951 26.6155 10.2609C26.6352 10.2545 26.6569 10.2502 26.6767 10.2438C26.6945 10.2353 26.7127 10.2225 26.7305 10.214C27.0514 10.2941 27.0489 9.99278 27.2752 9.8948L27.2756 9.89056ZM28.3341 10.8798C28.3341 10.8798 28.3279 10.9011 28.3249 10.9117C28.3373 10.9159 28.3512 10.9265 28.3601 10.9222C28.371 10.9201 28.3845 10.9116 28.381 10.9031C28.3737 10.867 28.3531 10.8586 28.3322 10.8777L28.3341 10.8798ZM27.5832 9.7882L27.4231 9.72056C27.3975 9.69726 27.3743 9.67183 27.3533 9.64428L27.3394 9.61035L27.3409 9.64005C27.3409 9.64005 27.3487 9.67187 27.3565 9.68035C27.3758 9.70153 27.4002 9.71423 27.4243 9.73117C27.4762 9.74593 27.56 9.87949 27.5812 9.78608L27.5832 9.7882ZM28.5115 10.7331L28.5073 10.7565L28.5329 10.7564L28.5115 10.7331ZM27.9537 10.0953L27.9235 10.0762C27.8913 10.0784 27.8491 10.0742 27.8305 10.0912C27.8142 10.1061 27.8522 10.157 27.8697 10.1527C27.8979 10.1463 27.9076 10.1102 27.9266 10.089L27.9537 10.0953ZM28.7503 10.9428L28.7205 10.9195L28.7387 10.9534L28.7503 10.9428ZM30.1712 8.17977C30.137 7.92306 30.0706 7.7619 30.1163 7.58782C30.1422 7.49016 30.0747 7.38841 29.9562 7.40346C29.8461 7.41849 29.8136 7.51828 29.8404 7.62222C29.8878 7.80463 29.9281 7.99342 30.1735 8.17764L30.1712 8.17977ZM30.2894 8.3557L30.3239 8.3514L30.3111 8.32808L30.2894 8.3557ZM29.5481 8.18927C29.6132 8.19977 29.6081 8.1149 29.5744 8.06402C29.5353 8.00255 29.4945 7.93471 29.4043 7.94335C29.3969 7.97731 29.3737 8.02191 29.3849 8.03887C29.4307 8.09821 29.4873 8.17876 29.5462 8.18715L29.5481 8.18927ZM29.2139 8.51447C29.2549 8.4847 29.2534 8.45499 29.2092 8.42536L29.079 8.33432C29.0759 8.36828 29.0615 8.40862 29.0763 8.43406C29.1015 8.48495 29.1468 8.52519 29.2119 8.51236L29.2139 8.51447ZM29.5103 9.54317L29.5475 9.5325L29.5243 9.50707L29.5084 9.54105L29.5103 9.54317ZM28.9688 9.05386C28.9688 9.05386 29.0049 9.05593 29.0161 9.04954C29.0316 9.04315 29.0417 9.02616 29.0513 9.01341C29.056 9.00916 29.0405 8.99221 29.0327 8.98373L28.9665 9.05599L28.9688 9.05386ZM28.2462 9.03381L28.2446 9.00411L28.2481 8.91922L28.2342 9.002L28.2481 9.03593L28.2462 9.03381ZM28.4725 9.16925L28.49 9.18832L28.4958 9.17134L28.4706 9.16714L28.4725 9.16925ZM28.1731 9.34587C28.2157 9.39248 28.2649 9.41362 28.2452 9.35C28.2355 9.31606 28.1866 9.26733 28.1494 9.23132C28.1378 9.2186 28.1072 9.22714 28.0797 9.22506C28.1118 9.26957 28.1401 9.30985 28.1731 9.34587ZM27.5753 9.49962L27.5648 9.52086L27.5924 9.52293L27.573 9.50175L27.5753 9.49962ZM28.7165 10.6352C28.7021 10.6288 28.6824 10.6119 28.6758 10.614C28.6494 10.6225 28.6514 10.648 28.6824 10.6819C28.6921 10.6925 28.7165 10.7052 28.7231 10.7031C28.7514 10.6967 28.7452 10.6712 28.7165 10.6352ZM28.8152 10.4865L28.79 10.4823L28.8094 10.5035L28.8152 10.4865ZM28.195 9.78509C28.195 9.78509 28.1268 9.7852 28.1144 9.80432C28.0973 9.82769 28.1102 9.87435 28.1109 9.91255L28.2168 10.1309L28.2327 10.167L28.223 10.1331L28.2718 10.0884L28.3028 10.099L28.2706 10.0778L28.1195 9.91253C28.1357 9.89765 28.1536 9.88913 28.1636 9.87214C28.181 9.84453 28.2737 9.88045 28.1954 9.78084L28.195 9.78509ZM27.8484 9.3082L27.8538 9.34214L27.8655 9.3782L27.86 9.34425L27.8503 9.31032L27.8484 9.3082ZM30.2684 9.97059L30.2335 9.97913L30.2529 10.0003L30.2684 9.97059ZM30.1095 9.82018L30.0862 9.79476L30.0684 9.82662L30.1075 9.81807L30.1095 9.82018ZM30.3792 9.05582C30.3242 9.02833 30.2521 9.04754 30.2421 9.11122C30.1845 9.48691 29.8463 9.5978 29.589 9.66188C29.5022 9.67899 29.4081 9.73007 29.3729 9.74286C29.3349 9.76202 29.3089 9.78965 29.2931 9.82363C29.259 9.89371 29.2606 9.99344 29.2715 10.108C29.2746 10.1441 29.2045 10.1421 29.2324 10.1866L29.2231 10.1951C29.0952 10.1486 28.9391 10.1319 28.9847 9.93447L29.0176 9.94715L28.9831 9.92811C28.8901 9.8264 28.8637 9.74157 28.8959 9.66937C28.9017 9.65238 28.9923 9.61616 28.8497 9.56758C28.7052 9.51689 28.5824 9.71868 28.6859 9.79915C29.0165 10.0533 28.879 10.2296 29.0062 10.4946C29.0469 10.4224 29.079 10.3502 29.239 10.2078C29.2448 10.2142 29.2526 10.2226 29.2622 10.2332C29.351 10.3116 29.4076 10.2988 29.4203 10.2287C29.4497 10.0695 29.5493 9.98236 29.3955 10.0802C29.4435 10.0441 29.5004 10.0037 29.562 9.959C29.6674 9.87819 29.782 9.78888 29.9126 9.68894C30.0357 9.57627 30.2224 9.42106 30.3998 9.25102C30.4579 9.19787 30.4722 9.11085 30.3765 9.06219L30.3792 9.05582ZM29.6846 8.49249L29.6459 8.4968L29.6835 8.50523C29.8137 8.54958 29.8734 8.61951 29.7928 8.75545C29.7452 8.83404 29.7077 8.91898 29.6662 8.99968C29.6302 8.99762 29.5926 8.98919 29.562 8.99773C29.5159 9.01266 29.4613 9.0276 29.476 9.09973L29.5717 9.05501L29.669 9.01666C29.736 9.07596 29.855 9.19672 29.862 9.19035C30.034 9.03304 30.1195 8.81858 30.0594 8.5895C30.0077 8.38375 29.8272 8.4477 29.6827 8.49037L29.6846 8.49249ZM31.0722 8.60483C30.7487 8.60111 30.7046 8.75821 30.6733 8.96198C30.9371 8.98914 30.9649 8.80023 31.0722 8.60483ZM31.389 8.26055L31.3658 8.28181L31.3983 8.29874L31.3867 8.26268L31.389 8.26055ZM31.182 7.95956C30.7782 7.94749 30.7539 8.26158 30.6878 8.54392C30.8326 8.3336 30.993 8.14024 31.182 7.95956ZM30.8505 7.55055C30.8408 7.53996 30.8273 7.52513 30.8125 7.52303C30.7579 7.51463 30.7432 7.53587 30.7734 7.57826C30.7812 7.58674 30.8064 7.59094 30.8195 7.58668C30.8327 7.58241 30.8408 7.5633 30.8505 7.55055ZM31.861 8.41257L31.8161 8.53148L31.8188 8.57179L31.8289 8.53146L31.8591 8.41046L31.861 8.41257ZM30.7913 6.74853C30.7064 6.79111 30.7499 6.87592 30.7375 6.94172L30.7314 7.103C30.7097 7.13062 30.6818 7.15613 30.6524 7.17528L30.6055 7.17535L30.652 7.17952C30.7109 7.18792 30.7368 7.16029 30.7418 7.10511L30.7522 6.94381C30.7739 6.89285 30.7979 6.83976 30.8153 6.78881C30.8184 6.77819 30.7913 6.74853 30.789 6.75065L30.7913 6.74853ZM31.3112 6.701C31.3236 6.61186 31.3185 6.50364 31.2375 6.4104C31.2201 6.39133 31.1546 6.38508 31.1379 6.4042C31.0465 6.4956 31.0532 6.61017 31.1226 6.71404C31.1563 6.76491 31.2233 6.7542 31.3132 6.70312L31.3112 6.701ZM32.1451 7.65456C32.1284 7.65034 32.1063 7.63552 32.0932 7.63979C32.049 7.65684 32.0463 7.68655 32.0932 7.70981C32.1033 7.71616 32.1296 7.70763 32.1412 7.697C32.1482 7.69062 32.1439 7.66729 32.1431 7.65244L32.1451 7.65456ZM31.6604 6.86808L31.5736 6.81516C31.5504 6.88311 31.5252 6.94893 31.5086 7.01474C31.5059 7.02111 31.5745 7.06344 31.5923 7.05492C31.6721 7.02084 31.6725 6.94657 31.6585 6.86596L31.6604 6.86808ZM32.1739 7.17281L32.1519 7.20468L32.1887 7.19825L32.172 7.17069L32.1739 7.17281ZM31.74 6.27378C31.7911 6.25036 31.7957 6.17608 31.7407 6.14858C31.702 6.12955 31.6419 6.15723 31.5923 6.16368C31.5931 6.20187 31.5881 6.25705 31.5924 6.25705C31.6423 6.2697 31.702 6.29294 31.74 6.27378ZM32.1594 6.65294C32.1206 6.65725 32.102 6.55755 32.0509 6.62766L32.1586 6.66143C32.1846 6.68049 32.2125 6.70166 32.2388 6.71648C32.2447 6.72283 32.2605 6.7122 32.2714 6.71006C32.2535 6.64855 32.2012 6.66136 32.1594 6.65294ZM32.0494 5.91678C32.0494 5.91678 32.0169 5.9232 31.9995 5.92747C31.9979 5.94445 31.9917 5.96568 31.9995 5.97416C32.0111 5.98687 32.0378 5.99744 32.0491 5.99105C32.0956 5.97188 32.0983 5.94217 32.0494 5.91678ZM32.5887 5.70371L32.5445 5.69741L32.5023 5.69324L32.5441 5.70166L32.5887 5.70371ZM32.8869 5.37643L32.7951 5.37871L32.7719 5.46999C32.8036 5.47206 32.849 5.48896 32.8695 5.47408C32.8881 5.45707 32.8815 5.41252 32.8869 5.37643ZM33.4548 4.96597L33.4125 4.96179L33.2753 4.90048L33.2669 4.99386L33.4121 4.96604L33.4548 4.96597ZM33.76 4.79571C33.7294 4.75757 33.6732 4.69612 33.6472 4.7004C33.5837 4.7196 33.6081 4.77898 33.6194 4.79594C33.6698 4.87437 33.7112 4.91038 33.7694 4.88058C33.7806 4.87419 33.7778 4.81054 33.7604 4.79147L33.76 4.79571Z" fill="#EE0061"/>
<path d="M33.1455 2.86876C32.9887 2.77687 32.829 2.74528 32.559 2.86876C32.8406 2.93768 32.9945 2.94917 33.1455 2.86876Z" fill="#EE0061"/>
<path d="M34.7365 1.76031C34.7365 1.76031 34.722 1.73447 34.7104 1.7316C34.7017 1.7316 34.6872 1.74308 34.6785 1.74883L34.7046 1.77754L34.7394 1.76031H34.7365Z" fill="#EE0061"/>
<path d="M17.827 3.32823C17.827 3.32823 17.8212 3.35408 17.8212 3.36844L17.8416 3.37992L17.8474 3.33685C17.8474 3.33685 17.8299 3.32249 17.8299 3.32536L17.827 3.32823Z" fill="#EE0061"/>
<path d="M31.5283 3.04967C31.5283 3.04967 31.5021 3.0669 31.4905 3.07839C31.296 3.02957 31.0957 3.1588 30.8953 3.0066C30.7618 2.90322 30.6834 3.05542 30.6659 3.20761C30.6485 3.34258 30.6253 3.50052 30.724 3.59529C30.8431 3.71302 30.9389 3.57806 31.0376 3.50339C31.0782 3.47181 31.1334 3.46032 31.1799 3.44022L31.2089 3.40863L31.1828 3.44309C31.4208 3.56944 31.4615 3.53211 31.5225 3.11572C31.5312 3.10136 31.5428 3.08988 31.5486 3.07265C31.5486 3.0669 31.5312 3.0468 31.5283 3.0468V3.04967Z" fill="#EE0061"/>
<path d="M11.1666 2.53854L11.1927 2.54428L11.2188 2.53566C11.2188 2.49833 11.2188 2.46387 11.2101 2.42941C11.1811 2.43803 11.1666 2.47536 11.1666 2.53566V2.53854Z" fill="#EE0061"/>
<path d="M29.6062 16.2736C29.6614 16.2736 29.7252 16.2736 29.8007 16.2822C29.7572 16.2764 29.6962 16.2678 29.6091 16.2563C29.6091 16.2621 29.6091 16.2678 29.6091 16.2764L29.6062 16.2736Z" fill="#EE0061"/>
<path d="M37.5935 14.944C37.5935 14.944 37.5761 14.9182 37.5674 14.9182C37.5587 14.9182 37.5471 14.9296 37.5355 14.9354L37.5616 14.9641L37.5935 14.944Z" fill="#EE0061"/>
<path d="M20.3937 16.7732C20.3937 16.7732 20.3879 16.7991 20.3849 16.8134L20.4053 16.8278L20.414 16.7847C20.414 16.7847 20.3966 16.7675 20.3966 16.7732H20.3937Z" fill="#EE0061"/>
<path d="M13.5619 15.6619L13.588 15.6705L13.6142 15.6648C13.6171 15.6303 13.6171 15.593 13.6142 15.5585C13.5822 15.5671 13.5648 15.6016 13.5619 15.6619Z" fill="#EE0061"/>
<path d="M25.5966 28.6417C25.6401 28.6417 25.6895 28.6446 25.7504 28.6532C25.7156 28.6475 25.6662 28.636 25.5995 28.6245C25.5995 28.6303 25.5995 28.636 25.5995 28.6446L25.5966 28.6417Z" fill="#EE0061"/>
<path d="M36.4128 29.0468C36.2854 29.1459 36.2249 29.0271 36.1464 28.9832C36.11 28.966 36.0757 28.9411 36.0416 28.9212C35.8346 28.9992 35.7118 28.9311 35.6663 28.7303L35.6631 28.6801L35.6512 28.7316C35.5666 28.8296 35.4616 28.9243 35.3564 28.8573C34.7122 28.4439 34.0186 28.0876 33.5803 27.4194C33.5217 27.3309 33.5523 27.2576 33.6466 27.1916C33.6901 27.1626 33.7326 27.2753 33.7764 27.1706L33.65 27.166C33.4842 27.1369 33.3092 27.043 33.1532 27.0889C32.8435 27.178 32.6694 27.2178 32.9039 26.8167L32.6807 26.7191C32.5754 26.8088 32.4676 26.9391 32.3661 26.7708C32.3325 26.718 32.3569 26.625 32.4209 26.5994C32.5485 26.5433 32.606 26.6547 32.6807 26.7191C32.5593 26.315 32.308 26.1314 31.9699 26.2102C31.8357 26.2417 31.6751 26.2551 31.5718 26.337C30.95 26.8363 30.4686 26.5633 29.9666 26.3249C29.821 26.2563 29.8348 26.1162 29.7947 26.0008C29.7384 25.8286 29.7052 25.6622 29.4489 25.8782C29.3627 25.9511 29.2989 25.82 29.3484 25.7249C29.4386 25.5556 29.5572 25.3966 29.7091 25.1666C29.1283 25.3163 28.76 25.1173 28.4212 24.7869C28.3002 24.6682 28.153 24.5744 28.001 24.486C27.9252 24.4444 27.8468 24.4004 27.771 24.3588C27.7346 24.3416 27.6872 24.3102 27.6615 24.3023L27.5996 24.2822C27.5328 24.2625 27.5826 24.1724 27.6445 24.0738C27.7349 24.0283 27.8254 23.9828 27.9205 23.8511C27.8342 23.8431 27.7387 24.0078 27.6512 24.0606C27.5245 24.051 27.4884 23.9201 27.32 23.9696C27.0575 24.0471 26.885 24.0313 27.0568 23.6379C27.0633 23.6197 26.9913 23.6383 26.9535 23.639C26.9587 23.6815 26.9957 23.7087 26.8911 23.8084C26.8793 23.8221 26.8548 23.8342 26.8472 23.8323C26.7833 23.82 26.8709 23.7293 26.9146 23.6624C27.0221 23.3275 26.8461 23.3372 26.5761 23.4558C26.4558 23.5089 26.3379 23.5592 26.5444 23.3145L26.6765 23.2478C26.7117 23.207 26.7632 23.2229 26.7885 23.145L26.6829 23.2296L26.5512 23.3013C26.4333 23.2328 26.0992 23.4149 26.2543 23.0356C26.2587 23.0251 26.2085 23.0293 26.1794 23.0469C25.8429 23.2317 25.8769 22.9712 25.7981 22.8414C25.8062 22.8104 25.9004 22.7444 25.8469 22.7362L25.7934 22.8468C25.7249 22.9208 25.6417 23.001 25.6349 22.9334C25.6238 22.8383 25.6604 22.6988 25.5194 22.7434C25.3784 22.7881 25.2555 22.8388 25.4411 22.5428C25.542 22.3828 25.3977 22.4151 25.3077 22.4277C25.215 22.438 25.1729 22.4112 25.3287 22.2415L25.4654 22.1694C25.5029 22.1637 25.5363 22.1736 25.5805 22.1547C25.6221 22.1335 25.6467 22.0835 25.6118 22.0914C25.5697 22.1026 25.5164 22.1373 25.4698 22.1589L25.3354 22.2283C25.2004 22.2876 25.0285 22.4005 25.0216 22.252C25.0194 22.2169 25.0015 22.1729 24.9696 22.1882C24.6008 22.3403 24.6262 22.0628 24.6253 21.8103L24.6883 21.6888L24.6106 21.8165C24.2498 22.0944 24.0391 22.0741 24.2429 21.7463C24.5384 21.2743 24.3579 21.3324 24.132 21.3892C24.0848 21.4008 24.0783 21.3381 24.0563 21.3097L24.0621 21.2814L24.0442 21.3183C23.9112 21.4886 23.8051 21.5252 23.7168 21.5251C23.5729 21.5245 23.6114 21.4151 23.8419 21.1912C23.9013 21.1332 23.9833 21.1137 24.0259 20.9888C23.8873 21.0307 23.7413 21.0758 23.5977 21.1182C23.521 21.1423 23.4339 21.1622 23.4922 21.0461C23.6114 20.8164 23.4768 20.8428 23.3652 20.9128C23.0397 21.1118 23.0758 20.9244 23.125 20.7055L23.1615 20.6848L23.1294 20.695C22.9811 20.7428 22.8257 20.7988 23.0903 20.476C23.105 20.4697 23.1248 20.463 23.1315 20.4498C23.155 20.4225 23.1732 20.3907 23.194 20.3612L23.2019 20.3251L23.1867 20.3643L23.0927 20.4732C23.1107 20.2797 23.0441 20.1842 22.8594 20.2149C22.8095 20.2241 22.7361 20.2606 22.6909 20.2644C22.3992 20.2787 22.4094 20.2399 22.7898 19.7937C22.8086 19.7719 22.8037 19.7345 22.8095 19.7062C22.727 19.6777 22.6636 19.8321 22.5921 19.8987C22.2687 20.2088 22.1829 20.2488 22.2071 19.9941C22.2234 19.8134 22.1618 19.7554 22.0115 19.773C21.9389 19.7816 22.0155 19.6767 22.0887 19.5973L22.1276 19.5738L22.0931 19.5868C22.0215 19.5726 21.8882 19.6191 21.9063 19.5064C21.9647 19.1529 21.704 19.1798 21.4666 19.1744C21.4438 19.1738 21.4718 19.0982 21.4766 19.0548C21.5125 19.024 21.5566 19.0431 21.5816 18.9601L21.4766 19.0548C21.377 18.6362 20.9675 18.5441 20.7577 18.1777C21.0801 17.9713 21.315 17.8556 21.556 17.598C21.3503 17.4964 21.2709 17.5182 20.9155 17.8815C20.7662 18.033 20.6674 18.1473 20.5481 18.1346C20.416 18.1204 20.4367 18.01 20.5602 17.8077C20.6217 17.704 20.6941 17.5716 20.612 17.5911C20.364 17.6574 20.4136 17.3248 20.0909 17.4882C19.9321 17.5697 19.8506 17.5185 19.8407 17.4005C19.8337 17.29 19.8333 17.2041 19.6833 17.2268C19.4933 17.2528 19.6027 17.0289 19.9122 16.6972L19.9484 16.6715L19.9142 16.6895C19.9142 16.6895 19.8758 16.6801 19.8601 16.6713C19.843 16.6803 19.8259 16.6893 19.8112 16.6956C19.8112 16.6956 19.8199 16.6747 19.8216 16.6619L19.8706 16.6376C19.8772 16.4627 19.7461 16.5444 19.6173 16.7421C19.422 17.044 19.4052 16.9772 19.3801 16.8605C19.3548 16.7389 19.268 16.683 19.1403 16.6583L19.0791 16.6483C19.3052 16.3539 19.1499 16.372 19.0583 16.3595C18.8778 16.3367 19.3595 15.8972 19.1661 15.9108C19.0531 15.9178 18.8366 16.1254 18.7573 16.0284C18.6234 15.8653 18.5661 15.5973 18.2595 15.6558C18.0553 15.6982 18.7258 14.9321 18.1493 15.3896C18.0341 15.3235 17.9186 15.2523 17.7987 15.1916C17.6501 15.1156 17.5424 15.0084 17.4922 14.813C17.4486 14.6424 17.3863 14.4556 17.1334 14.4843C16.8754 14.5135 16.905 14.463 17.2526 14.017C17.2879 13.9762 17.3228 13.9303 17.3021 13.922C17.2761 13.909 17.2379 13.9046 17.1964 13.9258C17.0564 13.9855 16.7735 14.0597 16.7593 13.9952C16.7238 13.7935 16.4372 13.8883 16.3688 13.7247C16.3423 13.6638 16.1983 13.7011 16.3937 13.4801C16.4666 13.3957 16.467 13.3628 16.4057 13.3907C16.0282 13.5638 16.0316 13.2199 15.7536 13.2507C15.4979 13.2772 15.8801 12.8991 15.9501 12.6886C15.57 13.021 15.3498 13.0496 15.3108 12.7926C15.2938 12.6829 15.2418 12.619 15.1281 12.6159C14.8221 12.6037 14.551 12.5455 14.5526 12.1715C14.2842 12.3152 14.6767 11.7417 14.3208 11.9382C14.1014 12.0577 14.1425 11.751 14.0055 11.6993C13.8452 11.637 13.6889 11.5591 13.6725 11.3407C13.6561 11.1602 13.3994 11.2903 13.3268 11.1801C13.1475 10.897 12.8594 10.7292 12.6706 10.457L12.5487 10.2853C12.5351 10.2687 12.5347 10.2637 12.5104 10.2379L12.4321 10.1561L12.2754 9.99233L11.6507 9.32966C11.239 8.8841 10.8344 8.43038 10.4627 7.93852C9.91485 7.21383 9.40018 6.45604 8.8117 5.76759C8.68374 5.61914 8.50317 5.39677 8.6398 5.24385C9.01414 4.82089 8.60869 4.83211 8.46663 4.7C8.31122 4.55637 8.14171 4.42909 7.97925 4.29363C7.91521 4.23836 7.8485 4.18078 7.91443 4.06662C7.96925 3.97613 8.07895 3.87599 8.13671 3.91158C8.40475 4.08114 8.60713 3.77112 8.84377 3.72351C9.52124 3.58593 10.0183 3.90559 10.4936 4.2018C11.3893 4.76094 12.1498 5.49814 12.9921 6.12997C13.5853 6.57547 14.1437 7.06685 14.697 7.55865L14.9452 7.77283L15.1373 7.93864C15.2701 8.04374 15.4052 8.14612 15.5521 8.23487C15.9718 8.48775 16.2974 8.84955 16.7355 9.07562C17.1476 9.2887 17.4613 9.62119 17.9156 9.78526C18.2434 9.90182 18.4378 10.1837 18.7283 10.3488C19.2986 10.6699 19.707 11.184 20.3152 11.4665C20.3668 11.4445 20.3855 11.4606 20.3712 11.5149C20.7795 11.8672 21.1109 12.3195 21.6243 12.5393C22.0261 12.7103 22.1222 13.1924 22.4973 13.3782C22.9792 13.6183 23.3318 14.0082 23.6462 14.4316C24.0435 14.9693 24.6597 15.2587 24.9973 15.8495C25.261 16.3099 25.6829 16.598 25.9631 17.0394C26.1761 17.3753 26.4854 17.5995 26.7008 17.9326C26.8432 18.1506 27.0598 18.3043 27.2432 18.491C27.5559 18.8084 27.8025 19.1971 28.1199 19.509C28.6714 20.0515 29.1947 20.6267 29.7509 21.1637C29.8719 21.2824 29.9933 21.4062 30.1096 21.5303L30.9046 22.2924C31.4468 22.8079 31.991 23.3156 32.5662 23.793C32.803 23.9879 32.875 24.3684 33.0911 24.4741C33.3776 24.6169 33.5314 24.8541 33.7502 25.043C34.336 25.5295 34.8279 26.0871 35.2409 26.7523C35.4571 27.1006 35.7912 27.4364 36.108 27.7383C36.2314 27.8543 36.3308 27.9496 36.0381 28.1484C35.7454 28.3472 35.9348 28.6295 36.0619 28.8437C36.1232 28.8158 36.1859 28.7702 36.2485 28.7624C36.3784 28.7414 36.4416 28.8245 36.4613 28.9366C36.4686 28.9714 36.4553 29.0407 36.4312 29.0579L36.4128 29.0468ZM10.4718 4.73419C10.4415 4.69378 10.4216 4.65755 10.3899 4.63494C10.3712 4.61882 10.334 4.62951 10.3063 4.62931C10.3309 4.66009 10.3485 4.69904 10.3802 4.72165C10.3989 4.73777 10.4337 4.7298 10.4745 4.73649L10.4718 4.73419ZM11.4422 6.99244C11.4645 7.02594 11.4774 7.07034 11.5064 7.09064C11.5305 7.11137 11.5733 7.11031 11.6117 7.11973C11.5891 7.0812 11.5738 7.03952 11.5445 7.01419C11.5205 6.99346 11.4753 6.99725 11.4422 6.99244ZM11.5681 7.66657C11.3868 7.47206 11.2705 7.3479 11.1241 7.18835C11.0937 7.50419 11.2667 7.56801 11.5681 7.66657ZM14.6953 9.84273C14.6953 9.84273 14.7378 9.83665 14.7652 9.83182C14.8068 9.81066 14.835 9.77798 14.8237 9.75871C14.8153 9.74678 14.7808 9.75977 14.7537 9.76962C14.7118 9.78576 14.684 9.82347 14.6953 9.84273ZM14.1705 9.20453C14.2021 9.26504 14.228 9.31593 14.2539 9.36682L14.2485 9.40012L14.2663 9.36325C14.2877 9.26293 14.2947 9.17391 14.1732 9.20683L14.1705 9.20453ZM14.4024 8.36401C14.4024 8.36401 14.3966 8.39228 14.3996 8.39961C14.4023 8.40191 14.4217 8.39018 14.4314 8.38431C14.4402 8.36337 14.4566 8.3443 14.456 8.33425C14.4541 8.30409 14.432 8.31352 14.4 8.36673L14.4024 8.36401ZM13.3458 8.44997C13.3458 8.44997 13.3406 8.4883 13.3466 8.50295C13.3552 8.51992 13.3719 8.54379 13.392 8.54211C13.4421 8.5379 13.4479 8.50963 13.4049 8.46775C13.3916 8.45624 13.3688 8.45562 13.3481 8.44724L13.3458 8.44997ZM14.4448 10.23L14.5412 10.1184C14.4798 10.0654 14.4379 10.0007 14.3677 9.96869C14.044 9.83663 13.8614 9.54118 13.6226 9.31611C13.5585 9.26083 13.5085 9.22713 13.4146 9.1794C13.0118 8.91249 12.4749 8.71997 12.6527 8.02292C12.4902 7.92537 12.3669 8.08982 12.2381 8.08797C12.1371 8.08632 12.0439 8.04865 11.8671 8.00535C12.4367 8.51599 12.9954 9.0124 13.5464 9.50692C13.8352 9.7657 14.1308 10.0113 14.4475 10.2323L14.4448 10.23ZM15.7705 10.5283L15.8026 10.518L15.8365 10.495L15.8067 10.5025L15.7705 10.5283ZM15.5477 10.5167C15.5477 10.5167 15.5775 10.5091 15.5919 10.4978C15.6013 10.4869 15.6178 10.4678 15.6295 10.4542C15.6218 10.4523 15.6135 10.4404 15.6015 10.449C15.5552 10.4756 15.5344 10.5051 15.5504 10.519L15.5477 10.5167ZM15.2692 10.1812C15.3081 10.2386 15.3303 10.31 15.4347 10.2861C15.4146 10.2069 15.3971 10.1301 15.2692 10.1812ZM15.0212 9.89123C14.9911 10.0125 15.0422 10.0234 15.0836 10.0401C15.1097 10.0531 15.1426 10.015 15.1283 9.98837C15.1057 9.94984 15.0666 9.93038 15.0212 9.89123ZM15.6387 10.8375C15.386 10.8713 15.3918 10.6434 15.1453 10.7348C15.0696 10.4556 14.7565 10.4515 14.608 10.2568C14.6978 10.5196 14.8346 10.728 15.1362 10.7507C15.2658 10.8055 15.1573 11.1633 15.6387 10.8375ZM17.2386 10.0895L17.2379 10.1174L17.259 10.0929L17.2386 10.0895ZM16.2102 10.7795C16.224 10.839 16.158 10.9911 16.3017 10.9108C16.3661 10.7715 16.2787 10.7864 16.2102 10.7795ZM16.6827 9.79503C16.6827 9.79503 16.6755 9.84111 16.6838 9.85305C16.6972 9.86456 16.7223 9.86246 16.74 9.8635L16.7412 9.80277L16.6827 9.79503ZM15.9416 10.9612C15.8352 10.9928 15.8272 10.8672 15.5976 11.0254C15.7263 11.0272 15.7616 11.1051 15.9416 10.9612ZM16.2441 11.3552L16.2643 11.3156C16.2812 11.2637 16.2578 11.253 16.2136 11.2719L16.0819 11.3435C15.9578 11.3363 15.9292 11.2022 15.7675 11.2385C15.6855 11.258 15.6107 11.3123 15.5501 11.431C15.5053 11.5207 15.5108 11.5682 15.596 11.5181C15.7836 11.414 15.87 11.5028 16.0752 11.3567L16.2092 11.2824L16.2519 11.3192L16.2464 11.3525L16.2441 11.3552ZM16.342 11.7866C16.5338 11.5482 16.7282 11.3122 16.8351 11.048C16.7905 11.0998 16.7378 11.1446 16.6958 11.1987C16.63 11.2749 16.565 11.3233 16.4955 11.3822C16.1698 11.657 16.1702 11.6621 16.342 11.7866ZM19.5176 13.7718C19.5176 13.7718 19.5521 13.7588 19.5542 13.751C19.5753 13.7265 19.5885 13.6951 19.6069 13.6683L19.5176 13.7718ZM19.5971 13.5933L19.6137 13.6551C19.6194 13.6268 19.6823 13.5432 19.5971 13.5933ZM19.5642 13.351L19.5845 13.3544L19.5903 13.3261L19.5668 13.3533L19.5642 13.351ZM19.379 13.2958C19.379 13.2958 19.4065 13.291 19.4209 13.2796C19.4303 13.2687 19.4467 13.2497 19.4582 13.231C19.4528 13.2264 19.4422 13.2172 19.4324 13.2231C19.3835 13.2474 19.3654 13.2792 19.3817 13.2981L19.379 13.2958ZM19.8612 12.4242L19.8801 12.4832L19.8989 12.5423L19.8935 12.5756L19.9113 12.5387C19.9171 12.5105 19.9299 12.474 19.9287 12.4539C19.9244 12.4265 19.9313 12.3754 19.8642 12.4315L19.8612 12.4242ZM20.2779 11.5151L20.2624 11.5493L20.2942 11.534L20.2756 11.5178L20.2779 11.5151ZM18.8974 11.944C18.9299 11.9388 18.9808 11.9067 19.0274 11.8851C19.0473 11.8405 19.0604 11.8091 19.0735 11.7777C19.0249 11.807 18.9811 11.8309 18.9354 11.8676C18.8945 11.8988 18.87 11.9488 18.9001 11.9463L18.8974 11.944ZM18.8677 11.3149L18.8669 11.3427L18.8951 11.3101L18.8677 11.3149ZM18.7272 11.2079L18.7264 11.2358L18.7523 11.2058L18.7272 11.2079ZM17.7464 11.9343C17.8773 12.0092 17.8407 12.2675 18.0866 12.2469C18.1092 11.9671 17.8515 12.0392 17.7464 11.9343ZM18.4531 10.9428C18.4219 10.9682 18.4208 10.991 18.4486 10.9912C18.4563 10.9931 18.4707 10.9818 18.4831 10.9782L18.4809 10.9431C18.4809 10.9431 18.4625 10.932 18.4528 10.9378L18.4531 10.9428ZM17.4931 11.7585C17.4767 11.7775 17.4739 11.8131 17.4637 11.8519C17.4962 11.8466 17.5349 11.8611 17.5685 11.833C17.65 11.7655 17.5991 11.7597 17.5855 11.7431C17.5718 11.7266 17.5522 11.6954 17.4908 11.7612L17.4931 11.7585ZM18.0853 10.7917L18.1178 10.7865C18.1537 10.7557 18.1531 10.8265 18.2109 10.7433L18.1222 10.776L18.088 10.794L18.0853 10.7917ZM16.6153 11.7991C16.6508 11.7633 16.6663 11.7292 16.6456 11.7208C16.6326 11.7143 16.6028 11.7218 16.5804 11.7263C16.5672 11.7577 16.5373 11.8031 16.5433 11.8178C16.5516 11.8297 16.5881 11.809 16.6129 11.8018L16.6153 11.7991ZM17.2576 11.4649C17.2376 11.4287 17.1901 11.4352 17.1221 11.4762C17.1002 11.4099 17.1519 11.2691 17.0139 11.3211C16.9129 11.519 16.9965 11.5247 17.12 11.484C17.179 11.4588 17.1462 11.5778 17.2576 11.4649ZM16.9601 12.8238L16.9609 12.7959L16.9398 12.8204L16.9601 12.8238ZM17.1475 13.2325L17.1203 13.2424C17.0818 13.2709 17.085 13.2024 17.0272 13.2856L17.1163 13.2579L17.1501 13.2348L17.1475 13.2325ZM17.9177 12.7663C17.8954 12.6141 17.6342 12.7117 17.6652 12.5247C17.7156 12.2451 17.5044 12.2956 17.3513 12.268C17.3526 11.9698 17.0514 12.0329 16.8603 11.963C16.9084 12.1662 16.9989 12.3203 17.2002 12.3514C17.1856 12.4007 17.1943 12.4176 17.2452 12.3856C17.2473 12.777 17.5869 12.7612 17.9126 12.7668L17.9177 12.7663ZM18.5729 12.5573L18.599 12.5703L18.6203 12.5887L18.6055 12.6329L18.6207 12.5938C18.6449 12.5387 18.6289 12.5249 18.5753 12.5546C18.5623 12.3485 18.4112 12.3132 18.1717 12.3964L18.1869 12.3572L18.1644 12.3995C18.1383 12.5053 18.0608 12.676 18.2096 12.5953C18.3878 12.5021 18.4118 12.6416 18.5753 12.5546L18.5729 12.5573ZM17.6813 13.5365L17.6707 13.5273L17.6478 13.5646L17.6813 13.5365ZM17.8185 13.9494L17.7981 13.9461L17.7973 13.974L17.8185 13.9494ZM18.2721 13.6234L18.2423 13.631C18.2038 13.6595 18.207 13.591 18.1492 13.6742L18.2379 13.6415L18.2745 13.6207L18.2721 13.6234ZM18.731 13.3399C18.9127 13.1024 18.6927 13.1739 18.6078 13.1481C18.5176 13.1178 18.4029 13.0996 18.653 12.826L18.6892 12.8002L18.6598 12.8128C18.3428 13.0667 18.2636 12.8511 17.9841 13.0185C18.2087 13.0603 18.2091 13.3458 18.4311 13.3853C18.5177 13.3982 18.5401 13.5934 18.7313 13.345L18.731 13.3399ZM19.0354 13.1275C19.2231 12.7859 19.0216 12.8305 18.9057 12.7922C18.8602 12.9906 19.0644 12.9482 19.0354 13.1275ZM18.7831 13.5655C18.7831 13.5655 18.8033 13.5259 18.8026 13.5158C18.802 13.5058 18.7846 13.5098 18.7746 13.5106C18.7605 13.527 18.7393 13.5515 18.7349 13.5619C18.718 13.6139 18.7381 13.6122 18.7804 13.5632L18.7831 13.5655ZM19.3424 13.0361C19.3424 13.0361 19.3247 13.035 19.3176 13.0432C19.2891 13.0709 19.2579 13.0962 19.2294 13.1239L19.1955 13.1469L19.2277 13.1367L19.3451 13.0384L19.3424 13.0361ZM19.2784 14.2163L19.2665 14.149C19.3318 14.0248 19.4072 13.8998 19.5129 13.7772C19.3043 13.7492 19.096 13.7262 18.8188 13.6913C18.9283 13.9475 19.0348 14.1154 19.2642 14.1518C19.2658 14.1769 19.1959 14.2686 19.281 14.2186L19.2784 14.2163ZM20.8809 13.7081L20.9013 13.7115L20.9021 13.6836L20.8809 13.7081ZM20.3292 14.0398C20.3292 14.0398 20.375 14.0461 20.3992 14.0289C20.4404 14.0027 20.4532 13.9663 20.4278 13.9634C20.4074 13.96 20.3823 13.9621 20.3555 13.977C20.3237 13.9923 20.3156 14.0233 20.3319 14.0421L20.3292 14.0398ZM19.9295 13.7423C19.9071 13.9463 20.0896 13.8805 20.2586 13.8411C20.1764 13.8177 20.1513 13.7389 20.1379 13.6466C20.1257 13.5743 20.0248 13.6535 19.9318 13.7396L19.9295 13.7423ZM20.3823 14.48L20.3478 14.493C20.1511 14.2948 19.8191 14.2695 19.5285 14.1423C19.3849 14.5838 19.7032 14.5117 19.7537 14.7121C19.8043 14.9125 20.0233 14.8259 20.3435 14.5035L20.3797 14.4777L20.3823 14.48ZM27.0276 19.4691L27.0268 19.497L27.0503 19.4698L27.0276 19.4691ZM26.2726 20.2145C26.3025 20.2499 26.2926 20.3316 26.3884 20.2907C26.3936 20.2145 26.3516 20.1877 26.2726 20.2145ZM26.5743 19.1635L26.5491 19.2035L26.5853 19.1777L26.5747 19.1685L26.5743 19.1635ZM25.8036 19.5817C25.8036 19.5817 25.7941 19.6305 25.8048 19.6398C25.8181 19.6513 25.8432 19.6492 25.866 19.6498C25.867 19.627 25.8728 19.5987 25.8622 19.5895C25.8488 19.578 25.8237 19.5801 25.8033 19.5767L25.8036 19.5817ZM26.3494 18.7983L26.3554 18.813L26.3883 18.7748L26.3518 18.7956L26.3494 18.7983ZM25.2748 19.477C25.2325 19.526 25.2264 19.5492 25.2612 19.5413C25.3183 19.486 25.3877 19.4271 25.4491 19.3613C25.4797 19.3259 25.463 19.302 25.4198 19.336C25.3718 19.3754 25.3221 19.4275 25.2748 19.477ZM25.8955 18.283C25.943 18.3953 25.9698 18.4612 26.0813 18.4292C26.087 18.32 26.0061 18.3167 25.8955 18.283ZM25.2939 18.5431L25.2905 18.5687L25.3116 18.5441L25.2939 18.5431ZM24.7325 18.9994L24.7619 18.9868C24.8931 18.986 25.0215 18.9828 25.2333 18.9802C25.1066 18.8519 24.9936 18.8209 24.7663 18.9764L24.7325 18.9994ZM25.6829 17.5151L25.6968 17.5746L25.7593 17.5668C25.7593 17.5668 25.7562 17.5165 25.7455 17.5073C25.7348 17.4981 25.7053 17.5107 25.6853 17.5124L25.6829 17.5151ZM25.3048 17.5594L25.3014 17.5849L25.3225 17.5604L25.3048 17.5594ZM24.7409 17.2201C24.7234 17.262 24.7414 17.268 24.7803 17.2446C24.7944 17.2282 24.8132 17.2064 24.82 17.1932C24.8375 17.1513 24.8218 17.1426 24.7806 17.1687C24.7685 17.1773 24.7477 17.2069 24.7383 17.2178L24.7409 17.2201ZM24.4213 17.4717L24.3985 17.509L24.432 17.4809L24.4213 17.4717ZM23.9282 17.6924C23.8765 17.7523 23.8596 17.8042 23.8692 17.8363C23.908 17.8507 23.9616 17.8209 24.0113 17.7688C24.0754 17.7053 24.0799 17.6569 24.0559 17.6362C24.0319 17.6155 23.987 17.6243 23.9286 17.6974L23.9282 17.6924ZM24.3703 16.8241L24.3397 16.8595L24.3762 16.8388L24.3703 16.8241ZM24.038 17.0743L24.0584 17.0776L24.0591 17.0498L24.038 17.0743ZM24.2157 16.4152L24.2173 16.4403L24.2385 16.4158L24.2157 16.4152ZM24.1773 16.2062L24.1977 16.2095L24.1984 16.1816L24.1773 16.2062ZM23.3888 17.0604C23.3888 17.0604 23.4474 17.0303 23.4765 17.0127C23.4826 16.9894 23.5028 16.9498 23.4948 16.9429C23.4815 16.9314 23.4487 16.9316 23.4272 16.9511C23.3555 17.0127 23.353 17.0533 23.3911 17.0577L23.3888 17.0604ZM23.2202 16.9482L23.2406 16.9516L23.2413 16.9237L23.2202 16.9482ZM23.7208 15.7694C23.7208 15.7694 23.7076 15.8008 23.7106 15.8081C23.7112 15.8182 23.7196 15.8301 23.7293 15.8243C23.7638 15.8113 23.7749 15.7876 23.7535 15.7692C23.7482 15.7646 23.7308 15.7686 23.7208 15.7694ZM22.7122 16.8139L22.7417 16.8014L22.7755 16.7783L22.7457 16.7859L22.7119 16.8089L22.7122 16.8139ZM23.5682 15.671L23.5933 15.6689L23.5917 15.6438L23.5706 15.6683L23.5682 15.671ZM22.7651 16.3749C22.7651 16.3749 22.7879 16.3756 22.7979 16.3747C22.8047 16.3615 22.8111 16.3433 22.8107 16.3383C22.8101 16.3282 22.8018 16.3163 22.7921 16.3222C22.7576 16.3351 22.7465 16.3588 22.7678 16.3772L22.7651 16.3749ZM23.3144 15.2476L23.3324 15.2537L23.3382 15.2254L23.317 15.2499L23.3144 15.2476ZM21.9818 15.4375L21.976 15.4658L21.9972 15.4413L21.9794 15.4403L21.9818 15.4375ZM22.0975 14.8341L22.0746 14.8714L22.1082 14.8433L22.0975 14.8341ZM21.2754 15.1177C21.3105 15.1148 21.3416 15.1273 21.3831 15.1062C21.4223 15.0877 21.4492 15.0349 21.4171 15.0452C21.3773 15.0536 21.3243 15.0934 21.2754 15.1177ZM20.9794 14.5867C20.9937 14.6133 21.0056 14.6426 21.027 14.661C21.0457 14.6771 21.0819 14.6514 21.0906 14.6304C21.1445 14.5249 21.1067 14.5255 21.0622 14.5393C21.0374 14.5465 21.0062 14.5718 20.977 14.5894L20.9794 14.5867ZM20.8099 14.4594C20.7622 14.5038 20.7538 14.5298 20.7913 14.5241C20.8013 14.5233 20.8251 14.5011 20.8396 14.4898C20.8413 14.477 20.8524 14.4533 20.8497 14.451C20.8444 14.4464 20.8243 14.4481 20.8126 14.4617L20.8099 14.4594ZM19.9802 15.7391C20.0549 15.604 19.9508 15.6329 19.8617 15.6606L19.8255 15.6863L19.855 15.6738C19.8597 15.7492 19.7972 15.8378 19.7049 15.9339C19.6929 15.9425 19.6755 15.9465 19.6684 15.9547C19.6473 15.9792 19.6338 16.0056 19.6153 16.0324L19.5426 16.1597L19.6351 16.0257C19.6482 15.9942 19.6717 15.967 19.7009 15.9494C19.7974 15.8807 19.9122 15.861 19.9799 15.734L19.9802 15.7391ZM20.266 15.9097L20.2637 15.8745C20.2637 15.8745 20.2454 15.8634 20.2357 15.8693C20.2045 15.8946 20.2034 15.9174 20.2288 15.9204C20.2365 15.9222 20.2509 15.9109 20.2633 15.9074L20.266 15.9097ZM20.2798 16.4871C20.3168 16.4334 20.3041 16.432 20.252 16.4869C20.2403 16.5005 20.2238 16.5196 20.2148 16.5355C20.2224 16.5374 20.2278 16.542 20.2375 16.5361C20.2516 16.5198 20.2707 16.503 20.2798 16.4871ZM21.0173 17.019L20.9805 17.0348C20.9406 17.0431 20.9052 17.0411 20.864 17.0672C20.8324 17.0876 20.8088 17.1527 20.8359 17.1429C20.8728 17.1271 20.9302 17.0769 20.9784 17.0425L21.015 17.0218L21.0173 17.019ZM21.8887 17.6333C21.8887 17.6333 21.8874 17.6132 21.8868 17.6031C21.872 17.6094 21.8523 17.6161 21.8429 17.627C21.8029 17.6733 21.8015 17.6911 21.8457 17.6722C21.8555 17.6664 21.8793 17.6442 21.8884 17.6282L21.8887 17.6333ZM21.9893 18.5849L21.8488 18.5967L21.8149 18.6197L21.8447 18.6122C21.8447 18.6122 21.8651 18.6155 21.8798 18.6092C21.9264 18.5876 21.9 18.6884 21.9893 18.5849ZM22.3028 19.2736C22.4062 19.1538 22.3812 19.118 22.3542 19.0899C22.3382 19.0761 22.3079 19.0357 22.2611 19.1331C22.2254 19.2068 22.0607 19.3545 22.1691 19.353C22.1968 19.3532 22.2639 19.2971 22.3028 19.2736ZM22.902 18.6171L22.8156 18.6471L22.7767 18.6705L22.8112 18.6575C22.8474 18.6318 22.8395 18.7057 22.902 18.6171ZM23.1672 19.8581L23.168 19.8303L23.1469 19.8548L23.1672 19.8581ZM23.4656 20.2677L23.4738 20.2367C23.4597 20.253 23.4375 20.2625 23.4258 20.2761C23.3788 20.3305 23.3774 20.3483 23.421 20.3194C23.4354 20.3081 23.4492 20.2868 23.4656 20.2677ZM24.6292 20.9155L24.6112 20.9095L24.6078 20.935L24.6289 20.9105L24.6292 20.9155ZM25.3694 20.5327C25.4748 20.3243 25.3192 20.3373 25.4412 20.1528C25.4774 20.127 25.5188 20.1437 25.5465 20.0631L25.4453 20.1373C25.4054 19.9461 25.1644 20.0041 25.0285 19.9296C24.9056 19.8616 24.7928 19.8736 25.0783 19.5212C25.1814 19.3964 25.1656 19.3067 24.9824 19.4812C24.9324 19.5284 24.8452 19.6241 24.8476 19.5835C24.8556 19.31 24.4693 19.504 24.4516 19.2655C24.4786 19.0939 24.3848 19.0462 24.2479 19.0754C24.1009 19.1054 24.4962 18.615 24.1338 18.8676C24.0493 18.9278 24.1248 18.7648 24.2067 18.6645C24.3454 18.5038 24.522 18.5042 24.6499 18.2534C24.5125 18.2346 24.509 17.9797 24.1411 18.3845C24.1483 18.4192 24.165 18.4431 24.1551 18.4869C24.1476 18.5279 24.1079 18.6172 24.0814 18.6371C23.9781 18.719 23.9937 18.6469 24.017 18.5768C24.0339 18.5248 24.0632 18.4693 24.0875 18.4142C24.0768 18.405 24.0661 18.3958 24.0554 18.3866C24.0407 18.3929 24.0236 18.4019 24.0112 18.4055C24.0112 18.4055 24.0194 18.3745 24.0217 18.3717C24.0385 18.3577 24.0556 18.3487 24.0726 18.3397C24.085 18.1365 23.7348 18.5423 23.6999 18.3886C23.6306 18.0912 23.2244 18.1303 23.3638 17.6234C23.3845 17.5509 23.3086 17.5472 23.2272 17.5767L23.2067 17.6922C23.1119 17.7481 23.164 17.6553 23.1689 17.6119C22.8772 17.5075 22.7218 17.2451 22.4748 17.089C22.4615 17.0775 22.4246 17.0932 22.3995 17.0953C22.4669 16.9633 22.5436 16.8205 22.4825 16.7725C22.31 16.6379 22.3077 16.6406 22.6043 16.2646C22.5254 16.2535 22.3871 16.3813 22.2935 16.3765C21.8741 16.3662 21.6212 16.1575 21.4627 15.8448C21.4221 15.7623 21.4386 15.6245 21.6143 15.4102C21.6989 15.3122 21.7578 15.2062 21.6648 15.2114C21.6045 15.2165 21.5644 15.2198 21.4582 15.3753C21.2693 15.6589 21.1705 15.5737 21.1215 15.5172C21.0672 15.456 21.1792 15.2723 21.2677 15.1158C21.2374 15.0754 21.3039 14.8905 21.1395 15.0432C20.8278 15.3396 20.7779 15.2301 20.7396 15.102C20.6724 14.8777 20.4625 14.8296 20.2825 14.736C20.0806 15.0131 20.0739 15.1072 20.1955 15.1551C20.4544 15.2597 20.7365 15.3321 20.7959 15.6733C20.8208 15.8278 20.9084 15.9367 21.0713 15.9584C21.2772 15.9841 21.2608 16.0032 21.2434 16.4064C21.2402 16.4749 21.3017 16.4899 21.3965 16.434C21.5279 16.3573 21.6852 16.3315 21.6283 16.4297C21.4039 16.83 21.723 16.6492 21.7939 16.7342C21.9465 16.9134 22.3121 16.8298 22.3945 17.0957C22.3454 17.2767 22.4601 17.2949 22.5224 17.3629C22.6198 17.4659 22.7171 17.5689 22.7339 17.7545C22.7463 17.7509 22.7634 17.7419 22.7711 17.7438C22.7711 17.7438 22.765 17.767 22.7603 17.7725C22.7485 17.7861 22.7314 17.7951 22.7167 17.8014C22.8217 17.9063 23.0013 17.914 23.0855 18.0484C23.3045 18.399 23.5519 18.7218 23.7924 19.0529C23.859 19.1484 23.9953 19.19 23.9921 19.3393C23.9932 19.4352 23.9286 19.5316 24.0935 19.4268C24.2125 19.3537 24.3166 19.3248 24.4272 19.2776C24.3553 19.3771 24.2934 19.4758 24.329 19.5208C24.4206 19.6521 24.4199 19.8795 24.6393 19.8789C24.7503 19.8797 24.863 19.9056 24.7394 20.1458L24.7056 20.1689L24.7354 20.1614C24.824 20.1666 24.9408 20.1391 24.867 20.3272C24.8278 20.4265 24.8462 20.5563 24.9112 20.5079C25.2035 20.304 25.2301 20.4837 25.3617 20.5308L25.3694 20.5327ZM25.9229 20.0316C25.9716 19.9643 26.0649 19.8833 26.0148 19.8496C26.0015 19.838 25.9664 19.841 25.9399 19.8609C25.8463 19.9369 25.8672 19.9882 25.8433 20.0484C25.8109 20.1344 25.8679 20.0791 25.9203 20.0293L25.9229 20.0316ZM25.0592 21.1726C25.0804 21.1481 25.0959 21.114 25.1117 21.0848C25.0628 21.1092 25.0159 21.1257 24.9649 21.1578C24.9261 21.1812 24.9103 21.2104 24.9293 21.2315C24.9556 21.2495 25.0025 21.2329 25.0592 21.1726ZM26.8998 19.3636C26.8714 19.2725 26.8412 19.1942 26.6674 19.2391C26.7058 19.3672 26.8035 19.3565 26.8998 19.3636ZM25.7952 21.2423C25.9368 21.0082 25.8521 20.9445 26.0111 20.7872C26.0893 20.7074 26.1211 20.6112 26.0289 20.6695C25.7933 20.813 25.7467 20.635 25.3703 20.8661C25.6197 20.9008 25.7848 20.9577 25.7952 21.2423ZM27.4013 19.4353L27.3968 19.4029C27.3968 19.4029 27.3623 19.4158 27.3529 19.4267C27.3058 19.4812 27.3068 19.4963 27.3534 19.4747C27.3681 19.4684 27.3846 19.4494 27.4013 19.4353ZM26.0869 21.1472L26.1121 21.1072L26.0762 21.138L26.0869 21.1472ZM26.7225 20.5078C26.7225 20.5078 26.738 20.4737 26.7353 20.4714C26.73 20.4668 26.7102 20.4735 26.6958 20.4848C26.6502 20.5214 26.6441 20.5447 26.6792 20.5417C26.6893 20.5409 26.7081 20.5191 26.7252 20.5101L26.7225 20.5078ZM26.5052 20.9808L26.4848 20.9774L26.479 21.0057L26.5002 20.9812L26.5052 20.9808ZM27.6097 20.0571C27.6133 20.1932 27.7091 20.1523 27.9218 19.9652L27.5722 19.6635C27.5988 19.6057 27.5804 19.5946 27.5339 19.6162L27.4926 19.6424L27.5295 19.6267L27.5508 19.6451L27.5722 19.6635C27.5855 19.7938 27.6061 19.9209 27.6097 20.0571ZM27.031 20.7978C27.031 20.7978 26.9981 20.8359 26.996 20.8437C26.9967 20.8537 27.0117 20.8525 27.0218 20.8516C27.0385 20.8376 27.0653 20.8227 27.0697 20.8122C27.0923 20.7699 27.0766 20.7611 27.031 20.7978ZM26.68 21.6306C26.6625 21.4729 26.4285 21.5228 26.7133 21.1604C26.4851 21.3008 26.4196 21.5008 26.302 21.637C26.0794 21.7062 26.4263 21.3689 26.3217 21.3498C26.0627 21.6015 26.1075 21.7114 26.1557 21.7958C26.2319 21.9233 26.4343 21.8129 26.68 21.6306ZM26.1304 22.2729C26.0966 22.258 26.0423 22.3156 25.994 22.35C25.9457 22.3843 25.9087 22.438 25.9288 22.4363C25.9616 22.4361 26.0172 22.3986 26.0655 22.3642C26.1091 22.3353 26.132 22.298 26.1327 22.2702L26.1304 22.2729ZM26.8271 21.7623C26.8527 21.7273 26.8826 21.6818 26.8837 21.659C26.8899 21.5979 26.8305 21.6559 26.7849 21.6926C26.7275 21.7428 26.7003 21.7906 26.7125 21.8249C26.7362 21.8406 26.769 21.8404 26.8248 21.765L26.8271 21.7623ZM27.924 20.7179C27.924 20.7179 27.9442 20.6784 27.9388 20.6737C27.9249 20.6522 27.8984 20.6721 27.8788 20.7217C27.8721 20.7349 27.8801 20.7418 27.8807 20.7519C27.8925 20.7383 27.9119 20.7265 27.9213 20.7156L27.924 20.7179ZM26.6792 22.9318C26.6873 22.9008 26.7122 22.8558 26.7062 22.8411C26.6973 22.8191 26.654 22.8531 26.6294 22.9031C26.6112 22.935 26.5964 22.9792 26.6024 22.9938C26.6137 23.0131 26.6496 22.9823 26.6818 22.9341L26.6792 22.9318ZM27.1992 22.34C27.3001 22.18 27.2265 22.1735 27.163 22.1662C27.1172 22.1599 27.0383 22.2297 26.9666 22.2913C26.8829 22.2048 27.0095 22.0527 27.1729 21.8849L27.2095 21.8642L27.175 21.8772C27.0141 21.9664 26.8583 22.0553 26.6877 22.1504C26.5928 22.4438 26.7914 22.3539 26.9619 22.2967C26.9997 22.2961 27.0442 22.2822 27.0655 22.3007C27.0999 22.3256 26.9843 22.4919 27.1019 22.4366C27.1264 22.4244 27.176 22.3723 27.1969 22.3427L27.1992 22.34ZM28.0345 20.8704L28.0651 20.835L28.0262 20.8584L28.0369 20.8677L28.0345 20.8704ZM27.8665 21.6424L27.8323 21.6604L27.7469 21.5867C27.7724 21.5517 27.7929 21.5172 27.8161 21.4849C27.8232 21.4768 27.8149 21.4648 27.8149 21.4648C27.7548 21.5128 27.7574 21.553 27.7398 21.5949C27.6916 21.7101 27.7378 21.7214 27.8306 21.6732L27.8691 21.6447L27.8665 21.6424ZM28.5748 20.9565C28.6789 20.5284 28.4488 20.5199 28.2707 20.4565C28.2765 20.4282 28.2893 20.3917 28.2854 20.3693C28.2811 20.3419 28.288 20.2908 28.2162 20.3524C28.2225 20.3721 28.2264 20.3945 28.2327 20.4142C28.2414 20.4311 28.2523 20.4454 28.261 20.4623C28.1584 20.8347 28.4805 20.7421 28.5721 20.9542L28.5748 20.9565ZM27.4596 22.3889C27.4596 22.3889 27.4369 22.3883 27.4268 22.3892C27.4201 22.4024 27.4113 22.4233 27.4143 22.4306C27.415 22.4407 27.4233 22.4526 27.4357 22.4491C27.4749 22.4306 27.486 22.4069 27.4646 22.3885L27.4596 22.3889ZM28.6621 21.26L28.7434 21.0687C28.7716 21.036 28.7998 21.0034 28.828 20.9707L28.8642 20.9449L28.832 20.9552C28.832 20.9552 28.7979 20.9732 28.7908 20.9814C28.7673 21.0086 28.7515 21.0377 28.7333 21.0696C28.7144 21.1293 28.5688 21.2602 28.6645 21.2572L28.6621 21.26ZM27.6103 22.538L27.5852 22.5401L27.5845 22.568L27.6103 22.538ZM28.3147 21.7489L28.3349 21.7093C28.3326 21.6741 28.3398 21.628 28.3262 21.6115C28.3101 21.5977 28.2531 21.653 28.2594 21.6727C28.2663 21.7024 28.3018 21.7045 28.3252 21.7151L28.317 21.7461L28.3147 21.7489ZM27.3708 22.8587L27.396 22.8187L27.3601 22.8495L27.3708 22.8587ZM30.5291 23.7741C30.8282 23.6758 31.0102 23.562 31.2178 23.5749C31.3369 23.5826 31.449 23.4798 31.4176 23.3434C31.3896 23.2195 31.2699 23.2017 31.15 23.2597C30.9416 23.3555 30.7229 23.4471 30.5291 23.7741ZM30.3335 23.9522L30.3438 23.9943L30.3703 23.9743L30.3362 23.9545L30.3335 23.9522ZM30.4676 23.0415C30.46 23.1205 30.5618 23.0943 30.6168 23.0467C30.6836 22.9855 30.7654 22.9231 30.7436 22.8188C30.7032 22.8171 30.649 22.7989 30.6302 22.8207C30.5665 22.8892 30.4759 22.9726 30.4703 23.0438L30.4676 23.0415ZM30.0586 22.717C30.0966 22.7593 30.1314 22.7513 30.163 22.6931L30.2606 22.5207C30.2204 22.5241 30.1723 22.5205 30.1408 22.5408C30.0855 22.5834 30.0388 22.6429 30.0586 22.717ZM28.8763 23.2885L28.8915 23.3301L28.9198 23.2975L28.8763 23.2885ZM29.4096 22.5465C29.4096 22.5465 29.4098 22.5894 29.4181 22.6014C29.4267 22.6183 29.4474 22.6267 29.4631 22.6355C29.4685 22.6401 29.4873 22.6183 29.4967 22.6074L29.4069 22.5442L29.4096 22.5465ZM29.4396 21.7456L29.4717 21.7353L29.5638 21.715L29.4761 21.7249L29.4399 21.7506L29.4396 21.7456ZM29.2835 22.029L29.2623 22.0535L29.28 22.0546L29.2858 22.0263L29.2835 22.029ZM29.1101 21.7606C29.0584 21.8205 29.0341 21.8756 29.1024 21.8395C29.139 21.8188 29.1927 21.7511 29.2324 21.6998C29.2465 21.6835 29.2395 21.6537 29.2426 21.6232C29.1953 21.6726 29.15 21.7143 29.1101 21.7606ZM28.9715 21.1658L28.9511 21.1625L28.9453 21.1908L28.9688 21.1635L28.9715 21.1658ZM27.7034 22.7323C27.7124 22.7164 27.7309 22.6896 27.7279 22.6823C27.7237 22.6548 27.6942 22.6674 27.6566 22.711C27.6448 22.7246 27.629 22.7537 27.632 22.7611C27.6363 22.7885 27.6658 22.7759 27.706 22.7346L27.7034 22.7323ZM27.8587 22.7951L27.8645 22.7668L27.841 22.7941L27.8587 22.7951ZM28.6382 21.9188C28.6382 21.9188 28.6412 21.8453 28.6204 21.837C28.5971 21.8263 28.5458 21.8533 28.5036 21.8644L28.2652 22.0436L28.2267 22.0721L28.2608 22.054L28.3062 22.0932L28.291 22.1324L28.3136 22.09L28.4969 21.8776C28.5129 21.8914 28.5215 21.9084 28.5396 21.9145C28.568 21.9247 28.5271 22.0368 28.6335 21.9243L28.6382 21.9188ZM29.1631 21.4024L29.1262 21.4182L29.0874 21.4416L29.1242 21.4259L29.1607 21.4052L29.1631 21.4024ZM28.4342 24.2754L28.419 24.2338L28.3955 24.261L28.4342 24.2754ZM28.6019 24.0542L28.6301 24.0216L28.5913 24.0071L28.6042 24.0515L28.6019 24.0542ZM29.5199 24.2098C29.5482 24.1392 29.5204 24.0582 29.4448 24.0594C28.9992 24.074 28.8415 23.6956 28.7448 23.4031C28.7289 23.3513 28.7083 23.3051 28.6854 23.2615C28.6651 23.2203 28.6348 23.1798 28.6315 23.1675C28.6142 23.1336 28.5852 23.1133 28.5468 23.1038C28.4726 23.0873 28.3661 23.119 28.2405 23.1674C28.201 23.1808 28.2089 23.1069 28.1586 23.149L28.1506 23.1421C28.2066 22.9908 28.2286 22.8197 28.4397 22.8071L28.4245 22.8463L28.4444 22.8017C28.5572 22.6709 28.6497 22.6177 28.7262 22.6315C28.744 22.6326 28.7798 22.7205 28.8372 22.5515C28.897 22.3797 28.6858 22.3115 28.5934 22.4456C28.3053 22.8765 28.1253 22.7829 27.8363 22.9991C27.9108 23.0207 27.9897 23.0317 28.1368 23.1634C28.1298 23.1716 28.1203 23.1825 28.1086 23.1961C28.0202 23.3147 28.0314 23.3719 28.1091 23.3628C28.2797 23.3485 28.3678 23.4245 28.2685 23.2914C28.3065 23.3337 28.3448 23.381 28.3935 23.4325C28.4935 23.5378 28.6095 23.6569 28.7389 23.7876C28.8803 23.9096 29.0814 24.0974 29.2966 24.2689C29.3633 24.3265 29.4667 24.3254 29.5169 24.2025L29.5199 24.2098ZM30.1264 23.2697L30.1185 23.2249L30.1113 23.2709C30.0686 23.4337 29.9934 23.5208 29.8254 23.4566C29.7272 23.4193 29.6269 23.3898 29.5267 23.3603C29.5265 23.3174 29.5336 23.2713 29.5214 23.237C29.5005 23.1857 29.4766 23.127 29.3952 23.1566L29.4547 23.2602L29.5069 23.367C29.442 23.4584 29.3114 23.6259 29.3194 23.6329C29.5169 23.8033 29.7776 23.8572 30.0399 23.7367C30.2777 23.6284 30.1871 23.4313 30.1264 23.2697ZM30.1129 24.9307C30.0864 24.5514 29.8985 24.5318 29.6593 24.5392C29.6516 24.8556 29.8757 24.8495 30.1129 24.9307ZM30.5478 25.2252L30.5211 25.2022L30.5063 25.2464L30.5478 25.2252ZM30.8813 24.9143C30.8561 24.4364 30.4854 24.4776 30.1466 24.4655C30.4067 24.5903 30.6504 24.7341 30.8813 24.9143ZM31.3301 24.4321C31.3392 24.4162 31.3583 24.3994 31.3597 24.3816C31.3656 24.3154 31.3396 24.3025 31.2919 24.3469C31.2825 24.3578 31.2794 24.3883 31.2854 24.403C31.2914 24.4177 31.3144 24.4233 31.3301 24.4321ZM30.4188 25.8171L30.2757 25.7887L30.2285 25.8002L30.2767 25.8038L30.4211 25.8144L30.4188 25.8171ZM32.2652 24.1795C32.2066 24.0909 32.1127 24.1619 32.0344 24.1609L31.8447 24.1919C31.8106 24.1721 31.7786 24.1444 31.754 24.1136L31.7481 24.0611L31.7466 24.1168C31.7434 24.1853 31.7754 24.2129 31.8453 24.202L32.033 24.1787C32.0969 24.191 32.156 24.2088 32.2196 24.2161C32.2323 24.2176 32.2652 24.1795 32.2625 24.1772L32.2652 24.1795ZM32.3689 24.7822C32.472 24.7761 32.5988 24.7478 32.7023 24.6279C32.7234 24.6034 32.721 24.5253 32.7023 24.5092C32.5858 24.4229 32.4519 24.4594 32.3399 24.5623C32.2825 24.6126 32.3027 24.6917 32.3716 24.7845L32.3689 24.7822ZM31.3348 25.9804C31.3385 25.9599 31.3543 25.9308 31.3484 25.9161C31.3224 25.8653 31.2876 25.8732 31.266 25.9306C31.262 25.9461 31.2713 25.9731 31.2846 25.9846C31.2926 25.9916 31.3197 25.9817 31.3371 25.9777L31.3348 25.9804ZM32.2056 25.2304L32.2591 25.1198C32.1802 25.1087 32.101 25.0926 32.0174 25.087C32.0124 25.0874 31.9676 25.1771 31.9789 25.1963C32.0271 25.2807 32.1145 25.2658 32.2056 25.2304ZM31.8976 25.9055L31.8562 25.8888L31.8665 25.9309L31.8976 25.9055ZM32.9092 25.1867C32.9428 25.2394 33.0304 25.2296 33.0561 25.1567C33.073 25.1047 33.0361 25.0396 33.0225 24.9851C32.9777 24.994 32.9151 25.0017 32.9131 25.0095C32.9018 25.071 32.8839 25.1458 32.9092 25.1867ZM32.5072 25.7711C32.4993 25.7263 32.6125 25.6814 32.5264 25.6356L32.4972 25.7719C32.4793 25.8088 32.4588 25.8434 32.441 25.8802C32.4339 25.8884 32.4476 25.9049 32.4509 25.9173C32.5192 25.8813 32.503 25.8245 32.5072 25.7711ZM33.3605 25.4621C33.3605 25.4621 33.3479 25.4228 33.3416 25.4031C33.3242 25.4071 33.2961 25.4018 33.2894 25.415C33.2753 25.4314 33.2648 25.4651 33.2758 25.4793C33.3017 25.5302 33.3366 25.5223 33.3605 25.4621ZM33.6623 26.0457L33.6615 25.9928L33.6607 25.9398L33.6565 25.9932L33.6623 26.0457ZM34.0806 26.3164L34.0662 26.209L33.9575 26.2055C33.96 26.2457 33.9435 26.3026 33.9648 26.3211C33.9862 26.3395 34.0404 26.3198 34.0782 26.3191L34.0806 26.3164ZM34.6209 26.8826L34.6228 26.8319L34.6772 26.6555L34.5671 26.6698L34.6151 26.83L34.6209 26.8826ZM34.8531 27.2017C34.893 27.1554 34.9612 27.0764 34.9492 27.0471C34.922 26.9761 34.852 27.0249 34.8302 27.0394C34.7443 27.1173 34.7103 27.1783 34.7492 27.2356C34.7576 27.2476 34.8295 27.2289 34.8531 27.2017Z" fill="#EE0061"/>
<path d="M31.9754 28.613C31.8128 28.5297 31.656 28.501 31.386 28.6302C31.6705 28.6905 31.8273 28.6963 31.9754 28.613Z" fill="#EE0061"/>
<path d="M33.5171 27.4414C33.5171 27.4414 33.4997 27.4155 33.491 27.4155C33.4823 27.4155 33.4707 27.427 33.459 27.4328L33.4852 27.4615L33.5171 27.4414Z" fill="#EE0061"/>
<path d="M18.3264 29.0093C18.3264 29.0093 18.3206 29.0351 18.3206 29.0495L18.3351 29.0639L18.3409 29.0208C18.3409 29.0208 18.3293 29.0035 18.3264 29.0093Z" fill="#EE0061"/>
<path d="M12.9551 27.8003L12.9754 27.809L12.9957 27.8032C12.9986 27.7688 12.9986 27.7314 12.9957 27.697C12.9696 27.7027 12.9551 27.7372 12.9521 27.8003H12.9551Z" fill="#EE0061"/>
</g>
<defs>
<clipPath id="clip0_236_1342">
<rect width="38" height="30" fill="white"/>
</clipPath>
</defs>
</svg>
