<svg width="85" height="95" viewBox="0 0 85 95" fill="none" xmlns="http://www.w3.org/2000/svg">
<g clip-path="url(#clip0_325_2070)">
<path d="M73.2395 4.71977C73.5291 4.60939 73.8714 4.48135 74.2795 4.33124C74.0469 4.41512 73.7134 4.53433 73.2439 4.70211C73.2395 4.70652 73.2351 4.71535 73.2395 4.71977Z" fill="#5938E0"/>
<path d="M80.2519 2.79919L79.7209 3.01553C79.5541 3.08175 79.4137 2.88749 79.2645 2.98904C79.1285 3.05085 78.9837 3.10383 78.8476 3.17889C78.773 3.21862 78.7511 3.30693 78.7774 3.40847C78.8038 3.49678 78.8696 3.52327 78.9354 3.51885C79.1109 3.51885 79.2996 3.54534 79.4049 3.35108C79.4708 3.23187 79.5234 3.20979 79.6112 3.32017C79.6682 3.39081 79.7341 3.41289 79.7823 3.35991C79.9535 3.1833 80.1861 3.13915 80.3791 3.01111C80.4362 2.97579 80.4713 2.8919 80.4318 2.81685C80.3879 2.73738 80.3221 2.77711 80.2606 2.8036L80.2519 2.79919Z" fill="#5938E0"/>
<path d="M81.112 1.88083C81.112 1.98238 81.0286 1.96472 80.9759 1.99121L80.9057 2.0177C80.8618 2.15015 80.7829 2.18547 80.6688 2.13249L80.6424 2.11483L80.6644 2.13691C80.6775 2.21638 80.6819 2.30027 80.6117 2.32676C80.1641 2.49012 79.7341 2.69321 79.2426 2.66231C79.1768 2.66231 79.1504 2.61374 79.1548 2.54751C79.1548 2.51661 79.2294 2.53427 79.1943 2.47687L79.146 2.53868C79.0671 2.60932 78.9574 2.65789 78.9222 2.75061C78.852 2.93604 78.8125 3.03318 78.6941 2.76827L78.5624 2.84333C78.5712 2.92721 78.5975 3.02876 78.4746 3.01551C78.4352 3.01551 78.4 2.96695 78.4088 2.92721C78.4264 2.84333 78.5054 2.85657 78.5624 2.84333C78.3167 2.75502 78.128 2.808 78.049 3.00227C78.0183 3.08174 77.97 3.17004 77.9744 3.25393C78.0095 3.74401 77.7155 3.90295 77.4303 4.08397C77.3469 4.13695 77.2854 4.08397 77.2108 4.06631C77.1055 4.03982 77.009 4.00009 77.0353 4.20318C77.0441 4.27382 76.9563 4.26058 76.9256 4.20318C76.8686 4.10163 76.8291 3.98684 76.7589 3.83231C76.6448 4.18111 76.4253 4.30473 76.1489 4.37095C76.048 4.39303 75.9558 4.43718 75.8593 4.48575L75.7232 4.5608L75.6881 4.57847L75.6706 4.5873C75.6706 4.5873 75.6618 4.59171 75.6267 4.60496L75.302 4.71533C74.9553 4.86545 74.828 4.8522 74.6964 4.8213C74.8939 4.68443 75.0869 4.54756 74.9553 4.49458C74.5691 4.6756 74.8149 4.70209 74.6657 4.82571C74.1259 5.08179 73.4896 5.27605 73.0069 5.55862C72.8182 5.669 72.6295 5.77055 72.4452 5.86768C72.2609 5.96923 72.081 6.0796 71.8967 6.16349C71.5281 6.3401 71.1551 6.46813 70.7558 6.5167C70.7206 6.5167 70.5056 6.66681 70.374 6.74629C70.5539 6.68006 70.7996 6.56085 70.7645 6.67564C70.7601 6.68889 70.7163 6.72863 70.6768 6.7507C70.3828 6.91406 70.3828 6.82576 70.295 6.81693C69.4525 6.96704 68.8425 7.44387 68.2896 7.94278C68.0394 8.16795 67.7981 8.38871 67.6621 8.24301L67.899 8.01342C67.899 7.9781 68.1184 7.8324 67.9341 7.88539L67.8595 8.02225L67.6313 8.25184C67.3022 8.45935 66.9775 8.68011 66.6747 8.92735C66.3675 9.17018 66.0428 9.38652 65.6522 9.50573C65.6303 9.51456 65.4767 9.6426 65.4284 9.7C65.1739 10.0046 64.8492 10.2519 64.4938 10.4815C64.1427 10.7111 63.7916 10.9627 63.4494 11.2056C63.366 11.2453 63.4494 11.0952 63.2519 11.2762L63.4406 11.2188C63.4625 11.2806 63.4625 11.3733 63.2124 11.5323C62.8613 11.7574 62.5103 11.934 62.2031 12.274C61.8871 12.6051 61.6897 12.9098 61.3167 12.9628C61.1148 12.9937 60.7813 13.3999 60.5443 13.6692C60.2986 13.9518 60.0967 14.146 60.0178 14.0224L60.1933 13.7442C60.2942 13.6294 60.4259 13.497 60.4917 13.3999C60.5531 13.3071 60.4654 13.3425 60.3908 13.4352C60.2986 13.55 60.2416 13.6515 60.1713 13.7575L59.987 14.0401C59.7676 14.3535 59.614 14.6361 59.1577 15.0379C59.048 15.135 58.8724 15.2984 58.8198 15.3822C58.2712 16.305 57.4682 16.8701 56.788 17.581L56.6037 17.6781L56.7705 17.6163C56.652 18.1991 56.0727 19.0247 55.6602 19.1616C55.0591 19.3559 54.8309 19.9166 54.4666 20.6186C54.392 20.7643 54.2209 20.9674 54.0893 21.1484L54.0234 21.2146L54.0761 21.1793C54.2209 21.2014 54.0893 21.4928 53.8918 21.8416C53.5846 22.4067 53.4179 22.6054 53.3257 22.367C53.3038 22.3051 53.4135 22.0402 53.1941 22.261C53.0273 22.6937 52.8518 23.1396 52.6806 23.5855C52.5885 23.8239 52.4744 24.1065 52.3076 24.2301C51.9741 24.4686 51.8162 24.9277 51.7898 25.1706C51.6933 25.8681 51.351 26.3317 50.9692 26.8395L50.9868 26.7556L50.9561 26.8571C50.8902 27.0823 50.8244 27.3119 50.741 27.4797C50.6708 27.6518 50.5831 27.7622 50.4558 27.7402C50.4558 27.7048 50.4734 27.643 50.4646 27.643C50.4383 27.643 50.4075 27.6695 50.3768 27.6872L50.3154 27.7843L50.368 27.7137C50.3944 27.7225 50.4251 27.7313 50.4514 27.7446C50.1179 28.3185 49.8458 28.9455 49.6747 29.6166C49.6264 29.8064 49.6045 29.9742 49.5518 30.164C49.2754 31.3738 49.2447 31.4753 48.8848 31.4047C48.8673 31.4047 48.8058 31.5504 48.762 31.6387C48.6391 32.1067 48.8234 31.833 48.8629 31.8992C49.0516 32.2038 49.0384 32.4246 48.6566 33.2237C48.4197 33.8021 48.3231 34.2878 48.2529 34.8971C48.2222 35.184 48.1344 35.2282 48.073 35.2061L48.0642 35.1311V35.2282C48.0028 35.5991 47.9896 36.0052 47.8536 36.3408C47.485 37.4137 47.4411 38.4821 47.4235 39.5682C47.4235 39.6698 47.3577 39.8376 47.3226 39.9744C47.3007 39.9259 47.3182 39.6565 47.248 39.8685L47.3226 39.9833C46.9496 42.0495 46.9584 44.2703 46.7697 46.7119C46.5722 46.0496 46.4537 45.4315 46.2431 45.3697C46.2124 46.7251 46.2519 47.0033 46.5503 47.1843C46.6775 47.2594 46.7697 47.2505 46.7872 47.8598C46.8048 48.5177 46.7346 48.8753 46.5766 49.1181C46.4976 49.2418 46.3967 49.4581 46.4274 49.7451C46.5152 50.6325 46.2826 51.7363 46.4274 52.5708C46.5064 52.9902 46.4625 53.5818 46.3704 54.094C46.287 54.584 46.208 54.9108 46.2124 55.5289C46.2256 56.3104 46.0105 56.6945 45.7516 56.5708L45.7341 56.4958L45.7428 56.5885L45.7165 56.9064C45.7209 56.9505 45.7297 56.9903 45.7297 57.0344C45.7297 57.0388 45.7077 57.0874 45.699 57.1139L45.6858 56.9859C45.5191 57.6437 45.5498 57.9351 45.7297 57.7453C45.993 57.4627 45.9184 57.7982 45.778 58.3855C45.6463 58.9992 45.5059 59.6305 45.4181 60.3193L45.3742 60.6504C45.1373 60.7475 45.0363 61.3922 44.953 61.8822C44.7774 62.8094 44.5317 62.2796 44.3693 63.1229C44.2728 63.6174 44.4044 63.816 44.1719 64.5534C43.9612 65.1671 43.7067 65.7852 43.4829 66.4033C43.2416 67.0126 43.009 67.613 42.8598 68.1958C42.6448 68.9685 42.0699 68.6992 42.1357 69.6396C41.8285 70.4034 41.4336 71.1275 41.0913 71.878C40.8631 72.3328 40.6218 72.7566 40.376 73.1849C40.1347 73.6176 39.8582 74.0282 39.5511 74.4476C39.0376 75.1894 38.3882 76.0238 37.8704 76.9775C37.3131 77.9268 37.2341 77.9577 36.8435 77.9091C36.804 77.9047 36.7733 77.8914 36.6943 77.9974C36.5978 78.1343 36.4925 78.2976 36.4354 78.4124C36.2511 78.7789 35.7026 79.6663 35.4788 79.9003C35.1321 80.2623 34.8074 80.62 34.5046 80.9997C34.2018 81.375 33.8946 81.7502 33.5216 82.0814C33.2408 82.3374 32.9292 82.7569 32.8107 82.6244C32.7669 82.5759 32.6528 82.6686 32.5562 82.8143C32.2534 83.2646 31.8102 83.6885 31.3538 84.1167C30.8975 84.5494 30.384 84.9335 29.9716 85.3706C29.1948 86.1609 29.1685 85.7283 28.6682 85.9623C28.5936 86.2139 28.3918 86.4921 28.0758 86.7967C27.7555 87.0925 27.3079 87.3883 26.7725 87.6974C26.3162 87.9711 25.8773 88.2184 25.4341 88.5451C24.2361 89.4414 22.9328 90.2273 21.4935 90.7438C20.9713 91.203 20.3218 91.0043 19.6241 91.5783C19.1941 91.9271 18.1321 92.1655 17.3554 92.4922C16.8859 92.6732 16.4031 92.8542 15.9204 93.0176C15.4377 93.1854 14.9419 93.2958 14.4592 93.3929C13.6517 93.5607 13.0505 93.8609 12.287 94.0287C10.3211 94.4128 8.31564 94.8057 6.32777 94.9205C5.90211 94.9647 5.47207 94.9691 5.04641 94.9867L4.76117 94.9956H4.69096L4.54615 94.9867L3.96691 94.9691C3.58074 94.9382 3.19897 94.894 2.81719 94.8234L1.97465 94.6556C1.6938 94.5894 1.41734 94.5232 1.1365 94.4746C1.01363 94.4525 0.838098 94.4172 0.846874 94.2936C0.864427 93.9448 0.671345 94.1081 0.548475 94.1037C0.416828 94.0949 0.285181 94.1037 0.153534 94.1037C0.100875 94.1037 0.0438282 94.1037 0.0350518 94.0198C0.0262753 93.958 0.0438282 93.8653 0.0833223 93.8609C0.280793 93.8388 0.258851 93.6136 0.355393 93.4989C0.627463 93.1721 0.987298 93.128 1.3208 93.0838C1.9571 93.0132 2.59778 93.0264 3.22968 92.969C3.67728 92.9381 4.12488 92.9205 4.57248 92.8896L5.77486 92.8189L7.26247 92.66C7.75833 92.6158 8.24982 92.5143 8.7413 92.4436L9.47852 92.3244L10.207 92.1699C12.9891 91.5827 15.7449 90.788 18.3252 89.6489C20.7607 88.576 23.1435 87.3309 25.2893 85.7724C26.834 84.6686 28.3874 83.503 29.8048 82.1917C32.5431 79.6266 35.0751 76.7435 36.9971 73.5028C37.0498 73.3659 37.1244 73.2423 37.2253 73.1363C38.0766 71.7986 38.8314 70.3902 39.5379 68.9685C40.2005 67.5247 40.828 66.0678 41.2625 64.5666C41.969 62.2531 42.693 60.0544 43.009 57.6967C43.4127 54.6679 43.6102 51.5376 43.8208 48.4161C44.0797 44.4646 44.0973 40.3762 44.8959 36.3761C44.9661 35.9876 45.0539 35.5991 45.1548 35.2105L45.4357 34.0494C45.6244 33.2723 45.7823 32.4908 46.05 31.7402C46.2958 30.9853 46.5371 30.2259 46.7829 29.4753C47.0725 28.738 47.3884 28.0139 47.7 27.2898C48.6698 25.0999 49.7844 22.9718 51.0921 20.9718C51.1974 20.804 51.3027 20.6362 51.4081 20.4685L51.7591 19.9828C51.9917 19.6561 52.2243 19.3249 52.4612 18.9938L53.1633 17.996C53.3871 17.656 53.668 17.3602 53.9181 17.0423L55.2521 15.4441C55.7041 14.9187 56.2088 14.4462 56.6827 13.9429L57.4068 13.2012L57.7666 12.8303L58.1528 12.4859L59.6974 11.0996C63.3221 7.93837 67.4514 5.35994 71.9055 3.56299C72.8972 3.20095 73.8802 2.79476 74.8851 2.47687L75.6486 2.28702C76.1094 2.17223 76.5702 2.05302 77.0221 1.90732C77.2065 1.84551 77.4303 1.93381 77.5619 1.85434C77.7374 1.74396 77.9217 1.76162 78.0973 1.72189C78.5668 1.61592 79.0407 1.57619 79.5322 1.62034C79.7911 1.64241 80.0851 1.60268 80.3572 1.55853C80.4625 1.54087 80.5459 1.52762 80.5283 1.74838C80.5108 1.96472 80.7214 1.97796 80.8706 1.99562C80.8794 1.95589 80.8838 1.90732 80.9057 1.872C80.9452 1.80136 81.011 1.80136 81.0725 1.83226C81.0944 1.84109 81.1208 1.872 81.1208 1.89408L81.112 1.88083ZM1.49633 93.3355C1.46561 93.3267 1.44367 93.3178 1.41734 93.3223C1.40418 93.3223 1.39101 93.3399 1.37346 93.3532C1.3954 93.3576 1.42173 93.3708 1.44367 93.3664C1.45684 93.3664 1.47439 93.3487 1.49194 93.3355H1.49633ZM2.86107 93.9889C2.88301 93.9978 2.90934 94.011 2.93128 94.0066C2.94884 94.0066 2.97078 93.9889 2.99272 93.9757C2.96639 93.9669 2.94006 93.9536 2.91812 93.9536C2.90057 93.9536 2.87862 93.9757 2.86107 93.9845V93.9889ZM3.19897 94.245C3.03221 94.2318 2.92689 94.2185 2.79086 94.2097C2.90934 94.3686 3.01466 94.3245 3.19897 94.245ZM12.9584 92.6512C13.0418 92.6335 13.1251 92.5893 13.2085 92.5584C13.3138 92.5055 13.3007 92.479 13.1646 92.5099C13.0813 92.5275 12.9847 92.5717 12.9145 92.6026C12.8048 92.6556 12.8267 92.6776 12.9584 92.6512ZM8.09184 93.5253C8.46923 93.4856 8.78957 93.4503 9.10552 93.415H9.21084L9.13185 93.4017C8.82029 93.3929 8.50433 93.3973 8.09184 93.5253ZM5.77486 93.3002C5.77486 93.3002 5.85823 93.309 5.90211 93.3002C5.93283 93.3002 5.95916 93.2825 5.98988 93.2693C5.95477 93.2604 5.93722 93.2472 5.89773 93.2472C5.77047 93.2472 5.71781 93.2693 5.77486 93.2958V93.3002ZM4.3399 93.8521C4.3399 93.8521 4.35307 93.8697 4.36185 93.8741C4.37501 93.8741 4.39256 93.8786 4.39695 93.8741C4.41889 93.8521 4.40573 93.8344 4.37062 93.8388C4.35746 93.8388 4.34868 93.8476 4.33552 93.8565L4.3399 93.8521ZM13.406 92.8322L13.3446 92.7527C12.9013 92.8631 12.445 92.9602 12.0149 93.0794C10.0709 93.5916 8.06551 93.8697 6.06887 94.0287C5.82313 94.0596 5.58616 94.0684 5.35359 94.0861C5.13417 94.1037 4.91476 94.1214 4.68219 94.1435C4.38818 94.2009 4.05906 94.351 3.83965 93.9669C3.72555 93.9889 3.73872 94.117 3.68167 94.1655C3.63779 94.2053 3.57635 94.2273 3.47542 94.2803C3.75188 94.2803 4.02395 94.2715 4.29602 94.2583L4.70413 94.2406C5.30093 94.2053 5.89334 94.1832 6.48136 94.1081C8.84223 93.883 11.1504 93.4635 13.4016 92.8322H13.406ZM20.0893 90.0065L20.1726 89.9491L20.2209 89.9005L20.1419 89.9535L20.0936 90.0021L20.0893 90.0065ZM19.159 90.5142C19.1941 90.4966 19.2423 90.4613 19.2555 90.4436C19.2643 90.4304 19.2336 90.4259 19.2204 90.4215C19.1765 90.4436 19.1107 90.4701 19.0887 90.4922C18.9966 90.5672 19.0273 90.576 19.159 90.5187V90.5142ZM16.7235 91.4193C17.1053 91.309 17.4695 91.1765 17.8118 90.9911C17.4212 91.1103 17.057 91.2383 16.7235 91.4193ZM14.5294 92.0993C14.8804 92.0639 15.1437 91.9801 15.3851 91.8873C15.5431 91.8255 15.5343 91.799 15.3675 91.8476C15.1262 91.9182 14.876 91.9933 14.525 92.0993H14.5294ZM20.7475 89.9226C19.8567 90.4436 19.0185 90.7306 18.3559 91.1235C17.6582 91.3487 16.9868 91.6224 16.2934 91.8608L15.2666 92.2361C14.9199 92.3465 14.5689 92.4481 14.2178 92.5452C14.5776 92.4569 14.9331 92.373 15.2885 92.2891C15.644 92.1876 15.9907 92.0772 16.3417 91.9624C17.0438 91.7416 17.724 91.4547 18.3866 91.1324C18.5709 91.0529 18.7728 90.9822 18.979 90.9116C19.1809 90.8321 19.3915 90.7527 19.5978 90.6644C20.0103 90.4877 20.4184 90.2714 20.7475 89.9314V89.9226ZM24.0255 87.0307L24.1133 86.991V86.9689L24.0255 87.0307ZM22.7397 88.6157C23.0118 88.4877 23.319 88.4303 23.5691 88.1786C23.2927 88.2316 23.0162 88.4347 22.7397 88.6157ZM20.8791 88.8497C20.9494 88.8232 21.024 88.8056 21.0942 88.7703C21.1819 88.7261 21.2697 88.6687 21.3575 88.6202L21.138 88.6996L20.8791 88.8497ZM22.4062 89.0175C22.1078 89.2339 21.6164 89.4193 21.3092 89.7548C21.8138 89.4458 22.2527 89.2515 22.4062 89.0175ZM24.9777 87.6003L24.9031 87.6135C24.7715 87.6621 24.653 87.7371 24.5521 87.8298L24.3239 88.0727C23.828 88.4259 23.2137 88.6952 22.7441 89.0573C22.4984 89.2427 22.4282 89.3442 22.6388 89.3177C22.7968 89.2957 22.9943 89.2118 23.1435 89.0617C23.4638 88.7349 24.1396 88.3817 24.3634 88.0594L24.5916 87.8166L24.89 87.6312L24.9821 87.5958L24.9777 87.6003ZM26.891 86.5318C26.7243 86.4214 26.5663 86.3022 26.0046 86.4832C26.0178 86.5274 26.009 86.5804 26.0441 86.6069C26.0924 86.6466 26.0309 86.7481 25.9958 86.8409C25.8159 87.278 25.8291 87.2735 26.891 86.5274V86.5318ZM40.8631 69.2555C40.8719 69.2201 40.8851 69.1583 40.8763 69.1627C40.85 69.1672 40.8149 69.1981 40.7841 69.2201L40.8587 69.2555H40.8631ZM40.6218 69.5115L40.771 69.2334C40.7183 69.3129 40.6437 69.3217 40.6218 69.5115ZM40.0294 70.474L40.0733 70.3725L40.0162 70.4475L40.025 70.474H40.0294ZM39.5862 71.4454C39.6081 71.41 39.6257 71.3482 39.6213 71.3306C39.6213 71.3129 39.5905 71.335 39.573 71.3394C39.5511 71.3836 39.5116 71.4454 39.5028 71.4763C39.4721 71.5911 39.5028 71.5778 39.5818 71.4498L39.5862 71.4454ZM38.4452 72.2577L38.6164 71.9973L38.7875 71.7323L38.8489 71.6573L38.7919 71.7059C38.7348 71.7721 38.6778 71.8339 38.6208 71.9134C38.5462 72.0193 38.4496 72.143 38.4452 72.2577ZM37.0717 73.3924L37.1244 73.3483L37.1463 73.2776L37.0717 73.3968V73.3924ZM35.1102 77.4764C35.1804 77.3572 35.2111 77.2557 35.2594 77.1453C35.1848 77.1982 35.1277 77.2424 35.0751 77.2821C35.0443 77.3749 34.9961 77.4808 34.9829 77.5559C34.9697 77.6221 35.0487 77.5735 35.1102 77.4764ZM33.2101 79.291L33.2934 79.2204L33.2759 79.2027L33.2101 79.291ZM32.5211 80.0637L32.6001 79.993L32.5826 79.9754L32.5167 80.0637H32.5211ZM31.955 81.6796C32.2622 81.3617 32.5913 81.0659 32.9248 80.7568C33.2496 80.4345 33.5699 80.0813 33.8771 79.6663C33.4865 79.993 33.1706 80.3462 32.8678 80.695C32.5562 81.0306 32.2666 81.3705 31.955 81.6796ZM30.9062 81.6664C30.8975 81.7105 30.9545 81.6664 31.0554 81.5648C31.0818 81.5383 31.0993 81.5074 31.1169 81.4809C31.0818 81.5118 31.0423 81.5383 31.0028 81.5648C30.9677 81.6001 30.9106 81.6531 30.9062 81.6664ZM30.6122 82.9688C30.6122 82.9688 30.7351 82.9026 30.8185 82.854C30.9062 82.7525 31.0686 82.5935 31.0774 82.545C31.0993 82.4346 30.9282 82.62 30.8404 82.6995C30.7351 82.7922 30.5859 82.9202 30.6166 82.9688H30.6122ZM29.3002 83.2072L29.3791 83.1233C29.3967 83.0704 29.6205 82.9291 29.5283 82.9247L29.3528 83.1366L29.3002 83.2116V83.2072ZM27.8784 85.6885C27.8784 85.6488 27.8169 85.6709 27.7072 85.7547C27.6326 85.8121 27.5756 85.8784 27.5098 85.9402C27.5712 85.9181 27.6326 85.9137 27.6941 85.8695C27.7555 85.8254 27.8169 85.7503 27.8784 85.6841V85.6885ZM28.892 84.3905C28.7121 84.5362 28.5717 84.6642 28.4796 84.7923C28.1812 84.9909 27.8696 85.119 27.5756 85.4413C27.9222 85.3441 28.2163 85.0836 28.4927 84.7878C28.6024 84.6642 28.9052 84.5053 28.8877 84.3905H28.892ZM32.4377 82.2227L32.3587 82.2845L32.3675 82.3065L32.4377 82.2227ZM34.2545 80.4875L34.2018 80.567C34.1886 80.6244 33.9868 80.801 34.0702 80.7966L34.2281 80.5493L34.2501 80.4875H34.2545ZM34.961 78.876C34.4739 79.3926 34.0263 80.0857 33.5567 80.461C32.859 81.0262 32.3807 81.609 31.8453 82.2315C31.3626 82.5847 30.937 82.9776 30.5332 83.3838C30.1251 83.7856 29.7083 84.1786 29.2826 84.5715C29.6995 84.2713 30.1164 83.9622 30.5201 83.6311C30.9106 83.2867 31.288 82.9247 31.6566 82.545C31.7663 82.4831 31.8585 82.4081 31.9111 82.3021C33.1618 81.3176 34.1009 80.1255 34.961 78.8804V78.876ZM36.0054 76.9819L36.1063 76.845L36.2116 76.7126L36.2906 76.6464L36.216 76.7038C36.1151 76.7788 36.0449 76.8715 36.001 76.9907C35.4086 77.653 34.9171 78.2888 34.5353 78.9687L34.4607 79.0217L34.5221 78.9952C34.7547 78.8009 35.0487 78.6243 35.2111 78.2755C35.4086 77.8738 35.8474 77.3793 36.0098 76.9863L36.0054 76.9819ZM36.5583 77.5912L36.5056 77.6574L36.5539 77.6398V77.5868L36.5583 77.5912ZM38.024 75.7898L37.9669 75.8826L38.0327 75.8075L38.024 75.7898ZM38.1863 74.9598L38.1424 75.0525C38.138 75.1099 37.9581 75.313 38.0459 75.2909L38.1644 75.0304L38.1863 74.9554V74.9598ZM38.4277 73.9841C38.2083 73.9841 37.9406 74.6816 37.6729 75.0878C37.3964 75.5338 37.0893 76.0459 36.9225 75.887L36.9357 75.8207L36.9006 75.9046C36.8655 76.4168 36.0624 77.3263 35.8518 77.9356C36.1809 77.4411 36.5451 76.9775 36.9137 76.5183C37.2648 76.0503 37.6027 75.5735 37.9011 75.0746C38.1424 74.6816 38.6515 73.9796 38.4321 73.9841H38.4277ZM38.533 73.3924C38.0547 73.7015 37.7826 74.3858 37.4096 74.9642C37.8396 74.558 38.1293 73.8472 38.533 73.3924ZM39.0947 73.0525C39.0947 73.0525 39.042 73.0878 39.0157 73.1275C38.9938 73.1584 38.9674 73.2114 38.9455 73.2556C38.963 73.2556 38.9718 73.2732 38.9938 73.2556C39.0859 73.1673 39.121 73.0834 39.0903 73.0569L39.0947 73.0525ZM38.9104 72.4299C38.8972 72.4564 38.8797 72.5006 38.8797 72.5138C38.8797 72.558 38.8928 72.5889 38.9016 72.6242L38.8884 72.6993L38.9192 72.6065L38.9104 72.4299ZM41.4161 68.7566L41.2537 69.048C41.1001 69.1848 40.9553 69.2996 40.8587 69.2643C40.6832 69.7676 40.455 70.2445 40.24 70.7743C40.025 71.3085 39.7573 71.8648 39.4501 72.5006C39.652 72.1739 39.8407 71.8692 40.0206 71.5778C40.1917 71.282 40.3453 70.9906 40.4901 70.7125C40.7885 70.1517 41.0431 69.6175 41.2449 69.0568C41.302 68.9597 41.3853 68.9464 41.4073 68.7566H41.4161ZM42.4473 63.5291L42.4692 63.4231L42.4297 63.5114L42.4473 63.5247V63.5291ZM42.4473 64.7565C42.4692 64.6637 42.5043 64.5401 42.5043 64.4871C42.5043 64.4077 42.4561 64.4739 42.421 64.6019C42.3946 64.6991 42.3683 64.8094 42.3639 64.8801C42.3595 64.9551 42.399 64.8933 42.4473 64.7521V64.7565ZM41.4117 67.5777C41.7627 66.9596 41.8944 66.3901 42.0216 65.7896C41.8856 66.2399 41.6925 66.6196 41.4994 67.0126C41.3458 67.3261 41.3678 67.4806 41.4117 67.5777ZM43.2152 62.8977L43.2065 62.9993C43.0836 63.401 42.9695 63.8028 42.8598 64.209C42.7369 64.6063 42.614 65.0081 42.4912 65.4099C42.2674 66.2267 41.9558 67.0347 41.653 67.9089C41.9777 67.4453 42.2147 66.9199 42.4253 66.3945C42.6316 65.8691 42.7764 65.3348 42.9827 64.8624C43.3908 63.9132 43.4259 63.22 43.2196 62.9772V62.9021L43.2152 62.8977ZM56.3316 14.9849L56.415 14.9187L56.4062 14.8966L56.3316 14.9849ZM56.4808 15.7708C56.6827 15.5633 56.9065 15.3867 57.0425 15.1615C56.8144 15.3469 56.6257 15.5544 56.4808 15.7708ZM54.2034 17.5721L54.2516 17.5589L54.2692 17.4971L54.2077 17.5721H54.2034ZM53.4969 19.3735C53.5495 19.3117 53.6109 19.2587 53.6592 19.1925C53.7163 19.1086 53.7689 19.0159 53.8304 18.9143C53.7689 18.985 53.7075 19.0424 53.6636 19.1086C53.6022 19.1925 53.5539 19.2852 53.4969 19.3735ZM52.6499 19.5722L52.707 19.5015H52.6675L52.6543 19.5722H52.6499ZM52.0443 21.8371C52.0751 21.868 52.1233 21.8107 52.1716 21.687C52.1541 21.6208 52.1497 21.5237 52.1058 21.4883C52.0838 21.4707 51.9917 21.6208 51.9873 21.687C51.9873 21.7621 52.0136 21.8062 52.04 21.8371H52.0443ZM50.3549 23.1175C50.7279 22.548 50.9473 22.2213 51.0965 21.8548C50.8376 22.1904 50.6708 22.5347 50.3549 23.1175ZM49.8678 24.8218L49.9204 24.7467L49.9117 24.7202L49.8678 24.8218ZM49.9336 25.6783L49.9599 25.5856C50.1837 25.0381 50.368 24.4686 50.7542 23.5944C50.2188 24.5613 49.9907 25.1617 49.938 25.6121V25.6783H49.9336ZM48.2661 26.7026L48.4065 26.4156L48.4943 26.1728C48.4416 26.2655 48.3758 26.3538 48.3407 26.4509C48.31 26.5304 48.2924 26.6187 48.2705 26.6982L48.2661 26.7026ZM47.836 28.2391L47.8843 28.1552L47.8711 28.1331L47.836 28.2391ZM46.5942 32.0758C46.6468 31.9963 46.6732 31.8992 46.6732 31.8065C46.6556 31.8065 46.6424 31.7932 46.6249 31.8197C46.5722 31.8992 46.5415 32.0052 46.5459 32.089C46.5459 32.1111 46.5722 32.1023 46.5898 32.0758H46.5942ZM46.6951 32.5835L46.7346 32.5526L46.7214 32.5041L46.6951 32.5835ZM46.6688 33.9964C46.717 33.9964 46.7785 33.8727 46.8223 33.7226C46.8662 33.4975 46.8575 33.365 46.8223 33.3297C46.7741 33.2899 46.717 33.4445 46.6732 33.6387C46.6293 33.8286 46.6161 33.992 46.6732 33.9964H46.6688ZM45.7823 35.3253L45.8131 35.3077L45.8043 35.2458L45.7823 35.3209V35.3253ZM45.9096 35.8949L45.9272 35.7889L45.892 35.886L45.9096 35.8993V35.8949ZM45.247 37.6653L45.2689 37.5638H45.2514L45.247 37.6653ZM45.032 38.6808L45.0407 38.566L45.0144 38.6676L45.032 38.6808ZM45.7165 38.9457C45.7165 38.8574 45.6946 38.7956 45.6858 38.7205C45.6682 38.7779 45.6288 38.8442 45.6244 38.9148C45.6156 39.0119 45.6112 39.1753 45.6244 39.2018C45.6726 39.2813 45.7077 39.1311 45.7165 38.9457ZM45.598 40.1819V40.0716L45.5805 40.1731L45.598 40.1819ZM44.6633 42.5838C44.6721 42.5529 44.6853 42.522 44.6941 42.4866C44.7028 42.4381 44.7072 42.363 44.7072 42.3277C44.6941 42.2261 44.6765 42.2659 44.6633 42.4337C44.6633 42.4822 44.6633 42.5352 44.6633 42.5882V42.5838ZM45.5147 43.065L45.5059 42.9723L45.4883 42.9061L45.4971 43.0032L45.5191 43.065H45.5147ZM44.6107 43.6831V43.5728L44.5887 43.6787H44.6107V43.6831ZM45.2075 44.575C45.2075 44.5264 45.2075 44.4734 45.2031 44.4249C45.1943 44.4558 45.1812 44.4823 45.1768 44.522C45.1724 44.5706 45.1636 44.6456 45.168 44.6809C45.1812 44.7825 45.1987 44.7428 45.2075 44.575ZM44.3781 46.5441V46.4337L44.3606 46.5265L44.3781 46.5441ZM44.7423 51.9041L44.7643 51.8114L44.7467 51.7937V51.9041H44.7423ZM44.2816 53.7805L44.3123 53.7452L44.2903 53.701L44.2816 53.7849V53.7805ZM44.4659 56.4119C44.4703 56.2574 44.4878 56.0764 44.4746 55.9571C44.4659 55.8468 44.4176 55.9307 44.422 56.0499C44.422 56.1911 44.4483 56.2927 44.4659 56.4119ZM43.7725 59.816C43.812 59.6526 43.8515 59.4892 43.8866 59.3259C43.9173 59.1713 43.8998 59.1228 43.8822 59.1449C43.7769 59.3038 43.7638 59.4716 43.755 59.6217C43.755 59.7012 43.7681 59.7541 43.7725 59.8204V59.816ZM43.5049 61.061C43.5356 61.1096 43.5663 61.0434 43.5794 60.9109C43.5838 60.8712 43.5707 60.8491 43.5663 60.8182C43.5487 60.8535 43.5268 60.8888 43.518 60.9241C43.5049 60.9727 43.4961 61.0478 43.5049 61.061ZM44.6941 59.9484C44.558 60.1383 44.5493 60.5091 44.5317 60.7961L44.5405 60.8623V60.7696C44.6502 60.4517 44.7248 60.3988 44.795 60.4606C44.795 60.4915 44.795 60.5489 44.8038 60.5444C44.8257 60.5356 44.852 60.5003 44.874 60.4782L44.9925 60.3281L44.874 60.4164C44.8433 60.4738 44.8213 60.4694 44.8169 60.3988C44.7818 60.2266 44.8169 59.7718 44.6941 59.944V59.9484ZM45.0276 57.9439L44.9925 58.0852C44.9881 58.1338 44.9749 58.2177 44.9793 58.2309C44.9968 58.2707 45.0188 58.2 45.032 58.0543C45.032 58.0146 45.032 57.9837 45.032 57.9484L45.0276 57.9439ZM45.598 55.5951C45.5542 55.6437 45.5498 55.7011 45.598 55.732C45.6112 55.7408 45.6244 55.7143 45.6375 55.7011C45.6375 55.6657 45.6419 55.6084 45.6375 55.6039C45.6288 55.5863 45.6112 55.5819 45.598 55.5951ZM45.9623 50.0321L45.9798 50.1336C45.993 50.2749 45.9974 50.4559 46.0193 50.5442C46.0369 50.6104 46.0851 50.4559 46.072 50.3676C46.0544 50.2484 46.0105 50.1998 45.9798 50.1204L45.9579 50.0321H45.9623ZM46.1948 43.5816C46.1948 43.5816 46.1817 43.6655 46.1773 43.7096C46.1861 43.7449 46.1904 43.8068 46.1992 43.8112C46.2387 43.8156 46.2519 43.7361 46.2299 43.6169C46.2256 43.586 46.208 43.5728 46.1948 43.586V43.5816ZM46.9364 39.374V39.9612L46.954 40.023V39.9259C46.9496 39.8729 46.954 39.8111 46.9496 39.7757C46.9364 39.6565 47.0198 39.3828 46.9364 39.374ZM47.779 35.3474C47.6781 35.3518 47.621 35.5858 47.5684 35.811C47.5376 35.9434 47.4674 36.226 47.5684 36.0715C47.643 35.9523 47.7395 36.1289 47.8053 35.652C47.8229 35.5196 47.7878 35.4313 47.779 35.3474ZM47.27 35.1399L47.2568 35.4225L47.2656 35.5019V35.4004C47.2568 35.3341 47.3489 35.0913 47.2656 35.1399H47.27ZM49.407 29.462L49.3587 29.5459L49.3719 29.5592L49.4026 29.4576L49.407 29.462ZM50.605 26.7821L50.548 26.8571C50.548 26.8571 50.548 26.9189 50.5611 26.9189C50.605 26.9278 50.6401 26.8748 50.6445 26.7997C50.6445 26.7732 50.6226 26.7865 50.6094 26.7777L50.605 26.7821ZM54.3613 20.0314L54.3043 20.1241L54.3657 20.0579V20.0314H54.3613ZM55.0591 18.2874C54.8967 18.3801 54.7256 18.5611 54.5676 18.7289C54.4228 18.9055 54.2911 19.0689 54.1858 19.0998C54.199 19.0335 54.335 18.826 54.1858 18.9541L54.1551 19.1263C53.5627 19.8548 53.1546 20.6406 52.6631 21.3956C52.2594 22.1109 52.0575 22.5524 51.7723 22.4906C51.6713 22.4685 51.4168 22.8261 51.4827 23.016C51.5002 23.069 51.566 23.1175 51.4651 23.2411C50.7849 24.0624 50.6094 25.1043 50.0477 25.9653C49.7186 26.4244 49.4465 26.9896 49.3412 27.4885C49.2095 28.0183 48.7927 28.0271 48.7927 28.7203C48.7927 28.8837 48.582 29.1265 48.503 29.1133C48.3714 29.0912 48.6128 28.3053 48.3012 28.6276C48.1915 28.9631 48.0116 29.3649 47.8931 29.7049C47.7965 30.0493 47.7702 30.3362 47.9194 30.4201C47.9808 30.2656 48.0379 30.089 48.1037 29.9698C48.1564 29.855 48.2836 29.7181 48.2836 29.7534C48.2968 29.9168 48.2046 30.1155 48.1125 30.2656C48.0467 30.376 47.9852 30.451 47.9194 30.5393L47.8448 30.7822C47.8448 30.8263 47.8404 30.8705 47.8316 30.919C47.8316 30.9323 47.7878 30.9985 47.7878 30.9897C47.7834 30.9632 47.7878 30.919 47.7878 30.8793C47.4674 31.5769 47.7878 31.6519 47.5025 32.3716C47.4323 32.5482 47.3665 32.7248 47.3051 32.9103C47.248 33.0957 47.2085 33.2855 47.1646 33.4754C47.0769 33.8595 46.9935 34.248 46.9057 34.6321C46.7346 35.4004 46.5196 36.1465 46.2826 36.822C46.2124 37.0119 46.1773 37.3739 46.1904 37.6344C46.2256 37.5108 46.265 37.3916 46.3089 37.2724C46.3353 37.4931 46.2607 37.6168 46.2168 37.7669C46.0412 39.5153 45.8262 41.2725 45.7428 43.0341C45.7341 43.1445 45.7516 43.2549 45.756 43.3652C45.6551 43.586 45.5454 43.7891 45.5234 44.2703C45.4664 45.5905 45.4708 45.5905 45.168 45.7317C45.1768 46.1379 45.2821 46.2748 45.2996 46.7119C45.3786 48.681 45.3084 50.6723 45.0846 52.6679C45.032 53.1845 44.9135 53.6525 44.7423 53.6922C44.6633 53.7099 44.58 53.8379 44.5844 54.2352C44.5887 54.5002 44.5844 54.6635 44.716 54.5266C44.9486 54.2794 44.8696 55.0609 44.8169 55.5068C44.7643 55.9969 44.5931 56.2088 44.4615 56.4163C44.4132 56.7121 44.2509 57.136 44.3649 57.2773C44.58 57.551 44.4615 58.2089 44.2903 58.8844C44.1324 59.4672 44.0227 60.0455 43.9086 60.6239C43.7813 61.2023 43.6541 61.7807 43.5268 62.3635C43.7725 62.2443 43.8998 61.9175 44.0578 61.1714C44.3781 59.5952 44.5887 58.0102 44.9179 56.3942C45.0758 55.6613 45.1724 54.8225 45.1899 53.988C45.2075 52.9328 45.2206 52.9328 45.5147 51.4096C45.5629 51.1535 45.5629 50.8135 45.5147 50.5928C45.4445 50.2881 45.3962 49.6789 45.4708 49.5376C45.7736 48.9592 45.5936 48.2174 45.6331 47.564C45.7165 46.1512 45.5849 44.7913 45.7604 43.3652C45.892 42.8707 45.9008 42.2747 45.9403 41.714C46.0193 40.8575 46.1027 40.0053 46.2738 39.1974C46.2738 39.1576 46.265 39.1179 46.265 39.0737C46.265 39.0561 46.287 38.9987 46.2914 39.0075C46.3002 39.0208 46.3089 39.0605 46.3133 39.087C46.4274 38.204 46.4757 37.3386 46.6556 36.4423C46.9189 35.2723 47.2261 34.1067 47.5201 32.9456L48.0949 31.2369L48.3802 30.3848L48.525 29.961L48.7005 29.5459C48.9726 28.9102 49.2271 28.1861 49.5123 27.6651C49.6966 27.334 49.7844 27.2677 49.8239 26.9145C49.8546 26.6673 49.9687 26.3141 50.0433 26.0094C50.1399 25.9829 50.2496 25.9123 50.4075 25.6121C50.6269 25.197 50.8595 24.7953 51.0833 24.3891C51.3027 23.9785 51.5748 23.5899 51.7811 23.1352C52.0005 22.6804 52.2901 22.1241 52.628 21.868L52.6148 21.9387L52.6499 21.846C52.8298 21.453 53.0185 21.0954 53.3608 20.8128C53.5407 20.6627 53.9137 20.2168 53.9401 20.0976C53.9971 19.8283 54.1639 19.5325 54.3657 19.219C54.4666 19.0645 54.5764 18.9011 54.6948 18.7421C54.8177 18.5876 54.945 18.4331 55.0634 18.2786L55.0591 18.2874ZM55.0371 17.5986C54.9713 17.5986 54.9757 17.4794 54.7519 17.762C54.6904 17.8415 54.6027 17.9695 54.5939 18.0092C54.572 18.1549 54.7782 17.9254 54.8879 17.8459C55.0503 17.7311 55.0459 17.656 55.0371 17.5986ZM56.1078 17.6693C56.1078 17.6693 56.0289 17.7002 55.9894 17.7178C55.9323 17.8326 55.8709 17.9563 55.827 18.0622C55.7919 18.1461 55.8446 18.1152 55.9499 17.9916C56.0684 17.8415 56.1342 17.7178 56.1122 17.6693H56.1078ZM55.6471 15.7443C55.3004 16.1196 54.9932 16.4595 54.6685 17.0026C55.1424 16.4904 55.3706 16.1372 55.6471 15.7443ZM58.2932 14.8171C57.9772 14.9098 57.5428 15.3778 57.5033 15.2233C57.4857 15.1438 57.2751 15.2807 57.1874 15.4706C57.0776 15.709 56.8495 15.9783 56.6125 16.2918C56.3931 16.6185 56.1649 16.9805 56.0201 17.3602C56.7266 16.305 57.4024 15.5942 58.2976 14.8215L58.2932 14.8171ZM57.2971 13.7177L57.183 13.8193C57.1654 13.8546 57.1215 13.912 57.1303 13.9164C57.1566 13.9518 57.2181 13.8988 57.2883 13.7796C57.3058 13.7487 57.2971 13.7354 57.3014 13.7133L57.2971 13.7177ZM58.8242 14.018L58.7715 14.0312L58.7583 14.0842L58.8242 14.018ZM58.6837 13.3954C58.653 13.4131 58.6179 13.4264 58.6004 13.444C58.5653 13.4793 58.5258 13.5279 58.5214 13.5456C58.5082 13.6074 58.5609 13.5765 58.653 13.4705C58.6793 13.444 58.675 13.4219 58.6837 13.3954ZM59.5614 13.0069L59.4824 13.0864L59.5614 13.0334V13.0069ZM59.9739 11.444C60.4303 11.0996 60.6102 10.87 60.676 10.6051C59.9037 11.2453 59.2454 11.8987 58.5521 12.5168C58.4424 12.5698 58.3502 12.6581 58.2756 12.7641L58.2405 12.8347L58.2976 12.7553L58.4204 12.6405L58.5477 12.5257C59.0216 12.1636 59.4999 11.8016 59.9739 11.4484V11.444ZM60.5926 11.6603C60.5926 11.6603 60.6146 11.6824 60.6365 11.6647C60.6672 11.6426 60.7067 11.5941 60.7462 11.5588C60.755 11.5323 60.7813 11.4837 60.7681 11.4881C60.6979 11.5146 60.6277 11.5808 60.597 11.6603H60.5926ZM62.2645 10.9715C61.6633 11.3601 61.0709 11.9782 60.7945 11.8766C60.54 12.3182 60.9876 12.0753 61.0534 12.1636C60.597 12.7464 60.5707 12.3711 60.1933 12.7597C60.2108 13.0422 60.6979 12.6405 61.1192 12.2828C61.4308 12.0003 61.6809 11.7928 61.8608 11.5764C62.0407 11.3645 62.1636 11.1702 62.2645 10.9715ZM62.6288 11.3468C62.4708 11.4793 62.4796 11.5323 62.4401 11.6117C62.405 11.6868 62.4576 11.6956 62.5191 11.6338C62.6156 11.5411 62.6726 11.444 62.7253 11.3601C62.7736 11.285 62.7253 11.285 62.6244 11.3468H62.6288ZM63.1861 10.2431C63.151 10.2431 63.0939 10.2431 63.0237 10.2784C62.8438 10.3799 62.835 10.455 62.8131 10.5124C62.7867 10.5918 62.8657 10.5698 63.0193 10.4638C63.1597 10.349 63.265 10.2475 63.1817 10.2431H63.1861ZM63.3045 8.98916C63.2694 9.00241 63.2343 9.00682 63.2036 9.02448C63.072 9.12162 63.0632 9.15694 63.1685 9.10837C63.1992 9.09071 63.2475 9.06422 63.287 9.04214C63.2914 9.02448 63.3002 9.00682 63.3045 8.98916ZM66.7581 8.49026C66.6791 8.51233 66.6045 8.52999 66.5299 8.57414C66.4246 8.64037 66.3939 8.69777 66.4728 8.68011C66.5299 8.67128 66.6177 8.64037 66.6879 8.59622C66.7976 8.52999 66.8239 8.49026 66.7537 8.48584L66.7581 8.49026ZM66.5167 8.07082C66.3105 8.05758 66.0209 8.29599 65.7663 8.49026C65.582 8.63595 65.5513 8.73309 65.525 8.81697C64.9326 9.21433 64.8316 9.13486 64.8141 8.9715L64.8668 8.90528L64.7965 8.97592C64.5552 9.26732 64.3182 9.5543 64.0637 9.86336C64.7746 9.58962 65.1476 9.19667 65.5469 8.80814C65.6698 8.7066 65.7839 8.60063 65.9155 8.50792C66.1174 8.36663 66.2973 8.39312 66.5211 8.15912C66.565 8.11497 66.5606 8.07082 66.5211 8.06641L66.5167 8.07082ZM64.2392 8.37988L64.1997 8.37105L64.169 8.42403L64.2392 8.37988ZM66.429 7.44387L66.3631 7.50569C66.1613 7.61165 65.9726 7.7441 65.7839 7.87214C65.7444 7.87214 65.7093 7.86331 65.6654 7.86331C65.6522 7.86331 65.582 7.90746 65.582 7.90746C65.5425 7.99135 65.6874 7.91629 65.7707 7.8898C66.0121 7.81474 66.2052 7.66021 66.3895 7.49686L66.429 7.44387ZM66.5343 6.68889C66.2359 6.79485 65.9463 6.90523 65.683 7.0421C65.4241 7.1878 65.1783 7.34233 64.9457 7.49686C64.4762 7.81474 64.0418 8.14588 63.6029 8.46818C63.5152 8.50792 63.4318 8.53882 63.344 8.58739C63.2256 8.65362 63.0676 8.72867 63.0281 8.8258L63.3089 8.66245C63.4011 8.60505 63.4976 8.54324 63.5898 8.48143C64.0769 8.27833 64.5245 7.98693 64.994 7.66021C65.2266 7.49686 65.4679 7.32467 65.7181 7.14806C65.9682 6.97587 66.249 6.83459 66.5387 6.68006L66.5343 6.68889ZM67.6621 7.32025C67.6182 7.34674 67.5787 7.37765 67.5392 7.40855C67.5699 7.39972 67.6006 7.39972 67.6357 7.38206C67.6796 7.35999 67.7542 7.32467 67.7761 7.30259C67.8551 7.23195 67.8069 7.23636 67.6621 7.32467V7.32025ZM68.0131 5.9604L67.6006 6.05753C67.5699 6.04428 67.5567 6.02221 67.5611 5.98689L67.6138 5.92949L67.526 6.00013C67.5041 6.02221 67.4602 6.06194 67.469 6.06636C67.4909 6.0796 67.5392 6.07519 67.5743 6.0796C67.7279 6.03545 67.6401 6.21647 68.0131 5.95598V5.9604ZM68.7635 6.70214L68.6713 6.76836L68.7723 6.72421L68.7635 6.70214ZM68.5134 6.09285L68.4475 6.10168C68.3115 6.16349 68.1711 6.21206 68.0438 6.28711C67.9341 6.34893 67.9253 6.41074 68.0175 6.36659C68.1491 6.30477 68.2896 6.20764 68.4256 6.12375L68.5134 6.09285ZM69.0443 6.82134H68.9961L68.9697 6.86549L69.0443 6.82134ZM76.3069 2.94929C76.3551 2.76385 76.3595 2.6314 76.4385 2.52544C76.4824 2.46804 76.4692 2.37532 76.3859 2.34442C76.3113 2.31793 76.2586 2.37532 76.2498 2.4548C76.2279 2.59608 76.2015 2.73736 76.3069 2.94929ZM76.3332 3.11265L76.3595 3.12148V3.0994L76.3332 3.11265ZM75.8988 2.74619C75.9383 2.7771 75.9602 2.71529 75.9514 2.67114C75.9426 2.61815 75.9339 2.55634 75.8724 2.52985C75.8593 2.54751 75.8285 2.574 75.8329 2.58725C75.8461 2.64465 75.8593 2.71529 75.8988 2.74178V2.74619ZM75.5916 2.85216C75.6267 2.84774 75.6355 2.82567 75.6135 2.79034L75.5521 2.68438C75.5433 2.70646 75.5214 2.72853 75.5214 2.75061C75.5214 2.79476 75.5433 2.8345 75.5872 2.85216H75.5916ZM75.5038 3.64688H75.5301L75.5214 3.62922L75.4994 3.64688H75.5038ZM75.28 3.13031C75.28 3.13031 75.302 3.14355 75.3151 3.14355C75.3283 3.14355 75.3371 3.13914 75.3458 3.13031C75.3458 3.13031 75.3458 3.11265 75.3458 3.10382L75.2844 3.13031H75.28ZM73.0069 3.54974L73.0947 3.49676L73.3931 3.3334L73.0684 3.50118L73.0069 3.54974ZM73.4808 3.57623L73.4721 3.60273L73.5774 3.55857L73.4852 3.58065L73.4808 3.57623ZM71.6992 4.19877C71.7256 4.24292 71.8484 4.23409 71.9845 4.13254C72.0547 4.07956 72.0152 4.03982 71.9801 4.00892C71.9669 4.00009 71.8309 4.03982 71.7124 4.07073C71.708 4.11929 71.6817 4.16786 71.6992 4.20318V4.19877ZM68.8513 5.30696L68.7503 5.36436L68.8469 5.33345L68.8557 5.30696H68.8513ZM69.8386 6.20764C69.8079 6.20764 69.7772 6.20323 69.7421 6.21647C69.6148 6.26504 69.5446 6.31802 69.5665 6.34893C69.5709 6.35776 69.6192 6.35776 69.6587 6.34451C69.786 6.29594 69.8474 6.24738 69.843 6.21206L69.8386 6.20764ZM70.6768 5.77055L70.5846 5.79704V5.82353L70.6768 5.77055ZM70.4179 5.09945C70.4179 5.09945 70.352 5.11711 70.273 5.14801C70.1941 5.17892 70.0975 5.21866 70.0361 5.24956C69.9044 5.3202 69.7991 5.40409 69.6806 5.48356L69.4217 5.80145L69.3822 5.85443L69.4481 5.79704L69.7728 5.64251L69.8606 5.62485H69.7947L69.7157 5.47032C69.8167 5.42175 69.9176 5.3776 70.0141 5.32903C70.1633 5.24956 70.4222 5.201 70.4222 5.09503L70.4179 5.09945ZM70.532 4.54314L70.4442 4.60937L70.3784 4.67118L70.4617 4.60496L70.5363 4.54314H70.532ZM75.8812 4.19877L75.8549 4.18994V4.21201L75.8812 4.19877ZM75.8198 4.03982V4.01333L75.7934 4.03099L75.8198 4.03982ZM76.1972 3.61597C76.1708 3.58065 76.1182 3.5674 76.0918 3.60714C75.9514 3.84114 75.7057 3.79699 75.5214 3.75284C75.4863 3.74401 75.4556 3.73959 75.4292 3.73518H75.3853H75.3722L75.3283 3.74401L75.2449 3.76608C75.0255 3.81465 74.8324 3.88971 74.6525 3.97359C74.2883 4.13695 73.9723 4.31797 73.6476 4.52107C73.5423 4.5873 73.279 4.64469 73.2351 4.70209C73.2132 4.71092 73.1956 4.71533 73.1737 4.72416C72.8138 4.7639 72.2478 4.88311 73.0727 4.4725L73.1693 4.45926H73.0859C73.0508 4.36212 73.2088 4.23409 73.5774 4.06631C73.6652 4.02658 74.1391 3.87205 73.7266 3.92061C73.3009 3.97359 72.16 4.46809 72.3223 4.51224C72.5769 4.58288 72.4233 4.73299 72.1688 4.9096C71.9099 5.08179 71.572 5.33345 71.4096 5.5233C71.5983 5.42175 71.7826 5.32462 72.0459 5.18775C72.318 5.06854 72.6866 4.92726 73.2307 4.71533C73.2307 4.72416 73.2351 4.72858 73.2483 4.73741C73.3448 4.79922 73.6081 4.71975 73.8977 4.57405C74.5252 4.25175 75.1923 3.99567 74.2751 4.3268C74.5911 4.22084 74.9246 4.0619 75.3327 3.96476C75.4687 3.92503 75.4556 3.93386 75.4863 3.92503L75.5609 3.90737C75.6135 3.89854 75.6662 3.88529 75.7232 3.87205C75.8329 3.84114 75.9953 3.79699 76.1533 3.74401C76.2059 3.72635 76.241 3.67337 76.1884 3.60714L76.1972 3.61597ZM75.9031 2.99344L75.8768 2.98461L75.8988 3.00227C75.969 3.07733 75.9909 3.14797 75.8988 3.20978C75.8461 3.24952 75.7978 3.29367 75.7496 3.3334C75.7276 3.32016 75.7057 3.3025 75.6837 3.29808C75.6486 3.29367 75.6091 3.28484 75.6004 3.33782H75.675L75.7496 3.34665C75.7759 3.41288 75.8242 3.53208 75.8286 3.53208C75.9821 3.48352 76.0962 3.36872 76.1226 3.19212C76.1445 3.03318 76.0085 3.01552 75.9075 2.99344H75.9031ZM76.7676 3.54974C76.5614 3.43937 76.4912 3.52767 76.4166 3.65571C76.5789 3.76608 76.6448 3.64688 76.7676 3.54974ZM77.0616 3.41729H77.0397L77.0573 3.44378V3.41729H77.0616ZM77.0178 3.14355C76.7632 2.99785 76.6579 3.20536 76.5394 3.37755C76.6886 3.28484 76.8466 3.20536 77.0178 3.14355ZM76.9212 2.74619C76.9212 2.74619 76.9124 2.7197 76.9037 2.71529C76.8729 2.6888 76.8554 2.70204 76.8642 2.73736C76.8642 2.74619 76.8817 2.75944 76.8905 2.75944C76.8993 2.75944 76.9124 2.75061 76.9212 2.74619ZM77.3205 3.6822L77.2591 3.74842L77.2503 3.77933L77.2679 3.75725L77.3205 3.68661V3.6822ZM77.1187 2.17664C77.0529 2.17664 77.0573 2.2517 77.0265 2.29144L76.9739 2.40181C76.9519 2.41506 76.9256 2.41947 76.9037 2.42389L76.8729 2.41064L76.8993 2.4283C76.9344 2.4548 76.9607 2.44597 76.9783 2.40623L77.0309 2.30027C77.0616 2.27378 77.088 2.24287 77.1187 2.21638C77.1231 2.21196 77.1143 2.18106 77.1143 2.18106L77.1187 2.17664ZM77.461 2.32234C77.4961 2.26495 77.5224 2.18989 77.5005 2.09717C77.4961 2.07951 77.4566 2.05302 77.439 2.05744C77.3513 2.08834 77.3249 2.17223 77.3381 2.26495C77.3425 2.3091 77.3908 2.32676 77.4654 2.32234H77.461ZM77.7111 3.26276C77.7111 3.26276 77.6935 3.23627 77.6848 3.23627C77.6497 3.23627 77.6409 3.25393 77.6628 3.28484C77.6672 3.29367 77.6848 3.29808 77.6979 3.29367C77.7067 3.29367 77.7067 3.27601 77.7111 3.26276ZM77.6365 2.55634L77.597 2.49012C77.5619 2.52985 77.5268 2.56517 77.4961 2.60491C77.4961 2.60491 77.5224 2.66231 77.54 2.66231C77.6014 2.66231 77.6233 2.61374 77.6365 2.55634ZM77.8691 2.94046L77.8471 2.9537L77.8735 2.96253V2.94046H77.8691ZM77.8603 2.17223C77.8998 2.17223 77.9261 2.12808 77.8998 2.08834C77.8822 2.06185 77.834 2.05302 77.7989 2.04419C77.7857 2.07068 77.7681 2.106 77.7725 2.11042C77.7989 2.13691 77.8296 2.17223 77.8603 2.17223ZM78.0139 2.58283C77.9876 2.56959 78.0051 2.49895 77.9525 2.52544L78.0095 2.58725C78.0227 2.60932 78.0314 2.6314 78.0446 2.65348C78.0446 2.65789 78.0578 2.65789 78.0665 2.66231C78.0753 2.61374 78.0358 2.60049 78.0095 2.58283H78.0139ZM78.1719 2.05302C78.1719 2.05302 78.1499 2.04419 78.1368 2.03977C78.1324 2.04861 78.1192 2.06185 78.1236 2.07068C78.1236 2.08393 78.1411 2.10159 78.1499 2.10159C78.185 2.106 78.1938 2.08834 78.1719 2.05302ZM78.58 2.11925L78.5536 2.09717L78.5273 2.07951L78.5536 2.10159L78.58 2.11925ZM78.874 2.01328L78.8169 1.98238L78.773 2.03536C78.773 2.03536 78.8169 2.07951 78.8345 2.0751C78.852 2.0751 78.8608 2.03977 78.874 2.0177V2.01328ZM79.3611 1.9603L79.3347 1.93823L79.2689 1.84551L79.2338 1.90291L79.3347 1.93823L79.3611 1.95589V1.9603ZM79.6068 1.9603C79.6024 1.92057 79.5849 1.85876 79.5673 1.85434C79.5234 1.84109 79.5191 1.89408 79.5191 1.90732C79.5234 1.97796 79.541 2.0177 79.5849 2.02211C79.5937 2.02211 79.6112 1.97796 79.6068 1.9603Z" fill="#5938E0"/>
<path d="M79.7867 2.73737C79.6551 2.69764 79.5366 2.70205 79.3611 2.84334C79.5805 2.84334 79.6946 2.82568 79.7867 2.73737Z" fill="#5938E0"/>
<path d="M80.7565 1.60711C80.7565 1.60711 80.739 1.58945 80.7346 1.58945C80.7258 1.58945 80.7214 1.60269 80.7126 1.60711L80.7346 1.62477L80.7565 1.60269V1.60711Z" fill="#5938E0"/>
<path d="M46.3967 46.447C46.4011 46.4779 46.4142 46.4823 46.4274 46.5L46.4406 46.3896L46.4099 46.341C46.4055 46.3808 46.3923 46.4382 46.3967 46.4514V46.447Z" fill="#5938E0"/>
<path d="M78.6502 3.1568C78.6502 3.1568 78.637 3.17446 78.6282 3.18329C78.479 3.18329 78.3605 3.31133 78.185 3.23627C78.0665 3.18329 78.0446 3.32016 78.0621 3.43495C78.0797 3.54091 78.0929 3.66012 78.185 3.70869C78.2947 3.76608 78.3342 3.65571 78.3913 3.58065C78.4132 3.54974 78.4527 3.53208 78.479 3.51001L78.4922 3.48352L78.479 3.51442C78.6765 3.5674 78.6984 3.53208 78.6589 3.20978C78.6589 3.19654 78.6677 3.18771 78.6721 3.17446C78.6721 3.17446 78.6546 3.1568 78.6502 3.16121V3.1568Z" fill="#5938E0"/>
<path d="M31.6654 82.5185L31.7839 82.4169L31.898 82.3065C31.898 82.2668 31.876 82.2491 31.8365 82.2536C31.7049 82.3816 31.6479 82.4699 31.6654 82.5229V82.5185Z" fill="#5938E0"/>
<path d="M73.1254 9.69558C73.0815 9.73973 73.0289 9.79712 72.963 9.85894L73.1342 9.70441C73.1342 9.70441 73.1298 9.69558 73.1254 9.69116V9.69558Z" fill="#5938E0"/>
<path d="M69.3076 13.7001C69.4086 13.5367 69.5183 13.369 69.6192 13.2056C69.7201 13.0511 69.9439 13.1261 70.0141 12.9539C70.0887 12.8215 70.1765 12.689 70.2467 12.5477C70.2862 12.4727 70.2555 12.38 70.1765 12.3182C70.1063 12.2608 70.0405 12.2784 69.9834 12.3182C69.843 12.4241 69.6675 12.5212 69.6894 12.742C69.707 12.8789 69.6719 12.9319 69.5358 12.8921C69.4481 12.87 69.3822 12.8921 69.3735 12.9628C69.334 13.2144 69.1672 13.3866 69.0794 13.6074C69.0531 13.6736 69.0707 13.7575 69.1497 13.7928C69.233 13.8281 69.2637 13.7575 69.3032 13.7001H69.3076Z" fill="#5938E0"/>
<path d="M69.154 14.9407C69.097 14.8613 69.1716 14.826 69.1979 14.773C69.2111 14.7509 69.2243 14.7288 69.2374 14.7067C69.1935 14.5787 69.2374 14.5036 69.3647 14.4772H69.3954L69.3647 14.4683C69.3076 14.4153 69.2506 14.3491 69.2945 14.2873C69.5621 13.8899 69.7991 13.4661 70.2204 13.2012C70.2774 13.1659 70.3213 13.1879 70.3608 13.2453C70.3784 13.2718 70.3081 13.2983 70.3696 13.3248V13.2453C70.3959 13.1438 70.4573 13.0334 70.4354 12.9363C70.3871 12.742 70.3652 12.6361 70.6109 12.7862L70.6768 12.6493C70.6241 12.5831 70.5451 12.5124 70.6504 12.455C70.6855 12.4374 70.7382 12.4506 70.7557 12.4904C70.7865 12.5698 70.7162 12.6052 70.6768 12.6493C70.9269 12.5787 71.0454 12.4241 71.0059 12.2122C70.9883 12.1283 70.9883 12.0268 70.9357 11.965C70.6416 11.572 70.8216 11.2762 70.9795 10.9671C71.0278 10.8788 71.1112 10.8877 71.1814 10.8656C71.2867 10.8303 71.392 10.8126 71.2648 10.6537C71.2209 10.6007 71.3043 10.561 71.3613 10.5919C71.4622 10.6493 71.5588 10.7243 71.6948 10.8214C71.6158 10.4594 71.7475 10.2342 71.9581 10.0267C72.1073 9.88103 72.2082 9.66468 72.3136 9.4925C72.3531 9.42185 72.4145 9.44393 72.4847 9.47483C72.4935 9.54989 72.5023 9.62495 72.59 9.67352C72.6251 9.58521 72.511 9.54548 72.4935 9.47483C72.5461 9.35121 72.6734 9.28057 72.6866 9.13046C72.7085 8.90087 72.7787 8.72868 73.0683 8.78166C73.0815 8.78166 73.0903 8.71985 73.0991 8.68453C73.0596 8.70219 73.0245 8.74634 72.9674 8.6757C72.9586 8.66687 72.9586 8.64921 72.963 8.64038C72.9981 8.57415 73.0464 8.63155 73.0947 8.65362C73.3536 8.65804 73.4106 8.49468 73.3931 8.26951C73.3843 8.16796 73.3799 8.07083 73.5291 8.19887L73.5467 8.30483C73.5686 8.33132 73.5423 8.37989 73.6037 8.3843L73.5642 8.30925L73.5467 8.20328C73.6476 8.07083 73.5993 7.80151 73.8802 7.84124C73.8889 7.84124 73.9021 7.79709 73.8977 7.7706C73.8451 7.50128 74.0689 7.45713 74.2093 7.34233C74.2356 7.34233 74.2619 7.41298 74.2883 7.36L74.2093 7.33792C74.1654 7.29377 74.1215 7.23637 74.1873 7.20988C74.2751 7.17456 74.3892 7.16573 74.398 7.04211C74.4067 6.91848 74.4024 6.81694 74.5998 6.90965C74.7095 6.96263 74.7271 6.83018 74.749 6.74629C74.771 6.65799 74.8061 6.61384 74.907 6.71539L74.9246 6.82577C74.9158 6.86109 74.8938 6.89641 74.8982 6.93173C74.8982 6.96705 74.9377 6.97588 74.9421 6.94497C74.9465 6.90965 74.9333 6.8655 74.929 6.82577L74.9114 6.71539C74.9026 6.6006 74.8587 6.47256 74.9948 6.42399C75.0255 6.41075 75.0694 6.38425 75.0694 6.35335C75.0562 6.04429 75.2976 5.98689 75.5214 5.91184L75.6091 5.93833L75.5214 5.90301C75.3941 5.63369 75.4863 5.42618 75.7057 5.52772C76.026 5.67784 76.0348 5.51889 76.0611 5.3158C76.0655 5.27606 76.1226 5.24957 76.1577 5.21866H76.184L76.1577 5.20983C76.0523 5.13036 76.0523 5.04206 76.0831 4.95376C76.1313 4.81247 76.2191 4.8213 76.3376 4.97583C76.3683 5.01557 76.3595 5.09063 76.4561 5.09504C76.4648 4.97142 76.4736 4.8478 76.4824 4.71976C76.4868 4.65353 76.4999 4.57406 76.5833 4.59613C76.7501 4.6447 76.7676 4.52549 76.7457 4.43719C76.6755 4.18111 76.8334 4.16345 77.009 4.14579V4.1767L77.0177 4.15021C77.0177 4.0884 77.0309 4.01334 77.0441 3.99568C77.0441 3.99568 77.0748 4.02217 77.1757 4.10164C77.1801 4.11047 77.1889 4.11489 77.1933 4.12372L77.2459 4.16345L77.2635 4.17228L77.2415 4.15904L77.1757 4.10164C77.2635 4.15021 77.3118 4.12372 77.2415 4.0619C77.224 4.04424 77.1845 4.02217 77.167 4.00892C77.0572 3.9427 77.0704 3.96036 77.4741 4.05307C77.4917 4.05749 77.518 4.05307 77.5399 4.05307C77.5399 4.02658 77.4127 4.01775 77.3469 4.00451C77.0397 3.93387 76.9695 3.93828 77.1318 3.9427C77.2547 3.9427 77.2723 3.92504 77.1801 3.92062C77.1362 3.92062 77.2503 3.91179 77.3425 3.90738H77.3776H77.3513C77.3293 3.89855 77.2196 3.90738 77.3161 3.8853C77.6321 3.81907 77.4917 3.797 77.3337 3.83232C77.3205 3.83232 77.4083 3.81024 77.4478 3.79258C77.5005 3.77934 77.5092 3.77934 77.6058 3.74843L77.4522 3.79258C77.6189 3.72636 77.6672 3.68221 77.6979 3.64688C77.7286 3.61156 77.733 3.5939 77.8691 3.5056C78.3913 3.26718 78.6941 3.16122 79.1899 2.94047C79.2163 2.86099 79.1285 2.88749 78.3737 3.24952C78.049 3.40405 77.8471 3.50119 77.7155 3.55858C77.5794 3.61598 77.7111 3.54975 78.0183 3.37756C78.1762 3.28926 78.3605 3.18771 78.2465 3.23628C77.9129 3.39522 78.185 3.20096 77.7506 3.43937C77.5399 3.55858 77.5092 3.57183 77.5751 3.51443C77.6365 3.46145 77.676 3.4173 77.5399 3.50119C77.3776 3.60273 77.5707 3.43937 77.9524 3.1259L77.9963 3.095L77.9568 3.12149L77.9129 3.13915C77.9129 3.13915 77.8778 3.16122 77.8647 3.17447C77.8647 3.17447 77.8778 3.16122 77.8866 3.15239L77.9393 3.11707C77.9875 3.02877 77.8471 3.13032 77.6891 3.28926C77.439 3.52768 77.4478 3.5056 77.4741 3.45703C77.4961 3.40847 77.4434 3.42171 77.3732 3.47028L77.3381 3.49236C77.5312 3.24952 77.4215 3.329 77.3688 3.36432C77.2723 3.43496 77.5619 3.01111 77.4302 3.10824C77.3556 3.16564 77.2547 3.35549 77.2108 3.34666C77.145 3.33341 77.0353 3.24069 76.9607 3.39964C76.9607 3.45262 76.8642 3.329 76.8291 3.24069C76.7808 3.15681 76.7369 3.11707 76.6755 3.34224C76.5131 3.37315 76.3551 3.40405 76.1928 3.43054C75.9953 3.47028 75.8066 3.48353 75.596 3.43054C75.4117 3.38639 75.1966 3.34224 74.9948 3.4747C74.7885 3.61156 74.771 3.57624 74.7052 3.23628C74.6964 3.20537 74.692 3.17005 74.67 3.17447C74.6349 3.1833 74.5998 3.20096 74.5779 3.22745C74.5033 3.31575 74.3146 3.48353 74.2488 3.46586C74.0425 3.40405 73.8714 3.57624 73.6739 3.54975C73.5949 3.53651 73.5028 3.62481 73.4896 3.43937C73.4852 3.37315 73.4545 3.3599 73.4238 3.39964C73.2307 3.64688 72.9455 3.51443 72.7217 3.66013C72.5154 3.79258 72.533 3.46145 72.4189 3.34666C72.3618 3.66013 72.1907 3.77492 71.9362 3.69545C71.8265 3.66013 71.7255 3.66013 71.6202 3.71311C71.335 3.85439 71.0454 3.96036 70.7294 3.81907C70.6109 4.00451 70.4749 3.58949 70.3213 3.84115C70.2292 3.99126 70.001 3.85439 69.8386 3.89855C69.6411 3.95153 69.4349 3.99568 69.233 3.92062C69.0619 3.85881 68.9478 4.031 68.7898 4.02217C68.3861 4.00009 67.9868 4.07074 67.5874 4.05307L67.2759 4.04424C66.6352 4.03541 65.9945 4.04424 65.3538 3.96919C64.7921 3.90296 64.2304 3.81024 63.6688 3.77492C63.5459 3.76609 63.3704 3.75285 63.3616 3.62922C63.3352 3.28485 63.1641 3.46586 63.0456 3.4747C62.914 3.48353 62.7823 3.5056 62.6507 3.51885C62.598 3.52326 62.541 3.52768 62.5234 3.45262C62.5059 3.39081 62.5103 3.29809 62.5498 3.28926C62.7428 3.24069 62.6902 3.01994 62.7736 2.89632C63.0061 2.53869 63.3616 2.4548 63.6995 2.37092C64.3358 2.21197 64.9984 2.1899 65.6435 2.08393C66.1305 2.00446 66.6176 1.96914 67.1047 1.92941C67.4953 1.8985 67.8858 1.86318 68.272 1.79695C68.86 1.6954 69.4612 1.67774 70.0448 1.55854C70.5978 1.44374 71.1595 1.42167 71.7036 1.26714C72.0942 1.15676 72.5066 1.17442 72.9104 1.09495C73.6915 0.944835 74.4945 0.953665 75.2756 0.76823C75.3019 0.737325 75.3327 0.73291 75.3678 0.7594C75.7013 0.728494 76.0348 0.719664 76.3727 0.697589L76.6228 0.675513L77.0002 0.635777C77.3249 0.600456 77.6497 0.556305 77.9832 0.503324C78.5054 0.419436 78.9968 0.401776 79.4664 0.388531C79.9359 0.375285 80.3791 0.366455 80.9057 0.291398C82.2705 0.0927181 83.5606 0.0220763 84.6269 7.1153e-07C84.7542 -0.0044144 84.8858 -0.00882952 85.0131 -0.0132446L84.6971 0.313474L84.1003 0.953665C83.4377 1.67774 82.7751 2.41507 81.9896 3.14356C81.5069 3.58949 81.0944 4.01334 80.6863 4.43277C80.2782 4.85221 79.8789 5.27165 79.462 5.65576C79.3303 5.77938 79.2031 5.89859 79.0758 6.02222L78.8213 6.26946C78.6546 6.43724 78.4834 6.6006 78.2991 6.75512C78.0534 6.9538 77.8471 7.20988 77.6189 7.43505C77.2284 7.828 76.8027 8.17679 76.4166 8.56974L74.3936 10.6183L73.9328 11.0819C73.4413 11.572 72.9455 12.0533 72.4935 12.5787C72.3706 12.7244 72.1336 12.7641 72.0634 12.8965C71.9713 13.0732 71.8177 13.1659 71.6992 13.2983C71.3876 13.6559 71.0322 13.9562 70.6153 14.2034C70.3959 14.3359 70.1809 14.539 69.9878 14.7332C69.9132 14.8083 69.8518 14.8701 69.7377 14.6847C69.6236 14.4992 69.4437 14.6184 69.3076 14.6935C69.3252 14.7332 69.3471 14.773 69.3559 14.8083C69.3647 14.8878 69.312 14.9275 69.2418 14.9407C69.2199 14.9407 69.1804 14.9407 69.1672 14.9187L69.154 14.9407ZM63.9277 2.60492C63.8969 2.60492 63.8706 2.59609 63.8487 2.6005C63.8355 2.6005 63.8223 2.62258 63.8092 2.63582C63.8355 2.63582 63.8574 2.64465 63.8838 2.64465C63.8969 2.64465 63.9101 2.62258 63.932 2.60933L63.9277 2.60492ZM65.3538 3.13473C65.3802 3.13915 65.4021 3.15239 65.424 3.14798C65.4416 3.14798 65.4592 3.1259 65.4811 3.11266C65.4548 3.10824 65.4284 3.095 65.4065 3.09941C65.3889 3.09941 65.3714 3.12149 65.3494 3.13473H65.3538ZM65.7137 3.36873C65.5469 3.36873 65.4416 3.36432 65.3056 3.3599C65.4328 3.51002 65.5381 3.45703 65.7137 3.36873ZM68.8864 2.83892C68.8864 2.83892 68.9215 2.81684 68.939 2.8036C68.961 2.77711 68.9566 2.7462 68.9302 2.7462C68.9127 2.7462 68.8951 2.76828 68.8776 2.78152C68.8556 2.80801 68.86 2.83892 68.8864 2.83892ZM67.8727 2.84333C67.9517 2.85216 68.0175 2.86099 68.0833 2.86541L68.1053 2.88307L68.0877 2.86099C68.0219 2.81243 67.9517 2.77269 67.8727 2.84333ZM67.3636 2.40182C67.3636 2.40182 67.3812 2.41507 67.39 2.41507C67.3944 2.41507 67.4031 2.40182 67.4075 2.39299C67.3987 2.37975 67.3944 2.3665 67.3856 2.36209C67.3593 2.35326 67.3505 2.3665 67.3636 2.40182ZM66.8327 2.91398C66.8327 2.91398 66.8502 2.93164 66.859 2.93605C66.8722 2.93605 66.8897 2.94047 66.8941 2.93605C66.916 2.91398 66.9029 2.89632 66.8678 2.90073C66.8546 2.90073 66.8458 2.90956 66.8327 2.91839V2.91398ZM68.9917 3.11266L68.9785 3.01994C68.8864 3.02877 68.7898 3.01994 68.7021 3.04643C68.3027 3.15239 67.8858 3.12149 67.4821 3.14798C67.3812 3.15681 67.2934 3.17005 67.1925 3.19213C66.8985 3.25835 66.5782 3.41288 66.3456 3.0376C66.2315 3.0685 66.2534 3.19213 66.1964 3.24952C66.1525 3.29368 66.0954 3.31575 65.9989 3.37756C66.4114 3.34666 66.8195 3.31575 67.2144 3.28485C67.8244 3.24069 68.4124 3.19213 69.0005 3.10824L68.9917 3.11266ZM70.431 2.58726L70.4486 2.5696L70.4573 2.54311L70.4398 2.56077L70.4266 2.58726H70.431ZM70.2204 2.69322C70.2204 2.69322 70.2379 2.67556 70.2423 2.66673C70.2423 2.6579 70.2379 2.64465 70.2335 2.63141C70.2248 2.63141 70.2116 2.63141 70.2028 2.64465C70.1809 2.67556 70.1897 2.69764 70.2204 2.69764V2.69322ZM69.6894 2.69322C69.7728 2.69764 69.8518 2.7153 69.9264 2.65348C69.843 2.63141 69.7596 2.60933 69.6894 2.69322ZM69.2155 2.70205C69.2901 2.76386 69.3471 2.74179 69.3998 2.73296C69.4349 2.72413 69.4305 2.69322 69.3998 2.68881C69.3471 2.68439 69.2945 2.69322 69.2199 2.70205H69.2155ZM70.5758 2.77269C70.3784 2.90956 70.1897 2.81243 70.0448 2.97137C69.7421 2.89632 69.4568 3.04643 69.1584 3.04201C69.4612 3.09941 69.764 3.11707 70.0536 2.9802C70.216 2.94047 70.4266 3.13032 70.5758 2.77269ZM71.3657 1.71306L71.3876 1.7219V1.70423L71.3657 1.71306ZM71.0366 2.47688C71.098 2.49454 71.1682 2.58726 71.2297 2.48571C71.1682 2.40182 71.1024 2.45039 71.0366 2.47688ZM70.6197 1.86318C70.6197 1.86318 70.6548 1.88525 70.668 1.88525C70.6899 1.88525 70.7075 1.87201 70.7294 1.86318L70.6811 1.8411L70.6197 1.86759V1.86318ZM70.9532 2.67556C70.883 2.74179 70.7733 2.69322 70.7031 2.86541C70.8172 2.8036 70.9181 2.81684 70.9532 2.67556ZM71.5544 2.68439L71.5369 2.6579C71.5061 2.63141 71.4798 2.63582 71.4535 2.66231L71.3964 2.75503C71.2779 2.81243 71.1375 2.77269 71.0278 2.86541C70.9708 2.91398 70.9532 2.97137 70.9971 3.04643C71.0322 3.10383 71.0761 3.11707 71.1112 3.05967C71.1902 2.92722 71.3438 2.92281 71.4052 2.76386L71.4623 2.67114L71.5325 2.66231L71.5544 2.67997V2.68439ZM72.0108 2.80801C71.9801 2.62258 71.9537 2.43714 71.8221 2.28261C71.8221 2.32235 71.8221 2.3665 71.8221 2.40624C71.8309 2.46805 71.8133 2.51662 71.8001 2.57401C71.7431 2.83892 71.7475 2.83892 72.0064 2.80801H72.0108ZM76.535 2.05744C76.535 2.05744 76.5526 2.03537 76.5526 2.03095C76.5482 2.00888 76.5394 1.99122 76.5307 1.97356L76.5394 2.05744H76.535ZM76.4561 1.95148L76.5219 1.96914C76.5219 1.96914 76.4868 1.88967 76.4561 1.95148ZM76.2191 1.86759L76.241 1.85876L76.2191 1.84552V1.86759ZM76.0041 1.93824C76.0041 1.93824 76.026 1.92058 76.026 1.91174C76.026 1.90291 76.0216 1.88967 76.0172 1.87642C76.0085 1.87642 75.9909 1.87642 75.9865 1.88525C75.9646 1.91616 75.9733 1.93824 76.0041 1.93824ZM75.6969 1.36427L75.7627 1.37752L75.8285 1.39076L75.8505 1.40842L75.8329 1.38635C75.8329 1.38635 75.7934 1.35103 75.7759 1.3422C75.7495 1.33336 75.7144 1.31129 75.6969 1.36427ZM75.2932 0.807967L75.3107 0.830042L75.3239 0.807967H75.2932ZM74.4287 1.63801C74.455 1.62035 74.4726 1.58061 74.4945 1.55412C74.4726 1.52763 74.4594 1.50997 74.4419 1.49231C74.4243 1.52763 74.4068 1.55854 74.3936 1.59386C74.3848 1.62476 74.4024 1.65567 74.4287 1.64242V1.63801ZM73.8626 1.40842L73.8846 1.42167V1.39518L73.8626 1.40842ZM73.6476 1.43491L73.6695 1.44374V1.42167L73.6476 1.43491ZM73.3931 2.1899C73.573 2.15458 73.7617 2.27378 73.9635 2.15016C73.7441 2.03095 73.573 2.18107 73.3931 2.1899ZM73.178 1.4614C73.1737 1.48789 73.1868 1.49672 73.2175 1.48348C73.2263 1.48348 73.2307 1.47023 73.2351 1.4614L73.2044 1.44816C73.2044 1.44816 73.178 1.45257 73.178 1.4614ZM73.0113 2.24288C73.0113 2.24288 73.042 2.27378 73.064 2.29144C73.0903 2.27378 73.1342 2.26054 73.1429 2.23405C73.1561 2.16782 73.1078 2.1899 73.0815 2.1899C73.0552 2.1899 73.0113 2.1899 73.0157 2.24288H73.0113ZM72.7217 1.58061L72.7436 1.56295C72.7524 1.53205 72.8094 1.56295 72.7875 1.50114L72.7348 1.55854L72.7173 1.58061H72.7217ZM72.2609 2.67997C72.2609 2.64907 72.2477 2.62699 72.2214 2.63582C72.2039 2.63582 72.1863 2.6579 72.1688 2.67114C72.1819 2.68881 72.1951 2.72413 72.2126 2.72413C72.2302 2.72413 72.2434 2.69764 72.2609 2.68439V2.67997ZM72.5549 2.24288C72.5066 2.24288 72.4715 2.26495 72.4408 2.31352C72.3662 2.30027 72.2916 2.21639 72.2126 2.30469C72.2916 2.42831 72.3706 2.39299 72.4452 2.31794C72.4759 2.2782 72.5505 2.34001 72.5549 2.24288ZM73.4457 2.91839L73.4238 2.90956V2.93164L73.4457 2.92281V2.91839ZM73.9591 2.98462L73.9416 3.00228C73.9328 3.03318 73.8758 3.00228 73.8933 3.06409L73.946 3.01111L73.9548 2.98462H73.9591ZM74.2532 2.43273C74.104 2.38416 73.9504 2.54752 73.8231 2.45922C73.63 2.32677 73.4852 2.44597 73.3229 2.50779C73.0683 2.38858 72.8533 2.56077 72.6251 2.62699C72.8402 2.68439 73.0508 2.69764 73.2614 2.61375C73.2878 2.64024 73.3141 2.64465 73.3316 2.60492C73.6651 2.75503 73.9592 2.58726 74.2532 2.43273ZM74.6569 2.03537H74.692L74.7271 2.03095C74.7008 1.99563 74.6744 2.00005 74.6525 2.03537C74.4638 1.96031 74.3014 2.01771 74.1566 2.16782L74.1347 2.14575L74.1478 2.17224C74.2137 2.22522 74.2883 2.33118 74.3541 2.22963C74.4331 2.10601 74.5735 2.15016 74.6481 2.03978L74.6569 2.03537ZM74.692 2.84775H74.6744L74.6832 2.87424V2.84775H74.692ZM75.1703 2.94488L75.1484 2.95371L75.1703 2.96254V2.94488ZM75.2976 2.59609L75.28 2.61375C75.2712 2.64465 75.2142 2.61375 75.2361 2.67556L75.2888 2.62258L75.302 2.59609H75.2976ZM75.4643 2.26937C75.4248 2.08835 75.2888 2.2208 75.1879 2.25171C75.0825 2.28261 74.9641 2.33118 74.9553 2.10601L74.9641 2.07952L74.9465 2.09718C74.8763 2.34884 74.6262 2.30028 74.5208 2.50337C74.7534 2.41065 75.0036 2.52103 75.2317 2.43273C75.3239 2.39741 75.5038 2.45922 75.4643 2.27378V2.26937ZM75.5609 2.03978C75.438 1.81461 75.2976 1.92941 75.1571 1.96914C75.2844 2.07069 75.4292 1.9559 75.5609 2.03978ZM75.7013 2.33118C75.7013 2.33118 75.6881 2.30469 75.6793 2.30028C75.6706 2.30028 75.6618 2.30911 75.6486 2.30911C75.6486 2.32235 75.6486 2.34001 75.6574 2.34884C75.6837 2.37533 75.7013 2.3665 75.7013 2.32677V2.33118ZM75.7539 1.85435C75.7539 1.85435 75.7364 1.86318 75.7364 1.86759L75.7232 1.94265L75.7101 1.96914L75.7276 1.94707L75.7495 1.84993L75.7539 1.85435ZM76.6974 2.34443L76.6272 2.32235C76.5833 2.24288 76.5394 2.15899 76.5307 2.05744C76.32 2.14575 76.1138 2.23846 75.8373 2.35767C76.1533 2.40624 76.3902 2.41948 76.6272 2.32677C76.6491 2.3356 76.6667 2.40624 76.6974 2.34443ZM78.1411 1.33778L78.1762 1.32895L78.1543 1.32012L78.1411 1.3422V1.33778ZM77.6628 1.75722C77.6891 1.74397 77.7243 1.73514 77.7462 1.71748C77.7769 1.68657 77.7637 1.6645 77.7243 1.67774C77.6935 1.68657 77.6628 1.69982 77.6365 1.7219C77.6102 1.74397 77.6233 1.76163 77.6628 1.75722ZM76.8905 1.84552C77.0704 1.93382 77.2064 1.81903 77.3864 1.71748C77.2591 1.74839 77.1494 1.73514 77.0353 1.70865C76.9388 1.68657 76.9037 1.77046 76.8905 1.84993V1.84552ZM78.0753 1.90291L78.0402 1.92499C77.6497 1.94707 77.2372 2.10159 76.8642 2.19431C77.0967 2.43714 77.3161 2.25612 77.5048 2.31352C77.6672 2.37092 77.8427 2.22963 78.0446 1.93382L78.0753 1.90291ZM76.7939 7.54985H76.772L76.7852 7.57192L76.7939 7.54985ZM76.3858 7.03769C76.342 7.07743 76.2717 7.09067 76.2805 7.17015C76.3463 7.15248 76.3858 7.10833 76.3858 7.03769ZM77.2196 7.02886L77.1933 7.01562L77.2064 7.04211L77.2196 7.02886ZM77.1055 6.40633C77.1055 6.40633 77.066 6.41075 77.0529 6.42399C77.0397 6.43724 77.0309 6.46373 77.0221 6.4858C77.0441 6.47697 77.066 6.47697 77.0748 6.46373C77.088 6.45048 77.0967 6.42399 77.1055 6.40633ZM77.6189 6.70656L77.6014 6.71539L77.6277 6.73305L77.6189 6.70656ZM77.3776 5.86327C77.3513 5.83237 77.3293 5.83678 77.3249 5.86769C77.3556 5.90742 77.382 5.95599 77.4215 5.99572C77.4434 6.0178 77.4697 5.99572 77.4522 5.9604C77.4346 5.92508 77.4039 5.88976 77.3732 5.86327H77.3776ZM78.2289 6.11935C78.1148 6.19882 78.0446 6.24297 78.0358 6.3401C78.1324 6.31361 78.1587 6.23856 78.2289 6.11935ZM78.2026 5.61603H78.1806L78.1938 5.6381L78.207 5.61603H78.2026ZM77.9832 5.20983V5.23633C77.9393 5.35995 77.8998 5.48799 77.8296 5.68667C77.9875 5.52772 78.049 5.40851 77.9919 5.23633L77.9832 5.20983ZM79.0144 5.66018L78.931 5.71757C78.9222 5.74406 78.9179 5.75731 78.9135 5.77938C78.9354 5.76614 78.953 5.76614 78.9793 5.73965C78.9968 5.71757 79.0056 5.68667 79.0144 5.66018ZM79.2031 5.201L79.1724 5.21425L79.1855 5.2275L79.2031 5.201ZM79.9315 4.30474C79.8833 4.3224 79.8657 4.34006 79.8833 4.36655C79.9008 4.36655 79.9184 4.37096 79.9359 4.36655C79.9842 4.3533 80.0061 4.32681 79.9842 4.30474C79.9798 4.30032 79.9491 4.30032 79.9315 4.30474ZM79.7121 4.1767H79.6726L79.699 4.19436L79.7121 4.1767ZM79.5454 3.91621C79.4752 3.91621 79.4137 3.93828 79.3786 3.96477C79.3567 4.00009 79.383 4.02217 79.4401 4.031C79.5103 4.03983 79.5673 4.01334 79.598 3.97802C79.6287 3.9427 79.6244 3.91621 79.5454 3.91621ZM80.638 3.58507L80.5898 3.5939L80.6117 3.60273L80.6336 3.58507H80.638ZM80.3616 3.51885L80.3528 3.54092L80.3879 3.51885H80.3616ZM81.3226 3.02435L81.2831 3.05084H81.3138L81.3182 3.02435H81.3226ZM81.6824 2.75503L81.6693 2.77711L81.7132 2.7462L81.678 2.75503H81.6824ZM80.4537 3.0376C80.4537 3.0376 80.4976 3.04643 80.5196 3.05084C80.5503 3.03318 80.6117 3.01111 80.6205 2.99786C80.638 2.9802 80.638 2.95813 80.6117 2.96254C80.5196 2.97579 80.4581 3.01552 80.4537 3.04201V3.0376ZM80.6205 2.83009V2.84333L80.6556 2.81684L80.6205 2.82567V2.83009ZM82.5689 1.81903C82.5469 1.83227 82.5162 1.84993 82.4986 1.85876C82.4811 1.87201 82.4592 1.89408 82.4635 1.8985C82.4811 1.90733 82.5206 1.88525 82.5601 1.84552C82.5732 1.83227 82.5645 1.82786 82.5689 1.81903ZM80.7785 2.45039H80.8004L80.8399 2.44156H80.8223L80.7785 2.45039ZM82.7707 1.57178V1.58944L82.8146 1.55412L82.7707 1.57178ZM81.5025 1.99122C81.5025 1.99122 81.5025 2.00005 81.5069 2.00446C81.5289 1.99122 81.5596 1.97356 81.5727 1.96473C81.5903 1.95148 81.6078 1.93382 81.5991 1.93382C81.5727 1.93382 81.5288 1.9559 81.5025 1.9868V1.99122ZM83.6176 0.785891L83.6045 0.807967L83.6615 0.76823L83.6176 0.785891ZM81.0769 1.44816V1.4614L81.1164 1.43933L81.0769 1.44816ZM81.1295 1.11702L81.0944 1.14793L81.1515 1.11702H81.1295ZM79.7165 1.69982C79.7736 1.68216 79.8306 1.66891 79.8964 1.63801C79.9579 1.6071 79.9842 1.57178 79.9315 1.59386C79.8657 1.62035 79.7911 1.6645 79.7165 1.70423V1.69982ZM78.9924 1.63359C79.0319 1.63359 79.0627 1.64242 79.1065 1.63801C79.146 1.63801 79.1855 1.6071 79.1943 1.58944C79.2206 1.5188 79.1592 1.53646 79.0978 1.56737C79.0671 1.58061 79.0276 1.61152 78.9924 1.63359ZM78.6546 1.67333C78.6151 1.71748 78.6195 1.73073 78.6677 1.70865C78.6809 1.69982 78.7028 1.68216 78.7204 1.66891C78.7204 1.66008 78.7204 1.64684 78.7072 1.64684C78.6941 1.64684 78.6677 1.66008 78.6546 1.66891V1.67333ZM78.1148 2.64465C78.1718 2.54752 78.0621 2.61375 77.9832 2.66673L77.9524 2.69322L77.9788 2.67114C77.9963 2.70205 77.9437 2.77269 77.8647 2.86099C77.8515 2.86982 77.8383 2.88307 77.834 2.88749L77.7945 2.9493L77.733 3.04201L77.812 2.93605C77.812 2.93605 77.8427 2.8919 77.8691 2.86982C77.9481 2.79035 78.0621 2.72413 78.1192 2.63582L78.1148 2.64465ZM78.4483 2.58284V2.5696C78.4483 2.5696 78.422 2.57401 78.4132 2.58284C78.3781 2.60933 78.3781 2.62258 78.4132 2.60933C78.422 2.60933 78.4395 2.59167 78.4527 2.58726L78.4483 2.58284ZM78.4088 2.84775C78.4615 2.8036 78.4483 2.80801 78.3781 2.86099C78.3605 2.87424 78.343 2.88749 78.3254 2.90515C78.3342 2.90515 78.3386 2.90073 78.3474 2.89632C78.3649 2.88307 78.3913 2.86541 78.4088 2.85216V2.84775ZM79.1636 2.73296L79.1022 2.75945C79.0407 2.78594 78.9968 2.79918 78.9222 2.83892C78.8696 2.86541 78.8038 2.90956 78.8476 2.8919C78.9091 2.86099 79.0144 2.80801 79.0978 2.76386L79.1636 2.73296ZM79.3172 2.98903C79.3172 2.98903 79.3435 2.97137 79.3567 2.96696C79.3391 2.97137 79.3216 2.97579 79.2996 2.98462C79.2163 3.01994 79.1899 3.03318 79.2426 3.01994C79.2557 3.01994 79.2952 3.00228 79.3172 2.98903ZM78.2157 3.59832H78.1367L78.0929 3.60715H78.1192C78.1192 3.60715 78.1236 3.60715 78.1411 3.60715C78.185 3.59832 78.0709 3.64247 78.2201 3.60715L78.2157 3.59832ZM77.7067 3.87647C77.8471 3.86764 77.8691 3.84998 77.8822 3.83673C77.891 3.8279 77.9129 3.81024 77.8076 3.83673C77.7286 3.84998 77.5312 3.86764 77.5838 3.87647C77.597 3.87647 77.6716 3.87647 77.7067 3.87647ZM78.4878 3.8279L78.4395 3.80583H78.4088H78.4308C78.4615 3.80583 78.3913 3.83673 78.4922 3.82349L78.4878 3.8279ZM77.5224 4.19436H77.5399L77.5224 4.18553V4.19436ZM77.281 4.3533H77.3074C77.3074 4.3533 77.2942 4.32681 77.2854 4.31798C77.2503 4.29149 77.2372 4.29149 77.2503 4.32681C77.2503 4.33564 77.2679 4.34447 77.281 4.35772V4.3533ZM76.3112 5.66018L76.3244 5.6381H76.3025L76.3156 5.66018H76.3112ZM76.4078 6.26063C76.557 6.30478 76.6009 6.15908 76.7193 6.2209C76.7281 6.24739 76.7018 6.29154 76.7632 6.29595L76.7281 6.2209C76.9124 6.12818 76.9431 5.91184 77.0529 5.76172C77.1538 5.62486 77.1845 5.51889 77.3995 5.69108C77.4785 5.75289 77.5619 5.71316 77.4697 5.58953C77.4434 5.55421 77.3864 5.50123 77.4215 5.48799C77.6628 5.41735 77.6233 5.09946 77.8383 5.01557C77.9832 4.99349 78.0578 4.88312 78.0578 4.78157C78.0534 4.67561 78.4044 4.86546 78.2552 4.64029C78.2157 4.59172 78.3474 4.60496 78.4264 4.64029C78.5536 4.69327 78.501 4.85663 78.7116 4.87429C78.7774 4.73742 79.0627 4.59613 78.716 4.47693C78.6809 4.499 78.6502 4.52108 78.6107 4.53432C78.5712 4.54315 78.4922 4.54757 78.479 4.53432C78.4176 4.48134 78.4834 4.47251 78.5492 4.46368C78.5975 4.45927 78.6502 4.45927 78.6984 4.45485L78.7335 4.41953C78.7335 4.41953 78.7204 4.40187 78.7204 4.39304C78.7204 4.39304 78.7511 4.38421 78.7555 4.38862C78.7687 4.39745 78.773 4.40628 78.7818 4.41511C78.9968 4.32681 78.6195 4.25175 78.7774 4.16787C78.9354 4.07515 79.0144 3.96477 79.1197 3.85881C79.225 3.74843 79.3567 3.64688 79.6858 3.5056C79.7779 3.46587 79.7867 3.4173 79.7428 3.39522L79.5892 3.47028C79.5103 3.46145 79.6287 3.42171 79.6902 3.39081C79.7999 3.17005 80.129 2.8919 80.3089 2.66231C80.3177 2.64907 80.2914 2.64907 80.2826 2.64465C80.4976 2.53869 80.739 2.41948 80.8004 2.34884C80.9672 2.15458 80.9584 2.15899 81.6693 1.81903C81.6693 1.77488 81.4235 1.87642 81.4016 1.84993C81.3972 1.8411 81.3884 1.83227 81.3884 1.82344V1.8102C81.3884 1.8102 81.3884 1.79695 81.3533 1.8102C81.2656 1.83227 81.1822 1.84993 81.0988 1.87201C80.9408 1.90733 80.8092 1.93382 80.6951 1.94707C80.4669 1.97797 80.3045 1.97356 80.1685 1.94707C80.0983 1.93382 80.1202 1.85876 80.3923 1.6645C80.5196 1.5762 80.6117 1.49231 80.4406 1.54971C80.3265 1.58503 80.265 1.6071 80.1158 1.73514C79.8394 1.96473 79.6726 1.98239 79.5892 1.98239C79.4927 1.98239 79.6331 1.8411 79.7209 1.72631C79.6595 1.72631 79.6946 1.6071 79.4883 1.76163C79.0978 2.05744 79.01 2.03537 78.9047 2.00005C78.7204 1.93824 78.3957 2.03095 78.1236 2.07952C78.0314 2.29586 78.0578 2.34001 78.2157 2.30028C78.5492 2.21639 78.9881 2.09718 79.1197 2.2208C79.1768 2.2782 79.2909 2.28261 79.5366 2.20314C79.8438 2.10601 79.8569 2.11926 79.7428 2.32235C79.7209 2.35767 79.813 2.33118 79.9798 2.25171C80.2124 2.14575 80.4976 2.0442 80.3747 2.12367C79.8657 2.44156 80.4581 2.18107 80.5634 2.18107C80.6117 2.17224 80.5634 2.20314 80.5547 2.2208C80.5415 2.23846 80.5327 2.25612 80.5283 2.27378C80.5196 2.30469 80.5196 2.33118 80.5152 2.36209C80.5064 2.41948 80.4669 2.50337 80.2782 2.64024C79.993 2.79477 80.0061 2.83892 79.9271 2.91839C79.8087 3.0376 79.6858 3.15681 79.4532 3.29809C79.462 3.29809 79.4752 3.29809 79.4752 3.30251C79.4752 3.30251 79.4401 3.32017 79.4357 3.32017C79.4181 3.32017 79.4049 3.32017 79.3874 3.32458C79.2777 3.43054 79.2996 3.51443 79.146 3.63805C78.8125 3.91621 78.4834 4.18553 78.1499 4.45927C78.0665 4.52549 78.0183 4.63145 77.9042 4.64912C77.8296 4.66236 77.7813 4.61821 77.8252 4.73742C77.8515 4.83013 77.8427 4.92285 77.8471 5.01557C77.7813 4.97583 77.7155 4.94493 77.6628 4.98908C77.5136 5.11712 77.3118 5.18334 77.2415 5.39085C77.2064 5.49682 77.1406 5.61602 76.9695 5.56746L76.9607 5.54097V5.56746C76.9256 5.65576 76.9124 5.75731 76.7676 5.74406C76.693 5.73523 76.5701 5.78821 76.5921 5.8412C76.6755 6.06195 76.5043 6.14142 76.4209 6.28271L76.4078 6.26063ZM76.6623 6.64916C76.7062 6.67565 76.7457 6.74188 76.7939 6.68448C76.8071 6.66682 76.8159 6.63592 76.8071 6.61826C76.772 6.54761 76.715 6.58293 76.6755 6.57852C76.6096 6.56969 76.6404 6.61384 76.6667 6.64916H76.6623ZM75.9382 6.15025C75.9382 6.15025 75.9777 6.16791 75.9997 6.17233C75.9953 6.13259 75.9953 6.09286 75.9865 6.05312C75.9777 6.02222 75.9558 6.0178 75.9339 6.03988C75.9075 6.07078 75.9075 6.11052 75.9426 6.14584L75.9382 6.15025ZM76.93 7.39973C77.0221 7.34234 77.1011 7.29377 77.1231 7.13924C76.9958 7.2143 76.9739 7.30701 76.93 7.39973ZM75.6267 6.87875C75.789 6.94497 75.8724 6.84784 75.9602 6.9538C76.0041 7.00679 76.0787 7.00679 76.0611 6.93614C76.0128 6.75071 76.1884 6.65358 76.105 6.36218C75.9909 6.61384 75.8856 6.78603 75.6267 6.87875ZM76.6974 7.89864L76.7281 7.88539C76.7281 7.88539 76.7281 7.8589 76.7193 7.85007C76.6886 7.81917 76.6711 7.82358 76.6755 7.86773C76.6755 7.87656 76.6886 7.88981 76.693 7.90305L76.6974 7.89864ZM75.6135 7.13041L75.6398 7.14365L75.6267 7.11716L75.6135 7.13041ZM75.969 7.55426C75.969 7.55426 75.9953 7.55868 75.9997 7.55426C76.0041 7.54543 76.0085 7.52777 75.9997 7.51894C75.9821 7.48803 75.9646 7.48803 75.9558 7.51894C75.9558 7.52777 75.9646 7.54102 75.969 7.55426ZM75.6223 7.48362L75.6355 7.46154H75.6135L75.6267 7.48362H75.6223ZM76.0743 8.27834C75.9514 8.32249 75.9558 8.40196 76.0523 8.55208C76.1884 8.40638 76.3156 8.26509 76.4385 8.12823C76.4824 8.13264 76.4955 8.11498 76.4912 8.07524L76.4824 8.04434V8.07524L76.4648 8.10174L76.4429 8.12823C76.32 8.17679 76.2059 8.23419 76.0787 8.27834H76.0743ZM75.6091 7.93837C75.6091 7.93837 75.5872 7.9163 75.5784 7.92072C75.5696 7.92072 75.5652 7.93838 75.5609 7.94721C75.5652 7.96045 75.574 7.97811 75.5784 7.98253C75.6091 7.99136 75.6223 7.9737 75.6047 7.93837H75.6091ZM74.986 7.84124C75.1352 7.77943 75.1659 7.56751 75.3941 7.7397C75.3458 7.55868 75.1922 7.55426 75.1089 7.4792C75.122 7.28494 75.3063 7.52335 75.3546 7.41739C75.2186 7.24079 75.1045 7.31584 75.0123 7.38649C74.8763 7.49686 74.9026 7.66022 74.9816 7.84566L74.986 7.84124ZM74.5998 7.49686C74.6218 7.46154 74.5911 7.42622 74.5779 7.38649C74.5647 7.35116 74.5296 7.32909 74.5208 7.34675C74.5121 7.37766 74.5252 7.42181 74.5384 7.45713C74.5472 7.49245 74.5735 7.50128 74.5998 7.49245V7.49686ZM74.8192 8.01785C74.8412 8.03109 74.8719 8.04875 74.8938 8.04434C74.9465 8.03551 74.9158 7.99136 74.8938 7.96045C74.8719 7.92072 74.8368 7.90747 74.8017 7.92954C74.7798 7.96045 74.7666 7.99136 74.8192 8.01785ZM75.3766 8.77283C75.3766 8.77283 75.4073 8.78166 75.4117 8.77283C75.438 8.75076 75.4248 8.7331 75.3897 8.72868C75.3809 8.72868 75.3722 8.73751 75.359 8.73751C75.3634 8.74634 75.3722 8.75959 75.3766 8.76842V8.77283ZM73.8275 8.21211C73.8538 8.21211 73.8845 8.22094 73.8977 8.21211C73.9197 8.19445 73.9065 8.16796 73.8714 8.15472C73.8494 8.14589 73.8143 8.14147 73.8012 8.15472C73.7792 8.17238 73.7924 8.19887 73.8275 8.21211ZM74.1786 8.54325C74.2883 8.59623 74.319 8.52117 74.3453 8.45936C74.3673 8.41521 74.3278 8.35781 74.297 8.30925C74.4024 8.20328 74.4945 8.28275 74.5911 8.38872L74.5998 8.41962V8.39313C74.5735 8.26509 74.5472 8.14147 74.5208 8.0046C74.2927 8.00019 74.3014 8.16355 74.297 8.31366C74.2839 8.34898 74.2795 8.38872 74.2619 8.41521C74.2312 8.45494 74.1171 8.39313 74.1303 8.49026C74.1303 8.50793 74.161 8.54325 74.183 8.55208L74.1786 8.54325ZM75.2098 8.92295L75.2361 8.93619L75.223 8.9097L75.2098 8.91853V8.92295ZM74.5735 8.98476V8.95827L74.6657 8.85672L74.7315 8.89204L74.7534 8.88321C74.7315 8.83906 74.6964 8.8523 74.6613 8.84789C74.5735 8.83464 74.5516 8.88321 74.5603 8.95827L74.5735 8.98476ZM74.9509 9.46601C75.2976 9.44393 75.3809 9.21876 75.495 9.02891C75.517 9.02891 75.5477 9.02891 75.5652 9.02008C75.5916 9.00683 75.6355 8.998 75.6047 8.94502C75.5828 8.95385 75.5652 8.9671 75.5433 8.98034C75.5257 8.99359 75.5082 9.00683 75.4906 9.02449C75.1966 9.03332 75.1703 9.31589 74.9465 9.46601H74.9509ZM74.0469 8.80815C74.0469 8.80815 74.0557 8.78608 74.0557 8.77725C74.0469 8.77725 74.0338 8.77283 74.025 8.77725C74.0162 8.78166 74.003 8.79049 74.003 8.80374C74.003 8.83464 74.025 8.83906 74.0469 8.81257V8.80815ZM74.6481 9.63819L74.7929 9.66027C74.8149 9.67351 74.8324 9.69118 74.85 9.71325L74.8587 9.73974V9.70884C74.8587 9.70884 74.8587 9.68235 74.85 9.67793C74.8324 9.66469 74.8105 9.65585 74.7929 9.64702C74.7446 9.64702 74.6832 9.54106 74.6481 9.63378V9.63819ZM73.8626 8.998L73.8714 8.97151L73.8451 8.98034L73.8626 8.998ZM74.3278 9.44834L74.3541 9.45717C74.3848 9.44393 74.4243 9.43951 74.4462 9.41744C74.4638 9.39978 74.4331 9.36004 74.4155 9.36887C74.3892 9.38212 74.376 9.41744 74.3541 9.44393H74.3278V9.44834ZM73.6608 8.86113L73.6871 8.87438L73.6739 8.84789L73.6608 8.86113ZM72.533 11.3424C72.5856 11.5279 72.6515 11.6427 72.6383 11.7707C72.6295 11.8413 72.691 11.9164 72.7743 11.8987C72.8533 11.8811 72.8665 11.8104 72.8314 11.7354C72.7787 11.6029 72.7261 11.4661 72.5286 11.3424H72.533ZM72.4277 11.2188H72.4013L72.4145 11.2409L72.4277 11.2188ZM72.985 11.3115C72.9367 11.3071 72.9499 11.3689 72.9806 11.4042C73.0157 11.4484 73.0552 11.497 73.1166 11.4837C73.1166 11.4616 73.1298 11.4263 73.1166 11.4131C73.0771 11.3733 73.0289 11.3159 72.985 11.3115ZM73.1956 11.0643C73.1693 11.0864 73.1737 11.1084 73.2088 11.1305L73.3141 11.1923C73.3141 11.1658 73.3141 11.1393 73.3053 11.1173C73.279 11.0819 73.2439 11.0554 73.2 11.0643H73.1956ZM72.8709 10.3225L72.8445 10.3314L72.8621 10.349L72.8709 10.3225ZM73.3141 10.6625C73.3141 10.6625 73.2878 10.6625 73.279 10.6669C73.2702 10.6713 73.2614 10.6846 73.257 10.6934C73.257 10.6934 73.2658 10.7067 73.2746 10.7155L73.3141 10.6625ZM73.9548 10.5256V10.5521L73.9416 10.6316L73.9635 10.5521L73.9548 10.5256ZM73.7573 10.4594L73.7441 10.4417L73.731 10.4638H73.7529L73.7573 10.4594ZM74.0513 10.2122C74.0162 10.1813 73.9723 10.1724 73.9855 10.2298C73.9899 10.2563 74.0338 10.2916 74.0645 10.3137C74.0776 10.3225 74.104 10.3049 74.1303 10.3005C74.104 10.2696 74.082 10.2342 74.0513 10.2122ZM74.6306 9.90752L74.6393 9.88544H74.6174L74.6306 9.90752ZM73.6608 9.13929C73.6608 9.13929 73.6915 9.15253 73.6959 9.14812C73.7222 9.13487 73.7222 9.10838 73.6959 9.0863C73.6871 9.07747 73.6651 9.07306 73.6608 9.07747C73.6344 9.09072 73.6344 9.1128 73.6608 9.13929ZM73.5554 9.30706H73.5818L73.5686 9.28499L73.5554 9.30706ZM74.0689 9.80597C74.0689 9.80597 74.1347 9.78831 74.1478 9.76623C74.1654 9.73974 74.1566 9.70001 74.161 9.66468L74.082 9.48808L74.0689 9.45717V9.48366L74.025 9.53665H73.9943L74.025 9.54548L74.1522 9.66027C74.1522 9.66027 74.1171 9.69118 74.1084 9.70884C74.0908 9.73974 74.003 9.73091 74.0689 9.80155V9.80597ZM74.3541 10.1636V10.1327L74.3453 10.1018V10.1327L74.3541 10.1636ZM72.2741 10.04L72.3004 10.0311L72.2872 10.0135L72.2785 10.04H72.2741ZM72.4057 10.1459L72.4233 10.1636L72.432 10.1371L72.4057 10.1459ZM72.2872 10.7155C72.3311 10.7331 72.3794 10.7155 72.3838 10.6713C72.3838 10.3932 72.6207 10.3005 72.8007 10.2431C73.064 10.1592 73.0815 10.0091 73.0859 9.79272C73.0859 9.7574 73.1517 9.74416 73.1298 9.70884L73.1386 9.70001C73.2526 9.70884 73.3975 9.68235 73.336 9.88544H73.3053L73.336 9.88986C73.4106 9.9605 73.4326 10.0311 73.3931 10.1106C73.3843 10.1283 73.2965 10.1857 73.4282 10.1945C73.5598 10.2033 73.6915 9.97816 73.6037 9.92959C73.3185 9.77948 73.4589 9.57638 73.3667 9.36004C73.3229 9.43951 73.2834 9.51899 73.121 9.69559C73.1166 9.69118 73.1078 9.68676 73.0991 9.67793C73.0245 9.62495 72.9674 9.65586 72.9499 9.7265C72.906 9.88544 72.805 9.99582 72.9586 9.85895C72.8533 9.95608 72.7217 10.0797 72.5549 10.2386C72.4759 10.327 72.3574 10.4462 72.2477 10.5786C72.2126 10.6183 72.2082 10.6846 72.2828 10.7155H72.2872ZM72.8533 11.0996H72.8796L72.8489 11.0908C72.748 11.0643 72.6997 11.0157 72.7436 10.9142C72.7699 10.8524 72.7875 10.7905 72.8094 10.7287C72.8358 10.7287 72.8621 10.7331 72.884 10.7287C72.9148 10.7155 72.9543 10.7022 72.9367 10.6537L72.8709 10.689L72.805 10.7199C72.748 10.6802 72.6515 10.5963 72.6471 10.6007C72.5374 10.7199 72.4979 10.8833 72.5681 11.0466C72.6295 11.1923 72.7524 11.1393 72.8533 11.104V11.0996ZM71.8309 11.0731C72.0634 11.0599 72.081 10.9451 72.081 10.795C71.8879 10.7861 71.8879 10.9274 71.8309 11.0731ZM71.6378 11.338L71.6509 11.3248L71.6246 11.3159L71.6378 11.3424V11.338ZM71.8221 11.5499C72.1161 11.5411 72.0985 11.3115 72.1161 11.0996C72.0327 11.2585 71.9406 11.4087 71.8221 11.5499ZM72.1117 11.8369C72.1117 11.8369 72.1336 11.8546 72.1424 11.8546C72.1819 11.8546 72.1907 11.8413 72.1644 11.8148C72.16 11.806 72.138 11.806 72.1293 11.8104C72.1205 11.8104 72.1161 11.8281 72.1117 11.8369ZM71.2779 11.2541L71.2999 11.1658V11.1349L71.2911 11.1658L71.2823 11.2541H71.2779ZM72.2434 12.4153C72.3004 12.38 72.2565 12.3226 72.2609 12.274L72.2477 12.1548C72.2477 12.1548 72.2785 12.1151 72.296 12.0974H72.3267H72.2916C72.2477 12.0974 72.2302 12.1151 72.2346 12.1548L72.2434 12.274C72.2346 12.3138 72.2214 12.3491 72.217 12.3888C72.217 12.3976 72.239 12.4153 72.239 12.4153H72.2434ZM71.8704 12.4771C71.8704 12.5433 71.8879 12.6184 71.9581 12.6846C71.9713 12.6979 72.0196 12.6979 72.0327 12.6846C72.0898 12.614 72.0678 12.5301 72.0064 12.4595C71.9757 12.4241 71.9274 12.433 71.8704 12.4771ZM71.1551 11.8193C71.1551 11.8193 71.1858 11.8325 71.1946 11.8281C71.2253 11.8148 71.2209 11.7928 71.1858 11.7751C71.177 11.7751 71.1595 11.7751 71.1507 11.7884C71.1463 11.7928 71.1507 11.8104 71.1507 11.8193H71.1551ZM71.5983 12.3712L71.6685 12.4065C71.6773 12.3579 71.6904 12.3093 71.6948 12.2564C71.6948 12.2564 71.6422 12.2255 71.629 12.2299C71.5763 12.2608 71.5851 12.3138 71.6027 12.3712H71.5983ZM71.1902 12.1725L71.2033 12.146H71.177L71.1902 12.1725ZM71.6115 12.8082C71.5763 12.8303 71.5807 12.8833 71.629 12.901C71.6597 12.9142 71.6992 12.8921 71.7343 12.8833C71.7299 12.8568 71.7255 12.8171 71.7212 12.8171C71.686 12.8082 71.6378 12.795 71.6115 12.8127V12.8082ZM71.2604 12.5522C71.2867 12.5478 71.3131 12.6184 71.3438 12.5654L71.2604 12.5478C71.2604 12.5478 71.2165 12.5213 71.1946 12.5124C71.1902 12.5124 71.177 12.5124 71.1726 12.5213C71.1946 12.5654 71.2297 12.5566 71.2604 12.5566V12.5522ZM71.4315 13.082C71.4315 13.082 71.4535 13.0776 71.4666 13.0732C71.4666 13.0599 71.4666 13.0467 71.4623 13.0378C71.4535 13.029 71.4315 13.0246 71.4228 13.029C71.392 13.0467 71.3964 13.0687 71.4315 13.082ZM70.8918 13.5191L70.9576 13.5102V13.444C70.9576 13.444 70.9049 13.4352 70.8918 13.444C70.8786 13.4573 70.8918 13.4926 70.8918 13.5147V13.5191ZM70.5276 13.8502H70.5583L70.6636 13.8855L70.6548 13.8193L70.5539 13.8458H70.5232L70.5276 13.8502ZM70.3257 13.9915C70.352 14.018 70.4003 14.0577 70.4179 14.0533C70.4617 14.0356 70.4354 13.9915 70.4266 13.9827C70.3827 13.9297 70.3433 13.9076 70.3081 13.9297C70.2994 13.9341 70.3081 13.9783 70.3257 13.9959V13.9915Z" fill="#5938E0"/>
<path d="M69.7289 13.4705C69.8606 13.422 69.9527 13.3469 70.0185 13.1306C69.8386 13.2586 69.7552 13.3425 69.7289 13.4705Z" fill="#5938E0"/>
<path d="M69.6061 14.9458C69.6061 14.9458 69.6286 14.9458 69.6331 14.9458C69.6376 14.9413 69.6376 14.9277 69.6376 14.9187H69.6061L69.6016 14.9503L69.6061 14.9458Z" fill="#5938E0"/>
<path d="M78.7467 3.10381C78.7467 3.10381 78.6984 3.12589 78.6721 3.13472L78.6414 3.15238L78.716 3.11706C78.716 3.11706 78.7511 3.09498 78.7467 3.0994V3.10381Z" fill="#5938E0"/>
<path d="M70.4222 12.4418C70.4222 12.4418 70.4222 12.4197 70.4222 12.4065C70.5451 12.3182 70.5715 12.1371 70.7558 12.0974C70.883 12.0709 70.8304 11.9473 70.7558 11.8634C70.6855 11.7839 70.6066 11.6912 70.5012 11.7C70.374 11.7089 70.4047 11.8325 70.4003 11.9296C70.4003 11.9694 70.3784 12.0047 70.3652 12.0444C70.1721 12.1195 70.1765 12.1592 70.3871 12.4065C70.3871 12.4197 70.3915 12.433 70.3959 12.4418C70.3959 12.4418 70.4179 12.4418 70.4222 12.4418Z" fill="#5938E0"/>
<path d="M73.2658 2.60492H73.2965H73.3273C73.3273 2.57843 73.3273 2.55194 73.3185 2.52545C73.2834 2.53428 73.2614 2.56077 73.2614 2.60934L73.2658 2.60492Z" fill="#5938E0"/>
</g>
<defs>
<clipPath id="clip0_325_2070">
<rect width="85" height="95" fill="white"/>
</clipPath>
</defs>
</svg>
