<svg width="91" height="72" viewBox="0 0 91 72" fill="none" xmlns="http://www.w3.org/2000/svg">
<g clip-path="url(#clip0_325_996)">
<path d="M74.9439 23.2664C74.9767 23.2924 75.0181 23.316 75.0667 23.3463C75.0338 23.3336 74.9894 23.3153 74.9235 23.2899C74.9308 23.2834 74.9337 23.2782 74.9439 23.2664Z" fill="#5938E0"/>
<path d="M83.343 29.6363C83.0776 29.3517 82.8252 29.0501 82.5684 28.763C82.3202 28.4869 81.8763 28.6849 81.6901 28.3688C81.4962 28.1395 81.2808 27.9029 81.0957 27.6444C80.9946 27.5042 81.0331 27.3286 81.1748 27.1902C81.3021 27.0648 81.4471 27.0857 81.5703 27.1528C81.8925 27.3278 82.2738 27.468 82.2853 27.8962C82.2936 28.1653 82.3764 28.2529 82.64 28.1508C82.8072 28.0853 82.955 28.1143 82.9972 28.249C83.145 28.714 83.5382 29.011 83.7741 29.4152C83.8438 29.5333 83.8312 29.7015 83.6797 29.7848C83.5167 29.8758 83.4371 29.7429 83.3401 29.6416L83.343 29.6363Z" fill="#5938E0"/>
<path d="M83.9987 31.9672C84.0932 31.8023 83.9326 31.7503 83.8584 31.6602C83.8257 31.6207 83.79 31.5864 83.7572 31.5468C83.8106 31.2913 83.6965 31.1548 83.438 31.1352L83.3733 31.1404L83.4381 31.1218C83.5452 31.0067 83.6395 30.8685 83.5339 30.7563C82.8731 30.0597 82.2717 29.3016 81.3404 28.8914C81.2171 28.8377 81.1291 28.885 81.0666 29.0052C81.0389 29.0621 81.1924 29.0939 81.0684 29.1604L81.0363 29.0139C80.96 28.8221 80.8089 28.6339 80.8317 28.4405C80.8759 28.0631 80.8917 27.8495 80.4368 28.193L80.2645 27.9441C80.3545 27.8072 80.4978 27.6595 80.2613 27.5669C80.1853 27.5396 80.0758 27.5798 80.0552 27.6569C80.011 27.8163 80.1616 27.8667 80.2602 27.9453C79.729 27.8657 79.4405 27.5967 79.4648 27.1893C79.4745 27.0264 79.4556 26.836 79.537 26.7015C80.0338 25.8922 79.5846 25.3665 79.1743 24.8163C79.0561 24.6543 78.8849 24.6943 78.7327 24.6666C78.5045 24.625 78.2876 24.6158 78.5025 24.2786C78.5765 24.164 78.3972 24.1129 78.289 24.1838C78.0941 24.3196 77.922 24.48 77.6634 24.6918C77.7255 23.9844 77.3962 23.5846 76.9042 23.2358C76.7268 23.1085 76.5784 22.9551 76.4344 22.7872C76.3674 22.704 76.2947 22.618 76.2233 22.536C76.1949 22.4952 76.1435 22.4432 76.1293 22.4161L76.111 22.3635C76.0955 22.3056 76.0045 22.385 75.899 22.4774C75.8494 22.5806 75.7985 22.6797 75.6567 22.818C75.6529 22.739 75.8292 22.5908 75.8874 22.4852C75.8853 22.3701 75.7559 22.3804 75.8117 22.1998C75.9055 21.9239 75.9008 21.7606 75.4936 22.0638C75.4748 22.078 75.4997 21.9997 75.5014 21.9637C75.5446 21.9513 75.5688 21.98 75.6746 21.8474C75.6877 21.8304 75.7022 21.804 75.6994 21.7959C75.6897 21.7408 75.5912 21.8535 75.5233 21.9174C75.1769 22.1364 75.1968 21.9617 75.3353 21.6641C75.3979 21.5305 75.4563 21.3981 75.1943 21.6821L75.1186 21.8328C75.078 21.8799 75.0849 21.9269 75.007 21.9759L75.1027 21.8417L75.1828 21.6899C75.1187 21.6014 75.3224 21.2184 74.9311 21.4992C74.9196 21.507 74.927 21.4604 74.9474 21.4234C75.1598 21.0379 74.8888 21.1598 74.764 21.1288C74.7322 21.1467 74.6582 21.2613 74.6513 21.2143L74.7669 21.1235C74.8437 21.0304 74.9349 20.9242 74.8644 20.9399C74.7694 20.9671 74.6251 21.0439 74.6779 20.8953C74.7306 20.7468 74.7918 20.6091 74.481 20.8893C74.3105 21.0403 74.3531 20.8902 74.3695 20.801C74.3845 20.7077 74.3646 20.6778 74.1807 20.8861L74.0978 21.0432C74.0918 21.0806 74.1016 21.1089 74.0725 21.1617C74.0507 21.208 73.9944 21.2508 74.0061 21.2163C74.0193 21.1724 74.0585 21.1078 74.0833 21.0563L74.1633 20.9044C74.2333 20.7509 74.3582 20.5506 74.2085 20.5978C74.1739 20.6077 74.1308 20.6067 74.1469 20.5709C74.3234 20.1646 74.0381 20.2861 73.7832 20.3723L73.6531 20.4762L73.7876 20.3577C74.0937 19.9143 74.0835 19.7215 73.7394 20.0289C73.2407 20.4783 73.3109 20.2847 73.3844 20.0458C73.4005 19.9967 73.3357 20.0152 73.3114 19.9999L73.2812 20.0085L73.3201 19.984C73.501 19.7944 73.5434 19.6844 73.5512 19.5977C73.5593 19.4574 73.4438 19.5349 73.2047 19.8301C73.1424 19.9102 73.1189 19.9926 72.9861 20.075C73.0388 19.9265 73.0901 19.7739 73.1458 19.6201C73.1736 19.5365 73.2044 19.4476 73.0773 19.5462C72.836 19.7397 72.87 19.6054 72.947 19.4722C73.1708 19.0924 72.9733 19.1933 72.754 19.3137L72.7308 19.356L72.7425 19.3215C72.7967 19.1636 72.8654 18.9927 72.5238 19.3617C72.5151 19.3776 72.5078 19.3975 72.4976 19.4093L72.4007 19.4992L72.3647 19.5184L72.4066 19.4887L72.5238 19.3617C72.3263 19.4493 72.2332 19.4136 72.2775 19.2274C72.2922 19.1743 72.3315 19.0963 72.3347 19.0509C72.3682 18.7655 72.3249 18.7912 71.8502 19.3095C71.8299 19.3331 71.791 19.3442 71.7579 19.3581C71.7339 19.2893 71.8927 19.1727 71.9666 19.0849C72.3013 18.6689 72.3436 18.5723 72.0885 18.6852C71.9026 18.765 71.8497 18.7223 71.878 18.5718C71.8914 18.5013 71.7815 18.6083 71.6961 18.7039L71.6685 18.7474L71.6845 18.7117C71.672 18.6485 71.7305 18.5028 71.6166 18.5575C71.2518 18.7374 71.2938 18.4762 71.3053 18.2505C71.3069 18.2278 71.2261 18.282 71.1857 18.3025C71.1538 18.3472 71.1665 18.3836 71.0814 18.4391L71.1828 18.3077C70.7629 18.3565 70.6991 17.9965 70.3361 17.9223C70.1079 18.3034 69.9769 18.5677 69.6945 18.8887C69.6007 18.7286 69.6315 18.6397 70.0211 18.1769C70.1862 17.9829 70.3064 17.8507 70.2999 17.7369C70.295 17.6137 70.1825 17.6725 69.9672 17.8586C69.8587 17.9563 69.7172 18.068 69.745 17.9844C69.8258 17.7255 69.487 17.8846 69.6734 17.5199C69.7665 17.3375 69.7181 17.2802 69.6 17.3095C69.4877 17.3416 69.4028 17.3703 69.4311 17.2198C69.4697 17.0308 69.2385 17.2125 68.878 17.6225L68.8504 17.666L68.8708 17.629C68.8708 17.629 68.8595 17.5967 68.8553 17.5845C68.8626 17.5646 68.8756 17.5476 68.8844 17.5317C68.8844 17.5317 68.8613 17.5472 68.8497 17.555L68.822 17.6118C68.6419 17.6811 68.7349 17.5255 68.9446 17.3366C69.2612 17.0459 69.1965 17.051 69.08 17.071C68.9577 17.0881 68.9021 17.0239 68.8913 16.9113L68.886 16.855C68.5735 17.1712 68.6018 17.0207 68.5951 16.9336C68.5847 16.7675 68.105 17.3806 68.1293 17.1913C68.1429 17.0806 68.3646 16.8037 68.273 16.7587C68.1197 16.6868 67.8435 16.7257 67.9275 16.408C67.9821 16.1967 67.1641 17.1066 67.6661 16.3937C67.6063 16.304 67.5393 16.2208 67.4825 16.1259C67.4142 16.0119 67.3141 15.9426 67.1171 15.9633C66.9474 15.9806 66.7634 15.9842 66.8039 15.7324C66.8473 15.4753 66.7967 15.5209 66.3207 16.0084C66.2758 16.0568 66.2309 16.1052 66.221 16.0903C66.2139 16.07 66.207 16.0364 66.2317 15.9849C66.3017 15.8314 66.3928 15.534 66.3295 15.5432C66.1281 15.5785 66.2364 15.2761 66.0799 15.263C66.0167 15.2588 66.068 15.1062 65.8277 15.3706C65.7393 15.4715 65.7048 15.4814 65.7369 15.4099C65.9365 14.988 65.5894 15.1095 65.6315 14.8349C65.6748 14.5778 65.2648 15.0776 65.0469 15.2155C65.4065 14.7346 65.4496 14.5176 65.1949 14.5637C65.0841 14.5864 65.0211 14.5555 65.0276 14.4513C65.0309 14.1612 64.9908 13.9235 64.6134 14.0535C64.7778 13.7485 64.1705 14.3224 64.3888 13.913C64.5241 13.6608 64.2098 13.8084 64.166 13.6964C64.1151 13.5641 64.0398 13.4432 63.8224 13.5009C63.6396 13.5487 63.7895 13.2567 63.6791 13.2259C63.4008 13.1497 63.2456 12.936 62.9817 12.8468L62.814 12.7879C62.814 12.7879 62.7996 12.7876 62.7624 12.7626L62.6394 12.6821L62.399 12.5238C62.0742 12.3141 61.7537 12.1031 61.4289 11.8934C60.7806 11.4779 60.1165 11.0714 59.4205 10.7097C58.3893 10.1767 57.322 9.68969 56.3285 9.10145C56.1138 8.97593 55.7945 8.79574 55.6309 8.98041C55.1807 9.48723 55.1034 9.00655 54.9103 8.86148C54.693 8.70112 54.4973 8.52122 54.29 8.34906C54.2086 8.2789 54.1185 8.2112 53.9914 8.30981C53.8903 8.38763 53.7844 8.53356 53.8444 8.59652C54.1155 8.8839 53.7744 9.17265 53.764 9.45595C53.7399 10.2726 54.2494 10.8078 54.7231 11.322C55.6206 12.2891 56.7148 13.0711 57.6947 13.9612C58.3846 14.5917 59.1223 15.1685 59.86 15.7452L60.1159 15.948L60.2703 16.0774C60.3674 16.1653 60.463 16.2626 60.5442 16.3728C60.7764 16.6847 61.1229 16.8749 61.3262 17.2128C61.5195 17.5358 61.8388 17.716 61.9771 18.0991C62.0773 18.373 62.3497 18.4598 62.4992 18.6841C62.7894 19.1217 63.2896 19.3303 63.535 19.8164C63.5116 19.872 63.5259 19.8857 63.5807 19.8522C63.9123 20.1223 64.3524 20.2814 64.5451 20.6979C64.6953 21.0199 65.1787 20.9485 65.3477 21.2428C65.5608 21.6224 65.9388 21.8214 66.3488 21.9757C66.8677 22.17 67.1289 22.6604 67.7073 22.78C68.1579 22.8737 68.426 23.1797 68.8549 23.293C69.1849 23.3812 69.3933 23.5975 69.716 23.6921C69.9311 23.7508 70.0709 23.9066 70.2527 24.0193C70.5561 24.2085 70.9377 24.3086 71.2339 24.5043C71.7518 24.8457 72.3031 25.1465 72.8181 25.4932C72.9297 25.5681 73.05 25.6405 73.1688 25.7089L74.2973 26.5211C75.0653 27.0758 75.8232 27.6424 76.5463 28.2455C76.8407 28.4907 77.3363 28.5226 77.5187 28.7597C77.7609 29.0731 78.0962 29.2176 78.3764 29.449C79.1167 30.0606 79.924 30.5508 80.8512 30.9354C81.3399 31.1384 81.832 31.4739 82.2839 31.8031C82.4556 31.9275 82.5971 32.0339 82.7836 31.6559C82.9714 31.2819 83.3668 31.4625 83.6665 31.5727C83.6458 31.6498 83.6022 31.729 83.6046 31.8039C83.6064 31.9591 83.7224 32.0194 83.8689 32.031C83.9178 32.0348 83.9984 32.0073 84.0159 31.9756L83.9987 31.9672ZM55.3819 11.2228C55.3232 11.1906 55.2744 11.1734 55.2387 11.1391C55.2173 11.1185 55.2162 11.0744 55.2135 11.0395C55.2594 11.062 55.3081 11.0792 55.3481 11.1123C55.3696 11.1329 55.3707 11.177 55.3862 11.2215L55.3819 11.2228ZM58.4361 12.0142C58.4849 12.0314 58.5409 12.0421 58.5751 12.0724C58.6037 12.0998 58.6106 12.1468 58.6318 12.1941C58.5773 12.1741 58.5214 12.1634 58.4871 12.1331C58.4585 12.1057 58.4502 12.0547 58.4361 12.0142ZM59.311 12.0579C59.0234 11.8731 58.8402 11.7564 58.6084 11.6091C59.0013 11.5235 59.1164 11.7176 59.311 12.0579ZM62.2217 14.9993C62.2217 14.9993 62.2128 15.0419 62.2069 15.0658C62.185 15.1121 62.1474 15.154 62.1259 15.1468C62.1158 15.1452 62.1305 15.1055 62.1393 15.0762C62.1568 15.0312 62.1988 14.9881 62.216 14.9965L62.2217 14.9993ZM61.6056 14.717C61.6659 14.7265 61.7162 14.7344 61.765 14.7383L61.7967 14.7203L61.7549 14.75C61.651 14.8064 61.5588 14.8416 61.5999 14.7142L61.6056 14.717ZM60.7343 15.2285C60.7343 15.2285 60.766 15.2105 60.7688 15.2186C60.7688 15.2186 60.7586 15.2438 60.7528 15.2543C60.734 15.2686 60.7094 15.2934 60.7008 15.2959C60.6706 15.3045 60.6851 15.2781 60.7357 15.2325L60.7343 15.2285ZM60.6862 14.0276C60.6862 14.0276 60.7337 14.014 60.7552 14.0212C60.7767 14.0284 60.8111 14.0453 60.8138 14.0668C60.8206 14.1271 60.7817 14.1382 60.7231 14.0927C60.7045 14.0802 60.699 14.0506 60.6862 14.0276ZM62.6323 14.624L62.5064 14.7533C62.4607 14.7175 62.3918 14.6971 62.3678 14.6417C62.256 14.3755 61.9662 14.307 61.7516 14.1548C61.6944 14.1133 61.6745 14.0834 61.6161 13.9977C61.1937 13.5623 60.8326 12.9624 59.9927 13.278C59.8358 13.1004 60.0137 12.9294 59.9859 12.7816C59.9637 12.6634 59.894 12.5588 59.7991 12.3545C60.2423 12.6995 60.6783 13.0377 61.1087 13.373C61.3875 13.587 61.6663 13.801 61.9437 14.0109C62.1896 14.1987 62.424 14.3943 62.6266 14.6211L62.6323 14.624ZM62.8502 15.7941L62.8385 15.8286L62.8138 15.8668L62.8226 15.8376L62.8502 15.7941ZM62.853 15.5842C62.853 15.5842 62.8442 15.6134 62.8312 15.6305C62.8224 15.6463 62.7993 15.6618 62.782 15.6802C62.7791 15.6721 62.7734 15.6692 62.7778 15.6546C62.8069 15.6018 62.8387 15.5705 62.8516 15.5802L62.853 15.5842ZM62.5292 15.432C62.5866 15.4468 62.6527 15.4457 62.629 15.5548C62.5514 15.5636 62.4737 15.5725 62.5292 15.432ZM62.2485 15.2942C62.3711 15.2236 62.3823 15.2693 62.3979 15.3005C62.405 15.3207 62.3687 15.3666 62.3429 15.3607C62.307 15.3531 62.2871 15.3232 62.2485 15.2942ZM63.1765 15.5585C63.2256 15.3042 62.9937 15.3883 63.1004 15.122C62.82 15.1487 62.8378 14.8456 62.6457 14.7714C62.9058 14.7683 63.1109 14.8253 63.1191 15.1078C63.1659 15.2145 63.5381 14.9881 63.1765 15.5585ZM62.3183 17.3476L62.3442 17.3402L62.3196 17.365L62.314 17.3488L62.3183 17.3476ZM63.0794 16.1246C63.1383 16.1167 63.2972 16.0001 63.2084 16.1679C63.0654 16.2754 63.0818 16.1862 63.0794 16.1246ZM62.0538 16.9159C62.0538 16.9159 62.1029 16.893 62.11 16.8999C62.1215 16.9055 62.1213 16.9323 62.1183 16.9509L62.0578 16.9682L62.0553 16.92L62.0538 16.9159ZM63.2812 15.8045C63.3222 15.6904 63.1926 15.7274 63.3683 15.4548C63.3589 15.5776 63.4408 15.5809 63.2812 15.8045ZM63.6625 15.9581L63.622 15.9919C63.5672 16.0253 63.5572 16.0104 63.5777 15.96L63.6577 15.8081C63.6599 15.6918 63.5233 15.7086 63.5704 15.5439C63.5968 15.4563 63.6563 15.3681 63.7834 15.2695C63.8802 15.1929 63.9248 15.1846 63.8695 15.2849C63.7546 15.5002 63.839 15.5517 63.675 15.8032L63.5906 15.9563L63.6249 15.9866L63.661 15.9674L63.6625 15.9581ZM64.094 15.9015C63.8407 16.1696 63.5875 16.4378 63.3117 16.6278C63.3667 16.5676 63.4203 16.5033 63.471 16.4443C63.5535 16.354 63.6072 16.2764 63.6681 16.1923C63.9669 15.7821 63.9712 15.7809 64.0896 15.9028L64.094 15.9015ZM65.9207 18.2538C65.9207 18.2538 65.9047 18.2896 65.8974 18.2961C65.8685 18.3221 65.8396 18.3482 65.8107 18.3743L65.9207 18.2538ZM65.7373 18.3952L65.8006 18.386C65.7674 18.4 65.6806 18.4915 65.7373 18.3952ZM65.4898 18.4481L65.4954 18.4643L65.4623 18.4783L65.4883 18.4441L65.4898 18.4481ZM65.4477 18.2866C65.4477 18.2866 65.4389 18.3159 65.4259 18.3329C65.4171 18.3488 65.3897 18.3655 65.3723 18.3838C65.3695 18.3757 65.3595 18.3741 65.3653 18.3636C65.3944 18.3108 65.4262 18.2794 65.4434 18.2879L65.4477 18.2866ZM64.5316 19.0511L64.5876 19.0485L64.6437 19.0458L64.6754 19.0278L64.6336 19.0576C64.6018 19.0756 64.5672 19.0988 64.5456 19.105C64.5154 19.1136 64.4664 19.1365 64.5259 19.0483L64.5316 19.0511ZM63.5798 19.768L63.6174 19.7394L63.597 19.7764L63.5798 19.768ZM64.1026 18.2972C64.0952 18.3305 64.0603 18.3938 64.0341 18.4413C63.9879 18.4723 63.9547 18.4996 63.92 18.5229C63.9534 18.4688 63.9782 18.4173 64.0202 18.3608C64.0551 18.3108 64.1071 18.2692 64.0983 18.2984L64.1026 18.2972ZM63.4647 18.4839L63.495 18.4752L63.4602 18.5119L63.4647 18.4839ZM63.3648 18.3879L63.3907 18.3804L63.3589 18.4118L63.3648 18.3879ZM64.1616 17.1992C64.2299 17.2998 64.4951 17.1751 64.4605 17.4163C64.1737 17.5339 64.2603 17.2644 64.1616 17.1992ZM63.1101 18.2159C63.1391 18.1765 63.1593 18.1663 63.1634 18.1918C63.1663 18.1999 63.1532 18.2169 63.1488 18.2315L63.1143 18.2414C63.1143 18.2414 63.1043 18.2265 63.1144 18.2147L63.1101 18.2159ZM63.9975 17.0147C64.0178 16.9911 64.0553 16.976 64.0913 16.9568C64.0839 16.99 64.0952 17.0224 64.0662 17.0618C63.9922 17.163 63.9853 17.1161 63.9739 17.1104C63.9567 17.102 63.9266 17.0973 63.9975 17.0147ZM62.977 17.9158L62.9696 17.949C62.9377 17.9938 63.0097 17.9687 62.9201 18.0522L62.9581 17.9568L62.977 17.9158ZM64.0894 16.1609C64.0488 16.2081 64.0156 16.2354 64.0085 16.2151C64.0043 16.203 64.0131 16.1738 64.019 16.1498C64.0537 16.1266 64.1 16.0822 64.1143 16.0826C64.1244 16.0842 64.1025 16.1304 64.0923 16.1556L64.0894 16.1609ZM63.7124 16.8915C63.6765 16.8839 63.6883 16.8361 63.7319 16.7569C63.6658 16.758 63.52 16.8575 63.5814 16.7065C63.7908 16.5443 63.7875 16.6164 63.7392 16.7504C63.71 16.8165 63.8326 16.7459 63.7124 16.8915ZM65.1113 16.1359L65.0854 16.1433L65.1129 16.1132L65.1199 16.1334L65.1113 16.1359ZM65.5134 16.1723L65.5222 16.1431C65.5541 16.0984 65.4864 16.1222 65.5718 16.0399L65.5381 16.1341L65.5134 16.1723ZM65.0002 17.0708C64.8448 17.1019 64.9602 16.8198 64.7699 16.9142C64.4829 17.0584 64.5447 16.8406 64.5255 16.7037C64.2202 16.8087 64.3027 16.5004 64.2463 16.3385C64.4505 16.3113 64.6012 16.3484 64.6172 16.5307C64.6677 16.4984 64.6835 16.5028 64.6472 16.5621C65.0475 16.43 65.0109 16.7608 64.9945 17.068L65.0002 17.0708ZM64.7412 17.7722L64.7483 17.7924L64.7755 17.8024L64.8145 17.7779L64.7726 17.8077C64.7119 17.8517 64.6991 17.842 64.734 17.7787C64.5223 17.8391 64.5002 17.7075 64.5996 17.4478L64.5607 17.4722L64.6041 17.4332C64.7108 17.3715 64.8913 17.2354 64.7997 17.4084C64.6948 17.6119 64.8373 17.5845 64.7369 17.7734L64.7412 17.7722ZM65.7924 16.5775L65.7896 16.5695L65.8243 16.5328L65.7924 16.5775ZM66.202 16.5673L66.1964 16.5511L66.2266 16.5425L66.2034 16.5713L66.202 16.5673ZM65.8463 17.1138L65.8551 17.0846C65.8871 17.0399 65.815 17.0649 65.9047 16.9815L65.8667 17.0769L65.8434 17.1191L65.8463 17.1138ZM65.5295 17.6493C65.2764 17.904 65.3612 17.6707 65.3416 17.6006C65.3148 17.5238 65.304 17.4245 65.0115 17.7572L64.9839 17.8007L64.9999 17.765C65.277 17.3744 65.0629 17.3733 65.249 17.0487C65.2764 17.25 65.5658 17.1539 65.5918 17.3512C65.6 17.4289 65.7928 17.3827 65.5309 17.6533L65.5295 17.6493ZM65.2972 18.0182C64.9359 18.3172 64.9962 18.1086 64.9624 18.0115C65.1657 17.9 65.1098 18.1073 65.2972 18.0182ZM65.7539 17.6252C65.7539 17.6252 65.7134 17.659 65.7004 17.6627C65.6918 17.6652 65.6948 17.6465 65.692 17.6385C65.7093 17.6201 65.7325 17.5913 65.7484 17.5823C65.7989 17.5501 65.8002 17.5675 65.7495 17.6265L65.7539 17.6252ZM65.1829 18.3445C65.1829 18.3445 65.1816 18.3271 65.1931 18.3193C65.2221 18.2799 65.2526 18.2445 65.2816 18.2051L65.3048 18.1628L65.2888 18.1986L65.1829 18.3445ZM66.386 17.8718L66.3184 17.8822C66.1897 17.9901 66.0582 18.1033 65.9279 18.2473C65.9134 18.0557 65.8989 17.8641 65.8819 17.6109C66.1347 17.6277 66.3011 17.6691 66.3213 17.8769C66.3472 17.8695 66.4456 17.7702 66.3903 17.8705L66.386 17.8718ZM65.7711 19.5824L65.7768 19.5986L65.7465 19.6072L65.7697 19.5784L65.7711 19.5824ZM66.1461 18.9414C66.1461 18.9414 66.1502 18.9803 66.1284 19.0132C66.0979 19.0619 66.0632 19.0852 66.0605 19.0637C66.0592 19.0463 66.0594 19.0195 66.0768 18.9879C66.0972 18.9509 66.1289 18.9329 66.1418 18.9426L66.1461 18.9414ZM65.8677 18.6605C66.0767 18.5652 65.9993 18.7653 65.9507 18.9394C65.9267 18.8706 65.852 18.8741 65.7613 18.8867C65.6851 18.8996 65.775 18.776 65.8706 18.6552L65.8677 18.6605ZM66.5865 18.8422L66.6025 18.8065C66.4136 18.687 66.4056 18.3778 66.2951 18.1424C66.754 17.8512 66.6613 18.1847 66.8569 18.1599C67.0582 18.138 66.9574 18.3803 66.6084 18.796L66.5808 18.8394L66.5865 18.8422ZM71.2564 23.479L71.2867 23.4703L71.2592 23.5004L71.2521 23.4802L71.2564 23.479ZM72.0576 22.4937C72.092 22.5106 72.1785 22.4725 72.1246 22.5769C72.0454 22.6084 72.0211 22.5798 72.0576 22.4937ZM70.9712 23.1511L71.0146 23.112L70.987 23.1555L70.9755 23.1499L70.9712 23.1511ZM71.4412 22.2649C71.4412 22.2649 71.4945 22.2408 71.5017 22.2476C71.5131 22.2533 71.5086 22.2812 71.5114 22.3027C71.4898 22.3089 71.4624 22.3256 71.4509 22.32C71.4395 22.3144 71.4439 22.2864 71.4426 22.269L71.4412 22.2649ZM70.6154 23.057L70.6284 23.0533L70.5864 23.0964L70.6154 23.057ZM71.3667 21.7923C71.4174 21.7334 71.4462 21.7207 71.4302 21.7564C71.3708 21.8312 71.3056 21.9166 71.2346 21.9991C71.197 22.041 71.1755 22.0338 71.2132 21.9786C71.2538 21.918 71.3117 21.8525 71.3667 21.7923ZM70.117 22.7989C70.2291 22.807 70.2909 22.8071 70.2556 22.924C70.1432 22.9694 70.1452 22.8932 70.117 22.7989ZM70.4189 22.1388L70.4491 22.1301L70.4245 22.1549L70.4189 22.1388ZM70.9164 21.4405L70.9033 21.4709C70.8952 21.5978 70.8815 21.7218 70.8672 21.9261C70.7441 21.8456 70.7203 21.7501 70.8874 21.4799L70.915 21.4364L70.9164 21.4405ZM69.3478 22.8674L69.4111 22.8583L69.3992 22.9195C69.3992 22.9195 69.3517 22.9331 69.3388 22.9234C69.3316 22.9165 69.3448 22.8861 69.3464 22.8634L69.3478 22.8674ZM69.4193 22.4866L69.4495 22.478L69.4249 22.5028L69.4193 22.4866ZM69.1059 22.0645C69.1478 22.0347 69.1534 22.0509 69.1258 22.0944C69.1085 22.1127 69.0853 22.1416 69.0694 22.1506C69.0275 22.1803 69.0176 22.1654 69.0495 22.1207C69.0582 22.1048 69.09 22.0735 69.1016 22.0657L69.1059 22.0645ZM69.3816 21.6698L69.4206 21.632L69.3887 21.6767L69.3859 21.6686L69.3816 21.6698ZM69.6367 21.1209C69.7018 21.0489 69.7566 21.0154 69.7854 21.0161C69.7966 21.0485 69.7646 21.1066 69.7081 21.1761C69.6372 21.2587 69.5882 21.2816 69.5682 21.265C69.5482 21.2485 69.5614 21.2047 69.6367 21.1209ZM68.7265 21.8481L68.7656 21.8102L68.7409 21.8484L68.7279 21.8521L68.7265 21.8481ZM68.9993 21.4453L69.005 21.4615L68.9747 21.4702L68.9979 21.4413L68.9993 21.4453ZM68.3213 21.8437L68.3429 21.8376L68.3154 21.8677L68.317 21.845L68.3213 21.8437ZM68.1098 21.8774L68.1169 21.8977L68.0823 21.9075L68.1098 21.8774ZM69.0293 20.8228C69.0293 20.8228 68.9958 20.8902 68.9741 20.9231C68.951 20.9386 68.9091 20.9684 68.9034 20.9656C68.8919 20.9599 68.8936 20.9239 68.9168 20.895C68.9849 20.8043 69.0267 20.788 69.0293 20.8228ZM68.9252 20.7013L68.9309 20.7174L68.9006 20.7261L68.9238 20.6972L68.9252 20.7013ZM67.6921 21.5919C67.6921 21.5919 67.7224 21.5699 67.7311 21.5674C67.7397 21.565 67.7541 21.5653 67.7497 21.5799C67.7336 21.6156 67.7119 21.6352 67.6933 21.6227C67.6919 21.6187 67.6963 21.604 67.6921 21.5919ZM68.8189 20.26L68.8058 20.2905L68.7811 20.3287L68.7899 20.2994L68.8175 20.256L68.8189 20.26ZM67.6052 21.4788L67.6036 21.5015L67.5777 21.5089L67.6052 21.4788ZM68.3678 20.4645C68.3678 20.4645 68.3662 20.4872 68.3647 20.4966C68.3531 20.5043 68.3344 20.5186 68.3257 20.521C68.3171 20.5235 68.307 20.5219 68.3114 20.5073C68.3275 20.4716 68.3492 20.4521 68.3678 20.4645ZM67.1905 21.3793L67.1962 21.3954L67.1674 21.4081L67.1905 21.3793ZM67.4652 20.0417L67.4955 20.033L67.4709 20.0578L67.4652 20.0417ZM66.8438 20.3571L66.8842 20.3233L66.8552 20.3627L66.8524 20.3547L66.8438 20.3571ZM67.1816 19.4731C67.1785 19.5051 67.1884 19.5335 67.1665 19.5797C67.1446 19.626 67.0883 19.6688 67.1 19.6343C67.1133 19.5905 67.1539 19.53 67.1816 19.4731ZM66.6577 19.3736C66.6577 19.3736 66.7123 19.3803 66.7309 19.3927C66.7452 19.4065 66.7162 19.4459 66.6945 19.4654C66.5832 19.5551 66.5892 19.5178 66.601 19.4699C66.6069 19.446 66.6359 19.4065 66.6577 19.3736ZM66.5407 19.2558C66.5899 19.1928 66.613 19.1773 66.607 19.2146C66.6055 19.2239 66.5823 19.2528 66.5707 19.2739C66.5578 19.2776 66.5361 19.2971 66.5303 19.2943C66.5289 19.2903 66.5305 19.2676 66.5407 19.2558ZM67.891 18.0202C67.7465 18.1371 67.7846 18.0283 67.8226 17.9329L67.8502 17.8895L67.8385 17.924C67.9162 17.9018 68.0088 17.813 68.1131 17.6898C68.1218 17.674 68.1291 17.6541 68.1363 17.6476L68.2187 17.5706L68.3503 17.4574L68.2114 17.5905C68.1782 17.6178 68.1493 17.6439 68.1332 17.6796C68.0592 17.7942 68.0297 17.9138 67.8967 18.023L67.891 18.0202ZM68.0506 18.2327L68.016 18.2425C68.016 18.2425 68.006 18.2276 68.0119 18.217C68.0409 18.1776 68.061 18.1674 68.0652 18.1929C68.068 18.201 68.055 18.2181 68.0491 18.2286L68.0506 18.2327ZM68.6352 18.0434C68.5774 18.0955 68.5789 18.0862 68.6354 18.0166C68.6528 17.9983 68.6702 17.98 68.6889 17.9657C68.6903 17.9698 68.6932 17.9779 68.6859 17.9844C68.6686 18.0027 68.6526 18.0251 68.6352 18.0434ZM69.1319 18.5689L69.1508 18.5279C69.1654 18.4881 69.1628 18.4533 69.1933 18.4045C69.2137 18.3675 69.283 18.3211 69.2698 18.3515C69.2523 18.3966 69.1958 18.4661 69.158 18.5214L69.1348 18.5636L69.1319 18.5689ZM69.6997 19.1897C69.6997 19.1897 69.6781 19.1959 69.6695 19.1984C69.6782 19.1825 69.6855 19.1626 69.6986 19.1456C69.7507 19.0906 69.7679 19.0857 69.7418 19.1332C69.7359 19.1438 69.7142 19.1767 69.6954 19.191L69.6997 19.1897ZM70.6626 18.9547L70.6808 18.816L70.7084 18.7725L70.6953 18.803C70.6953 18.803 70.7009 18.8192 70.6922 18.835C70.6674 18.8866 70.7698 18.8262 70.6598 18.9466L70.6626 18.9547ZM71.3448 19.0178C71.2174 19.1565 71.1802 19.145 71.1558 19.1297C71.1386 19.1212 71.1043 19.1043 71.2054 19.0265C71.2848 18.9682 71.4399 18.7593 71.4335 18.8635C71.4333 18.8902 71.3724 18.9743 71.3462 19.0219L71.3448 19.0178ZM70.6411 19.8195L70.6791 19.7241L70.7067 19.6806L70.6907 19.7164C70.6631 19.7598 70.738 19.7295 70.6454 19.8183L70.6411 19.8195ZM71.881 19.6433L71.8551 19.6507L71.8797 19.6258L71.8853 19.642L71.881 19.6433ZM72.2824 19.7866L72.2507 19.8046C72.2507 19.8046 72.2783 19.7611 72.2957 19.7428C72.355 19.6814 72.3709 19.6724 72.3374 19.7264C72.3244 19.7435 72.3041 19.7671 72.2824 19.7866ZM72.8686 20.6781L72.863 20.6619L72.8918 20.6492L72.8686 20.6781ZM72.4348 21.5183C72.2152 21.6923 72.2378 21.539 72.0441 21.719C72.0165 21.7624 72.0321 21.7936 71.9469 21.849L72.0325 21.7267C71.8426 21.7542 71.9162 21.5019 71.8479 21.4013C71.7867 21.3075 71.8033 21.1916 71.4299 21.5919C71.2938 21.7331 71.2046 21.7497 71.393 21.5134C71.4466 21.4492 71.548 21.3312 71.5062 21.3476C71.2296 21.4533 71.4466 21.0131 71.2076 21.077C71.0332 21.1624 70.9877 21.0864 71.0289 20.9456C71.0701 20.7915 70.5448 21.342 70.8251 20.906C70.8933 20.8019 70.7214 20.9356 70.6129 21.0467C70.4407 21.2338 70.4295 21.4061 70.1694 21.6138C70.1588 21.4879 69.8995 21.5753 70.3353 21.0815C70.3656 21.0728 70.3942 21.0869 70.4375 21.0612C70.4822 21.0395 70.5717 20.9694 70.5935 20.9365C70.682 20.8089 70.6056 20.8485 70.5363 20.895C70.4858 20.9273 70.4222 20.9766 70.3659 21.0193C70.3588 21.0125 70.3516 21.0056 70.3402 21C70.3489 20.9842 70.3605 20.963 70.3606 20.9497C70.3606 20.9497 70.3289 20.9676 70.326 20.9729C70.31 20.9953 70.3013 21.0111 70.2897 21.0322C70.0807 21.1142 70.5179 20.6378 70.3626 20.6555C70.0663 20.6912 70.1264 20.2913 69.6027 20.6011C69.5277 20.6448 69.5267 20.5739 69.5632 20.4878L69.6844 20.4265C69.7454 20.3157 69.6501 20.3963 69.6054 20.418C69.5208 20.1752 69.2582 20.1167 69.1142 19.9354C69.1057 19.9245 69.1203 19.8847 69.1219 19.862C68.9846 19.9724 68.8329 20.0958 68.7901 20.0547C68.6673 19.934 68.6673 19.934 68.2694 20.3458C68.2627 20.2721 68.3975 20.1001 68.4038 20.0093C68.4179 19.6137 68.2251 19.4419 67.915 19.3971C67.8346 19.3844 67.6919 19.4519 67.4632 19.6952C67.3547 19.8063 67.2463 19.904 67.2613 19.8107C67.2688 19.7507 67.2748 19.7134 67.4397 19.5595C67.7404 19.2778 67.6575 19.217 67.6045 19.1877C67.5458 19.1555 67.3492 19.3273 67.1888 19.4666C67.1458 19.4522 66.9581 19.5814 67.1219 19.37C67.4392 18.9724 67.3301 18.959 67.205 18.9681C66.9822 18.9828 66.9461 18.7974 66.8593 18.6575C67.1529 18.369 67.2481 18.3285 67.2919 18.4271C67.384 18.6367 67.4413 18.8828 67.7851 18.8202C67.9419 18.7932 68.048 18.8385 68.0571 18.9872C68.0702 19.1747 68.0919 19.1552 68.5025 18.9978C68.5731 18.9688 68.5828 19.0238 68.5217 19.1347C68.4373 19.2879 68.4018 19.4448 68.5044 19.3577C68.9235 19.0066 68.7228 19.3709 68.803 19.4103C68.9749 19.4947 68.8703 19.876 69.1348 19.8583C69.3238 19.7465 69.3361 19.8498 69.3976 19.89C69.4949 19.9512 69.5937 20.0031 69.7823 19.9581C69.7779 19.9727 69.7692 19.9885 69.7677 19.9979C69.7677 19.9979 69.7922 19.9864 69.798 19.9759C69.811 19.9588 69.8198 19.9429 69.8314 19.9218C69.9344 19.9858 69.9276 20.1568 70.0581 20.1907C70.4024 20.2792 70.712 20.4044 71.036 20.5164C71.1278 20.5481 71.1629 20.6626 71.3156 20.6101C71.4136 20.5777 71.5133 20.4824 71.3971 20.6803C71.3171 20.8188 71.279 20.9275 71.2222 21.0506C71.3278 20.9448 71.429 20.8536 71.4777 20.8708C71.6025 20.9152 71.8358 20.8352 71.8229 21.0436C71.8179 21.1518 71.8374 21.2485 72.0902 21.0473L72.1134 21.005L72.1003 21.0355C72.1012 21.1198 72.063 21.2419 72.2622 21.1049C72.3662 21.0352 72.4942 21.0075 72.4449 21.0839C72.2198 21.4329 72.4026 21.3985 72.4406 21.5078L72.4348 21.5183ZM71.8927 22.2249C71.8218 22.2941 71.7348 22.4124 71.7035 22.3769C71.6949 22.366 71.698 22.3339 71.7198 22.301C71.8024 22.184 71.8556 22.1866 71.9162 22.1426C72.0043 22.0818 71.9449 22.1566 71.8927 22.2249ZM73.105 21.0021C73.0818 21.0309 73.0429 21.0554 73.014 21.0815C73.0416 21.0246 73.0621 20.9743 73.0941 20.9162C73.1203 20.8687 73.1506 20.8467 73.1735 20.8579C73.1906 20.8797 73.1688 20.926 73.105 21.0021ZM71.155 23.3923C71.0659 23.3955 70.9854 23.3962 71.0412 23.2157C71.1706 23.2054 71.1527 23.3039 71.155 23.3923ZM73.1322 21.6795C72.885 21.8969 72.8265 21.838 72.6555 22.0426C72.5686 22.1475 72.4705 22.2067 72.533 22.0998C72.6929 21.8228 72.5146 21.8426 72.7747 21.4034C72.7962 21.6286 72.8456 21.7703 73.1322 21.6795ZM71.198 23.8427L71.1634 23.8526C71.1634 23.8526 71.1781 23.8128 71.1925 23.7998C71.2461 23.7355 71.2677 23.7293 71.24 23.7862C71.2356 23.8008 71.211 23.8256 71.198 23.8427ZM73.0151 21.9977L72.9717 22.0368L73.0036 21.9921L73.0151 21.9977ZM72.3285 22.8212C72.3285 22.8212 72.291 22.8497 72.2895 22.8457C72.2867 22.8376 72.2897 22.8189 72.3042 22.8059C72.3419 22.7506 72.3693 22.7339 72.3619 22.7671C72.3647 22.7752 72.3372 22.8053 72.3242 22.8224L72.3285 22.8212ZM72.8224 22.4532L72.8168 22.437L72.8456 22.4243L72.8224 22.4532ZM71.816 23.8308C71.9542 23.7913 71.909 23.8932 71.7032 24.1611C71.6045 24.0825 71.5073 24.0079 71.4144 23.9321C71.3581 23.9749 71.3481 23.96 71.3729 23.9084L71.4034 23.8596L71.3844 23.9007L71.4001 23.9184L71.4187 23.9309C71.5497 23.8979 71.6749 23.8755 71.816 23.8308ZM72.6017 23.019C72.6017 23.019 72.6422 22.9718 72.6509 22.9693C72.6595 22.9669 72.6551 22.9815 72.6579 22.9896C72.642 23.0119 72.6231 23.0396 72.6173 23.0501C72.5725 23.0852 72.5683 23.073 72.606 23.0178L72.6017 23.019ZM73.4723 22.3965C73.314 22.4329 73.3774 22.1923 72.9939 22.591C73.148 22.3246 73.3587 22.1932 73.5006 22.0281C73.5841 21.7906 73.2233 22.2408 73.2096 22.1468C73.4819 21.8109 73.5926 21.8149 73.67 21.8328C73.7935 21.8599 73.6698 22.091 73.4709 22.3925L73.4723 22.3965ZM74.1599 21.6439C74.15 21.6156 74.2065 21.5461 74.2472 21.4855C74.2849 21.4303 74.3413 21.3741 74.3383 21.3928C74.3352 21.4248 74.2917 21.4906 74.2597 21.5487C74.2306 21.6015 74.1901 21.6353 74.1599 21.6439ZM73.5953 22.4904C73.5606 22.527 73.51 22.5726 73.4855 22.5841C73.4235 22.6107 73.4858 22.5306 73.5249 22.4794C73.5757 22.407 73.6277 22.3655 73.6651 22.3637C73.6808 22.3815 73.682 22.4122 73.5953 22.4904ZM72.4679 23.9026C72.4679 23.9026 72.4275 23.9364 72.4218 23.9335C72.4002 23.9263 72.4234 23.8975 72.4768 23.86C72.4927 23.851 72.4984 23.8538 72.5071 23.8513C72.494 23.8684 72.4781 23.8908 72.4679 23.9026ZM74.796 21.9427C74.7642 21.9607 74.7165 22.001 74.7022 22.0007C74.6821 21.9975 74.7169 21.9475 74.7689 21.906C74.8021 21.8787 74.8483 21.8477 74.8627 21.848C74.8828 21.8512 74.8509 21.8959 74.796 21.9427ZM74.1633 22.6485C73.9942 22.8036 73.9932 22.7327 73.9878 22.6764C73.9823 22.6334 74.062 22.535 74.1302 22.4444C74.0457 22.3929 73.8836 22.5682 73.7069 22.7833L73.6836 22.8256L73.6997 22.7898C73.8015 22.605 73.9004 22.4255 74.008 22.2301C74.3125 22.0408 74.2076 22.2577 74.1388 22.4419C74.1357 22.4739 74.1196 22.523 74.1353 22.5408C74.1581 22.5654 74.336 22.3945 74.269 22.5293C74.2545 22.5557 74.2009 22.62 74.169 22.6513L74.1633 22.6485ZM72.6156 23.9583L72.5765 23.9961L72.6041 23.9526L72.6128 23.9502L72.6156 23.9583ZM73.4103 23.5266L73.4292 23.4856L73.3577 23.4303C73.3216 23.4629 73.2854 23.4955 73.2507 23.5321C73.2435 23.5386 73.2291 23.5383 73.2291 23.5383C73.2842 23.4647 73.3217 23.4495 73.3635 23.4198C73.4819 23.337 73.4903 23.3747 73.4408 23.4778L73.4088 23.5225L73.4103 23.5266ZM72.6699 24.4411C72.2285 24.6873 72.2343 24.4721 72.1821 24.3224C72.1547 24.3391 72.1157 24.3636 72.0927 24.3657C72.0668 24.3731 72.012 24.3932 72.0802 24.3025C72.0975 24.2976 72.1248 24.2942 72.1406 24.2986C72.1592 24.2977 72.1721 24.3074 72.1879 24.3118C72.5702 24.0869 72.4602 24.4253 72.6699 24.4411ZM74.1963 22.8793C74.1963 22.8793 74.1979 22.8566 74.1994 22.8473C74.2152 22.8383 74.2326 22.82 74.2412 22.8175C74.2542 22.8138 74.2642 22.8154 74.2598 22.83C74.2409 22.871 74.2106 22.893 74.1963 22.8793ZM72.9718 24.4215L72.774 24.5626C72.7393 24.5992 72.7002 24.6371 72.6712 24.6765L72.6436 24.72L72.6553 24.6855C72.6553 24.6855 72.6757 24.6485 72.6858 24.6367C72.7177 24.6054 72.7466 24.5793 72.7798 24.552C72.8419 24.5121 72.9811 24.3255 72.9718 24.4215ZM74.3379 22.9723L74.3424 22.9444L74.3727 22.9357L74.3423 22.9711L74.3379 22.9723ZM73.491 23.9217L73.4505 23.9555C73.416 23.9654 73.367 23.9883 73.3541 23.9786C73.3412 23.969 73.4006 23.8941 73.4193 23.8933C73.4467 23.8899 73.4493 23.9247 73.4593 23.9397L73.491 23.9217ZM74.6793 22.6301L74.6403 22.6679L74.6722 22.6232L74.675 22.6313L74.6793 22.6301ZM76.0821 25.8644C76.025 26.2321 75.9201 26.4623 75.9817 26.7073C76.0153 26.8445 75.9108 26.9945 75.7342 26.9782C75.5733 26.9663 75.5239 26.8247 75.568 26.6786C75.643 26.4169 75.7109 26.1484 76.0821 25.8644ZM76.2663 25.6026L76.3209 25.6093L76.2991 25.6422L76.2663 25.6026ZM75.1449 25.9007C75.2427 25.8817 75.2319 26.0005 75.1811 26.0728C75.1216 26.161 75.0577 26.2638 74.9227 26.2579C74.9115 26.2121 74.8803 26.1499 74.8991 26.1222C74.9687 26.0356 75.0557 25.9173 75.1435 25.8967L75.1449 25.9007ZM74.6491 25.4729C74.7092 25.5091 74.7103 25.5533 74.641 25.5998L74.4476 25.7396C74.445 25.6914 74.4253 25.6347 74.4456 25.5978C74.4863 25.5238 74.5514 25.4652 74.6491 25.4729ZM75.1115 23.9927L75.1675 24.0034L75.1328 24.04L75.1144 23.9874L75.1115 23.9927ZM74.2918 24.7341C74.3162 24.736 74.3465 24.7273 74.3637 24.7358C74.3852 24.743 74.4023 24.7648 74.4136 24.7838C74.4164 24.7919 74.3962 24.8155 74.386 24.8273L74.2875 24.7353L74.2918 24.7341ZM73.4192 24.9967L73.4032 25.0324L73.3752 25.1294L73.3916 25.0402L73.4192 24.9967ZM73.7183 24.7511L73.7415 24.7222L73.7471 24.7384L73.7183 24.7511ZM73.4544 24.6752C73.5195 24.6032 73.5759 24.5604 73.5336 24.6437C73.5104 24.6859 73.4366 24.7604 73.3845 24.8153C73.3628 24.8348 73.3398 24.837 73.3067 24.8509C73.3603 24.7866 73.4066 24.7289 73.4544 24.6752ZM72.859 24.7519L72.8519 24.7316L72.8851 24.7177L72.859 24.7519ZM74.5304 22.993C74.5304 22.993 74.4827 23.0333 74.4784 23.0346C74.4524 23.042 74.4685 23.0062 74.5119 22.9538C74.525 22.9367 74.5553 22.9147 74.5639 22.9122C74.5899 22.9048 74.5738 22.9405 74.5347 22.9918L74.5304 22.993ZM74.5841 23.12L74.5539 23.1286L74.5828 23.1026L74.5884 23.1188L74.5841 23.12ZM73.6431 24.1675C73.6431 24.1675 73.5682 24.1978 73.5612 24.1775C73.5541 24.1573 73.5818 24.1005 73.595 24.0566L73.7881 23.7657L73.8186 23.7169L73.7953 23.7592L73.8296 23.7894L73.8671 23.7609L73.8238 23.8L73.5979 24.0513C73.5979 24.0513 73.6266 24.0654 73.6308 24.0776C73.6393 24.1018 73.7547 24.0243 73.6331 24.1659L73.6431 24.1675ZM73.0882 24.851L73.1072 24.81L73.1334 24.7625L73.1144 24.8035L73.0911 24.8457L73.0882 24.851ZM76.2555 23.3232L76.1995 23.3125L76.2256 23.2784L76.2555 23.3232ZM76.0169 23.5516L75.9879 23.591L75.9566 23.5421L76.0155 23.5475L76.0169 23.5516ZM76.4137 24.6084C76.3287 24.6505 76.2224 24.6319 76.2058 24.5432C76.1259 24.0143 75.6123 23.8896 75.2276 23.8216C75.1573 23.8105 75.0941 23.793 75.0354 23.7742C74.9766 23.7554 74.9193 23.7272 74.912 23.7338C74.8776 23.7303 74.8605 23.7084 74.8535 23.6748C74.8453 23.6104 74.8806 23.4936 74.9346 23.3625C74.9521 23.3174 74.8743 23.353 74.9193 23.2912L74.9106 23.2937C74.7548 23.3916 74.5789 23.473 74.5517 23.681L74.595 23.6553L74.5502 23.6903C74.4141 23.8449 74.3502 23.9477 74.3598 24.0161C74.3654 24.0323 74.443 24.0368 74.2698 24.1531C74.0922 24.2705 74.0345 24.0912 74.1777 23.9569C74.6331 23.5331 74.5493 23.388 74.7887 23.0393C74.807 23.1053 74.8123 23.175 74.9395 23.2676C74.9497 23.2558 74.9598 23.244 74.9743 23.231C75.1016 23.1057 75.1562 23.0989 75.1442 23.1736C75.1172 23.3414 75.1945 23.3995 75.064 23.3522C75.1041 23.3719 75.147 23.3997 75.2029 23.4237C75.3574 23.5264 75.5248 23.6388 75.7166 23.7664C75.9053 23.9127 76.1827 24.1227 76.4456 24.3456C76.5271 24.4158 76.555 24.5369 76.4065 24.6149L76.4137 24.6084ZM75.3547 25.4671L75.2958 25.4616L75.352 25.4456C75.5493 25.3714 75.6406 25.2653 75.5239 25.0806C75.4528 24.9719 75.3989 24.8582 75.335 24.743C75.2847 24.7485 75.2242 24.7658 75.1769 24.7526C75.1095 24.7363 75.0277 24.7196 75.0485 24.6158C75.0972 24.633 75.1416 24.6514 75.1904 24.6687C75.2377 24.6818 75.2865 24.699 75.3352 24.7163C75.4364 24.6251 75.6201 24.4436 75.6287 24.4545C75.886 24.6613 76.0133 24.9586 75.9178 25.284C75.8354 25.5789 75.5614 25.5015 75.3476 25.4602L75.3547 25.4671ZM77.4488 25.1936C76.9644 25.2208 76.8983 25.0038 76.8599 24.7167C77.2583 24.6607 77.2925 24.9223 77.4488 25.1936ZM77.9157 25.6609L77.8828 25.6347L77.9347 25.6065L77.92 25.6596L77.9157 25.6609ZM77.5937 26.0999C76.987 26.1442 76.9612 25.7022 76.8704 25.3054C77.0797 25.5927 77.3194 25.8579 77.5937 26.0999ZM77.0825 26.7042C77.0637 26.7185 77.0434 26.7421 77.0261 26.747C76.947 26.7652 76.9227 26.7365 76.972 26.6735C76.9807 26.6576 77.021 26.6506 77.0411 26.6537C77.0626 26.6609 77.0711 26.6852 77.0868 26.703L77.0825 26.7042ZM78.6329 25.4159L78.5651 25.2484L78.5683 25.1897L78.5881 25.2463L78.6286 25.4171L78.6329 25.4159ZM76.9701 27.8397C76.8468 27.786 76.9137 27.6645 76.9 27.5706L76.8972 27.3444C76.8644 27.3049 76.8258 27.2759 76.7785 27.2493L76.7081 27.2516L76.7757 27.2412C76.8606 27.2259 76.902 27.263 76.9058 27.342L76.9187 27.5697C76.9484 27.6413 76.9824 27.7116 77.0078 27.7845C77.012 27.7966 76.9715 27.8438 76.9657 27.841L76.9701 27.8397ZM77.7502 27.8705C77.7652 27.9952 77.7556 28.1448 77.6239 28.2847C77.5964 28.3148 77.4986 28.3205 77.4729 28.3012C77.34 28.179 77.354 28.0148 77.4585 27.8648C77.5093 27.7925 77.6127 27.803 77.7444 27.8677L77.7502 27.8705ZM79.037 26.4662C79.0111 26.4736 78.9764 26.4968 78.9592 26.4884C78.8904 26.468 78.8892 26.4238 78.9628 26.3895C78.9829 26.3793 79.0202 26.3909 79.0388 26.4034C79.0517 26.413 79.0386 26.4435 79.0413 26.4649L79.037 26.4662ZM78.2822 27.6117L78.1537 27.6929C78.1213 27.5998 78.0845 27.508 78.0607 27.4125C78.0579 27.4044 78.1589 27.3399 78.1905 27.3487C78.3095 27.3903 78.3088 27.4973 78.2822 27.6117ZM79.0641 27.1436L79.0342 27.0987L79.0888 27.1054L79.0641 27.1436ZM78.3773 28.4432C78.4503 28.4757 78.4569 28.5762 78.3718 28.6183C78.3112 28.649 78.2224 28.6121 78.1491 28.6063C78.1538 28.5516 78.1471 28.4778 78.1557 28.4754C78.2292 28.4544 78.3214 28.4192 78.3773 28.4432ZM79.0219 27.8809C78.9644 27.8795 78.9319 28.0178 78.8578 27.9278L79.0191 27.8728C79.0609 27.843 79.1028 27.8133 79.1461 27.7876C79.1591 27.7839 79.1806 27.7911 79.1963 27.7955C79.1656 27.8843 79.0895 27.8705 79.0233 27.8849L79.0219 27.8809ZM78.8238 28.9341C78.8238 28.9341 78.7736 28.9262 78.7477 28.9202C78.7493 28.8975 78.738 28.8652 78.7496 28.8574C78.767 28.8391 78.8087 28.8227 78.8259 28.8312C78.8962 28.8556 78.8959 28.8957 78.8238 28.9341ZM79.6225 29.1953L79.5549 29.2058L79.4902 29.2109L79.5507 29.1936L79.6182 29.1966L79.6225 29.1953ZM80.0506 29.647L79.9127 29.6463L79.8833 29.5212C79.9337 29.5158 80 29.4879 80.0314 29.5101C80.0586 29.5335 80.0481 29.5988 80.055 29.6457L80.0506 29.647ZM80.8877 30.1953L80.8244 30.2045L80.614 30.2958L80.6106 30.1633L80.8259 30.1952L80.892 30.1941L80.8877 30.1953ZM81.336 30.4188C81.2896 30.4765 81.2014 30.564 81.1598 30.5536C81.0665 30.5313 81.1074 30.444 81.1219 30.4176C81.2017 30.3059 81.2696 30.2553 81.3527 30.2894C81.3699 30.2979 81.3621 30.3846 81.3346 30.4147L81.336 30.4188Z" fill="#5938E0"/>
<path d="M82.4169 29.2957C82.1385 29.2329 81.9209 29.1126 81.7295 28.7135C82.1334 28.9184 82.3265 29.0635 82.4169 29.2957Z" fill="#5938E0"/>
<path d="M83.0738 32.0797C83.0738 32.0797 83.0268 32.0931 83.0141 32.0835C83.0014 32.0738 83.0029 32.0513 82.9959 32.0312L83.0556 32.0274L83.0738 32.0797Z" fill="#5938E0"/>
<path d="M69.8643 18.4549C69.8643 18.4549 69.8856 18.4238 69.8983 18.4077L69.9233 18.4006L69.8852 18.4489C69.8768 18.4513 69.8601 18.4561 69.8643 18.4549Z" fill="#5938E0"/>
<path d="M80.7144 27.4908C80.7074 27.4705 80.6989 27.4462 80.7005 27.4235C80.4197 27.2857 80.32 26.945 79.9279 26.9102C79.6636 26.8878 79.7313 26.646 79.8662 26.4606C79.9894 26.2964 80.1258 26.1017 80.3385 26.0988C80.6058 26.0891 80.5726 26.3344 80.6102 26.5105C80.627 26.5858 80.6783 26.6513 80.7123 26.7216L80.7148 26.7832L80.721 26.7192C81.1356 26.8187 81.1437 26.8965 80.7782 27.4147C80.7766 27.4374 80.7764 27.4642 80.7662 27.4893C80.7633 27.4946 80.7187 27.5029 80.7158 27.4948L80.7144 27.4908Z" fill="#5938E0"/>
<path d="M64.6085 16.5465L64.6329 16.5483L64.6399 16.5685C64.6108 16.6077 64.5731 16.6495 64.534 16.6872C64.5256 16.663 64.5475 16.617 64.6085 16.5465Z" fill="#5938E0"/>
<path d="M28.9948 63.4264C28.6106 63.5361 28.1589 63.6565 27.6179 63.8067C27.9244 63.7191 28.362 63.5854 28.9679 63.4036C28.9793 63.4091 28.9864 63.4158 28.9905 63.4276L28.9948 63.4264Z" fill="#5938E0"/>
<path d="M15.7805 66.1879C16.1899 66.2044 16.5994 66.2209 17.0074 66.2334C17.3954 66.2427 17.5262 65.8004 17.9064 65.8831C18.2224 65.904 18.5558 65.9067 18.889 65.9361C19.0671 65.9564 19.1912 66.0944 19.2215 66.2905C19.2448 66.4662 19.1335 66.5558 18.9981 66.6034C18.6467 66.7261 18.2719 66.9043 17.913 66.6242C17.6857 66.4489 17.5578 66.4499 17.4699 66.7019C17.4128 66.865 17.2887 66.945 17.154 66.8856C16.6725 66.6761 16.1661 66.7629 15.6769 66.6402C15.5363 66.6047 15.4078 66.4813 15.4419 66.3202C15.4761 66.1458 15.6411 66.1832 15.7848 66.1867L15.7805 66.1879Z" fill="#5938E0"/>
<path d="M13.486 65.0282C13.5495 65.2103 13.698 65.1322 13.8172 65.1471C13.8717 65.1538 13.9235 65.1523 13.9766 65.155C14.1405 65.3662 14.3229 65.3853 14.5179 65.2228L14.5542 65.1768L14.5265 65.2337C14.5456 65.3839 14.5877 65.5454 14.7514 65.552C15.7485 65.592 16.7596 65.6724 17.7005 65.2924C17.8259 65.2432 17.8409 65.1499 17.7828 65.0242C17.7544 64.97 17.6303 65.0499 17.657 64.9222L17.7973 64.9978C17.9994 65.0735 18.258 65.0931 18.4008 65.2302C18.6835 65.5099 18.8535 65.657 18.8571 65.1088L19.1701 65.1484C19.2251 65.3062 19.2598 65.5009 19.4876 65.3914C19.5611 65.357 19.5962 65.2535 19.5392 65.1853C19.4309 65.0516 19.2953 65.1259 19.1687 65.1443C19.5718 64.8156 19.973 64.7811 20.3045 65.0645C20.4389 65.1774 20.6106 65.2885 20.6757 65.4346C21.0522 66.3103 21.7836 66.3104 22.5206 66.3535C22.7346 66.368 22.806 66.2186 22.9288 66.1212C23.1065 65.977 23.2483 65.8252 23.4097 66.1929C23.4678 66.3187 23.6208 66.2127 23.6202 66.0883C23.6217 65.8609 23.5844 65.6313 23.5521 65.3069C24.1309 65.7822 24.6886 65.7742 25.2903 65.6201C25.5091 65.5664 25.7334 65.5424 25.9649 65.5252L26.3113 65.5108L26.4004 65.5076L26.4421 65.5045C26.4421 65.5045 26.4708 65.5052 26.5154 65.4969L26.9686 65.4209C27.4707 65.3353 27.5852 65.1869 27.6927 65.0182C27.3624 64.9836 27.0407 64.9464 27.1226 64.7317C27.6821 64.6609 27.4618 64.9418 27.7316 64.9938C28.5228 64.879 29.344 64.5643 30.1115 64.5452C31.2946 64.4786 32.4023 64.3046 33.1863 63.5289C33.2181 63.4975 33.5718 63.4632 33.7732 63.4279C33.5498 63.5362 33.197 63.6415 33.3643 63.7672C33.3843 63.7837 33.4662 63.787 33.5238 63.775C33.9628 63.6719 33.8586 63.5503 33.9169 63.4314C34.8152 62.752 35.7895 62.536 36.8315 62.5141C36.8876 62.5115 36.9494 62.5116 37.0055 62.5089C37.0615 62.5063 37.1709 62.4795 37.2515 62.4654C37.4198 62.4306 37.5753 62.3862 37.705 62.3358C37.9701 62.2378 38.1204 62.1103 38.054 61.9335L37.3477 62.033C37.2805 61.9899 36.7779 62.1557 37.0868 61.9384L37.4156 61.9824L38.1103 61.8907C38.8753 61.6055 39.7317 61.3919 40.5728 61.1205C41.4198 60.8118 42.2616 60.42 42.749 59.9515C42.7779 59.9255 43.2359 59.7679 43.4345 59.7245C44.5483 59.4864 45.3787 59.089 46.1631 58.6825C46.9318 58.2716 47.6445 57.85 48.3197 57.4435C48.4079 57.356 47.8567 57.4912 48.3929 57.2446L48.3615 57.4271C48.6475 57.4166 49.0401 57.3711 49.4689 57.0751C49.5309 57.0485 49.485 57.026 49.4737 57.007L49.4267 56.9404L49.3284 56.8083C49.2643 56.7198 49.2117 56.6369 49.1677 56.5516C49.0883 56.3919 49.0595 56.1732 49.171 56.0435C49.3943 55.7439 49.4419 55.4989 48.9544 55.3401C48.8253 55.2969 48.8131 55.1936 48.8355 55.0671C48.8663 54.9648 48.9274 54.8539 48.9582 54.7651C49.0255 54.5767 49.012 54.4427 48.8911 54.4772C48.8534 54.5325 48.807 54.5902 48.7563 54.6492C48.7084 54.7296 48.6647 54.8222 48.5967 54.8861C48.5316 54.9448 48.5046 54.908 48.5582 54.8437C48.6276 54.7705 48.6855 54.705 48.7521 54.6371C48.8028 54.5781 48.8491 54.5204 48.8855 54.461C48.9421 54.3648 48.9873 54.2762 49.0052 54.1777C48.9709 54.1474 48.9424 54.1066 48.8407 54.0601C48.7905 54.0388 48.7103 53.9994 48.7176 53.9795C48.7387 53.8356 48.7156 53.6331 48.5627 53.5077C48.4729 53.3999 48.3443 53.2898 48.1983 53.198C48.0438 53.0953 47.8788 53.0446 47.6742 52.9206C47.5493 52.9029 47.4243 52.8852 47.2965 52.8728L47.6859 52.8861C48.033 52.5467 48.2386 52.1009 48.2194 51.746C48.2113 51.6548 48.1946 51.5795 48.1578 51.5011C48.1124 51.3984 48.0484 51.3099 47.9655 51.2357C47.9455 51.2191 47.9241 51.1986 47.8997 51.1833C47.8998 51.1699 47.8423 51.1819 47.8092 51.1824L47.6956 51.1971C47.5417 51.2188 47.3921 51.2393 47.2411 51.2558C46.9433 51.3008 46.6614 51.3502 46.398 51.4121C45.6366 51.5851 45.0122 51.7012 44.4628 51.7737C44.1866 51.8125 43.9306 51.8411 43.6804 51.8592L43.3181 51.8826C43.206 51.888 43.1127 51.8791 43.0121 51.8766C42.2263 51.8431 41.5043 51.7068 40.5727 51.5547C40.389 51.5182 40.0771 51.5228 39.7971 51.496C39.5127 51.4704 39.2097 51.4458 38.9353 51.4218L38.6939 51.4241L38.8694 51.3962C39.2014 51.1767 38.4827 50.9816 37.4536 50.7951C37.0431 50.7211 36.6784 50.6695 36.3927 50.6266C36.3123 50.614 36.2377 50.6041 36.1673 50.5931C36.0927 50.5833 36.0137 50.5747 36.005 50.5772C35.9519 50.5746 35.9015 50.58 35.8627 50.5911C35.7 50.6287 35.6461 50.7465 35.708 50.9512C35.7403 51.0577 36.0728 51.194 35.6771 51.2715C35.147 51.0314 34.5996 50.7963 34.0682 50.5254C33.7861 50.3836 33.4365 50.2254 33.1728 50.3274C32.6614 50.5224 32.1171 50.2553 31.8799 50.0516C31.194 49.4601 30.4813 49.4457 29.6735 49.4718L29.7593 49.5407L29.6505 49.4739C29.1468 49.1596 28.6503 48.8253 28.4103 49.2676C28.4432 49.2938 28.5104 49.3369 28.5003 49.3487C28.4756 49.3869 28.418 49.4123 28.3718 49.4433L28.2267 49.4358L28.346 49.4239C28.3708 49.3723 28.3898 49.318 28.406 49.2689C27.5916 49.2079 26.7984 48.9762 26.0827 48.5444L26.0341 48.5138C25.828 48.3858 25.6709 48.235 25.4576 48.1135C24.1434 47.3544 24.0172 47.3193 23.6725 47.9383C23.658 47.9647 23.4614 47.9185 23.3379 47.9048C22.8094 47.6421 23.2492 47.6232 23.2386 47.4972C23.2023 46.9025 23.0096 46.7039 21.9275 46.4881L21.8916 46.4805L21.883 46.483L21.8815 46.4789C23.251 41.4828 20.0159 53.2809 20.3487 52.0691L20.353 52.0678L20.3703 52.0629L20.4479 52.0541L20.5946 52.0389C20.6909 52.0291 20.7873 52.0194 20.8807 52.015C21.0676 52.0061 21.2516 52.0024 21.4311 52.0134C21.7932 52.0301 22.1492 52.0841 22.5423 52.1765C22.9096 52.2629 23.0055 52.1154 22.9948 51.9894L22.9046 51.9351L23.025 51.9807C23.5117 52.0553 24.0293 52.2322 24.4983 52.1471C25.9731 51.8815 27.3147 52.1879 28.6996 52.4551C28.8317 52.4797 29.0578 52.4062 29.2376 52.3771C29.1805 52.3222 28.8373 52.2779 29.1195 52.2017L29.2463 52.3746C29.7695 52.3497 30.2912 52.3475 30.8214 52.3562C31.0857 52.3652 31.3544 52.373 31.6217 52.3767C31.9981 52.3938 32.3759 52.4149 32.7537 52.4359C34.7001 52.5562 36.6939 52.6762 38.7523 52.8044C39.9489 52.8719 41.1571 52.9316 42.3381 52.9679C40.1173 52.4011 38.5879 52.0194 37.9874 51.5636C40.5108 51.7859 41.1581 51.9125 42.6624 52.6039C43.3043 52.8921 43.6062 53.0906 45.1642 53.2684C45.5893 53.316 45.9469 53.3474 46.2385 53.3664C46.2873 53.3702 46.2902 53.3649 46.2917 53.3556L46.3034 53.3345C46.3034 53.3345 46.3122 53.3053 46.3123 53.2919C46.3168 53.2639 46.3098 53.2303 46.2985 53.198C46.252 53.0644 46.0978 52.9083 45.8647 52.7301C45.6202 52.5464 45.399 52.3204 45.7108 52.3158C46.1751 52.2989 46.3602 52.1214 46.6026 51.9721C46.8336 51.8171 47.1132 51.6927 47.4685 51.6357C47.8224 51.5746 47.9864 51.3365 48.1415 51.1409C48.1777 51.095 48.2153 51.0531 48.253 51.0112L48.3137 50.9538L48.2855 50.8728C48.2474 50.7636 48.2022 50.6475 48.1988 50.5016C48.1972 50.3197 48.1651 50.1731 48.0249 50.0708C47.8891 49.9672 47.6538 49.9054 47.3995 49.898L47.3777 49.9309L47.3823 49.8895L47.29 49.7335C47.29 49.7335 47.306 49.6978 47.3076 49.6751C47.3076 49.6751 47.2589 49.6445 47.2303 49.6304L47.2069 49.686C46.9782 49.5067 46.8683 49.3823 46.9003 49.3243C46.928 49.2674 47.1019 49.2756 47.3299 49.3439C47.6712 49.4511 47.7876 49.4579 47.8166 49.4051C47.84 49.3495 47.7646 49.2286 47.6406 49.0772C47.3826 48.7594 47.2439 48.4431 47.3221 48.1226L47.3634 47.9684C47.0791 47.9295 46.8768 47.8805 46.7292 47.8248C46.6188 47.7807 46.5027 47.7338 46.3823 47.6881C46.2275 47.6256 46.0757 47.5577 45.9324 47.4874C45.3508 47.2086 44.8212 46.8883 44.3116 46.5979C42.3488 45.4768 42.0438 46.1824 40.5554 45.2506C39.6709 44.7025 39.6764 44.3094 37.8844 43.4331L37.4848 43.2403L37.214 43.1175L36.6638 42.8742C36.2941 42.7129 35.9273 42.5463 35.5634 42.3744C35.3858 42.2872 35.2068 42.196 35.0292 42.1088L34.906 42.0416L34.8874 42.0292C34.8874 42.0292 34.866 42.0086 34.8531 41.9989C34.8132 41.9525 34.7992 41.8986 34.8441 41.8369C34.9193 41.7664 34.6009 41.8885 34.3004 41.9255C34.1565 41.9488 34.0257 41.955 34.0029 41.9304C33.9814 41.9098 34.0609 41.8515 34.4019 41.7808C34.3176 41.7025 34.2476 41.638 34.2465 41.5938C34.2467 41.5671 34.2253 41.5465 34.1163 41.5064C34.036 41.4804 33.96 41.4532 33.8797 41.4272L33.689 41.3705C33.58 41.3304 33.4725 41.2944 33.3592 41.2556C32.9434 41.1118 32.4761 40.9428 32.1737 40.8112C31.8771 40.6824 31.7484 40.5857 32.1159 40.6453C32.4891 40.7077 32.6255 40.7311 32.1594 40.5795C31.2488 40.2968 30.4285 40.0418 28.7176 39.5072C28.3447 39.3913 27.9618 39.2738 27.9189 39.246C27.8631 39.2085 27.902 39.1974 28.1258 39.2536C28.3998 39.3177 28.8719 39.432 29.3224 39.5391C29.684 39.6227 29.9265 39.678 29.6971 39.5922C28.9833 39.3156 28.995 39.2811 29.1056 39.2851C29.2105 39.2863 29.41 39.3272 28.8726 39.107C28.778 39.0673 28.7207 39.0392 28.7508 39.0439C28.824 39.063 28.9029 39.085 28.9015 39.0809C28.9015 39.0809 28.8829 39.0685 28.8327 39.0472C28.7439 39.0103 28.6622 38.9802 28.5862 38.953C28.2005 38.814 27.8579 38.6895 27.3088 38.4904C26.3483 38.1464 26.2351 38.0942 26.8588 38.303C28.7745 38.9482 29.2779 39.098 29.6509 39.1872C30.0096 39.276 30.2494 39.3099 31.2272 39.6489C32.9591 40.2576 29.2956 38.8082 28.3803 38.3622C30.1031 39.0402 31.2943 39.5008 31.9809 39.7539C32.6719 40.0059 32.8614 40.0452 32.7214 39.9161C32.6014 39.8036 32.8268 39.8371 33.4045 40.0502C34.1887 40.3379 34.7965 40.5691 35.1565 40.6754C35.5265 40.7832 35.6545 40.7689 35.6527 40.6003C36.1438 40.8783 36.0054 40.7265 35.9817 40.6176C35.9408 40.5002 36.0304 40.4301 36.5426 40.7688C36.843 40.9766 36.9794 40.9999 37.1403 40.9984C37.2912 40.9954 37.4796 40.9771 37.6861 41.0516C37.9269 41.143 38.1434 41.2191 38.3629 41.2631L38.7203 41.3346L39.181 41.4165C39.4868 41.4626 39.7941 41.4994 40.1015 41.5228C41.1285 41.5943 41.8481 42.0783 42.7984 42.2428C45.2386 42.6625 47.6732 43.2705 50.0903 43.7056L51.6476 43.9904L52.0022 44.0537L52.1472 44.0746L52.4358 44.1123L53.6002 44.2646C54.3785 44.3581 55.1582 44.4423 55.9499 44.4653C57.1165 44.5013 58.2965 44.4801 59.4627 44.583C59.7126 44.605 60.0817 44.6286 60.1322 44.3917C60.2773 43.7452 60.5822 44.143 60.8276 44.193C61.0974 44.245 61.357 44.3221 61.6267 44.3874C61.7357 44.4141 61.8434 44.4367 61.9075 44.2938C61.9586 44.1814 61.9784 44.0066 61.8953 43.9725C61.5126 43.8283 61.6762 43.4256 61.5428 43.1656C61.1597 42.4208 60.4472 42.1616 59.7778 41.9035C58.5121 41.4197 57.1628 41.1868 55.8619 40.8065C54.9412 40.5356 54.007 40.3354 53.0771 40.1339C51.9148 39.8786 50.751 39.6193 49.5887 39.3641C48.326 39.0797 47.0691 38.7848 45.8166 38.4752C44.0232 38.031 42.2196 37.6253 40.4202 37.2184C39.1058 36.922 37.79 36.6216 36.48 36.3241C34.916 35.9656 33.3405 35.6015 31.7322 35.2112C28.679 34.4773 25.6011 33.7816 22.4903 33.073C20.9048 32.7073 19.3178 32.3376 17.7323 31.9719L17.1211 31.8262L16.8155 31.7533C16.7423 31.7342 16.771 31.7482 16.7523 31.7491L16.7221 31.7578L16.4688 31.8079L15.9465 31.9037C15.4415 31.9946 15.1743 32.2089 14.9113 32.4219C14.6555 32.6418 14.3954 32.863 14.1109 33.0688C13.9752 33.1699 13.8523 33.2806 13.7395 33.3929L13.5716 33.5655C13.5484 33.5943 13.5109 33.6229 13.4992 33.6574L13.4969 33.7737C13.4849 34.0797 13.4685 34.3869 13.4463 34.6913C13.3863 35.2958 13.3592 35.913 12.8199 36.4097C12.5958 36.407 12.5768 36.448 12.7817 36.5452L12.7566 36.6369L12.7448 36.6848L12.7477 36.6929C12.7477 36.6929 12.7963 36.7235 12.825 36.7375L13.0212 36.8372L14.5924 37.6252L17.7536 39.2003C19.8505 40.243 21.9431 41.2869 24.0358 42.3308C26.0982 43.37 28.1564 44.4104 30.2074 45.444L31.7399 46.2297L32.4287 46.5846L32.7624 46.7651C33.2048 47.0125 33.6515 47.2586 34.0925 47.5019L34.5994 47.7842L34.8557 47.9201L34.9832 47.986L34.9158 47.9563C34.6995 47.8535 34.4818 47.7466 34.2713 47.6332C33.8531 47.4146 33.468 47.1953 33.1216 46.9918L32.6191 46.6948C32.5547 46.6599 32.5991 46.6783 32.6034 46.6771L32.6336 46.6818L32.6867 46.6978C32.7498 46.7154 32.7899 46.735 32.7123 46.7305L32.7037 46.733C32.5443 46.7118 32.4252 46.6835 32.3937 46.6747C32.3578 46.6672 32.4094 46.6791 32.4825 46.7116C32.5542 46.7401 32.6358 46.7835 32.68 46.8287C32.7314 46.8808 32.6451 46.8921 32.5532 46.8872C31.947 46.8513 31.3451 46.8141 30.7433 46.7769C28.9792 46.6758 27.2194 46.6002 25.4619 46.5862C24.4949 46.5777 23.5308 46.5506 22.5639 46.5154L21.1186 46.4566L20.7566 46.4399L20.6647 46.4351L20.6402 46.4331L20.6316 46.4356L20.6302 46.4316C20.0044 48.7104 22.0248 41.3303 19.2284 51.5393L19.2742 51.5618L19.4476 51.6369L20.1469 51.9399C22.0069 52.7388 23.9062 53.4597 25.8513 53.9986C28.7946 54.8395 31.7829 55.5919 34.8226 55.9737L35.15 56.0137C35.15 56.0137 35.2075 56.0151 35.2362 56.0158L35.4488 56.0262C35.5953 56.0377 35.7389 56.0546 35.8854 56.0661C36.1813 56.0973 36.4642 56.1188 36.7774 56.1316C37.3134 56.1431 37.9515 56.121 38.6776 56.0648C38.8588 56.0531 39.0428 56.0361 39.2312 56.0179L39.513 55.9952L39.582 55.9888C39.582 55.9888 39.6094 55.9855 39.6151 55.9883L39.6006 56.0013L39.5357 56.0466C39.3552 56.1693 39.1531 56.3116 38.908 56.4395C38.6325 56.5894 38.3541 56.7445 38.0643 56.8941C37.6922 57.0938 37.3001 57.277 36.8936 57.4732L36.2666 57.7591L35.4582 58.0969L35.2463 58.1841L35.1383 58.2283L34.928 58.3062L34.0896 58.6125C33.5292 58.817 32.9703 59.0257 32.4028 59.21C31.8368 59.3984 31.2737 59.5949 30.7034 59.7712L28.9856 60.2931C27.7762 60.6386 26.5625 60.9853 25.339 61.2904L24.6004 61.5014C24.3758 61.5656 24.1469 61.6176 23.9252 61.6765C23.0227 61.9076 22.1144 62.136 21.1881 62.2716C20.8097 62.3307 20.4927 62.6749 20.1882 62.6596C19.7846 62.6325 19.4632 62.7733 19.1064 62.8263C18.6347 62.8899 18.1713 62.9911 17.7207 63.1154C17.2643 63.2369 16.8193 63.3907 16.3696 63.5859C15.9012 63.7954 15.3127 63.9056 14.759 63.9793C14.5461 64.009 14.3749 64.0356 14.5477 64.4223C14.7204 64.809 14.3156 64.9558 14.0274 65.0826C13.9804 65.0159 13.9451 64.9282 13.8894 64.8773C13.7665 64.7701 13.6412 64.8059 13.5371 64.9023C13.5053 64.9337 13.4689 65.0064 13.4816 65.0428L13.486 65.0282ZM59.241 42.2437C59.3085 42.2467 59.3589 42.2412 59.4062 42.2544C59.4334 42.2644 59.4533 42.3077 59.4761 42.3323C59.4229 42.3297 59.3726 42.3351 59.3253 42.322C59.2937 42.3132 59.2753 42.274 59.2396 42.2397L59.241 42.2437ZM56.1689 42.8455C56.1172 42.847 56.0654 42.8618 56.0194 42.8526C55.9778 42.8423 55.9494 42.8015 55.9093 42.7684C55.9697 42.7645 56.0216 42.7497 56.0689 42.7629C56.1062 42.7745 56.1404 42.8181 56.1733 42.8443L56.1689 42.8455ZM55.3735 43.1796C55.7152 43.2198 55.9335 43.2465 56.212 43.2826C55.9129 43.5282 55.7083 43.4043 55.3735 43.1796ZM42.0948 39.761C41.9886 39.7424 41.8841 39.6743 41.7781 39.629C41.6464 39.5509 41.6668 39.5006 41.8377 39.5274C41.9439 39.546 42.0613 39.6104 42.1501 39.6606C42.2861 39.7375 42.257 39.7903 42.0905 39.7622L42.0948 39.761ZM48.2504 40.9477C47.7738 40.8748 47.3719 40.8117 46.9699 40.7485L46.8348 40.756L46.9384 40.7264C47.3452 40.708 47.7505 40.7124 48.2504 40.9477ZM51.2974 40.669C51.2743 40.6845 51.1867 40.6784 51.1307 40.6677C51.0948 40.6601 51.0591 40.6258 51.0276 40.6037C51.0751 40.5901 51.1041 40.5641 51.1572 40.5667C51.3224 40.5773 51.3796 40.6188 51.2974 40.669ZM53.1926 42.0051C53.1926 42.0051 53.1565 42.0377 53.1378 42.0386C53.1162 42.0447 53.0774 42.0425 53.0617 42.0247C53.0247 41.973 53.0536 41.9469 53.1311 41.9649C53.1569 41.9708 53.174 41.9926 53.1926 42.0051ZM41.4899 40.1785L41.5758 40.016C42.1368 40.1405 42.7168 40.2373 43.259 40.3894C45.7018 41.0619 48.2052 41.4857 50.6792 42.0158C50.9863 42.0793 51.2718 42.149 51.5602 42.2134C51.7008 42.2489 51.8457 42.2831 51.992 42.3214L52.2115 42.3788C52.2746 42.3964 52.388 42.4219 52.3908 42.43C52.9758 42.6366 53.5897 43.0218 54.1731 42.379C54.3995 42.4701 54.3233 42.701 54.4231 42.8237C54.4986 42.9178 54.616 42.9822 54.7947 43.1269C53.2047 42.7892 51.6549 42.4578 50.1252 42.1295C47.2121 41.498 44.3451 40.8622 41.4856 40.1797L41.4899 40.1785ZM31.9339 37.3025L31.7361 37.2255L31.5699 37.144L31.7563 37.2153L31.9353 37.3066L31.9339 37.3025ZM33.616 37.8364C33.5644 37.8244 33.4455 37.7694 33.3911 37.736C33.3438 37.7095 33.3483 37.6815 33.3284 37.6516C33.4073 37.6735 33.4934 37.689 33.5564 37.7199C33.7856 37.8324 33.8055 37.8757 33.616 37.8364ZM37.0504 38.5059C36.5093 38.4113 36.0326 38.3517 35.4277 38.1152C35.9375 38.1742 36.4817 38.2368 37.0504 38.5059ZM40.0858 39.1069C39.6272 39.1401 39.2973 39.0385 38.9774 38.952C38.7522 38.8917 38.7598 38.8317 38.9981 38.8749C39.3153 38.9266 39.6338 39.0091 40.0858 39.1069ZM31.7922 37.6589C32.6481 37.9616 33.2062 38.0914 33.7586 38.2183C34.3024 38.3477 34.8232 38.4792 35.3848 38.7415C36.1244 38.806 37.014 39.0146 37.8476 39.2258L39.1143 39.5491C39.5605 39.6574 40.0097 39.7605 40.4574 39.8461C38.4632 39.5749 37.2185 39.3833 35.3732 38.7626C34.8854 38.6305 34.4974 38.6346 34.0281 38.5417C33.5444 38.4486 32.9895 38.2601 31.7922 37.6589ZM19.5403 33.0304L19.4311 33.0305L19.2778 32.9586L19.5446 33.0292L19.5403 33.0304ZM27.4102 36.1923C27.0828 36.1657 27.2724 36.3963 26.2089 35.9749C26.0349 35.7621 26.8107 36.0121 27.4102 36.1923ZM27.2622 34.8954C27.1501 34.8874 27.0753 34.9043 26.926 34.8713C26.7366 34.832 26.4914 34.7552 26.2648 34.6909L26.5937 34.7082L27.2622 34.8954ZM29.0996 36.9377C29.4809 37.0779 29.7693 37.1423 30.125 37.2498C30.4793 37.3533 30.9065 37.5026 31.5024 37.7951C30.5847 37.4922 30.1295 37.4398 29.101 36.9417L29.0996 36.9377ZM25.751 36.3237L25.6552 36.2532C25.6183 36.1881 25.7876 36.2243 26.1531 36.3601L27.1479 36.7478C27.6699 36.9101 28.0387 36.9871 28.4376 37.0823C28.8307 37.1746 29.2539 37.2851 29.813 37.4857C30.3894 37.6948 30.7747 37.8873 30.9874 38.089C31.1502 38.2427 31.061 38.2593 30.5409 38.0342C29.4002 37.5414 28.6081 37.3806 27.1693 36.7683L26.1688 36.3779L25.7369 36.2833L25.751 36.3237ZM24.4446 36.3499C24.0549 36.1721 23.6608 35.9954 23.2712 35.8176C23.0549 35.7014 22.8444 35.588 22.6526 35.4737C22.2704 35.2492 21.9556 35.0411 21.7586 34.8437C22.015 34.9662 22.2973 35.0947 22.5222 35.2084C22.863 35.3825 23.2557 35.5417 23.6799 35.723C24.2273 35.9582 24.6357 36.1352 24.908 36.2487C25.2433 36.3932 25.4309 36.4819 25.4939 36.5262C25.6154 36.6161 25.2324 36.5253 24.4475 36.3447L24.4446 36.3499ZM29.7257 42.2224C29.7399 42.2495 29.7885 42.2935 29.7598 42.2928C29.6635 42.2891 29.5429 42.2702 29.4266 42.25L29.73 42.2212L29.7257 42.2224ZM28.8404 42.026L29.3721 42.2434C29.1842 42.1814 28.8811 42.1701 28.8404 42.026ZM26.7435 41.1879L26.8823 41.2729L26.6658 41.1968L26.7435 41.1879ZM25.4294 40.4155C25.4924 40.4464 25.4994 40.48 25.4634 40.4858C25.4332 40.4945 25.2955 40.4537 25.2037 40.4355C25.1378 40.3964 25.0088 40.3399 25.0133 40.3252C25.0151 40.2624 25.1945 40.3002 25.4337 40.4142L25.4294 40.4155ZM19.401 38.6807L20.1604 39.0199L20.914 39.3563L21.2151 39.4705L20.9211 39.3765C20.643 39.2735 20.339 39.1646 20.0825 39.0555C19.7429 38.9123 19.2369 38.7142 19.401 38.6807ZM13.0479 36.4914L13.2056 36.5487L13.0548 36.5384L13.0522 36.4902L13.0479 36.4914ZM16.1138 35.7356C16.1293 35.7801 16.0344 35.7939 15.9767 35.8193C15.8262 35.7555 15.7202 35.7102 15.6142 35.6648C15.7005 35.6535 15.7595 35.6322 15.8601 35.6346C15.9449 35.6326 16.1054 35.698 16.1152 35.7397L16.1138 35.7356ZM14.254 34.4739L14.314 34.5235L14.2623 34.5116L14.2496 34.4752L14.254 34.4739ZM13.9362 34.0664L13.9848 34.1104L13.9589 34.1044L13.9362 34.0664ZM14.3388 33.8179L14.0086 33.7699L13.8435 33.7459L13.8033 33.7395L13.839 33.7605L13.9106 33.8023C14.1125 33.9182 14.3143 34.034 14.5176 34.1539C14.9328 34.3912 15.3967 34.6458 15.7357 34.8826C15.17 34.5949 14.8194 34.3658 14.4502 34.1376C14.2641 34.0261 14.0823 33.9134 13.9006 33.8007L13.829 33.7589L13.7932 33.738C13.7932 33.738 13.8176 33.7399 13.8334 33.7443L13.9985 33.7683L14.3301 33.8204L14.3388 33.8179ZM14.2544 33.535C14.3003 33.5441 14.2758 33.5556 14.1895 33.5669C14.1679 33.5731 14.1421 33.5671 14.1191 33.5692L14.1753 33.5532C14.2012 33.5458 14.24 33.5347 14.2558 33.5391L14.2544 33.535ZM16.2323 34.1134C16.2652 34.1262 16.1546 34.1222 16.0928 34.1221C15.9278 34.0847 15.6752 34.0412 15.6006 34.018C15.4142 33.9601 15.6912 34.0055 15.8018 34.0228C15.9367 34.0421 16.109 34.0596 16.2323 34.1134ZM15.586 33.4038L15.4826 33.3933C15.3808 33.36 15.3229 33.4255 15.2098 33.3466L15.4798 33.3852L15.5874 33.4078L15.586 33.4038ZM21.9391 35.593C21.7843 35.5305 21.6281 35.4639 21.6296 35.4546C21.6253 35.4424 21.6684 35.4434 21.7574 35.467C21.8808 35.494 22.0485 35.5529 22.288 35.6268C22.4011 35.6924 22.6561 35.8109 22.6016 35.8042C22.5427 35.7988 22.1786 35.667 21.942 35.5878L21.9391 35.593ZM18.3587 34.3958C18.5611 34.418 18.8194 34.4777 19.1478 34.5886C19.4465 34.6144 19.3871 34.4712 20.163 34.7078C20.4129 34.9479 19.819 34.7839 19.1492 34.5926C18.8566 34.5027 18.7455 34.5655 18.3573 34.3917L18.3587 34.3958ZM19.7751 35.7752L19.6935 35.7318L19.986 35.8351L19.7751 35.7752ZM22.3652 36.9929L22.4901 37.024C22.8328 37.1352 22.1949 36.8859 23.071 37.1917L22.632 37.0769L22.3652 36.9929ZM17.7606 35.7457C17.2906 35.5284 16.9528 35.3358 16.5848 35.1384C16.2268 34.9425 15.8415 34.7501 15.4504 34.5681C14.8759 34.2962 14.4735 34.082 14.0654 33.8649C13.6671 33.6895 14.1562 33.8256 14.3428 33.8568C14.5896 33.9109 14.8364 33.9649 15.0876 34.0178C16.3507 34.2353 17.711 34.5407 19.51 35.0145C19.0771 35.067 18.3965 34.9812 16.2391 34.3784C16.477 34.4884 16.408 34.4814 15.7743 34.271C15.8472 34.3302 15.8613 34.3707 15.8238 34.3858C15.8022 34.392 15.772 34.4006 15.7231 34.3968L15.6843 34.3945C15.6843 34.3945 15.6284 34.3838 15.6886 34.4067L15.9035 34.5054C16.4421 34.7564 16.7572 34.9245 16.9489 35.0521C17.1406 35.1798 17.2104 35.2711 17.2473 35.3495C17.2614 35.39 17.2755 35.4304 17.2882 35.4669L17.7606 35.7457ZM18.455 36.5662L18.578 36.6467L18.7327 36.736C18.466 36.6387 18.3744 36.5803 18.4378 36.5577C17.3218 36.0267 16.9878 35.6951 16.6622 35.3877L16.5231 35.3295L16.655 35.3808C17.0619 35.5671 17.7443 35.8215 17.7823 35.9442C17.7933 36.0166 17.9793 36.1415 18.1652 36.2663C18.3469 36.3924 18.5329 36.5172 18.4636 36.5637L18.455 36.5662ZM24.4768 38.2139L24.4023 38.1773L24.735 38.2869L24.4725 38.2151L24.4768 38.2139ZM27.6656 39.5275L27.6485 39.5057L27.8391 39.5758L27.667 39.5315L27.6656 39.5275ZM25.3276 39.0742L25.3665 39.0631C25.5646 39.0999 25.0184 38.8956 25.6409 39.0737C25.5762 39.0788 25.5158 39.0827 25.4612 39.0894L25.3276 39.0742ZM23.7849 38.9677C23.0561 38.7843 22.748 38.6499 22.5692 38.5319C22.3947 38.4127 22.3278 38.3028 22.149 38.1848C21.7727 37.9364 21.342 37.6545 20.1294 37.3914L20.0389 37.3906L20.0635 37.3658C20.5475 37.4054 20.3604 37.2364 20.093 37.0414C19.9585 36.9419 19.804 36.8392 19.6868 36.7482C19.6282 36.7026 19.581 36.6627 19.5439 36.6244C19.448 36.5672 19.6288 36.609 19.8082 36.6467C20.0483 36.8451 20.8763 37.2314 21.6629 37.594C22.4551 37.9594 23.203 38.3064 23.5162 38.5372C23.6435 38.6299 24.1163 38.8419 24.3367 38.9702C24.5457 39.0929 24.5482 39.1545 23.7835 38.9636L23.7849 38.9677ZM22.6559 38.8898C21.5272 38.5538 21.0629 38.3527 20.8082 38.1941C20.5577 38.0343 20.5054 37.9113 20.3196 37.7598C20.9001 37.981 21.2079 38.1556 21.4899 38.3242C21.7776 38.4956 22.0381 38.657 22.6617 38.8926L22.6559 38.8898ZM25.6623 39.7483C25.5905 39.7332 25.4041 39.6752 25.3167 39.6424C25.2407 39.6151 25.238 39.5937 25.2051 39.5675C25.3141 39.5942 25.4462 39.6187 25.5365 39.6463C25.895 39.7619 25.9364 39.799 25.6666 39.7471L25.6623 39.7483ZM22.9529 39.4011C22.9372 39.3834 22.8771 39.3472 22.9072 39.3519C23.0179 39.3559 23.1615 39.3727 23.2936 39.3839L23.3627 39.3641L23.3739 39.4099L22.9529 39.4011ZM31.5246 42.4782L31.0888 42.318C30.6121 42.2584 30.0996 42.1913 29.7243 42.2184C28.6039 41.4974 27.618 40.8491 26.6942 40.1743C28.878 41.112 30.063 41.6367 31.086 42.3099C31.2437 42.3671 31.5068 42.3454 31.5246 42.4782ZM35.9465 46.6074L35.9549 46.6317L35.919 46.6375L35.9479 46.6114L35.9465 46.6074ZM35.4921 45.5626C35.5879 45.6331 35.7296 45.7128 35.7652 45.7738C35.8206 45.8647 35.7129 45.8555 35.5726 45.7665C35.4639 45.6997 35.3495 45.6167 35.291 45.5444C35.2268 45.4693 35.3245 45.477 35.4921 45.5626ZM31.6882 43.6016C32.8943 43.9823 33.6304 44.5817 34.1749 45.0402C33.9172 44.8869 33.6766 44.7688 33.4015 44.6471C33.0519 44.489 32.6922 44.3426 32.3166 44.1918C31.7032 43.9444 31.6313 43.738 31.6882 43.6016ZM37.5213 46.1931L37.4858 46.132C37.1148 45.9533 36.7697 45.7671 36.4146 45.566C35.9794 45.3255 35.5141 45.0536 35.0661 44.79C34.6109 44.5196 34.1442 44.2436 33.6718 43.9648C33.1779 43.6788 32.6726 43.3871 32.1486 43.083C33.0887 43.2727 33.6347 43.4904 34.2635 43.8091C34.8908 44.1238 35.482 44.471 36.0884 44.6982C36.6647 44.9073 37.2317 45.2258 37.5087 45.4892C37.7915 45.7555 37.7872 45.9747 37.5274 46.1424L37.5227 46.1971L37.5213 46.1931ZM41.1338 55.372L41.2934 55.3531L41.1725 55.3876L41.1295 55.3732L41.1338 55.372ZM44.405 54.4285C44.7728 54.4347 45.2487 54.3966 45.3893 54.4321C44.7897 54.4966 44.5037 54.4938 44.405 54.4285ZM38.7248 55.2327L38.8587 55.1944L38.811 55.2347L38.7248 55.2327ZM38.313 54.2692C38.4294 54.2626 38.5617 54.247 38.6594 54.2547C38.7829 54.2684 38.879 54.2988 39.0024 54.3258C38.8615 54.3305 38.7335 54.3448 38.6402 54.3359C38.5167 54.3222 38.4249 54.2906 38.313 54.2692ZM36.5969 55.1777L36.6716 55.1741L36.598 55.2218L36.5955 55.1736L36.5969 55.1777ZM34.9813 53.4858C34.9819 53.4055 35.0782 53.3958 35.2344 53.4624C35.2711 53.5676 35.3594 53.6848 35.3486 53.7902C35.344 53.8449 35.1243 53.8142 35.0601 53.7391C34.9931 53.6559 34.9808 53.566 34.9813 53.4858ZM32.2369 54.5234C33.1013 54.6324 33.5923 54.7057 34.0638 54.9003C33.5162 54.9099 33.0546 54.7437 32.2369 54.5234ZM30.2673 53.3554L30.3879 53.361L30.402 53.4014L30.2673 53.3554ZM29.6017 52.3042L29.7047 52.3682C30.3896 52.6709 31.0863 52.939 32.2158 53.3727C31.5356 53.22 31.0034 53.0828 30.5891 52.9298C30.1763 52.7674 29.8771 52.5904 29.663 52.3712L29.6017 52.3042ZM27.0001 53.6837L27.402 53.7602L27.6999 53.9064C27.5679 53.8819 27.43 53.8679 27.3024 53.8287C27.1963 53.7967 27.1033 53.7343 27.0059 53.6865L27.0001 53.6837ZM25.1986 52.739L25.3221 52.7527L25.3362 52.7932L25.1986 52.739ZM20.52 50.721C20.6493 50.7241 20.7595 50.7815 20.8394 50.8744C20.8177 50.8939 20.816 50.93 20.7729 50.929C20.6479 50.9247 20.5233 50.8668 20.4578 50.7743C20.4393 50.7485 20.4754 50.7159 20.5185 50.7169L20.52 50.721ZM20.2082 50.0581L20.2816 50.0371L20.3042 50.1019L20.2082 50.0581ZM22.0544 48.8144C22.0394 48.9076 21.8666 48.957 21.6697 48.9643C21.3868 48.9294 21.2278 48.8547 21.2054 48.7632C21.1774 48.6556 21.3889 48.6218 21.6316 48.637C21.8744 48.6522 22.0738 48.7065 22.0544 48.8144ZM23.9492 47.8192L23.9201 47.872L23.8558 47.8236L23.9549 47.822L23.9492 47.8192ZM24.5853 48.336L24.4489 48.3127L24.5755 48.2943L24.5882 48.3307L24.5853 48.336ZM26.9056 47.7576L26.7762 47.7679L26.7765 47.7278L26.9085 47.7524L26.9056 47.7576ZM28.1908 47.6841L28.0501 47.662L28.1781 47.6477L28.1908 47.6841ZM28.3441 49.0641C28.2379 49.0455 28.1636 48.9822 28.0762 48.9359C28.1496 48.915 28.239 48.8716 28.331 48.8765C28.4531 48.8861 28.6554 48.9217 28.6825 48.9585C28.7694 49.0716 28.5752 49.1004 28.3441 49.0641ZM29.8924 49.1868L29.7517 49.1647L29.8797 49.1504L29.8924 49.1868ZM32.5665 47.9201C32.5665 47.9201 32.5418 47.9583 32.5231 47.9592C32.4972 47.9666 32.4598 47.9683 32.4412 47.9558C32.3898 47.9172 32.4086 47.8895 32.4862 47.8941C32.5106 47.896 32.5349 47.9113 32.5622 47.9213L32.5665 47.9201ZM33.3884 49.6785L33.2694 49.6369L33.1849 49.5854L33.3025 49.623L33.3884 49.6785ZM33.1265 47.987L33.062 47.9654L33.1052 47.953L33.1265 47.987ZM34.7458 49.3352C34.6969 49.3314 34.6324 49.3098 34.5721 49.3003C34.5909 49.286 34.5982 49.2661 34.6299 49.2615C34.6715 49.2585 34.7377 49.2574 34.785 49.2706C34.9198 49.3166 34.911 49.3459 34.7458 49.3352ZM34.2682 47.8833L34.2008 47.8669L34.1909 47.8386L34.2668 47.8792L34.2682 47.8833ZM41.2142 49.5116L41.2341 49.5416L41.0706 49.4948L41.2156 49.5157L41.2142 49.5116ZM40.105 48.823L40.3129 48.8882L40.0576 48.8232L40.1107 48.8258L40.105 48.823ZM43.0175 49.0988C43.0417 49.1408 43.1461 49.2089 43.0326 49.2102C42.922 49.2062 42.5576 49.1011 42.6052 49.0876C42.6613 49.0715 42.8796 49.0982 43.0189 49.1028L43.0175 49.0988ZM39.1657 47.4362C39.3334 47.5085 39.5312 47.5854 39.6701 47.657C39.8019 47.7217 39.6826 47.7201 39.575 47.6975C39.0068 47.5662 38.9812 47.5201 38.9988 47.475C39.0104 47.4539 39.1096 47.4523 39.1657 47.4362ZM38.2592 46.9611C38.4087 46.954 38.5264 46.9782 38.5362 47.0199C38.5404 47.032 38.4656 47.0356 38.4254 47.0427C38.3637 47.0291 38.2775 47.0137 38.2546 47.0024C38.226 46.9884 38.2218 46.9629 38.2549 46.9623L38.2592 46.9611ZM43.9277 47.9356C43.6407 47.8618 43.4789 47.779 43.4004 47.7036C43.3632 47.6652 43.3448 47.626 43.3408 47.5871C43.3351 47.5709 43.3381 47.5523 43.3411 47.5336C43.3383 47.5255 43.3455 47.519 43.3456 47.5057L43.3028 47.4645L43.3304 47.421L43.3974 47.4908C43.8531 47.6944 44.1804 47.7477 44.5539 47.7566C44.5785 47.7452 44.593 47.7188 44.6332 47.7251C44.738 47.7397 44.847 47.7663 44.9503 47.7902L45.4583 47.9121L44.9315 47.8179C44.7995 47.7799 44.6961 47.7694 44.6385 47.7948C44.3823 47.8502 44.4441 48.0683 43.9277 47.9356ZM45.3217 49.0055L45.1656 48.9256C45.137 48.8981 45.0698 48.8551 45.0827 48.8514C45.1302 48.8378 45.2205 48.8787 45.3005 48.9582C45.3219 48.9788 45.3117 48.9906 45.3188 49.0108L45.3217 49.0055ZM47.4786 50.3292C47.3998 50.2939 47.3655 50.2636 47.4158 50.2582C47.4288 50.2545 47.4588 50.2726 47.4861 50.2826C47.5018 50.3003 47.5317 50.3318 47.5274 50.3331C47.5188 50.3355 47.5058 50.3392 47.4829 50.328L47.4786 50.3292ZM44.417 51.5198L44.5764 51.541C44.7559 51.552 44.9328 51.5415 45.095 51.5708C45.2112 51.591 45.2222 51.6768 45.1058 51.67C44.9492 51.6569 44.7614 51.5949 44.5792 51.5491L44.4227 51.5226L44.417 51.5198ZM34.6794 51.1205C34.6794 51.1205 34.8102 51.1143 34.8792 51.1079C34.9495 51.1323 35.0671 51.1566 35.0842 51.1784C35.1354 51.2572 35.0046 51.2634 34.768 51.1975C34.7092 51.1788 34.662 51.1388 34.6794 51.1205ZM28.5837 51.5094L29.3242 51.6716L29.4 51.7256L29.2767 51.6852C29.2106 51.6729 29.1317 51.6643 29.0872 51.6459C28.9425 51.5849 28.5726 51.6683 28.5837 51.5094ZM23.288 51.5497C23.3294 51.3688 23.6441 51.3723 23.94 51.3901C24.1138 51.3983 24.4888 51.4113 24.2654 51.5196C24.0938 51.5998 24.2788 51.8717 23.6617 51.7499C23.4938 51.7178 23.3939 51.6084 23.2894 51.5537L23.288 51.5497ZM23.2116 50.4992L23.5614 50.6173L23.6559 50.6704L23.5312 50.6259C23.4554 50.572 23.1202 50.6188 23.2116 50.4992ZM25.8882 49.0627L25.7676 49.0438L25.7722 49.0024L25.8882 49.0627ZM29.3693 50.057L29.2458 50.0567C29.2345 50.0243 29.1945 49.9913 29.2047 49.9661C29.244 49.8881 29.3186 49.898 29.3842 49.9771C29.4027 50.003 29.3738 50.029 29.3679 50.053L29.3693 50.057ZM40.7485 52.3454L40.5216 52.3212L40.7545 52.3081L40.7485 52.3454ZM43.037 53.3244C42.4313 53.4396 41.8951 53.4683 41.4279 53.4905C40.9636 53.5074 40.528 53.5385 40.2068 53.6391C40.228 53.6998 40.5928 53.7246 40.1411 53.8047C40.1342 53.7577 40.1332 53.7002 40.1249 53.6492C39.3029 53.6482 38.6639 53.5727 38.0122 53.4608C37.3822 53.3293 36.7308 53.1773 36.0274 53.0668C35.8738 53.035 35.726 53.0061 35.5882 52.9787C35.4749 52.9532 35.3687 52.9346 35.2711 52.9136C35.0716 52.8727 34.9008 52.8459 34.7514 52.8396C34.4569 52.8259 34.2566 52.9053 34.1443 53.1554C34.0641 53.3341 33.5168 53.2902 33.4141 52.9681C33.383 52.879 33.407 52.7298 33.2059 52.725C31.8623 52.7128 30.7565 51.9521 29.4742 51.8023C28.75 51.7956 28.0161 51.5159 27.4605 51.2163C26.8664 50.8744 26.4139 51.4975 25.8324 50.7694C25.6927 50.6002 25.2698 50.6542 25.1942 50.7915C25.0648 51.0198 25.9872 51.486 25.3813 51.6146C24.5806 51.2249 23.2559 50.9671 23.4483 50.3337C23.6491 50.392 23.867 50.4722 24.0423 50.4844C24.2045 50.5003 24.4519 50.4741 24.4249 50.424C24.3099 50.2166 24.0226 50.1964 23.7913 50.1868C23.6232 50.1814 23.4894 50.2063 23.3356 50.2147L23.0418 50.0939C23.0004 50.0568 22.9633 50.0185 22.9075 49.981C22.8946 49.9714 22.794 49.969 22.7968 49.977C22.8138 50.0122 22.8553 50.0493 22.8881 50.0889C21.9207 49.9025 22.2306 49.3335 21.3013 49.0384L20.9672 48.9247L20.7981 48.8618L20.715 48.8277L20.6719 48.8133L20.6504 48.8061C20.8051 48.228 20.434 49.5887 20.4709 49.4492L20.4752 49.4479L20.4838 49.4455C20.7281 49.4513 20.9738 49.4612 21.2208 49.4752C21.715 49.5031 22.2149 49.5338 22.7148 49.5645C23.7074 49.619 24.6874 49.6238 25.5842 49.4032C25.8375 49.3397 26.2896 49.4241 26.6022 49.5306L26.1245 49.6181C26.3866 49.7568 26.5583 49.6499 26.7597 49.6146C27.8567 49.7506 28.9656 49.8253 30.0703 49.8879C31.1807 49.9533 32.2624 50.0046 33.466 50.1057C33.6168 50.116 33.7717 50.1652 33.9353 50.1985C34.1663 50.0436 34.304 49.8663 34.8828 49.9056C35.2721 49.9323 35.5737 49.9529 35.7907 49.9621C36.4889 49.9896 36.3947 49.883 35.9164 49.4235C36.3958 49.5045 36.8756 49.7501 37.4985 49.8613C40.3191 50.3502 43.2365 50.5445 45.0014 50.4985C45.4729 50.4884 45.4335 50.3484 43.9978 49.9355C43.3466 49.7433 42.8161 49.5701 43.5482 49.6947C43.6788 49.7152 43.7965 49.7394 43.897 49.7552C43.973 49.769 43.9515 49.7618 43.986 49.7653C44.0104 49.7673 44.0362 49.7732 44.0764 49.7795C44.23 49.8113 44.5226 49.8879 45.1193 50.06C47.3137 50.7145 46.4786 50.2945 45.9529 50.0399C45.3713 49.7611 44.0517 49.3817 43.009 49.0879C42.6637 48.9285 41.4546 48.5664 42.3546 48.7231C44.0614 49.0141 43.0583 48.5755 42.0723 48.172C41.2138 47.821 40.6122 47.5257 40.0624 47.229C39.5469 46.9492 39.0645 46.6554 38.499 46.3409C39.327 46.3046 39.9879 46.5384 40.8297 47.0187C41.454 47.3654 41.8187 47.6215 42.3298 47.916C42.8251 48.2061 43.3635 48.4972 43.9579 48.799C44.5637 49.1064 45.2198 49.4217 45.8716 49.7383C46.307 49.952 46.7209 50.1719 47.1218 50.3956C47.3179 50.5086 47.5183 50.6204 47.7202 50.7363L47.7961 50.7769C47.7961 50.7769 47.8749 50.8122 47.8203 50.8055L47.6379 50.7998L47.2686 50.7896C46.6566 50.7643 46.3162 50.7414 45.9727 50.7372C45.6365 50.7398 45.2685 50.747 44.7203 50.8503C44.6944 50.8577 44.6599 50.8675 44.6239 50.8734C44.4296 50.9155 44.0374 50.9075 43.6126 50.8197C43.0299 50.7014 42.0236 50.5395 42.1005 50.651C42.2728 50.8866 42.0152 50.9379 41.5714 50.9045C41.3531 50.8913 41.109 50.8587 40.776 50.8025C40.4702 50.7564 40.1859 50.7175 39.9647 50.7095C38.7851 50.6639 37.3811 50.451 36.1806 50.3179C35.3995 50.2296 34.6813 50.1723 33.9583 50.1964C33.6646 50.2803 33.2823 50.2872 32.8815 50.2682C32.4821 50.2533 32.0585 50.2097 31.7252 50.1937C30.642 50.1383 29.5674 50.0939 28.5279 50.1773C28.4791 50.1601 28.429 50.1388 28.373 50.1281C28.3529 50.1249 28.2752 50.1471 28.2823 50.154C28.2994 50.1758 28.3452 50.1983 28.3767 50.2205C27.2504 50.164 26.1682 49.9616 25.013 49.9446L22.7327 49.9019L21.5933 49.876L21.0229 49.861L20.7355 49.8541L20.5918 49.8506L20.52 49.8489L20.4869 49.8495L20.4696 49.8544L20.4582 49.8488C21.2342 47.0198 20.6746 49.0662 20.8483 48.4337C22.2299 49.0045 23.6187 49.5554 25.0413 50.0121C25.8527 50.2964 26.7443 50.6468 27.4822 50.7608C27.9575 50.8163 28.1161 50.7265 28.4502 51.0582C28.6886 51.2926 29.0909 51.5336 29.4271 51.749C29.5472 51.6302 29.7202 51.5407 30.1335 51.6362C30.7045 51.7756 31.2803 51.8469 31.8559 51.945C32.43 52.0524 33.0084 52.1585 33.5934 52.3651C34.1869 52.5826 34.9501 52.7695 35.4905 52.5484L35.4176 52.4891L35.5308 52.5413L35.7273 52.6008L35.9998 52.6743C36.172 52.7185 36.3442 52.7494 36.5208 52.779C36.8711 52.8302 37.2288 52.8482 37.6689 52.7892C37.9005 52.7586 38.3014 52.7508 38.6678 52.7663C39.0414 52.7752 39.3962 52.7851 39.4534 52.84C39.7293 53.0592 40.2272 53.1661 40.8547 53.236C41.504 53.2863 42.3735 53.2604 43.0299 53.3176L43.037 53.3244ZM41.716 54.2491C41.4583 54.3272 41.2822 54.4487 40.8671 54.416C40.7493 54.4051 40.613 54.3684 40.6348 54.3355C40.6754 54.275 40.8482 54.2256 41.0208 54.203C41.1818 54.1881 41.3918 54.1637 41.5299 54.151C41.9829 54.0883 41.8372 54.1744 41.7117 54.2503L41.716 54.2491ZM45.7211 53.1627C45.6591 53.1893 45.5183 53.1806 45.4076 53.19C45.4255 53.0914 45.4305 52.9832 45.4873 52.8736C45.5324 52.785 45.656 52.7853 45.7718 52.8724C45.8904 52.9809 45.8911 53.0919 45.7225 53.1668L45.7211 53.1627ZM40.3708 55.3631C39.8158 55.4059 39.4104 55.4283 39.2936 55.2704C40.0354 55.232 40.1958 55.3107 40.3708 55.3631ZM47.7261 54.2005C47.2846 54.2421 46.6642 54.1791 46.4899 54.2511C46.4106 54.2827 46.0326 54.3017 45.9567 54.2611C45.9137 54.2333 45.8219 54.2151 45.7071 54.1856C45.5852 54.1492 45.4475 54.1085 45.3055 54.0689C45.0288 53.97 44.7821 53.9026 44.8934 53.5816C44.9936 53.6509 45.1022 53.731 45.2026 53.7736C45.3015 53.812 45.4004 53.8505 45.5079 53.8865C45.7173 53.9558 45.9382 54.0172 46.1749 54.0697C46.6329 54.1302 47.1686 54.1818 47.7217 54.2018L47.7261 54.2005ZM41.1467 55.5863C41.0835 55.5955 41.0202 55.6047 40.9555 55.6098C40.9987 55.5975 41.0232 55.586 41.0937 55.5703C41.3858 55.5091 41.5081 55.492 41.3799 55.533C41.3453 55.5429 41.2302 55.5669 41.1511 55.5851L41.1467 55.5863ZM48.3637 54.2586L48.3033 54.2625L48.2775 54.2565L48.3637 54.2586ZM47.9474 54.4131C47.9474 54.4131 47.9072 54.4068 47.8885 54.4077C47.8641 54.4058 47.8756 54.398 47.8483 54.4014C47.8052 54.4004 47.8024 54.3923 47.8629 54.375C48.0644 54.3263 48.2772 54.2967 48.303 54.316C48.2324 54.3451 48.0697 54.3826 47.9517 54.4119L47.9474 54.4131ZM47.6011 54.8369L47.7079 54.7752L47.6443 54.8245L47.6055 54.8356L47.6011 54.8369ZM41.8748 56.0946C41.8681 56.2523 41.2807 56.4067 40.1518 56.5335C40.73 56.2437 41.2664 55.9704 41.7871 55.6792C41.5858 55.6878 41.6723 55.6497 41.9674 55.5699L42.2394 55.5055L42.0148 55.5697L41.9053 55.6232L41.8144 55.6759C41.8898 55.7833 41.8744 55.9435 41.8748 56.0946ZM45.2679 55.8549C45.334 55.8405 45.4749 55.8358 45.4418 55.8498C45.4071 55.873 45.3322 55.9033 45.2486 55.9361C45.1465 55.9564 44.9752 55.9964 44.9537 55.9892C44.8547 55.9641 44.9743 55.9121 45.2664 55.8509L45.2679 55.8549ZM45.4673 56.7679C45.5938 56.5449 45.9245 56.2947 46.1197 56.1188C46.3121 55.9348 46.3877 55.7975 46.109 55.7882C46.5166 55.6361 46.6533 55.6193 46.7566 55.6432C46.8556 55.6683 46.9184 55.726 47.0622 55.7161C47.7492 55.2617 46.9849 55.4534 47.4425 55.1447C47.6844 55.0756 47.7099 55.1217 47.669 55.2223C47.628 55.3364 47.5133 55.5115 47.4031 55.6721C47.2333 55.9208 47.0135 56.1215 46.6934 56.293C46.3817 56.4889 45.9697 56.6422 45.4673 56.7679ZM47.4775 56.7987C47.5576 56.6468 47.7431 56.6205 47.893 56.5599C48.0328 56.4977 48.1749 56.5238 48.1327 56.5937C48.0659 56.7018 47.8958 56.786 47.7444 56.8559C47.6061 56.9221 47.4999 56.8902 47.4833 56.8015L47.4775 56.7987ZM44.1229 57.5435C44.0613 57.5166 43.9911 57.4788 44.0489 57.4267C44.195 57.2871 44.4711 57.2616 44.6753 57.2344C44.9515 57.1956 44.9885 57.2473 44.7749 57.3839C44.5197 57.5102 44.2633 57.6057 44.1243 57.5476L44.1229 57.5435ZM39.6563 57.5782C39.6563 57.5782 39.6092 57.5383 39.638 57.5256C39.7548 57.4656 39.8583 57.4627 39.8794 57.5234C39.8851 57.5396 39.8404 57.5613 39.8187 57.5808C39.7612 57.5794 39.7037 57.578 39.652 57.5795L39.6563 57.5782ZM39.4317 60.9126C39.5457 60.8311 39.6225 60.7379 39.7739 60.668C39.9886 60.5755 40.1481 60.57 40.0656 60.6737C40.0134 60.742 39.892 60.8434 39.7392 60.9093C39.5129 61.0095 39.3851 60.9971 39.4303 60.9086L39.4317 60.9126ZM38.6214 60.2231C38.6554 60.0888 38.817 59.9803 39.0361 59.8866C39.2566 59.7836 39.5331 59.6912 39.7953 59.5985C40.177 59.4672 40.4427 59.4937 40.6897 59.5076C41.8168 59.0076 41.513 58.8853 41.0091 58.8024L40.8322 58.8262L41.0265 58.7841C41.8449 58.6659 42.6623 58.4902 43.628 58.2766C43.3529 58.5911 42.8942 58.8556 42.354 59.05C41.8052 59.2468 41.2179 59.3879 40.6753 59.5206C40.3887 59.6114 40.0922 59.6872 39.8443 59.7936C39.4624 59.9517 39.4578 60.2244 38.8364 60.3085C38.7142 60.3256 38.6153 60.2738 38.6301 60.2206L38.6214 60.2231ZM38.7985 58.0057L38.7383 57.9695L38.8633 57.9739L38.7985 58.0057ZM37.3703 59.4816L37.5055 59.4741C37.772 59.3668 38.0472 59.2704 38.3123 59.1591C38.3011 59.1133 38.2799 59.066 38.2816 59.0165C38.2774 59.0044 38.3668 58.9611 38.3668 58.9611C38.5506 58.9842 38.4091 59.0825 38.3511 59.1613C38.2031 59.3771 37.8619 59.4746 37.4809 59.4989L37.366 59.4828L37.3703 59.4816ZM36.0864 58.7138C36.4467 58.3306 36.7786 58.1245 37.113 57.9801C37.4545 57.8291 37.8949 57.73 38.3241 57.5851C38.3301 57.5478 38.3074 57.5098 38.3421 57.4732C38.3927 57.4276 38.3917 57.37 38.6704 57.3794C38.6299 57.4132 38.5952 57.4498 38.5404 57.4833C38.4855 57.5167 38.4177 57.5539 38.3572 57.5846C38.3815 57.8179 37.965 57.9991 37.5285 58.1639C37.0963 58.3274 36.5752 58.4674 36.0821 58.7151L36.0864 58.7138ZM36.4672 60.883C36.5422 60.8527 36.6271 60.8374 36.7019 60.8204C36.6658 60.853 36.6368 60.8924 36.5805 60.9218C36.5127 60.959 36.3802 61.0147 36.3457 61.0112C36.2164 61.0081 36.2238 60.9748 36.4716 60.8818L36.4672 60.883ZM34.5336 59.4911L34.9097 59.1123C34.9144 59.0576 34.8931 59.0102 34.846 58.9703L34.7455 58.9545L34.8892 58.9446C34.9294 58.9509 35.0042 58.9474 35.0055 58.9648C35.0067 59.0089 34.9732 59.063 34.9571 59.1121C34.8068 59.2395 35.0847 59.3826 34.535 59.4952L34.5336 59.4911ZM34.9388 61.4442L35.0813 61.4169L34.9587 61.4875L34.9432 61.443L34.9388 61.4442ZM34.3744 60.3019L34.4252 60.2295C34.5853 60.1437 34.7383 60.0377 34.9112 59.975C35.0552 59.925 35.1367 59.9951 35.0271 60.0487C34.8685 60.1251 34.657 60.1722 34.4683 60.2305L34.3744 60.3019ZM34.888 61.966L34.9171 61.8998L34.9945 61.9311L34.8894 61.97L34.888 61.966ZM23.4655 63.3962C23.1828 63.1299 23.0477 62.906 22.8041 62.8065C22.6651 62.7484 22.6015 62.5797 22.7158 62.458C22.8186 62.3441 22.9649 62.3958 23.069 62.5173C23.2486 62.7329 23.4426 62.9489 23.4669 63.4002L23.4655 63.3962ZM23.5785 63.6932L23.5438 63.7298L23.5311 63.6934L23.5785 63.6932ZM23.969 62.674C23.9325 62.76 23.8324 62.6774 23.7999 62.5977C23.756 62.499 23.7079 62.3882 23.7876 62.2898C23.832 62.3082 23.9081 62.3221 23.9136 62.3516C23.9503 62.4568 23.9982 62.5944 23.969 62.674ZM24.6236 62.5626C24.5559 62.5864 24.523 62.5602 24.5178 62.4771L24.5078 62.2442C24.5507 62.2719 24.6095 62.2907 24.6323 62.3287C24.6734 62.406 24.6887 62.4906 24.6265 62.5573L24.6236 62.5626ZM25.6515 63.795L25.6081 63.8341L25.5912 63.7855L25.6515 63.795ZM25.4617 62.7325C25.4617 62.7325 25.4384 62.7747 25.4196 62.789C25.3994 62.7992 25.3721 62.8026 25.3477 62.8006C25.339 62.8031 25.3321 62.7695 25.3221 62.7545L25.4588 62.7378L25.4617 62.7325ZM28.0332 61.3215L27.9039 61.3184L27.4827 61.3364L27.9342 61.2964L28.0375 61.3203L28.0332 61.3215ZM27.6391 61.8123L27.6734 61.8426L27.5353 61.8687L27.6391 61.8123ZM29.8324 61.1012C29.8548 61.1926 29.7406 61.3009 29.5166 61.2715C29.4017 61.2554 29.3938 61.1508 29.3943 61.0706C29.3945 61.0439 29.5559 60.9755 29.6828 60.9036C29.7355 60.9731 29.8114 61.0271 29.831 61.0971L29.8324 61.1012ZM33.215 59.6053L33.3561 59.5739L33.2551 59.6384L33.2194 59.6041L33.215 59.6053ZM33.544 62.0207C33.5701 61.9866 33.5847 61.9468 33.6294 61.9251C33.7851 61.854 33.9015 61.8474 33.9255 61.9162C33.9325 61.9364 33.8934 61.9876 33.8487 62.0093C33.693 62.0805 33.5896 62.0833 33.5483 62.0195L33.544 62.0207ZM32.3736 62.3284L32.479 62.2627L32.5133 62.2929L32.3722 62.3243L32.3736 62.3284ZM31.8159 61.0417C31.8159 61.0417 32.1131 60.8723 32.2743 60.8307C32.4528 60.7841 32.6324 60.7951 32.8121 60.7794L33.3785 60.9601L33.4703 60.9917L33.3525 60.9809L32.9248 61.1164L32.841 61.1893L32.8904 61.1129L32.7717 60.7998C32.6436 60.8409 32.5139 60.8912 32.3872 60.923C32.1871 60.9757 31.9313 61.1956 31.8102 61.0389L31.8159 61.0417ZM31.1121 60.344L31.25 60.3447L31.3692 60.3596L31.2342 60.3537L31.1107 60.34L31.1121 60.344ZM25.5885 65.0721L25.6275 65.0343L25.6416 65.0748L25.5871 65.0681L25.5885 65.0721ZM25.5231 64.7482L25.5062 64.6997L25.565 64.7051L25.5231 64.7482ZM24.3599 64.4087C24.372 64.3207 24.4515 64.2491 24.5374 64.2913C25.0473 64.5549 25.456 64.2424 25.7365 63.9843C25.7871 63.9387 25.8348 63.8984 25.8853 63.8661C25.9084 63.8506 25.9358 63.8339 25.9603 63.8225L25.9819 63.8163L26.0323 63.7974L26.136 63.7678C26.4053 63.682 26.6658 63.6254 26.9189 63.5886C27.4267 63.5192 27.8996 63.4998 28.4068 63.5106C28.5735 63.5119 28.8835 63.3522 28.978 63.4053C29.0082 63.3966 29.0298 63.3905 29.06 63.3818C29.4413 63.0994 30.0788 62.7482 28.8995 62.8804L28.797 62.9542L28.8751 62.8785C28.8074 62.6843 28.5333 62.6336 28.0312 62.7192C27.9146 62.7391 27.3212 62.9442 27.753 62.6296C28.1906 62.3044 29.7215 62.0093 29.6253 62.2237C29.323 62.9508 30.7941 62.5794 31.4967 62.8103C30.9557 62.9203 30.462 63.0436 29.0065 63.4327C29.0108 63.4448 29.0164 63.461 29.0148 63.4837C28.9863 63.6743 28.652 63.8054 28.235 63.8489C27.3203 63.95 26.4209 64.1492 27.6345 63.8158C27.2213 63.9249 26.7607 64.0476 26.2425 64.1823C26.0783 64.2292 26.0654 64.2329 26.0092 64.249C25.9574 64.2638 25.9056 64.2786 25.8551 64.2974C25.7472 64.3283 25.6377 64.3685 25.5225 64.4058C25.2864 64.4644 24.9395 64.5457 24.5899 64.6055C24.4777 64.6242 24.3588 64.5692 24.3757 64.4131L24.3599 64.4087ZM24.2263 63.0988L24.2639 63.0569L24.2449 63.1113C24.1976 63.3027 24.2355 63.4387 24.461 63.4588C24.5945 63.4741 24.728 63.5027 24.863 63.522C24.8905 63.4785 24.9053 63.4253 24.9428 63.3968C24.9948 63.3553 25.057 63.3019 25.1312 63.3786L25.0057 63.4545L24.8816 63.5345C24.9037 63.6661 24.9566 63.9134 24.9423 63.9131C24.6099 63.9814 24.2799 63.8932 24.0489 63.6255C23.8407 63.3824 24.0616 63.2259 24.2249 63.0947L24.2263 63.0988ZM23.2405 64.8353C23.506 64.4524 23.731 64.5394 24.0045 64.6838C23.8213 65.0164 23.5664 64.8846 23.2405 64.8353ZM22.5561 64.8884L22.5993 64.8761L22.5903 64.9321L22.5561 64.8884ZM22.3683 64.377C22.6934 63.906 23.084 64.1548 23.481 64.3261C23.1089 64.3078 22.7409 64.3285 22.3683 64.377ZM22.1578 63.623C22.1594 63.6003 22.1495 63.572 22.1568 63.5521C22.1889 63.4806 22.2277 63.4829 22.2531 63.5557C22.2587 63.5719 22.2427 63.6076 22.2268 63.6166C22.2109 63.6256 22.1808 63.6209 22.1564 63.6189L22.1578 63.623ZM22.3332 65.5706L22.5182 65.6245L22.5653 65.6644L22.5051 65.6416L22.3318 65.5665L22.3332 65.5706ZM21.2649 62.8191C21.3831 62.7631 21.447 62.8917 21.5343 62.938L21.7259 63.079C21.7777 63.0775 21.8266 63.068 21.8741 63.0544L21.9133 63.0032L21.8813 63.0613C21.8448 63.134 21.7902 63.1407 21.7215 63.0936L21.5227 62.9591C21.4438 62.9371 21.3649 62.9152 21.2889 62.8879C21.2774 62.8823 21.2663 62.8232 21.2663 62.8232L21.2649 62.8191ZM20.7784 63.3719C20.6653 63.3063 20.5425 63.1991 20.5077 63.0177C20.4994 62.98 20.5473 62.8996 20.5847 62.8978C20.7673 62.8768 20.893 62.9921 20.9537 63.1661C20.9833 63.2511 20.9124 63.3203 20.7798 63.376L20.7784 63.3719ZM21.1802 65.2059C21.1904 65.1807 21.1921 65.1447 21.2065 65.1316C21.2657 65.0969 21.3029 65.1219 21.2909 65.1965C21.2879 65.2152 21.2576 65.2372 21.236 65.2433C21.223 65.247 21.1988 65.2184 21.1802 65.2059ZM20.6785 63.9299L20.6895 63.7844C20.787 63.8188 20.8831 63.8492 20.979 63.893C20.9848 63.8958 20.9782 64.0134 20.9537 64.0248C20.8456 64.0824 20.7555 64.0147 20.6785 63.9299ZM20.5922 64.7999L20.6511 64.8053L20.6121 64.8432L20.5966 64.7987L20.5922 64.7999ZM19.9228 63.4651C19.8536 63.4982 19.7606 63.4358 19.7813 63.3453C19.7932 63.2841 19.8783 63.242 19.9274 63.1924C19.9689 63.2295 20.0375 63.2766 20.0346 63.2819C20.0055 63.348 19.9804 63.4397 19.9271 63.4639L19.9228 63.4651ZM19.9978 64.2935C20.0354 64.2516 19.9385 64.1369 20.0605 64.1465L20.0049 64.3003C20.0032 64.3498 20.0057 64.398 19.9982 64.4446C19.9981 64.458 19.9722 64.4654 19.9607 64.4731C19.9051 64.3956 19.9644 64.3475 19.992 64.2907L19.9978 64.2935ZM19.2474 63.4623C19.2474 63.4623 19.2835 63.4297 19.3023 63.4154C19.3209 63.4279 19.3553 63.4448 19.3552 63.4582C19.3593 63.4837 19.349 63.5222 19.3288 63.5324C19.2654 63.5684 19.2311 63.5381 19.2431 63.4635L19.2474 63.4623ZM18.5377 63.8652L18.5711 63.8112L18.6059 63.7612L18.5768 63.814L18.5377 63.8652ZM17.901 63.8781L17.985 63.7784L18.1067 63.8415C18.0777 63.881 18.0586 63.9487 18.0226 63.9546C17.9881 63.9644 17.9396 63.9071 17.901 63.8781ZM16.931 64.0929L16.9644 64.0389L17.0247 63.8303L17.1348 63.9145L16.9716 64.0457L16.931 64.0929ZM16.4658 64.257C16.4504 64.1857 16.4369 64.065 16.4672 64.043C16.5451 63.994 16.5891 64.0794 16.599 64.1077C16.6398 64.2384 16.6349 64.3199 16.5557 64.3514C16.5384 64.3563 16.4727 64.2906 16.4644 64.2529L16.4658 64.257Z" fill="#5938E0"/>
<path d="M16.6699 65.7692C16.9052 65.613 17.1427 65.5451 17.5974 65.6777C17.1639 65.8238 16.9208 65.8621 16.6699 65.7692Z" fill="#5938E0"/>
<path d="M14.0167 64.3161C14.0167 64.3161 14.037 64.279 14.0543 64.274C14.0673 64.2703 14.0873 64.287 14.1089 64.2943L14.0727 64.3404L14.0167 64.3161Z" fill="#5938E0"/>
<path d="M40.6391 52.1541C40.7209 52.1708 40.7739 52.2002 40.8399 52.2258L40.6487 52.2359L40.4523 52.163C40.517 52.1579 40.6033 52.1466 40.6391 52.1541Z" fill="#5938E0"/>
<path d="M19.2653 65.7619C19.2653 65.7619 19.3111 65.7844 19.334 65.7956C19.6279 65.685 19.979 65.8338 20.2581 65.5717C20.4432 65.3942 20.6056 65.6014 20.6775 65.8211C20.7409 66.0166 20.8227 66.2379 20.6881 66.3965C20.5244 66.5945 20.3387 66.4162 20.1654 66.3278C20.0909 66.2912 20.0033 66.2851 19.9201 66.2644L19.8686 66.2257L19.9172 66.2697C19.5665 66.5034 19.4935 66.4575 19.2948 65.8602C19.2748 65.8437 19.2548 65.8272 19.242 65.8041C19.2392 65.796 19.2609 65.7631 19.271 65.7647L19.2653 65.7619Z" fill="#5938E0"/>
<path d="M16.0843 34.3292L15.9866 34.3215L15.737 34.2594C15.5248 34.182 15.3413 34.1188 15.1506 34.0487C15.1018 34.0315 15.1277 34.0374 15.1249 34.0293C15.2439 34.0576 15.3372 34.0799 15.409 34.095C15.3904 34.0825 15.7631 34.2118 16.0886 34.328L16.0843 34.3292Z" fill="#5938E0"/>
</g>
<defs>
<clipPath id="clip0_325_996">
<rect width="77.3605" height="47.8469" fill="white" transform="matrix(-0.96153 0.2747 0.329126 0.944286 74.3844 2.44812)"/>
</clipPath>
</defs>
</svg>
