<svg width="78" height="64" viewBox="0 0 78 64" fill="none" xmlns="http://www.w3.org/2000/svg">
<g clip-path="url(#clip0_192_978)">
<path d="M12.3361 20.7477C12.0979 20.8098 11.8369 20.8652 11.5535 20.9323C11.2696 20.9969 10.9616 21.0722 10.6226 21.1387C10.8153 21.1028 11.0483 21.0525 11.3288 20.99C11.609 20.9263 11.9384 20.858 12.3213 20.7696C12.3302 20.7623 12.3366 20.7555 12.3361 20.7477Z" fill="#FF5700"/>
<path d="M2.93832 22.1787C3.15626 22.1318 3.37166 22.0563 3.58731 21.9993C3.79108 21.9423 3.92791 22.1895 4.1197 22.0916C4.28492 22.0394 4.4619 21.9925 4.63132 21.9182C4.7228 21.8789 4.76305 21.7769 4.74267 21.6583C4.72517 21.5523 4.65242 21.5171 4.57468 21.5123C4.37137 21.5015 4.1506 21.4431 4.00557 21.6537C3.91434 21.7871 3.84649 21.8025 3.76115 21.6655C3.7067 21.5772 3.63173 21.5439 3.56843 21.5967C3.34483 21.7814 3.0686 21.8045 2.82364 21.9185C2.75352 21.953 2.6995 22.0408 2.7379 22.1342C2.77928 22.2348 2.86196 22.1974 2.93861 22.18L2.93832 22.1787Z" fill="#FF5700"/>
<path d="M1.81558 23.1046C1.83297 22.9893 1.92331 23.0205 1.98875 23.0003C2.01708 22.9912 2.04655 22.9871 2.07516 22.9793C2.14411 22.8351 2.24222 22.8074 2.36692 22.8851L2.39362 22.9095L2.37206 22.8786C2.36427 22.7863 2.37042 22.6855 2.45866 22.6668C2.73005 22.605 3.00087 22.5408 3.27233 22.491C3.54379 22.4412 3.81934 22.4209 4.10339 22.4729C4.17783 22.4865 4.203 22.5391 4.19227 22.6197C4.1859 22.6556 4.10465 22.6237 4.13847 22.6969L4.20325 22.6331C4.30196 22.5616 4.43759 22.5188 4.49011 22.4128C4.59477 22.2048 4.65774 22.0924 4.75681 22.4118L4.91841 22.3379C4.92079 22.238 4.9039 22.1172 5.0437 22.1451C5.08792 22.1536 5.12583 22.2099 5.10891 22.2575C5.07631 22.3524 4.98952 22.331 4.9187 22.3392C5.19367 22.4675 5.41721 22.4219 5.53705 22.2052C5.58605 22.1185 5.65515 22.0272 5.65993 21.932C5.68706 21.3599 6.05659 21.2242 6.41788 21.0638C6.52232 21.0175 6.59023 21.0896 6.67177 21.1227C6.79268 21.1721 6.89772 21.233 6.89833 20.9917C6.89815 20.9095 6.99922 20.9356 7.02715 21.0061C7.07889 21.1348 7.11139 21.2719 7.17032 21.4613C7.35348 21.0697 7.62781 20.957 7.96251 20.9179C8.08348 20.9037 8.20084 20.8677 8.31659 20.8189L8.48978 20.7437L8.533 20.7246L8.55476 20.7156L8.5655 20.7106L8.62581 20.6968C8.80297 20.6565 8.98138 20.616 9.15854 20.5757C9.74434 20.4438 9.93806 20.4646 10.1325 20.5119C9.78815 20.6538 9.4529 20.795 9.63981 20.8731C10.2906 20.6959 9.91569 20.6394 10.186 20.509C10.6421 20.388 11.1288 20.2733 11.6062 20.1528C12.085 20.0386 12.5497 19.8972 12.9641 19.738C14.2512 19.2265 15.4759 18.7956 16.7262 18.7034C16.7797 18.7005 17.1583 18.5349 17.3848 18.4383C17.0927 18.514 16.6729 18.6492 16.7658 18.5115C16.7774 18.4929 16.8577 18.4508 16.9248 18.4263C17.4292 18.2386 17.3983 18.3411 17.5255 18.3599C18.8471 18.1746 19.9602 17.6829 20.9921 17.1009C21.4552 16.8365 21.9117 16.5777 22.0572 16.7699L21.6114 17.0409C21.598 17.0864 21.2107 17.2487 21.5081 17.1969L21.6763 17.0301L22.1105 16.7604C23.2728 16.2986 24.3442 15.6003 25.6169 15.3798C25.6526 15.3743 25.943 15.2274 26.0378 15.1621C27.0756 14.4555 28.4403 14.0471 29.7082 13.5387C29.8503 13.5011 29.6492 13.6741 30.0357 13.4854L29.7301 13.5244C29.7343 13.444 29.7841 13.3319 30.2367 13.172C30.8719 12.9493 31.4818 12.7841 32.1202 12.407C32.7585 12.0298 33.2451 11.723 33.8152 11.7431C34.1255 11.7534 34.8609 11.3383 35.3718 11.063C35.9074 10.7742 36.3221 10.5871 36.3514 10.7567L35.9203 11.0576C35.7 11.1753 35.4297 11.3057 35.2724 11.4103C35.1279 11.5068 35.275 11.4853 35.4423 11.3903C35.6457 11.2738 35.7909 11.1625 35.9618 11.0481L36.408 10.7439C36.926 10.4127 37.3333 10.0828 38.271 9.76085C38.4979 9.68404 38.866 9.542 39.0003 9.45845C40.4682 8.55072 42.0003 8.08828 43.5379 7.6153L43.8671 7.58682L43.5889 7.58382C44.2572 6.96661 45.7844 6.27335 46.4362 6.32125C46.9058 6.35229 47.3507 6.25771 47.8226 6.08411C48.2943 5.90925 48.7944 5.65634 49.3733 5.37225C49.6106 5.25335 50.0354 5.13419 50.3736 5.01751L50.5206 4.98408L50.4189 4.98998C50.2708 4.8792 50.7298 4.63698 51.3385 4.37925C52.3143 3.96379 52.7402 3.90139 52.5783 4.20063C52.5354 4.2793 52.1121 4.47498 52.6099 4.39755C53.2838 4.07198 53.9882 3.73549 54.6876 3.40547C55.0592 3.22684 55.5217 3.02356 55.8486 3.01415C56.4822 2.99332 57.2044 2.68856 57.5353 2.48741C58.0152 2.198 58.4929 2.01512 58.975 1.8803C59.4579 1.74926 59.9473 1.66976 60.4538 1.59034L60.3312 1.65534L60.4861 1.58697C60.5751 1.54818 60.6643 1.51065 60.752 1.47215C60.8485 1.43165 60.8922 1.40847 61.0943 1.33864C61.4272 1.22184 61.7486 1.11294 62.0317 1.03267C62.5997 0.869018 63.0078 0.804035 63.0583 0.944952C62.9628 0.983911 62.7817 1.04763 62.79 1.05502C62.8133 1.07622 62.9131 1.07341 62.9798 1.08209L63.2913 1.01654L63.0579 1.05371C63.0565 1.01826 63.0626 0.981094 63.0749 0.942498C63.5429 0.838711 64.0034 0.731313 64.4648 0.61578L64.8108 0.527801L64.8221 0.525229C64.8221 0.525229 64.8236 0.53153 64.8244 0.53531L64.8271 0.558566L64.8333 0.603528L64.8458 0.693454L64.8709 0.873306C64.906 1.10918 64.9415 1.34631 64.9784 1.58441C65.1266 2.52618 65.2996 3.44373 65.5096 4.4019C65.5774 4.72313 65.6094 4.79405 65.6558 4.9518C65.6985 5.09317 65.7415 5.23581 65.7805 5.39528C66.2514 7.3557 66.2587 7.53296 65.8566 7.6708C65.8384 7.67761 65.8649 7.9393 65.871 8.09429C66.0263 8.85817 66.0514 8.33556 66.1332 8.40444C66.5142 8.72598 66.6284 9.07111 66.7332 10.4906C66.7708 10.9989 66.8231 11.4496 66.9003 11.8932C66.9796 12.3351 67.0826 12.7702 67.2137 13.248C67.3367 13.6958 67.2666 13.8178 67.1873 13.812L67.1361 13.703L67.1878 13.849C67.3244 14.4435 67.5457 15.0624 67.5895 15.6383C67.7315 17.4535 68.2308 19.0735 68.7344 20.7244C68.7834 20.8815 68.7891 21.1625 68.8196 21.3836C68.7671 21.3213 68.6612 20.908 68.684 21.258L68.8218 21.399C69.4396 24.6672 70.526 27.9681 71.7275 31.5542C71.435 31.1224 71.1523 30.7043 70.9351 30.3826C70.7141 30.0618 70.5312 29.8502 70.3983 29.8526C70.7424 30.8545 71.0005 31.4373 71.1942 31.7948C71.3916 32.1515 71.5478 32.275 71.762 32.3336C71.8522 32.3582 71.9207 32.3572 72.0118 32.4558C72.0574 32.505 72.109 32.5808 72.1722 32.6963C72.2393 32.8109 72.3193 32.965 72.4174 33.1759C72.8465 34.0922 72.9818 34.6287 72.9778 35.0471C72.9782 35.2578 73.0187 35.6104 73.2416 35.9917C73.4128 36.2855 73.5734 36.6081 73.7277 36.9441C73.8031 37.1125 73.8862 37.2805 73.9683 37.45C74.0505 37.6195 74.1314 37.7893 74.2136 37.9588C74.3764 38.2969 74.5411 38.6318 74.7128 38.9453C74.8784 39.2549 75.0732 39.5538 75.28 39.8527C75.4854 40.1519 75.7074 40.5587 75.8713 41.0873C76.0344 41.6069 76.1275 42.2775 76.0107 42.9376C75.9953 43.0153 75.9809 43.0915 75.9662 43.1664C75.946 43.2399 75.9257 43.3135 75.9064 43.3855C75.8693 43.5304 75.8091 43.6607 75.7585 43.7928C75.7309 43.8574 75.7061 43.9227 75.6757 43.9866L75.5763 44.1709C75.509 44.2936 75.4418 44.4162 75.3588 44.5279C75.0441 44.9917 74.6349 45.4122 74.0966 45.805C73.7562 46.0573 73.4481 46.2016 73.1823 46.3111C73.0509 46.3609 72.9298 46.3977 72.8181 46.4297C72.7084 46.4587 72.6099 46.4731 72.5225 46.4837C72.1738 46.5193 72.0106 46.4292 72.0392 46.253L72.1528 46.1888L72.0082 46.2561C71.8352 46.3087 71.659 46.3594 71.485 46.4016C71.4197 46.4284 71.3597 46.4553 71.2851 46.4815C71.2766 46.4848 71.1931 46.4839 71.1444 46.4844C71.2087 46.4592 71.273 46.4339 71.337 46.4075C71.0555 46.4423 70.8214 46.4704 70.6328 46.5013C70.4496 46.5324 70.3167 46.564 70.2216 46.5989C70.0335 46.6668 70.0195 46.7389 70.191 46.7953C70.7115 46.9632 70.1943 47.0252 69.2855 47.1312C68.3415 47.2451 67.3742 47.4081 66.3565 47.6569L65.8651 47.7739C65.5985 47.5549 64.6371 47.8186 63.9059 47.9969C62.522 48.3501 63.0988 47.7603 61.8337 48.1183C61.4638 48.2236 61.2326 48.3398 60.9503 48.4584C60.6681 48.5769 60.3349 48.6924 59.7612 48.8136C58.7985 49.014 57.7965 49.1982 56.8193 49.4046C55.8452 49.6248 54.8955 49.8646 54.0378 50.1605C53.4673 50.3538 53.1417 50.2821 52.8215 50.2569C52.5 50.2319 52.1837 50.2588 51.6366 50.6655C51.0317 50.8296 50.4253 50.9874 49.8216 51.1565C49.2187 51.3294 48.617 51.502 48.0154 51.6747C46.5327 52.0928 45.148 52.5005 43.6051 52.8514C42.9347 53.0065 42.2111 53.1949 41.4592 53.4097C40.7093 53.628 39.9321 53.871 39.1733 54.1894C37.6219 54.8285 37.514 54.8186 37.0963 54.5279C37.0556 54.5001 37.0295 54.4663 36.838 54.531C36.5925 54.6134 36.3183 54.7208 36.1413 54.8141C35.5847 55.1037 34.1472 55.7726 33.6677 55.9015C32.9264 56.0992 32.2391 56.3775 31.5523 56.6464C30.867 56.9215 30.1793 57.1866 29.46 57.4284C28.9069 57.6112 28.2017 57.9677 28.1356 57.7641C28.1105 57.6889 27.8932 57.7503 27.6629 57.8822C27.3054 58.0881 26.9089 58.2737 26.4908 58.4576C26.0746 58.6437 25.6354 58.8218 25.1891 58.9975C24.2983 59.3512 23.3734 59.6888 22.5626 60.1038C21.0588 60.8594 21.2604 60.3629 20.4346 60.5375C20.2023 60.8236 19.7818 61.1299 19.1975 61.4431C19.1609 61.462 19.1232 61.4825 19.0853 61.5017C19.0244 61.5302 18.9625 61.5601 18.8994 61.5904C18.769 61.6505 18.6361 61.7112 18.4988 61.7756C18.2233 61.9006 17.9299 62.0283 17.6249 62.1573C17.0137 62.4156 16.3463 62.6827 15.6607 62.9393L15.5511 62.9802L15.5378 62.9858C15.5378 62.9858 15.5358 62.977 15.5349 62.9732L15.5281 62.943L15.5193 62.8814L15.4787 62.6388C15.4504 62.4795 15.4237 62.3213 15.3957 62.1633C15.3402 61.8499 15.2822 61.5424 15.2222 61.2379C15.1019 60.6278 14.9699 60.0243 14.814 59.3851L14.7347 59.0599C14.7201 58.9956 14.7136 58.9786 14.7032 58.9385L14.6744 58.8351L14.5606 58.4222C14.486 58.1463 14.4113 57.8704 14.3364 57.5932C14.1893 57.0395 14.053 56.4808 13.9104 55.9234C13.7712 55.364 13.6421 54.8022 13.526 54.2336C13.4102 53.6661 13.2938 53.0962 13.2032 52.5178C12.7639 51.5799 13.036 50.6963 12.4287 49.4786C12.2478 49.1076 12.0831 48.5168 11.9199 47.8634C11.7555 47.2103 11.5987 46.4919 11.3909 45.8804C11.1466 45.1487 10.9123 44.3975 10.6779 43.6517C10.4422 42.9061 10.2298 42.1579 10.0514 41.4258C9.8943 40.8107 9.69143 40.279 9.48207 39.7594C9.27647 39.2389 9.05683 38.7322 8.87096 38.1648C7.92686 35.2398 6.78479 32.3333 5.68138 29.4922C5.43853 28.8835 5.19664 28.2732 4.95379 27.6644L4.79301 27.2596L4.76838 27.1804L4.71913 27.022L4.51265 26.393C4.37722 25.9719 4.2503 25.5475 4.15461 25.1093C4.01763 24.4606 3.89641 23.8056 3.7082 23.1698C3.66759 23.0319 3.61265 22.8311 3.74678 22.7701C4.116 22.6039 3.84486 22.4867 3.79004 22.356C3.72983 22.2133 3.65386 22.0768 3.58641 21.9371C3.55911 21.881 3.53251 21.8221 3.60992 21.7674C3.67146 21.7243 3.77317 21.6892 3.80108 21.7306C3.92867 21.9255 4.15082 21.7809 4.31976 21.8207C4.80447 21.9357 5.04108 22.3021 5.26847 22.6453C5.48374 22.9701 5.66486 23.3132 5.83679 23.6625C6.00369 24.0128 6.16489 24.3671 6.34601 24.7103C6.60173 25.1955 6.82399 25.6963 7.03523 26.201L7.78399 27.9882C8.10173 28.7403 8.39771 29.5013 8.70666 30.2554L8.936 30.8222L9.15808 31.3919L9.60352 32.5312C9.90647 33.2879 10.1874 34.0524 10.4793 34.813C12.1436 39.1673 13.5099 43.6464 14.8296 48.0777C14.9845 48.6018 15.1293 49.1281 15.2782 49.6549C15.4233 50.1825 15.5772 50.7081 15.711 51.2383C15.9852 52.2985 16.2656 53.3573 16.5162 54.4242L16.9019 56.021C17.0247 56.555 17.1484 57.0875 17.2709 57.6203L17.4579 58.4193L17.4668 58.4584L17.4751 58.483L17.4887 58.5316L17.5156 58.6262C17.5515 58.7493 17.5891 58.8626 17.6249 58.9619C17.6306 59.0215 17.6707 58.9713 17.6972 58.96L17.7788 58.9123C17.8304 58.8833 17.8797 58.8562 17.9271 58.8322L17.9448 58.8228L17.953 58.8183L17.9975 58.7989L18.2682 58.6817L18.8111 58.4482C19.1735 58.2929 19.5407 58.1471 19.9071 57.9975C20.6401 57.6995 21.3741 57.4001 22.1084 57.1018C22.8451 56.8084 23.5815 56.5136 24.317 56.2205C30.0403 53.8969 35.9767 51.9874 41.8579 50.0905C42.0741 49.9896 42.2997 49.9184 42.5383 49.8867C47.538 48.4195 52.6643 47.1953 57.6422 45.9637C61.5141 45.0048 65.2772 44.4803 69.0975 43.7598L70.0206 43.583L70.4381 43.5013C70.5719 43.4735 70.7028 43.4451 70.8295 43.4149C71.0811 43.3537 71.3239 43.2879 71.5377 43.2114C71.65 43.1766 71.7432 43.1329 71.8428 43.0943C71.9309 43.0518 72.0252 43.0131 72.097 42.9689C72.2498 42.8851 72.3684 42.8025 72.4263 42.7376C72.4893 42.6716 72.5148 42.6327 72.533 42.5967C72.5456 42.5475 72.5621 42.5212 72.5636 42.4466C72.5652 42.3721 72.5512 42.2467 72.505 42.0783C72.4603 41.9108 72.3832 41.7057 72.2838 41.4778C72.1841 41.2487 72.0574 40.9992 71.9196 40.7191C71.6452 40.14 71.3708 39.561 71.0967 38.9832L70.8924 38.5498L70.7026 38.1106C70.5777 37.8169 70.4531 37.5245 70.3284 37.2322C70.2038 36.9398 70.0804 36.6471 69.9557 36.3547C69.8336 36.0618 69.7263 35.7641 69.6107 35.471C67.278 29.4967 65.5134 23.3244 64.3958 17.1732C63.9645 14.7716 63.5389 12.3715 63.1354 9.97558C62.9397 8.77824 62.7415 7.58146 62.5588 6.38911L62.4213 5.49397L62.3875 5.26972L62.3734 5.17882L62.3706 5.14898L62.358 5.0299C62.3419 4.85996 62.3257 4.69003 62.3082 4.52037C62.3074 4.51659 62.3075 4.51127 62.3057 4.50903L62.2981 4.51075L62.2827 4.51291L62.2513 4.52006L62.1861 4.52959L62.0496 4.55667L61.9063 4.58925L61.8699 4.59754L61.7281 4.63642L61.4014 4.72796C60.5315 4.97617 59.6651 5.23418 58.7987 5.49751C57.0673 6.02516 55.3442 6.57743 53.6227 7.13068C51.3419 7.86282 48.9945 8.74395 46.6979 9.6215C42.7551 11.1226 38.8711 12.719 34.9651 14.4106C31.572 15.8768 28.1613 17.3404 24.687 18.682C21.214 20.0232 17.6741 21.2445 14.0427 22.203C12.443 22.6238 10.8261 22.9863 9.19395 23.2819L9.04676 23.3088L9.02106 23.312L8.96994 23.3196L8.86645 23.3352L8.66044 23.3648L8.24669 23.4165C7.97053 23.4515 7.69591 23.4875 7.42119 23.5287C7.14618 23.5688 6.87002 23.6037 6.59576 23.6529C6.3705 23.6908 6.12289 23.555 5.95763 23.6244C5.73795 23.7101 5.52823 23.677 5.31564 23.7068C5.03503 23.7454 4.75727 23.7675 4.47793 23.7595C4.19803 23.7489 3.91702 23.7161 3.63365 23.6612C3.48419 23.6316 3.3231 23.6206 3.15784 23.6144C2.9923 23.607 2.82345 23.6083 2.66048 23.6122C2.53567 23.6154 2.43337 23.6188 2.48452 23.3673C2.5347 23.1173 2.28898 23.0711 2.11455 23.0247C2.09608 23.0713 2.08716 23.125 2.05857 23.162C2.00196 23.2385 1.92713 23.229 1.85712 23.1826C1.83523 23.1677 1.8076 23.1276 1.81027 23.1045L1.81558 23.1046ZM5.11407 23.0065C5.10576 22.9699 5.10265 22.9388 5.08784 22.9143C5.07909 22.8991 5.05263 22.8932 5.03343 22.8843C5.04003 22.9133 5.04159 22.9434 5.05515 22.9682C5.0639 22.9834 5.08938 22.9909 5.11379 23.0052L5.11407 23.0065ZM5.08695 24.8045C5.09074 24.8328 5.08757 24.8653 5.09861 24.8906C5.10851 24.9109 5.13639 24.9231 5.15914 24.9418C5.15546 24.9082 5.15892 24.8769 5.14662 24.8519C5.13672 24.8316 5.10758 24.8197 5.08695 24.8045ZM4.96875 25.2899C4.90913 25.1034 4.87031 24.985 4.82152 24.8344C4.70675 25.0328 4.80011 25.1295 4.96875 25.2899ZM10.6794 39.2021C10.7187 39.3284 10.7913 39.4616 10.8486 39.5917C10.9359 39.7548 10.962 39.7356 10.8982 39.5248C10.8589 39.3985 10.7848 39.2471 10.7292 39.1365C10.6433 38.9678 10.6173 38.9989 10.6804 39.2006L10.6794 39.2021ZM8.09068 31.7885C8.28997 32.3568 8.45761 32.8382 8.6265 33.3193L8.66541 33.4788L8.64949 33.3565C8.53527 32.8775 8.40299 32.3947 8.09068 31.7885ZM7.25548 28.1919C7.25465 28.2173 7.28877 28.3208 7.31556 28.3863C7.33342 28.43 7.36761 28.4699 7.39272 28.5106C7.3857 28.4565 7.39207 28.4206 7.37203 28.3615C7.30665 28.167 7.25718 28.0948 7.25423 28.1922L7.25548 28.1919ZM5.89595 26.3686C5.89071 26.3804 5.88044 26.3934 5.88147 26.4037C5.88211 26.4182 5.88699 26.4396 5.89721 26.4439C5.93098 26.4587 5.94388 26.4399 5.9266 26.3988C5.92122 26.3867 5.90607 26.3783 5.89567 26.3674L5.89595 26.3686ZM10.5626 39.8914L10.6452 39.801C10.5331 39.4594 10.4202 39.114 10.3088 38.7695C10.1927 38.4275 10.0718 38.0879 9.94767 37.7569C8.83115 34.7943 7.77777 31.8013 6.58273 28.8711C6.42947 28.511 6.28582 28.1699 6.14149 27.8316C6.06744 27.6629 5.99464 27.4939 5.92002 27.3227C5.88208 27.2372 5.84414 27.1518 5.80591 27.065C5.7868 27.0217 5.76769 26.9783 5.74857 26.9349L5.72225 26.8773L5.7159 26.8668C5.53932 26.5611 5.24217 26.2655 5.56841 25.8639C5.49046 25.7478 5.3596 25.8173 5.27759 25.7763C5.21228 25.7448 5.16374 25.6883 5.05885 25.6048C5.18744 25.9029 5.31363 26.1962 5.43799 26.4874C5.50185 26.6345 5.55743 26.7743 5.6205 26.9296C5.80101 27.363 5.98095 27.7939 6.16117 28.2261C6.3411 28.657 6.52326 29.0861 6.69315 29.5192C8.09253 32.9702 9.36916 36.416 10.5598 39.8907L10.5626 39.8914ZM14.2672 50.741L14.327 50.8878L14.3787 50.9754L14.3225 50.8331L14.2669 50.7397L14.2672 50.741ZM13.7411 49.1483C13.7576 49.2095 13.7981 49.2944 13.8185 49.3202C13.8353 49.3416 13.8397 49.2915 13.8489 49.2736C13.8248 49.1969 13.7995 49.0913 13.7779 49.0485C13.6968 48.884 13.6828 48.927 13.7398 49.1486L13.7411 49.1483ZM12.6618 45.1699C12.7455 45.4742 12.8244 45.7744 12.913 46.071C12.9966 46.3687 13.0884 46.662 13.2018 46.9516C13.1302 46.6366 13.0602 46.3291 12.9767 46.0313C12.8893 45.7344 12.7896 45.447 12.6621 45.1712L12.6618 45.1699ZM11.6249 41.6683C11.7152 42.2163 11.8624 42.6255 11.9968 43.019C12.0835 43.2723 12.1187 43.2643 12.0426 42.9993C11.9308 42.6126 11.7992 42.2197 11.6249 41.6683ZM14.2934 51.7741C14.0363 51.0042 13.8278 50.279 13.6448 49.6023C13.552 49.2642 13.4622 48.9387 13.3641 48.6297C13.2623 48.3215 13.1555 48.0264 13.0346 47.7504C12.9058 47.1899 12.7635 46.6338 12.6073 46.0809C12.4464 45.5303 12.2755 44.9821 12.102 44.4344L11.8401 43.614L11.5684 42.797C11.389 42.2521 11.2142 41.7047 11.048 41.154C11.2 41.7119 11.3517 42.2685 11.5097 42.8237C11.669 43.3785 11.8295 43.9331 11.9887 44.488C12.1504 45.0423 12.3185 45.5952 12.4953 46.1461C12.6659 46.6984 12.843 47.2506 13.0324 47.7986C13.1268 48.1032 13.2095 48.4263 13.2877 48.7584C13.3634 49.0911 13.4385 49.4332 13.5271 49.7762C13.7002 50.4618 13.9324 51.1458 14.2924 51.7757L14.2934 51.7741ZM16.9698 58.15L16.99 58.3084L17.0158 58.3171L16.9711 58.1497L16.9698 58.15ZM15.4712 55.355C15.5565 55.8287 15.5531 56.3132 15.7725 56.8133C15.7783 56.5946 15.741 56.3553 15.6833 56.1073C15.6231 55.8599 15.5439 55.6049 15.4712 55.355ZM15.5401 52.4157C15.56 52.5384 15.5709 52.6618 15.6013 52.7835C15.6399 52.9417 15.6923 53.0967 15.74 53.2542L15.6802 52.8808L15.5404 52.4169L15.5401 52.4157ZM15.077 54.6561C14.9785 54.3856 14.8981 54.0434 14.8002 53.6946C14.6971 53.3456 14.574 52.9906 14.3998 52.6896C14.5401 53.1321 14.6549 53.5381 14.7545 53.8773C14.8554 54.2161 14.9539 54.4866 15.077 54.6561ZM16.0137 59.1984L16.0211 59.0801C16.0172 58.9697 16.004 58.8653 15.9833 58.7627C15.9592 58.6568 15.9283 58.5499 15.8889 58.4462L15.682 57.9724C15.5533 57.5113 15.4471 57.0212 15.3381 56.5357C15.2302 56.05 15.1019 55.5729 14.9518 55.1339C14.7945 54.6806 14.6923 54.5276 14.6725 54.8528C14.6571 55.0989 14.7119 55.427 14.8482 55.7181C14.9224 55.8761 14.9938 56.068 15.0658 56.2743C15.1341 56.4814 15.2005 56.7035 15.2685 56.9213C15.4033 57.3572 15.5375 57.7786 15.6839 58.0329L15.8914 58.5039C15.9327 58.6854 15.9696 58.8652 16.0044 59.0415L16.014 59.1997L16.0137 59.1984ZM17.5827 61.0072C17.5398 60.9056 17.5028 60.8014 17.4018 60.7289C17.302 60.6562 17.1365 60.6143 16.8833 60.6163C16.8364 60.6892 16.7596 60.7756 16.7415 60.8354C16.728 60.8808 16.6797 60.9356 16.6121 60.9987C16.6032 61.006 16.5946 61.0146 16.5857 61.0219L16.5726 61.0341L16.5659 61.0396L16.5634 61.0402C16.5545 61.0356 16.5455 61.031 16.5365 61.0265C16.5186 61.0173 16.5003 61.0069 16.4824 60.9977C16.311 60.9121 16.2149 60.8266 16.2256 61.0654C16.2284 61.1244 16.2371 61.2032 16.2522 61.3045C16.2609 61.3542 16.2697 61.4105 16.2803 61.4744C16.2837 61.4895 16.2862 61.5062 16.2887 61.5228L16.2944 61.548C16.2944 61.548 16.2943 61.5534 16.2958 61.5543L16.3021 61.5529L16.3141 61.5475C16.3456 61.5351 16.3781 61.5211 16.4134 61.5077C16.6902 61.3944 17.0754 61.2286 17.5833 61.0097L17.5827 61.0072ZM50.9853 49.2603C51.038 49.2364 51.1278 49.2014 51.1173 49.1958C51.0858 49.1792 51.0171 49.1736 50.9607 49.1639L50.985 49.2591L50.9853 49.2603ZM50.4397 49.2612L50.9316 49.1639C50.7799 49.1825 50.7008 49.1249 50.4397 49.2612ZM48.6823 49.5986L48.8522 49.544L48.7052 49.5655L48.6836 49.5983L48.6823 49.5986ZM47.0669 50.0959C47.1282 50.0806 47.2201 50.0372 47.2433 50.0173C47.2634 50.0008 47.2059 49.998 47.1826 49.9887C47.1034 50.012 46.9943 50.0382 46.9527 50.0582C46.7837 50.1404 46.8319 50.1546 47.0667 50.0946L47.0669 50.0959ZM44.9205 49.9664L45.4107 49.8497L45.902 49.7326L46.0569 49.7106L45.9412 49.7131C45.8004 49.7332 45.6695 49.7444 45.5156 49.7767C45.3115 49.8205 45.0593 49.862 44.9202 49.9652L44.9205 49.9664ZM42.0932 50.0621L42.2078 50.0546L42.3137 49.9974L42.0932 50.0621ZM35.4357 53.0713C35.6366 52.9845 35.778 52.8914 35.9458 52.8042C35.7973 52.8194 35.6901 52.8306 35.5817 52.842C35.4525 52.9244 35.2933 53.0149 35.2018 53.0887C35.1191 53.1553 35.2662 53.1457 35.4357 53.0713ZM31.3343 54.1248L31.5053 54.0806L31.4984 54.0503L31.3343 54.1248ZM29.7532 54.6911L29.9216 54.6475L29.9156 54.6211L29.7534 54.6924L29.7532 54.6911ZM27.7143 56.3477C28.3695 56.0966 29.0333 55.878 29.7254 55.6557C30.4175 55.4333 31.131 55.1889 31.8778 54.8587C31.0939 55.0489 30.3818 55.2996 29.6999 55.5608C29.0179 55.8219 28.3736 56.1089 27.7143 56.3477ZM26.285 55.9491C26.2378 55.997 26.3528 55.9682 26.567 55.8757C26.6234 55.8509 26.6659 55.8227 26.7153 55.7956L26.4957 55.8588C26.4222 55.8901 26.3003 55.935 26.2863 55.9488L26.285 55.9491ZM24.957 57.4135C24.9575 57.4333 25.1736 57.3722 25.3187 57.3419C25.5088 57.2482 25.8428 57.1073 25.8882 57.0572C25.9974 56.933 25.6291 57.0976 25.4539 57.164C25.2482 57.2412 24.9537 57.3467 24.9573 57.4148L24.957 57.4135ZM22.9494 57.3307L23.1153 57.2466C23.1769 57.1862 23.5838 57.0698 23.4594 57.0398L23.0745 57.2532L22.9494 57.3307ZM19.4858 60.0667C19.5042 60.0201 19.407 60.0343 19.2089 60.1218C19.0757 60.1812 18.9545 60.2525 18.8296 60.3194C18.93 60.3018 19.0244 60.3042 19.1325 60.2624C19.2431 60.22 19.3687 60.1331 19.487 60.0665L19.4858 60.0667ZM21.639 58.6691C21.2921 58.7997 21.0245 58.9361 20.8212 59.0765C20.2885 59.2679 19.762 59.3638 19.1732 59.715C19.728 59.6445 20.2835 59.3909 20.8466 59.072C21.0695 58.9365 21.5967 58.8086 21.639 58.6691ZM27.9613 57.1662L27.8104 57.2059L27.8048 57.2336L27.9613 57.1662ZM31.6774 55.9645L31.5454 56.029C31.4795 56.0877 31.0797 56.1893 31.1937 56.2256L31.599 56.0208L31.6771 55.9633L31.6774 55.9645ZM33.9518 54.5301C32.8633 54.8108 31.7207 55.4113 30.7974 55.6107C29.4098 55.9064 28.341 56.4477 27.1602 56.9442C26.2522 57.1878 25.4052 57.5249 24.5741 57.8796C23.7433 58.2356 22.9252 58.6072 22.0941 58.9791C22.859 58.7111 23.6282 58.45 24.3934 58.1659C25.1593 57.8844 25.9174 57.5688 26.6816 57.2452C26.8718 57.2099 27.0487 57.1511 27.1999 57.0492C28.4029 56.7199 29.5349 56.2994 30.6519 55.877C31.7665 55.4499 32.8497 54.9716 33.9518 54.5301ZM37.0195 53.0689L37.2761 52.9827L37.5344 52.9041L37.6931 52.8813L37.5449 52.8978C37.3519 52.9151 37.1719 52.972 37.0026 53.0701C36.6605 53.1519 36.3276 53.2396 36.0033 53.3359C35.6811 53.4357 35.3684 53.5426 35.0638 53.6556C34.4542 53.8804 33.8791 54.1291 33.3308 54.397L33.1885 54.4161L33.2932 54.4175C33.7652 54.3313 34.2915 54.2924 34.8113 53.998C35.1191 53.8232 35.524 53.6689 35.9257 53.5178C36.3278 53.3681 36.7268 53.2283 37.0195 53.0689ZM37.0872 54.0462L36.9616 54.0867L37.033 54.0983L37.0875 54.0475L37.0872 54.0462ZM40.5677 53.1155L40.4077 53.1731L40.5605 53.1423L40.5679 53.1167L40.5677 53.1155ZM41.6121 52.3915L41.4629 52.4559C41.3949 52.5112 40.9858 52.5949 41.1057 52.6339L41.5093 52.4507L41.6121 52.3915ZM42.9336 51.6072C42.6992 51.4538 41.6305 51.9261 40.9051 52.1706C40.1184 52.4357 39.2356 52.7491 39.2082 52.4837L39.2888 52.4256L39.1593 52.4895C38.5881 52.9759 36.7464 53.4717 35.9086 53.983C36.7806 53.6508 37.6681 53.3932 38.5487 53.128C39.4274 52.8606 40.3072 52.6154 41.1673 52.3124C41.8476 52.0729 43.1773 51.7665 42.9323 51.6075L42.9336 51.6072ZM43.7062 51.1174C42.8421 51.0714 41.7748 51.5262 40.7374 51.8748C41.6532 51.7354 42.7631 51.2643 43.7062 51.1174ZM44.687 51.2057C44.6879 51.1923 44.5918 51.1996 44.5224 51.214C44.4621 51.2277 44.376 51.2619 44.3011 51.2869C44.3184 51.2989 44.3082 51.3237 44.3561 51.3194C44.5488 51.3008 44.6835 51.2542 44.6855 51.2048L44.687 51.2057ZM45.2138 50.4829C45.169 50.501 45.0963 50.5242 45.0845 50.5362C45.0386 50.5784 45.0115 50.6164 44.9785 50.657L44.8794 50.7153L45.0173 50.6535L45.214 50.4842L45.2138 50.4829ZM52.1183 49.338L51.6066 49.4358C51.2935 49.4129 51.0176 49.3789 50.9764 49.2677C50.5774 49.3902 50.1785 49.5128 49.7723 49.6383C49.3672 49.7688 48.9536 49.9027 48.524 50.0415C48.0944 50.1803 47.649 50.3253 47.1791 50.4786C46.7089 50.6306 46.2151 50.7893 45.6923 50.9718C46.2722 50.8253 46.8222 50.6989 47.3447 50.5734C47.8672 50.448 48.365 50.3242 48.8456 50.2003C49.8038 49.9452 50.7017 49.7158 51.5962 49.4421C51.7678 49.4124 51.8585 49.4739 52.1198 49.3389L52.1183 49.338ZM60.0048 46.4508L60.1695 46.4081L60.0135 46.425L60.0048 46.4508ZM58.2765 47.2826C58.4185 47.2384 58.6199 47.1886 58.6891 47.1503C58.7951 47.0931 58.6712 47.0947 58.4659 47.1507C58.3115 47.1924 58.1395 47.2435 58.0376 47.2892C57.9284 47.3379 58.0438 47.3342 58.2765 47.2826ZM53.6359 48.3818C54.7552 48.2425 55.6115 47.9113 56.5287 47.5926C55.8041 47.7879 55.1421 47.916 54.4581 48.0344C53.909 48.1302 53.7236 48.2678 53.6359 48.3818ZM61.4224 46.8269L61.2749 46.8816C58.6618 47.4017 56.2189 48.1071 53.4111 48.8517C54.2966 48.8001 55.1769 48.6211 56.0349 48.4193C56.4632 48.3153 56.8883 48.2146 57.3047 48.1226C57.7209 48.0292 58.1294 47.9429 58.5269 47.8777C60.1157 47.6065 61.1105 47.2569 61.3171 46.8813L61.4211 46.8271L61.4224 46.8269ZM42.0078 10.8406L41.8511 10.8895L41.8471 10.9183L42.0078 10.8406ZM42.4125 9.84867C41.9913 10.0187 41.5623 10.1428 41.2161 10.3633C41.6551 10.2251 42.0625 10.0529 42.4125 9.84867ZM46.7908 8.86215L46.7235 8.85095L46.649 8.91294L46.7905 8.86089L46.7908 8.86215ZM49.2954 7.2839C49.1734 7.31694 49.0479 7.34019 48.9288 7.38584C48.7801 7.44087 48.6335 7.5113 48.4578 7.58705C48.6031 7.54605 48.7263 7.51805 48.8444 7.47395C48.9966 7.4168 49.1447 7.34734 49.2954 7.2839ZM50.4774 7.57701L50.3468 7.61865L50.4008 7.63551L50.4774 7.57701ZM53.4539 5.59853C53.4531 5.54836 53.3394 5.57155 53.1507 5.65955C53.1022 5.73685 53 5.83961 53.0146 5.90387C53.0224 5.9379 53.2833 5.85337 53.3578 5.78605C53.4413 5.71141 53.4553 5.65122 53.4555 5.5995L53.4539 5.59853ZM56.6488 5.52129C55.6421 5.80724 55.0645 5.98102 54.5122 6.23655C55.1467 6.09223 55.685 5.86774 56.6488 5.52129ZM59.069 4.3095L58.9258 4.33675L58.9064 4.36767L59.0692 4.31076L59.069 4.3095ZM60.0199 3.48223L59.8845 3.5435C59.0148 3.87385 58.1485 4.2074 56.7599 4.76046C58.4095 4.23948 59.3441 3.91558 59.9349 3.53866L60.0186 3.48251L60.0199 3.48223ZM62.1824 4.1474L61.9956 4.174L61.8454 4.25188C61.9094 4.24263 61.9698 4.24083 62.0292 4.22333C62.0774 4.20841 62.129 4.17412 62.1824 4.1474ZM62.9001 4.47323L62.9017 4.38142L62.8785 4.38405L62.8988 4.47352L62.9001 4.47323ZM63.9292 10.1078C63.9335 9.9637 63.9026 9.81037 63.849 9.67941C63.8352 9.69447 63.8121 9.67985 63.8098 9.72808C63.8028 9.87149 63.8353 10.0377 63.8902 10.1511C63.9055 10.1834 63.9282 10.1557 63.9289 10.1065L63.9292 10.1078ZM64.3378 10.7597L64.358 10.6915L64.3155 10.6323L64.3381 10.761L64.3378 10.7597ZM65.0689 12.8121C65.1226 12.7866 65.1189 12.5727 65.0842 12.3275C65.0086 11.9776 64.935 11.7875 64.8762 11.7612C64.804 11.7286 64.8217 11.9922 64.8776 12.2963C64.9337 12.595 65.007 12.8421 65.0689 12.8121ZM64.8367 15.2134L64.862 15.1732L64.8173 15.0932L64.8355 15.2137L64.8367 15.2134ZM65.2866 15.9712L65.245 15.8057L65.2621 15.9622L65.2866 15.9712ZM65.4498 18.879L65.4272 18.7158L65.404 18.7185L65.4498 18.879ZM65.7133 20.4731L65.6639 20.3028L65.6862 20.4647L65.712 20.4734L65.7133 20.4731ZM66.5891 20.5589C66.5514 20.4283 66.4938 20.3433 66.445 20.2391C66.4515 20.3317 66.446 20.447 66.4719 20.5551C66.5063 20.7063 66.5816 20.9502 66.61 20.9822C66.7014 21.082 66.6705 20.8412 66.5891 20.5589ZM67.0634 22.447L67.0119 22.2785L67.0377 22.4383L67.0634 22.447ZM67.2205 26.4204C67.2151 26.3673 67.2163 26.3207 67.2041 26.2611C67.1864 26.183 67.159 26.0686 67.1366 26.0167C67.0725 25.8683 67.0741 25.9395 67.1439 26.194C67.1652 26.27 67.1955 26.3453 67.2218 26.4201L67.2205 26.4204ZM68.4087 26.7757L68.3477 26.6412L68.2923 26.5544L68.3535 26.6955L68.409 26.777L68.4087 26.7757ZM67.7371 28.0816L67.6769 27.9216L67.7142 28.0854L67.7368 28.0803L67.7371 28.0816ZM68.861 29.142C68.836 29.0668 68.8012 28.9952 68.7714 28.9225C68.7791 28.9737 68.7801 29.0186 68.7945 29.0763C68.8145 29.1526 68.8491 29.264 68.8737 29.3141C68.9448 29.4582 68.9412 29.3901 68.8598 29.1423L68.861 29.142ZM69.0769 32.4328L69.0103 32.2677L69.0461 32.4133L69.0782 32.4325L69.0769 32.4328ZM73.0999 39.9589L73.0509 39.819L73.0171 39.8041L73.0999 39.9589ZM73.5888 42.509L73.6224 42.4709L73.5908 42.4251C73.5921 42.4539 73.5918 42.4818 73.5888 42.509ZM71.6332 44.8106C71.8543 44.7312 72.1116 44.6422 72.257 44.5495C72.3963 44.4648 72.2573 44.4752 72.1062 44.5546C72.013 44.5983 71.9346 44.6427 71.8599 44.6862C71.7837 44.7287 71.7107 44.7678 71.6319 44.8109L71.6332 44.8106ZM66.2434 45.6548L67.0323 45.5271C67.2789 45.4842 67.3445 45.4415 67.3015 45.4327C67.0096 45.3983 66.7532 45.462 66.5266 45.5347C66.407 45.5725 66.3361 45.6152 66.2437 45.6561L66.2434 45.6548ZM64.2517 46.0429C64.1998 46.0997 64.309 46.0974 64.5147 46.0374C64.5779 46.019 64.6013 45.9938 64.6424 45.9712C64.5807 45.9733 64.5177 45.9691 64.4596 45.981C64.3849 45.9953 64.2632 46.0296 64.2517 46.0429ZM66.5294 46.715C66.1859 46.6685 65.6418 46.8387 65.2228 46.9777L65.1355 47.024L65.2728 46.9769C65.7833 46.9204 65.9044 46.9764 65.8496 47.0843C65.8074 47.1018 65.7227 47.1304 65.7307 47.1365C65.7534 47.1552 65.8164 47.1647 65.863 47.178L66.1408 47.2314L65.9505 47.1501C65.8528 47.1445 65.8498 47.12 65.9423 47.0791C66.1684 46.9521 66.8443 46.7573 66.5319 46.7144L66.5294 46.715ZM69.6144 46.1313C69.5395 46.139 69.4656 46.1452 69.392 46.1527C69.3166 46.1698 69.1892 46.1909 69.1734 46.2024C69.12 46.241 69.2346 46.2335 69.4583 46.1827C69.5173 46.1692 69.5628 46.1483 69.6144 46.1313ZM73.5161 45.3618C73.4028 45.369 73.3167 45.4204 73.3005 45.489C73.2967 45.5071 73.3488 45.4979 73.3757 45.4998C73.4304 45.4674 73.5259 45.4166 73.5314 45.406C73.5482 45.381 73.5499 45.3594 73.5158 45.3606L73.5161 45.3618ZM72.9791 36.6505L73.0661 36.7831C73.1751 36.9717 73.2997 37.2177 73.3877 37.3316C73.4529 37.4148 73.3979 37.1729 73.3258 37.0594C73.2286 36.9052 73.1493 36.8583 73.0621 36.7655L72.9794 36.6518L72.9791 36.6505ZM69.4172 27.2475C69.4137 27.2668 69.4459 27.3735 69.4617 27.4428C69.4885 27.491 69.5279 27.5828 69.5392 27.5802C69.5832 27.5702 69.5556 27.4493 69.4707 27.2791C69.4491 27.2363 69.4206 27.2215 69.416 27.2478L69.4172 27.2475ZM68.1337 20.6569C68.2285 20.9521 68.3171 21.2487 68.4171 21.5427L68.4697 21.6288L68.4135 21.4865C68.3867 21.4091 68.3634 21.3124 68.3404 21.258C68.2673 21.0877 68.2289 20.6339 68.1337 20.6569ZM66.9745 14.1891C66.8697 14.2514 66.9406 14.6328 67.0113 14.9958C67.0526 15.2064 67.138 15.6694 67.157 15.3868C67.1715 15.1714 67.3728 15.3828 67.1707 14.6335C67.1159 14.4273 67.0279 14.3135 66.9748 14.1904L66.9745 14.1891ZM66.3205 14.1549L66.4615 14.5775L66.5149 14.6899L66.4617 14.5376C66.4111 14.4484 66.3764 14.0349 66.3215 14.1534L66.3205 14.1549ZM65.1548 4.35271L65.181 4.60123L65.2075 4.61906L65.1548 4.35271ZM60.7286 1.92678L60.8819 1.90383C60.9071 1.88087 60.9606 1.84882 60.9512 1.83639C60.9199 1.79182 60.821 1.81033 60.7227 1.87775C60.6907 1.89961 60.7261 1.91011 60.7286 1.92678ZM48.8928 6.07133L49.0536 6.0056L48.9109 6.0407L48.8928 6.07133ZM46.3649 7.62305C46.9361 7.57796 47.8823 7.13082 48.2014 7.18017C48.1195 7.24388 47.7613 7.38895 48.0591 7.33846L48.2595 7.16828C49.6774 6.72652 50.9327 6.11629 52.2829 5.621C53.5037 5.17238 54.2108 4.87105 54.4608 5.1336C54.5508 5.22711 55.2098 5.05074 55.3513 4.81312C55.3908 4.74847 55.3746 4.65408 55.6183 4.59864C57.2358 4.22678 58.6656 3.47746 60.2555 3.12381C60.4742 3.08599 60.6956 3.03696 60.9187 2.98357C61.1443 2.92961 61.3509 2.87335 61.6148 2.7961C62.1134 2.64691 62.6017 2.48151 63.0693 2.30624C63.3226 2.21152 63.5224 2.16608 63.6831 2.14674C63.7242 2.14137 63.7618 2.13813 63.7997 2.13614C63.8126 2.12922 63.8101 2.14703 63.8104 2.1602L63.8102 2.20001L63.8111 2.27933C63.8108 2.38277 63.81 2.48368 63.8107 2.58557C63.8113 2.78557 63.8174 2.97504 63.85 3.16509C63.8832 3.35766 63.945 3.54772 64.0611 3.78506C64.1172 3.89821 64.1384 4.1134 64.1352 4.29701C64.1311 4.48218 64.1005 4.63228 64.0584 4.65643C63.9879 4.695 63.8784 4.39386 63.782 4.2024C63.6842 4.00464 63.6011 3.92414 63.5573 4.26014C63.5834 4.37481 63.6067 4.50071 63.6309 4.63039C63.6532 4.76317 63.6776 4.89943 63.701 5.03724C63.7534 5.3434 63.8037 5.65138 63.8611 5.92724C63.9742 6.47672 64.1094 6.8966 64.3116 6.91422C64.2834 6.65688 64.2404 6.36316 64.2332 6.15141C64.2276 5.95256 64.2482 5.67089 64.2796 5.72205C64.4111 5.93999 64.4195 6.29062 64.4167 6.56296C64.4144 6.76227 64.3932 6.91289 64.3806 7.08407C64.4026 7.21559 64.4243 7.34584 64.4463 7.47735C64.4693 7.54368 64.4924 7.60469 64.5137 7.6807C64.5182 7.70086 64.5161 7.8193 64.5116 7.81105C64.4904 7.77611 64.4662 7.71006 64.4429 7.65438C64.5328 8.85723 64.9011 8.75093 65.046 9.9691C65.3251 12.3231 66.0385 14.9255 66.1551 17.152C66.1745 17.4697 66.3273 18.0194 66.4636 18.398L66.409 17.8034C66.5529 18.1166 66.5262 18.336 66.5523 18.5845C67.2251 21.2638 67.8317 23.9833 68.6365 26.6325C68.689 26.7995 68.7602 26.9556 68.8231 27.1162C68.8274 27.4837 68.8146 27.8338 69.0369 28.5559C69.6946 30.5296 69.7031 30.5263 69.4526 30.8656C69.6888 31.4626 69.8931 31.6057 70.1649 32.237C70.3173 32.5933 70.471 32.9494 70.6236 33.3069C70.7858 33.6597 70.9445 34.0146 71.1022 34.371C71.2574 34.728 71.4113 35.0853 71.5665 35.4423C71.729 35.7963 71.8905 36.1519 72.0532 36.5072C72.2122 36.8634 72.3714 37.2208 72.5307 37.5782C72.6912 37.9353 72.8675 38.2862 73.0318 38.6424C73.1973 38.9984 73.3628 39.3544 73.5286 39.7116C73.6923 40.0707 73.8698 40.4213 74.0145 40.7847C74.1687 41.1605 74.2653 41.5387 74.2774 41.8302C74.2883 42.122 74.227 42.3175 74.1262 42.3563C74.0774 42.374 74.0437 42.4294 74.0074 42.5371C73.999 42.5642 73.9912 42.5938 73.9858 42.6281C73.9776 42.6618 73.9675 42.6986 73.961 42.7398C73.9561 42.782 73.9436 42.8259 73.9338 42.8759C73.9289 42.9008 73.9259 42.928 73.9188 42.9548C73.9116 42.9816 73.9036 43.01 73.8958 43.0396C73.8769 43.1194 73.8604 43.1921 73.8351 43.2495C73.8142 43.3086 73.8004 43.3582 73.7958 43.3963C73.7772 43.4655 73.8079 43.4956 73.9177 43.4441C74.1032 43.3357 74.0973 43.5305 73.9204 43.8159C73.8718 43.8813 73.8171 43.9547 73.7546 44.0286C73.6851 44.0948 73.6161 44.1688 73.5381 44.2329C73.4569 44.2938 73.3792 44.3592 73.2962 44.4125C73.2126 44.4633 73.1346 44.5155 73.0581 44.5568C72.7248 44.7413 72.4429 44.7974 72.2156 44.8266C72.0988 44.8359 71.9947 44.8371 71.8978 44.8353C71.8003 44.8309 71.7083 44.8214 71.6184 44.8153C71.1776 44.9341 70.4908 44.918 70.3242 45.1097C70.0034 45.4769 68.9669 45.6198 67.8826 45.7564C66.9433 45.868 66.0293 46.0441 65.118 46.2262C64.2069 46.4096 63.2974 46.6058 62.378 46.8163C62.7046 47.0031 63.2453 46.9344 64.4078 46.6886C65.6328 46.4272 66.8561 46.141 68.0987 45.922C68.7191 45.8087 69.3435 45.7012 69.9717 45.6047C70.5983 45.5072 71.2398 45.4342 71.8763 45.2868C72.1671 45.2233 72.4646 45.1371 72.761 45.0167C73.0585 44.9013 73.3534 44.7454 73.6258 44.543C73.897 44.3408 74.1548 44.0913 74.3328 43.7818C74.3822 43.7083 74.4145 43.624 74.4549 43.5459C74.4978 43.4673 74.5236 43.3832 74.5491 43.2979C74.5762 43.2135 74.6048 43.1301 74.6179 43.0423L74.6425 42.9122L74.6549 42.7808C74.6693 42.6701 74.6618 42.5672 74.6635 42.47C74.6548 42.3739 74.6551 42.2824 74.64 42.1984C74.6286 42.1135 74.6184 42.0336 74.6015 41.9593C74.5871 41.8844 74.572 41.8123 74.554 41.7448C74.4871 41.4737 74.4133 41.248 74.3308 41.0017C74.1681 40.5072 73.9213 39.9391 73.5073 38.81C73.3648 38.4275 73.1136 37.9625 72.901 37.6901C72.6116 37.3066 72.1515 36.4689 72.1299 36.2287C72.11 35.984 72.0524 35.7427 71.9702 35.5029C71.8879 35.2632 71.7963 35.0176 71.686 34.7763C71.4702 34.2926 71.2126 33.8105 71.0268 33.3305C70.8321 32.8116 70.6439 32.2977 70.4389 31.7917C70.3363 31.538 70.2352 31.2853 70.1329 31.0329C70.0305 30.7805 69.9405 30.524 69.8441 30.2689C69.654 29.7582 69.466 29.2456 69.287 28.7257C69.1177 28.2023 68.9659 27.6682 68.8276 27.1245C68.7072 26.3394 68.4231 25.4445 68.1909 24.5921C68.0083 23.9404 67.8559 23.282 67.7042 22.6326C67.6303 22.3074 67.5566 21.9836 67.4901 21.6621C67.4271 21.3385 67.3712 21.0172 67.3196 20.6976C67.2968 20.6378 67.2723 20.5824 67.2528 20.514C67.2458 20.4891 67.2415 20.3946 67.2482 20.401C67.2669 20.4193 67.2908 20.4722 67.3119 20.5125C67.156 19.8269 66.976 19.1575 66.819 18.4788C66.6595 17.8007 66.49 17.1196 66.3665 16.4082C65.6889 12.6737 65.098 8.90761 64.5443 5.13701C64.4949 4.82089 64.4434 4.49596 64.3914 4.1685C64.3337 3.81584 64.2756 3.46191 64.2187 3.11303C64.1631 2.76386 64.1099 2.41945 64.0619 2.08048C64.0505 1.9956 64.0391 1.91071 64.028 1.82709L64.0237 1.79627C64.0245 1.78814 64.0197 1.79054 64.0147 1.79168L63.9996 1.79511L63.9421 1.80952C63.9031 1.81838 63.8655 1.82695 63.828 1.83679C63.6763 1.87262 63.5293 1.90606 63.387 1.93709C63.025 2.01281 62.7908 2.0462 62.5576 2.10187C62.3258 2.15726 62.0896 2.24014 61.755 2.40768C61.3755 2.58677 60.801 2.85528 60.3151 3.08374C60.1915 3.02836 59.9967 3.00243 59.479 3.14932C58.0427 3.56216 56.6286 3.88113 55.1682 4.47305C54.4229 4.7751 53.4983 5.13119 52.8371 5.15831L52.9287 5.09639L52.7882 5.16413C52.1569 5.42701 51.5722 5.70313 50.8882 5.80435C50.5258 5.85498 49.6294 6.11452 49.4778 6.23249C48.8042 6.73956 47.5171 7.13437 46.3638 7.61801L46.3649 7.62305ZM45.7838 8.42055C45.8635 8.45145 45.7572 8.58829 46.2825 8.37605C46.4313 8.3157 46.65 8.21426 46.6922 8.17287C46.8516 8.01996 46.3876 8.17587 46.1858 8.21249C45.8818 8.26441 45.8231 8.34932 45.7838 8.42055ZM44.4839 7.82955C44.4793 7.85578 44.6108 7.82984 44.6806 7.82855C44.8554 7.71988 45.0487 7.61097 45.1999 7.50898C45.3203 7.42857 45.2216 7.44176 44.9796 7.53391C44.6902 7.65009 44.4962 7.7618 44.4826 7.82984L44.4839 7.82955ZM43.4685 10.2327C44.2112 9.96573 44.8767 9.73088 45.7358 9.27837C44.7166 9.62548 44.1338 9.91575 43.4685 10.2327ZM39.2811 10.321C39.7792 10.3151 40.7116 9.91745 40.6462 10.1179C40.6138 10.2194 40.9936 10.129 41.253 9.93878C41.9091 9.45954 43.2947 8.96283 44.3252 8.2301C42.4808 9.07373 41.0706 9.71785 39.2798 10.3213L39.2811 10.321ZM39.8385 11.9702C39.9119 11.9442 39.9866 11.918 40.0612 11.8917C40.1104 11.858 40.203 11.8064 40.2017 11.7948C40.1953 11.7433 40.0737 11.7842 39.8998 11.8966C39.8548 11.9254 39.8581 11.9459 39.8385 11.9702ZM37.9737 11.0915L38.0521 11.0936L38.1096 11.0328L37.9737 11.0915ZM37.7508 11.8897C37.7998 11.8786 37.8603 11.8714 37.8973 11.8537C37.9652 11.8211 38.0556 11.7713 38.0745 11.7498C38.135 11.6791 38.0386 11.7023 37.8429 11.8065C37.7923 11.8339 37.7802 11.8618 37.7508 11.8897ZM36.2983 12.1326L36.4556 12.0571L36.3146 12.0997L36.2983 12.1326ZM34.7686 13.9185C33.9294 14.2088 33.5487 14.4465 33.3134 14.7717C34.7331 14.1519 36.0468 13.5774 37.3605 13.003C37.5441 12.9678 37.719 12.8883 37.8869 12.7785L37.9814 12.7001L37.8524 12.7837L37.6123 12.89L37.3704 12.9941C36.5021 13.3016 35.6225 13.6236 34.7673 13.9188L34.7686 13.9185ZM34.0318 13.5029C34.0538 13.4834 34.0103 13.4721 33.9722 13.4847C33.912 13.505 33.8301 13.5515 33.7575 13.5865C33.7319 13.6136 33.6611 13.6681 33.6868 13.6649C33.8037 13.6503 33.9423 13.5856 34.0318 13.5029ZM31.2806 14.0319C32.3492 13.6524 33.532 12.9844 33.8772 13.1948C34.5029 12.7212 33.7239 12.9103 33.6786 12.7867C34.6873 12.1902 34.4889 12.6541 35.2602 12.2746C35.4122 11.9259 34.472 12.2948 33.6547 12.6292C32.413 13.1369 31.7767 13.5811 31.2809 14.0332L31.2806 14.0319ZM30.9601 13.5058C31.2603 13.3673 31.2764 13.2987 31.3774 13.2081C31.4717 13.123 31.3983 13.1026 31.2757 13.1676C31.0835 13.2696 30.9449 13.3807 30.8225 13.4761C30.7103 13.5639 30.7812 13.5677 30.9601 13.5058ZM29.5637 14.7683C29.6151 14.7792 29.6975 14.787 29.8164 14.752C30.1278 14.6573 30.1838 14.5663 30.2414 14.5002C30.3184 14.4085 30.1978 14.4187 29.9167 14.525C29.6561 14.64 29.4485 14.7442 29.564 14.7696L29.5637 14.7683ZM28.7737 16.28C28.8306 16.2684 28.8834 16.2683 28.9367 16.2469C29.1715 16.1524 29.2064 16.114 29.0246 16.1514C28.9769 16.1622 28.8918 16.1948 28.8244 16.2181C28.8071 16.2406 28.7885 16.2634 28.774 16.2813L28.7737 16.28ZM23.4845 16.5089C23.6107 16.4828 23.73 16.4729 23.8632 16.4254C24.0538 16.3569 24.1221 16.291 23.9934 16.3004C23.9063 16.3069 23.7621 16.3291 23.6326 16.3758C23.4433 16.444 23.3902 16.5012 23.4857 16.5086L23.4845 16.5089ZM23.6675 17.0464C23.9671 17.0737 24.5056 16.8267 24.9651 16.6161C25.3035 16.4596 25.3868 16.3439 25.4662 16.2397C26.5232 15.8204 26.6323 15.9228 26.5822 16.1264L26.4787 16.2003L26.6148 16.119C27.1007 15.7858 27.5847 15.4504 28.0977 15.0912C27.5168 15.2273 27.0425 15.408 26.6176 15.6081C26.1945 15.8103 25.8191 16.0309 25.4383 16.2447C25.2122 16.3545 24.9937 16.4744 24.7594 16.5714C24.3965 16.7189 24.1359 16.6655 23.7043 16.9294C23.6185 16.982 23.6095 17.0411 23.6688 17.0461L23.6675 17.0464ZM27.1525 16.9257L27.2082 16.9382L27.2738 16.8783L27.1525 16.9257ZM23.5496 17.8353L23.669 17.7618C24.0037 17.63 24.34 17.4991 24.6748 17.3673C24.7309 17.3758 24.7813 17.3882 24.8494 17.3913C24.8666 17.3913 24.9925 17.3468 24.9925 17.3468C25.0845 17.2516 24.8435 17.325 24.7018 17.3466C24.3128 17.4086 23.9619 17.5679 23.6257 17.769L23.5493 17.834L23.5496 17.8353ZM23.1047 18.7609C25.0314 18.3253 26.5793 17.5836 28.1153 16.8883C28.2558 16.8497 28.3893 16.8207 28.5398 16.7679C28.7379 16.6977 28.998 16.6213 29.0973 16.5059C28.9398 16.563 28.7849 16.6194 28.6248 16.677C28.466 16.7396 28.3024 16.8047 28.141 16.8679C26.5692 17.2546 25.0355 18.0991 23.1047 18.7609ZM21.6726 17.9084C21.7492 17.879 21.8212 17.8414 21.8894 17.81C21.8395 17.8174 21.7948 17.8183 21.7341 17.836C21.6574 17.8588 21.5361 17.901 21.4915 17.9257C21.3491 18.0084 21.423 18.0022 21.6726 17.9084ZM20.6454 19.5389L21.2961 19.4545C21.3396 19.4711 21.3502 19.5005 21.3265 19.5417L21.2295 19.6088L21.3871 19.5292C21.4274 19.5029 21.5086 19.4592 21.4978 19.4524C21.4701 19.4348 21.3988 19.4351 21.3458 19.4286C21.1019 19.4722 21.2981 19.2539 20.6454 19.5389ZM19.7879 18.5809L19.9488 18.5098L19.7791 18.5537L19.7854 18.5815L19.7879 18.5809ZM19.9446 19.3338L20.0456 19.3307C20.271 19.2702 20.4985 19.2185 20.7186 19.1406C20.9019 19.075 20.9404 19 20.7897 19.0462C20.572 19.1116 20.324 19.2184 20.089 19.3063L19.9446 19.3338ZM19.4059 18.412L19.4795 18.4217L19.5359 18.3678L19.4059 18.412ZM7.56932 22.5474C7.48495 22.7575 7.46331 22.9122 7.3563 23.0226C7.29654 23.0853 7.30051 23.1957 7.39091 23.2387C7.47417 23.2795 7.54136 23.2204 7.56642 23.1273C7.61164 22.9659 7.6619 22.8034 7.56904 22.5462L7.56932 22.5474ZM7.55889 22.3563L7.53226 22.3438L7.53114 22.3679L7.55889 22.3563ZM8.01186 22.8431C7.96984 22.8036 7.93751 22.8706 7.94017 22.923C7.94194 22.9888 7.94234 23.0603 8.01006 23.0966C8.02895 23.0751 8.066 23.0521 8.06296 23.0329C8.05434 22.9659 8.05021 22.8781 8.01157 22.8418L8.01186 22.8431ZM8.38743 22.7629C8.34676 22.7642 8.33472 22.7868 8.35315 22.833C8.37072 22.8754 8.38887 22.9203 8.40672 22.964C8.42224 22.9392 8.44993 22.9157 8.45048 22.8891C8.45215 22.8383 8.43788 22.7872 8.38743 22.7629ZM8.60341 21.8417L8.57205 21.8316L8.57864 21.8606L8.60341 21.8417ZM8.78488 22.4711C8.77282 22.4645 8.76087 22.4527 8.7487 22.4515C8.73499 22.4493 8.72049 22.4552 8.70907 22.4631C8.70433 22.4655 8.70863 22.4844 8.70841 22.4951L8.78391 22.4726L8.78488 22.4711ZM12.3544 22.1642L12.205 22.222L11.704 22.3956L12.2494 22.2199L12.3544 22.1642ZM11.6419 22.0996L11.6644 22.0706L11.4928 22.1176L11.6432 22.0993L11.6419 22.0996ZM14.5268 21.4262C14.5004 21.3739 14.312 21.3823 14.0778 21.5032C13.9584 21.5648 14.0073 21.6173 14.051 21.6524C14.067 21.6647 14.2872 21.6159 14.4716 21.5846C14.4944 21.5277 14.5466 21.4668 14.5268 21.4262ZM19.1663 20.2636L19.3359 20.1959L19.1851 20.2302L19.1663 20.2636ZM17.9921 19.1272C18.0405 19.1254 18.08 19.1363 18.1385 19.1204C18.3451 19.0641 18.4664 19.0047 18.4496 18.9661C18.4443 18.9541 18.3705 18.955 18.312 18.9709C18.1064 19.0256 17.9964 19.0824 17.9921 19.1272ZM16.5812 19.623L16.7309 19.5956L16.75 19.5634L16.5812 19.623ZM16.757 20.4485C16.757 20.4485 16.8628 20.431 16.9941 20.3985C17.1255 20.366 17.2826 20.3249 17.3831 20.2902C17.6053 20.2158 17.7929 20.1108 17.994 20.0187L18.4858 19.6365L18.5656 19.5746L18.4463 19.6428L17.9105 19.8203L17.7742 19.8367L17.8751 19.839L17.9406 20.0282C17.7769 20.0813 17.6098 20.1366 17.4499 20.1888C17.2011 20.2746 16.7913 20.3201 16.7568 20.4472L16.757 20.4485ZM16.406 21.1128L16.561 21.0391L16.681 20.9681L16.5366 21.042L16.406 21.1128ZM8.24494 21.1546L8.27379 21.1652L8.27183 21.1392L8.24494 21.1546ZM8.29507 21.3459L8.2979 21.3758L8.32576 21.3588L8.29507 21.3459ZM7.78887 21.7871C7.81541 21.8341 7.87466 21.8564 7.90742 21.8145C8.10337 21.5605 8.38705 21.6458 8.59474 21.7165C8.632 21.7292 8.66742 21.7397 8.70044 21.7454C8.71695 21.7483 8.73346 21.7512 8.7494 21.7515C8.75443 21.7504 8.755 21.7529 8.76283 21.7525L8.82931 21.7426C8.87386 21.7352 8.91744 21.7292 8.96073 21.722C9.30833 21.6642 9.62937 21.6057 9.93182 21.5237C10.2351 21.4454 10.5211 21.3605 10.8028 21.2686C11.0832 21.177 11.3574 21.0696 11.637 20.9622C11.8176 20.8907 12.2435 20.8402 12.3213 20.7695C12.3577 20.7612 12.3866 20.7546 12.4227 20.7451C12.9831 20.7104 13.8829 20.5879 12.5058 21.0522L12.3537 21.063L12.4784 21.0651C12.5024 21.1882 12.2284 21.3314 11.6148 21.504C11.4721 21.5445 10.6982 21.6979 11.3479 21.6668C12.0146 21.6464 13.8977 21.0948 13.6658 21.0336C13.3004 20.9378 13.5766 20.7636 14.0159 20.5511C14.2363 20.4453 14.4985 20.3313 14.7434 20.2173C14.9878 20.1007 15.2154 19.98 15.3684 19.8684C15.0479 19.9757 14.7406 20.0827 14.286 20.2166C14.0593 20.2827 13.7966 20.3597 13.4793 20.4518C13.1599 20.535 12.7856 20.6321 12.3364 20.7488C12.3356 20.7397 12.3324 20.7312 12.3169 20.7214C12.1865 20.6477 11.7551 20.7207 11.2739 20.8765C11.0095 20.9631 10.7428 21.0397 10.5121 21.1001C10.2829 21.1615 10.0924 21.2128 9.98295 21.243C9.76313 21.3049 9.86537 21.2896 10.6229 21.1399C10.1104 21.2458 9.53646 21.3658 8.88513 21.4768C8.84464 21.4847 8.80386 21.4913 8.76182 21.4982L8.71225 21.5068L8.7022 21.5091L8.65959 21.5135C8.62983 21.5163 8.60036 21.5204 8.56934 21.5234C8.50731 21.5296 8.44277 21.5363 8.37446 21.5439C8.24138 21.5689 8.04513 21.595 7.85204 21.6349C7.79047 21.6489 7.74213 21.7036 7.78887 21.7871ZM8.04321 22.551L8.07293 22.5654L8.05 22.5402C7.97789 22.4439 7.964 22.3596 8.07688 22.2981C8.14266 22.262 8.20517 22.2173 8.2698 22.1761C8.29381 22.1944 8.31673 22.2197 8.34376 22.2281C8.38227 22.2406 8.42763 22.2541 8.44575 22.1943L8.36097 22.1818L8.2763 22.164C8.25448 22.0854 8.2194 21.937 8.21186 21.9387C8.02516 21.9719 7.87542 22.0921 7.82189 22.2925C7.77313 22.4732 7.92739 22.5124 8.0463 22.5529L8.04321 22.551ZM7.11666 21.7889C7.3391 21.9477 7.43865 21.8509 7.54312 21.7118C7.3705 21.5629 7.27309 21.6924 7.11666 21.7889ZM6.75127 21.8906L6.77572 21.8877L6.75976 21.8582L6.75127 21.8906ZM6.76638 22.2185C7.04308 22.4299 7.19405 22.2047 7.35853 22.0215C7.17032 22.112 6.97571 22.1801 6.76638 22.2185ZM6.822 22.6896C6.82641 22.7031 6.82888 22.7198 6.83745 22.7285C6.87146 22.7618 6.89196 22.7532 6.88822 22.7076C6.88718 22.6973 6.87129 22.6797 6.86009 22.6769C6.84889 22.6742 6.83524 22.6839 6.82325 22.6893L6.822 22.6896ZM6.48835 21.5422L6.57101 21.4756L6.58732 21.4428L6.56243 21.467L6.48932 21.5406L6.48835 21.5422ZM6.51392 23.3163C6.59156 23.3265 6.59738 23.2416 6.63487 23.1973L6.70858 23.0798C6.7369 23.0707 6.76638 23.0667 6.79516 23.0654L6.8266 23.0875L6.79682 23.0611C6.75972 23.0258 6.7283 23.0329 6.70183 23.0734L6.62349 23.188C6.58633 23.2163 6.54734 23.2424 6.512 23.273C6.50532 23.2785 6.51112 23.3156 6.51238 23.3153L6.51392 23.3163ZM6.13023 23.0934C6.08304 23.1532 6.03849 23.2362 6.05463 23.3479C6.05853 23.3708 6.10249 23.4072 6.12134 23.4029C6.22562 23.3792 6.27125 23.2893 6.26853 23.1786C6.26809 23.1244 6.21454 23.0981 6.12994 23.0922L6.13023 23.0934ZM5.96876 21.9652C5.97819 21.9776 5.98712 21.9994 5.99832 22.0022C6.03751 22.0118 6.04983 21.9905 6.0285 21.9489C6.0234 21.9382 6.00198 21.9311 5.98941 21.934C5.98187 21.9357 5.97555 21.9543 5.96876 21.9652ZM5.96039 22.7941L5.99622 22.8761C6.04171 22.8379 6.0875 22.801 6.12933 22.7583C6.13253 22.7549 6.10449 22.6897 6.08798 22.6869C6.01759 22.6737 5.98393 22.7291 5.96039 22.7941ZM5.74032 22.3087L5.77029 22.2953L5.74184 22.2805L5.74032 22.3087ZM5.64169 23.1939C5.59621 23.1857 5.55889 23.2366 5.58601 23.2861C5.60563 23.3201 5.6595 23.3304 5.69596 23.3512C5.71313 23.3221 5.74047 23.2854 5.73681 23.281C5.70782 23.2465 5.67596 23.1994 5.6414 23.1927L5.64169 23.1939ZM5.51997 22.6994C5.54774 22.717 5.51759 22.7994 5.58314 22.7739L5.52384 22.6932C5.51348 22.6651 5.50438 22.6367 5.49179 22.6104C5.48881 22.6031 5.47413 22.6025 5.46545 22.5992C5.4515 22.654 5.49144 22.6728 5.51871 22.6997L5.51997 22.6994ZM5.2674 23.3029C5.27249 23.3137 5.29403 23.3154 5.30734 23.3217C5.31538 23.3106 5.32943 23.2968 5.32742 23.2879C5.32398 23.2728 5.31128 23.2519 5.30008 23.2491C5.25935 23.2385 5.24606 23.2614 5.26614 23.3032L5.2674 23.3029ZM4.80181 23.1848L4.83034 23.2115L4.85829 23.2356L4.83228 23.2084L4.80181 23.1848ZM4.44602 23.2764L4.51072 23.3226L4.56814 23.2671C4.54664 23.2482 4.52297 23.2138 4.502 23.2146C4.48133 23.2166 4.46462 23.2536 4.44602 23.2764ZM3.86857 23.2765L3.89584 23.3034L3.96191 23.4196L4.00921 23.3545L3.89749 23.2991L3.86731 23.2768L3.86857 23.2765ZM3.58196 23.2423C3.58417 23.2868 3.59451 23.3613 3.61622 23.3697C3.66708 23.3899 3.67891 23.3315 3.67993 23.3128C3.68352 23.2298 3.66857 23.1815 3.61778 23.1732C3.60813 23.1714 3.58057 23.2187 3.58196 23.2423Z" fill="#FF5700"/>
<path d="M3.4736 22.3182C3.62239 22.3798 3.76349 22.3901 3.98581 22.252C3.73165 22.221 3.59639 22.2306 3.4736 22.3182Z" fill="#FF5700"/>
<path d="M2.19377 23.4776C2.20221 23.4851 2.21083 23.4994 2.21908 23.5002C2.22862 23.5007 2.23779 23.4878 2.24715 23.4817L2.22155 23.4578L2.19249 23.4779L2.19377 23.4776Z" fill="#FF5700"/>
<path d="M71.1944 31.3483C71.218 31.388 71.236 31.3919 71.256 31.4099L71.2069 31.2408L71.1453 31.1846C71.1619 31.2404 71.1838 31.3309 71.1929 31.3474L71.1944 31.3483Z" fill="#FF5700"/>
<path d="M4.85778 21.9608C4.86949 21.9542 4.87725 21.9418 4.88781 21.9301C5.06221 21.9475 5.21867 21.8045 5.41274 21.9141C5.54316 21.9878 5.59028 21.8406 5.58434 21.7041C5.57905 21.5821 5.57699 21.4394 5.48 21.3674C5.35929 21.2782 5.29713 21.4116 5.2239 21.4906C5.1932 21.524 5.14814 21.5409 5.11012 21.5655L5.08947 21.5967L5.10703 21.5635C4.88362 21.4818 4.85532 21.5201 4.85619 21.9016C4.84998 21.9149 4.84096 21.9275 4.83783 21.9428C4.83744 21.9469 4.85584 21.9639 4.85933 21.9618L4.85778 21.9608Z" fill="#FF5700"/>
<path d="M26.7143 57.2208L26.9476 57.1426L27.178 57.0517C27.2061 57.0069 27.1917 56.9784 27.1344 56.9649C26.8652 57.0712 26.7234 57.1564 26.713 57.2211L26.7143 57.2208Z" fill="#FF5700"/>
<path d="M58.1395 7.857C58.2606 7.77378 58.4026 7.67785 58.5738 7.5647C58.4743 7.62709 58.3318 7.71516 58.1329 7.83993C58.1341 7.84497 58.1355 7.85127 58.1382 7.85728L58.1395 7.857Z" fill="#FF5700"/>
<path d="M64.0966 4.38288C63.9148 4.51304 63.7366 4.64766 63.5642 4.79025C63.3986 4.92201 63.1806 4.74762 63.0411 4.91319C62.9097 5.02659 62.7648 5.13907 62.6368 5.26758C62.5669 5.33783 62.569 5.44602 62.6332 5.54805C62.6897 5.63989 62.7715 5.64514 62.8455 5.62169C63.0387 5.55918 63.2626 5.52682 63.315 5.27501C63.3477 5.11649 63.4045 5.07574 63.5342 5.1695C63.618 5.22996 63.6989 5.23143 63.7377 5.15768C63.8694 4.89446 64.1236 4.78627 64.3032 4.58241C64.356 4.52401 64.3709 4.42121 64.3005 4.34976C64.2249 4.27286 64.1619 4.33887 64.0982 4.38386L64.0966 4.38288Z" fill="#FF5700"/>
<path d="M64.7845 3.09579C64.8115 3.20891 64.7163 3.21465 64.6629 3.25861C64.6394 3.27722 64.614 3.29359 64.5902 3.31093C64.5804 3.47089 64.5009 3.53402 64.3554 3.51013L64.3222 3.4978L64.3533 3.51855C64.3957 3.60035 64.4281 3.69636 64.3527 3.74799C64.1243 3.90595 63.9023 4.07441 63.6664 4.21685C63.4306 4.35929 63.1899 4.49222 62.9092 4.55343C62.835 4.57029 62.793 4.53081 62.7724 4.45199C62.7641 4.41545 62.8511 4.41423 62.7922 4.3587L62.757 4.44225C62.6936 4.5468 62.5856 4.64159 62.5776 4.7574C62.56 4.98803 62.5452 5.11466 62.3305 4.85602L62.2087 4.98311C62.2443 5.07574 62.3066 5.18087 62.166 5.20755C62.122 5.21755 62.0661 5.18121 62.0625 5.13035C62.0552 5.02863 62.1433 5.01521 62.2059 4.98242C61.9008 4.96567 61.7182 5.10395 61.6912 5.35131C61.6807 5.45044 61.6521 5.56297 61.6859 5.65337C61.8839 6.19281 61.5962 6.45573 61.3277 6.73945C61.2485 6.82108 61.1611 6.7853 61.0744 6.78778C60.9458 6.79185 60.8279 6.7789 60.9221 7.00134C60.9537 7.07633 60.853 7.0926 60.7997 7.03845C60.702 6.94007 60.6171 6.82817 60.4902 6.6768C60.4772 7.10783 60.2725 7.31741 59.9814 7.48434C59.8758 7.54283 59.7868 7.62801 59.7015 7.71766L59.5758 7.85626L59.5441 7.8913L59.5281 7.90818C59.5281 7.90818 59.5175 7.91986 59.5054 7.93057L59.3835 8.03916C59.2491 8.15719 59.1637 8.13023 59.0719 8.09279C59.1234 7.97638 59.1708 7.85956 59.0646 7.79359C58.9219 7.93871 59.085 7.98776 59.054 8.09553C58.8563 8.30088 58.5632 8.42983 58.4211 8.67685C58.1938 9.05457 57.9359 9.34385 57.4698 9.32794C57.4498 9.32719 57.3806 9.43569 57.3344 9.49391C57.4183 9.45627 57.5188 9.3751 57.552 9.48021C57.5551 9.49407 57.5461 9.52397 57.5308 9.53805C57.419 9.65094 57.3784 9.57137 57.3174 9.54683C56.8759 9.61013 56.6522 9.90487 56.509 10.2688C56.4446 10.4332 56.3801 10.591 56.2174 10.4279L56.2713 10.2579C56.2542 10.2234 56.338 10.1327 56.2351 10.1455L56.2481 10.2605L56.1996 10.4306C55.9299 10.6801 55.8289 11.1193 55.3689 11.1536C55.3561 11.1552 55.3019 11.2365 55.2936 11.2755C55.2466 11.4929 55.1158 11.6327 54.9668 11.762C54.8176 11.89 54.6391 11.9942 54.4836 12.1184C54.438 12.1327 54.4368 12.023 54.3607 12.1238L54.4816 12.1268C54.5229 12.1863 54.5619 12.2649 54.4382 12.3368C54.2654 12.4371 54.0698 12.4948 53.9791 12.7063C53.8884 12.9178 53.8397 13.0985 53.5597 13.0296C53.4086 12.9925 53.2993 13.2267 53.2164 13.3794C53.13 13.5396 53.0438 13.6374 52.931 13.5132L52.9607 13.3355C52.9973 13.2702 53.0503 13.2012 53.0638 13.1385C53.0772 13.0811 53.0196 13.0836 52.9951 13.1382C52.9652 13.2046 52.9607 13.2719 52.9456 13.339L52.9109 13.5178C52.8585 13.7113 52.8554 13.9069 52.6119 14.0682C52.552 14.1071 52.4655 14.1797 52.4529 14.229C52.3833 14.498 52.244 14.6874 52.0689 14.8412C51.8937 14.995 51.6843 15.1142 51.4887 15.2475L51.3579 15.2534L51.4848 15.2656C51.5726 15.6631 51.337 16.0798 51.0175 16.0346C50.7868 16.0022 50.65 16.0572 50.5546 16.1664C50.4638 16.2785 50.4159 16.4457 50.3567 16.6328C50.3333 16.7097 50.2313 16.7899 50.1662 16.8697L50.125 16.8923L50.1648 16.8872C50.3056 16.9599 50.2701 17.1177 50.1896 17.2924C50.0601 17.571 49.924 17.6179 49.7848 17.4242C49.7481 17.373 49.793 17.2395 49.6346 17.2981C49.5725 17.5189 49.5225 17.7582 49.4696 17.9903C49.4423 18.1145 49.4018 18.2615 49.2738 18.28C49.0273 18.3175 48.9586 18.5439 48.9701 18.6818C48.9853 18.8824 48.9352 19.0223 48.8454 19.1329C48.7556 19.2435 48.6245 19.3236 48.4871 19.4052L48.4856 19.3579L48.4764 19.4103C48.4347 19.6451 48.4002 19.8889 48.1311 19.7513C48.1308 19.7328 48.1358 19.7025 48.1269 19.6979C48.1021 19.6876 48.0717 19.6879 48.0433 19.6851L47.9954 19.7185L48.0415 19.7001C48.0718 19.7171 48.0995 19.7346 48.1291 19.7544C47.997 19.8533 47.8797 19.9649 47.7907 20.0964C47.7032 20.229 47.6379 20.3777 47.6004 20.5439C47.5782 20.6378 47.5834 20.7307 47.5543 20.8235C47.38 21.3933 47.3312 21.4229 46.9589 21.2266C46.9409 21.2174 46.8863 21.2736 46.8463 21.3013C46.7529 21.512 46.9251 21.4384 46.9733 21.4937C47.1937 21.7537 47.1966 21.871 46.8566 22.1657C46.614 22.3773 46.4953 22.5872 46.4136 22.8907C46.376 23.0331 46.2807 23.015 46.2166 22.9713L46.2063 22.9259L46.2049 22.9779C46.1327 23.1547 46.1063 23.3754 45.9563 23.4944C45.4752 23.8715 45.3199 24.3972 45.0875 24.9325C45.0661 24.9837 44.9704 25.028 44.9098 25.075C44.8958 25.037 44.9641 24.9128 44.854 24.975L44.905 25.0774C44.511 25.4771 44.1755 25.9311 43.7684 26.3895C43.7193 26.4471 43.6691 26.5049 43.6191 26.564C43.566 26.6211 43.5114 26.6773 43.457 26.7347C43.3468 26.8486 43.2412 26.9654 43.1226 27.0772C43.0009 27.187 42.8767 27.2974 42.7494 27.4059C42.6252 27.5163 42.4763 27.6112 42.3364 27.7106C42.4704 27.2772 42.5849 26.9264 42.4325 26.7212C42.1924 26.9786 42.0309 27.1227 41.9655 27.2595C41.8971 27.3943 41.9127 27.5154 41.9842 27.69C42.0412 27.836 42.1114 27.9181 41.8498 28.1566C41.7077 28.287 41.5828 28.3657 41.4613 28.3947C41.3415 28.4259 41.2366 28.418 41.1339 28.379C41.0279 28.3369 40.878 28.3113 40.7523 28.4208C40.6555 28.5064 40.5405 28.5763 40.4183 28.6372C40.3564 28.6672 40.2945 28.6972 40.2292 28.7239L40.0308 28.7929C39.7675 28.8899 39.5101 28.967 39.3136 29.1429C39.2153 29.2276 39.083 29.2908 38.9377 29.3318C38.7938 29.3672 38.6384 29.3813 38.4916 29.375C38.2129 29.3522 38.0307 29.33 37.7069 29.4341C37.2975 29.563 37.0782 29.3889 37.1215 29.0623L37.1581 29.0315L37.1125 29.0577C37.0586 29.0647 37.0054 29.0689 36.9509 29.0733C36.93 29.086 36.9103 29.0984 36.8861 29.1079C36.8836 29.1085 36.8586 29.0916 36.8437 29.0844L36.9067 29.0476C36.5658 28.9488 36.4269 29.0414 36.5246 29.2153C36.679 29.4758 36.5052 29.4437 36.2021 29.3775C35.8909 29.3051 35.5714 29.289 35.2304 29.3003L35.0665 29.3057C35.0249 29.0356 34.7051 29.0765 34.4661 29.0831C34.0139 29.0932 34.2913 28.663 33.8784 28.7012C33.6401 28.7223 33.535 28.9225 33.1878 28.8543C32.6052 28.739 31.9957 28.5224 31.4301 28.6153C31.0543 28.6769 31.1689 27.955 30.7137 28.4111C30.3374 28.3721 29.9609 28.3318 29.5847 28.2928C29.1213 28.2485 28.6926 28.1763 28.2346 28.022C27.8366 27.8872 27.3647 27.7414 26.8571 27.7986C26.3378 27.857 26.3141 27.8107 26.2848 27.3973C26.2822 27.3568 26.2837 27.3167 26.2228 27.3106C26.1445 27.3033 26.0553 27.3063 25.9914 27.3275C25.7928 27.3952 25.2961 27.4949 25.1534 27.4426C24.7121 27.2805 24.2577 27.3971 23.8144 27.2726C23.6437 27.2253 23.3963 27.2763 23.4319 27.0667C23.4445 26.9883 23.38 26.9606 23.2959 26.9916C22.7701 27.1841 22.1695 26.9019 21.6058 26.9625C21.0859 27.0185 21.2557 26.6551 21.0316 26.4715C20.7835 26.7983 20.3578 26.8501 19.8115 26.6443C19.5773 26.5558 19.3491 26.5109 19.09 26.5222C18.3912 26.5525 17.6906 26.5396 17.0275 26.2331C16.6926 26.3875 16.5347 25.8615 16.0974 26.071C15.8302 26.198 15.3697 25.9396 14.9798 25.9156C14.5145 25.8862 14.0324 25.8408 13.6009 25.6633C13.2379 25.5139 12.9088 25.659 12.5572 25.5773C11.653 25.3668 10.7182 25.2653 9.81964 25.0681C9.58495 25.0181 9.34996 24.9668 9.11498 24.9156C8.38664 24.7287 7.65352 24.5615 6.93802 24.2974C6.31624 24.0677 5.70111 23.8034 5.06639 23.6098C4.92875 23.5682 4.73031 23.5034 4.75396 23.3575C4.81881 22.9571 4.57286 23.119 4.43335 23.0925C4.28138 23.0634 4.1256 23.0524 3.97158 23.0318C3.91017 23.0232 3.84567 23.0127 3.84291 22.9193C3.8404 22.8443 3.86944 22.7396 3.91977 22.7401C4.15111 22.7405 4.15564 22.4757 4.28162 22.3556C4.64384 22.0135 5.07677 22.017 5.4845 22.0144C6.25554 22.0114 7.01544 22.1685 7.78138 22.2302C8.32259 22.2741 8.85761 22.3605 9.39234 22.4457C9.84423 22.5152 10.2977 22.5857 10.7483 22.6555C11.2267 22.7256 11.7066 22.7901 12.1866 22.8439C13.5615 22.9977 14.9263 23.2519 16.293 23.3811C17.5851 23.502 18.8671 23.7353 20.1621 23.8105C21.0926 23.8639 22.0197 24.0706 22.9588 24.1671C24.7882 24.3554 26.6079 24.7274 28.4443 24.877C28.5196 24.8533 28.5881 24.8642 28.6538 24.9089C30.1849 25.1451 31.72 25.4745 33.2456 25.5875C34.4415 25.6746 35.4719 26.0685 36.4771 26.0373C36.799 26.0291 37.1054 26.0111 37.4032 25.9897C37.6973 25.9639 37.9787 25.9291 38.2473 25.8839C38.5116 25.8317 38.7685 25.7759 39.0096 25.6972C39.1311 25.6564 39.2491 25.6057 39.3719 25.5645C39.4932 25.517 39.6083 25.4537 39.7288 25.4025C40.3321 25.1035 40.8722 24.5844 41.3773 23.9818C41.8829 23.3751 42.3503 22.6645 42.8717 21.9534C43.2787 21.3957 43.6453 20.7821 44.0244 20.1539C44.2106 19.8398 44.4157 19.5215 44.6195 19.2087C44.8257 18.8954 45.0279 18.5817 45.2507 18.2832C45.5977 17.8332 45.9153 17.3647 46.2465 16.9037C46.5879 16.4523 46.924 15.9954 47.2912 15.5647C47.7935 15.0078 48.2407 14.3653 48.7546 13.7952C48.9705 13.5473 49.1894 13.3013 49.4092 13.0592L50.0993 12.3575C50.552 11.8847 51.0352 11.4409 51.4996 10.9787C53.1295 9.38338 54.897 7.93966 56.7424 6.61207L57.0461 6.39057L57.3578 6.18052L57.9835 5.76518L58.3542 5.52979C58.4714 5.45275 58.5935 5.38523 58.7147 5.31392C58.9562 5.17286 59.1958 5.02956 59.4346 4.88248C59.6724 4.73694 59.9051 4.58064 60.1444 4.43608C60.3389 4.31498 60.6218 4.34473 60.7489 4.21775C60.9181 4.04939 61.1227 3.99622 61.3057 3.88302C61.7938 3.59442 62.3174 3.39845 62.8805 3.27701C63.1785 3.21587 63.5055 3.09111 63.8025 2.95597C63.9165 2.90488 64.0102 2.86369 64.0568 3.11549C64.1045 3.36574 64.3482 3.31562 64.5278 3.292C64.527 3.24183 64.5162 3.18861 64.5284 3.14343C64.5522 3.05054 64.6257 3.03116 64.7076 3.04833C64.734 3.05424 64.7745 3.08083 64.7796 3.10351L64.7845 3.09579ZM5.69697 22.3385C5.66126 22.3268 5.63532 22.3115 5.60721 22.3099C5.58973 22.3086 5.57055 22.3288 5.55285 22.3382C5.58016 22.3479 5.60611 22.3632 5.6345 22.366C5.65198 22.3673 5.67173 22.3496 5.69697 22.3385ZM7.18289 23.3405C7.20951 23.353 7.23409 23.3739 7.26123 23.377C7.28431 23.3797 7.30966 23.3633 7.33644 23.3533C7.30672 23.3388 7.28089 23.3182 7.25375 23.3151C7.23067 23.3124 7.2059 23.3313 7.18163 23.3408L7.18289 23.3405ZM7.52682 23.7023L7.06443 23.5808C7.16902 23.785 7.30152 23.7575 7.52682 23.7023ZM13.2338 24.2876C13.2727 24.296 13.3213 24.277 13.3646 24.2698C13.4229 24.2472 13.4248 24.215 13.3607 24.2004C13.3218 24.192 13.2696 24.2066 13.2302 24.2195C13.1711 24.2382 13.1713 24.274 13.2338 24.2876ZM10.9307 23.8293C11.1064 23.8755 11.2538 23.9136 11.4015 23.9529L11.4462 23.9811L11.4157 23.9457C11.2809 23.8584 11.1429 23.7864 10.9307 23.8293ZM9.94215 23.1026C9.94752 23.1146 9.97821 23.1275 9.99906 23.132C10.0128 23.1342 10.0296 23.1211 10.0454 23.1149C10.0323 23.098 10.0262 23.0768 10.0085 23.0689C9.94992 23.0438 9.92275 23.0579 9.94215 23.1026ZM8.93037 23.4997C8.93798 23.5099 8.94296 23.526 8.95222 23.5318C8.96457 23.5396 8.98473 23.547 8.99364 23.5396C9.02316 23.5183 9.01577 23.4975 8.97184 23.4903C8.95813 23.4881 8.9442 23.4965 8.92912 23.5L8.93037 23.4997ZM13.3657 24.6406L13.3648 24.5321C13.1523 24.4983 12.9376 24.4491 12.7256 24.435C11.7765 24.3699 10.85 24.1485 9.91652 23.9951C9.80124 23.9762 9.69184 23.96 9.58175 23.9466C9.52748 23.9404 9.47195 23.9345 9.41642 23.9286C9.38803 23.9257 9.3609 23.9226 9.33279 23.9211C9.3072 23.9189 9.2679 23.9146 9.25756 23.9156C8.90442 23.9085 8.49744 23.9958 8.33282 23.5044C8.19362 23.5082 8.18214 23.6553 8.10455 23.7034C8.04312 23.7412 7.9691 23.7528 7.84284 23.7961C8.60717 23.9204 9.35123 24.0428 10.0869 24.1631C11.1881 24.3394 12.2761 24.5041 13.3672 24.6416L13.3657 24.6406ZM16.8208 24.7083L16.8711 24.6969L16.9038 24.6722L16.856 24.6831L16.8208 24.7083ZM16.3114 24.7287C16.3307 24.7323 16.3591 24.7179 16.3713 24.7072C16.3796 24.6973 16.3687 24.6786 16.3668 24.6644C16.3428 24.6633 16.311 24.6573 16.2952 24.6635C16.2365 24.6901 16.2441 24.7175 16.3101 24.729L16.3114 24.7287ZM15.1021 24.4896C15.2862 24.5325 15.4624 24.5865 15.6547 24.5547C15.4703 24.4933 15.2924 24.4317 15.1021 24.4896ZM14.0321 24.2823C14.1825 24.3859 14.3128 24.3894 14.4377 24.3981C14.5183 24.4037 14.5237 24.3693 14.4437 24.349C14.3261 24.3201 14.2032 24.3083 14.0321 24.2823ZM17.0828 24.9827C16.5828 25.0447 16.1903 24.853 15.811 24.9631C15.1503 24.7423 14.4482 24.7814 13.7752 24.6402C14.4429 24.8449 15.1178 25.0002 15.8238 24.9788C16.2056 25.0073 16.6094 25.3183 17.0843 24.9837L17.0828 24.9827ZM19.2665 24.1494L19.3111 24.1711L19.3194 24.1493L19.2665 24.1494ZM18.2371 24.858C18.3749 24.9062 18.4966 25.0402 18.6712 24.9541C18.5625 24.8304 18.3947 24.854 18.2371 24.858ZM17.5171 23.9814C17.5511 23.9975 17.5844 24.0217 17.6215 24.0279C17.6694 24.0355 17.7199 24.0307 17.7687 24.0302L17.6634 23.9799L17.5183 23.9811L17.5171 23.9814ZM17.9756 25.0447C17.7959 25.0856 17.5601 24.9841 17.3333 25.1431C17.6163 25.1264 17.8364 25.1877 17.9756 25.0447ZM19.3363 25.3277L19.3083 25.2916C19.2492 25.2467 19.1843 25.2403 19.1148 25.2601L18.95 25.3373C18.659 25.3478 18.3574 25.2415 18.0705 25.2935C17.9221 25.3206 17.8609 25.377 17.9394 25.4837C17.9987 25.5643 18.0942 25.6009 18.1962 25.5498C18.4195 25.4394 18.7744 25.5005 18.9666 25.3521L19.1311 25.2736L19.2953 25.2985L19.3376 25.3274L19.3363 25.3277ZM20.3268 25.6736C20.3261 25.4498 20.3301 25.2289 20.0925 24.9979C20.0781 25.045 20.0543 25.0915 20.0521 25.1397C20.0503 25.213 19.9908 25.2596 19.9421 25.3184C19.7132 25.5905 19.7207 25.5941 20.3255 25.6739L20.3268 25.6736ZM30.8617 26.8891C30.88 26.8823 30.9098 26.8742 30.9094 26.8663C30.9052 26.8421 30.8901 26.8164 30.8778 26.7913L30.863 26.8888L30.8617 26.8891ZM30.7255 26.7319L30.8689 26.7814C30.8275 26.7564 30.8204 26.6785 30.7255 26.7319ZM30.2153 26.5338L30.2697 26.5347L30.2286 26.5109L30.2156 26.5351L30.2153 26.5338ZM29.7074 26.5141C29.7254 26.518 29.7582 26.5052 29.7688 26.4935C29.7771 26.4837 29.7647 26.464 29.7597 26.4479C29.7356 26.4467 29.7021 26.4385 29.6875 26.4444C29.6276 26.4713 29.6367 26.4997 29.7071 26.5129L29.7074 26.5141ZM29.2143 25.729L29.3594 25.7742L29.5047 25.8207L29.5479 25.848L29.5192 25.8147C29.4804 25.7891 29.4469 25.7583 29.4019 25.7407C29.3424 25.7171 29.2723 25.6761 29.2158 25.73L29.2143 25.729ZM28.5122 24.9199L28.5404 24.9506L28.5786 24.9326L28.511 24.9202L28.5122 24.9199ZM26.2407 25.4604C26.3075 25.4518 26.3619 25.4182 26.4228 25.3951C26.3848 25.356 26.3572 25.3278 26.3297 25.2996C26.2797 25.3296 26.2222 25.3559 26.1827 25.3914C26.1477 25.4232 26.184 25.4666 26.2407 25.4604ZM25.0464 24.9447L25.0954 24.9681L25.1004 24.9378L25.0452 24.945L25.0464 24.9447ZM24.5498 24.8761L24.5985 24.8982L24.6028 24.8707L24.5495 24.8749L24.5498 24.8761ZM23.6866 25.6066C24.1049 25.6506 24.4915 25.8688 24.993 25.8197C24.5433 25.5853 24.1006 25.6781 23.6866 25.6066ZM23.4656 24.6933C23.4435 24.7182 23.4754 24.7361 23.5467 24.7358C23.5651 24.7356 23.5813 24.7253 23.5998 24.7198L23.5354 24.692C23.5116 24.6921 23.473 24.685 23.4669 24.693L23.4656 24.6933ZM22.8085 25.4935C22.8047 25.5116 22.8672 25.5424 22.906 25.5734C22.9715 25.5651 23.0798 25.571 23.1026 25.5432C23.1572 25.4752 23.0346 25.4765 22.9807 25.4663C22.9156 25.4532 22.8248 25.4315 22.8085 25.4935ZM22.3883 24.6163L22.4457 24.6072C22.4745 24.5768 22.5921 24.6349 22.5733 24.5583L22.4356 24.5976L22.3886 24.6175L22.3883 24.6163ZM20.9467 25.6453C20.9628 25.6111 20.9377 25.5824 20.8728 25.5759C20.8295 25.5712 20.7848 25.584 20.7412 25.5899C20.7672 25.6172 20.7863 25.6605 20.8199 25.6688C20.8551 25.678 20.9028 25.6553 20.9455 25.6455L20.9467 25.6453ZM21.7671 25.2837C21.6582 25.2581 21.5669 25.2696 21.4864 25.3105C21.323 25.2602 21.1836 25.1355 20.9691 25.1975C21.1046 25.3748 21.2907 25.3682 21.4934 25.3181C21.5753 25.2889 21.7229 25.3918 21.7673 25.285L21.7671 25.2837ZM23.5397 26.4484L23.4964 26.4265L23.4884 26.4495L23.5397 26.4484ZM24.6795 26.7591L24.633 26.7697C24.6039 26.7988 24.4866 26.742 24.5053 26.8186L24.6477 26.7822L24.6795 26.7591ZM25.5495 26.2736C25.2282 26.1506 24.8235 26.2651 24.5641 26.1068C24.1745 25.8694 23.8032 25.9392 23.4153 25.936C22.8858 25.688 22.3348 25.7815 21.7884 25.7494C22.2546 25.9111 22.731 26.0241 23.2343 26.0235C23.286 26.0648 23.3395 26.0792 23.3992 26.0457C24.1032 26.3693 24.8247 26.3112 25.5505 26.2721L25.5495 26.2736ZM26.6117 26.0108L26.6928 26.0189L26.7719 26.0354L26.8153 26.0692L26.7769 26.0342C26.727 25.9833 26.6709 25.9748 26.6083 26.0076C26.2091 25.8386 25.8201 25.8304 25.4385 25.9304L25.4004 25.8967L25.4237 25.9351C25.5538 26.0248 25.685 26.1779 25.8756 26.0921C26.101 25.9905 26.399 26.1043 26.6117 26.0108ZM26.3962 26.9399L26.3578 26.934L26.3724 26.9691L26.3977 26.9409L26.3962 26.9399ZM27.4409 27.2629L27.3893 27.2627L27.4339 27.2844L27.4422 27.2626L27.4409 27.2629ZM27.8601 26.933L27.8098 26.9444C27.7805 26.9723 27.6632 26.9155 27.6832 26.9918L27.8227 26.9547L27.8613 26.9327L27.8601 26.933ZM28.3583 26.6367C28.3375 26.4175 27.9724 26.5032 27.7429 26.4931C27.493 26.481 27.2088 26.4807 27.2658 26.2199L27.2982 26.194L27.2526 26.2083C27.0048 26.4608 26.4524 26.2923 26.1358 26.469C26.7007 26.4717 27.2197 26.7088 27.7725 26.7104C27.9907 26.7111 28.3801 26.8664 28.358 26.6355L28.3583 26.6367ZM28.6572 26.423C28.4576 26.1145 28.0995 26.1787 27.7706 26.1621C28.0219 26.3315 28.3937 26.2695 28.6572 26.423ZM28.8748 26.8161C28.8776 26.8049 28.8537 26.7812 28.8332 26.7726C28.8155 26.7647 28.7867 26.7713 28.7629 26.7714C28.7641 26.7883 28.7555 26.8088 28.7685 26.8191C28.8195 26.8632 28.8626 26.8613 28.8748 26.8161ZM29.168 26.3041C29.1529 26.3076 29.1302 26.3061 29.1253 26.3139C29.1045 26.3385 29.0898 26.367 29.0721 26.3936L29.035 26.4166L29.0819 26.4019L29.1683 26.3054L29.168 26.3041ZM31.1267 27.2874L30.9768 27.2327C30.9038 27.1207 30.8427 27.0087 30.8572 26.8927C30.3513 26.8991 29.844 26.9058 29.172 26.9142C29.867 27.1113 30.4053 27.2354 30.9724 27.2363C31.022 27.2569 31.0309 27.3423 31.1258 27.2889L31.1267 27.2874ZM33.7494 26.6524L33.8007 26.6514L33.7574 26.6294L33.7491 26.6512L33.7494 26.6524ZM33.1313 27.0024C33.1777 26.9972 33.2395 27.0017 33.2655 26.9825C33.3042 26.9551 33.2733 26.9237 33.2089 26.9251C33.1601 26.9256 33.1056 26.9301 33.0696 26.9462C33.0314 26.9642 33.0612 26.9905 33.1326 27.0021L33.1313 27.0024ZM31.7169 26.8086C32.0294 26.98 32.318 26.9011 32.6177 26.8475C32.3922 26.8379 32.1974 26.7775 31.9995 26.7032C31.8406 26.6439 31.7639 26.725 31.7169 26.8086ZM34.0353 27.3574L33.9862 27.3739C33.2018 27.2369 32.4275 27.2606 31.5576 27.1947C32.027 27.5796 32.606 27.4758 33.0689 27.6342C33.5333 27.7937 33.8668 27.6913 33.9976 27.3832L34.035 27.3562L34.0353 27.3574ZM50.2027 13.0735L50.2482 13.0472L50.233 13.0269L50.2039 13.0732L50.2027 13.0735ZM50.6164 13.7481C50.7116 13.6496 50.8371 13.5853 50.868 13.4483C50.7433 13.5218 50.6565 13.6224 50.6164 13.7481ZM49.2067 14.3073L49.2444 14.316L49.2377 14.2751L49.2058 14.3088L49.2067 14.3073ZM49.1071 15.3624C49.1388 15.3393 49.1773 15.3226 49.202 15.2918C49.2319 15.2545 49.2504 15.2079 49.2796 15.1562C49.2424 15.1845 49.2057 15.2035 49.182 15.2327C49.1512 15.2715 49.1315 15.3184 49.1084 15.3621L49.1071 15.3624ZM48.3868 15.1816L48.4171 15.1522L48.3816 15.1417L48.3868 15.1816ZM48.4365 16.5447C48.4714 16.5765 48.5046 16.5597 48.5247 16.4968C48.492 16.446 48.4643 16.3767 48.4139 16.3352C48.3878 16.3133 48.3333 16.376 48.3477 16.4218C48.3632 16.4726 48.3999 16.512 48.4352 16.545L48.4365 16.5447ZM47.1405 16.7441C47.3581 16.5037 47.4844 16.3676 47.5371 16.1754C47.3711 16.2993 47.296 16.4688 47.1405 16.7441ZM47.013 17.6531L47.0504 17.626L47.0352 17.6056L47.0117 17.6534L47.013 17.6531ZM47.2452 18.2325L47.2527 18.1844C47.3042 18.0507 47.3514 17.9154 47.4146 17.7632C47.4781 17.6123 47.5513 17.4405 47.6404 17.2281C47.4848 17.4384 47.3715 17.6087 47.3018 17.761C47.2367 17.9163 47.2148 18.0525 47.237 18.1906L47.2461 18.2309L47.2452 18.2325ZM45.779 18.1829L45.8835 18.073L45.9225 17.9541C45.8873 17.9913 45.8473 18.0243 45.8198 18.0663C45.7972 18.1006 45.7913 18.1443 45.7793 18.1842L45.779 18.1829ZM45.5486 18.9245L45.5854 18.8949L45.5705 18.8758L45.5486 18.9245ZM44.6468 20.5955C44.6932 20.573 44.7141 20.5311 44.7074 20.4783C44.6918 20.4739 44.6765 20.4588 44.6607 20.465C44.614 20.4863 44.5903 20.5328 44.6011 20.5807C44.6043 20.5945 44.631 20.6017 44.6465 20.5942L44.6468 20.5955ZM44.7907 20.9259L44.8276 20.9254L44.8095 20.8924L44.7894 20.9262L44.7907 20.9259ZM44.779 21.6588C44.831 21.6841 44.8937 21.646 44.9402 21.589C44.9853 21.4913 44.9781 21.4187 44.9369 21.383C44.8872 21.3386 44.8229 21.393 44.7778 21.4735C44.7336 21.5525 44.7186 21.6315 44.778 21.6604L44.779 21.6588ZM43.8493 21.9113L43.8829 21.9196L43.872 21.8836L43.8493 21.9113ZM43.9772 22.2706L43.9954 22.2227L43.9591 22.2548L43.9772 22.2706ZM43.1706 22.7562L43.2054 22.7231L43.1866 22.7102L43.1706 22.7562ZM42.8448 23.0901L42.8648 23.0444L42.8267 23.0743L42.8436 23.0904L42.8448 23.0901ZM43.4973 23.6176C43.514 23.5807 43.4987 23.5364 43.4976 23.4969C43.4705 23.511 43.4265 23.5211 43.4087 23.5476C43.383 23.5853 43.3568 23.6562 43.367 23.6777C43.4031 23.7437 43.4616 23.6986 43.4976 23.6189L43.4973 23.6176ZM43.1907 24.0995L43.2145 24.053L43.1751 24.0832L43.1907 24.0995ZM41.8373 24.4299C41.8537 24.4261 41.8718 24.4247 41.8842 24.4152C41.9011 24.4021 41.924 24.381 41.9281 24.3642C41.9387 24.318 41.9128 24.3199 41.8667 24.3728C41.8529 24.3879 41.8462 24.4106 41.8361 24.4301L41.8373 24.4299ZM42.5053 25.2521L42.5188 25.2066L42.5174 25.1658L42.5012 25.2106L42.5051 25.2508L42.5053 25.2521ZM41.5501 24.7881L41.5728 24.7485L41.5333 24.772L41.5504 24.7893L41.5501 24.7881ZM41.8417 25.5819C41.8579 25.5663 41.8656 25.542 41.877 25.5222C41.8607 25.5259 41.8422 25.5261 41.8283 25.5346C41.8102 25.548 41.7847 25.5697 41.7791 25.5856C41.7637 25.6341 41.79 25.6334 41.8414 25.5807L41.8417 25.5819ZM40.6358 25.4917L40.6656 25.4598L40.6266 25.4686L40.6358 25.4917ZM39.0594 27.1305L39.1028 27.1353L39.1036 27.1099L39.0591 27.1293L39.0594 27.1305ZM38.1909 26.9318L38.2119 26.9602L38.2254 26.9266L38.1922 26.9315L38.1909 26.9318ZM37.0981 27.5594C37.1692 27.5406 37.251 27.5286 37.302 27.4971C37.3505 27.4662 37.3085 27.4267 37.2567 27.4491C37.1952 27.475 37.1502 27.5211 37.0981 27.5594ZM35.515 27.327C35.5913 27.3428 35.6679 27.3599 35.7449 27.3675C35.8176 27.3735 35.8404 27.3458 35.8311 27.328C35.7566 27.2389 35.6798 27.2498 35.6094 27.2711C35.5722 27.2822 35.5464 27.308 35.5153 27.3283L35.515 27.327ZM34.9244 27.2692C34.9 27.3132 34.9299 27.3342 34.9946 27.3221C35.0147 27.3176 35.0248 27.298 35.0407 27.2865C35.0237 27.2758 35.0075 27.2569 34.9913 27.2553C34.9695 27.2523 34.9315 27.2596 34.9259 27.2702L34.9244 27.2692ZM35.4306 28.4198C35.3411 28.2996 35.1604 28.3474 35.0204 28.3885L34.988 28.4144L35.0349 28.3998C35.1869 28.458 35.2127 28.5369 35.1783 28.6296C35.1631 28.6383 35.1345 28.6462 35.1353 28.6553C35.1392 28.6782 35.1549 28.7011 35.1657 28.7252L35.2362 28.8377L35.1956 28.7171C35.1683 28.6902 35.1719 28.6655 35.2045 28.6461C35.2895 28.5725 35.5127 28.531 35.4296 28.4213L35.4306 28.4198ZM36.4066 28.4523L36.3373 28.4322C36.3128 28.4351 36.2726 28.4324 36.2665 28.4404C36.2462 28.4675 36.2815 28.4834 36.3536 28.4749C36.373 28.4731 36.3886 28.4603 36.4056 28.4538L36.4066 28.4523ZM37.5943 28.7533C37.563 28.7088 37.5357 28.7163 37.5265 28.7688C37.5243 28.7825 37.5384 28.7979 37.5456 28.8121C37.5632 28.8081 37.5929 28.8053 37.5956 28.7994C37.6028 28.7846 37.605 28.7655 37.5953 28.7518L37.5943 28.7533ZM40.3786 28.0326L40.3401 28.0785C40.2818 28.1302 40.201 28.1817 40.1706 28.2337C40.1476 28.272 40.2424 28.2823 40.2773 28.2438C40.324 28.1935 40.3262 28.1333 40.3467 28.0783L40.377 28.0316L40.3786 28.0326ZM42.9756 25.9774C42.9659 25.9756 42.9398 26.0001 42.9204 26.0138C42.9172 26.0344 42.9031 26.0655 42.9114 26.0729C42.9439 26.1052 42.9781 26.0815 42.9976 26.0162C43.003 25.999 42.989 25.9783 42.9765 25.9759L42.9756 25.9774ZM44.6531 24.5568L44.5468 24.8447L44.5538 24.8869L44.5658 24.8351C44.576 24.8103 44.5922 24.7827 44.5939 24.7611C44.5997 24.6935 44.7342 24.6112 44.6531 24.5568ZM45.9241 22.9172C45.8197 22.8707 45.7526 22.9708 45.6943 23.0689C45.6597 23.1258 45.5803 23.2472 45.6873 23.2123C45.7685 23.1859 45.8649 23.3309 45.9426 23.0972C45.9636 23.0328 45.9303 22.9675 45.9241 22.9172ZM45.3979 22.5558L45.3796 22.7018L45.3864 22.7492L45.3916 22.6964C45.3809 22.6551 45.4799 22.5676 45.3969 22.5573L45.3979 22.5558ZM47.3201 20.34L47.2835 20.3708L47.3017 20.3866L47.3201 20.34ZM48.1288 19.2243L48.087 19.2497C48.0945 19.2652 48.0984 19.2882 48.1105 19.2947C48.1569 19.3187 48.1804 19.3001 48.167 19.2527C48.1633 19.2364 48.1415 19.2334 48.1276 19.2246L48.1288 19.2243ZM50.0956 16.17L50.0699 16.2143L50.1083 16.191L50.0956 16.17ZM50.2021 15.1571C49.9729 15.1774 49.8359 15.4644 49.6619 15.4311C49.6577 15.3896 49.7235 15.2951 49.6209 15.3264L49.6426 15.4394C49.3067 15.7345 49.168 16.153 48.9263 16.5022C48.7032 16.8167 48.6275 17.042 48.3366 16.8842C48.2324 16.8271 48.0813 16.9701 48.1909 17.1267C48.2206 17.1703 48.2932 17.2281 48.2326 17.275C47.8228 17.5882 47.7759 18.1316 47.4197 18.4711C47.1891 18.6309 47.0428 18.8882 46.9809 19.1275C46.9143 19.3866 46.4878 19.2079 46.5935 19.6318C46.6189 19.7321 46.4399 19.7874 46.3563 19.7454C46.2202 19.6756 46.348 19.302 46.0835 19.3648C45.9566 19.6786 45.5851 20.0322 45.9077 20.2596C45.9605 20.2012 46.0099 20.1277 46.067 20.0882C46.1193 20.0511 46.2198 20.0164 46.2308 20.0417C46.2754 20.1508 46.18 20.2136 46.0975 20.2575C46.0375 20.2898 45.9759 20.3038 45.9148 20.3256C45.895 20.3606 45.8749 20.3943 45.8533 20.4271C45.8522 20.4512 45.8533 20.4735 45.8481 20.4972C45.8467 20.5028 45.8088 20.522 45.808 20.5182C45.8014 20.5012 45.8013 20.4773 45.7989 20.4553C45.5118 20.7035 45.8566 20.8889 45.6159 21.1729C45.1556 21.7229 44.9406 22.5379 44.3053 22.9289C44.2148 22.9839 44.157 23.1481 44.1375 23.2772L44.293 23.1649C44.3044 23.2909 44.2088 23.306 44.1456 23.3535C43.774 24.102 43.2399 24.7576 42.7169 25.4094C42.6841 25.4513 42.6674 25.5055 42.6426 25.5535C42.4979 25.5679 42.3424 25.5582 42.1908 25.7225C42.0859 25.8365 42.006 25.921 41.9364 25.9752C41.8687 26.0317 41.8182 26.0657 41.7726 26.0801C41.6823 26.1072 41.6124 26.0555 41.4746 25.949C41.3612 26.0954 41.395 26.2269 41.2664 26.3874C40.6782 27.1016 39.7882 27.5519 38.8586 27.6653C38.6168 27.7004 38.3844 27.6486 38.3302 27.4568C38.303 27.3662 38.2356 27.2967 38.067 27.3629C37.9544 27.4084 37.8841 27.4363 37.9641 27.5612C38.0387 27.6742 37.9866 27.7417 37.8892 27.7837C37.7908 27.822 37.6459 27.8298 37.5414 27.835C37.3099 27.8399 37.1984 27.6864 37.0952 27.564C36.9569 27.5544 36.7592 27.4231 36.6988 27.5813C36.5827 27.8847 36.267 27.8386 35.9484 27.7626C35.3975 27.6294 34.851 27.6318 34.2873 27.5824C34.3349 27.838 34.4899 27.9154 34.8504 27.9315C35.6113 27.9652 36.3612 27.9391 37.1404 28.0879C37.4963 28.154 37.9074 28.1427 38.2941 28.0243C38.5365 27.94 38.6563 27.9088 38.8123 27.8918C38.89 27.8848 38.9781 27.8886 39.0953 27.8924C39.2113 27.8912 39.3587 27.9001 39.5567 27.8935C39.6894 27.8845 39.845 27.8133 39.9133 27.7011C40.0116 27.5462 40.2361 27.348 40.3356 27.3903C40.5328 27.4674 40.6868 27.4006 40.8229 27.302C40.8569 27.277 40.889 27.2499 40.9212 27.2227L41.0112 27.1306C41.0715 27.0705 41.1312 27.0132 41.1996 26.9711C41.2722 26.9242 41.3453 26.8797 41.4093 26.824C41.4733 26.7684 41.5367 26.7102 41.5976 26.6527L41.7779 26.4751C41.8351 26.4131 41.889 26.3478 41.9435 26.2851C42.1681 26.0352 42.3735 25.7764 42.6441 25.5598C42.8919 25.4584 43.0501 25.213 43.2159 25.0003C43.3458 24.8396 43.476 24.6801 43.6037 24.5211C43.7364 24.3664 43.8696 24.2142 44.015 24.0751C44.0182 24.0544 44.0199 24.0328 44.0285 24.0123C44.0321 24.0049 44.0621 23.9915 44.0645 23.9962C44.0726 24.0089 44.0722 24.0302 44.075 24.0482C44.3208 23.694 44.4672 23.2976 44.7187 22.9395C45.3807 21.9978 45.9678 21.012 46.6196 20.0951C46.8045 19.8277 46.9506 19.4936 47.1782 19.3093C47.3189 19.1899 47.4125 19.195 47.3868 18.9889C47.3695 18.843 47.4092 18.663 47.4244 18.4979C47.5143 18.5212 47.6112 18.523 47.7064 18.3953C47.8361 18.216 47.9925 18.0612 48.1384 17.8954C48.2829 17.7287 48.4157 17.5514 48.5099 17.3325C48.6061 17.1105 48.7395 16.8429 49.0087 16.8122L49.0116 16.8539L49.0245 16.806C49.1151 16.6236 49.1767 16.4294 49.407 16.3558C49.5291 16.3174 49.7438 16.14 49.7326 16.0617C49.7083 15.891 49.773 15.7398 49.8692 15.5933C49.9701 15.4498 50.1024 15.311 50.2062 15.1575L50.2021 15.1571ZM49.9545 14.6263C49.8978 14.6034 49.8584 14.5116 49.7544 14.6466C49.7248 14.6851 49.6909 14.7512 49.6982 14.7773C49.7252 14.8786 49.8332 14.7784 49.9043 14.7596C50.0099 14.7303 49.9814 14.6745 49.9545 14.6263ZM50.9237 15.0645C50.9091 15.0467 50.8657 15.0592 50.8354 15.0594C50.8246 15.1282 50.8088 15.198 50.8049 15.2625C50.8023 15.3148 50.8377 15.3081 50.8883 15.2515C50.9433 15.1794 50.9622 15.1115 50.9237 15.0645ZM49.8804 13.4344C49.6976 13.5953 49.537 13.7431 49.4271 14.0385C49.6786 13.8196 49.7643 13.6331 49.8804 13.4344ZM51.8057 13.5969C51.5728 13.5664 51.3758 13.7927 51.2849 13.6544C51.2385 13.5841 51.1132 13.6258 51.1073 13.7451C51.0908 14.0444 50.7406 14.3176 50.7408 14.7947C50.817 14.6647 50.8911 14.5431 50.9656 14.4294C51.0433 14.3177 51.1229 14.2147 51.2078 14.1172C51.3763 13.9225 51.5646 13.7511 51.8057 13.5969ZM50.5607 12.3877C50.5401 12.4017 50.521 12.4166 50.5004 12.4306C50.4972 12.4512 50.4834 12.4835 50.4907 12.4924C50.5243 12.5299 50.5589 12.5074 50.5747 12.4376C50.5785 12.4195 50.566 12.4051 50.561 12.389L50.5607 12.3877ZM51.9643 13.138L51.9257 13.1309L51.9346 13.17L51.9643 13.138ZM51.6056 12.5835C51.588 12.5875 51.5642 12.5876 51.5559 12.5974C51.5415 12.6153 51.5283 12.6448 51.5315 12.6586C51.5434 12.705 51.5754 12.695 51.6095 12.6356C51.6179 12.6204 51.6068 12.6004 51.6053 12.5822L51.6056 12.5835ZM52.1605 12.5248L52.129 12.5665L52.1709 12.5476L52.1605 12.5248ZM51.879 11.351C52.1189 11.209 52.1638 11.0636 52.0985 10.8465C51.7639 11.1823 51.4592 11.4982 51.1513 11.8121C51.0826 11.8237 51.0438 11.8683 51.0259 11.9347L51.0252 11.9839L51.0387 11.9331L51.0941 11.8741L51.1512 11.8174C51.3942 11.66 51.6346 11.4967 51.879 11.351ZM52.4622 11.7193C52.4626 11.7325 52.4905 11.7447 52.5009 11.7384C52.5183 11.7278 52.531 11.7023 52.5465 11.6829C52.5424 11.6653 52.5466 11.6312 52.5347 11.6313C52.4872 11.6315 52.4583 11.6672 52.4625 11.7206L52.4622 11.7193ZM53.4754 11.5896C53.3275 11.6776 53.204 11.8143 53.0836 11.9067C52.9651 12.0012 52.8512 12.0523 52.7099 11.9599C52.681 12.2514 52.9429 12.1826 53.0332 12.2773C52.8938 12.6231 52.7256 12.3022 52.5747 12.5102C52.702 12.7502 52.9375 12.5655 53.1326 12.3952C53.2801 12.2649 53.3678 12.1336 53.4199 12.0025C53.4705 11.8704 53.4815 11.7327 53.4741 11.5899L53.4754 11.5896ZM53.9152 12.0131C53.8509 12.0847 53.8806 12.1336 53.8831 12.1914C53.8861 12.245 53.9322 12.2677 53.9532 12.2324C53.9869 12.177 53.9914 12.1097 53.9964 12.0503C54 11.9965 53.9661 11.9869 53.9152 12.0131ZM53.8781 11.2104C53.8486 11.1972 53.8058 11.1831 53.7695 11.198C53.6755 11.2379 53.6977 11.3005 53.7077 11.3446C53.7215 11.4051 53.7726 11.4093 53.8469 11.358C53.9059 11.2982 53.9453 11.2389 53.8778 11.2092L53.8781 11.2104ZM53.4308 10.1445C53.4104 10.1478 53.387 10.1439 53.3737 10.1549C53.3151 10.2053 53.3196 10.2308 53.3845 10.22C53.4009 10.2163 53.4222 10.1995 53.4421 10.1883C53.4386 10.1732 53.4349 10.1568 53.432 10.1442L53.4308 10.1445ZM55.7237 10.4938C55.6819 10.5019 55.6332 10.4971 55.5993 10.5221C55.5504 10.557 55.5551 10.601 55.6079 10.6063C55.6431 10.6102 55.6951 10.6063 55.7281 10.5829C55.7769 10.5479 55.7696 10.5098 55.7237 10.4938ZM55.3616 10.0579C55.2141 10.008 55.1033 10.1485 55.0074 10.267C54.9359 10.3535 54.9596 10.4343 54.9787 10.5068C54.7216 10.7243 54.6126 10.6285 54.53 10.4803L54.5378 10.4335L54.5184 10.4816C54.4728 10.6881 54.4234 10.8889 54.3825 11.1103C54.7739 11.0239 54.8709 10.7593 54.9887 10.5045C55.0328 10.4428 55.0696 10.3722 55.1241 10.3213C55.2093 10.2423 55.3539 10.3088 55.4079 10.1455C55.4189 10.1125 55.3917 10.0683 55.3628 10.0576L55.3616 10.0579ZM53.8413 9.81127L53.8088 9.79613L53.8098 9.83565L53.8413 9.81127ZM55.0008 9.45346L54.9863 9.50047L54.7428 9.71359C54.7124 9.70195 54.6839 9.68721 54.6516 9.67866C54.6432 9.6766 54.6102 9.70001 54.6102 9.70001C54.6185 9.7657 54.6886 9.7312 54.7406 9.72733C54.8819 9.71509 54.9584 9.62743 55.0004 9.49859L54.9995 9.45374L55.0008 9.45346ZM54.7154 8.76821C54.0881 8.94403 53.7635 9.37039 53.4125 9.74446C53.3671 9.76007 53.3182 9.76589 53.277 9.79382C53.2228 9.82867 53.1421 9.86294 53.1574 9.94164C53.1998 9.91343 53.2439 9.88619 53.2855 9.85419C53.3271 9.82219 53.3684 9.78894 53.41 9.75694C53.9421 9.62134 54.202 9.11957 54.7139 8.76724L54.7154 8.76821ZM55.7922 9.56901C55.7734 9.58521 55.7613 9.60783 55.7484 9.62666C55.7666 9.62518 55.7859 9.62874 55.8027 9.62096C55.8241 9.61078 55.8561 9.58891 55.863 9.57277C55.8829 9.52054 55.8535 9.51927 55.7924 9.57027L55.7922 9.56901ZM55.3964 8.36945L55.1576 8.38268C55.1298 8.36514 55.11 8.34182 55.0991 8.31118L55.1072 8.26559L55.079 8.31575C55.0751 8.33385 55.0618 8.36208 55.071 8.36792C55.0916 8.38311 55.1221 8.38943 55.1495 8.39912C55.2335 8.3853 55.2597 8.54104 55.3964 8.36945ZM56.2581 9.20062L56.2259 9.24505L56.2754 9.22451L56.2571 9.20216L56.2581 9.20062ZM55.8046 8.58941L55.7625 8.5844C55.6981 8.61496 55.6248 8.6356 55.5701 8.67984C55.5243 8.71676 55.5463 8.77273 55.5884 8.74858C55.6494 8.71482 55.7011 8.65138 55.7568 8.60027L55.8033 8.58969L55.8046 8.58941ZM56.5085 9.36632L56.4725 9.3533L56.4774 9.39196L56.5085 9.36632ZM59.6922 5.83512C59.6869 5.60837 59.6462 5.45858 59.7005 5.3137C59.7309 5.23256 59.6833 5.1334 59.583 5.12837C59.4896 5.12443 59.4511 5.20477 59.4647 5.29973C59.4866 5.46572 59.5038 5.63412 59.6919 5.83386L59.6922 5.83512ZM59.7775 6.00658L59.8068 6.00786L59.7979 5.98603L59.7765 6.00813L59.7775 6.00658ZM59.1671 5.73985C59.2217 5.75924 59.2248 5.68564 59.202 5.63781C59.1741 5.57921 59.1458 5.51275 59.0678 5.50665C59.0594 5.53373 59.0346 5.56986 59.0436 5.58636C59.0778 5.64354 59.1171 5.72339 59.1674 5.74112L59.1671 5.73985ZM58.853 5.96239C58.8902 5.94597 58.892 5.91905 58.8577 5.88444C58.824 5.85235 58.79 5.819 58.7559 5.78565C58.7519 5.8144 58.7356 5.84727 58.7451 5.87161C58.7638 5.91905 58.797 5.96053 58.8542 5.9621L58.853 5.96239ZM59.0284 6.89661L59.0607 6.89324L59.0444 6.8678L59.0284 6.89661ZM58.6087 6.39303C58.6224 6.39521 58.6379 6.39963 58.6505 6.39677C58.663 6.39391 58.6748 6.38195 58.6816 6.37113C58.6845 6.36649 58.6733 6.35182 58.6685 6.34231L58.6077 6.39457L58.6087 6.39303ZM57.4125 6.68232L57.4393 6.63777L57.5381 6.50266L57.4237 6.63868L57.4125 6.68232ZM57.7116 6.74816L57.717 6.7721L57.759 6.73604L57.7113 6.7469L57.7116 6.74816ZM56.9563 7.22741C56.9942 7.27181 57.063 7.27207 57.0926 7.18183C57.1073 7.13607 57.0626 7.09057 57.0279 7.06003C57.0147 7.04846 56.9547 7.08067 56.898 7.09886C56.9177 7.14474 56.9286 7.19263 56.9576 7.22712L56.9563 7.22741ZM55.6562 7.90216L55.6181 7.94396L55.6647 7.92806L55.6562 7.90216ZM56.729 8.89471C56.71 8.89241 56.6877 8.88158 56.6725 8.89033C56.6162 8.92169 56.5976 8.96172 56.6232 8.993C56.632 9.00291 56.6622 9.00797 56.6774 8.99921C56.7337 8.96785 56.7504 8.93092 56.729 8.89471ZM57.0566 8.59223L57.0095 8.60561L57.0177 8.63025L57.0554 8.59252L57.0566 8.59223ZM56.562 7.91084C56.5578 7.90385 56.4323 7.95625 56.3851 7.99879C56.3326 8.04653 56.3056 8.11364 56.2693 8.17491L56.262 8.45091L56.2614 8.49478L56.2758 8.44776L56.4059 8.33998L56.4541 8.33696L56.4112 8.32818L56.2869 8.17091C56.3272 8.1392 56.3722 8.11041 56.4095 8.07675C56.4687 8.02351 56.6131 8.01321 56.562 7.91084ZM56.3679 7.39437L56.3425 7.44522L56.3286 7.49475L56.3503 7.44476L56.3679 7.39437ZM59.629 7.3816L59.5977 7.38342L59.611 7.40691L59.629 7.3816ZM59.5075 7.22501L59.4934 7.19774L59.4744 7.2246L59.5072 7.22375L59.5075 7.22501ZM59.7926 6.61942C59.7495 6.58681 59.6866 6.58919 59.6734 6.64124C59.6345 6.79586 59.5402 6.88093 59.4301 6.93116C59.3218 6.98363 59.1942 6.99806 59.0865 7.00666C59.0477 7.01019 59.0119 7.01567 58.978 7.02339C58.9617 7.0271 58.9456 7.03208 58.9308 7.03677L58.9195 7.03934L58.9021 7.04992L58.8667 7.06858C58.774 7.12014 58.6962 7.17892 58.6277 7.24355C58.4893 7.3731 58.389 7.52448 58.2926 7.69351C58.2615 7.7483 58.131 7.78461 58.1349 7.83673C58.1257 7.8428 58.1175 7.84732 58.1083 7.85339C57.9157 7.8667 57.6387 7.94429 57.9207 7.59786L57.9726 7.59399L57.9237 7.58789C57.8532 7.48729 57.8849 7.3767 58.0239 7.24435C58.0565 7.2131 58.2664 7.10174 58.0407 7.11464C57.9261 7.12214 57.7537 7.21834 57.6326 7.33071C57.5112 7.44182 57.4329 7.55639 57.492 7.58402C57.8657 7.76278 57.436 8.13354 57.4185 8.46354C57.5637 8.32317 57.695 8.18595 58.1377 7.85466C58.1419 7.86165 58.1477 7.86961 58.1587 7.87769C58.248 7.94486 58.3679 7.89108 58.4679 7.77292C58.6875 7.51225 58.9647 7.31931 58.572 7.56237C58.7032 7.47686 58.8496 7.3826 59.0153 7.27466C59.0648 7.24221 59.0802 7.23472 59.1068 7.21806C59.1325 7.20296 59.1581 7.18785 59.185 7.17245C59.2388 7.14167 59.2948 7.10905 59.3543 7.07431C59.4632 6.99521 59.6331 6.89426 59.794 6.78214C59.8453 6.74659 59.8677 6.67656 59.7908 6.61718L59.7926 6.61942ZM59.256 6.02048L59.2226 6.01881L59.2536 6.03297C59.3583 6.09264 59.405 6.1642 59.3263 6.26559C59.2804 6.32508 59.2399 6.39126 59.1973 6.45396C59.1681 6.44736 59.1368 6.43194 59.1086 6.4357C59.0688 6.44078 59.0227 6.44729 59.0305 6.51047L59.1123 6.48657C59.1396 6.47902 59.1688 6.47371 59.1964 6.46742C59.248 6.53125 59.3402 6.65208 59.3459 6.64813C59.5047 6.54443 59.5932 6.37585 59.5637 6.17051C59.5375 5.98562 59.3794 6.01098 59.2547 6.02077L59.256 6.02048ZM60.409 6.35465C60.142 6.2961 60.089 6.42346 60.0483 6.59308C60.266 6.66151 60.3033 6.50592 60.409 6.35465ZM60.7001 6.11218L60.6792 6.12488L60.7063 6.14523L60.6988 6.11246L60.7001 6.11218ZM60.5561 5.81623C60.2235 5.73681 60.1736 6.00528 60.0954 6.23646C60.233 6.08057 60.3832 5.93906 60.5561 5.81623ZM60.3198 5.40478C60.3097 5.39515 60.3019 5.37837 60.2904 5.37435C60.2455 5.35675 60.2307 5.37335 60.2533 5.4146C60.2581 5.42411 60.2798 5.43242 60.2914 5.43111C60.3028 5.42854 60.3112 5.41337 60.3211 5.40449L60.3198 5.40478ZM61.0767 6.32736L61.0264 6.41966L61.0241 6.45597L61.0379 6.42368L61.0767 6.32736ZM60.3595 4.70789C60.2837 4.7291 60.3112 4.80901 60.2932 4.86347L60.27 4.99994C60.248 5.01952 60.2224 5.03463 60.1947 5.04624L60.1573 5.03884L60.1945 5.05157C60.2423 5.06986 60.2683 5.05069 60.2777 5.00482L60.3062 4.86846C60.3301 4.82855 60.3557 4.78962 60.3778 4.74747C60.3814 4.74003 60.3623 4.70858 60.3611 4.70886L60.3595 4.70789ZM60.8023 4.76623C60.8225 4.6927 60.8329 4.59889 60.774 4.5023C60.7615 4.48259 60.7062 4.46602 60.6916 4.47729C60.6038 4.53836 60.5961 4.63818 60.6415 4.73918C60.6633 4.78856 60.7226 4.79363 60.8035 4.76595L60.8023 4.76623ZM61.3902 5.74183C61.3766 5.73432 61.3607 5.71673 61.3494 5.7193C61.3096 5.72438 61.3062 5.75032 61.3419 5.77932C61.3515 5.78643 61.3737 5.78535 61.3841 5.779C61.3911 5.77476 61.3893 5.75529 61.3915 5.74154L61.3902 5.74183ZM61.0759 4.9757L61.0103 4.91375C60.9826 4.96643 60.9546 5.01785 60.9313 5.07219C60.9297 5.07654 60.9805 5.12594 60.9981 5.12194C61.0688 5.1072 61.0779 5.04282 61.0756 4.97444L61.0759 4.9757ZM61.4676 5.33854L61.4453 5.36219L61.4762 5.36443L61.4661 5.33757L61.4676 5.33854ZM61.213 4.48063C61.2583 4.47034 61.2718 4.40763 61.2281 4.37251C61.1976 4.34895 61.1436 4.36124 61.1018 4.3575C61.0976 4.39157 61.0867 4.43647 61.0926 4.43911C61.1316 4.4594 61.1794 4.48961 61.2146 4.48161L61.213 4.48063ZM61.516 4.88885C61.4833 4.88437 61.4791 4.79651 61.4284 4.84648L61.5139 4.89727C61.5348 4.91904 61.5543 4.9411 61.5758 4.96007C61.581 4.96551 61.5945 4.96111 61.6036 4.96037C61.5948 4.90407 61.551 4.90341 61.516 4.88885ZM61.514 4.22929C61.5042 4.22092 61.4846 4.22801 61.4702 4.22863C61.4681 4.24238 61.4589 4.26036 61.4647 4.26832C61.4729 4.28104 61.4932 4.29497 61.5048 4.29366C61.5456 4.28703 61.5502 4.2608 61.5143 4.23055L61.514 4.22929ZM61.9915 4.16176L61.9555 4.14874L61.9198 4.13698L61.9536 4.15183L61.9915 4.16176ZM62.2868 3.94351L62.2102 3.92647L62.1778 3.99879C62.2051 4.00848 62.2406 4.03089 62.2586 4.02282C62.2763 4.01349 62.2774 3.97214 62.2871 3.94477L62.2868 3.94351ZM62.8195 3.71765L62.7848 3.70434L62.6804 3.62337L62.6613 3.70194L62.7846 3.70967L62.821 3.71862L62.8195 3.71765ZM63.0957 3.63628C63.0759 3.59572 63.04 3.53098 63.0165 3.53235C62.9615 3.53427 62.9734 3.59252 62.9787 3.60988C63.0071 3.68824 63.0385 3.72749 63.0884 3.7148C63.0985 3.71251 63.1059 3.65782 63.0957 3.63628Z" fill="#FF5700"/>
<path d="M63.5463 4.44972C63.3868 4.45153 63.253 4.49654 63.1022 4.71107C63.3476 4.63937 63.4673 4.579 63.5463 4.44972Z" fill="#FF5700"/>
<path d="M64.2955 2.8947C64.2851 2.89033 64.2723 2.88111 64.2633 2.88314C64.2544 2.88518 64.2499 2.90104 64.2443 2.91176L64.2768 2.9246L64.2955 2.8947Z" fill="#FF5700"/>
<path d="M42.1761 27.2902C42.1691 27.3067 42.1765 27.3212 42.1774 27.3371L42.234 27.3081L42.2302 27.2617C42.2109 27.2715 42.1788 27.2842 42.1761 27.2902Z" fill="#FF5700"/>
<path d="M62.4086 5.3101C62.4003 5.31995 62.3972 5.33524 62.3925 5.34956C62.2233 5.39598 62.1392 5.59537 61.9196 5.5711C61.772 5.55562 61.7873 5.70986 61.846 5.83435C61.899 5.94554 61.9564 6.07564 62.0724 6.10359C62.2164 6.13842 62.2211 5.99025 62.2572 5.88792C62.2725 5.84469 62.3073 5.8116 62.3328 5.77267L62.3401 5.73521L62.3368 5.77307C62.571 5.75691 62.5844 5.71677 62.4356 5.36493C62.4362 5.35021 62.4394 5.33492 62.4362 5.32105C62.4351 5.31601 62.4121 5.30798 62.4089 5.31136L62.4086 5.3101Z" fill="#FF5700"/>
<path d="M23.2469 26.0154L23.3187 26.0348L23.393 26.0418C23.4099 26.0114 23.4146 25.9799 23.4043 25.9464C23.3169 25.9398 23.2652 25.9622 23.2472 26.0166L23.2469 26.0154Z" fill="#FF5700"/>
</g>
<defs>
<clipPath id="clip0_192_978">
<rect width="68.2375" height="50.1119" fill="white" transform="translate(0 15.1335) rotate(-12.8135)"/>
</clipPath>
</defs>
</svg>
