<svg width="130" height="119" viewBox="0 0 130 119" fill="none" xmlns="http://www.w3.org/2000/svg">
<g clip-path="url(#clip0_749_858)">
<path d="M46.4922 19.0612C46.1592 18.8855 45.8075 18.6789 45.4185 18.4623C45.0314 18.2423 44.6061 18.0096 44.1549 17.735C44.4094 17.8933 44.7243 18.0768 45.1053 18.2956C45.4873 18.5127 45.9294 18.7754 46.4528 19.0706C46.4704 19.0715 46.4846 19.0705 46.4922 19.0612Z" fill="#EE0061"/>
<path d="M34.4096 10.9823C34.7039 11.1541 35.0249 11.2911 35.3271 11.4492C35.6158 11.5951 35.5152 12.0153 35.8328 12.1025C36.073 12.2141 36.3211 12.3437 36.589 12.4346C36.7328 12.4846 36.8834 12.411 36.9828 12.2561C37.0724 12.1184 37.0265 12.0037 36.9438 11.9181C36.7254 11.6962 36.5366 11.4025 36.1557 11.4906C35.9151 11.547 35.8226 11.4944 35.8676 11.2518C35.8972 11.096 35.847 10.981 35.721 10.9754C35.2782 10.9532 34.9426 10.6943 34.5485 10.5703C34.4338 10.5369 34.2822 10.5803 34.2293 10.7252C34.1722 10.8815 34.3041 10.9246 34.4086 10.984L34.4096 10.9823Z" fill="#EE0061"/>
<path d="M32.1872 10.8691C32.3257 10.757 32.3956 10.8853 32.4903 10.93C32.5316 10.949 32.569 10.9748 32.6094 10.9955C32.836 10.9038 32.9752 10.9738 33.0359 11.1901L33.0408 11.2452L33.0483 11.1881C33.1348 11.0759 33.2457 10.9685 33.3646 11.0383C33.7346 11.2486 34.1065 11.4555 34.4643 11.6793C34.822 11.903 35.1539 12.1644 35.4208 12.5161C35.4909 12.6082 35.465 12.6935 35.3697 12.7735C35.3255 12.8074 35.2667 12.6876 35.2294 12.8051L35.3683 12.7999C35.5534 12.8211 35.7506 12.9127 35.9193 12.8472C36.252 12.7203 36.439 12.6584 36.2214 13.1211L36.4799 13.2045C36.5857 13.0941 36.6912 12.9404 36.8203 13.1161C36.8614 13.1713 36.8461 13.2739 36.7779 13.3102C36.6432 13.3836 36.5673 13.27 36.479 13.2062C36.6569 13.6346 36.9562 13.8138 37.3151 13.6928C37.4598 13.6455 37.6319 13.6137 37.7355 13.5112C38.3563 12.8936 38.9133 13.1215 39.4865 13.3132C39.6521 13.3687 39.6545 13.5201 39.7123 13.6416C39.7978 13.822 39.8535 13.9991 40.1032 13.7274C40.1877 13.6345 40.2749 13.7681 40.2337 13.8765C40.1593 14.0752 40.0546 14.2634 39.9258 14.5379C40.5364 14.2849 40.9623 14.4407 41.3803 14.7419C41.5315 14.8506 41.7011 14.931 41.8821 14.9953L42.1551 15.0891L42.2236 15.1121L42.2574 15.1245L42.2747 15.1298L42.357 15.1765C42.5985 15.3138 42.8417 15.452 43.0832 15.5893C43.8804 16.0447 44.0775 16.2681 44.2482 16.5219C43.7132 16.3269 43.1892 16.1405 43.3196 16.4214C44.2369 16.8928 43.872 16.4422 44.3116 16.5739C44.9512 16.9078 45.6187 17.2804 46.2818 17.6368C46.94 18.0018 47.6104 18.3215 48.2423 18.5693C50.2224 19.3197 52.0493 20.0967 53.5554 21.2823C53.6188 21.3342 54.217 21.5378 54.5722 21.6624C54.1645 21.4466 53.5512 21.1662 53.7981 21.1065C53.8304 21.0976 53.9644 21.1329 54.0654 21.1744C54.8283 21.483 54.6877 21.5667 54.8119 21.7191C56.4946 22.8732 58.2581 23.4665 60.0229 23.8741C60.8184 24.0534 61.6006 24.2321 61.5665 24.5991L60.7838 24.4452C60.7218 24.4826 60.1173 24.2663 60.5063 24.5147L60.8683 24.5L61.6365 24.6434C63.4246 25.3211 65.3542 25.6382 67.0179 26.702C67.0639 26.7327 67.5432 26.8664 67.7175 26.8906C69.6177 27.1637 71.5792 28.1104 73.5346 28.8445C73.7338 28.9486 73.3283 28.9363 73.9592 29.1221L73.574 28.8509C73.6617 28.7644 73.8335 28.6893 74.5093 28.9757C75.4558 29.3796 76.3147 29.8222 77.4242 30.0551C78.5337 30.288 79.3993 30.4436 80.022 31.0544C80.3616 31.386 81.6198 31.6761 82.4803 31.8925C83.3827 32.119 84.0437 32.3356 83.9018 32.5572L83.105 32.4521C82.7349 32.3576 82.2953 32.226 82.0099 32.1819C81.7472 32.1417 81.9354 32.2691 82.2223 32.3345C82.5721 32.4128 82.8507 32.4371 83.1615 32.4842L83.9789 32.601C84.9052 32.7616 85.7051 32.8094 87.0955 33.4133C87.4309 33.5607 87.9929 33.7801 88.2306 33.8243C90.8236 34.3139 93.0298 35.3724 95.253 36.4247L95.6539 36.7321L95.343 36.4417C96.734 36.4345 99.1727 37.2274 99.8589 37.9538C100.357 38.4732 100.957 38.8255 101.668 39.1163C102.381 39.4055 103.206 39.6359 104.153 39.9124C104.543 40.023 105.146 40.3267 105.648 40.5439L105.848 40.6578L105.727 40.5595C105.674 40.2817 106.442 40.4818 107.395 40.8188C108.925 41.3565 109.47 41.7254 108.978 41.8961C108.849 41.9407 108.169 41.7249 108.811 42.1509C109.907 42.4786 111.05 42.8255 112.179 43.1744C112.783 43.3561 113.515 43.6038 113.893 43.9304C114.63 44.5604 115.759 44.9614 116.34 45.0757C117.18 45.2441 117.908 45.5305 118.591 45.8756C119.272 46.2258 119.906 46.6409 120.559 47.0738L120.354 47.0206L120.599 47.1032C120.74 47.1512 120.879 47.2009 121.018 47.248C121.169 47.3018 121.242 47.3206 121.542 47.4503C122.038 47.6619 122.513 47.8706 122.915 48.0719C123.725 48.4731 124.253 48.8207 124.165 49.0319C124.017 48.9773 123.747 48.8625 123.748 48.8794C123.753 48.9273 123.868 49.0271 123.935 49.1057L124.354 49.353L124.052 49.1543C124.087 49.1128 124.132 49.0771 124.186 49.0463C124.821 49.4119 125.452 49.7657 126.092 50.1112L126.573 50.3688L126.588 50.3776C126.588 50.3776 126.583 50.3862 126.58 50.3913L126.559 50.4203L126.52 50.4775L126.441 50.5919L126.284 50.8208C126.081 51.1232 125.876 51.4274 125.672 51.7343C124.868 52.9499 124.117 54.164 123.365 55.462C123.11 55.8945 123.073 56.0075 122.963 56.2335C122.865 56.4371 122.767 56.6424 122.646 56.8625C121.156 59.5609 120.981 59.7685 120.385 59.5093C120.357 59.4982 120.117 59.8208 119.964 60.0021C119.352 61.0244 119.919 60.4605 119.94 60.6226C120.039 61.3785 119.812 61.8858 118.466 63.5959C117.984 64.2085 117.578 64.771 117.207 65.3513C116.841 65.9319 116.509 66.5292 116.164 67.2037C115.841 67.836 115.636 67.9014 115.552 67.813L115.607 67.6372L115.515 67.8553C115.055 68.6671 114.667 69.594 114.122 70.289C112.41 72.4842 111.303 74.8276 110.168 77.2102C110.061 77.4381 109.778 77.7612 109.584 78.0421C109.589 77.9176 109.896 77.342 109.561 77.7605L109.571 78.0617C106.897 82.3876 104.718 87.2337 102.375 92.5204C102.49 91.7314 102.603 90.9678 102.689 90.3807C102.771 89.7907 102.783 89.3632 102.63 89.2289C101.985 90.7146 101.675 91.6385 101.525 92.2418C101.38 92.848 101.429 93.1486 101.61 93.4357C101.686 93.5564 101.765 93.6259 101.766 93.8312C101.767 93.9338 101.747 94.0725 101.699 94.2681C101.656 94.4666 101.588 94.723 101.481 95.0624C101.02 96.5391 100.619 97.2841 100.183 97.7522C99.9663 97.9903 99.6484 98.4301 99.5065 99.0904C99.3967 99.5985 99.2452 100.128 99.0728 100.667C98.9841 100.935 98.9047 101.21 98.8225 101.486C98.7404 101.762 98.6566 102.037 98.5745 102.313C98.4095 102.863 98.2499 103.411 98.1203 103.941C97.9878 104.462 97.8994 105 97.8244 105.551C97.7477 106.1 97.5787 106.788 97.2183 107.554C96.8664 108.309 96.2797 109.162 95.467 109.786C95.3695 109.858 95.2747 109.929 95.1808 109.998C95.0821 110.06 94.9834 110.123 94.8873 110.184C94.696 110.309 94.4936 110.394 94.3003 110.491C94.2025 110.536 94.1072 110.584 94.0069 110.624L93.7046 110.73C93.5021 110.799 93.2997 110.868 93.0909 110.908C92.2572 111.107 91.3618 111.16 90.349 111.048C89.7045 110.981 89.208 110.826 88.795 110.676C88.5954 110.597 88.4207 110.513 88.2616 110.434C88.108 110.354 87.982 110.268 87.8723 110.19C87.4421 109.871 87.3508 109.601 87.5649 109.431L87.7593 109.476L87.5267 109.403C87.2771 109.284 87.0261 109.159 86.7861 109.027C86.6848 108.99 86.5894 108.959 86.4781 108.911C86.4651 108.906 86.3718 108.819 86.3163 108.769C86.4149 108.807 86.5134 108.845 86.613 108.881C86.2594 108.63 85.9662 108.42 85.7215 108.261C85.4826 108.107 85.3001 108.005 85.1567 107.947C84.8744 107.829 84.7843 107.896 84.9195 108.137C85.3338 108.863 84.6862 108.4 83.5512 107.582C82.3682 106.737 81.1084 105.923 79.7032 105.154L79.0278 104.779C78.9529 104.257 77.5957 103.563 76.5866 103.01C74.6605 101.981 75.9198 101.91 74.1227 101.009C73.5967 100.747 73.2158 100.639 72.775 100.482C72.3341 100.325 71.8389 100.111 71.0664 99.6563C69.7732 98.8895 68.4523 98.0637 67.1366 97.2886C65.8101 96.5324 64.4908 95.8234 63.2176 95.2725C62.3742 94.9023 62.0808 94.4855 61.7454 94.1267C61.4083 93.7669 61.0236 93.471 59.9866 93.3657C59.1346 92.9269 58.2876 92.4796 57.4317 92.0477C56.5729 91.6209 55.7158 91.1951 54.8587 90.7694C52.754 89.7118 50.7707 88.7436 48.6674 87.5482C47.7508 87.0317 46.7398 86.498 45.6696 85.9647C44.5981 85.4376 43.4702 84.9102 42.2855 84.4868C39.8753 83.6079 39.7636 83.4853 39.5922 82.7265C39.575 82.653 39.5803 82.5879 39.2975 82.4635C38.9354 82.3032 38.5151 82.1415 38.2191 82.0642C37.2922 81.817 34.9798 81.0891 34.3057 80.74C33.2651 80.1986 32.2024 79.8037 31.1499 79.3987C30.0926 79.0023 29.043 78.5921 27.9817 78.123C27.169 77.7588 26.0053 77.4338 26.1407 77.1357C26.19 77.0251 25.8815 76.8702 25.4855 76.7815C24.8696 76.6451 24.2306 76.4455 23.5691 76.2219C22.9074 76.0026 22.228 75.7505 21.543 75.4885C20.1728 74.9688 18.7807 74.3958 17.4375 74.0278C14.961 73.3294 15.7007 72.977 14.5885 72.3222C14.0313 72.4055 13.2406 72.3174 12.2582 72.0682C12.1973 72.0518 12.1337 72.0361 12.0711 72.0187C11.973 71.9879 11.8722 71.9579 11.7697 71.9269C11.5606 71.8603 11.348 71.7918 11.1266 71.7228C10.6867 71.5796 10.2239 71.4211 9.74662 71.2521C8.79034 70.9131 7.76162 70.5262 6.72309 70.1086L6.55721 70.0416L6.53642 70.0344C6.53642 70.0344 6.54326 70.0223 6.54619 70.0172L6.56962 69.976L6.62334 69.8974L6.82769 69.5817C6.96002 69.3728 7.09308 69.1666 7.22443 68.9594C7.48518 68.5485 7.73688 68.1415 7.9832 67.7361C8.47683 66.9234 8.95039 66.1061 9.43367 65.2239L9.6797 64.7751C9.7295 64.6875 9.73974 64.6615 9.76928 64.6056L9.84346 64.4591L10.141 63.8759C10.3413 63.4875 10.5417 63.099 10.743 62.7089C11.1482 61.9323 11.5707 61.161 11.9846 60.3849C12.4047 59.61 12.8384 58.8428 13.2939 58.0812C13.7485 57.3213 14.205 56.558 14.6994 55.8117C15.171 54.3002 16.3896 53.5836 16.9602 51.5828C17.1389 50.9775 17.5623 50.1408 18.0521 49.2351C18.5403 48.3284 19.1044 47.3558 19.5006 46.4514C19.9795 45.3735 20.49 44.284 20.9948 43.2004C21.4979 42.1159 22.0299 41.0523 22.5838 40.042C23.0409 39.1859 23.3604 38.3765 23.6601 37.5741C23.965 36.7746 24.2397 35.9762 24.6152 35.1441C26.5669 30.869 28.276 26.4106 29.9613 22.0659C30.3151 21.1284 30.6717 20.1901 31.0255 19.2525L31.2616 18.6298L31.3155 18.515L31.4234 18.2854L31.8391 17.3625C32.1207 16.7475 32.4152 16.1376 32.7592 15.5444C33.2738 14.671 33.8126 13.8067 34.256 12.895C34.3524 12.6975 34.4976 12.4141 34.7119 12.4836C35.2999 12.677 35.1149 12.265 35.1878 12.0609C35.267 11.8378 35.3221 11.6054 35.39 11.3781C35.4171 11.2867 35.4478 11.1928 35.5916 11.2109C35.7056 11.2256 35.8566 11.291 35.8454 11.3665C35.7883 11.7181 36.1882 11.784 36.3378 12.0032C36.7662 12.633 36.6554 13.2905 36.558 13.9125C36.4659 14.5011 36.3163 15.0752 36.1501 15.6467C35.9771 16.2143 35.7936 16.7804 35.644 17.3546C35.4321 18.166 35.1664 18.9604 34.8843 19.7479L33.8858 22.5373C33.4686 23.7139 33.0176 24.8781 32.5884 26.0479L32.2626 26.9241L31.9256 27.7962L31.2532 29.5414C30.8145 30.7081 30.343 31.8606 29.8879 33.0202C27.2747 39.6512 24.1965 46.1157 21.115 52.4783C20.7492 53.2295 20.3697 53.973 19.9944 54.721C19.6139 55.4662 19.2455 56.2182 18.8496 56.9546C18.0654 58.434 17.2898 59.9182 16.4721 61.3808L15.2602 63.5808C14.8479 64.3102 14.4383 65.0388 14.027 65.7664L13.4139 66.8612L13.3836 66.9144L13.3675 66.9507L13.3329 67.0197L13.2655 67.1541C13.1791 67.33 13.1047 67.4968 13.0428 67.6457C12.9876 67.7189 13.0846 67.7036 13.1262 67.7182L13.2676 67.7485C13.3557 67.769 13.4393 67.7893 13.5176 67.811L13.5472 67.8188L13.5611 67.8222L13.6313 67.8461L14.0577 67.993L14.9113 68.2895C15.4805 68.4881 16.0454 68.7023 16.6132 68.9114C17.7479 69.3313 18.8852 69.7504 20.0215 70.1713C21.1557 70.6 22.2908 71.0269 23.4233 71.4547C32.2795 74.7359 40.9491 78.7043 49.5433 82.6299C49.8914 82.7391 50.2195 82.8915 50.5215 83.1017C57.6777 86.6031 64.7261 90.5092 71.6147 94.254C76.9735 97.1657 81.7617 100.455 86.8166 103.583L88.0408 104.336L88.5963 104.674C88.7759 104.781 88.9531 104.884 89.127 104.98C89.4742 105.171 89.8161 105.347 90.1363 105.481C90.299 105.558 90.4492 105.604 90.6014 105.664C90.7447 105.706 90.891 105.76 91.0177 105.784C91.2765 105.847 91.4957 105.876 91.6279 105.863C91.7671 105.853 91.836 105.836 91.8937 105.814C91.9587 105.771 92.0044 105.759 92.0831 105.676C92.1617 105.594 92.2753 105.438 92.3968 105.2C92.5191 104.965 92.6437 104.654 92.7666 104.294C92.8905 103.933 93.0047 103.52 93.1383 103.062C93.4259 102.126 93.7134 101.189 94.0001 100.254L94.2165 99.5544L94.4554 98.8628C94.6173 98.4026 94.7782 97.944 94.9392 97.4854C95.1001 97.0269 95.2627 96.5693 95.4236 96.1107C95.588 95.6541 95.7739 95.2075 95.9458 94.7574C99.4755 85.6086 103.851 76.8221 108.935 68.7269C110.925 65.5717 112.92 62.4238 114.936 59.3035C115.951 57.7503 116.961 56.1952 117.985 54.6611L118.753 53.5089L118.946 53.221L119.024 53.1039L119.052 53.0673L119.161 52.9199C119.318 52.7114 119.475 52.5029 119.63 52.2935C119.633 52.2883 119.639 52.2824 119.639 52.278L119.628 52.2722L119.609 52.2588L119.566 52.2344L119.483 52.1779L119.301 52.0676L119.105 51.9566L119.056 51.9284L118.856 51.826L118.392 51.5923C117.155 50.9752 115.911 50.3727 114.661 49.7762C112.163 48.5858 109.648 47.4317 107.135 46.2803C103.805 44.7539 100.247 43.327 96.75 41.9484C90.7518 39.5757 84.7214 37.371 78.5682 35.251C73.2264 33.4058 67.8672 31.5394 62.5623 29.4698C57.2591 27.4012 52.0041 25.1281 46.917 22.464C44.6775 21.2888 42.4787 20.03 40.3316 18.6801L40.1378 18.5586L40.1055 18.5357L40.0399 18.4916L39.907 18.4025L39.644 18.2234L39.1237 17.8549C38.7759 17.6096 38.4289 17.3669 38.0763 17.1301C37.7246 16.8916 37.3769 16.6462 37.0166 16.4187C36.7232 16.2292 36.5839 15.8205 36.3258 15.7283C35.9894 15.5985 35.7869 15.3448 35.5163 15.1591C35.1597 14.9133 34.8234 14.6517 34.5165 14.3545C34.2114 14.0539 33.9282 13.7269 33.6649 13.3727C33.5268 13.1851 33.3564 13.0065 33.1762 12.8291C32.997 12.65 32.8051 12.4772 32.6171 12.3136C32.473 12.1885 32.354 12.0867 32.6712 11.8556C32.9857 11.6253 32.756 11.3197 32.6071 11.0873C32.5381 11.1209 32.4727 11.1723 32.4022 11.1846C32.2594 11.2125 32.1848 11.1246 32.1536 11.0001C32.1443 10.9607 32.1544 10.8869 32.1813 10.8635L32.1872 10.8691ZM36.0112 14.1608C36.0395 14.111 36.0681 14.0727 36.0766 14.0298C36.0824 14.0036 36.0586 13.9696 36.0461 13.9398C36.0237 13.9793 35.9944 14.0149 35.9842 14.0568C35.9783 14.083 35.9994 14.1177 36.0121 14.1591L36.0112 14.1608ZM34.1258 16.1621C34.1009 16.198 34.0638 16.2314 34.0502 16.2714C34.0404 16.3045 34.0593 16.347 34.0657 16.3916C34.0962 16.3498 34.1324 16.3181 34.1443 16.2772C34.1541 16.2441 34.1335 16.2005 34.1258 16.1621ZM33.4917 16.5881C33.6169 16.316 33.6952 16.1424 33.7955 15.9221C33.4613 16.0276 33.4669 16.2331 33.4917 16.5881ZM25.5863 38.1802C25.5004 38.3632 25.4449 38.5885 25.3754 38.7945C25.3058 39.0685 25.3549 39.0737 25.5003 38.77C25.5862 38.587 25.6589 38.3396 25.7103 38.1575C25.7872 37.8785 25.7259 37.8868 25.589 38.1795L25.5863 38.1802ZM30.3119 27.1427C29.9506 27.9897 29.6432 28.7059 29.3375 29.4232L29.217 29.6433L29.3251 29.4888C29.6903 28.8304 30.039 28.1491 30.3119 27.1427ZM33.0792 22.2221C33.052 22.2498 32.9837 22.4019 32.9464 22.5035C32.9215 22.5711 32.9189 22.6515 32.9053 22.7233C32.9532 22.655 32.9974 22.6211 33.0357 22.5338C33.1626 22.2467 33.1813 22.1142 33.0774 22.2211L33.0792 22.2221ZM33.4255 18.7619C33.4074 18.7698 33.3825 18.7738 33.3729 18.7866C33.3588 18.8036 33.3422 18.8328 33.3493 18.8482C33.3721 18.8998 33.4061 18.8918 33.429 18.8275C33.4353 18.8084 33.427 18.7832 33.4265 18.7602L33.4255 18.7619ZM24.7435 38.8376L24.9299 38.8208C25.1558 38.3196 25.3847 37.8133 25.6142 37.3097C25.836 36.8039 26.0499 36.2959 26.2512 35.7943C28.0471 31.2989 29.9455 26.8345 31.6193 22.2946C31.8178 21.7301 32.0075 21.197 32.1935 20.6664C32.284 20.3996 32.3761 20.1338 32.4685 19.8635C32.5139 19.7279 32.5592 19.5923 32.6055 19.455C32.6287 19.3864 32.6518 19.3177 32.675 19.249L32.7047 19.1569L32.7084 19.1385C32.8245 18.6113 32.794 17.9712 33.5764 17.8545C33.6082 17.643 33.3888 17.5865 33.3385 17.4556C33.2973 17.3527 33.3009 17.2388 33.2687 17.0363C33.1063 17.5054 32.9461 17.9667 32.7861 18.4235C32.7064 18.6555 32.625 18.8706 32.536 19.1109C32.2926 19.7863 32.0512 20.4582 31.8088 21.1319C31.5674 21.8038 31.3304 22.4759 31.0753 23.1401C29.0949 28.4784 26.9814 33.6842 24.7411 38.834L24.7435 38.8376ZM17.733 54.904L17.6492 55.1313L17.617 55.2835L17.7004 55.065L17.734 54.9023L17.733 54.904ZM18.7822 52.5638C18.7377 52.6499 18.6958 52.7874 18.6922 52.8377C18.6891 52.8791 18.7457 52.8272 18.7746 52.8163C18.8266 52.7049 18.9069 52.5597 18.9266 52.4891C19.0048 52.2199 18.9447 52.2539 18.7804 52.5628L18.7822 52.5638ZM21.6678 46.9604C21.4484 47.3903 21.2278 47.8103 21.0218 48.2365C20.809 48.6587 20.6102 49.0844 20.4394 49.5283C20.6835 49.0988 20.9218 48.6796 21.1346 48.2574C21.3423 47.8322 21.5262 47.4049 21.6668 46.9621L21.6678 46.9604ZM24.1095 41.9388C23.6461 42.6504 23.3902 43.2641 23.136 43.8469C22.9725 44.2222 23.0205 44.2495 23.2079 43.8719C23.4807 43.3201 23.7374 42.741 24.1095 41.9388ZM16.6969 56.097C17.201 54.963 17.7137 53.9293 18.2052 52.9768C18.4493 52.4996 18.6835 52.0395 18.8917 51.5896C19.0947 51.1368 19.2786 50.6936 19.4268 50.2573C19.8596 49.4919 20.2726 48.7175 20.6667 47.9324C21.053 47.145 21.4256 46.3499 21.7947 45.5529L22.3454 44.3567L22.8814 43.1545C23.2411 42.3543 23.6085 41.5563 23.9889 40.7634C23.585 41.5498 23.1821 42.3344 22.7877 43.124C22.3951 43.9145 22.0042 44.706 21.6115 45.4965C21.2223 46.289 20.8416 47.0863 20.473 47.8904C20.0957 48.6897 19.7261 49.4956 19.3745 50.3094C19.1669 50.7505 18.927 51.2006 18.6726 51.656C18.4149 52.1096 18.1468 52.5732 17.893 53.0516C17.3812 54.004 16.9377 55.0156 16.6942 56.0977L16.6969 56.097ZM13.1409 66.0537L13.0002 66.2533L13.0203 66.2897L13.1426 66.0546L13.1409 66.0537ZM14.3325 61.3535C13.9402 61.976 13.4365 62.5193 13.1683 63.3101C13.4004 63.0692 13.6052 62.7606 13.7959 62.4212C13.9831 62.0799 14.1568 61.7104 14.3325 61.3535ZM17.4422 58.107C17.3382 58.2661 17.2232 58.4166 17.1319 58.5852C17.0123 58.8036 16.9115 59.0327 16.8029 59.2597L17.1206 58.7765L17.4412 58.1087L17.4422 58.107ZM14.6086 60.158C14.7764 59.7511 15.0386 59.2819 15.288 58.7873C15.5315 58.287 15.7589 57.7594 15.8728 57.24C15.5746 57.8842 15.2854 58.4608 15.048 58.9463C14.8123 59.4328 14.6445 59.8398 14.6086 60.158ZM10.9803 66.2507L11.1107 66.1249C11.2201 65.9961 11.3129 65.8648 11.3954 65.7276C11.4775 65.5833 11.5529 65.4307 11.6153 65.273L11.8706 64.5248C12.201 63.8717 12.5867 63.209 12.9643 62.5486C13.3437 61.8892 13.6909 61.2184 13.9744 60.5681C14.2645 59.8943 14.307 59.6161 13.9491 59.9627C13.6779 60.2245 13.4013 60.6514 13.2548 61.1205C13.1756 61.3755 13.0583 61.6656 12.9268 61.9727C12.7902 62.2769 12.6359 62.5961 12.4881 62.9121C12.1906 63.543 11.9074 64.1571 11.8102 64.5951L11.5586 65.3408C11.418 65.5881 11.2743 65.8292 11.1317 66.0641L10.9793 66.2524L10.9803 66.2507ZM10.8853 69.9105C10.9416 69.7516 11.0075 69.5959 10.9682 69.4099C10.9305 69.2249 10.787 69.0069 10.4992 68.7479C10.3711 68.7819 10.1952 68.8001 10.1131 68.8489C10.0511 68.8864 9.94004 68.8983 9.7987 68.8998C9.78109 68.8988 9.7625 68.8997 9.74489 68.8987L9.71751 68.8991L9.7043 68.8984L9.70088 68.8964C9.69548 68.882 9.69009 68.8676 9.68469 68.8531C9.6739 68.8243 9.66409 68.7937 9.6533 68.7648C9.5481 68.4914 9.52784 68.2958 9.29362 68.5763C9.23598 68.6458 9.16443 68.7438 9.07702 68.8737C9.03551 68.9387 8.98741 69.0114 8.93345 69.0944C8.92174 69.115 8.90733 69.1364 8.89292 69.1577L8.8734 69.1921C8.8734 69.1921 8.86778 69.198 8.86851 69.2007L8.87708 69.2055L8.89616 69.2118C8.9446 69.2303 8.99573 69.248 9.04931 69.2693C9.47865 69.427 10.0844 69.6372 10.8833 69.914L10.8853 69.9105ZM60.701 91.108C60.7852 91.1354 60.9227 91.1885 60.9165 91.1714C60.8981 91.12 60.8264 91.0429 60.7728 90.9738L60.702 91.1063L60.701 91.108ZM60.0844 90.5462L60.74 90.9438C60.5496 90.8083 60.5196 90.6617 60.0844 90.5462ZM57.7529 89.1142L58.001 89.2279L57.8128 89.1005L57.7546 89.1152L57.7529 89.1142ZM55.4168 88.0092C55.5017 88.0552 55.6502 88.1009 55.6969 88.1025C55.7365 88.1045 55.6746 88.042 55.6579 88.0076C55.5444 87.9521 55.3944 87.8692 55.3267 87.8488C55.0512 87.7673 55.0909 87.833 55.4178 88.0074L55.4168 88.0092ZM53.1279 85.6491L53.8015 86.0228L54.4768 86.3976L54.6743 86.5325L54.5412 86.416C54.3615 86.2934 54.2022 86.171 53.9952 86.0488C53.7197 85.8877 53.3922 85.6743 53.1288 85.6473L53.1279 85.6491ZM49.8383 82.8407L49.9753 82.9504L50.1539 82.9951L49.8383 82.8407ZM39.2204 79.3695C39.5367 79.4789 39.7923 79.5196 40.0716 79.5943C39.8883 79.4583 39.7559 79.3603 39.6218 79.2613C39.3909 79.221 39.1179 79.159 38.9384 79.1479C38.7765 79.1377 38.9525 79.2787 39.2204 79.3695ZM33.5049 76.3279L33.7434 76.4544L33.7669 76.4131L33.5049 76.3279ZM31.1361 75.3361L31.3713 75.4607L31.3918 75.4246L31.1352 75.3378L31.1361 75.3361ZM27.1263 75.1026C28.1247 75.4951 29.0994 75.9332 30.1099 76.3961C31.1204 76.859 32.1778 77.3191 33.3613 77.7168C32.2803 77.1228 31.218 76.6713 30.179 76.2626C29.14 75.8539 28.1167 75.5132 27.1263 75.1026ZM25.9243 73.1785C25.8216 73.1837 25.9812 73.2699 26.3183 73.3865C26.4076 73.4168 26.4846 73.4287 26.5683 73.449L26.2553 73.2939C26.1401 73.2534 25.9561 73.1784 25.926 73.1794L25.9243 73.1785ZM22.915 73.4613C22.8952 73.4842 23.202 73.6381 23.3971 73.7535C23.7082 73.844 24.2305 74.0295 24.3335 74.0198C24.5848 73.9922 23.9994 73.7981 23.7333 73.6923C23.4213 73.5673 22.9802 73.3825 22.914 73.4631L22.915 73.4613ZM20.7346 71.297L21.0086 71.3732C21.1404 71.3686 21.7197 71.6569 21.6103 71.4947L20.9557 71.3386L20.7346 71.297ZM14.0032 70.8122C14.0721 70.7786 13.9478 70.6943 13.634 70.5887C13.4223 70.5184 13.212 70.4738 13.0021 70.4205C13.1335 70.5042 13.2376 70.6043 13.4027 70.6686C13.5713 70.7349 13.8026 70.7664 14.0049 70.8132L14.0032 70.8122ZM17.875 71.4559C17.3488 71.2455 16.906 71.1234 16.5318 71.072C15.7333 70.7386 15.04 70.3037 14.0132 70.0928C14.7122 70.5855 15.6006 70.8723 16.5651 71.0932C16.9565 71.1702 17.6834 71.5697 17.875 71.4559ZM26.5607 76.2812L26.3495 76.1703L26.3146 76.1959L26.5607 76.2812ZM31.9944 78.7582L31.7789 78.6948C31.6439 78.693 31.088 78.3952 31.1791 78.5539L31.8479 78.7408L31.9954 78.7564L31.9944 78.7582ZM36.0409 79.4853C34.5229 78.6793 32.614 78.1784 31.3663 77.4511C29.4951 76.3535 27.7304 75.8619 25.8856 75.2043C24.6096 74.5427 23.3059 74.0494 22.002 73.5925C20.6971 73.1372 19.3906 72.7128 18.0688 72.2752C19.2087 72.7617 20.3461 73.2604 21.5028 73.7292C22.6575 74.2014 23.8386 74.6272 25.0349 75.0503C25.286 75.2067 25.5463 75.3228 25.8222 75.3637C27.5195 76.2329 29.2308 76.926 30.9272 77.6016C32.6258 78.2692 34.3416 78.8467 36.0409 79.4853ZM41.0104 81.0006L41.3889 81.168L41.7615 81.3457L41.9642 81.4836L41.7799 81.3493C41.5442 81.1699 41.2824 81.0484 40.9901 80.9845C40.5196 80.7239 40.0535 80.4795 39.5881 80.2536C39.1215 80.0339 38.6584 79.832 38.198 79.6453C37.2781 79.2702 36.3725 78.9578 35.4774 78.6945L35.297 78.5693L35.4138 78.6788C36.0353 79.0684 36.6695 79.5675 37.5598 79.7713C38.0874 79.8916 38.7037 80.135 39.3129 80.379C39.9211 80.6247 40.5156 80.8785 41.0104 81.0006ZM40.0787 82.1734L39.8952 82.0896L39.9638 82.1763L40.0777 82.1751L40.0787 82.1734ZM44.9669 84.7131L44.7269 84.613L44.9312 84.736L44.9659 84.7148L44.9669 84.7131ZM46.8925 84.9734L46.6576 84.8922C46.5239 84.8843 45.9757 84.5569 46.0708 84.7245L46.7154 84.9341L46.8925 84.9734ZM49.1929 85.4513C49.0866 85.0363 47.3933 84.4671 46.3224 83.9948C45.161 83.4824 43.8413 82.9256 44.0843 82.5977L44.2352 82.6153L44.0231 82.5539C42.8767 82.5136 40.2868 81.1734 38.8138 80.8863C40.1405 81.4108 41.4079 82.0357 42.6753 82.6446C43.9429 83.2492 45.1888 83.8801 46.472 84.4253C47.4868 84.8566 49.3037 85.8824 49.1912 85.4503L49.1929 85.4513ZM50.5702 85.6954C49.6424 84.7522 47.9686 84.1645 46.4383 83.4879C47.6156 84.2752 49.3542 84.8884 50.5702 85.6954ZM51.586 86.8069C51.6009 86.7926 51.4849 86.7017 51.3917 86.6464C51.3094 86.5997 51.1771 86.5495 51.0667 86.5004C51.0739 86.5317 51.0367 86.5492 51.0952 86.5939C51.3319 86.7715 51.532 86.858 51.5853 86.8042L51.586 86.8069ZM52.9261 86.5344C52.8568 86.5087 52.7509 86.4598 52.7252 86.4611C52.6298 86.4615 52.5602 86.4764 52.4809 86.4882L52.309 86.4519L52.5284 86.5243L52.9251 86.5361L52.9261 86.5344ZM61.8996 92.3643L61.2213 91.9469C60.8915 91.5981 60.6151 91.2751 60.6834 91.1071C60.1067 90.8339 59.5301 90.5606 58.9421 90.2833C58.3503 90.0128 57.7455 89.7373 57.1174 89.4508C56.4894 89.1643 55.8371 88.8685 55.1486 88.5568C54.4611 88.2433 53.7401 87.913 52.9619 87.5798C53.7674 88.0126 54.5186 88.4373 55.2377 88.8347C55.9568 89.232 56.6464 89.6058 57.3165 89.9617C58.661 90.6622 59.9111 91.3295 61.203 91.9433C61.4274 92.0868 61.4662 92.2497 61.9004 92.367L61.8996 92.3643ZM73.7786 97.2408L74.0086 97.3625L73.815 97.2206L73.7786 97.2408ZM70.9701 96.3969C71.1759 96.4934 71.4546 96.6449 71.5722 96.6732C71.7508 96.7178 71.6093 96.592 71.3199 96.4434C71.1026 96.3312 70.8557 96.2114 70.6935 96.1578C70.5201 96.1002 70.6542 96.215 70.9701 96.3969ZM64.5987 92.8506C66.0056 93.8479 67.3137 94.3573 68.6777 94.9439C67.6584 94.4168 66.7792 93.8785 65.885 93.3066C65.1665 92.8483 64.8153 92.8123 64.5987 92.8506ZM74.9906 99.1275L74.7677 99.0371C71.282 96.9287 67.7974 95.205 63.8602 93.1491C64.9129 94.0042 66.0911 94.7102 67.2676 95.3675C67.8583 95.6919 68.4418 96.0167 69.0068 96.3424C69.5728 96.6664 70.1229 96.9904 70.6387 97.3268C72.7117 98.6595 74.195 99.2912 74.8157 99.0803L74.9889 99.1265L74.9906 99.1275ZM90.1992 38.4865L89.9719 38.3801L89.9377 38.4084L90.1992 38.4865ZM91.6792 37.7845C91.0284 37.5419 90.4163 37.2394 89.798 37.1312C90.436 37.4279 91.0736 37.6539 91.6792 37.7845ZM97.6382 41.1873L97.5738 41.1052L97.4258 41.0984L97.6391 41.1855L97.6382 41.1873ZM102.093 41.9896C101.921 41.901 101.755 41.7978 101.574 41.7264C101.349 41.6352 101.111 41.5635 100.835 41.4678C101.041 41.5714 101.209 41.6668 101.388 41.7389C101.619 41.8313 101.857 41.9057 102.093 41.9896ZM103.125 43.5396L102.934 43.4519L102.978 43.5267L103.125 43.5396ZM108.525 44.377C108.576 44.3195 108.423 44.2284 108.12 44.133C107.985 44.1703 107.764 44.1808 107.714 44.2685C107.688 44.3148 108.069 44.4886 108.223 44.4895C108.394 44.4913 108.472 44.4379 108.525 44.3797L108.525 44.377ZM112.21 47.5854C110.779 46.8697 109.948 46.4701 109.061 46.1886C109.926 46.6803 110.765 46.9822 112.21 47.5854ZM116.192 48.7141L116.002 48.5973L115.948 48.6121L116.191 48.7159L116.192 48.7141ZM118.118 48.7614L117.902 48.6909C116.58 48.1666 115.258 47.6494 113.12 46.8413C115.52 47.9549 116.908 48.5534 117.964 48.7374L118.116 48.7604L118.118 48.7614ZM119.873 51.7428L119.634 51.58L119.385 51.5131C119.466 51.5686 119.536 51.6289 119.622 51.6704C119.691 51.7033 119.785 51.7179 119.873 51.7428ZM120.347 52.8508L120.443 52.7488L120.414 52.7278L120.345 52.8498L120.347 52.8508ZM115.696 60.2716C115.849 60.1134 115.973 59.9084 116.047 59.7054C116.016 59.7082 116.005 59.6678 115.953 59.7199C115.797 59.8745 115.662 60.0957 115.607 60.2803C115.591 60.3325 115.645 60.3247 115.697 60.2699L115.696 60.2716ZM115.485 61.4289L115.578 61.3727L115.591 61.2619L115.484 61.4306L115.485 61.4289ZM114.193 64.4993C114.28 64.5259 114.496 64.2807 114.71 63.9682C114.986 63.4953 115.098 63.2049 115.059 63.1144C115.011 63.0031 114.759 63.319 114.509 63.7198C114.264 64.1148 114.092 64.4693 114.193 64.4993ZM111.454 66.97L111.524 66.9506L111.556 66.8143L111.452 66.969L111.454 66.97ZM111.18 68.2893L111.304 68.0596L111.161 68.2539L111.18 68.2893ZM108.364 71.7394L108.507 71.532L108.478 71.511L108.364 71.7394ZM107.017 73.8103L107.138 73.5672L106.996 73.773L107.016 73.8094L107.017 73.8103ZM107.917 74.8105C108.01 74.6243 108.032 74.469 108.085 74.301C107.997 74.4123 107.871 74.5366 107.789 74.6854C107.672 74.8915 107.505 75.2445 107.504 75.3099C107.505 75.5169 107.718 75.2132 107.917 74.8105ZM106.505 77.4308L106.621 77.1874L106.485 77.3943L106.505 77.4308ZM102.584 82.0773C102.633 82.0118 102.682 81.9604 102.73 81.8806C102.79 81.7741 102.877 81.6168 102.906 81.5352C102.986 81.3015 102.915 81.3835 102.731 81.7427C102.677 81.8504 102.633 81.9667 102.586 82.0783L102.584 82.0773ZM103.558 83.704L103.628 83.4892L103.655 83.3341L103.579 83.5565L103.557 83.7057L103.558 83.704ZM101.453 84.4849L101.551 84.2424L101.424 84.4657L101.454 84.4832L101.453 84.4849ZM101.628 86.8411C101.677 86.7305 101.712 86.6138 101.753 86.501C101.709 86.5668 101.664 86.6184 101.621 86.6983C101.565 86.8051 101.489 86.9665 101.465 87.0484C101.396 87.2845 101.463 87.2039 101.626 86.8401L101.628 86.8411ZM98.4773 90.7778L98.5724 90.5228L98.4626 90.724L98.479 90.7788L98.4773 90.7778ZM95.2544 103.422L95.3435 103.213L95.3207 103.162L95.2544 103.422ZM93.1757 106.804L93.2529 106.796L93.2646 106.711C93.2363 106.745 93.2072 106.777 93.1757 106.804ZM88.5945 107.384C88.926 107.523 89.3081 107.688 89.5679 107.733C89.8125 107.781 89.6448 107.65 89.3924 107.583C89.2422 107.537 89.1079 107.506 88.9788 107.478C88.8489 107.447 88.7261 107.416 88.5928 107.384L88.5945 107.384ZM81.6407 102.778L82.6628 103.447C82.9854 103.653 83.1035 103.673 83.0641 103.618C82.77 103.279 82.415 103.086 82.0842 102.934C81.9102 102.854 81.7862 102.829 81.6397 102.779L81.6407 102.778ZM78.9925 101.161C78.8754 101.172 79.0009 101.282 79.295 101.426C79.3853 101.471 79.4377 101.466 79.5074 101.483C79.4356 101.422 79.3688 101.352 79.291 101.306C79.1919 101.245 79.0192 101.158 78.9925 101.161ZM80.8699 104.269C80.5301 103.862 79.7406 103.493 79.1243 103.218L78.978 103.18L79.1815 103.269C79.8159 103.731 79.8948 103.919 79.7218 103.985C79.6559 103.961 79.5309 103.906 79.5336 103.921C79.54 103.966 79.6013 104.041 79.6402 104.104L79.8986 104.451L79.7677 104.163C79.6631 104.056 79.6851 104.025 79.8316 104.075C80.2179 104.164 81.1816 104.642 80.8734 104.271L80.8699 104.269ZM84.9538 106.793C84.8613 106.724 84.7715 106.655 84.6807 106.587C84.5779 106.529 84.4125 106.421 84.3826 106.418C84.2826 106.407 84.4197 106.516 84.7245 106.69C84.805 106.735 84.878 106.759 84.9538 106.793ZM90.151 109.949C90.0156 109.84 89.8655 109.809 89.7765 109.87C89.7535 109.887 89.8218 109.93 89.8502 109.96C89.9454 109.98 90.1056 110.021 90.1227 110.015C90.1674 110.004 90.1916 109.981 90.152 109.947L90.151 109.949ZM98.5307 99.5632L98.4921 99.8026C98.4206 100.128 98.3075 100.534 98.2894 100.753C98.2771 100.915 98.4646 100.585 98.5003 100.382C98.5497 100.108 98.5084 99.9732 98.5058 99.7785L98.5298 99.5649L98.5307 99.5632ZM104.21 85.2767C104.186 85.2949 104.112 85.4485 104.059 85.5429C104.039 85.6251 103.989 85.7692 104.004 85.778C104.064 85.8121 104.158 85.6472 104.238 85.3674C104.258 85.2968 104.241 85.2508 104.208 85.2757L104.21 85.2767ZM109.56 76.5144C109.362 76.9454 109.156 77.3716 108.966 77.8065L108.936 77.9579L109.02 77.7394C109.069 77.6244 109.143 77.4911 109.173 77.406C109.266 77.1385 109.691 76.5867 109.56 76.5144ZM114.923 68.019C114.741 67.9812 114.427 68.4849 114.132 68.9675C113.962 69.2478 113.581 69.8585 113.894 69.559C114.132 69.3309 114.141 69.7771 114.686 68.723C114.837 68.4337 114.855 68.2145 114.922 68.0207L114.923 68.019ZM114.22 67.3059L113.943 67.9282L113.888 68.1102L113.985 67.8835C114.02 67.7306 114.407 67.2281 114.223 67.3052L114.22 67.3059ZM123.016 55.0405L122.789 55.348L122.8 55.3955L123.016 55.0405ZM120.522 47.7369L120.719 47.8691C120.771 47.8692 120.865 47.8882 120.867 47.8645C120.878 47.7819 120.747 47.7008 120.566 47.6755C120.508 47.6671 120.537 47.7155 120.522 47.7369ZM102.889 40.2057L103.139 40.2974L102.941 40.1899L102.889 40.2057ZM98.4357 39.3495C99.1268 39.8878 100.656 40.3592 100.965 40.7441C100.807 40.7314 100.253 40.5257 100.641 40.7758L101.043 40.7906C103.099 41.7545 105.145 42.3607 107.18 43.1945C109.02 43.9474 110.129 44.3367 110.141 44.8909C110.146 45.0893 111.071 45.5699 111.476 45.4477C111.588 45.4155 111.667 45.2922 111.999 45.4811C114.208 46.7299 116.595 47.3591 118.754 48.5999C119.04 48.7828 119.34 48.9559 119.647 49.1257C119.957 49.2975 120.248 49.4471 120.626 49.6321C121.343 49.9781 122.064 50.2951 122.773 50.5796C123.156 50.734 123.429 50.8888 123.63 51.0328C123.682 51.0691 123.728 51.1042 123.773 51.141C123.794 51.1466 123.773 51.1641 123.76 51.1793L123.719 51.224L123.638 51.3144C123.531 51.4309 123.426 51.5439 123.321 51.6597C123.116 51.886 122.927 52.1061 122.768 52.3542C122.607 52.6059 122.481 52.884 122.367 53.2717C122.313 53.4572 122.115 53.722 121.922 53.9259C121.727 54.1307 121.537 54.2685 121.465 54.2523C121.346 54.2231 121.533 53.7703 121.621 53.4548C121.715 53.1307 121.704 52.9542 121.308 53.2882C121.219 53.4445 121.116 53.6107 121.009 53.782C120.897 53.9548 120.784 54.1338 120.669 54.3135C120.412 54.7131 120.151 55.1125 119.931 55.4831C119.492 56.2199 119.212 56.8332 119.422 57.0617C119.655 56.7422 119.91 56.3664 120.12 56.12C120.319 55.8898 120.633 55.593 120.615 55.6832C120.539 56.0648 120.187 56.4692 119.903 56.7737C119.695 56.9963 119.515 57.1444 119.324 57.3246C119.214 57.4957 119.104 57.6651 118.993 57.8362C118.95 57.9348 118.914 58.0275 118.859 58.1352C118.844 58.1627 118.719 58.2942 118.722 58.2802C118.735 58.2189 118.775 58.1193 118.806 58.0325C117.667 59.4828 118.192 59.7427 117.099 61.2671C114.986 64.2116 113.107 67.8847 110.942 70.5179C110.636 70.8964 110.242 71.6744 110.005 72.2423L110.557 71.5149C110.396 72.0168 110.139 72.2369 109.913 72.5443C107.908 76.2622 105.788 79.9572 103.963 83.7772C103.85 84.0198 103.77 84.2695 103.675 84.5157C103.301 84.9348 102.925 85.3168 102.431 86.3611C101.138 89.267 101.151 89.2721 100.518 89.3966C100.169 90.314 100.252 90.6863 99.9072 91.6791C99.7116 92.2385 99.5178 92.7988 99.3213 93.3599C99.1404 93.9253 98.9534 94.4895 98.7638 95.0545C98.5707 95.6175 98.3759 96.1795 98.1828 96.7425C98.0009 97.3097 97.8164 97.8775 97.6336 98.4464C97.4456 99.0123 97.2567 99.58 97.0678 100.148C96.8805 100.716 96.7175 101.294 96.5355 101.866C96.3551 102.438 96.1747 103.011 95.9934 103.585C95.8076 104.159 95.6464 104.738 95.4349 105.297C95.2213 105.88 94.9401 106.407 94.6532 106.748C94.3645 107.089 94.0937 107.246 93.9398 107.186C93.8664 107.156 93.7713 107.184 93.6193 107.268C93.5819 107.289 93.5425 107.315 93.501 107.348C93.457 107.378 93.4076 107.409 93.3578 107.449C93.3087 107.491 93.2493 107.528 93.1867 107.574C93.1555 107.597 93.1239 107.625 93.0883 107.648C93.0526 107.671 93.0142 107.694 92.9749 107.72C92.8713 107.79 92.7777 107.855 92.6899 107.894C92.6054 107.939 92.5386 107.981 92.4942 108.019C92.4018 108.078 92.4053 108.144 92.5824 108.199C92.9036 108.268 92.6959 108.481 92.2018 108.621C92.0796 108.645 91.9422 108.671 91.7955 108.69C91.6487 108.693 91.4944 108.705 91.3404 108.697C91.1858 108.682 91.0308 108.676 90.882 108.651C90.7353 108.622 90.5934 108.6 90.4645 108.568C89.898 108.432 89.5219 108.205 89.2353 108.003C89.0939 107.893 88.9752 107.787 88.8677 107.685C88.7622 107.58 88.6682 107.474 88.5729 107.375C87.9529 107.054 87.1943 106.327 86.8087 106.372C86.0678 106.455 84.7505 105.547 83.3859 104.583C82.2107 103.74 80.9975 102.996 79.7811 102.262C78.5637 101.529 77.3349 100.812 76.0801 100.101C76.256 100.649 76.9371 101.129 78.5026 102.051C80.1548 103.019 81.8307 103.958 83.459 104.993C84.276 105.505 85.0917 106.028 85.9002 106.567C86.708 107.103 87.5073 107.683 88.3776 108.173C88.7714 108.401 89.1961 108.611 89.6548 108.78C90.1096 108.957 90.6032 109.085 91.1195 109.138C91.6341 109.189 92.1824 109.174 92.7026 109.008C92.8341 108.976 92.9575 108.914 93.0837 108.868C93.2132 108.823 93.3291 108.755 93.4459 108.685C93.5635 108.618 93.6817 108.553 93.7871 108.468L93.9491 108.346L94.0986 108.21C94.2291 108.101 94.3267 107.977 94.4289 107.869C94.5182 107.751 94.613 107.648 94.6826 107.538C94.7573 107.43 94.8281 107.33 94.8857 107.228C94.9468 107.129 95.0041 107.032 95.0534 106.937C95.2575 106.562 95.407 106.231 95.5681 105.868C95.8945 105.142 96.2019 104.247 96.8993 102.545C97.133 101.967 97.3293 101.183 97.3703 100.656C97.4392 99.9246 97.784 98.5046 98.0075 98.2112C98.2373 97.9145 98.4213 97.5827 98.5758 97.2273C98.7302 96.8718 98.8802 96.5003 99.0045 96.1141C99.26 95.3456 99.4665 94.5357 99.7519 93.8024C100.068 93.0158 100.385 92.2417 100.676 91.4592C100.822 91.067 100.968 90.6776 101.113 90.2872C101.258 89.8967 101.421 89.5143 101.575 89.1271C101.887 88.3545 102.204 87.5821 102.538 86.8107C102.887 86.0453 103.267 85.2859 103.672 84.5297C104.345 83.5194 104.948 82.2163 105.565 81.0148C106.031 80.091 106.538 79.1906 107.037 78.3012C107.289 77.858 107.54 77.4165 107.797 76.9851C108.059 76.5548 108.328 76.1345 108.599 75.7206C108.635 75.6296 108.664 75.5419 108.713 75.4445C108.731 75.4091 108.823 75.2981 108.824 75.3123C108.827 75.3522 108.799 75.4366 108.781 75.5037C109.312 74.5692 109.8 73.628 110.323 72.7001C110.842 71.7703 111.353 70.8267 111.948 69.8964C115.035 64.9827 118.253 60.1226 121.518 55.296C121.788 54.8882 122.065 54.4684 122.344 54.0452C122.643 53.5876 122.942 53.1283 123.238 52.6759C123.535 52.2244 123.83 51.7808 124.126 51.3487C124.201 51.2411 124.275 51.1336 124.349 51.0278L124.376 50.9885C124.385 50.9801 124.377 50.978 124.371 50.9741L124.35 50.9624L124.27 50.9193C124.217 50.8891 124.166 50.8599 124.113 50.8324C123.905 50.7164 123.705 50.6025 123.512 50.4907C123.026 50.2028 122.727 49.9988 122.406 49.8212C122.087 49.6445 121.735 49.4944 121.185 49.3384C120.572 49.1491 119.646 48.8595 118.862 48.6162C118.78 48.4262 118.587 48.1959 117.851 47.8277C115.804 46.8121 113.879 45.7134 111.62 44.8751C110.468 44.4472 109.057 43.8953 108.283 43.2439L108.45 43.2685L108.222 43.2C107.238 42.8455 106.293 42.554 105.417 41.9627C104.955 41.646 103.676 41.0143 103.383 40.9911C102.1 40.8686 100.24 39.9865 98.4396 39.3427L98.4357 39.3495ZM96.9572 39.6502C97.0153 39.7673 96.7542 39.8121 97.5659 40.1143C97.7961 40.1997 98.1476 40.3109 98.2379 40.3076C98.5756 40.2995 97.891 39.9968 97.6255 39.83C97.2288 39.575 97.075 39.6103 96.9572 39.6502ZM96.0997 37.6423C96.0674 37.6671 96.2427 37.7735 96.3227 37.844C96.6321 37.9017 96.9626 37.9781 97.2385 38.019C97.4574 38.0525 97.3323 37.9656 96.9641 37.8199C96.5176 37.6525 96.1835 37.5785 96.098 37.6413L96.0997 37.6423ZM92.4748 39.3072C93.5885 39.772 94.5818 40.1933 96.0181 40.5688C94.5098 39.9092 93.5526 39.6357 92.4748 39.3072ZM87.6578 35.0874C88.2261 35.5946 89.6886 36.1076 89.408 36.2663C89.2667 36.3474 89.7886 36.6372 90.2775 36.6901C91.5124 36.826 93.5885 37.6946 95.5075 37.9307C92.5555 36.9802 90.2996 36.2526 87.6561 35.0865L87.6578 35.0874ZM86.5858 37.5237C86.6954 37.5701 86.8067 37.6175 86.918 37.6648C87.0083 37.6775 87.166 37.7149 87.1765 37.7004C87.2224 37.6356 87.0431 37.5564 86.7308 37.5039C86.6503 37.49 86.633 37.5165 86.5858 37.5237ZM85.3874 34.6084L85.4738 34.6916L85.6015 34.6824L85.3874 34.6084ZM84.3126 35.2794C84.3794 35.3174 84.455 35.3717 84.5149 35.3899C84.6253 35.423 84.7786 35.4602 84.8222 35.4554C84.9635 35.438 84.8306 35.3648 84.5024 35.2805C84.417 35.2592 84.3745 35.2782 84.3126 35.2794ZM82.4227 34.0553L82.6781 34.1322L82.475 34.035L82.4227 34.0553ZM78.854 34.4929C77.6075 33.9549 76.9326 33.8305 76.3317 33.9548C78.5733 34.7198 80.6485 35.4265 82.7237 36.1332C82.9672 36.283 83.2465 36.3736 83.5493 36.423L83.7369 36.4318L83.505 36.3932L83.1244 36.2655L82.744 36.1334C81.4468 35.5848 80.1221 35.0409 78.8523 34.492L78.854 34.4929ZM78.4512 33.2639C78.4962 33.2645 78.4587 33.2069 78.4027 33.1818C78.3139 33.1427 78.1735 33.1106 78.0553 33.0753C77.9986 33.0794 77.8624 33.0679 77.8947 33.0908C78.0417 33.1949 78.2648 33.2649 78.4512 33.2639ZM74.8005 31.0231C76.398 31.697 78.4219 32.1632 78.5944 32.7567C79.7892 32.8675 78.715 32.2775 78.7913 32.0913C80.5451 32.4585 79.8426 32.7775 81.1046 33.1447C81.6358 32.908 80.1941 32.3545 78.9268 31.8888C77.0018 31.181 75.8254 31.026 74.7995 31.0248L74.8005 31.0231ZM74.9814 30.0986C75.4631 30.2519 75.5521 30.1911 75.7594 30.1931C75.9536 30.1943 75.8919 30.0956 75.6864 30.0425C75.3643 29.9594 75.0933 29.9417 74.8568 29.9232C74.6396 29.9066 74.7157 29.984 74.9814 30.0986ZM72.1031 30.0832C72.1499 30.1484 72.2349 30.2422 72.4051 30.3253C72.8544 30.5397 73.0113 30.4948 73.1446 30.4797C73.326 30.4555 73.1794 30.3426 72.7525 30.1727C72.3398 30.0336 71.9981 29.9371 72.1021 30.0849L72.1031 30.0832ZM69.6522 30.9744C69.7283 31.0199 69.7881 31.0743 69.8703 31.1051C70.2328 31.2407 70.3118 31.2334 70.0681 31.088C70.003 31.051 69.8733 31.0001 69.7733 30.9568C69.7305 30.9643 69.686 30.9709 69.6513 30.9761L69.6522 30.9744ZM63.4466 25.7768C63.6159 25.8776 63.7608 25.9895 63.9602 26.0733C64.246 26.1925 64.391 26.1885 64.2361 26.0664C64.1311 25.984 63.9453 25.8602 63.7511 25.7794C63.467 25.6611 63.3482 25.6708 63.4483 25.7778L63.4466 25.7768ZM63.0987 26.5723C63.4087 26.9121 64.2712 27.1887 65.0071 27.4251C65.5504 27.5975 65.7638 27.5529 65.9609 27.5172C67.5863 28.1342 67.6039 28.3624 67.3373 28.5404L67.1443 28.5171L67.3818 28.5657C68.2738 28.6909 69.166 28.8116 70.1155 28.9353C69.3195 28.4897 68.5978 28.2045 67.9119 27.992C67.2257 27.7838 66.5746 27.6455 65.9242 27.4941C65.5558 27.3847 65.1854 27.2947 64.8209 27.1625C64.2592 26.9546 64.0202 26.6256 63.261 26.4781C63.1098 26.4491 63.0387 26.5064 63.1004 26.5733L63.0987 26.5723ZM67.1564 30.0309L67.2064 30.1024L67.3423 30.1025L67.1564 30.0309ZM62.1519 27.341L62.3625 27.3812C62.8763 27.5777 63.3907 27.7769 63.9045 27.9735C63.9591 28.0409 64.0032 28.1069 64.0769 28.1806C64.0962 28.1984 64.2843 28.278 64.2843 28.278C64.4863 28.2655 64.1387 28.0998 63.9563 27.978C63.4535 27.6467 62.893 27.4645 62.3062 27.3446L62.1529 27.3393L62.1519 27.341ZM60.695 27.9267C63.3189 29.4225 65.8309 30.1821 68.2816 30.9818C68.48 31.0832 68.6606 31.1881 68.8849 31.2838C69.181 31.4088 69.5534 31.591 69.7844 31.5632C69.5478 31.4651 69.3147 31.3689 69.0747 31.2689C68.8308 31.1757 68.579 31.0804 68.3317 30.9853C66.1589 29.8003 63.5568 29.1714 60.695 27.9267ZM59.9581 25.4873C60.0748 25.5332 60.1949 25.5651 60.3043 25.5999C60.2404 25.5568 60.189 25.5117 60.1021 25.4691C59.992 25.4157 59.8117 25.3382 59.7359 25.3201C59.4898 25.2666 59.5796 25.3358 59.9581 25.4873ZM57.1168 26.268L57.9384 26.844C57.9702 26.9076 57.9519 26.9517 57.8827 26.9738L57.704 26.9494L57.964 27.0222C58.0366 27.0339 58.1734 27.0685 58.1682 27.0496C58.1549 27.0012 58.0742 26.928 58.021 26.866C57.701 26.6636 58.1475 26.6196 57.1168 26.268ZM57.1373 24.3022L57.3922 24.388L57.1553 24.2625L57.1338 24.3003L57.1373 24.3022ZM56.5375 25.3136L56.6547 25.4144C56.9716 25.5786 57.2816 25.7548 57.6104 25.8939C57.8849 26.009 58.0057 25.964 57.7879 25.8607C57.4747 25.71 57.0848 25.5747 56.7288 25.4315L56.5375 25.3136ZM56.8804 23.7176L56.9533 23.8045L57.0727 23.8018L56.8804 23.7176ZM39.2557 16.1754C38.9438 16.3254 38.7598 16.4776 38.5251 16.4919C38.393 16.501 38.2836 16.6297 38.3412 16.7716C38.3932 16.9034 38.5299 16.9061 38.6543 16.8268C38.8718 16.6913 39.0962 16.5597 39.2567 16.1736L39.2557 16.1754ZM39.4411 15.9489L39.4239 15.9073L39.3978 15.9334L39.4411 15.9489ZM39.4502 16.9655C39.4435 16.8776 39.3379 16.9198 39.2869 16.9817C39.2209 17.0579 39.1476 17.139 39.1866 17.2498C39.2302 17.245 39.2957 17.2572 39.3121 17.2324C39.3714 17.148 39.4574 17.0446 39.4512 16.9638L39.4502 16.9655ZM39.9567 17.2625C39.9095 17.222 39.8726 17.2351 39.8457 17.3062C39.8218 17.3722 39.796 17.4416 39.7711 17.5093C39.8141 17.4974 39.8697 17.4994 39.8978 17.4699C39.952 17.4143 39.9886 17.3419 39.9567 17.2625ZM41.1507 16.4456L41.1257 16.4018L41.1033 16.4413L41.1507 16.4456ZM40.7063 17.3431C40.6995 17.3232 40.6982 17.2975 40.6857 17.2836C40.6725 17.267 40.65 17.2588 40.629 17.2559C40.6211 17.2537 40.6065 17.2795 40.5953 17.2913L40.7036 17.3438L40.7063 17.3431ZM45.0515 20.6786L44.8232 20.5898L44.0787 20.269L44.8756 20.6332L45.0515 20.6786ZM44.3141 19.8709L44.3693 19.8614L44.1271 19.7373L44.3158 19.8718L44.3141 19.8709ZM48.2646 22.0867C48.2887 22.0004 48.0674 21.8155 47.6785 21.7104C47.4801 21.6567 47.4812 21.7664 47.4942 21.8511C47.4996 21.8815 47.7984 22.0535 48.039 22.2084C48.1233 22.1677 48.2451 22.1529 48.2646 22.0867ZM54.7 25.5602L54.9612 25.6587L54.7557 25.5419L54.7 25.5602ZM54.547 23.0664C54.6035 23.1144 54.6368 23.1674 54.7193 23.2097C55.0104 23.3593 55.2086 23.4174 55.2296 23.3566C55.2359 23.3375 55.1517 23.2623 55.0692 23.22C54.7808 23.0697 54.598 23.0204 54.547 23.0664ZM52.4432 22.1706L52.6404 22.2941L52.6952 22.2775L52.4432 22.1706ZM51.7902 23.2837C51.7902 23.2837 51.9275 23.3731 52.1093 23.4718C52.2911 23.5706 52.5108 23.6864 52.66 23.7508C52.9876 23.8961 53.3076 23.9711 53.6295 24.0745L54.5789 24.1505L54.7328 24.1629L54.5278 24.1169L53.74 23.7645L53.5691 23.6425L53.6808 23.7491L53.5595 24.0302C53.32 23.9213 53.0744 23.8113 52.84 23.7053C52.4708 23.5455 51.9613 23.1741 51.7912 23.2819L51.7902 23.2837ZM50.7087 23.6713L50.9597 23.748L51.1684 23.7916L50.9291 23.7261L50.7087 23.6713ZM41.455 15.3002L41.4765 15.3421L41.5012 15.3106L41.455 15.3002ZM41.3141 15.568L41.2865 15.6045L41.3355 15.6142L41.3141 15.568ZM40.2878 15.5437C40.2692 15.6241 40.3131 15.7104 40.3933 15.6969C40.8764 15.6124 41.1087 16.0012 41.2701 16.2953C41.2991 16.3481 41.3282 16.3964 41.3595 16.437C41.3752 16.4573 41.3909 16.4775 41.4085 16.4944C41.4154 16.4983 41.4134 16.5017 41.4227 16.5093L41.5079 16.5667C41.5659 16.6043 41.6212 16.6425 41.6775 16.679C42.1294 16.9723 42.5521 17.2375 42.978 17.4569C43.4011 17.6814 43.8114 17.8805 44.2241 18.0674C44.6352 18.2533 45.0555 18.4149 45.4816 18.5821C45.7593 18.6877 46.2921 19.07 46.4528 19.0704C46.5024 19.0987 46.5418 19.121 46.5925 19.1476C47.2606 19.6864 48.4025 20.4763 46.3694 19.5799L46.1866 19.4351L46.3251 19.5661C46.2253 19.7298 45.7683 19.6087 44.8978 19.1708C44.695 19.0691 43.6633 18.4441 44.4287 19.0791C45.2021 19.7438 47.8964 21.0637 47.6978 20.7554C47.3843 20.2703 47.8756 20.3587 48.5907 20.5719C48.9486 20.6799 49.362 20.8217 49.7561 20.9457C50.1521 21.0662 50.5335 21.1648 50.8213 21.1966C50.3489 20.9871 49.8916 20.7909 49.2406 20.4731C48.9164 20.3138 48.5406 20.1298 48.0874 19.9063C47.6411 19.6709 47.1185 19.3943 46.4911 19.0627C46.4997 19.0516 46.5048 19.0386 46.4974 19.0117C46.4263 18.794 45.8642 18.4314 45.1603 18.1108C44.7725 17.9359 44.3925 17.7472 44.0698 17.5774C43.7478 17.4103 43.4799 17.2717 43.3253 17.1929C43.0133 17.036 43.1445 17.1242 44.1539 17.7365C43.4663 17.3275 42.6947 16.8708 41.8451 16.3243C41.7913 16.2914 41.7384 16.2568 41.6838 16.2213L41.619 16.1799L41.6053 16.1721L41.5527 16.1331C41.5162 16.1055 41.4788 16.0797 41.4406 16.0512C41.3642 15.9942 41.2844 15.9352 41.1995 15.8733C41.0236 15.7642 40.7752 15.5912 40.516 15.4371C40.4321 15.3894 40.3211 15.4013 40.2878 15.5437ZM39.7869 16.6682L39.8055 16.7151L39.8057 16.663C39.8236 16.48 39.8949 16.3705 40.0857 16.4175C40.1972 16.4446 40.3139 16.4586 40.4293 16.4788C40.4375 16.5243 40.4373 16.5765 40.4591 16.6139C40.4897 16.6676 40.5269 16.7297 40.609 16.6809L40.5263 16.5793L40.4491 16.4718C40.5055 16.3607 40.619 16.157 40.6087 16.1512C40.3638 15.996 40.0708 15.9772 39.8037 16.1482C39.5622 16.3019 39.696 16.5051 39.7883 16.6736L39.7869 16.6682ZM39.5272 14.8523C39.6145 15.261 39.8267 15.2544 40.0881 15.2052C40.0469 14.8591 39.8034 14.9047 39.5272 14.8523ZM39.01 14.5902L39.0406 14.6121L39.053 14.5624L39.01 14.5902ZM38.6888 14.9758C38.783 15.4999 39.1857 15.4014 39.5603 15.3643C39.2545 15.2724 38.9646 15.1485 38.6888 14.9758ZM38.2656 15.5649C38.2566 15.5848 38.2422 15.6061 38.2429 15.6247C38.2469 15.6975 38.279 15.7089 38.3217 15.6536C38.3312 15.6408 38.3314 15.6046 38.3217 15.5899C38.3119 15.5753 38.2864 15.5722 38.2673 15.5659L38.2656 15.5649ZM39.0726 13.9258L39.2345 13.936L39.2868 13.9157L39.2338 13.9173L39.0753 13.925L39.0726 13.9258ZM37.2715 15.9544C37.3486 16.046 37.4426 15.9563 37.5307 15.9449L37.7351 15.8884C37.7764 15.9073 37.8138 15.9332 37.8476 15.9614L37.8604 16.0187L37.854 15.9582C37.8485 15.8801 37.8057 15.8558 37.7341 15.8742L37.5275 15.9227C37.4563 15.9163 37.3854 15.9055 37.314 15.9036C37.3008 15.9029 37.269 15.9508 37.2707 15.9518L37.2715 15.9544ZM37.0683 15.3071C36.9534 15.3259 36.8175 15.3737 36.7205 15.5163C36.7012 15.5463 36.7133 15.6327 36.739 15.6473C36.8812 15.7281 37.0254 15.6737 37.1365 15.5459C37.192 15.4843 37.1586 15.3994 37.0693 15.3054L37.0683 15.3071ZM38.0499 13.8672C38.0477 13.891 38.0353 13.9248 38.0451 13.9395C38.0794 13.9908 38.1153 13.9794 38.134 13.9105C38.1394 13.8931 38.1225 13.863 38.1054 13.8533C38.0951 13.8475 38.0687 13.862 38.0499 13.8672ZM37.1854 14.7941L37.1413 14.9236C37.232 14.9274 37.3218 14.933 37.413 14.928C37.4201 14.9275 37.4557 14.825 37.44 14.8047C37.3741 14.7173 37.279 14.745 37.1854 14.7941ZM37.4377 14.0193L37.4854 14.035L37.4685 13.989L37.4377 14.0193ZM36.4133 14.9166C36.3704 14.8605 36.2758 14.8794 36.2553 14.9632C36.2424 15.0218 36.2926 15.089 36.3123 15.1502C36.3616 15.135 36.4303 15.1218 36.4308 15.113C36.4337 15.0442 36.4463 14.9582 36.4142 14.9149L36.4133 14.9166ZM36.786 14.233C36.7992 14.2814 36.6802 14.3433 36.7805 14.3821L36.7967 14.23C36.814 14.1876 36.8331 14.1461 36.846 14.1034C36.8501 14.0922 36.8342 14.0763 36.8278 14.0636C36.7555 14.1111 36.7813 14.1735 36.7842 14.232L36.786 14.233ZM35.8784 14.6536C35.873 14.671 35.8956 14.6951 35.9041 14.7159C35.9247 14.7117 35.9548 14.7106 35.9616 14.6986C35.9733 14.678 35.9806 14.6412 35.9708 14.6265C35.9358 14.5725 35.8972 14.5847 35.8767 14.6526L35.8784 14.6536ZM35.4747 14.04L35.4795 14.0995L35.4861 14.1556L35.4848 14.098L35.4747 14.04ZM34.9788 13.7763L35.0041 13.8953L35.1261 13.8919C35.1214 13.8483 35.1302 13.7851 35.1057 13.7643C35.0802 13.7453 35.0233 13.7698 34.9788 13.7763ZM34.3269 13.1808L34.3299 13.2393L34.2847 13.4386L34.4052 13.4139L34.3363 13.2361L34.3252 13.1798L34.3269 13.1808ZM34.0388 12.8466C33.9953 12.8991 33.9301 12.9939 33.946 13.0257C33.9825 13.101 34.0561 13.0473 34.0766 13.0272C34.1663 12.9372 34.1992 12.8673 34.1505 12.8055C34.1414 12.7935 34.0615 12.8186 34.0388 12.8466Z" fill="#EE0061"/>
<path d="M34.8698 11.6916C34.9742 11.9146 35.1228 12.0718 35.5161 12.1453C35.2612 11.8482 35.0987 11.7195 34.8698 11.6916Z" fill="#EE0061"/>
<path d="M32.2296 11.6799C32.2314 11.6968 32.2265 11.7215 32.2348 11.7308C32.2449 11.7411 32.2683 11.7361 32.285 11.7387L32.2808 11.6861L32.2279 11.6789L32.2296 11.6799Z" fill="#EE0061"/>
<path d="M101.986 91.738C101.972 91.8071 101.988 91.83 101.992 91.8709L102.111 91.6295L102.099 91.5024C102.061 91.5827 101.992 91.7073 101.985 91.7353L101.986 91.738Z" fill="#EE0061"/>
<path d="M36.8006 12.7164C36.8206 12.7209 36.8421 12.715 36.8661 12.7127C37.0451 12.9121 37.3691 12.9122 37.4751 13.2361C37.5462 13.4538 37.7513 13.3363 37.8854 13.1761C38.0053 13.0329 38.1501 12.8697 38.115 12.6884C38.0707 12.4632 37.863 12.5497 37.6989 12.5633C37.6297 12.5694 37.5614 12.5419 37.4932 12.5304L37.4377 12.5444L37.4917 12.5251C37.3239 12.2024 37.2525 12.2163 36.8599 12.6478C36.8392 12.6565 36.8159 12.6614 36.7966 12.6755C36.792 12.6796 36.7952 12.7178 36.8013 12.719L36.8006 12.7164Z" fill="#EE0061"/>
<path d="M25.0973 75.0564L25.4413 75.2087L25.7951 75.3439C25.8731 75.3223 25.8862 75.2752 25.8355 75.2009C25.4221 75.0432 25.1741 74.9932 25.0956 75.0554L25.0973 75.0564Z" fill="#EE0061"/>
<path d="M111.483 51.759C111.706 51.79 111.965 51.8283 112.275 51.8771C112.099 51.845 111.847 51.7974 111.494 51.733C111.49 51.7399 111.485 51.7484 111.482 51.758L111.483 51.759Z" fill="#EE0061"/>
<path d="M121.79 53.9829C121.451 53.9422 121.111 53.9104 120.769 53.8935C120.447 53.8713 120.38 53.4496 120.052 53.4927C119.787 53.485 119.507 53.4625 119.23 53.4755C119.079 53.4827 118.97 53.607 118.937 53.7883C118.906 53.9503 118.993 54.0406 119.101 54.0905C119.383 54.2193 119.669 54.4137 119.988 54.1835C120.188 54.0383 120.295 54.0509 120.344 54.2905C120.376 54.4452 120.466 54.5303 120.586 54.487C121.006 54.3259 121.405 54.466 121.818 54.4212C121.938 54.4097 122.06 54.3091 122.055 54.1558C122.049 53.991 121.91 54.0006 121.791 53.9856L121.79 53.9829Z" fill="#EE0061"/>
<path d="M123.894 53.2398C123.808 53.3954 123.695 53.3037 123.589 53.2982C123.543 53.2949 123.498 53.2873 123.453 53.2823C123.277 53.4526 123.122 53.4419 122.983 53.2649L122.958 53.2167L122.972 53.2723C122.935 53.4083 122.873 53.5501 122.734 53.5305C122.313 53.4732 121.889 53.4343 121.476 53.3518C121.063 53.2693 120.654 53.1711 120.274 52.9505C120.173 52.8931 120.166 52.8052 120.224 52.695C120.253 52.6452 120.352 52.7335 120.343 52.6101L120.217 52.6681C120.038 52.7207 119.818 52.7163 119.69 52.8388C119.432 53.0809 119.284 53.2086 119.309 52.6951L119.04 52.713C118.985 52.8543 118.947 53.0371 118.761 52.9222C118.701 52.8881 118.675 52.7895 118.723 52.7283C118.82 52.606 118.933 52.6818 119.038 52.7093C118.711 52.3757 118.362 52.3434 118.077 52.5947C117.962 52.6958 117.814 52.7933 117.759 52.9302C117.426 53.7432 116.83 53.7432 116.234 53.7864C116.061 53.7969 115.999 53.6663 115.899 53.5797C115.749 53.4517 115.63 53.3154 115.506 53.6636C115.465 53.7809 115.334 53.6954 115.33 53.5793C115.321 53.3675 115.341 53.1536 115.354 52.8518C114.895 53.3249 114.447 53.3503 113.947 53.2384C113.767 53.1955 113.579 53.1998 113.39 53.213L113.105 53.2397L113.033 53.2466L112.998 53.2492C112.998 53.2492 112.974 53.2515 112.949 53.2511L112.699 53.2478C112.426 53.2424 112.357 53.1239 112.292 52.9869C112.471 52.9087 112.645 52.8258 112.593 52.6418C112.282 52.6583 112.416 52.8819 112.269 52.9716C111.834 52.9994 111.371 52.8426 110.956 52.9748C110.309 53.1667 109.72 53.2271 109.21 52.7283C109.188 52.7069 108.998 52.758 108.886 52.776C109.02 52.8201 109.217 52.8321 109.146 52.985C109.135 53.0039 109.094 53.0283 109.062 53.0284C108.82 53.0405 108.856 52.9089 108.812 52.8182C108.249 52.4342 107.692 52.5361 107.155 52.7991C106.913 52.9183 106.677 53.0298 106.662 52.6779L106.898 52.5417C106.915 52.485 107.103 52.4692 106.973 52.3775L106.869 52.5207L106.639 52.6626C106.077 52.6661 105.511 53.0575 104.956 52.6218C104.94 52.6104 104.795 52.6462 104.745 52.6816C104.468 52.8785 104.176 52.9014 103.875 52.8936C103.574 52.8842 103.265 52.8177 102.962 52.7975C102.895 52.7666 103.007 52.6415 102.817 52.6768L102.951 52.8049C102.936 52.9146 102.899 53.0436 102.685 52.9971C102.387 52.932 102.106 52.7954 101.786 52.9405C101.465 53.0857 101.224 53.2394 100.979 52.8729C100.847 52.675 100.482 52.8267 100.231 52.9135C99.9679 53.0051 99.7698 53.0266 99.7705 52.7702L99.9872 52.6002C100.096 52.5643 100.227 52.541 100.307 52.4842C100.381 52.4332 100.314 52.3766 100.23 52.4129C100.127 52.4571 100.053 52.5284 99.9667 52.5885L99.7431 52.7546C99.4843 52.9189 99.2791 53.1364 98.8379 53.0674C98.7303 53.0494 98.5576 53.0422 98.4926 53.0848C98.1365 53.3166 97.784 53.3866 97.4277 53.3796C97.0714 53.3725 96.712 53.291 96.3537 53.2397L96.2 53.1114L96.3308 53.2562C96.0198 53.7954 95.324 54.0227 95.0101 53.642C94.7831 53.3675 94.572 53.2884 94.3517 53.3132C94.1336 53.3461 93.9071 53.4855 93.6473 53.6356C93.5414 53.6982 93.3436 53.6835 93.1878 53.7063L93.1181 53.6894L93.1683 53.7247C93.2522 53.952 93.0493 54.0935 92.7783 54.2076C92.3446 54.3885 92.1428 54.301 92.1854 53.9389C92.1968 53.8431 92.3853 53.7388 92.146 53.6415C91.8481 53.8267 91.5448 54.0453 91.2457 54.2525C91.0869 54.3646 90.8894 54.4887 90.726 54.3776C90.4091 54.1657 90.0979 54.3502 89.9688 54.5177C89.779 54.7599 89.5781 54.8661 89.3627 54.8983C89.1473 54.9304 88.9166 54.8857 88.6774 54.8361L88.7245 54.781L88.66 54.8307C88.3707 55.0527 88.0804 55.2923 87.9186 54.8593C87.9374 54.8382 87.9743 54.8092 87.9689 54.7948C87.9515 54.7576 87.917 54.7266 87.8879 54.6941L87.7993 54.6825L87.8703 54.7091C87.8869 54.7595 87.9002 54.808 87.9132 54.8608C87.662 54.8363 87.4146 54.8411 87.1784 54.8977C86.943 54.9571 86.7159 55.0576 86.5021 55.2066C86.3801 55.2895 86.2902 55.3998 86.1617 55.4745C85.3772 55.9377 85.2916 55.9209 85.0738 55.3153C85.063 55.2864 84.9434 55.2934 84.8698 55.2834C84.5469 55.4249 84.8172 55.5195 84.8146 55.6316C84.7951 56.1524 84.6774 56.2878 83.9897 56.2697C83.4977 56.2582 83.1471 56.3726 82.742 56.631C82.5526 56.7529 82.4637 56.6342 82.4364 56.5187L82.4715 56.4568L82.4163 56.5141C82.1526 56.6392 81.8951 56.861 81.6031 56.8405C80.671 56.7699 79.9535 57.203 79.1391 57.5674C79.0621 57.6032 78.9084 57.5545 78.7915 57.5449C78.815 57.4878 79.0201 57.418 78.8317 57.3745L78.7837 57.5427C77.9266 57.5874 77.0797 57.7538 76.1473 57.8512C76.0327 57.8656 75.9163 57.879 75.7989 57.8941C75.6801 57.9038 75.5605 57.9109 75.4399 57.9196C75.1981 57.9344 74.9585 57.9573 74.7093 57.9612C74.4586 57.9596 74.2045 57.9561 73.949 57.9472C73.6949 57.9437 73.429 57.8972 73.1686 57.865C73.7668 57.5141 74.2578 57.2364 74.2975 56.8476C73.761 56.8904 73.4302 56.8864 73.2153 56.9734C72.999 57.055 72.8918 57.2077 72.7923 57.4784C72.7059 57.7021 72.7005 57.8672 72.1593 57.8665C71.8644 57.867 71.6423 57.8272 71.4752 57.7344C71.3078 57.6461 71.1977 57.529 71.1219 57.3791C71.0457 57.2222 70.9029 57.0387 70.6481 57.0325C70.4505 57.0293 70.2487 56.9896 70.0479 56.9323C69.9471 56.9023 69.8463 56.8723 69.7451 56.8352L69.45 56.7084C69.0527 56.5462 68.6828 56.3678 68.2795 56.3636C68.0812 56.3577 67.8666 56.2926 67.6604 56.189C67.4614 56.0805 67.2715 55.9362 67.1124 55.7775C66.8213 55.4643 66.6387 55.2514 66.1657 55.0349C65.5707 54.7581 65.5028 54.3354 65.8886 54.0114L65.9617 54.0144L65.8832 53.997C65.8151 53.9493 65.7508 53.899 65.6847 53.8478C65.648 53.8406 65.613 53.8344 65.5758 53.8201C65.5724 53.8181 65.5616 53.7733 65.5523 53.7499L65.6614 53.7732C65.3784 53.3101 65.1263 53.2713 65.0571 53.5684C64.9627 54.0216 64.7996 53.8062 64.5258 53.4187C64.2493 53.0161 63.9054 52.6683 63.5089 52.3293L63.3182 52.1664C63.5499 51.8185 63.1468 51.5349 62.8702 51.2959C62.3494 50.8407 63.1063 50.6414 62.6009 50.2587C62.3101 50.0366 61.985 50.1541 61.6635 49.719C61.125 48.9879 60.6604 48.1148 59.9263 47.6362C59.4385 47.318 60.3126 46.6216 59.3283 46.6667C58.9439 46.2346 58.5605 45.8008 58.1761 45.3686C57.699 44.8406 57.2895 44.317 56.9318 43.6705C56.6216 43.1078 56.2395 42.4565 55.6076 41.9973C54.9612 41.5277 54.9822 41.4509 55.3756 40.9541C55.4145 40.9057 55.4575 40.8619 55.395 40.7924C55.3142 40.7033 55.2105 40.6147 55.1165 40.5727C54.8224 40.4442 54.159 40.0444 54.052 39.8381C53.7212 39.2001 53.0879 38.8629 52.7161 38.2652C52.5723 38.0357 52.2405 37.838 52.4968 37.6382C52.5919 37.5627 52.5477 37.4649 52.4208 37.4132C51.6288 37.0881 51.242 36.15 50.5432 35.6369C49.8989 35.1639 50.4652 34.9289 50.4017 34.4905C49.7846 34.6034 49.2508 34.2228 48.8465 33.427C48.6735 33.0855 48.4621 32.7995 48.1581 32.5449C47.3382 31.8584 46.5608 31.121 46.1286 30.0913C45.5914 29.92 45.9557 29.1634 45.246 28.9487C44.8135 28.8165 44.5604 28.0499 44.1449 27.6206C43.6501 27.1075 43.1529 26.559 42.849 25.9135C42.5934 25.3705 42.0723 25.1948 41.7598 24.7399C40.9565 23.5696 40.006 22.4908 39.1954 21.3413C38.9821 21.0428 38.7697 20.7426 38.5574 20.4423C37.9281 19.4801 37.2732 18.5352 36.7381 17.4991C36.2732 16.5985 35.8516 15.6657 35.335 14.7925C35.2225 14.6036 35.0655 14.3257 35.2426 14.1854C35.7289 13.8004 35.2842 13.7295 35.1542 13.5556C35.0127 13.366 34.8481 13.193 34.6956 13.0108C34.6351 12.9378 34.5732 12.8594 34.6665 12.7511C34.741 12.6639 34.8817 12.5757 34.938 12.6281C35.1987 12.8672 35.477 12.5731 35.743 12.5675C36.5048 12.5549 36.9897 13.0056 37.4525 13.4232C38.3259 14.215 39.0214 15.1763 39.8222 16.036C40.3878 16.6438 40.9025 17.2932 41.4182 17.9409C41.8565 18.4854 42.2955 19.0327 42.7321 19.5763C43.1998 20.149 43.6748 20.7167 44.161 21.2726C45.5542 22.8645 46.8322 24.5591 48.2414 26.1146C49.575 27.584 50.7813 29.1697 52.1652 30.5903C53.1603 31.6105 53.9935 32.8 54.9537 33.8776C56.8243 35.9772 58.4942 38.2741 60.4126 40.3372C60.522 40.388 60.5881 40.4711 60.6161 40.5893C62.1005 42.4352 63.4932 44.3905 65.0985 46.0916C66.3583 47.4236 67.115 48.931 68.2816 49.9327C68.6534 50.2554 69.0178 50.5511 69.3759 50.8342C69.7344 51.1084 70.0881 51.3594 70.4378 51.5855C70.7899 51.7992 71.1373 52.0013 71.4906 52.1612C71.67 52.2404 71.8554 52.3048 72.0365 52.385C72.2224 52.4566 72.4176 52.5039 72.6064 52.5703C73.5957 52.8553 74.7406 52.8265 75.9324 52.6674C77.1288 52.5042 78.3893 52.1842 79.7113 51.9196C80.746 51.71 81.7925 51.3957 82.8685 51.0776C83.4026 50.9153 83.9625 50.7675 84.515 50.6247C85.0709 50.4839 85.6227 50.3384 86.1821 50.2313C87.0379 50.0813 87.8797 49.8802 88.729 49.7015C89.5799 49.5442 90.4305 49.3753 91.2892 49.2679C92.4306 49.1576 93.5981 48.8938 94.7661 48.7804C95.2654 48.7232 95.7662 48.6715 96.2641 48.6249L97.7667 48.5448C98.7654 48.4783 99.7685 48.4757 100.769 48.4331C104.254 48.3139 107.738 48.5076 111.191 48.9129L111.762 48.9762L112.33 49.0606L113.465 49.2373L114.126 49.354C114.338 49.388 114.545 49.4377 114.756 49.4822C115.174 49.5721 115.592 49.6576 116.013 49.7378C116.432 49.8189 116.856 49.8825 117.275 49.9662C117.619 50.0302 117.908 50.3556 118.182 50.3433C118.547 50.3278 118.833 50.4789 119.156 50.54C120.005 50.7177 120.798 51.0366 121.558 51.4804C121.958 51.7187 122.456 51.9153 122.93 52.0691C123.111 52.129 123.26 52.1792 123.053 52.5115C122.848 52.8431 123.175 53.0379 123.402 53.1965C123.453 53.139 123.496 53.0678 123.556 53.0294C123.679 52.9491 123.782 53.0031 123.856 53.107C123.88 53.1409 123.898 53.2126 123.881 53.2435L123.894 53.2398ZM37.358 14.0081C37.3298 13.958 37.3164 13.914 37.2862 13.8832C37.2679 13.8637 37.2253 13.8668 37.1957 13.8591C37.2166 13.8982 37.2301 13.9422 37.2592 13.9747C37.2776 13.9942 37.3181 13.9946 37.358 14.0081ZM38.0015 16.6717C38.0187 16.7133 38.0248 16.7622 38.0523 16.7937C38.0755 16.8206 38.121 16.8283 38.1616 16.8445C38.143 16.7976 38.1351 16.7476 38.1077 16.7161C38.0844 16.6893 38.037 16.685 37.9998 16.6707L38.0015 16.6717ZM38.0165 17.4348L37.6199 16.8207C37.5274 17.1591 37.7053 17.2647 38.0165 17.4348ZM43.8538 23.9822C43.889 24.0318 43.9634 24.0604 44.0197 24.097C44.1087 24.1317 44.1442 24.0973 44.0869 24.0147C44.0516 23.9651 43.9777 23.9276 43.92 23.9016C43.8338 23.8618 43.7972 23.9023 43.8538 23.9822ZM41.7271 21.0893C41.8778 21.3227 42.0049 21.5177 42.131 21.7144L42.1524 21.7924L42.1545 21.7209C42.0924 21.4833 42.011 21.2597 41.7271 21.0893ZM41.3611 19.2494C41.3547 19.2685 41.3761 19.3147 41.3949 19.3413C41.4081 19.358 41.4407 19.3605 41.4649 19.3698C41.4675 19.3372 41.4824 19.307 41.4707 19.2798C41.4305 19.1911 41.3852 19.179 41.3611 19.2494ZM39.8095 18.6539C39.8076 18.6733 39.7966 18.6966 39.801 18.7127C39.8069 18.7343 39.8221 18.7634 39.8397 18.7643C39.895 18.7707 39.9082 18.7395 39.8661 18.686C39.8528 18.6694 39.8284 18.6646 39.8078 18.6529L39.8095 18.6539ZM43.6384 24.5166L43.7493 24.3933C43.5443 24.1359 43.3528 23.8589 43.1281 23.6243C42.1241 22.5718 41.3068 21.3664 40.4116 20.2302C40.3009 20.09 40.1941 19.9589 40.0837 19.8302C40.0288 19.7672 39.9723 19.7033 39.9157 19.6393C39.8866 19.6068 39.8592 19.5753 39.8291 19.5446C39.8024 19.5158 39.7625 19.4704 39.7497 19.4609C39.3586 19.0885 38.8092 18.7672 39.1303 18.0428C38.9692 17.9036 38.8046 18.0577 38.6674 18.032C38.559 18.0113 38.4636 17.948 38.2764 17.8666C39.0108 18.7954 39.7243 19.701 40.4305 20.5956C41.4915 21.9305 42.5496 23.2387 43.6391 24.5193L43.6384 24.5166ZM47.4681 28.157L47.5366 28.196L47.599 28.2019L47.5339 28.1649L47.4681 28.157ZM46.8721 27.6547C46.8902 27.6786 46.9372 27.6916 46.9619 27.692C46.9815 27.6895 46.9885 27.6572 47.001 27.6393C46.975 27.6131 46.9454 27.5736 46.9212 27.5643C46.8275 27.5338 46.8077 27.5726 46.8704 27.6537L46.8721 27.6547ZM45.7539 26.1373C45.9175 26.3757 46.0606 26.6184 46.3105 26.7809C46.1657 26.5213 46.0285 26.2683 45.7539 26.1373ZM44.7602 24.7997C44.8231 25.0718 44.9665 25.2101 45.0985 25.3488C45.1837 25.4381 45.2252 25.4049 45.1559 25.2996C45.053 25.1457 44.9264 25.0055 44.7602 24.7997ZM47.4807 28.7369C46.8525 28.2913 46.6073 27.6701 46.0656 27.4031C45.5476 26.4723 44.715 25.7922 44.101 24.9387C44.6434 25.8584 45.2449 26.7298 46.0639 27.4339C46.4654 27.8599 46.6002 28.6274 47.4814 28.7396L47.4807 28.7369ZM50.8049 30.049L50.8329 30.1195L50.8647 30.1034L50.8049 30.049ZM48.9121 29.7869C49.018 29.9834 49.0171 30.2602 49.303 30.3432C49.3079 30.0914 49.0942 29.945 48.9121 29.7869ZM49.0037 28.0548C49.0256 28.1081 49.0381 28.1698 49.0736 28.215C49.1199 28.2731 49.1818 28.3197 49.2374 28.3694L49.1704 28.2041L49.0055 28.0558L49.0037 28.0548ZM48.4245 29.7279C48.1795 29.5887 48.018 29.231 47.598 29.1764C47.9346 29.4495 48.1198 29.7457 48.4245 29.7279ZM49.6683 31.4508L49.6738 31.3813C49.6534 31.2696 49.5868 31.1954 49.488 31.1461L49.2223 31.0633C48.8831 30.775 48.6523 30.3438 48.2749 30.1066C48.0794 29.9841 47.9523 29.9846 47.9307 30.186C47.9145 30.3381 47.9846 30.4779 48.1524 30.5256C48.5183 30.6313 48.8558 31.0663 49.2258 31.097L49.4924 31.1781L49.6521 31.3757L49.67 31.4518L49.6683 31.4508ZM50.4293 32.863C50.6594 32.6096 50.8917 32.3644 50.8619 31.8587C50.7971 31.8969 50.7223 31.9249 50.67 31.977C50.5923 32.0578 50.4771 32.0492 50.3615 32.0653C49.8226 32.1363 49.8272 32.148 50.4276 32.862L50.4293 32.863ZM61.0654 45.1016C61.093 45.1128 61.1351 45.1345 61.1427 45.1251C61.163 45.0935 61.1725 45.0488 61.1844 45.0079L61.0671 45.1026L61.0654 45.1016ZM61.0739 44.7837L61.1846 44.9876C61.1638 44.9166 61.236 44.8213 61.0739 44.7837ZM60.7024 44.0339L60.7628 44.091L60.741 44.0218L60.7014 44.0356L60.7024 44.0339ZM60.1494 43.4878C60.1658 43.5107 60.2159 43.5301 60.2399 43.5278C60.2594 43.5253 60.2658 43.4903 60.2767 43.467C60.2508 43.4409 60.2214 43.3969 60.1989 43.3886C60.1035 43.3571 60.0845 43.3986 60.1503 43.486L60.1494 43.4878ZM60.4027 42.0931L60.5198 42.2937L60.6359 42.4961L60.6566 42.5714L60.6585 42.5043C60.641 42.4353 60.6351 42.366 60.6025 42.2998C60.5596 42.2118 60.5228 42.0931 60.4035 42.0957L60.4027 42.0931ZM60.445 40.4557L60.4451 40.5193L60.5067 40.5385L60.4433 40.4547L60.445 40.4557ZM57.3238 38.7226C57.408 38.7818 57.5041 38.8 57.5966 38.8367C57.5941 38.7534 57.592 38.6932 57.59 38.633C57.5027 38.6151 57.4107 38.5856 57.3295 38.5849C57.2571 38.5847 57.2533 38.6711 57.3238 38.7226ZM56.5078 36.9087L56.539 36.9855L56.5758 36.9565L56.5061 36.9077L56.5078 36.9087ZM56.0181 36.319L56.0502 36.3941L56.0835 36.3675L56.0191 36.3173L56.0181 36.319ZM54.2903 36.2529C54.7171 36.7341 54.9283 37.3792 55.545 37.8411C55.2792 37.1127 54.6838 36.7607 54.2903 36.2529ZM54.983 34.9943C54.9324 34.9996 54.9498 35.0527 55.0306 35.1259C55.0517 35.1447 55.0805 35.1497 55.1072 35.1626L55.0631 35.0648C55.0361 35.0404 54.9999 34.9925 54.9847 34.9953L54.983 34.9943ZM53.416 35.2196C53.393 35.2361 53.4317 35.3354 53.4436 35.4103C53.526 35.4685 53.6423 35.5869 53.6966 35.5791C53.8284 35.5586 53.6886 35.4337 53.6384 35.3665C53.5784 35.2847 53.4983 35.1664 53.416 35.2196ZM53.8466 33.7961L53.9208 33.8451C53.9846 33.8404 54.0574 34.0273 54.1152 33.9215L53.9193 33.8238L53.8456 33.7978L53.8466 33.7961ZM51.1582 33.4704C51.2115 33.4484 51.2129 33.3902 51.1463 33.3159C51.1022 33.2659 51.0386 33.2343 50.9833 33.196C50.9846 33.2536 50.9614 33.3222 50.9908 33.3662C51.021 33.4129 51.0983 33.4364 51.1565 33.4695L51.1582 33.4704ZM52.457 33.9086C52.3605 33.7674 52.2457 33.6862 52.1126 33.6492C51.9801 33.4239 51.9514 33.1394 51.6453 32.9882C51.6154 33.328 51.8322 33.5126 52.1126 33.6652C52.2352 33.7166 52.2956 33.9851 52.456 33.9103L52.457 33.9086ZM53.2562 37.0516L53.23 36.9822L53.1973 36.9999L53.2562 37.0516ZM54.2221 38.5779L54.1587 38.5419C54.0959 38.5448 54.0221 38.3597 53.9642 38.4654L54.1624 38.5713L54.2221 38.5779ZM55.7049 38.9275C55.4691 38.4571 54.8942 38.1689 54.7648 37.7227C54.5699 37.0528 54.0788 36.7487 53.6443 36.3449C53.3026 35.5188 52.5844 35.056 52.0007 34.4561C52.3602 35.1195 52.7812 35.7384 53.3498 36.257C53.3656 36.3569 53.4111 36.4283 53.5131 36.4521C53.9738 37.5435 54.848 38.2223 55.7076 38.9267L55.7049 38.9275ZM57.1747 39.7265L57.2579 39.8193L57.3302 39.9194L57.3442 40.0024L57.337 39.9233C57.3333 39.8144 57.2786 39.7469 57.1742 39.7194C56.898 39.1169 56.4674 38.7063 55.9335 38.4256L55.9253 38.3482L55.912 38.4156C55.9663 38.651 55.9565 38.9591 56.2601 39.059C56.6192 39.1767 56.8383 39.6126 57.1747 39.7265ZM55.9731 40.5527L55.9359 40.5066L55.9162 40.5613L55.9739 40.5554L55.9731 40.5527ZM56.819 41.9949L56.761 41.9415L56.789 42.0119L56.8208 41.9959L56.819 41.9949ZM57.6325 42.055L57.564 42.016C57.5021 42.0172 57.4283 41.8321 57.3722 41.9388L57.5679 42.041L57.6342 42.0559L57.6325 42.055ZM58.5003 42.2346C58.703 41.9657 58.2026 41.6858 57.9539 41.4376C57.6844 41.1662 57.3639 40.8728 57.6973 40.6372L57.7606 40.6414L57.6943 40.6105C57.1541 40.6399 56.7046 39.8798 56.165 39.7527C56.7997 40.3384 57.141 41.1415 57.7632 41.7133C58.0087 41.9392 58.2881 42.5162 58.5013 42.2328L58.5003 42.2346ZM59.0582 42.3016C59.151 41.7476 58.6807 41.4507 58.3267 41.0927C58.4355 41.5432 58.9191 41.8566 59.0582 42.3016ZM58.8982 42.9698C58.9129 42.96 58.9104 42.9086 58.8962 42.8778C58.8844 42.8506 58.845 42.8282 58.8181 42.8038C58.802 42.8242 58.7712 42.8385 58.7751 42.8635C58.7872 42.9658 58.8378 43.0083 58.8982 42.9698ZM59.7573 42.6944C59.7367 42.6827 59.7125 42.6576 59.699 42.6613C59.6501 42.6676 59.6042 42.6847 59.5567 42.6964L59.4912 42.6841L59.5592 42.7159L59.7563 42.6961L59.7573 42.6944ZM60.9537 45.8245L60.8409 45.6082C60.874 45.4065 60.9205 45.217 61.0566 45.1012C60.4789 44.5865 59.8995 44.0708 59.1324 43.3871C59.7135 44.3264 60.193 45.0217 60.8321 45.6077C60.8669 45.6821 60.7888 45.7876 60.951 45.8253L60.9537 45.8245ZM64.5686 47.8133L64.6276 47.865L64.6014 47.7955L64.5696 47.8115L64.5686 47.8133ZM63.51 47.5707C63.5678 47.6126 63.6329 47.6814 63.682 47.6866C63.7539 47.6957 63.7514 47.6283 63.6773 47.5635C63.6217 47.5137 63.5556 47.4625 63.4984 47.4436C63.4367 47.4245 63.4432 47.4849 63.5117 47.5716L63.51 47.5707ZM62.1136 45.8929C62.2895 46.4088 62.6966 46.6174 63.0901 46.8661C62.8456 46.6225 62.688 46.3535 62.5413 46.0655C62.4231 45.8347 62.253 45.8471 62.1136 45.8929ZM64.1641 48.9038L64.0917 48.8718C63.3477 47.908 62.4494 47.1361 61.5355 46.1643C61.6683 47.083 62.4289 47.563 62.7878 48.2193C63.1475 48.8783 63.6295 49.1068 64.0949 48.894L64.1651 48.9021L64.1641 48.9038ZM97.1448 49.4596L97.2233 49.4769L97.2272 49.4382L97.1465 49.4605L97.1448 49.4596ZM96.9159 50.6477C97.125 50.6347 97.3329 50.6915 97.5091 50.5689C97.2926 50.5232 97.0909 50.5472 96.9159 50.6477ZM94.7481 49.8247L94.7817 49.8733L94.8164 49.8203L94.7455 49.8255L94.7481 49.8247ZM93.5473 50.9128C93.607 50.9194 93.6677 50.9403 93.7273 50.931C93.7995 50.9197 93.8684 50.8861 93.9547 50.8579C93.8835 50.8516 93.8226 50.8351 93.7657 50.8437C93.6908 50.8557 93.6202 50.8883 93.5491 50.9137L93.5473 50.9128ZM92.9208 49.9657L92.9854 49.9638L92.9562 49.9154L92.9208 49.9657ZM91.5709 51.5554C91.5775 51.6274 91.6323 51.6426 91.7198 51.5923C91.7354 51.5012 91.7756 51.3945 91.7616 51.2956C91.7547 51.2439 91.6285 51.2586 91.5975 51.3251C91.5626 51.3984 91.5634 51.4807 91.5691 51.5544L91.5709 51.5554ZM89.9026 50.4436C90.3961 50.3967 90.679 50.3734 90.9368 50.2109C90.6216 50.1794 90.362 50.2933 89.9026 50.4436ZM88.821 51.3379L88.8912 51.346L88.895 51.3073L88.8193 51.337L88.821 51.3379ZM88.4854 52.2314L88.5436 52.1849C88.7396 52.0872 88.9324 51.9831 89.1607 51.8765C89.388 51.7716 89.6479 51.6534 89.9676 51.5055C89.5749 51.5824 89.2715 51.6577 89.0356 51.7577C88.8019 51.8658 88.6368 51.9969 88.5193 52.1756L88.4881 52.2306L88.4854 52.2314ZM86.8817 50.663L87.1131 50.6468L87.2798 50.5529C87.2018 50.5586 87.1225 50.5544 87.0482 50.5736C86.9873 50.589 86.9355 50.6322 86.8808 50.6648L86.8817 50.663ZM85.8568 51.2623L85.9289 51.267L85.9318 51.23L85.8568 51.2623ZM83.1154 52.218C83.191 52.2405 83.2577 52.2148 83.3046 52.1483C83.2916 52.1273 83.2899 52.0944 83.2657 52.0852C83.1911 52.061 83.1163 52.0889 83.0792 52.1542C83.0684 52.1731 83.0912 52.2088 83.1164 52.2163L83.1154 52.218ZM82.937 52.7393L82.9791 52.7769L82.9927 52.721L82.9352 52.7384L82.937 52.7393ZM82.1677 53.5545C82.2003 53.6366 82.3104 53.6583 82.4217 53.642C82.5735 53.5782 82.6401 53.4888 82.6305 53.4061C82.6201 53.3047 82.4915 53.2998 82.3575 53.3441C82.2262 53.3877 82.1278 53.4613 82.165 53.5552L82.1677 53.5545ZM80.858 52.8805L80.8874 52.9245L80.9123 52.8727L80.858 52.8805ZM80.6318 53.4179L80.7017 53.3826L80.6276 53.3814L80.6318 53.4179ZM79.2205 53.134L79.2939 53.1325L79.286 53.0985L79.2205 53.134ZM78.5084 53.1747L78.5781 53.1439L78.5043 53.1382L78.5067 53.1737L78.5084 53.1747ZM78.7008 54.4432C78.7577 54.4187 78.786 54.353 78.8256 54.3073C78.7803 54.2952 78.7204 54.2611 78.6729 54.2728C78.605 54.2887 78.5023 54.3417 78.4916 54.3766C78.4643 54.4883 78.5768 54.4977 78.6998 54.4449L78.7008 54.4432ZM77.8576 54.6708L77.9324 54.6428L77.8568 54.6362L77.8576 54.6708ZM75.9894 53.6476C76.0116 53.6603 76.0337 53.6773 76.0574 53.6794C76.0899 53.682 76.1376 53.6818 76.1596 53.6671C76.2192 53.626 76.1879 53.6013 76.0813 53.6135C76.0502 53.6163 76.0192 53.635 75.9877 53.6466L75.9894 53.6476ZM75.8952 55.2646L75.9573 55.2272L75.9978 55.1797L75.9333 55.2135L75.8962 55.2629L75.8952 55.2646ZM75.2957 53.7556L75.3622 53.7343L75.2932 53.7201L75.2947 53.7574L75.2957 53.7556ZM74.8059 54.9523C74.8404 54.9515 74.8741 54.932 74.9074 54.9213C74.8851 54.9087 74.8641 54.8899 74.8396 54.8851C74.8054 54.8815 74.7542 54.8798 74.7315 54.8918C74.6641 54.9308 74.6944 54.9571 74.8069 54.9506L74.8059 54.9523ZM73.538 53.6066L73.6045 53.6013L73.5514 53.5711L73.538 53.6066ZM70.0684 53.8302L70.1125 53.8802L70.1396 53.8525L70.0694 53.8285L70.0684 53.8302ZM69.2932 52.71L69.2877 52.7637L69.3375 52.7398L69.295 52.711L69.2932 52.71ZM67.4125 52.2911C67.5121 52.3432 67.6168 52.4141 67.7068 52.4311C67.7934 52.4462 67.7867 52.3583 67.7053 52.3302C67.6091 52.296 67.5108 52.3015 67.4125 52.2911ZM65.8655 50.3959C65.9353 50.4924 66.0041 50.5906 66.0832 50.6787C66.1591 50.7605 66.2134 50.7527 66.2211 50.723C66.229 50.5457 66.1311 50.4787 66.0296 50.4301C65.9763 50.4043 65.9205 50.4067 65.8645 50.3976L65.8655 50.3959ZM65.2585 49.7214C65.1857 49.7459 65.1977 49.8004 65.2831 49.8535C65.3105 49.8691 65.3421 49.8575 65.3719 49.8608C65.3638 49.8312 65.365 49.7932 65.3483 49.7747C65.3268 49.7488 65.2764 49.7179 65.2593 49.724L65.2585 49.7214ZM64.643 51.542C64.666 51.3142 64.4127 51.1816 64.2123 51.0836L64.149 51.0794L64.217 51.1113C64.3285 51.3338 64.2763 51.4495 64.1419 51.5186C64.1157 51.5128 64.0753 51.4921 64.0668 51.5032C64.0475 51.5331 64.0417 51.5753 64.029 51.6135L63.9925 51.8133L64.0711 51.6352C64.0681 51.5767 64.0976 51.5526 64.1544 51.5644C64.3263 51.5689 64.6209 51.7522 64.6403 51.5428L64.643 51.542ZM65.711 52.5855L65.6534 52.4914C65.6228 52.4694 65.5803 52.4248 65.5651 52.4275C65.5142 52.4373 65.5378 52.4915 65.6278 52.5564C65.6516 52.5744 65.6824 52.576 65.7083 52.5862L65.711 52.5855ZM66.741 54.1504C66.7516 54.0679 66.713 54.0482 66.6485 54.0979C66.6318 54.1112 66.6319 54.143 66.6253 54.1665C66.6493 54.1802 66.6857 54.2077 66.6948 54.2038C66.7183 54.1944 66.7405 54.1752 66.7436 54.1497L66.741 54.1504ZM70.6267 56.209L70.536 56.2211C70.4169 56.2193 70.2726 56.1941 70.1846 56.2213C70.1191 56.2409 70.2156 56.3503 70.2945 56.3429C70.3992 56.3342 70.4637 56.2686 70.5436 56.2276L70.626 56.2063L70.6267 56.209ZM75.6777 56.5683C75.6686 56.5563 75.6139 56.557 75.5779 56.5525C75.553 56.5724 75.5051 56.5929 75.5068 56.6098C75.5101 56.6799 75.5732 56.6885 75.6626 56.6347C75.6863 56.6209 75.6919 56.5832 75.6804 56.5676L75.6777 56.5683ZM79.0364 56.6954L78.6195 56.9107L78.5838 56.9654L78.6508 56.9194C78.6879 56.9019 78.7346 56.8875 78.7588 56.8649C78.835 56.7946 79.0718 56.8405 79.0364 56.6954ZM82.1621 56.1559C82.0923 55.9958 81.9133 56.0395 81.7463 56.0901C81.6485 56.1186 81.4336 56.1737 81.5905 56.2447C81.7094 56.2986 81.6686 56.5618 81.9973 56.3782C82.0875 56.3272 82.1172 56.219 82.1621 56.1559ZM81.941 55.2052L81.7698 55.3511L81.7285 55.4117L81.7889 55.3574C81.8194 55.2997 82.0214 55.3032 81.9384 55.206L81.941 55.2052ZM86.3961 54.6872L86.323 54.6843L86.3272 54.7208L86.3961 54.6872ZM88.4596 54.2623L88.3863 54.2478C88.3787 54.2731 88.3594 54.303 88.3663 54.3229C88.394 54.3977 88.4397 54.401 88.4734 54.3337C88.4861 54.3114 88.4646 54.2855 88.4579 54.2613L88.4596 54.2623ZM93.8298 52.8439L93.7553 52.8674L93.8225 52.8806L93.8298 52.8439ZM94.995 51.8106C94.7153 51.597 94.2648 51.7796 94.1026 51.5625C94.1407 51.5114 94.3124 51.4726 94.1644 51.4021L94.0723 51.5521C93.3888 51.5386 92.8005 51.8679 92.1675 52.0127C91.5913 52.1375 91.2735 52.3137 91.108 51.8355C91.0494 51.6635 90.7312 51.6691 90.6934 51.959C90.682 52.0388 90.7044 52.1789 90.5874 52.1692C89.8019 52.1 89.1884 52.665 88.4362 52.6807C88.0112 52.6232 87.5806 52.7626 87.2639 52.969C86.9216 53.1926 86.6245 52.551 86.3065 53.1385C86.2318 53.2779 85.9727 53.1556 85.9217 53.0221C85.84 52.8029 86.3696 52.513 86.0063 52.311C85.5394 52.5343 84.7554 52.5501 84.8849 53.1396C85.0047 53.1282 85.1363 53.0961 85.2414 53.1105C85.3388 53.1226 85.488 53.187 85.4744 53.2269C85.4122 53.3961 85.2398 53.3686 85.1013 53.3331C85.0003 53.3075 84.9164 53.2598 84.8249 53.2214C84.7664 53.2405 84.709 53.2578 84.6508 53.2725C84.6247 53.2986 84.6029 53.3248 84.5726 53.3463C84.5653 53.3512 84.5027 53.3338 84.5056 53.3286C84.5158 53.3026 84.5403 53.2756 84.5603 53.2483C83.9802 53.2323 84.1781 53.7971 83.6136 53.8694C82.5267 54.0153 81.4434 54.7133 80.3231 54.4993C80.1641 54.4681 79.9295 54.5938 79.7744 54.7193L80.0656 54.753C79.9487 54.907 79.8251 54.8254 79.7048 54.8138C78.5133 55.2753 77.2343 55.4643 75.9717 55.6604C75.8915 55.6739 75.8167 55.7177 75.7392 55.7464C75.561 55.6133 75.3955 55.442 75.0549 55.4711C74.819 55.4916 74.6417 55.5044 74.5072 55.4939C74.3724 55.4878 74.2804 55.4741 74.2141 55.4433C74.0842 55.3808 74.0587 55.2504 74.0129 54.988C73.7339 55.0362 73.6365 55.2195 73.3258 55.2679C71.9252 55.4674 70.4563 55.0575 69.2902 54.2265C68.9811 54.0168 68.7722 53.7185 68.9088 53.4461C68.9716 53.3159 68.9672 53.168 68.7087 53.0687C68.5347 53.004 68.4266 52.9629 68.3879 53.1864C68.3556 53.3908 68.2273 53.4133 68.0739 53.3602C67.9234 53.302 67.7519 53.1613 67.6285 53.0594C67.3622 52.8262 67.3947 52.5378 67.4044 52.2933C67.2583 52.1398 67.1706 51.7877 66.9391 51.9039C66.4953 52.1266 66.1865 51.7488 65.9053 51.3345C65.4209 50.6159 64.8016 50.0548 64.2165 49.4177C64.0065 49.7552 64.1016 50.0025 64.4919 50.3925C65.3159 51.2154 66.1892 51.9595 66.915 52.9311C67.2486 53.373 67.7241 53.7842 68.2827 54.0494C68.6433 54.2044 68.8107 54.2927 69.0043 54.4345C69.0992 54.5067 69.1947 54.6018 69.323 54.727C69.4552 54.8453 69.6123 55.0074 69.8426 55.2042C70.0017 55.331 70.2508 55.4112 70.4436 55.3549C70.7143 55.2814 71.1721 55.2893 71.2407 55.4397C71.3838 55.7302 71.6265 55.8135 71.8818 55.8428C71.9459 55.8496 72.0102 55.8521 72.0746 55.8546L72.2712 55.8436C72.4013 55.838 72.5277 55.8348 72.6483 55.8579C72.7786 55.8797 72.907 55.905 73.0367 55.9082C73.1663 55.9114 73.2978 55.9112 73.426 55.909L73.8126 55.8946C73.9412 55.8836 74.0693 55.8655 74.1955 55.8509C74.7068 55.8006 75.2056 55.7204 75.7343 55.755C76.1186 55.8962 76.5504 55.7824 76.9568 55.7134C77.2692 55.666 77.5807 55.6203 77.8888 55.5727C78.1981 55.5348 78.5055 55.5004 78.8131 55.4934C78.838 55.4735 78.8622 55.4509 78.893 55.4366C78.9048 55.4319 78.9525 55.4476 78.9503 55.4555C78.9464 55.4783 78.9239 55.5019 78.9085 55.5249C79.5513 55.3789 80.1254 55.0824 80.7787 54.9378C82.4972 54.5577 84.1767 54.0508 85.8581 53.6882C86.3426 53.5772 86.852 53.3508 87.2991 53.3776C87.5811 53.3879 87.6814 53.4904 87.8651 53.2311C87.9959 53.0487 88.2264 52.8865 88.414 52.7158C88.4914 52.8348 88.5989 52.9368 88.838 52.8909C89.1693 52.8223 89.5055 52.8089 89.8412 52.7724C90.1762 52.7333 90.509 52.6701 90.8412 52.5203C91.1787 52.3689 91.6053 52.2045 91.9408 52.4475L91.901 52.4976L91.965 52.4567C92.2554 52.3445 92.5253 52.1887 92.8612 52.3433C93.0385 52.4259 93.4638 52.4472 93.532 52.3473C93.6807 52.1295 93.9097 52.0256 94.1693 51.9595C94.4312 51.9015 94.7236 51.8813 94.9992 51.8152L94.995 51.8106ZM95.2631 50.9561C95.2227 50.8717 95.2729 50.7276 95.0162 50.7726C94.9431 50.7856 94.8367 50.8251 94.8179 50.8622C94.744 51.0042 94.9692 51.0027 95.0688 51.0548C95.2183 51.1306 95.2436 51.0382 95.2631 50.9561ZM95.9049 52.4505C95.9068 52.4152 95.8449 52.3845 95.8104 52.3536C95.7273 52.42 95.6374 52.4825 95.5666 52.5514C95.5096 52.6076 95.5566 52.6366 95.672 52.6249C95.8085 52.6002 95.8999 52.5431 95.9049 52.4505ZM96.4088 49.5344C96.0366 49.5274 95.7028 49.5286 95.2741 49.7486C95.7837 49.761 96.0729 49.639 96.4088 49.5344ZM98.4141 51.7038C98.1827 51.4291 97.727 51.4814 97.7671 51.2315C97.7872 51.1043 97.6028 51.0222 97.473 51.1507C97.1457 51.4715 96.4687 51.4186 95.9768 51.9572C96.1968 51.8891 96.4058 51.8283 96.6073 51.7769C96.8102 51.7309 97.0063 51.6968 97.2026 51.6743C97.5936 51.6284 97.9829 51.6292 98.4141 51.7038ZM98.2563 49.0549C98.2187 49.0494 98.1817 49.0466 98.1441 49.0411C98.1191 49.061 98.0703 49.0832 98.0693 49.1009C98.0686 49.1778 98.1308 49.1881 98.2207 49.1256C98.2437 49.1091 98.2444 49.0799 98.2554 49.0566L98.2563 49.0549ZM99.0665 51.3495L99.0302 51.3017L98.9999 51.3549L99.0665 51.3495ZM99.2337 50.3536C99.2097 50.34 99.1828 50.3156 99.1632 50.3181C99.1285 50.3234 99.0833 50.3431 99.0725 50.362C99.0381 50.4266 99.0846 50.4484 99.1843 50.4165C99.2095 50.4081 99.2175 50.374 99.2346 50.3519L99.2337 50.3536ZM99.9204 50.8598L99.8419 50.8743L99.9087 50.8964L99.9204 50.8598ZM100.813 49.2446C101.231 49.3318 101.431 49.214 101.582 48.9017C100.858 48.9356 100.188 48.9777 99.5167 49.0144C99.4271 48.9567 99.3374 48.967 99.2487 49.0234L99.1971 49.0782L99.2648 49.0349L99.3881 49.0254L99.5111 49.0203C99.9476 49.0934 100.387 49.157 100.813 49.2446ZM101.092 50.262C101.079 50.2772 101.098 50.3198 101.116 50.3234C101.146 50.3294 101.187 50.3138 101.224 50.3078C101.238 50.2837 101.278 50.2495 101.264 50.2373C101.211 50.1886 101.141 50.1991 101.091 50.2637L101.092 50.262ZM102.369 51.1606C102.112 51.1074 101.831 51.1344 101.6 51.1144C101.369 51.0988 101.187 51.039 101.123 50.7889C100.79 51.0882 101.157 51.2806 101.161 51.4807C100.647 51.7272 100.788 51.1915 100.403 51.2705C100.299 51.6728 100.755 51.7072 101.151 51.7163C101.452 51.7213 101.687 51.6637 101.881 51.5694C102.074 51.4725 102.228 51.3284 102.367 51.1597L102.369 51.1606ZM102.429 52.0923C102.282 52.1068 102.265 52.1926 102.209 52.2604C102.157 52.324 102.185 52.3971 102.245 52.379C102.34 52.3513 102.415 52.28 102.482 52.218C102.542 52.161 102.513 52.1153 102.429 52.0923ZM103.215 51.1481C103.195 51.1028 103.161 51.0427 103.105 51.0221C102.958 50.9702 102.918 51.0636 102.884 51.1238C102.837 51.2062 102.891 51.2638 103.027 51.2825C103.156 51.2759 103.261 51.2495 103.216 51.1463L103.215 51.1481ZM103.809 49.4837C103.783 49.4664 103.761 49.4378 103.734 49.4365C103.616 49.433 103.595 49.4664 103.679 49.5212C103.702 49.5338 103.743 49.5368 103.777 49.5448C103.789 49.5242 103.801 49.5019 103.811 49.4847L103.809 49.4837ZM106.037 52.243C105.981 52.2092 105.931 52.1535 105.867 52.1466C105.776 52.1357 105.736 52.1902 105.79 52.2505C105.826 52.2913 105.889 52.3405 105.95 52.3481C106.041 52.3591 106.072 52.3085 106.037 52.243ZM106.078 51.3776C105.963 51.1691 105.693 51.2134 105.462 51.2483C105.293 51.2721 105.236 51.3877 105.183 51.4893C104.668 51.4696 104.644 51.249 104.704 50.9965L104.761 50.9517L104.689 50.986C104.425 51.1721 104.162 51.3477 103.887 51.5554C104.418 51.8616 104.801 51.6631 105.196 51.4971C105.31 51.4729 105.424 51.4311 105.538 51.43C105.716 51.4286 105.81 51.6528 106.04 51.5242C106.086 51.4983 106.101 51.4204 106.08 51.3786L106.078 51.3776ZM104.616 49.531L104.595 49.4804L104.556 49.5261L104.616 49.531ZM106.294 50.3232L106.229 50.3614L105.735 50.3507C105.712 50.3062 105.695 50.2602 105.668 50.2172C105.66 50.2062 105.599 50.1986 105.599 50.1986C105.541 50.2813 105.655 50.3147 105.718 50.3639C105.89 50.4958 106.067 50.4759 106.247 50.3738L106.292 50.3222L106.294 50.3232ZM106.679 49.2555C105.79 48.8068 104.983 48.9532 104.201 49.0133C104.134 48.9841 104.073 48.9403 103.998 48.9293C103.901 48.9127 103.774 48.8681 103.71 48.9727C103.787 48.9847 103.865 48.9993 103.945 49.0061C104.025 49.0129 104.106 49.018 104.186 49.0249C104.926 49.4207 105.737 49.1224 106.678 49.2528L106.679 49.2555ZM107.068 51.2699C107.03 51.2689 106.993 51.282 106.959 51.2899C106.981 51.307 106.999 51.3309 107.026 51.3394C107.061 51.3501 107.12 51.3584 107.144 51.3473C107.221 51.3088 107.189 51.2771 107.067 51.2717L107.068 51.2699ZM107.859 49.5079L107.576 49.2765C107.562 49.2281 107.564 49.1813 107.583 49.1354L107.64 49.0923L107.556 49.1198C107.533 49.1363 107.489 49.1544 107.493 49.1705C107.501 49.2089 107.529 49.2475 107.55 49.2866C107.659 49.3578 107.528 49.5605 107.859 49.5079ZM107.974 51.3348L107.892 51.3517L107.969 51.3796L107.971 51.3355L107.974 51.3348ZM108.093 50.1772L108.05 50.1281C107.946 50.0961 107.842 50.0438 107.735 50.0374C107.645 50.0318 107.612 50.1176 107.684 50.1338C107.788 50.1587 107.912 50.1403 108.028 50.1402L108.091 50.1762L108.093 50.1772ZM108.086 51.7801L108.059 51.7283L108.024 51.7769L108.086 51.7801ZM115.321 51.0788C115.549 50.8174 115.658 50.6064 115.869 50.4988C115.987 50.4386 116.035 50.2776 115.927 50.1685C115.826 50.0677 115.699 50.1186 115.617 50.2399C115.47 50.4498 115.316 50.6575 115.322 51.077L115.321 51.0788ZM115.241 51.3602L115.273 51.3919L115.285 51.3581L115.238 51.361L115.241 51.3602ZM114.827 50.4296C114.869 50.5078 114.948 50.4279 114.972 50.3504C115.001 50.2555 115.037 50.1513 114.955 50.0639C114.918 50.0859 114.853 50.101 114.846 50.129C114.826 50.2287 114.787 50.3594 114.826 50.4313L114.827 50.4296ZM114.243 50.3567C114.302 50.3766 114.332 50.3481 114.329 50.2736C114.324 50.2026 114.32 50.1299 114.316 50.0572C114.281 50.0855 114.229 50.1057 114.215 50.143C114.187 50.2158 114.182 50.2969 114.245 50.3577L114.243 50.3567ZM113.477 51.5921L113.517 51.6216L113.525 51.576L113.477 51.5921ZM113.523 50.5907C113.536 50.6073 113.549 50.6284 113.566 50.6381C113.583 50.6478 113.609 50.6465 113.628 50.6413C113.636 50.6391 113.638 50.6109 113.643 50.5952L113.52 50.5915L113.523 50.5907ZM111.874 49.6833L111.951 49.6608L112.202 49.6102L111.932 49.6457L111.874 49.6833ZM112.144 50.0662L112.126 50.0988L112.21 50.1014L112.145 50.0644L112.144 50.0662ZM110.797 49.828C110.794 49.9172 110.872 49.9884 110.998 49.9172C111.062 49.8807 111.059 49.7833 111.051 49.713C111.048 49.6863 110.947 49.6607 110.864 49.6228C110.839 49.6949 110.802 49.7602 110.799 49.829L110.797 49.828ZM108.634 49.2485L108.548 49.2564L108.617 49.2865L108.634 49.2485ZM108.821 51.4753C108.802 51.4531 108.788 51.4178 108.762 51.4121C108.666 51.3894 108.604 51.4153 108.6 51.477C108.6 51.4974 108.629 51.5343 108.655 51.54C108.751 51.5627 108.808 51.5383 108.821 51.4753ZM109.503 51.4719L109.436 51.4383L109.42 51.4746L109.501 51.4709L109.503 51.4719ZM109.647 50.1927C109.65 50.1804 109.454 50.1101 109.357 50.1094C109.249 50.1091 109.149 50.157 109.045 50.1887L108.752 50.4927L108.706 50.5416L108.771 50.5034L109.029 50.5159L109.086 50.5623L109.047 50.508L109.069 50.2023C109.147 50.2082 109.227 50.2221 109.304 50.2225C109.426 50.2236 109.599 50.3608 109.647 50.1927ZM109.961 49.4095L109.88 49.4407L109.813 49.4823L109.889 49.4482L109.961 49.4095ZM113.655 52.759L113.618 52.7287L113.608 52.7689L113.655 52.759ZM113.679 52.4569L113.691 52.4115L113.642 52.4222L113.68 52.4552L113.679 52.4569ZM114.626 52.0675C114.611 51.9863 114.537 51.9241 114.469 51.9691C114.265 52.1036 114.071 52.1023 113.895 52.0454C113.719 51.9929 113.56 51.8776 113.429 51.7762C113.382 51.7401 113.336 51.7094 113.29 51.6831C113.267 51.6705 113.244 51.6595 113.223 51.6496L113.207 51.6408L113.177 51.6348L113.117 51.6193C112.96 51.5819 112.811 51.568 112.667 51.5703C112.377 51.5737 112.108 51.6411 111.825 51.7325C111.733 51.7622 111.548 51.6685 111.499 51.7314C111.482 51.7288 111.468 51.7254 111.452 51.7228C111.221 51.5392 110.828 51.341 111.504 51.2408L111.566 51.2901L111.517 51.2327C111.542 51.0465 111.691 50.9544 111.985 50.9484C112.054 50.9467 112.406 51.0375 112.138 50.8193C112.001 50.7096 111.707 50.6403 111.454 50.6422C111.203 50.6424 110.996 50.6909 111.034 50.7831C111.271 51.3703 110.404 51.3454 110.044 51.6999C110.353 51.6912 110.642 51.6718 111.484 51.7545C111.481 51.7668 111.48 51.7817 111.484 51.8023C111.515 51.9702 111.706 52.0332 111.941 52.0029C112.457 51.9352 112.969 52.0034 112.275 51.8727C112.512 51.9115 112.774 51.9561 113.073 52.0052C113.162 52.0196 113.187 52.0271 113.234 52.0358C113.279 52.0452 113.323 52.0546 113.369 52.0649C113.462 52.0856 113.559 52.1066 113.662 52.1288C113.866 52.1518 114.162 52.2132 114.459 52.2525C114.554 52.2654 114.651 52.2095 114.626 52.0631L114.626 52.0675ZM114.638 50.838L114.602 50.8017L114.622 50.8496C114.679 51.025 114.658 51.1539 114.464 51.1871C114.351 51.2069 114.237 51.2399 114.124 51.2667C114.098 51.2291 114.079 51.1795 114.043 51.1546C113.993 51.1193 113.934 51.0791 113.878 51.1584L113.995 51.2158C114.033 51.2355 114.072 51.2596 114.11 51.281C114.102 51.4062 114.081 51.6377 114.092 51.6391C114.378 51.6859 114.652 51.5869 114.83 51.3247C114.991 51.089 114.787 50.9546 114.636 50.837L114.638 50.838ZM115.594 52.4045C115.353 52.063 115.162 52.1521 114.941 52.3015C115.117 52.6033 115.319 52.4662 115.594 52.4045ZM116.173 52.4311L116.136 52.4239L116.146 52.4748L116.171 52.4301L116.173 52.4311ZM116.316 51.9486C116.022 51.5159 115.689 51.7674 115.362 51.9476C115.679 51.9136 115.994 51.9088 116.316 51.9486ZM116.474 51.2404C116.472 51.2191 116.481 51.1922 116.472 51.1758C116.439 51.1095 116.405 51.1131 116.388 51.183C116.384 51.1986 116.4 51.2304 116.414 51.2409C116.43 51.2497 116.455 51.2413 116.475 51.2414L116.474 51.2404ZM116.376 53.0625L116.224 53.1147L116.184 53.1533L116.233 53.1311L116.376 53.0625ZM117.237 50.4949C117.13 50.4407 117.078 50.5591 117.002 50.602L116.835 50.7322C116.79 50.7316 116.745 50.7222 116.702 50.7067L116.668 50.6598L116.697 50.7126C116.732 50.7825 116.781 50.7877 116.839 50.7456L117.011 50.6211C117.08 50.6008 117.149 50.5831 117.217 50.5584C117.229 50.5537 117.24 50.4986 117.238 50.4976L117.237 50.4949ZM117.677 51.0174C117.775 50.9554 117.884 50.8602 117.917 50.6904C117.923 50.6553 117.878 50.5795 117.85 50.5772C117.688 50.5555 117.576 50.6602 117.523 50.8211C117.497 50.8993 117.559 50.9662 117.678 51.0184L117.677 51.0174ZM117.334 52.725C117.326 52.7025 117.327 52.6662 117.311 52.6575C117.261 52.6221 117.23 52.6479 117.241 52.7175C117.244 52.7353 117.27 52.757 117.289 52.7606C117.301 52.763 117.319 52.7392 117.336 52.7259L117.334 52.725ZM117.769 51.5361L117.759 51.3985C117.674 51.4294 117.589 51.4586 117.507 51.4959C117.5 51.4991 117.507 51.6073 117.531 51.6209C117.626 51.6772 117.703 51.614 117.77 51.5344L117.769 51.5361ZM117.837 52.3497L117.788 52.3533L117.82 52.3877L117.837 52.347L117.837 52.3497ZM118.435 51.1188C118.497 51.1539 118.577 51.097 118.563 51.0123C118.553 50.9543 118.48 50.9124 118.436 50.8651C118.397 50.8993 118.338 50.9387 118.342 50.9477C118.365 51.0108 118.388 51.0942 118.436 51.1215L118.435 51.1188ZM118.356 51.892C118.323 51.8532 118.409 51.7498 118.301 51.7539L118.345 51.8994C118.346 51.9455 118.345 51.9905 118.35 52.0341C118.35 52.0456 118.37 52.0546 118.381 52.0631C118.429 51.9905 118.38 51.9446 118.356 51.892ZM119.034 51.1456C119.031 51.126 119.002 51.1138 118.985 51.0997C118.969 51.113 118.94 51.1239 118.938 51.1388C118.934 51.1616 118.943 51.1983 118.957 51.2088C119.01 51.2434 119.042 51.2185 119.033 51.1473L119.034 51.1456ZM119.642 51.5619L119.615 51.5101L119.587 51.46L119.61 51.5116L119.642 51.5619ZM120.201 51.6202L120.132 51.522L120.021 51.5701C120.042 51.6093 120.059 51.6712 120.087 51.6806C120.117 51.6883 120.161 51.6429 120.2 51.6219L120.201 51.6202ZM121.035 51.9148L121.01 51.8639L120.975 51.6649L120.873 51.7339L121.004 51.8698L121.036 51.9175L121.035 51.9148ZM121.431 52.1078C121.45 52.0416 121.476 51.9316 121.449 51.9089C121.384 51.8543 121.338 51.9323 121.326 51.9573C121.277 52.0751 121.272 52.1517 121.342 52.189C121.355 52.1968 121.42 52.1426 121.431 52.1078Z" fill="#EE0061"/>
<path d="M121.1 53.4906C120.918 53.3281 120.721 53.2409 120.33 53.3275C120.68 53.4997 120.878 53.555 121.1 53.4906Z" fill="#EE0061"/>
<path d="M123.549 52.5076C123.542 52.4922 123.537 52.4688 123.525 52.462C123.513 52.4551 123.492 52.4682 123.475 52.4744L123.498 52.5219L123.549 52.5076Z" fill="#EE0061"/>
<path d="M73.4215 57.2248C73.3969 57.236 73.3903 57.2597 73.3751 57.2784L73.4678 57.3037L73.5107 57.2481C73.4793 57.2394 73.4306 57.2209 73.4215 57.2248Z" fill="#EE0061"/>
<path d="M118.929 53.2882C118.909 53.2907 118.89 53.3047 118.87 53.3161C118.631 53.194 118.33 53.3322 118.108 53.0783C117.957 52.9086 117.815 53.0985 117.753 53.2995C117.698 53.4797 117.629 53.6857 117.731 53.8369C117.857 54.0248 118.015 53.8624 118.162 53.7842C118.224 53.7512 118.297 53.7497 118.366 53.732L118.413 53.6973L118.37 53.7367C118.651 53.96 118.708 53.9285 118.903 53.3779C118.919 53.362 118.938 53.3479 118.949 53.329C118.952 53.3222 118.935 53.2894 118.928 53.2899L118.929 53.2882Z" fill="#EE0061"/>
<path d="M53.3725 36.2609L53.4335 36.3569L53.5102 36.4414C53.5605 36.4246 53.5984 36.3938 53.6213 36.3455C53.5295 36.2479 53.4481 36.2197 53.3716 36.2626L53.3725 36.2609Z" fill="#EE0061"/>
</g>
<defs>
<clipPath id="clip0_749_858">
<rect x="38.3605" width="104.334" height="76.6202" rx="25" transform="rotate(29.6125 38.3605 0)" fill="white"/>
</clipPath>
</defs>
</svg>
