<svg width="18" height="18" viewBox="0 0 18 18" fill="none" xmlns="http://www.w3.org/2000/svg">
<g clip-path="url(#clip0_192_351)">
<path d="M12.8969 10.1101C12.8761 10.1294 12.8505 10.1524 12.8171 10.1748C12.8386 10.1645 12.8665 10.147 12.907 10.1228C12.9046 10.1192 12.9011 10.1149 12.8969 10.1101Z" fill="black"/>
<path d="M8.71752 10.7259C8.84787 10.7984 8.99607 10.8413 9.14069 10.8769C9.20914 10.8939 9.23533 10.9628 9.26925 11.0274C9.30139 11.0927 9.34186 11.1525 9.42281 11.1404C9.55018 11.1471 9.6835 11.1531 9.81444 11.1271C9.88586 11.1126 9.93228 11.0286 9.94359 10.9162C9.95311 10.8171 9.918 10.7688 9.87395 10.7488C9.84598 10.7343 9.81801 10.7174 9.79003 10.7029C9.76266 10.6866 9.73528 10.6739 9.70671 10.6666C9.65017 10.6515 9.59124 10.6618 9.51328 10.7313C9.41507 10.8183 9.36686 10.8075 9.38174 10.6666C9.39186 10.5748 9.37341 10.5264 9.32103 10.5476C9.22699 10.5863 9.14605 10.5778 9.06868 10.5609C8.9919 10.5428 8.92226 10.5138 8.83775 10.5011C8.79132 10.4932 8.70919 10.524 8.66098 10.6002C8.60979 10.683 8.6711 10.7029 8.71693 10.7265L8.71752 10.7259Z" fill="black"/>
<path d="M7.56231 10.4232C7.66885 10.4039 7.66647 10.4921 7.70694 10.5404C7.7242 10.5616 7.73908 10.5839 7.75515 10.6057C7.82835 10.6057 7.88013 10.6196 7.90989 10.651C7.94144 10.6812 7.95394 10.7284 7.95096 10.7948L7.94441 10.8269L7.9587 10.7955C8.02714 10.7441 8.10928 10.6988 8.16106 10.7483C8.24319 10.8232 8.33188 10.8897 8.42413 10.9489C8.51698 11.0076 8.61161 11.0607 8.70565 11.1133C8.80088 11.1647 8.89551 11.2154 8.98895 11.2723C9.08359 11.3278 9.17703 11.3889 9.27226 11.462C9.32285 11.4989 9.32285 11.5533 9.28476 11.6179C9.26631 11.6469 9.21453 11.5901 9.21334 11.6651L9.28833 11.6336C9.39189 11.6082 9.5139 11.6089 9.58473 11.5315C9.72638 11.378 9.78947 11.2892 9.79245 11.6016C9.84065 11.5937 9.88886 11.5811 9.93588 11.5708C9.95791 11.4807 9.96743 11.3665 10.0668 11.4173C10.0984 11.4324 10.1204 11.4886 10.1002 11.5309C10.0597 11.6149 9.99302 11.5774 9.93648 11.5726C10.1305 11.746 10.3412 11.7249 10.4454 11.5303C10.4882 11.4529 10.543 11.3701 10.5453 11.2807C10.5561 11.0142 10.6144 10.8559 10.6834 10.7423C10.7179 10.6849 10.7531 10.6414 10.8042 10.5942C10.8519 10.5495 10.9025 10.5126 10.9501 10.4661C11.0054 10.4147 11.0643 10.4758 11.1262 10.4927C11.2161 10.5205 11.3078 10.5592 11.2363 10.3446C11.2119 10.2721 11.2834 10.28 11.3244 10.3374C11.3982 10.4413 11.4643 10.5555 11.5661 10.709C11.575 10.3265 11.7053 10.1772 11.9172 10.0401C11.9922 9.9887 12.0559 9.92222 12.1125 9.84245C12.141 9.80317 12.1684 9.7651 12.1946 9.7228L12.2142 9.69137L12.2243 9.67566C12.2279 9.67022 12.2309 9.66539 12.2309 9.66358L12.2404 9.63094C12.2511 9.59589 12.3017 9.6388 12.3612 9.69077C12.388 9.74999 12.4148 9.80982 12.4928 9.88475C12.4975 9.8346 12.4005 9.75422 12.3684 9.695C12.3725 9.62611 12.4458 9.62007 12.413 9.51612C12.3618 9.35417 12.3583 9.25808 12.5963 9.40433C12.6065 9.41037 12.5928 9.36505 12.5898 9.34329C12.5642 9.34087 12.5511 9.36082 12.488 9.28769C12.4797 9.27803 12.4719 9.26292 12.4725 9.25869C12.4773 9.22303 12.5338 9.28467 12.5755 9.31731C12.7773 9.41883 12.7666 9.30945 12.6797 9.14085C12.641 9.0647 12.6035 8.99219 12.7618 9.13541L12.8094 9.2188C12.8338 9.24418 12.8296 9.27198 12.8779 9.29495L12.8207 9.22424L12.7707 9.13964C12.8058 9.0774 12.6731 8.86528 12.91 8.98554C12.9165 8.98856 12.91 8.95955 12.8981 8.94022C12.7618 8.72931 12.9195 8.76557 12.9915 8.72689C13.0118 8.73354 13.0594 8.79276 13.06 8.76194L12.9892 8.72327C12.9392 8.67795 12.8838 8.62477 12.9243 8.62416C12.9802 8.62295 13.0683 8.65075 13.029 8.56494C12.9903 8.47913 12.9475 8.4054 13.1427 8.52747C13.2492 8.59395 13.2165 8.50572 13.2016 8.45254C13.1862 8.39634 13.1969 8.37337 13.3165 8.47067L13.3736 8.55346C13.3796 8.57642 13.3766 8.59576 13.3945 8.62356C13.4105 8.64894 13.4439 8.66525 13.4355 8.64471C13.4254 8.61933 13.3998 8.58609 13.3808 8.55648L13.326 8.4749C13.2766 8.39211 13.1909 8.28937 13.2802 8.28937C13.3022 8.28937 13.3254 8.28031 13.3135 8.26037C13.1796 8.03979 13.3504 8.06397 13.5028 8.06578L13.5843 8.10445L13.4974 8.05853C13.2832 7.844 13.2659 7.72676 13.4915 7.84702C13.8176 8.02106 13.7581 7.91289 13.6903 7.78417C13.6766 7.75758 13.7129 7.75395 13.726 7.73945L13.7444 7.74187L13.72 7.7316C13.5974 7.65545 13.5593 7.59744 13.545 7.54668C13.523 7.4657 13.5933 7.48685 13.7653 7.61436C13.8105 7.6482 13.8337 7.69292 13.9164 7.71528C13.8682 7.63611 13.8188 7.55514 13.7671 7.47476C13.7391 7.43186 13.7117 7.38412 13.7926 7.41554C13.951 7.47597 13.9123 7.40285 13.8498 7.34302C13.6694 7.16898 13.7873 7.18651 13.9254 7.20524L13.9438 7.22397L13.9313 7.20645C13.876 7.12849 13.8087 7.04631 14.0533 7.17744C14.0611 7.18469 14.0682 7.19497 14.0759 7.1992C14.0974 7.21068 14.1194 7.21914 14.1414 7.22881L14.164 7.23002L14.1378 7.22397L14.0551 7.17805C14.173 7.18046 14.217 7.13635 14.1581 7.03905C14.1414 7.01186 14.1057 6.97681 14.0938 6.95203C14.0176 6.79914 14.042 6.80398 14.392 6.97318C14.4081 6.98104 14.4289 6.97621 14.4491 6.97681C14.4467 6.92967 14.3414 6.90792 14.286 6.87589C14.0283 6.72723 13.9855 6.68916 14.1384 6.68432C14.2468 6.68009 14.2634 6.64263 14.2146 6.5683C14.192 6.53325 14.2712 6.56225 14.336 6.59126L14.3598 6.60818L14.3432 6.59247C14.3337 6.5544 14.2706 6.49336 14.339 6.49155C14.5557 6.4849 14.4753 6.35558 14.4021 6.24378C14.3956 6.2329 14.4473 6.23774 14.4717 6.23472C14.4991 6.24801 14.5039 6.27158 14.5586 6.27279L14.4741 6.23472C14.5259 6.20994 14.5604 6.17791 14.586 6.14226C14.6098 6.106 14.6211 6.06611 14.6324 6.02502C14.6426 5.98393 14.6533 5.94102 14.6658 5.89932C14.6777 5.85763 14.6955 5.81653 14.7283 5.77725C14.955 5.87757 15.0997 5.9658 15.3264 6.02683C15.3145 5.90416 15.2734 5.87092 14.9479 5.78813C14.811 5.75369 14.7152 5.73314 14.6783 5.68117C14.636 5.62497 14.7021 5.61288 14.8574 5.62074C14.9366 5.62557 15.0348 5.62436 14.9931 5.59536C14.8675 5.50834 15.0586 5.44911 14.8467 5.36391C14.739 5.32221 14.7372 5.28232 14.7925 5.25029C14.8455 5.22008 14.8902 5.19832 14.8152 5.15119C14.7211 5.09438 14.8824 5.07202 15.1836 5.08592L15.211 5.09257L15.1877 5.08471C15.1824 5.07625 15.1776 5.06779 15.1735 5.05994C15.1622 5.05692 15.1502 5.05389 15.1407 5.05027C15.1395 5.05027 15.155 5.04664 15.1627 5.04483L15.1967 5.05389C15.2877 5.00615 15.1895 4.985 15.0348 5.00071C14.8003 5.02066 14.8253 4.99951 14.8729 4.96143C14.9205 4.92095 14.911 4.87804 14.8628 4.83695L14.8396 4.817C15.0818 4.78981 15.0056 4.74993 14.9657 4.72092C14.8913 4.66653 15.3211 4.64598 15.2235 4.59341C15.1651 4.56319 14.9693 4.58253 14.9747 4.52875C14.9806 4.43991 15.0681 4.31482 14.8872 4.27615C14.8277 4.26466 14.9604 4.21451 15.0473 4.17402C15.1354 4.13413 15.1758 4.10392 14.9372 4.14561C14.9044 4.09485 14.8711 4.0453 14.8336 3.99937C14.7848 3.94257 14.767 3.88274 14.8068 3.78605C14.8413 3.70266 14.8663 3.60053 14.7211 3.59327C14.5741 3.58784 14.6068 3.56971 14.9217 3.36726C14.9521 3.34792 14.9842 3.32798 14.9759 3.32133C14.9651 3.31227 14.9455 3.30683 14.9157 3.31348C14.8211 3.33342 14.6473 3.3582 14.6574 3.32557C14.6729 3.27299 14.6366 3.25547 14.5961 3.24398C14.5551 3.2325 14.5122 3.22465 14.5128 3.18234C14.5116 3.15032 14.4265 3.1763 14.5789 3.0506C14.636 3.00407 14.6414 2.98473 14.6027 3.00165C14.4825 3.05242 14.4408 3.03731 14.4098 3.0083C14.3771 2.98232 14.3545 2.94304 14.2801 2.9654C14.1438 3.00951 14.4003 2.75872 14.4622 2.6294C14.214 2.85783 14.1087 2.90859 14.117 2.77504C14.1206 2.71582 14.098 2.69104 14.0438 2.70977C13.97 2.73757 13.9057 2.75933 13.8629 2.75147C13.8409 2.74784 13.8248 2.73515 13.8141 2.71038C13.8028 2.68741 13.798 2.65176 13.7992 2.59918C13.7415 2.67533 13.7563 2.60946 13.7635 2.54661C13.7712 2.48497 13.7706 2.42635 13.6992 2.53634C13.6563 2.60341 13.6385 2.59254 13.6224 2.56534C13.6069 2.53815 13.5909 2.49887 13.5635 2.50672C13.4968 2.52848 13.4415 2.54238 13.404 2.4336C13.3879 2.38767 13.3617 2.4046 13.3361 2.4336C13.31 2.46261 13.285 2.49887 13.2641 2.48376C13.2379 2.46321 13.2088 2.45234 13.179 2.44508C13.1493 2.43844 13.1201 2.43058 13.0891 2.43058C13.0582 2.42877 13.0272 2.42695 12.9963 2.42212C12.9647 2.4191 12.9332 2.41487 12.9005 2.40339C12.8725 2.39251 12.8439 2.38586 12.8148 2.37982L12.8041 2.3774C12.7993 2.3768 12.7999 2.37559 12.7886 2.37559L12.735 2.37438L12.6261 2.37921C12.4797 2.38949 12.3285 2.41185 12.1738 2.44569C12.0196 2.48134 11.8631 2.52606 11.7042 2.57743C11.5447 2.63 11.3863 2.68983 11.2209 2.7551C10.9751 2.8536 10.7227 2.97144 10.4745 3.11345C10.2263 3.25607 9.98231 3.42225 9.75257 3.61261C9.65317 3.6948 9.50676 3.81506 9.40498 3.72381C9.12644 3.47 9.13001 3.74677 9.04311 3.84467C8.94729 3.95224 8.86337 4.07068 8.7735 4.18369C8.73719 4.22901 8.69851 4.27494 8.62292 4.23143C8.56281 4.19638 8.49376 4.12265 8.51817 4.08337C8.62946 3.89724 8.42294 3.7655 8.3908 3.60476C8.29795 3.14548 8.52174 2.78894 8.75445 2.44811C8.97467 2.12661 9.24607 1.82687 9.55556 1.54768C9.70972 1.40809 9.87279 1.27272 10.0448 1.1434C10.2138 1.01287 10.4001 0.885358 10.5846 0.764496C11.112 0.422456 11.725 0.185566 12.3946 0.0852509L12.5731 0.0634957C12.6076 0.0598698 12.641 0.054431 12.6761 0.0526181L12.8844 0.0356974C13.0266 0.0260284 13.1683 0.0157551 13.3105 0.00608617C13.7272 -0.0259423 14.1444 0.0961285 14.5694 0.180732C14.6717 0.198861 14.7687 0.231494 14.8658 0.265335C14.9604 0.302803 15.0568 0.341479 15.1479 0.386802C15.3348 0.472614 15.5115 0.569908 15.7085 0.645447C15.7776 0.67385 15.8436 0.710108 15.9043 0.75241C15.9639 0.795316 16.0216 0.841848 16.0758 0.891401L16.2353 1.04248C16.287 1.09385 16.3412 1.14279 16.3983 1.18872C16.6203 1.37002 16.7947 1.59603 16.9507 1.82627C17.1078 2.05772 17.2483 2.2934 17.4197 2.5176C17.4578 2.52304 17.4673 2.54238 17.4464 2.57501C17.5423 2.78773 17.6048 3.01374 17.6684 3.23552C17.7327 3.45791 17.7946 3.67788 17.894 3.89301C17.9726 4.06041 17.9696 4.2417 17.9583 4.41816C17.9529 4.50639 17.9428 4.59522 17.9422 4.68224C17.9381 4.77047 17.944 4.85689 17.9619 4.94572C17.9732 5.00313 17.9827 5.06054 17.9893 5.11856C17.9946 5.17294 17.9976 5.22673 17.9988 5.28111C18 5.38929 17.9988 5.49867 17.9827 5.60442C17.9672 5.71078 17.9464 5.81593 17.9214 5.91927C17.894 6.022 17.8589 6.12171 17.8238 6.22021C17.7309 6.46859 17.6792 6.71937 17.6089 6.96352C17.5768 7.0874 17.5339 7.20343 17.4851 7.31885C17.4375 7.43488 17.3732 7.54063 17.2965 7.64034C17.0542 7.94552 16.937 8.29723 16.6822 8.56192C16.4912 8.76315 16.3763 9.00186 16.1775 9.18436C16.0448 9.3022 15.9645 9.46355 15.8532 9.59771C15.6657 9.83218 15.4216 10.0105 15.23 10.2292C14.8913 10.6069 14.514 10.958 14.1182 11.3025C14.0748 11.3405 14.0301 11.3774 13.9855 11.4143C13.9397 11.4505 13.8926 11.4856 13.8456 11.52L13.8361 11.5273L13.8153 11.5448L13.7736 11.5792C13.7462 11.6022 13.7177 11.6246 13.6885 11.6469L13.5159 11.7799C13.457 11.8234 13.3968 11.8651 13.3367 11.908C13.2778 11.9509 13.2159 11.992 13.1534 12.0319C12.9082 12.1956 12.6451 12.3437 12.3731 12.4772C12.1023 12.6132 11.8137 12.7268 11.5185 12.8253C11.4578 12.8447 11.3941 12.8537 11.3304 12.858C11.2673 12.8622 11.1965 12.858 11.1334 12.8555C11.0691 12.8513 11.0072 12.8465 10.9501 12.8483C10.8929 12.8483 10.84 12.8531 10.7918 12.8707C10.5364 12.9571 10.2989 12.9099 10.0591 12.9027C9.42165 12.8827 8.80266 12.644 8.33247 12.2011C8.08726 11.9702 7.79502 11.7152 7.56231 11.4245C7.51946 11.3683 7.47898 11.3176 7.48077 11.2686C7.48256 11.2197 7.52422 11.1786 7.63552 11.1369C7.74562 11.0946 7.77419 11.013 7.773 10.9272C7.773 10.8402 7.74443 10.7435 7.73015 10.6601C7.68432 10.6637 7.63552 10.6764 7.59445 10.6655C7.5516 10.6546 7.52422 10.6299 7.50993 10.5984C7.49684 10.567 7.49743 10.5277 7.50636 10.4891C7.51231 10.4637 7.5385 10.4268 7.55993 10.4232H7.56231ZM9.12465 2.4475C9.0949 2.46986 9.06752 2.48316 9.05026 2.50552C9.03954 2.51941 9.04371 2.5454 9.04133 2.56534C9.06454 2.54842 9.09073 2.53513 9.10918 2.51337C9.12049 2.50008 9.1187 2.4747 9.12465 2.4475ZM10.7787 1.95076C10.8048 1.9429 10.8352 1.94048 10.856 1.92598C10.8739 1.91329 10.881 1.88549 10.8947 1.86132C10.865 1.87038 10.8346 1.8722 10.8138 1.88731C10.7959 1.9006 10.79 1.92961 10.7787 1.95136V1.95076ZM11.2334 1.9991C11.0751 2.07102 10.9751 2.12117 10.8501 2.19067C11.0471 2.2644 11.109 2.17012 11.2334 1.9991ZM13.5093 1.21712C13.5171 1.22075 13.5308 1.19718 13.5421 1.1857C13.5581 1.15911 13.5623 1.1295 13.5486 1.12225C13.5403 1.11802 13.526 1.13796 13.5153 1.15428C13.4992 1.17905 13.4962 1.21108 13.5093 1.21712ZM13.004 1.09566C13.0433 1.11258 13.0772 1.12708 13.1106 1.14098L13.1207 1.16092L13.1135 1.13313C13.0832 1.07269 13.0481 1.02556 13.004 1.09566ZM12.7189 0.580786C12.7213 0.590455 12.7302 0.598311 12.7356 0.598311C12.7392 0.598311 12.7416 0.583807 12.7445 0.575951C12.7398 0.562052 12.7356 0.543923 12.7302 0.540297C12.7136 0.527002 12.7082 0.543923 12.7183 0.58139L12.7189 0.580786ZM12.2595 1.17361C12.2696 1.18026 12.2797 1.19174 12.2904 1.19295C12.3041 1.19477 12.3243 1.19416 12.3309 1.1851C12.3511 1.15609 12.3368 1.14038 12.2946 1.15005C12.2815 1.15307 12.2708 1.16576 12.2595 1.17361ZM13.4998 1.52653L13.5123 1.42682C13.4695 1.42078 13.4278 1.40084 13.3832 1.41232C13.3338 1.4244 13.2861 1.43166 13.2391 1.43347C13.1921 1.43528 13.1451 1.42863 13.0981 1.42561C13.0511 1.42138 13.0034 1.41413 12.9558 1.40869C12.9082 1.40567 12.86 1.40265 12.8124 1.40386C12.7886 1.40386 12.7666 1.40748 12.7451 1.41413C12.7344 1.41715 12.7237 1.42078 12.713 1.42561L12.6969 1.43226C12.6898 1.43468 12.691 1.43649 12.6731 1.44072C12.5207 1.4806 12.3714 1.56037 12.2238 1.58515C12.075 1.61234 11.9244 1.58636 11.7446 1.42561C11.6321 1.49571 11.6929 1.61778 11.656 1.69513C11.628 1.75677 11.5768 1.79847 11.5083 1.89939C11.7643 1.77309 12.0291 1.6758 12.297 1.61295C12.3642 1.59905 12.4309 1.58092 12.4981 1.57186L12.5987 1.55493C12.632 1.5495 12.6666 1.54708 12.6987 1.54285C12.7529 1.53681 12.807 1.53197 12.8612 1.53076C13.0766 1.51868 13.2867 1.5223 13.5016 1.52593L13.4998 1.52653ZM14.3081 1.32107L14.3253 1.30838L14.342 1.28783L14.3259 1.29871L14.3081 1.32167V1.32107ZM14.17 1.36095C14.1736 1.36276 14.1855 1.34947 14.192 1.33859C14.1974 1.33013 14.2003 1.31381 14.2045 1.30173C14.1986 1.30233 14.192 1.2981 14.1861 1.30535C14.1628 1.33194 14.1563 1.35491 14.17 1.36156V1.36095ZM13.9289 1.22619C13.9658 1.25157 13.9956 1.28723 14.0533 1.24613C14.0224 1.20443 13.9902 1.16153 13.9289 1.22619ZM13.701 1.13071C13.7218 1.21048 13.7528 1.1996 13.7813 1.19839C13.7998 1.19718 13.8081 1.16455 13.792 1.15367C13.7682 1.13675 13.7391 1.13856 13.701 1.13071ZM14.2783 1.54406C14.2045 1.58152 14.1622 1.56521 14.1206 1.55252C14.0789 1.54164 14.0379 1.5362 13.9783 1.59603C13.9563 1.55735 13.9266 1.53681 13.895 1.52291C13.8629 1.50961 13.8289 1.50357 13.7932 1.50357C13.7581 1.50296 13.7224 1.50478 13.6879 1.50236C13.6534 1.50115 13.6194 1.49813 13.5879 1.48302C13.7069 1.59724 13.8081 1.67821 13.9771 1.60872C14.0176 1.60872 14.0379 1.66915 14.073 1.6909C14.1081 1.71387 14.1587 1.69574 14.2789 1.54345L14.2783 1.54406ZM15.2473 0.859373L15.2508 0.878107L15.2639 0.861186L15.2473 0.859373ZM14.6265 1.41292C14.6437 1.45099 14.6152 1.55735 14.7003 1.48846C14.7277 1.38875 14.6705 1.40809 14.6265 1.41292ZM14.7687 0.688353C14.7735 0.702252 14.7747 0.722194 14.7836 0.727633C14.7955 0.734281 14.8134 0.729446 14.8288 0.73005L14.8146 0.688353H14.7687ZM14.4789 1.56883C14.4176 1.60509 14.3967 1.52774 14.2795 1.66975C14.3551 1.64498 14.3843 1.68849 14.4789 1.56883ZM14.6943 1.78336L14.7051 1.75557C14.7122 1.72052 14.6991 1.71387 14.6717 1.73079L14.5926 1.79243C14.5164 1.80331 14.4902 1.72112 14.3967 1.77128C14.3491 1.79726 14.3122 1.84561 14.2849 1.93021C14.264 1.99487 14.2694 2.02025 14.3152 1.97553C14.417 1.87764 14.4711 1.92236 14.5902 1.8027L14.6693 1.73985L14.6985 1.7598L14.6943 1.78276V1.78336ZM14.7574 2.05228C14.8794 1.88731 15.0038 1.72595 15.0628 1.54345C15.0336 1.5785 15.0026 1.61234 14.9765 1.64921C14.9372 1.7042 14.8967 1.73804 14.8538 1.78095C14.6533 1.98279 14.6557 1.98641 14.7574 2.05228ZM16.2769 3.71535C16.287 3.71595 16.2995 3.71897 16.3061 3.71655C16.3269 3.70809 16.3448 3.69782 16.3644 3.68815L16.2775 3.71535H16.2769ZM16.3841 3.64404L16.3704 3.68453C16.3841 3.66942 16.4489 3.64464 16.3841 3.64404ZM16.4483 3.49115L16.459 3.50082L16.4709 3.48571L16.4483 3.49115ZM16.3573 3.39869C16.3579 3.40292 16.3757 3.40413 16.3876 3.40171C16.3977 3.3999 16.4114 3.39023 16.4239 3.38418C16.4198 3.37935 16.4204 3.37089 16.4108 3.37089C16.3751 3.37089 16.3537 3.38177 16.3573 3.39869ZM16.9042 3.01918L16.8989 3.0645L16.8935 3.10922L16.8804 3.12735L16.9019 3.10922C16.9144 3.0923 16.9328 3.07417 16.937 3.05906C16.9429 3.03912 16.9614 3.00951 16.9036 3.01918H16.9042ZM17.3965 2.55144L17.3786 2.57078H17.4036L17.3965 2.55144ZM16.3983 2.40037C16.4215 2.4058 16.4614 2.39674 16.4942 2.39432C16.5144 2.36894 16.5287 2.35021 16.543 2.33208C16.5073 2.33993 16.4721 2.34477 16.4352 2.35746C16.4019 2.36894 16.3787 2.39614 16.3983 2.40097V2.40037ZM16.4668 1.95076L16.4632 1.9713L16.487 1.95499L16.4674 1.95136L16.4668 1.95076ZM16.3799 1.84198L16.3775 1.86132L16.3977 1.84621L16.3793 1.84198H16.3799ZM15.6413 2.1816C15.7198 2.24747 15.6597 2.41003 15.8186 2.4336C15.8496 2.34356 15.8163 2.30005 15.7722 2.26923C15.7282 2.23781 15.6692 2.22149 15.6413 2.1816ZM16.2001 1.5918C16.1769 1.60509 16.1746 1.6202 16.1948 1.62806C16.2001 1.63047 16.2115 1.62624 16.2204 1.62443V1.59905C16.2138 1.59603 16.2073 1.58757 16.2001 1.59119V1.5918ZM15.4913 2.03838C15.4788 2.04926 15.4746 2.07404 15.4639 2.097C15.4865 2.0964 15.5097 2.10909 15.5341 2.09277C15.5937 2.0541 15.5609 2.04503 15.5538 2.03415C15.5454 2.02086 15.5365 1.9991 15.4913 2.03838ZM15.9371 1.4238H15.9597C15.9871 1.40627 15.9853 1.45704 16.0281 1.40386L15.9633 1.41534L15.9371 1.4238ZM14.9253 2.04503C14.9491 2.02086 14.9598 1.99971 14.9467 1.99366C14.9384 1.98943 14.9199 1.99729 14.9062 1.99971C14.8967 2.02025 14.8777 2.05107 14.8806 2.05893C14.8836 2.06618 14.9092 2.05107 14.9253 2.04563V2.04503ZM15.3502 1.82808C15.3371 1.80391 15.3056 1.80633 15.2598 1.8305C15.2485 1.78639 15.2824 1.6903 15.1889 1.72475C15.1235 1.8583 15.1746 1.85951 15.2574 1.83533C15.2967 1.81962 15.2729 1.89879 15.3502 1.82748V1.82808ZM15.0276 2.68197L15.033 2.66626L15.0157 2.67956L15.0282 2.68197H15.0276ZM15.0616 2.92853L15.0437 2.93155C15.0157 2.94606 15.0312 2.90799 14.98 2.9515L15.0378 2.93941L15.0616 2.92853ZM15.6169 2.73697C15.6323 2.63907 15.4544 2.66445 15.5062 2.55326C15.5443 2.46926 15.5282 2.42635 15.4907 2.40339C15.4526 2.38042 15.3949 2.37559 15.349 2.36109C15.3681 2.26621 15.3252 2.2227 15.2663 2.19792C15.205 2.17496 15.1288 2.16952 15.0705 2.14776C15.0866 2.27829 15.1235 2.37317 15.2449 2.40399C15.2294 2.433 15.233 2.44508 15.2693 2.42816C15.2431 2.55144 15.2788 2.61248 15.3467 2.65297C15.4163 2.69225 15.5157 2.71159 15.6157 2.73697H15.6169ZM16.0668 2.72609L16.0793 2.74059L16.0859 2.75872L16.0698 2.78048L16.0882 2.75812C16.1156 2.7273 16.1091 2.71521 16.0692 2.72307C16.1067 2.5871 16.0133 2.53029 15.8466 2.54177L15.8621 2.52002L15.8395 2.54359C15.8055 2.60644 15.7198 2.70071 15.8299 2.67714C15.9615 2.65055 15.9454 2.74422 16.0668 2.72609ZM15.2984 3.15455L15.2949 3.1479L15.2711 3.16603L15.2984 3.15455ZM15.2639 3.3999L15.2526 3.39506L15.2443 3.40836L15.2633 3.39929L15.2639 3.3999ZM15.6169 3.302L15.5972 3.30079C15.5675 3.30985 15.5895 3.27178 15.5312 3.30744H15.5907L15.6163 3.302H15.6169ZM15.965 3.24157C16.14 3.1485 15.9877 3.13279 15.946 3.09834C15.9002 3.05967 15.8359 3.02583 16.0549 2.91282L16.0829 2.90557H16.0609C15.8067 2.98896 15.8097 2.84453 15.6032 2.89832C15.6651 2.92914 15.6811 2.98836 15.6936 3.04637C15.7055 3.1056 15.7186 3.1624 15.7764 3.19745C15.8234 3.22525 15.7817 3.33886 15.965 3.24217V3.24157ZM16.2061 3.19806C16.4162 3.04275 16.2793 3.01132 16.2186 2.95694C16.1388 3.06752 16.2745 3.09532 16.2061 3.19806ZM15.9287 3.38358C15.9389 3.37935 15.9531 3.36726 15.9561 3.36062C15.9585 3.35518 15.9472 3.35336 15.9424 3.35034C15.9293 3.35699 15.9103 3.36424 15.9037 3.37028C15.8787 3.39446 15.8895 3.39929 15.9293 3.38358H15.9287ZM16.4162 3.2319C16.4108 3.23069 16.4061 3.22646 16.3995 3.22827C16.3739 3.23431 16.3477 3.24277 16.3222 3.25003L16.2948 3.25305L16.3174 3.25486L16.4168 3.2319H16.4162ZM15.9859 3.87609L16.0037 3.83681C16.0859 3.7927 16.1698 3.74858 16.2734 3.71595C16.1674 3.63195 16.0573 3.55399 15.9103 3.46214C15.8912 3.63316 15.8901 3.74798 16.0008 3.83681C15.993 3.85071 15.921 3.8767 15.9853 3.87609H15.9859ZM17.037 4.23203L17.0465 4.24351L17.0578 4.22961L17.037 4.23203ZM16.6126 4.16677C16.6263 4.17462 16.6334 4.18852 16.6543 4.19033C16.6858 4.19275 16.7072 4.18006 16.6953 4.16677C16.6858 4.1571 16.6721 4.14622 16.6507 4.14259C16.6275 4.13836 16.6096 4.15045 16.6126 4.16677ZM16.5156 3.84527C16.4281 3.94861 16.5489 3.98124 16.6555 4.02959C16.6203 3.98245 16.6376 3.92988 16.6638 3.87186C16.684 3.82533 16.5977 3.83137 16.5156 3.84588V3.84527ZM16.4555 4.41453L16.4317 4.40728C16.421 4.22599 16.2561 4.08397 16.1478 3.92081C16.0258 4.01206 16.0121 4.07068 16.0228 4.12446C16.0347 4.17764 16.0686 4.22599 16.0388 4.28219C15.9799 4.39278 16.1246 4.43266 16.4251 4.4103L16.4555 4.41393V4.41453ZM15.1943 9.52338H15.1764L15.1943 9.53788V9.52338ZM14.6604 9.06108C14.6402 9.08162 14.5866 9.07619 14.6223 9.13541C14.6711 9.13601 14.6854 9.11124 14.6604 9.06108ZM15.3586 9.21397L15.3306 9.19886L15.3508 9.22062L15.3586 9.21397ZM15.0163 8.74321C15.0032 8.74381 14.9842 8.74019 14.9788 8.74684C14.9723 8.75469 14.9776 8.77101 14.9782 8.78612C14.9925 8.7843 15.0104 8.78733 15.0151 8.78068C15.0211 8.77222 15.0163 8.75651 15.0163 8.74382V8.74321ZM15.5734 9.04355L15.5639 9.04839L15.5925 9.0641L15.5734 9.04355ZM15.0211 8.4048C14.9848 8.38002 14.9687 8.37821 14.9794 8.40057C15.0217 8.4332 15.0669 8.47308 15.1169 8.50632C15.1431 8.52385 15.1556 8.51116 15.1282 8.48638C15.0973 8.45858 15.0586 8.43078 15.0211 8.4054V8.4048ZM15.8591 8.6997C15.7924 8.74261 15.7526 8.76557 15.7847 8.83567C15.8567 8.82902 15.849 8.77584 15.8591 8.6997ZM15.6163 8.34074H15.5984L15.6157 8.35404V8.34074H15.6163ZM15.2443 8.03435L15.2556 8.05188C15.2764 8.13165 15.299 8.21323 15.3288 8.34437C15.3925 8.25311 15.3943 8.17879 15.2645 8.05369L15.2443 8.03496V8.03435ZM16.3317 8.46402L16.2942 8.48275L16.3073 8.52203C16.3198 8.51599 16.3388 8.51357 16.3436 8.5033C16.3477 8.49484 16.3364 8.47792 16.3317 8.46462V8.46402ZM16.246 8.22048L16.2275 8.22229L16.2454 8.23438V8.22048H16.246ZM16.371 7.79686C16.3418 7.79384 16.3406 7.80532 16.3626 7.82647C16.3763 7.83191 16.3936 7.84158 16.4031 7.84279C16.4323 7.84581 16.4358 7.83433 16.4108 7.81318C16.4037 7.80713 16.3811 7.79807 16.371 7.79686ZM16.1507 7.63853L16.1222 7.63007L16.1466 7.64639L16.1507 7.63853ZM15.9115 7.37143C15.8627 7.35088 15.827 7.34967 15.8103 7.35934C15.8091 7.38412 15.8389 7.41191 15.8829 7.43488C15.9365 7.46268 15.9674 7.45784 15.9752 7.43911C15.9829 7.42037 15.9674 7.39499 15.9115 7.37143ZM16.5495 7.47839L16.5203 7.46872L16.5418 7.48443L16.5495 7.47839ZM16.3216 7.32066L16.3245 7.33456L16.3406 7.32973L16.3216 7.32066ZM16.7709 7.28199L16.7566 7.28924L16.7769 7.2971L16.7715 7.28199H16.7709ZM16.8935 7.20343L16.8971 7.21853L16.9138 7.21189L16.8935 7.20343ZM16.1746 6.92061C16.1775 6.93149 16.2079 6.94901 16.2257 6.96352C16.24 6.96231 16.2698 6.96533 16.2722 6.95808C16.2757 6.94841 16.2662 6.92665 16.2489 6.91819C16.1936 6.88979 16.1674 6.89765 16.1746 6.92061ZM16.1995 6.7931L16.2031 6.80639L16.2192 6.80096L16.1995 6.7931ZM17.0483 6.77981C17.0393 6.78101 17.0263 6.78101 17.0221 6.78404C17.0161 6.78827 17.0114 6.79612 17.0167 6.80216C17.0328 6.81969 17.0501 6.81969 17.0566 6.80096C17.0584 6.79552 17.0512 6.78706 17.0483 6.77981ZM16.1371 6.46315L16.1519 6.47765L16.1746 6.49094L16.1615 6.47705L16.1365 6.46375L16.1371 6.46315ZM17.0655 6.65048L17.0727 6.66559L17.087 6.65653L17.0655 6.65048ZM16.4132 6.37613C16.4114 6.38096 16.4192 6.38882 16.4227 6.39486C16.4317 6.39365 16.4448 6.39426 16.4489 6.39123C16.4543 6.387 16.459 6.38036 16.4531 6.37492C16.4352 6.3592 16.4186 6.35921 16.4138 6.37613H16.4132ZM17.2417 6.3441L17.2447 6.3586L17.2619 6.35074L17.2417 6.3441ZM16.6775 5.62255L16.6608 5.63101L16.6822 5.63585L16.6775 5.62315V5.62255ZM17.0489 5.44247L17.0203 5.44488L17.0483 5.45213L17.0495 5.44247H17.0489ZM16.565 5.12279C16.5799 5.13971 16.5864 5.15965 16.6144 5.17294C16.6406 5.18563 16.6787 5.17717 16.6602 5.16388C16.6382 5.14817 16.5983 5.13608 16.565 5.12279ZM16.6959 4.73542C16.6918 4.75476 16.681 4.7741 16.6822 4.79283C16.6828 4.81036 16.7114 4.81459 16.7263 4.81096C16.8013 4.78739 16.784 4.76866 16.7578 4.75295C16.7441 4.74449 16.7168 4.74086 16.6953 4.73482L16.6959 4.73542ZM16.6745 4.5928C16.6316 4.5928 16.6162 4.60126 16.6358 4.61456C16.6418 4.61879 16.6614 4.61879 16.6745 4.62121C16.6822 4.61637 16.6965 4.61033 16.6959 4.6061C16.6953 4.60066 16.684 4.5928 16.6739 4.5928H16.6745ZM15.6889 4.8019C15.7883 4.77772 15.7246 4.74872 15.6698 4.72938L15.6419 4.72636L15.6615 4.733C15.6276 4.76382 15.5568 4.7741 15.4687 4.77652C15.4591 4.7747 15.4484 4.77108 15.4407 4.77228C15.4199 4.7747 15.4002 4.77893 15.3806 4.78256L15.2865 4.8019L15.3919 4.78618C15.4139 4.78014 15.4359 4.77833 15.458 4.78195C15.5347 4.78921 15.5984 4.82305 15.6889 4.8019ZM15.7323 4.97412L15.7484 4.96143C15.7448 4.9572 15.7454 4.94995 15.7377 4.94935C15.7115 4.94633 15.6996 4.95297 15.7103 4.96566C15.7133 4.96869 15.7246 4.97171 15.7323 4.97473V4.97412ZM15.4455 5.17053C15.4883 5.16811 15.4847 5.16327 15.4353 5.15904C15.4222 5.15784 15.408 5.15904 15.3943 5.15965C15.3967 5.16267 15.3972 5.1675 15.4026 5.16811C15.4163 5.16992 15.433 5.17113 15.4461 5.17053H15.4455ZM15.4562 5.64249L15.4336 5.63041C15.4139 5.6153 15.4032 5.59838 15.3722 5.58629C15.3496 5.57723 15.3044 5.58387 15.3217 5.59354C15.3449 5.60684 15.3931 5.61832 15.43 5.63101L15.4556 5.6431L15.4562 5.64249ZM15.4127 6.20994C15.4205 6.21115 15.4234 6.20511 15.4288 6.20269C15.4193 6.19665 15.4109 6.18879 15.4002 6.18577C15.3603 6.17429 15.3496 6.17912 15.3752 6.19665C15.3818 6.20148 15.402 6.20813 15.4127 6.20994ZM14.8931 6.42991L14.8461 6.36162L14.8217 6.34772L14.836 6.36102C14.8396 6.36646 14.8396 6.3725 14.8473 6.37854C14.8729 6.39788 14.808 6.39969 14.8931 6.42991ZM14.5795 6.67768C14.6765 6.71696 14.6914 6.70064 14.7003 6.68312C14.7051 6.67284 14.7199 6.6523 14.6515 6.639C14.5991 6.62873 14.4711 6.56105 14.4991 6.61604C14.5069 6.63115 14.5563 6.65955 14.5801 6.67707L14.5795 6.67768ZM15.1163 6.91819L15.077 6.87408L15.0544 6.85716L15.0699 6.87347C15.0937 6.88979 15.0485 6.89583 15.1163 6.91819ZM14.436 7.19013L14.4521 7.18892L14.4337 7.17805L14.436 7.19013ZM14.2491 7.37989L14.27 7.3823C14.2587 7.37384 14.248 7.36417 14.2361 7.35753C14.1938 7.33456 14.1837 7.33456 14.2105 7.35753C14.2194 7.36478 14.2361 7.37263 14.2491 7.38049V7.37989ZM14.0438 8.07122V8.05974L14.0271 8.05792L14.0438 8.07122ZM14.3723 8.50813C14.514 8.56796 14.4902 8.47369 14.6176 8.54198C14.6372 8.56313 14.6318 8.5879 14.686 8.60361L14.6265 8.54379C14.7408 8.51236 14.6753 8.36431 14.7051 8.2797C14.7306 8.20235 14.7062 8.13286 14.9669 8.28756C15.0604 8.34316 15.1145 8.32624 14.98 8.22653C14.9431 8.19873 14.8705 8.15219 14.8967 8.15099C15.0717 8.1389 14.8902 7.91591 15.0348 7.88811C15.1461 7.89053 15.161 7.82828 15.1175 7.74912C15.0711 7.66512 15.4461 7.85064 15.2246 7.65968C15.1717 7.61436 15.2871 7.64337 15.3639 7.68204C15.4895 7.74549 15.5204 7.85487 15.6978 7.90322C15.6877 7.8168 15.846 7.77752 15.524 7.60711C15.505 7.61557 15.4931 7.63067 15.4639 7.63007C15.4365 7.63007 15.374 7.61678 15.3574 7.60409C15.2865 7.55091 15.3353 7.55272 15.3818 7.55755C15.4157 7.56118 15.4574 7.57206 15.4955 7.57991C15.4984 7.57206 15.502 7.5648 15.5068 7.55755C15.4996 7.54909 15.4901 7.54003 15.4859 7.53217C15.4847 7.53036 15.5068 7.53278 15.5091 7.53519C15.5204 7.54365 15.5288 7.55272 15.5383 7.56118C15.6675 7.54003 15.3467 7.38593 15.4336 7.34544C15.5175 7.30495 15.5294 7.22397 15.5651 7.15629C15.6014 7.088 15.655 7.03059 15.8252 7.02334C15.874 7.02153 15.8585 6.97621 15.821 6.93451L15.7454 6.94478C15.6889 6.90006 15.7555 6.91215 15.7847 6.90671C15.7823 6.81304 15.8032 6.72965 15.8335 6.64867C15.8484 6.60818 15.8651 6.5683 15.8782 6.5272C15.8901 6.48611 15.9002 6.44381 15.9049 6.4003C15.9061 6.38942 15.8889 6.3731 15.8799 6.35981C15.977 6.36464 16.0847 6.3725 16.0942 6.32536C16.118 6.19423 16.1132 6.19423 16.4263 6.25285C16.4073 6.2039 16.2912 6.16341 16.2626 6.11144C16.2007 5.99481 16.168 5.88845 16.1722 5.78874C16.1781 5.68902 16.2055 5.59354 16.2603 5.49746C16.2882 5.4479 16.3698 5.40681 16.5531 5.41588C16.6376 5.42071 16.7179 5.41225 16.6763 5.36511C16.6483 5.33369 16.6322 5.31556 16.5078 5.32342C16.2835 5.3355 16.287 5.25573 16.2948 5.21101C16.3031 5.16146 16.4465 5.14333 16.5632 5.12218C16.5739 5.09136 16.6935 5.04302 16.5459 5.02791C16.2632 5.00011 16.2978 4.93545 16.3406 4.86172C16.3799 4.79827 16.3799 4.73603 16.3644 4.6762C16.3501 4.61577 16.3186 4.55775 16.2966 4.49853C16.074 4.54506 16.0293 4.58193 16.065 4.65203C16.1388 4.79706 16.2305 4.96083 16.0805 5.11614C16.0109 5.18624 15.9912 5.26359 16.0478 5.34759C16.1162 5.45334 16.0978 5.45878 15.8746 5.57602C15.8365 5.59536 15.8537 5.6292 15.9174 5.65941C16.0061 5.70051 16.0769 5.77302 16.0025 5.77484C15.7008 5.78028 15.9156 5.88603 15.893 5.94707C15.8668 6.01052 15.896 6.08424 15.9156 6.15797C15.9371 6.2323 15.9436 6.30482 15.8776 6.3586C15.7561 6.37431 15.7805 6.44018 15.7609 6.49094C15.7288 6.56709 15.6913 6.64202 15.5889 6.68795C15.5948 6.69399 15.6038 6.70125 15.6062 6.70668C15.6067 6.7085 15.5901 6.7085 15.5859 6.70668C15.5746 6.70125 15.5657 6.69399 15.5556 6.68795C15.5228 6.7647 15.5609 6.86803 15.5032 6.93874C15.4651 6.98527 15.427 7.03059 15.3877 7.07592C15.3496 7.12124 15.3121 7.16717 15.2758 7.21249C15.2002 7.30253 15.1252 7.39197 15.0485 7.47839C15.0026 7.52734 15.002 7.61013 14.9098 7.62282C14.8509 7.63067 14.7824 7.60167 14.8753 7.69111C14.9407 7.75395 14.9759 7.81499 15.0241 7.87723C14.9503 7.84158 14.88 7.81318 14.8568 7.83614C14.7919 7.90201 14.6527 7.91531 14.6842 8.04523C14.7009 8.11171 14.6997 8.18301 14.533 8.11896L14.5146 8.09902L14.5247 8.11654C14.5348 8.17093 14.567 8.23922 14.4396 8.20235C14.3723 8.18301 14.2956 8.19631 14.3325 8.23438C14.4961 8.40359 14.3878 8.42776 14.3723 8.50813ZM14.7437 8.83628C14.7902 8.86468 14.8515 8.92027 14.8669 8.88704C14.8717 8.87797 14.8675 8.85622 14.8527 8.84111C14.7949 8.7843 14.7634 8.80002 14.7247 8.78793C14.667 8.7698 14.7074 8.80546 14.7437 8.83628ZM13.9391 8.32926C13.9551 8.34195 13.9789 8.3498 13.9992 8.35947C13.9789 8.33047 13.9617 8.30267 13.9379 8.27245C13.9188 8.24888 13.8986 8.24103 13.8885 8.25191C13.8813 8.26883 13.8968 8.29542 13.9397 8.32926H13.9391ZM15.2538 9.43575C15.3109 9.41279 15.3597 9.38801 15.3175 9.27803C15.2371 9.30885 15.2526 9.37351 15.2538 9.43575ZM13.9724 8.77464C14.1301 8.86166 14.1623 8.80908 14.2753 8.90577C14.3325 8.95472 14.395 8.97225 14.3509 8.91483C14.239 8.7704 14.3485 8.73898 14.164 8.51418C14.17 8.66646 14.1474 8.76859 13.9724 8.77464ZM15.2401 9.7651L15.261 9.76147C15.255 9.75181 15.2508 9.73972 15.2425 9.73307C15.2062 9.70406 15.1937 9.70527 15.2116 9.73609C15.2163 9.74395 15.2306 9.75543 15.2401 9.76571V9.7651ZM14.0575 8.95472L14.0843 8.97043L14.0634 8.94807L14.0575 8.95472ZM14.5075 9.34933C14.5158 9.35175 14.5313 9.359 14.5319 9.35659C14.533 9.35115 14.5295 9.34027 14.5211 9.33181C14.495 9.30462 14.4789 9.29978 14.4831 9.32093C14.4842 9.32637 14.4991 9.33967 14.5075 9.34994V9.34933ZM14.1944 9.21518L14.1962 9.20309L14.1783 9.20067L14.1944 9.21578V9.21518ZM14.8485 9.91678C14.7604 9.92041 14.7902 9.98265 14.9205 10.1204C14.986 10.0401 15.0449 9.96392 15.1032 9.88717C15.1407 9.90107 15.1461 9.88898 15.1294 9.85937L15.1092 9.83339L15.1217 9.85575L15.1122 9.87085L15.1008 9.88415C15.0163 9.89563 14.9372 9.91195 14.8479 9.91618L14.8485 9.91678ZM14.3432 9.54694C14.3372 9.53969 14.3164 9.52519 14.3122 9.52519C14.3063 9.52519 14.3087 9.53486 14.3075 9.5409C14.317 9.55117 14.3289 9.5681 14.3349 9.57172C14.3634 9.58622 14.367 9.57656 14.3426 9.54694H14.3432ZM13.7986 9.31489C13.8962 9.30703 13.8492 9.162 14.095 9.3445C13.9926 9.20067 13.8623 9.15656 13.7694 9.07921C13.7105 8.94203 13.9456 9.16079 13.9492 9.09734C13.7724 8.93357 13.7081 8.95895 13.6599 8.98675C13.5873 9.02965 13.6694 9.15535 13.7986 9.31489ZM13.3629 8.95532C13.3695 8.93538 13.3308 8.90033 13.3046 8.86891C13.2796 8.8393 13.2439 8.81331 13.2469 8.826C13.251 8.84594 13.2778 8.88099 13.3004 8.91121C13.3213 8.93901 13.3457 8.95472 13.3629 8.95532ZM13.7254 9.40131C13.7486 9.41762 13.779 9.43817 13.7938 9.44059C13.8319 9.44723 13.7926 9.40674 13.7676 9.37955C13.7343 9.34269 13.7022 9.32456 13.6807 9.33C13.6718 9.3445 13.6736 9.36505 13.7254 9.40131ZM14.4319 10.1198C14.4426 10.1241 14.4581 10.1337 14.461 10.1313C14.4747 10.121 14.461 10.1053 14.4277 10.092C14.4188 10.0884 14.414 10.092 14.4075 10.092C14.4158 10.1017 14.4247 10.1114 14.4319 10.1192V10.1198ZM12.9981 9.2466C13.0177 9.25506 13.0463 9.27198 13.0546 9.26896C13.0665 9.26413 13.0451 9.23754 13.0136 9.2188C12.9927 9.20611 12.9653 9.19221 12.9576 9.19524C12.9457 9.20007 12.9659 9.22424 12.9981 9.2466ZM13.3844 9.60435C13.4873 9.67747 13.4885 9.62973 13.4915 9.59166C13.4939 9.56326 13.4457 9.51068 13.4046 9.46476C13.4534 9.41883 13.5558 9.50404 13.6659 9.61221L13.6813 9.63578L13.6718 9.61463C13.6093 9.5125 13.545 9.40977 13.4766 9.3022C13.2909 9.2327 13.357 9.35477 13.4004 9.46294C13.4022 9.4847 13.4123 9.51371 13.404 9.5264C13.3909 9.54634 13.2826 9.46476 13.3225 9.5409C13.3302 9.55601 13.3641 9.58985 13.3849 9.60435H13.3844ZM14.3384 10.1899L14.3634 10.2081L14.3456 10.1851L14.3378 10.1899H14.3384ZM13.8403 10.0582L13.8284 10.0352L13.8742 9.98507C13.8962 10.0008 13.9182 10.0177 13.9397 10.0316C13.945 10.0352 13.9539 10.0316 13.9539 10.0316C13.9212 9.99172 13.8968 9.99111 13.8694 9.97782C13.7956 9.94337 13.7909 9.97117 13.8212 10.0322L13.8403 10.0582ZM14.2872 10.5386C14.564 10.6178 14.5717 10.4643 14.6092 10.3483C14.6283 10.3519 14.6521 10.361 14.6652 10.3585C14.6824 10.3549 14.7158 10.3597 14.6741 10.312C14.661 10.3156 14.6467 10.3174 14.6348 10.3223C14.6229 10.3271 14.6146 10.335 14.6045 10.3416C14.3628 10.2703 14.4259 10.4812 14.2872 10.5386ZM13.3623 9.76027C13.3653 9.75664 13.3611 9.74576 13.3605 9.73911C13.3516 9.73489 13.3397 9.72703 13.3344 9.72703C13.3278 9.72703 13.3201 9.73065 13.3236 9.73791C13.3355 9.76268 13.3522 9.77235 13.3623 9.76027ZM14.0896 10.5876L14.2128 10.6468C14.2349 10.6649 14.2557 10.6849 14.2747 10.706L14.2896 10.7314L14.2831 10.709C14.2771 10.6994 14.273 10.6861 14.2658 10.68C14.248 10.6649 14.2283 10.6528 14.2099 10.6389C14.1706 10.6238 14.0896 10.5229 14.0896 10.5876ZM13.2748 9.84185L13.2731 9.82553L13.2558 9.82311L13.2748 9.84185ZM13.7778 10.3392L13.8022 10.3543C13.8236 10.3543 13.8534 10.3628 13.8641 10.3519C13.873 10.3428 13.8373 10.3035 13.8248 10.3054C13.8069 10.3084 13.8063 10.3313 13.798 10.3458L13.7778 10.3392ZM13.0731 9.67083L13.0975 9.68956L13.0784 9.66539L13.0731 9.67143V9.67083ZM12.2303 11.552C12.2267 11.6578 12.2303 11.7478 12.2267 11.8276C12.2238 11.908 12.2118 11.9775 12.1749 12.0427C12.1339 12.1165 12.1648 12.215 12.266 12.2252C12.3606 12.2355 12.4094 12.1564 12.4065 12.0651C12.4029 11.905 12.3964 11.746 12.2303 11.552ZM12.1595 11.3883L12.1321 11.3859L12.1392 11.407L12.1595 11.3883ZM12.7255 11.6427C12.6743 11.627 12.6689 11.6965 12.6898 11.7418C12.7154 11.7974 12.7392 11.8602 12.8165 11.8633C12.8267 11.8373 12.8511 11.8004 12.8421 11.7853C12.81 11.7315 12.7731 11.6578 12.7261 11.6427H12.7255ZM13.0219 11.4082C12.9874 11.4282 12.9862 11.4535 13.0207 11.4838C13.054 11.5122 13.0874 11.5406 13.1213 11.569C13.1249 11.5406 13.1385 11.5079 13.129 11.485C13.11 11.4415 13.076 11.4052 13.0225 11.4088L13.0219 11.4082ZM12.7951 10.5537L12.766 10.5592L12.7832 10.5809L12.7951 10.5537ZM13.2296 10.981C13.2165 10.981 13.2016 10.9773 13.1903 10.9822C13.1784 10.987 13.1683 10.9979 13.1623 11.0094C13.16 11.0136 13.1713 11.0263 13.1766 11.0354C13.1939 11.0172 13.2123 10.9997 13.229 10.981H13.2296ZM13.7498 11.0686L13.7557 11.091L13.7641 11.1532L13.7629 11.0946L13.7498 11.0686ZM13.576 10.9447L13.5623 10.9272L13.5581 10.9399L13.576 10.9447ZM13.7551 10.851C13.7177 10.8124 13.6825 10.793 13.7046 10.8414C13.7159 10.8662 13.7581 10.9072 13.7885 10.9369C13.7998 10.9477 13.8176 10.9441 13.8385 10.9489C13.8087 10.9139 13.7837 10.8807 13.7551 10.8517V10.851ZM14.1462 10.7948L14.1492 10.7809L14.1307 10.7773L14.1462 10.7955V10.7948ZM13.1582 9.88294C13.1689 9.89019 13.185 9.90288 13.1897 9.90288C13.2064 9.90167 13.1992 9.88294 13.1719 9.85635C13.1629 9.84729 13.1451 9.8358 13.1409 9.83641C13.1243 9.83762 13.132 9.85514 13.1582 9.88294ZM13.1231 9.97298L13.1409 9.97842L13.126 9.9609L13.1231 9.97298ZM13.6671 10.5332C13.6724 10.5392 13.7141 10.541 13.7194 10.5277C13.726 10.5126 13.7099 10.4776 13.704 10.4516L13.5927 10.2884L13.5742 10.2618L13.5861 10.2854L13.5617 10.3108L13.5379 10.2987L13.5647 10.3168L13.6968 10.4486C13.6891 10.4564 13.6784 10.4619 13.6742 10.4727C13.6671 10.4897 13.5974 10.4558 13.6671 10.5332ZM13.9867 10.9097L13.9783 10.8849L13.9641 10.8577L13.9742 10.8831L13.9867 10.9097ZM12.216 10.1386L12.2416 10.1368L12.2279 10.1162L12.216 10.1386ZM12.338 10.2763L12.3535 10.2999L12.366 10.2751L12.338 10.2763ZM12.1452 10.8232C12.1839 10.8553 12.238 10.8523 12.247 10.8045C12.2601 10.7332 12.2845 10.6794 12.3172 10.6371C12.3487 10.593 12.3892 10.561 12.435 10.5374C12.5267 10.4921 12.6344 10.4691 12.7314 10.457C12.7666 10.4528 12.7975 10.4443 12.8255 10.4341C12.8398 10.4292 12.8529 10.4238 12.8654 10.4178L12.8743 10.4135H12.879C12.882 10.4123 12.885 10.4117 12.888 10.4105C12.91 10.4039 12.9225 10.3881 12.9278 10.3664C12.9392 10.3229 12.9225 10.254 12.8951 10.1718C12.8862 10.1452 12.9326 10.1585 12.9076 10.1235C12.9094 10.1222 12.9112 10.1216 12.913 10.1204C13.0022 10.17 13.1088 10.2032 13.1129 10.3368L13.0891 10.3241L13.1153 10.3416C13.1927 10.4262 13.2248 10.4885 13.2147 10.5356C13.2123 10.5471 13.1588 10.561 13.2617 10.6154C13.3671 10.6704 13.4171 10.541 13.3338 10.4715C13.0707 10.2492 13.1314 10.1452 12.9969 9.947C12.985 9.99172 12.9772 10.0358 12.8981 10.1108C12.8927 10.1047 12.8868 10.0981 12.8779 10.0902C12.8064 10.0219 12.7731 10.0225 12.7773 10.0703C12.7856 10.1742 12.7362 10.2183 12.8183 10.176C12.7933 10.1936 12.7642 10.2123 12.7314 10.2322C12.7279 10.2328 12.7035 10.2522 12.6844 10.2667C12.6642 10.2818 12.6445 10.2981 12.6225 10.3126C12.5797 10.3422 12.5338 10.3736 12.4862 10.4063C12.3975 10.4782 12.2648 10.5755 12.1345 10.6728C12.0934 10.7054 12.0779 10.767 12.1464 10.8232H12.1452ZM12.6422 11.3786H12.6731L12.6434 11.3665C12.5446 11.3139 12.5029 11.2469 12.5713 11.1502C12.6124 11.094 12.6445 11.0299 12.6785 10.9683C12.7058 10.9731 12.735 10.9852 12.76 10.981C12.7957 10.9749 12.8392 10.9671 12.8279 10.9091C12.8035 10.9181 12.7785 10.9272 12.7535 10.935C12.7285 10.9429 12.7029 10.9489 12.6779 10.9562C12.6267 10.9 12.5368 10.7912 12.5315 10.7955C12.4666 10.848 12.4148 10.9097 12.3844 10.9852C12.3541 11.0607 12.3434 11.1484 12.3565 11.2432C12.3791 11.4155 12.5267 11.3967 12.6428 11.3792L12.6422 11.3786ZM11.6226 11.0076C11.6774 11.0305 11.7226 11.0408 11.7595 11.0408C11.7958 11.039 11.8244 11.0281 11.8464 11.01C11.891 10.9725 11.9119 10.9103 11.9274 10.8341C11.8351 10.7961 11.7827 10.8057 11.7417 10.8456C11.7208 10.8649 11.7036 10.8915 11.6845 10.9199C11.6655 10.9471 11.6458 10.978 11.6226 11.0076ZM11.3655 11.1725L11.384 11.1653L11.3643 11.1417L11.3655 11.1725ZM11.45 11.468C11.5869 11.5327 11.6827 11.5091 11.7458 11.4366C11.8095 11.3641 11.8482 11.259 11.8845 11.1538L11.8375 11.2028L11.7875 11.2469C11.7536 11.2759 11.719 11.3037 11.6827 11.3309C11.6107 11.3847 11.5322 11.4264 11.45 11.4687V11.468ZM11.5964 11.8862C11.6036 11.8977 11.6089 11.9134 11.6185 11.9189C11.6565 11.9418 11.6732 11.9285 11.6601 11.8868C11.6571 11.8772 11.6387 11.8663 11.628 11.8663C11.6173 11.8663 11.6071 11.8796 11.5964 11.8862ZM11.0941 10.894L11.1387 10.8251L11.1429 10.7942L11.1304 10.819L11.0935 10.8946L11.0941 10.894ZM11.3923 12.5244C11.475 12.5202 11.4708 12.4422 11.5024 12.3939L11.5589 12.2694C11.5851 12.2549 11.6131 12.2446 11.6429 12.2379L11.6786 12.2518L11.6446 12.2337C11.6024 12.2095 11.5732 12.2222 11.553 12.2651L11.4923 12.3884C11.4578 12.421 11.4215 12.4513 11.3875 12.4857C11.3816 12.4918 11.3917 12.525 11.3929 12.525L11.3923 12.5244ZM10.9769 12.3636C10.931 12.4223 10.8846 12.5032 10.9025 12.6072C10.906 12.6289 10.9542 12.6604 10.9751 12.6549C11.0905 12.6271 11.1346 12.5353 11.1251 12.4325C11.1203 12.3818 11.0643 12.3642 10.9769 12.3642V12.3636ZM10.7721 11.3188C10.7804 11.3309 10.7882 11.3502 10.7965 11.3526C10.8269 11.3617 10.834 11.3399 10.815 11.3031C10.8102 11.2934 10.7941 11.2874 10.7846 11.2892C10.7787 11.2904 10.7757 11.3079 10.7715 11.3188H10.7721ZM10.8019 12.0905L10.8382 12.1666C10.881 12.1292 10.9245 12.0929 10.9614 12.0512C10.9644 12.0482 10.9346 11.9884 10.9185 11.9859C10.8531 11.9757 10.8245 12.0301 10.8025 12.0905H10.8019ZM10.6037 11.6354L10.6281 11.624L10.6049 11.6095L10.6037 11.6354ZM10.4745 12.4597C10.4287 12.4507 10.3852 12.4942 10.4091 12.5425C10.4257 12.5764 10.4811 12.589 10.5198 12.6096C10.54 12.5836 10.5709 12.5498 10.5674 12.5455C10.54 12.5123 10.5096 12.4664 10.4745 12.4591V12.4597ZM10.3966 11.9902C10.421 12.0083 10.3864 12.0832 10.4495 12.0639C10.4335 12.0379 10.4174 12.0119 10.4013 11.9853C10.3942 11.9587 10.3882 11.9316 10.3787 11.9056C10.3763 11.8989 10.3644 11.8965 10.3567 11.8923C10.3394 11.9418 10.3733 11.9624 10.396 11.9902H10.3966ZM10.0763 12.5202C10.0805 12.531 10.1013 12.5359 10.115 12.5437C10.1246 12.5347 10.1424 12.5244 10.1418 12.5159C10.1406 12.5014 10.1305 12.4803 10.1198 12.4754C10.0799 12.4591 10.0621 12.4779 10.0769 12.5202H10.0763ZM9.6371 12.3092L9.65793 12.3407L9.67877 12.3703L9.66032 12.3389L9.6371 12.3099V12.3092ZM9.26988 12.2766C9.28476 12.2984 9.30083 12.3183 9.3163 12.3389L9.38891 12.3105C9.37344 12.2863 9.36273 12.2476 9.34308 12.2422C9.32344 12.2367 9.29428 12.2645 9.26928 12.2766H9.26988ZM8.73779 12.0282L8.7491 12.0633C8.75088 12.1056 8.75326 12.1473 8.75624 12.1896L8.82945 12.16L8.75386 12.0609L8.73779 12.0276V12.0282ZM8.51043 11.8457C8.489 11.8814 8.45746 11.943 8.47115 11.963C8.50507 12.0083 8.54554 11.9684 8.55626 11.9551C8.60149 11.8917 8.61399 11.847 8.57649 11.8125C8.56935 11.8065 8.52233 11.8264 8.51043 11.8451V11.8457Z" fill="black"/>
<path d="M8.91748 11.0794C8.97343 11.1924 9.06747 11.2691 9.2728 11.2323C9.11448 11.1163 9.03592 11.0655 8.91748 11.0794Z" fill="black"/>
<path d="M7.39219 10.912C7.38981 10.9235 7.38266 10.9374 7.38624 10.9458C7.3904 10.9549 7.40469 10.9591 7.4148 10.9652L7.42195 10.9307L7.39219 10.9114V10.912Z" fill="black"/>
<path d="M15.1087 5.88172C15.1016 5.87749 15.0879 5.87387 15.0766 5.87024L15.0635 5.87689L15.0968 5.88837C15.101 5.88595 15.1117 5.88353 15.1087 5.88172Z" fill="black"/>
<path d="M9.96158 11.2148C9.9711 11.2112 9.97943 11.2009 9.98776 11.1931C10.0473 11.2166 10.111 11.2021 10.1729 11.1955C10.2354 11.1882 10.2961 11.1913 10.3627 11.2499C10.455 11.3284 10.4943 11.1943 10.4895 11.0656C10.4871 10.9501 10.483 10.819 10.4258 10.7447C10.3574 10.6534 10.3187 10.7713 10.2657 10.8365C10.2437 10.8637 10.2145 10.8752 10.1871 10.8921L10.1705 10.9175L10.1854 10.8891C10.1199 10.8359 10.0854 10.816 10.0562 10.8528C10.027 10.8909 10.005 10.9858 9.96991 11.1592C9.96277 11.1701 9.95443 11.1804 9.94967 11.1931C9.94789 11.1967 9.95801 11.216 9.96098 11.2148H9.96158Z" fill="black"/>
<path d="M15.255 2.39914L15.2598 2.41546L15.2728 2.42452C15.2972 2.4076 15.3199 2.38826 15.3401 2.36651C15.324 2.35563 15.2949 2.36651 15.2544 2.39914H15.255Z" fill="black"/>
<path d="M3.29907 16.8409C3.33419 16.8578 3.37526 16.876 3.42466 16.8983C3.39787 16.882 3.35859 16.8627 3.30681 16.8264C3.30443 16.8306 3.30205 16.8349 3.29907 16.8409Z" fill="black"/>
<path d="M9.29257 15.6208C9.21341 15.697 9.13425 15.7743 9.05569 15.8535C8.97534 15.9309 8.89618 16.01 8.81345 16.0856C8.7337 16.1575 8.63847 16.1575 8.54741 16.1605C8.45515 16.1629 8.36707 16.1671 8.29922 16.2524C8.16768 16.3696 8.02186 16.4856 7.88081 16.6131C7.80581 16.6826 7.79689 16.7878 7.85105 16.8857C7.90045 16.9739 7.98437 16.9757 8.06472 16.9485C8.16947 16.9135 8.28196 16.8833 8.37361 16.8289C8.46706 16.7757 8.54205 16.7001 8.56943 16.5757C8.60454 16.4191 8.66049 16.3762 8.79322 16.4506C8.87952 16.4989 8.96225 16.4898 8.99915 16.4143C9.12533 16.1496 9.36042 15.9973 9.50981 15.7731C9.55326 15.7085 9.55564 15.6094 9.47946 15.555C9.39732 15.4964 9.34733 15.5689 9.29198 15.6221L9.29257 15.6208Z" fill="black"/>
<path d="M9.73349 14.3138C9.77872 14.4117 9.69183 14.4346 9.65136 14.483C9.6335 14.5041 9.61327 14.5235 9.59422 14.544C9.61267 14.6921 9.54899 14.764 9.41209 14.7664L9.37936 14.7609L9.4115 14.7748C9.46269 14.8431 9.50851 14.9265 9.44721 14.987C9.26032 15.1719 9.07522 15.3653 8.86989 15.5339C8.66276 15.7006 8.436 15.8457 8.16698 15.9218C8.09675 15.9424 8.05568 15.9073 8.03485 15.8336C8.02652 15.7998 8.10806 15.7937 8.05092 15.7454L8.01997 15.8263C7.96164 15.9273 7.85868 16.0191 7.84737 16.1309C7.82356 16.3491 7.79618 16.473 7.60513 16.227C7.56466 16.2681 7.52062 16.3062 7.47836 16.3454C7.50514 16.4349 7.55573 16.537 7.41467 16.5594C7.37063 16.5666 7.31825 16.5273 7.32183 16.4796C7.32778 16.3847 7.41289 16.3751 7.47657 16.3448C7.40277 16.3388 7.3373 16.3418 7.27719 16.3509C7.21648 16.3593 7.16351 16.3763 7.11708 16.4016C7.02543 16.4536 6.95817 16.5334 6.92187 16.6476C6.8927 16.7389 6.84092 16.8428 6.85223 16.931C6.88854 17.1957 6.80878 17.3861 6.66177 17.5311C6.58737 17.6024 6.49869 17.6653 6.40049 17.7209C6.3005 17.774 6.19396 17.8224 6.08504 17.8713C5.94875 17.9239 5.86364 17.8605 5.76424 17.8339C5.61485 17.7934 5.49641 17.7281 5.46487 17.9553C5.45415 18.0315 5.32798 18.0043 5.30417 17.9336C5.26013 17.8085 5.24108 17.6767 5.20358 17.4942C5.13573 17.5788 5.06015 17.6459 4.9792 17.6991C4.89826 17.7505 4.81136 17.7831 4.7203 17.8061C4.67447 17.8175 4.62805 17.8254 4.58043 17.8314C4.53282 17.8351 4.48461 17.8357 4.43521 17.8339C4.38581 17.8321 4.33581 17.8284 4.28522 17.823C4.23463 17.8182 4.18345 17.8097 4.13167 17.797C3.98287 17.762 3.82872 17.7529 3.67159 17.7311L3.43412 17.7051L3.3746 17.6955L3.34484 17.69L3.32996 17.6876C3.32579 17.6876 3.3252 17.6876 3.32222 17.6876C3.30437 17.6876 3.28651 17.6882 3.26866 17.6876C3.20973 17.6864 3.21509 17.6181 3.2258 17.539C3.27818 17.4918 3.32817 17.4423 3.3496 17.3353C3.28294 17.3486 3.27044 17.4761 3.22402 17.5299C3.17521 17.5384 3.13177 17.5245 3.08772 17.513C3.04368 17.5009 2.99785 17.4942 2.94071 17.5232C2.76394 17.6133 2.6086 17.623 2.63062 17.3202C2.63182 17.3075 2.57825 17.3262 2.54968 17.3305C2.56575 17.3619 2.60503 17.3782 2.54968 17.458C2.54254 17.4689 2.52706 17.4785 2.51992 17.4779C2.46338 17.4719 2.50742 17.4006 2.5229 17.3486C2.51814 17.2235 2.48421 17.1667 2.42648 17.1522C2.36934 17.1353 2.2884 17.1595 2.19198 17.2036C2.10568 17.2428 2.01819 17.2767 2.13186 17.0954L2.22352 17.0464C2.24495 17.0186 2.28661 17.0265 2.29137 16.9685L2.22531 17.0332L2.13305 17.0851C2.0783 17.0579 1.99081 17.0779 1.92296 17.0603C1.8557 17.0446 1.8063 16.9993 1.83785 16.8597C1.83963 16.8519 1.79975 16.8507 1.77654 16.8603C1.65215 16.9153 1.58251 16.8887 1.53847 16.8307C1.49324 16.7733 1.47122 16.6905 1.43193 16.6301C1.43491 16.6053 1.50633 16.5709 1.46169 16.5539L1.42717 16.6313C1.37718 16.6766 1.31587 16.7244 1.30159 16.6663C1.28076 16.5866 1.30338 16.476 1.1897 16.473C1.07661 16.4687 0.972456 16.4675 1.11649 16.282C1.15577 16.2312 1.14625 16.2022 1.11827 16.1823C1.0903 16.1623 1.04507 16.149 1.00995 16.137C0.935555 16.111 0.90401 16.0723 1.03316 15.9883L1.14089 15.9774C1.17006 15.9877 1.19505 16.007 1.23017 16.004C1.26231 16.001 1.28373 15.9678 1.25755 15.9635C1.226 15.9581 1.18315 15.9671 1.14446 15.9696L1.03793 15.9774C0.929603 15.9762 0.789141 16.0004 0.791521 15.8729C0.791521 15.8427 0.78557 15.7973 0.758191 15.7937C0.611777 15.772 0.549284 15.6982 0.530238 15.6076C0.520715 15.5623 0.52131 15.5127 0.529047 15.4613C0.537975 15.41 0.552259 15.3574 0.565949 15.3066L0.63618 15.242L0.555831 15.3042C0.249313 15.3381 0.0993282 15.1767 0.325496 15.0371C0.647488 14.8371 0.517739 14.7887 0.361802 14.6884C0.330853 14.6679 0.349303 14.6171 0.345137 14.5809L0.358231 14.5621L0.335019 14.5772C0.196938 14.6183 0.123135 14.5784 0.0707596 14.5156C0.0285019 14.4648 0.0237404 14.4243 0.0558801 14.3965C0.0892101 14.3687 0.158846 14.3536 0.265383 14.35C0.320735 14.3482 0.37192 14.3863 0.444532 14.3246C0.354065 14.266 0.261812 14.2001 0.166583 14.1313C0.115993 14.0944 0.0624271 14.046 0.143967 14.0068C0.30526 13.933 0.232053 13.8641 0.147538 13.8291C0.0243356 13.7795 -0.0101848 13.7264 0.00171881 13.675C0.0136224 13.623 0.0761162 13.5753 0.141586 13.5269L0.166583 13.5408L0.147538 13.5239C0.0624271 13.4478 -0.0322064 13.3626 0.245147 13.3668C0.255265 13.3722 0.265978 13.3825 0.274311 13.3825C0.298713 13.3825 0.32252 13.3777 0.346327 13.3747L0.367159 13.3583L0.340971 13.3704C0.309426 13.3692 0.277882 13.3674 0.246933 13.3662C0.35466 13.2677 0.385609 13.1752 0.298713 13.0592C0.274311 13.0266 0.229077 12.9958 0.211222 12.9619C0.105875 12.7583 0.133849 12.7413 0.516549 12.8012C0.534404 12.8036 0.55464 12.7836 0.574876 12.774C0.562973 12.7027 0.454055 12.728 0.392156 12.7099C0.10647 12.6229 0.0576656 12.5745 0.218959 12.476C0.335019 12.4066 0.347518 12.3365 0.298713 12.2331C0.275501 12.1842 0.359421 12.1969 0.427867 12.2168L0.452865 12.2337L0.435009 12.215C0.425486 12.1576 0.361802 12.079 0.4362 12.0476C0.552855 11.9986 0.595112 11.937 0.598683 11.8603C0.60285 11.7841 0.57071 11.6953 0.549284 11.6095C0.545117 11.5931 0.600469 11.5883 0.628442 11.5786C0.65463 11.595 0.65344 11.633 0.712363 11.624L0.630823 11.578C0.755811 11.4741 0.815924 11.3496 0.87068 11.2148C0.897463 11.1472 0.926032 11.0813 0.959362 11.0142C0.992692 10.9477 1.03257 10.8825 1.08733 10.8257C1.26766 11.0088 1.38194 11.1454 1.59144 11.2535C1.62358 11.094 1.59799 11.0456 1.30695 10.8722C1.18553 10.7991 1.09685 10.7556 1.08911 10.6661C1.08078 10.5676 1.15934 10.5598 1.30873 10.6081C1.38491 10.6329 1.48252 10.6571 1.45872 10.6045C1.38611 10.4383 1.61227 10.425 1.47062 10.228C1.40039 10.1289 1.42598 10.063 1.50514 10.0413C1.57954 10.0201 1.63608 10.0111 1.6093 9.90893C1.57537 9.77961 1.73429 9.82796 1.98128 10.0044L2.00033 10.0268L1.98605 10.005C1.98724 9.99172 1.98962 9.97843 1.99259 9.96634C1.98605 9.95607 1.97831 9.9458 1.97355 9.93613C1.97355 9.93492 1.98902 9.93915 1.99735 9.94036L2.01819 9.97057C2.13603 9.95909 2.07175 9.87751 1.9301 9.80922C1.71524 9.70709 1.7575 9.68836 1.83547 9.65815C1.91641 9.62733 1.94795 9.56025 1.95748 9.4696L1.96164 9.42609C2.16996 9.55602 2.15151 9.45268 2.15567 9.3856C2.16341 9.25809 2.47766 9.55783 2.46159 9.42669C2.45267 9.34995 2.30685 9.21518 2.36994 9.15415C2.47469 9.0496 2.658 9.00126 2.61515 8.79035C2.58837 8.64774 3.10022 9.09311 2.79549 8.70575C2.84251 8.62417 2.89131 8.54319 2.93774 8.4598C2.99547 8.35767 3.07165 8.28092 3.20557 8.24829C3.32341 8.22109 3.45138 8.18423 3.44781 8.00777C3.44781 7.8295 3.48114 7.85186 3.75432 8.1093C3.78051 8.13407 3.80729 8.16066 3.81503 8.14797C3.82515 8.13166 3.82991 8.10567 3.81979 8.07485C3.78884 7.97756 3.76206 7.77753 3.80789 7.7739C3.94716 7.76303 3.90907 7.56119 4.02751 7.52674C4.07215 7.51405 4.06263 7.41253 4.1894 7.56481C4.23642 7.62162 4.25903 7.62343 4.24773 7.57992C4.17571 7.30677 4.40485 7.34363 4.42449 7.15267C4.44413 6.9744 4.63995 7.27716 4.7691 7.35028C4.60364 7.05477 4.6215 6.90309 4.79648 6.90914C4.87266 6.91276 4.92325 6.88798 4.94647 6.81305C5.00717 6.60879 5.10657 6.43898 5.34821 6.50123C5.3125 6.29818 5.60057 6.66076 5.55295 6.39064C5.52498 6.22445 5.71841 6.30905 5.78567 6.2311C5.86721 6.13803 5.96482 6.05343 6.11361 6.09029C6.23681 6.12172 6.22848 5.92411 6.3255 5.90598C6.57011 5.86005 6.78735 5.7265 7.0415 5.6981L7.20458 5.67997L7.22481 5.67815L7.23493 5.67695H7.24088L7.25279 5.67392L7.34682 5.65519C7.40932 5.6425 7.4736 5.63344 7.53669 5.62256C7.60037 5.61289 7.66465 5.60503 7.72893 5.59657L7.92355 5.57844C7.99021 5.57482 8.05628 5.57059 8.12294 5.56938C8.1896 5.56938 8.25566 5.56757 8.32173 5.56998C8.85025 5.58569 9.38412 5.70958 9.8561 5.98031C10.0293 6.08063 10.1942 6.19665 10.3447 6.3296C10.4953 6.46315 10.6298 6.60879 10.7542 6.77135C10.9935 7.09647 11.153 7.45181 11.2452 7.81862C11.2548 7.85851 11.2667 7.90202 11.272 7.94734C11.2774 7.99266 11.2804 8.03859 11.278 8.07968C11.272 8.16248 11.2405 8.22714 11.1744 8.23983C10.9905 8.2779 10.9566 8.33652 10.9625 8.4042C10.9727 8.47128 11.0203 8.55407 11.0226 8.62417C11.0197 8.77464 11.0149 8.92572 10.9834 9.07499C10.9673 9.1336 10.9483 9.19524 10.8625 9.18497C10.7941 9.17651 10.703 9.13602 10.7078 9.09553C10.7221 8.99824 10.6584 8.94506 10.5846 8.90759C10.5102 8.86952 10.4233 8.84414 10.3626 8.80244C10.3197 8.77283 10.2834 8.74564 10.2483 8.71965C10.212 8.69366 10.1805 8.66949 10.1525 8.64653C10.1227 8.62417 10.0954 8.60362 10.0727 8.58368C10.0501 8.56374 10.0251 8.5438 10.0067 8.52446C9.92633 8.44771 9.87038 8.36915 9.80372 8.29965C9.74182 8.23499 9.67992 8.17456 9.61862 8.12138C9.60315 8.10869 9.58946 8.09419 9.57279 8.08331C9.55672 8.07243 9.54363 8.05733 9.52756 8.04887C9.51089 8.03859 9.50018 8.02771 9.48114 8.01623C9.46268 8.00535 9.44602 7.99206 9.42697 7.98118C9.28175 7.89114 9.09546 7.81983 8.88477 7.80714C8.73716 7.79626 8.58122 7.79808 8.42469 7.80835C8.34494 7.8156 8.27054 7.82285 8.18722 7.83796C8.10449 7.85065 8.02057 7.86999 7.93546 7.89174L7.8438 7.91713L7.78904 7.93465C7.75274 7.94553 7.71583 7.96064 7.68012 7.97574C7.60751 8.00656 7.53669 8.04584 7.47003 8.096C7.28135 8.24104 7.04626 8.32262 6.86949 8.52325C6.70463 8.71059 6.48084 8.82782 6.35347 9.06532C6.30883 9.15173 6.24396 9.21035 6.17551 9.26534C6.10826 9.32154 6.03862 9.37593 5.98505 9.44845C5.93387 9.52036 5.87733 9.58623 5.81721 9.64727C5.7577 9.70891 5.69758 9.76934 5.63628 9.82916C5.51724 9.95124 5.40297 10.0806 5.33155 10.2473C5.34583 10.2794 5.3369 10.2884 5.30536 10.2758C5.1149 10.4836 4.86314 10.6528 4.78101 10.9459C4.75125 11.0608 4.66435 11.1254 4.58162 11.1949C4.53936 11.2287 4.49651 11.2626 4.45961 11.3013C4.4239 11.3405 4.39593 11.3853 4.38105 11.4397C4.36141 11.5091 4.33581 11.5738 4.30724 11.6361C4.27808 11.6983 4.24177 11.7557 4.20428 11.8119C4.16678 11.8687 4.12452 11.9225 4.07929 11.9745C4.03525 12.0252 3.99358 12.0712 3.94657 12.1177C3.83289 12.2361 3.7692 12.383 3.71385 12.5226C3.65374 12.664 3.60434 12.7963 3.49185 12.9099C3.44959 12.9541 3.41864 13.0012 3.39067 13.0507C3.36448 13.0997 3.34722 13.1486 3.32698 13.1988C3.30913 13.2484 3.29603 13.2961 3.2752 13.3444C3.25675 13.3922 3.23949 13.4369 3.20854 13.484C3.18593 13.5191 3.17581 13.5529 3.16391 13.5886C3.15855 13.6061 3.15319 13.6242 3.14962 13.6418L3.14248 13.6925C3.1395 13.7258 3.12938 13.7626 3.127 13.7947C3.12224 13.8279 3.11451 13.8617 3.09963 13.8974C3.08475 13.9427 3.08772 13.9868 3.09129 14.0309C3.1026 14.072 3.11451 14.1125 3.12046 14.1554C3.12938 14.1899 3.13415 14.2267 3.13534 14.2654C3.1395 14.3023 3.14665 14.3373 3.15022 14.3766C3.15319 14.3953 3.1526 14.4165 3.15795 14.4346L3.17462 14.4896L3.19307 14.5452C3.19664 14.5543 3.19962 14.5639 3.20378 14.5724L3.21985 14.5966C3.23949 14.6244 3.25735 14.6534 3.2752 14.683C3.29246 14.7132 3.31925 14.7386 3.34008 14.7682C3.37996 14.8286 3.43709 14.8794 3.48768 14.9374C3.60196 15.0432 3.72932 15.1501 3.88467 15.2275C3.91859 15.2444 3.95014 15.2661 3.98525 15.2831C4.02037 15.3 4.05548 15.3175 4.0906 15.3356L4.09774 15.3393L4.11381 15.3459L4.14595 15.3598C4.16738 15.3689 4.19059 15.3749 4.21261 15.3822L4.34653 15.4275C4.39235 15.4402 4.43878 15.4511 4.4852 15.4632L4.55484 15.4813C4.57805 15.4873 4.60245 15.4897 4.62566 15.4946L4.76851 15.52C4.81672 15.5266 4.86493 15.5296 4.91314 15.5345C5.01015 15.5478 5.10716 15.5423 5.20477 15.5459C5.25298 15.5447 5.30119 15.5393 5.3494 15.5369C5.39761 15.5339 5.44642 15.5308 5.49284 15.5212L5.63449 15.4976C5.6833 15.4873 5.73389 15.4728 5.78388 15.4607C5.86542 15.442 5.95648 15.4529 6.04457 15.4644C6.13266 15.4771 6.21539 15.4758 6.27312 15.436C6.4237 15.3266 6.59035 15.3163 6.74569 15.242C6.94924 15.1423 7.15696 15.0528 7.37361 14.9658C7.59085 14.8824 7.8182 14.8026 8.06163 14.7338C8.31756 14.6612 8.5848 14.5011 8.82822 14.3379C8.92107 14.2757 8.99845 14.2237 9.08237 14.4467C9.16569 14.6697 9.37936 14.5839 9.53946 14.5319C9.53053 14.4866 9.51089 14.4395 9.51387 14.3965C9.51982 14.3077 9.58232 14.2775 9.65969 14.2793C9.68469 14.2793 9.72635 14.2968 9.73528 14.3168L9.73349 14.3138ZM9.97216 8.04887C9.97871 8.07002 9.9793 8.08875 9.98823 8.10144C9.99418 8.1093 10.0162 8.10748 10.0317 8.1099C10.0281 8.09298 10.0293 8.07243 10.0204 8.05853C10.0138 8.05007 9.99239 8.05189 9.97275 8.04826L9.97216 8.04887ZM9.45435 6.80459C9.43412 6.78827 9.41388 6.76773 9.39007 6.76108C9.36984 6.75564 9.34543 6.76833 9.31984 6.77377C9.34424 6.79129 9.36329 6.81305 9.3865 6.81849C9.40614 6.82332 9.43174 6.80882 9.45376 6.80519L9.45435 6.80459ZM9.16926 6.43294C9.35198 6.49095 9.46566 6.53628 9.60374 6.60517C9.58767 6.5532 9.56684 6.51331 9.54006 6.4837C9.51327 6.4553 9.48173 6.43717 9.44542 6.42569C9.40912 6.4136 9.36746 6.41179 9.32163 6.4136C9.2758 6.41481 9.22521 6.42206 9.16926 6.43294ZM6.76355 7.11339C6.75462 7.1146 6.757 7.1418 6.75462 7.15751C6.757 7.18893 6.77069 7.21552 6.78497 7.2131C6.7939 7.21189 6.7939 7.18772 6.79331 7.16899C6.79331 7.13998 6.77783 7.11158 6.76355 7.11339ZM7.25695 6.99555C7.21529 6.99374 7.18017 6.99193 7.14506 6.99011L7.12839 6.97561L7.14565 6.99857C7.19684 7.04329 7.24148 7.07713 7.25695 6.99555ZM7.62953 7.42401C7.62537 7.41494 7.61703 7.4089 7.61346 7.4095C7.61108 7.4095 7.61287 7.42461 7.61227 7.43307C7.61942 7.44576 7.62656 7.46268 7.63072 7.46571C7.6456 7.47598 7.64501 7.45906 7.62953 7.42401ZM7.92653 6.81849C7.917 6.81124 7.90808 6.79975 7.89855 6.79794C7.88606 6.79552 7.86701 6.79492 7.86106 6.80398C7.84261 6.83178 7.85689 6.8475 7.89439 6.84024C7.9057 6.83783 7.91581 6.82574 7.92593 6.81849H7.92653ZM6.59452 6.85535L6.64154 6.94358C6.68439 6.92183 6.73498 6.91457 6.77009 6.87832C6.93079 6.71757 7.15756 6.70004 7.35992 6.64203C7.38551 6.63478 7.40813 6.62632 7.43074 6.61544C7.44205 6.61 7.45336 6.60396 7.46407 6.59731L7.48074 6.58764L7.48907 6.5822C7.48907 6.5822 7.49086 6.58039 7.49443 6.57918L7.50514 6.57435C7.6581 6.50666 7.82416 6.42146 7.99081 6.40997C8.15686 6.39849 8.32054 6.45651 8.43243 6.67104C8.55385 6.64384 8.54432 6.50908 8.61217 6.45348C8.63896 6.43113 8.66991 6.41783 8.70919 6.40151C8.74847 6.3852 8.79549 6.36767 8.85739 6.34531C8.53897 6.31268 8.22055 6.32598 7.91343 6.37674C7.76107 6.40272 7.6093 6.43536 7.46348 6.47705C7.40098 6.49397 7.33909 6.51271 7.27778 6.53205C7.03435 6.61242 6.80283 6.71576 6.59392 6.85535H6.59452ZM6.1517 7.60832L6.15289 7.62947L6.16123 7.65485V7.63552L6.1517 7.60772V7.60832ZM6.19515 7.47235C6.19158 7.47417 6.19515 7.49169 6.19991 7.50317C6.20348 7.51284 6.2142 7.52432 6.22193 7.5352C6.22491 7.52976 6.23146 7.52795 6.22967 7.51888C6.22253 7.48444 6.20825 7.4651 6.19515 7.47175V7.47235ZM6.44572 7.37687C6.40465 7.38533 6.35823 7.38412 6.35228 7.45362C6.40287 7.45906 6.45108 7.46571 6.44572 7.37687ZM6.66653 7.29771C6.60225 7.24815 6.58499 7.27656 6.56595 7.2965C6.55345 7.30979 6.56952 7.3394 6.58737 7.33699C6.61416 7.33336 6.63439 7.31463 6.66653 7.29771ZM5.98386 7.46027C6.00648 7.29287 6.14575 7.34666 6.13563 7.17201C6.32014 7.18772 6.3868 6.99313 6.53976 6.95023C6.3618 6.93935 6.19872 6.97742 6.12671 7.16295C6.07016 7.23184 5.86423 7.09103 5.98386 7.46087V7.46027ZM6.22551 8.60241L6.21003 8.59637L6.22134 8.6145L6.22491 8.60241H6.22551ZM5.93327 7.83192C5.89459 7.8289 5.81067 7.75638 5.84043 7.86334C5.91661 7.92861 5.92018 7.87241 5.93327 7.83192ZM6.45763 8.32624C6.44632 8.32201 6.43084 8.31114 6.4243 8.31476C6.41596 8.3196 6.41477 8.33531 6.41061 8.34679L6.44513 8.36009L6.45703 8.32624H6.45763ZM5.86007 7.62887C5.85709 7.55514 5.93387 7.57569 5.87435 7.39923C5.85352 7.48081 5.79817 7.48746 5.86007 7.62887ZM5.57498 7.74792L5.59759 7.76786C5.62795 7.78659 5.63747 7.77572 5.63271 7.74369L5.60652 7.64579C5.62854 7.56602 5.71663 7.57267 5.71841 7.46389C5.7196 7.40769 5.69639 7.35028 5.63152 7.28864C5.58212 7.24211 5.55236 7.23848 5.56843 7.30194C5.60354 7.43912 5.5345 7.48081 5.597 7.63854L5.62438 7.73704L5.59521 7.7588L5.57498 7.74731V7.74792ZM5.28988 7.73946C5.41606 7.90081 5.54165 8.06216 5.69104 8.17335C5.66544 8.13528 5.64163 8.096 5.61485 8.05974C5.57378 8.00596 5.55295 7.95701 5.52498 7.90323C5.39464 7.65002 5.39107 7.64639 5.29048 7.73946H5.28988ZM3.86979 9.61947C3.87455 9.62853 3.87871 9.64062 3.88467 9.64485C3.90252 9.65815 3.92097 9.66842 3.93883 9.6799L3.86979 9.61947ZM3.98466 9.67567L3.94538 9.68353C3.96442 9.68776 4.01977 9.73066 3.98466 9.67567ZM4.1394 9.66237L4.13762 9.67567L4.15547 9.6793L4.1394 9.66237ZM4.16916 9.54514C4.16619 9.54756 4.17333 9.56327 4.18107 9.57294C4.18761 9.5814 4.2019 9.58925 4.21261 9.59771C4.2144 9.59228 4.22154 9.58925 4.21737 9.5814C4.20071 9.55058 4.18107 9.53547 4.16857 9.54514H4.16916ZM4.72744 9.89745L4.69232 9.9047L4.65661 9.91256L4.63638 9.90652L4.66019 9.91981C4.67864 9.92585 4.70125 9.93673 4.71435 9.93613C4.73161 9.93613 4.76196 9.94398 4.72684 9.89745H4.72744ZM5.29405 10.2274L5.27262 10.2147L5.28393 10.2353L5.29405 10.2274ZM5.01491 9.3439C5.01729 9.36566 5.03693 9.40131 5.04943 9.43032C5.07621 9.44603 5.09586 9.45812 5.1149 9.4696C5.09764 9.43818 5.08336 9.40675 5.06193 9.37412C5.04289 9.34451 5.01313 9.32577 5.01491 9.3439ZM5.3994 9.39708L5.38214 9.39346L5.40118 9.41521L5.3994 9.39769V9.39708ZM5.46606 9.32517L5.44999 9.32215L5.46665 9.34149V9.32517H5.46606ZM5.06431 8.61994C5.03693 8.6568 4.98337 8.66164 4.93575 8.67735C4.88933 8.69427 4.84886 8.72146 4.85005 8.80063C4.93754 8.82238 4.97206 8.79096 4.99468 8.74684C5.01789 8.70333 5.0286 8.64713 5.06431 8.62054V8.61994ZM5.63568 9.19343C5.6214 9.17047 5.6089 9.16624 5.60533 9.18316C5.60414 9.18799 5.6095 9.19826 5.61188 9.20673L5.63211 9.21035C5.6333 9.20491 5.63925 9.20008 5.63509 9.19343H5.63568ZM5.19287 8.48034C5.18275 8.46705 5.15895 8.4604 5.13811 8.44892C5.13871 8.47128 5.1274 8.49364 5.14288 8.51842C5.18037 8.57945 5.18751 8.54803 5.19763 8.54138C5.20954 8.53413 5.22977 8.52748 5.19287 8.47974V8.48034ZM5.7446 8.9934L5.74639 9.01335C5.76246 9.04114 5.72079 9.02785 5.76781 9.0774L5.75293 9.01758L5.74401 8.9928L5.7446 8.9934ZM5.2506 7.9141C5.26905 7.94251 5.2875 7.95701 5.29703 7.94553C5.30298 7.93767 5.3 7.91773 5.3006 7.90323C5.28274 7.88993 5.25655 7.86395 5.24822 7.86576C5.23989 7.86757 5.24882 7.89658 5.2506 7.9135V7.9141ZM5.39345 8.37278C5.41666 8.36492 5.41666 8.3341 5.3988 8.28455C5.44166 8.28092 5.52438 8.33652 5.50593 8.24043C5.39345 8.14616 5.38095 8.19632 5.39464 8.28152C5.40535 8.32262 5.33393 8.28576 5.39345 8.37278ZM4.55781 8.00898L4.57448 8.01261L4.56139 7.99508L4.55781 8.00898ZM4.27748 8.09479L4.27451 8.07546C4.25784 8.04826 4.30248 8.05551 4.25308 8.00958L4.26499 8.07122L4.27748 8.09479ZM4.52687 8.63988C4.62507 8.63988 4.57865 8.46101 4.6953 8.50029C4.8685 8.55951 4.85124 8.42354 4.881 8.32685C5.06848 8.3625 5.05479 8.16429 5.11788 8.04887C4.98575 8.05249 4.87624 8.09117 4.83993 8.22049C4.81077 8.20478 4.79827 8.20901 4.81434 8.24708C4.56198 8.20296 4.54591 8.432 4.52627 8.64049L4.52687 8.63988ZM4.63935 9.07982L4.62983 9.09432L4.61555 9.10399L4.59114 9.09311L4.61614 9.10641C4.65185 9.12635 4.66018 9.1185 4.64233 9.08163C4.77386 9.09191 4.79589 8.99945 4.75482 8.8387L4.77803 8.85139L4.75184 8.83145C4.68697 8.80425 4.58043 8.73657 4.62507 8.84172C4.67864 8.965 4.58936 8.96681 4.63935 9.07982ZM4.04298 8.42716L4.04953 8.42112L4.02572 8.40239L4.04298 8.42716ZM3.76444 8.49847L3.76742 8.48457L3.75016 8.48276L3.76444 8.49847ZM3.96264 8.81453L3.95787 8.79458C3.94002 8.7686 3.98466 8.77404 3.93228 8.73113L3.95014 8.79096L3.96264 8.81453ZM4.13762 9.12635C4.2876 9.25688 4.24535 9.11124 4.2638 9.05867C4.28344 9.00186 4.29772 8.92935 4.46794 9.10883L4.48342 9.1336L4.47568 9.11306C4.32034 8.89007 4.4614 8.85804 4.36498 8.66224C4.33046 8.80486 4.14417 8.78673 4.1156 8.92995C4.10429 8.98555 3.9799 8.99038 4.13762 9.12696V9.12635ZM4.27094 9.33484C4.48877 9.47383 4.45961 9.34632 4.4852 9.2738C4.36081 9.2315 4.38521 9.36264 4.27094 9.33484ZM3.99358 9.15052C4.00132 9.15838 4.01858 9.16624 4.02513 9.16624C4.03108 9.16624 4.02811 9.15475 4.0287 9.14871C4.01739 9.13904 4.0037 9.12393 3.99537 9.12091C3.96323 9.10762 3.96264 9.1197 3.99299 9.15052H3.99358ZM4.33343 9.53607C4.33224 9.53064 4.33343 9.5252 4.32867 9.51976C4.31201 9.49921 4.29355 9.47866 4.27629 9.45812L4.26142 9.43455L4.26975 9.4551L4.33343 9.53607ZM3.57755 9.45812L3.6216 9.45087C3.70373 9.49619 3.78527 9.54514 3.86741 9.61645C3.87812 9.4829 3.89002 9.34753 3.91383 9.16865C3.74718 9.22908 3.64005 9.30039 3.61981 9.44784C3.60374 9.44905 3.54244 9.40252 3.57696 9.45751L3.57755 9.45812ZM3.98823 10.48V10.4927L4.0043 10.4933L3.98823 10.4794V10.48ZM3.73647 10.1349C3.74004 10.1494 3.73647 10.1633 3.74897 10.1797C3.76861 10.2044 3.79182 10.2129 3.79241 10.1966C3.79241 10.1839 3.79003 10.1676 3.77873 10.1494C3.76623 10.1301 3.74599 10.1229 3.73706 10.1349H3.73647ZM3.90371 9.88355C3.77277 9.86603 3.82336 9.98508 3.85788 10.0902C3.86919 10.0389 3.9174 10.0238 3.97454 10.0153C4.02037 10.0086 3.96323 9.94338 3.90371 9.88355ZM3.45971 10.1754L3.44781 10.1537C3.50494 10.0896 3.53173 10.0044 3.55315 9.91075C3.57636 9.81829 3.59422 9.71797 3.62993 9.6231C3.34067 9.52943 3.39603 9.73852 3.27163 9.77478C3.14426 9.81164 3.21211 9.95486 3.44066 10.1519L3.45971 10.1754ZM2.66336 14.5591L2.65384 14.5724L2.67467 14.5627L2.66336 14.5591ZM2.01342 14.831C2.02295 14.8594 1.99616 14.9072 2.06461 14.9017C2.08604 14.8564 2.07056 14.8335 2.01342 14.831ZM2.5229 14.3434L2.49373 14.3567L2.5223 14.3518V14.3434H2.5229ZM1.9551 14.3434C1.94736 14.3536 1.93188 14.3663 1.93367 14.3742C1.93546 14.3845 1.95153 14.3905 1.96283 14.4002C1.97057 14.3881 1.98426 14.376 1.98247 14.3681C1.98009 14.3579 1.96462 14.3518 1.9551 14.3434ZM2.55147 14.1355L2.5473 14.1433L2.57825 14.1337L2.55147 14.1355ZM1.72119 14.089C1.67774 14.0944 1.66465 14.1047 1.68667 14.1155C1.73964 14.1119 1.79916 14.1113 1.85808 14.1022C1.88903 14.0974 1.89082 14.0793 1.85451 14.0787C1.81344 14.0787 1.76583 14.0829 1.72119 14.089ZM2.5592 13.8128C2.53183 13.866 2.51337 13.8998 2.58003 13.9203C2.6342 13.8817 2.5961 13.8599 2.5592 13.8128ZM2.1646 13.6883L2.14972 13.6974L2.17115 13.6986L2.1646 13.6889V13.6883ZM1.68965 13.62L1.7075 13.6303C1.76642 13.6925 1.82832 13.7536 1.92474 13.8418C1.92831 13.7318 1.89141 13.6726 1.71643 13.6273L1.68965 13.6206V13.62ZM2.84727 13.5076L2.82227 13.5288L2.85203 13.5481C2.86036 13.5408 2.87524 13.5342 2.87524 13.5269C2.87524 13.5209 2.85739 13.5143 2.84727 13.5076ZM2.66812 13.3765L2.65205 13.3825L2.67348 13.3861L2.66812 13.3771V13.3765ZM2.63955 13.0447C2.61098 13.0465 2.61277 13.0556 2.63955 13.0689C2.65443 13.0713 2.67288 13.0755 2.68241 13.0749C2.71097 13.0731 2.71097 13.064 2.68121 13.0514C2.67288 13.0477 2.64848 13.0441 2.63896 13.0447H2.63955ZM2.38779 12.9516L2.35803 12.9492L2.38601 12.9589L2.38779 12.9516ZM2.09794 12.751C2.04616 12.7389 2.01104 12.7444 1.99735 12.7577C2.00093 12.7824 2.03545 12.8036 2.08366 12.8169C2.14198 12.8332 2.17055 12.8229 2.17412 12.8048C2.17769 12.7867 2.15746 12.7649 2.09853 12.7516L2.09794 12.751ZM2.73895 12.78L2.70919 12.7734L2.7324 12.7848L2.73895 12.78ZM2.49254 12.6604L2.4973 12.6718L2.51218 12.667L2.49195 12.6604H2.49254ZM2.92643 12.6277L2.91333 12.6326L2.93357 12.6392L2.92643 12.6271V12.6277ZM3.03475 12.5745L3.03951 12.586L3.05499 12.5824L3.03475 12.5745ZM2.31399 12.2996C2.31697 12.3099 2.34732 12.3268 2.36518 12.3407C2.37946 12.3395 2.40922 12.3431 2.4116 12.3371C2.41517 12.328 2.40565 12.308 2.38839 12.2996C2.33304 12.2718 2.30744 12.2784 2.31339 12.2996H2.31399ZM2.34018 12.1787L2.34375 12.192L2.35982 12.1872L2.34018 12.1787ZM3.17105 12.2748C3.16212 12.2742 3.14962 12.2712 3.14545 12.273C3.1401 12.2754 3.13474 12.2802 3.1401 12.2857C3.15557 12.302 3.17224 12.305 3.17819 12.2917C3.17998 12.2881 3.17343 12.2802 3.17045 12.2742L3.17105 12.2748ZM2.30328 11.8512L2.31637 11.8675L2.3372 11.8838L2.32589 11.8681L2.30328 11.8512ZM3.19069 12.1799L3.19664 12.1926L3.21092 12.189L3.19069 12.1799ZM2.58599 11.8131C2.58361 11.8173 2.59015 11.8258 2.59253 11.8325C2.60146 11.8331 2.61396 11.8361 2.61813 11.8343C2.62408 11.8319 2.62943 11.8264 2.62467 11.8204C2.60979 11.8022 2.59313 11.7992 2.58599 11.8137V11.8131ZM3.38531 11.9986L3.3865 12.0101H3.40376L3.38531 11.9986ZM3.0288 11.2336H3.01094L3.0288 11.2463V11.2336ZM3.42281 11.2572L3.39662 11.2451L3.41864 11.2638L3.4234 11.2572H3.42281ZM3.13712 10.7677C3.14188 10.79 3.13891 10.8094 3.15676 10.8347C3.17343 10.8589 3.20973 10.8716 3.20021 10.8517C3.1889 10.8275 3.15974 10.7961 3.13772 10.7677H3.13712ZM3.44364 10.5555C3.42876 10.5658 3.4109 10.5731 3.40198 10.5876C3.39305 10.6009 3.41388 10.6208 3.42757 10.6275C3.49959 10.6571 3.49482 10.6335 3.48292 10.6063C3.47637 10.5924 3.45733 10.5725 3.44423 10.5555H3.44364ZM3.50911 10.4456C3.47697 10.4172 3.45971 10.4129 3.46745 10.4353C3.46983 10.4419 3.48411 10.4552 3.49363 10.4649C3.50256 10.4667 3.51685 10.4722 3.51863 10.4691C3.52101 10.4649 3.51744 10.4522 3.5097 10.4456H3.50911ZM2.61575 9.97057C2.71157 10.0111 2.68419 9.94338 2.6586 9.88657L2.64015 9.86482L2.64967 9.88416C2.59968 9.89201 2.53659 9.85636 2.46814 9.80016C2.46278 9.7923 2.45743 9.78082 2.45088 9.77659C2.43303 9.76511 2.41457 9.75725 2.39612 9.74819L2.30744 9.7077L2.40148 9.76027C2.4235 9.76752 2.44136 9.78082 2.45505 9.79955C2.50683 9.85878 2.52766 9.93432 2.61515 9.97057H2.61575ZM2.52468 10.1736L2.5467 10.17C2.5467 10.1633 2.55206 10.1561 2.5467 10.1513C2.52706 10.1331 2.51337 10.1331 2.51337 10.1519C2.51337 10.1567 2.52111 10.1664 2.52528 10.1736H2.52468ZM2.14793 10.2371C2.18722 10.2552 2.18722 10.248 2.14674 10.2183C2.13603 10.2105 2.12234 10.205 2.10984 10.199C2.10984 10.2038 2.10746 10.2099 2.11163 10.2129C2.12234 10.222 2.13603 10.2316 2.14793 10.2371ZM1.88129 10.7979L1.86582 10.7755C1.85451 10.7507 1.85213 10.726 1.82892 10.7006C1.81166 10.6818 1.76583 10.6758 1.77714 10.6939C1.79261 10.7181 1.83249 10.7477 1.86225 10.7749L1.88129 10.7973V10.7979ZM1.62239 11.491C1.63013 11.4928 1.63489 11.4862 1.64084 11.4832C1.63251 11.4753 1.62596 11.4644 1.61644 11.4596C1.57835 11.4421 1.56704 11.4469 1.58787 11.4717C1.59323 11.4777 1.61168 11.488 1.62239 11.491ZM1.03554 11.8022L0.998644 11.7098L0.975432 11.6929L0.98793 11.7104C0.990311 11.7182 0.989121 11.7261 0.996858 11.734C1.02007 11.7581 0.950434 11.7708 1.03554 11.8016V11.8022ZM0.682009 12.2531C0.783784 12.2772 0.798664 12.2482 0.808186 12.2192C0.813543 12.2023 0.830208 12.1666 0.758191 12.1691C0.703435 12.1715 0.570115 12.111 0.598088 12.1878C0.605826 12.2089 0.657606 12.2343 0.682604 12.2525L0.682009 12.2531ZM1.24624 12.4192L1.20339 12.3727L1.17958 12.3564L1.19624 12.3739C1.22124 12.3884 1.17601 12.409 1.24624 12.4198V12.4192ZM0.610587 13.0985L0.625466 13.0864L0.604635 13.0828L0.611182 13.0985H0.610587ZM0.508216 13.5155L0.527857 13.5022C0.514168 13.4991 0.499884 13.4931 0.48679 13.4931C0.439175 13.4931 0.430248 13.5022 0.463578 13.5136C0.474886 13.5173 0.493337 13.5149 0.508216 13.5155ZM0.815329 14.6395L0.805211 14.6256L0.793902 14.6425L0.815329 14.6395ZM1.37896 14.7331C1.50871 14.6431 1.41586 14.5881 1.5474 14.5271C1.57656 14.5271 1.59323 14.5512 1.63846 14.515L1.55454 14.5204C1.59561 14.3953 1.44979 14.3277 1.40515 14.2219C1.36706 14.1288 1.30873 14.0751 1.60573 14.0273C1.71286 14.0092 1.7444 13.9608 1.57716 13.9633C1.53133 13.9639 1.44562 13.9717 1.46467 13.9512C1.52597 13.8847 1.49621 13.8303 1.45753 13.7723C1.42182 13.7155 1.37658 13.6545 1.43551 13.5958C1.5349 13.533 1.51823 13.4647 1.44622 13.4025C1.40634 13.3686 1.49443 13.3541 1.55395 13.3378C1.61465 13.3215 1.64917 13.304 1.51169 13.2544C1.44562 13.2302 1.56347 13.2085 1.64917 13.2169C1.78845 13.2314 1.85808 13.3215 2.04021 13.2985C2.01878 13.2617 2.04021 13.2218 2.02473 13.1843C2.00985 13.1468 1.95569 13.1112 1.77654 13.0804C1.76047 13.0955 1.75333 13.1142 1.72536 13.1245C1.69917 13.1341 1.63489 13.1444 1.61525 13.1384C1.53133 13.1106 1.57954 13.0924 1.62656 13.0804C1.66048 13.0719 1.70334 13.0683 1.74262 13.0628C1.74262 13.0538 1.7444 13.0453 1.74738 13.0362C1.73786 13.0302 1.72655 13.0236 1.7206 13.0175C1.71941 13.0157 1.74083 13.0115 1.74381 13.0127C1.7575 13.0175 1.76761 13.0242 1.77952 13.0296C1.89796 12.9698 1.54502 12.9081 1.62299 12.835C1.69857 12.7667 1.69441 12.6773 1.72238 12.5957C1.74976 12.5147 1.79797 12.4392 1.96998 12.4162C2.01878 12.4096 2.00093 12.3655 1.96224 12.3244L1.88606 12.3413C1.82713 12.2984 1.89498 12.3056 1.92474 12.2978C1.91581 12.1969 1.94557 12.1074 1.98069 12.021C2.01402 11.9334 2.05985 11.8518 2.08127 11.7593C2.08425 11.7479 2.06937 11.7285 2.06223 11.7128C2.15746 11.7291 2.26399 11.7539 2.28125 11.7074C2.32946 11.5792 2.32827 11.5774 2.61991 11.7043C2.61098 11.6554 2.50742 11.5889 2.49195 11.5315C2.47469 11.4668 2.46755 11.4058 2.46874 11.3484C2.47112 11.2922 2.48302 11.2396 2.50147 11.1913C2.53778 11.0934 2.6092 11.0148 2.69788 10.9477C2.7443 10.9133 2.83358 10.9109 2.99309 11.0045C3.06689 11.0475 3.14129 11.0789 3.12462 11.0215C3.11391 10.9834 3.10736 10.9598 2.99487 10.906C2.79073 10.8088 2.83358 10.7399 2.86274 10.7036C2.89488 10.6637 3.02642 10.7223 3.13534 10.7671C3.15795 10.7453 3.28413 10.7773 3.16748 10.6831C2.94607 10.5042 3.01154 10.4643 3.0901 10.4323C3.22461 10.3761 3.24128 10.2431 3.2877 10.1229C3.09546 10.0008 3.03416 10.0014 3.01094 10.0836C2.96035 10.2564 2.9425 10.4431 2.72645 10.506C2.62943 10.5356 2.56873 10.6039 2.57408 10.7102C2.58122 10.8456 2.57051 10.8359 2.30744 10.8698C2.2628 10.8758 2.26221 10.9175 2.30923 10.9713C2.37529 11.0475 2.41696 11.1441 2.34553 11.1212C2.05568 11.0317 2.21757 11.213 2.17769 11.2698C2.13365 11.3327 2.13841 11.4185 2.1402 11.5013C2.14139 11.5847 2.13425 11.6614 2.05925 11.711C1.93605 11.7146 1.94795 11.7914 1.92058 11.8451C1.87713 11.9279 1.83785 12.0113 1.72774 12.0675C1.73369 12.0742 1.74202 12.082 1.74381 12.0875C1.7444 12.0899 1.72714 12.0905 1.72298 12.0881C1.71167 12.0826 1.70334 12.0748 1.69322 12.0681C1.65334 12.16 1.69798 12.276 1.63846 12.363C1.48907 12.5981 1.37777 12.858 1.28254 13.1347C1.25755 13.2157 1.28552 13.31 1.20517 13.3765C1.15577 13.4194 1.08078 13.4296 1.20339 13.4768C1.29028 13.5094 1.3492 13.5547 1.42122 13.591C1.33968 13.5976 1.26409 13.6103 1.25517 13.652C1.24505 13.7094 1.21291 13.7675 1.19565 13.8273C1.18732 13.8569 1.18255 13.8871 1.18613 13.9167C1.19089 13.9463 1.20577 13.9759 1.23314 14.0043C1.28909 14.063 1.33313 14.1306 1.16708 14.2086L1.1403 14.2044L1.15934 14.214C1.20636 14.2636 1.27957 14.2999 1.16708 14.3802C1.10756 14.4225 1.06887 14.5138 1.12185 14.5162C1.36111 14.5253 1.31647 14.6461 1.37777 14.7338L1.37896 14.7331ZM1.86225 14.6274C1.91165 14.605 1.992 14.5857 1.97295 14.5537C1.9676 14.5446 1.94974 14.5343 1.92831 14.5373C1.84975 14.5494 1.84201 14.5869 1.81047 14.6129C1.76345 14.6522 1.81642 14.6395 1.86225 14.6274ZM1.00638 15.0389C1.02602 15.0329 1.04328 15.0123 1.06173 14.999C1.02424 14.9942 0.989121 14.9857 0.949244 14.9833C0.917104 14.9809 0.900439 14.9966 0.907581 15.0202C0.921866 15.0462 0.9546 15.0558 1.00638 15.0389ZM2.62527 14.4932C2.64074 14.4437 2.65443 14.4044 2.54611 14.3953C2.52171 14.4624 2.57884 14.4757 2.62527 14.4932ZM1.48193 15.3773C1.61703 15.2523 1.57656 15.184 1.71226 15.1235C1.78011 15.0927 1.82118 15.0389 1.74857 15.0504C1.65751 15.0637 1.61287 15.0359 1.55514 15.0087C1.49919 14.9803 1.43253 14.9519 1.28433 14.9555C1.35813 15.0184 1.41467 15.0728 1.45515 15.135C1.49324 15.1979 1.50455 15.271 1.48252 15.3773H1.48193ZM2.87048 14.5718L2.87881 14.5555C2.8687 14.5585 2.85798 14.5597 2.84846 14.5651C2.80739 14.5875 2.80204 14.5978 2.83418 14.5893C2.84251 14.5869 2.85798 14.5778 2.87048 14.5724V14.5718ZM1.69738 15.3918L1.7206 15.3707L1.69143 15.3816L1.69738 15.3918ZM2.21817 15.0988C2.22352 15.0915 2.23483 15.0794 2.23245 15.0782C2.22769 15.0752 2.21579 15.0752 2.20567 15.08C2.17115 15.0957 2.16162 15.1096 2.18305 15.1127C2.189 15.1133 2.20626 15.1036 2.21817 15.0988ZM2.00152 15.3683L1.98962 15.361L1.98307 15.3792L2.00152 15.3683ZM2.8318 14.9017C2.80858 14.9767 2.87167 14.9561 3.02285 14.8437C3.00083 14.8171 2.9794 14.7918 2.95797 14.767C2.93774 14.7416 2.92345 14.7138 2.905 14.6878C2.93238 14.6594 2.92464 14.6546 2.89429 14.6649L2.86513 14.6782L2.88834 14.6709L2.89607 14.6794L2.90203 14.6896C2.87643 14.7567 2.85263 14.8274 2.8312 14.9017H2.8318ZM2.36518 15.3187C2.35684 15.323 2.33899 15.3411 2.33839 15.3447C2.3378 15.3508 2.34791 15.3508 2.35327 15.3526C2.36518 15.3453 2.38422 15.3369 2.38839 15.3314C2.40803 15.3054 2.3991 15.3006 2.36518 15.3181V15.3187ZM2.0652 15.8487C2.06044 15.7327 1.89379 15.7321 2.11877 15.5236C1.95093 15.587 1.88844 15.7139 1.79559 15.7919C1.63072 15.7973 1.89915 15.6239 1.8307 15.5907C1.72893 15.6535 1.68131 15.7079 1.66584 15.7556C1.65096 15.8028 1.66584 15.8439 1.6831 15.8801C1.73548 15.9913 1.88725 15.9484 2.0652 15.8487ZM1.65989 16.2433C1.6337 16.2252 1.59382 16.2572 1.55633 16.2753C1.52062 16.2923 1.49205 16.3267 1.50871 16.3303C1.5343 16.3358 1.57597 16.3195 1.61287 16.3038C1.6462 16.2899 1.66286 16.2651 1.66048 16.2433H1.65989ZM2.16877 15.9532C2.18603 15.9303 2.20745 15.9001 2.20924 15.8844C2.21459 15.8433 2.17055 15.8783 2.1402 15.9001C2.09913 15.9291 2.08008 15.9611 2.08842 15.9871C2.10687 16.0016 2.13008 16.004 2.16817 15.9532H2.16877ZM2.91691 15.2807C2.92226 15.2704 2.93238 15.2553 2.9306 15.2522C2.92345 15.2402 2.90798 15.2529 2.89191 15.2855C2.88774 15.2939 2.89012 15.2988 2.88953 15.3048C2.89905 15.2964 2.90857 15.2879 2.91691 15.2807ZM2.16281 16.8102C2.16519 16.7866 2.17591 16.7534 2.16817 16.7419C2.15686 16.7256 2.13067 16.7479 2.11818 16.7842C2.10984 16.809 2.1033 16.841 2.11103 16.8519C2.12294 16.8688 2.14615 16.847 2.16222 16.8102H2.16281ZM2.47112 16.3817C2.52706 16.2657 2.4735 16.2621 2.42826 16.2548C2.39493 16.25 2.34375 16.2995 2.29851 16.3424C2.22828 16.2778 2.31042 16.1726 2.41636 16.059L2.44076 16.0439L2.41815 16.053C2.36458 16.0832 2.31042 16.1134 2.25447 16.1424C2.19912 16.1708 2.14258 16.198 2.08306 16.2252C2.06997 16.2778 2.06937 16.3146 2.0777 16.34C2.08663 16.3636 2.10449 16.3757 2.1271 16.3799C2.17293 16.3884 2.2384 16.366 2.29851 16.3473C2.3247 16.3479 2.35684 16.3394 2.3741 16.3509C2.40089 16.3678 2.33542 16.4893 2.41577 16.45C2.43124 16.4421 2.461 16.4047 2.47231 16.3817H2.47112ZM2.97107 15.3647L2.98892 15.3393L2.9669 15.358L2.97107 15.3647ZM2.86632 15.8723L2.84489 15.8874C2.82525 15.8735 2.80739 15.8566 2.78894 15.8415C2.80263 15.8179 2.81692 15.7937 2.82882 15.7707C2.8318 15.7647 2.82822 15.7556 2.82763 15.7562C2.79073 15.7919 2.79192 15.8173 2.7824 15.8469C2.75621 15.9255 2.78537 15.9327 2.8431 15.8952L2.86632 15.8729V15.8723ZM3.2752 15.3562C3.30377 15.2226 3.29782 15.161 3.26687 15.1326C3.23652 15.1042 3.18176 15.1078 3.13534 15.0988C3.14188 15.0812 3.15319 15.0583 3.15319 15.0468C3.15319 15.0317 3.16391 15.0021 3.11748 15.0438C3.11748 15.0552 3.11689 15.0679 3.11867 15.0776C3.12046 15.0879 3.12522 15.0951 3.12879 15.1036C3.08237 15.2166 3.11212 15.2522 3.15319 15.2734C3.19545 15.2946 3.24783 15.3018 3.2752 15.3562ZM2.66395 16.4041C2.6586 16.4004 2.64789 16.4059 2.64015 16.4071C2.63836 16.4168 2.63301 16.4307 2.63539 16.4367C2.63777 16.4446 2.64491 16.453 2.65205 16.4482C2.67645 16.4337 2.68181 16.4149 2.66395 16.4041ZM3.32936 15.5266L3.36924 15.3955C3.38293 15.3701 3.39781 15.3459 3.41448 15.3224L3.43412 15.3012L3.41626 15.3133C3.40852 15.3211 3.39841 15.329 3.39364 15.3375C3.38174 15.358 3.37281 15.3792 3.36269 15.3997C3.35258 15.4402 3.27401 15.5417 3.32877 15.526L3.32936 15.5266ZM2.79073 16.4983L2.77287 16.502L2.77704 16.5219L2.79073 16.4989V16.4983ZM3.15498 15.8898L3.1645 15.862C3.16033 15.8402 3.16271 15.8082 3.15141 15.7998C3.14188 15.7931 3.11034 15.836 3.11451 15.8481C3.12046 15.8656 3.14248 15.862 3.15736 15.8674L3.15498 15.8892V15.8898ZM2.67824 16.7407L2.68895 16.7117L2.66872 16.7352L2.67883 16.7407H2.67824ZM4.97206 16.4313C5.08038 16.2494 5.1155 16.1086 5.21192 16.0221C5.2387 15.9986 5.25298 15.9587 5.25179 15.92C5.2506 15.8813 5.23513 15.8451 5.20239 15.8173C5.14288 15.7677 5.08812 15.813 5.05657 15.8946C5.0292 15.9659 4.99884 16.0379 4.9798 16.1219C4.96016 16.2052 4.95123 16.3038 4.97146 16.4307L4.97206 16.4313ZM4.94944 16.6083L4.97265 16.6252L4.97742 16.6035L4.94944 16.6083ZM4.6578 16.0681C4.68221 16.1146 4.72268 16.062 4.7322 16.0143C4.7447 15.9539 4.75898 15.8898 4.71613 15.8396C4.69768 15.8541 4.66495 15.8656 4.66257 15.8831C4.65364 15.9454 4.63638 16.0258 4.6584 16.0681H4.6578ZM4.34295 16.036C4.37509 16.0481 4.39116 16.0306 4.39116 15.9853C4.39116 15.9418 4.39116 15.8977 4.39057 15.8535C4.37212 15.8711 4.34474 15.8832 4.33522 15.9061C4.31736 15.9502 4.31141 15.9992 4.34295 16.036ZM3.82039 16.7449L3.84539 16.7667L3.85312 16.7395L3.81979 16.7443L3.82039 16.7449ZM3.9299 16.143C3.93645 16.1539 3.94121 16.1678 3.95014 16.1738C3.95966 16.1805 3.97394 16.1817 3.98585 16.1799C3.99001 16.1793 3.99418 16.1623 3.99835 16.1533L3.9299 16.143ZM3.7936 15.6517L3.80848 15.6366C3.82336 15.6251 3.83765 15.6124 3.85312 15.5997C3.83824 15.61 3.82396 15.6197 3.80967 15.6287L3.7936 15.6523V15.6517ZM3.75313 15.8632L3.74361 15.8831L3.75551 15.8807L3.75254 15.8632H3.75313ZM3.61922 15.7423C3.59779 15.7919 3.59243 15.8318 3.62576 15.7913C3.64302 15.7707 3.66445 15.7158 3.67933 15.6759C3.68469 15.6614 3.67754 15.6469 3.67576 15.6263C3.65552 15.6674 3.63529 15.7043 3.61862 15.7417L3.61922 15.7423ZM3.49602 15.4112L3.48411 15.4136V15.4311L3.49602 15.4112ZM2.89191 16.6186C2.89488 16.6059 2.90203 16.586 2.89965 16.5811C2.89012 16.5636 2.87227 16.5745 2.85382 16.6083C2.84787 16.6198 2.84251 16.6404 2.84548 16.6452C2.85501 16.6627 2.87227 16.6518 2.89191 16.6186ZM3.01213 16.6416L3.00916 16.621L2.99666 16.641H3.01213V16.6416ZM3.36746 15.9418C3.37103 15.9351 3.3615 15.894 3.34782 15.8922C3.33234 15.8904 3.30437 15.9164 3.28175 15.9297C3.24068 15.981 3.19843 16.0324 3.15617 16.0832L3.13534 16.108L3.15557 16.0898L3.1889 16.1074L3.18474 16.1345L3.19366 16.1031L3.28116 15.9375C3.29068 15.943 3.29842 15.9514 3.30972 15.9526C3.32698 15.9545 3.31687 16.0324 3.36746 15.9412V15.9418ZM3.61148 15.5133L3.59362 15.5302L3.57458 15.5532L3.59303 15.5345L3.61148 15.5133ZM3.89776 17.4828C3.88824 17.4761 3.87931 17.4677 3.86979 17.4604L3.86145 17.484C3.87336 17.484 3.88526 17.484 3.89776 17.4828ZM3.92157 17.2984L3.9305 17.2719L3.89419 17.2737L3.92157 17.2984ZM4.59888 17.0767C4.58341 17.0271 4.53044 16.9902 4.4852 17.0193C4.41735 17.0616 4.34772 17.0863 4.28046 17.09C4.21321 17.093 4.14774 17.0809 4.08584 17.0597C4.05489 17.0489 4.02513 17.0362 3.99656 17.0217C3.96799 17.006 3.94061 16.9872 3.91443 16.9685C3.86205 16.931 3.81563 16.8905 3.77396 16.8519C3.7442 16.8241 3.71504 16.8017 3.68707 16.7787C3.67278 16.7679 3.65909 16.7576 3.64541 16.7485L3.63529 16.7419L3.63112 16.7376L3.62338 16.7304C3.60196 16.7129 3.57815 16.7074 3.55196 16.7117C3.50018 16.7201 3.43828 16.7654 3.36746 16.8229C3.34424 16.8404 3.32937 16.7884 3.30675 16.8253C3.30437 16.8235 3.30258 16.8222 3.29961 16.8204C3.29544 16.7111 3.2752 16.595 3.40971 16.5455V16.5739L3.41329 16.5419C3.45673 16.4355 3.50078 16.3817 3.55077 16.3726C3.56268 16.3702 3.60374 16.4125 3.60136 16.2947C3.60017 16.1756 3.46447 16.1762 3.43293 16.282C3.34186 16.6174 3.20378 16.5938 3.05023 16.7842C3.10915 16.786 3.1651 16.7806 3.29842 16.8404C3.29544 16.8476 3.29187 16.8561 3.2883 16.8676C3.25913 16.9624 3.28354 17.0005 3.33532 16.9782C3.44781 16.931 3.52935 16.9594 3.424 16.8972C3.46149 16.9147 3.50256 16.9347 3.54958 16.9588C3.55375 16.9625 3.59065 16.977 3.61981 16.9896C3.64957 17.0029 3.68112 17.0132 3.71326 17.0247C3.77753 17.0471 3.84598 17.0706 3.918 17.096C3.99001 17.1178 4.08048 17.1317 4.17869 17.1522C4.22809 17.1613 4.27868 17.1734 4.33165 17.1788C4.38462 17.1848 4.43818 17.1903 4.49175 17.1951C4.56079 17.2012 4.62626 17.1649 4.59888 17.0761V17.0767ZM4.56079 16.3231L4.53936 16.3019L4.55246 16.3309C4.58876 16.4367 4.58281 16.5153 4.46318 16.5412C4.39295 16.5582 4.32391 16.5745 4.25249 16.5896C4.23642 16.5654 4.22511 16.5358 4.20487 16.5195C4.17511 16.4959 4.14119 16.4699 4.10191 16.5147C4.12571 16.528 4.14952 16.5412 4.17273 16.5545C4.19654 16.569 4.21916 16.5842 4.24296 16.5987C4.23701 16.6748 4.21975 16.8162 4.22749 16.8174C4.2751 16.8259 4.32212 16.8301 4.36736 16.8259C4.41319 16.8204 4.45663 16.809 4.49711 16.7914C4.57865 16.7564 4.64709 16.6996 4.6953 16.6144C4.73875 16.537 4.72625 16.482 4.69352 16.4379C4.66078 16.392 4.60662 16.3563 4.56139 16.3225L4.56079 16.3231ZM5.31012 17.1951C5.19942 17.1087 5.11907 17.0821 5.04646 17.0936C4.97384 17.1063 4.91016 17.148 4.83874 17.2005C4.87683 17.2435 4.91433 17.2694 4.95182 17.2839C4.98932 17.2972 5.02682 17.296 5.06491 17.2888C5.14109 17.2737 5.21906 17.2314 5.30953 17.1951H5.31012ZM5.71246 17.1105L5.68627 17.1141L5.70294 17.1413L5.71246 17.1105ZM5.70413 16.8023C5.56783 16.7105 5.46665 16.7038 5.37142 16.7479C5.2762 16.7945 5.18692 16.8742 5.08871 16.9479C5.19168 16.9195 5.29286 16.8978 5.39464 16.87C5.49641 16.8446 5.59938 16.8265 5.70413 16.8023ZM5.65294 16.3618C5.64818 16.3491 5.64699 16.3328 5.63925 16.3249C5.6089 16.2935 5.59164 16.3013 5.59462 16.3454C5.59521 16.3557 5.61009 16.3708 5.61961 16.3732C5.62973 16.3757 5.64164 16.366 5.65294 16.3618ZM6.0041 17.4247L5.90649 17.4912L5.88685 17.5226L5.9178 17.4985L6.00469 17.4247H6.0041ZM5.87971 15.7677C5.81602 15.7617 5.819 15.8408 5.79162 15.8838L5.73746 15.9974C5.71484 16.0058 5.69104 16.0095 5.66663 16.0095L5.63985 15.9883L5.66485 16.0137C5.69639 16.0463 5.72198 16.0403 5.74222 16.0034L5.79995 15.8922C5.82852 15.8644 5.85828 15.8378 5.88447 15.8082C5.88923 15.8028 5.8809 15.7689 5.87971 15.7689V15.7677ZM6.22491 15.9418C6.25645 15.8819 6.27967 15.7979 6.24634 15.6982C6.23979 15.6777 6.19813 15.6499 6.18384 15.6565C6.10409 15.688 6.08028 15.7738 6.09576 15.8765C6.10349 15.9261 6.15111 15.946 6.22432 15.9424L6.22491 15.9418ZM6.53202 16.9606C6.52071 16.9504 6.50941 16.9316 6.4975 16.931C6.45644 16.928 6.44572 16.9504 6.47191 16.9848C6.47905 16.9939 6.50167 16.9969 6.51417 16.9933C6.5225 16.9909 6.52607 16.9721 6.53202 16.9606ZM6.41953 16.1938L6.3743 16.1243C6.34038 16.1672 6.30466 16.2065 6.27253 16.2506C6.27014 16.2542 6.30407 16.311 6.32014 16.3122C6.3868 16.317 6.40882 16.2572 6.41953 16.1944V16.1938ZM6.7082 16.5999L6.68141 16.618L6.71117 16.6258L6.7076 16.5999H6.7082ZM6.61535 15.7695C6.65523 15.7671 6.67427 15.7133 6.63975 15.6747C6.61594 15.6475 6.56952 15.6487 6.535 15.6378C6.52786 15.6674 6.51357 15.7061 6.51774 15.7097C6.54809 15.7351 6.58559 15.772 6.61594 15.7701L6.61535 15.7695ZM6.83318 16.1913C6.80402 16.1823 6.81235 16.1007 6.75938 16.1388L6.83021 16.198C6.84568 16.2204 6.86056 16.2445 6.87842 16.2651C6.88318 16.2705 6.89568 16.2681 6.9052 16.2693C6.9052 16.2167 6.86473 16.2095 6.83378 16.1913H6.83318ZM6.89746 15.587C6.88973 15.5786 6.87247 15.5822 6.85937 15.5804C6.8564 15.5925 6.84747 15.6076 6.85163 15.6154C6.85818 15.6281 6.87485 15.6438 6.88496 15.6432C6.92127 15.6426 6.92663 15.6191 6.89746 15.587ZM7.31766 15.5611L7.28552 15.5472L7.25457 15.5345L7.28492 15.5502L7.31766 15.5611ZM7.57716 15.3653L7.50871 15.3489L7.48193 15.416C7.50633 15.4251 7.53788 15.4468 7.55395 15.4384C7.57002 15.4299 7.57002 15.3906 7.57716 15.3653ZM8.0414 15.1441L8.00926 15.1332L7.90927 15.0631L7.89796 15.1362C7.93486 15.1374 7.97176 15.1374 8.00926 15.138L8.04199 15.1447L8.0414 15.1441ZM8.28483 15.0534C8.2634 15.0178 8.22352 14.961 8.20269 14.9628C8.15389 14.9682 8.16996 15.0214 8.1765 15.0371C8.20983 15.1072 8.24138 15.1411 8.28602 15.1266C8.29494 15.1235 8.29613 15.0722 8.28483 15.0534Z" fill="black"/>
<path d="M8.77534 15.7671C8.69916 15.7768 8.62953 15.7955 8.56108 15.8378C8.49263 15.8801 8.42895 15.949 8.35693 16.0553C8.47656 16.013 8.56287 15.972 8.63012 15.9272C8.69738 15.8825 8.74261 15.8324 8.77534 15.7671Z" fill="black"/>
<path d="M9.25379 14.2122C9.24367 14.2104 9.23058 14.2037 9.22344 14.2074C9.21629 14.2116 9.2151 14.2255 9.21094 14.2352L9.24189 14.2412L9.25379 14.2116V14.2122Z" fill="black"/>
<path d="M1.42539 11.0269C1.41944 11.0202 1.40754 11.013 1.39742 11.0063L1.38135 11.0136L1.41051 11.0348C1.41587 11.0323 1.42777 11.0305 1.42539 11.0275V11.0269Z" fill="black"/>
<path d="M7.64752 16.6579C7.638 16.6675 7.63383 16.6826 7.62728 16.6953C7.5392 16.7183 7.46777 16.7757 7.38624 16.8198C7.30529 16.8639 7.22078 16.9026 7.10948 16.8784C6.96187 16.8476 6.94461 16.9939 6.97437 17.1196C7.00234 17.2314 7.02794 17.3631 7.14757 17.4C7.29577 17.4447 7.3416 17.3051 7.39933 17.2072C7.42492 17.1661 7.46718 17.1359 7.5017 17.1008L7.51598 17.0658L7.50587 17.102C7.63383 17.102 7.70109 17.0863 7.7237 17.0313C7.74632 16.9763 7.7237 16.8803 7.66776 16.7104C7.67014 16.6959 7.6749 16.6814 7.67371 16.6675C7.67371 16.6633 7.6499 16.6548 7.64692 16.6579H7.64752Z" fill="black"/>
<path d="M4.84539 8.2301L4.82813 8.23494L4.8186 8.24944C4.83586 8.27422 4.85491 8.29718 4.87574 8.31773C4.88645 8.30081 4.87574 8.2712 4.84479 8.2301H4.84539Z" fill="black"/>
</g>
<defs>
<clipPath id="clip0_192_351">
<rect width="18" height="18" fill="white"/>
</clipPath>
</defs>
</svg>
