<svg width="299" height="20" viewBox="0 0 299 20" fill="none" xmlns="http://www.w3.org/2000/svg">
<path d="M268.546 12.8991C268.466 13.0205 268.218 12.9764 268.029 12.9902C267.949 12.9957 267.862 12.9984 267.782 13.004C267.549 13.1503 267.265 13.1668 266.93 13.0702L266.865 13.0426L266.916 13.0785C266.916 13.1779 266.865 13.2828 266.61 13.2938C265.038 13.3573 263.458 13.4732 261.894 13.2855C261.69 13.2607 261.639 13.1999 261.704 13.1171C261.733 13.0785 261.952 13.1254 261.886 13.0426L261.675 13.1006C261.369 13.1613 260.969 13.1889 260.773 13.291C260.387 13.4926 260.161 13.6002 260.023 13.2469L259.535 13.2966C259.484 13.4015 259.477 13.5312 259.091 13.4787C258.968 13.4622 258.888 13.3959 258.96 13.349C259.099 13.2552 259.332 13.291 259.535 13.2938C258.822 13.1116 258.174 13.1227 257.73 13.3297C257.556 13.4125 257.308 13.4981 257.25 13.5974C256.893 14.1965 255.765 14.2627 254.637 14.3593C254.309 14.3869 254.157 14.2986 253.945 14.2489C253.632 14.1744 253.363 14.086 253.225 14.34C253.174 14.4256 252.905 14.3759 252.868 14.2958C252.795 14.1495 252.781 13.9977 252.73 13.7879C251.98 14.1551 251.129 14.2075 250.153 14.1689C249.804 14.1551 249.447 14.1689 249.091 14.1854L248.552 14.2185L248.421 14.2268L248.356 14.2323H248.319H247.984C247.002 14.2185 246.019 14.2075 245.037 14.1937C241.79 14.1495 240.808 14.0557 239.847 13.9453C241.834 13.9149 243.756 13.879 242.868 13.7382C239.258 13.7051 241.135 13.8873 239.563 13.9315C234.483 13.8707 228.813 13.6803 224.06 13.6803C216.658 13.6554 209.627 13.556 203.193 13.0316C202.923 13.0095 200.711 12.9902 199.408 12.9708C201.009 13.0426 203.367 13.1089 202.647 13.1999C202.552 13.211 202.072 13.2165 201.693 13.2082C198.811 13.1447 199.16 13.0592 198.556 12.9791C195.077 12.7555 191.736 12.5927 188.476 12.5016C185.215 12.4049 182.042 12.3829 178.912 12.3635C176.095 12.3497 173.315 12.3332 173.016 12.0765H175.76C175.928 12.0406 178.148 12.1041 176.59 11.9881L175.418 12.0488L172.732 12.0571C166.109 11.8363 159.384 11.8225 152.811 11.2566C152.629 11.2428 150.912 11.1959 150.307 11.1931C143.742 11.1793 136.326 10.6852 129.178 10.296C128.421 10.2353 129.775 10.2159 127.519 10.1276L129.04 10.2932C128.821 10.3595 128.327 10.4257 125.823 10.2684C122.314 10.0531 119.083 9.77702 115.203 9.67764C111.324 9.57275 108.311 9.51478 105.734 9.10072C104.329 8.87712 99.9187 8.7253 96.8908 8.60936C93.7102 8.49066 91.3519 8.35264 91.6358 8.18978L94.3507 8.2367C95.6535 8.28639 97.2184 8.36368 98.1937 8.38025C99.0962 8.39681 98.3611 8.31399 97.3639 8.28087C96.1412 8.23946 95.195 8.23394 94.1323 8.21462L91.3374 8.15941C88.1421 8.0766 85.4709 8.07108 80.376 7.68738C79.146 7.59905 77.1153 7.44998 76.2928 7.42514C71.8238 7.2816 67.5587 7.04696 63.3954 6.74883C59.2321 6.44519 55.1634 6.09461 51.0802 5.74956L49.5081 5.53701L50.7745 5.73852C48.5109 5.75784 45.2283 5.63914 42.1423 5.4542C40.5992 5.36034 39.1072 5.25268 37.8262 5.13399C37.1856 5.07602 36.5888 5.01529 36.072 4.9518L35.9774 4.94076L35.9265 4.93524C36.385 3.1658 34.9075 8.89368 36.9455 0.968506H36.96H36.9818L37.1784 0.982308C37.3094 0.990589 37.4331 0.998871 37.5496 1.00715C37.7898 1.02371 38.0081 1.04304 38.1974 1.06236C40.4537 1.297 42.8265 1.38809 45.4904 1.42122C48.147 1.48471 51.1021 1.46538 54.4938 1.48194C55.8913 1.49575 58.1986 1.6034 60.0837 1.66689L60.8698 1.71106L60.3603 1.66413C60.1128 1.57304 60.666 1.53163 61.7213 1.51783C62.7767 1.51231 64.3197 1.55096 66.0593 1.60064C71.6492 1.74971 73.8036 1.97882 72.4207 2.14721C72.0567 2.19413 69.6112 2.1196 72.1732 2.34596C74.1311 2.39841 76.1327 2.45085 78.1488 2.50606C80.1577 2.57507 82.1811 2.64408 84.1972 2.71309C86.3516 2.77934 88.9719 2.90356 90.5586 3.10783C93.6301 3.49705 97.6915 3.70961 99.6712 3.75653C102.553 3.81726 105.188 3.98565 107.743 4.1982C110.305 4.40799 112.78 4.68128 115.334 4.9656L114.621 4.938L115.495 4.98492C119.476 5.20024 123.537 5.43487 123.923 5.79373C123.646 5.78269 123.122 5.75232 123.144 5.76336C123.21 5.79925 123.508 5.8517 123.719 5.89586L124.665 6.00076L123.952 5.90967C123.938 5.87102 123.952 5.83513 123.974 5.79925C129.426 6.38446 135.052 6.89514 140.853 7.28436C142.49 7.39477 143.888 7.45826 145.562 7.57972C155.926 8.32228 156.814 8.41889 156.909 8.89092C156.909 8.91301 158.248 9.04827 159.02 9.13384C163.023 9.44025 160.475 9.10624 160.941 9.06759C163.088 8.89092 164.959 8.99858 172.128 9.73009C174.69 9.99785 176.998 10.1994 179.305 10.376C181.612 10.5555 183.912 10.7045 186.474 10.837C188.869 10.964 189.371 11.0993 189.233 11.171L188.621 11.16L189.422 11.1904C192.566 11.3836 195.973 11.4885 198.891 11.7535C208.128 12.5402 216.934 12.8052 225.923 12.9681C226.775 12.9819 228.194 13.0812 229.352 13.1392C228.966 13.1641 226.746 13.1116 228.529 13.2248L229.432 13.1447C242.103 13.6333 255.299 13.5836 269.114 13.0481C271.61 12.9764 274.099 12.8135 276.64 12.692C279.18 12.5816 281.713 12.3884 284.289 12.2228C279.296 12.9018 274.398 13.3048 274.085 13.6057C275.453 13.5257 276.683 13.4539 277.79 13.3904C278.896 13.3269 279.886 13.2662 280.752 13.1889C282.492 13.0481 283.816 12.9294 284.828 12.8218C285.84 12.7141 286.553 12.6175 287.077 12.5209C287.601 12.4215 287.936 12.3056 288.212 12.1813C288.671 11.9716 288.525 11.8667 293.184 11.3919C293.504 11.3587 293.81 11.3284 294.108 11.298C294.261 11.2842 294.406 11.2676 294.552 11.2538L294.661 11.2428L294.712 11.2373H294.727C295.025 12.7445 294.057 7.86681 295.404 14.6133H295.374L295.149 14.605C294.552 14.5829 293.991 14.5636 293.46 14.5443C292.405 14.5029 291.473 14.4559 290.658 14.409C289.013 14.3124 287.798 14.202 286.808 14.075C285.803 13.9453 284.035 13.7631 281.698 13.7272C274.5 13.6444 265.489 13.1089 258.793 13.1861C255.43 13.2165 250.685 13.084 246.521 12.9267C242.555 12.7721 239.876 12.6479 234.927 12.6285C228.711 12.6175 225.472 12.3691 226.222 12.0323L226.811 12.0102L226.076 12.024C225.225 12.013 224.373 12.0019 223.514 11.9909C223.179 11.9964 222.866 12.0047 222.495 12.0074C222.452 12.0074 222.058 11.9826 221.833 11.9688L222.83 11.9495C217.4 11.7507 215.137 11.8391 216.803 12.0406C219.329 12.3497 216.592 12.2807 211.796 12.1537C206.81 12.0102 201.65 11.9826 196.133 11.9716H193.476C192.326 11.6679 187.093 11.7314 183.133 11.748C175.629 11.7838 179.225 11.298 172.332 11.3946C168.3 11.4554 167.077 11.6707 160.912 11.6624C155.737 11.6734 150.373 11.6348 145.118 11.6679C139.863 11.7066 134.71 11.7424 129.971 11.9053C123.661 12.1151 123.632 11.3284 117.059 11.9771C110.472 12.1179 103.878 12.2283 97.313 12.4105C89.2266 12.6037 81.6425 12.8135 73.3378 12.9515C69.7276 13.026 65.7973 13.1116 61.6995 13.2303C57.5944 13.3462 53.3657 13.5146 49.1805 13.7852C44.9154 14.064 42.7173 14.2544 41.3198 14.3041C39.9223 14.351 39.3619 14.282 38.4739 14.133C38.2993 14.1054 38.2046 14.0695 37.1856 14.1551C35.8974 14.2765 34.4489 14.4339 33.5027 14.5664C33.1315 14.6216 32.6948 14.6851 32.2072 14.7568C31.9597 14.7927 31.705 14.8286 31.4357 14.8672C31.2974 14.8866 31.1664 14.9059 31.0208 14.9252C30.8534 14.9473 30.8388 14.9556 30.7369 14.9721C30.1183 15.0908 29.3831 15.2123 28.9246 15.32C27.8983 15.5325 27.1705 15.7313 26.6173 15.8279C26.1806 15.8969 25.7803 15.9825 25.4018 16.0708C25.0161 16.1536 24.674 16.2447 24.361 16.3413C24.0408 16.4324 23.7569 16.5263 23.5094 16.6256L23.1455 16.7664L23.0582 16.8023C23.1018 16.8023 23.1673 16.8023 23.2256 16.8023L23.5749 16.7968C25.4528 16.7719 27.054 16.7416 28.4661 16.7747C29.0265 16.7885 29.7762 16.7719 30.3075 16.7802C30.8316 16.7885 31.2391 16.8189 31.2246 16.9348C31.2246 16.9569 31.2464 16.9734 31.3119 16.9872C31.3556 16.9928 31.3556 16.9983 31.4575 17.0038C31.5521 17.0093 31.654 17.0121 31.7705 17.0149C32.2363 17.0231 32.8768 17.0149 33.5683 16.9928C37.848 16.8409 42.7682 16.8189 47.8195 16.8023C52.8707 16.7719 58.0457 16.7554 62.8204 16.6532C71.6492 16.4462 69.7058 16.863 74.0802 16.9845C75.7688 16.7775 78.4181 16.6256 81.8899 16.529C85.3618 16.4296 89.6561 16.3662 94.6418 16.3689C96.7817 16.3689 98.8706 16.3579 100.974 16.333C103.078 16.3027 105.203 16.253 107.415 16.1895C113.391 16.0128 119.41 15.8582 125.459 15.7037C131.507 15.5573 137.599 15.469 143.735 15.411C149.041 15.0522 153.27 15.5021 160.199 14.997C164.42 14.6906 173.074 14.6574 179.836 14.3814C183.876 14.2241 187.995 14.0722 192.093 13.9315C196.191 13.7796 200.267 13.6499 204.219 13.5616C205.879 13.5257 207.458 13.4705 208.979 13.4097C210.5 13.3435 211.971 13.2662 213.426 13.1889C216.345 13.0316 219.205 12.8687 222.335 12.7555C226.36 12.6147 230.392 12.4408 234.432 12.2642C238.471 12.0847 242.511 11.9163 246.543 11.7231C254.608 11.3284 262.658 10.953 270.606 10.5472C274.027 10.376 277.448 10.2076 280.868 10.0365L283.11 9.9178L283.343 9.91228L283.809 9.90124L285.68 9.85983C286.931 9.83499 288.183 9.82395 289.442 9.84603C291.306 9.87916 293.191 9.95093 295.061 9.94541C295.469 9.94541 296.059 9.94541 296.117 10.1027C296.284 10.5306 296.808 10.2877 297.209 10.2684C297.645 10.2491 298.067 10.2104 298.504 10.1828C298.679 10.1718 298.861 10.1607 298.948 10.2573C299.021 10.3319 299.028 10.4478 298.897 10.4644C298.271 10.5389 298.49 10.8094 298.249 10.9723C297.565 11.436 296.393 11.5741 295.294 11.7066C293.22 11.9578 291.029 12.0433 288.911 12.2255C287.412 12.3553 285.898 12.4408 284.377 12.5264L280.956 12.7196L274.645 13.0564C270.438 13.28 266.231 13.5036 262.025 13.7244C253.603 14.1413 245.197 14.5802 236.79 14.9694C212.728 16.1205 188.483 16.9734 164.515 17.7574C141.872 18.5 119.032 18.9527 96.3959 19.4026C92.3345 19.4799 88.244 19.5462 84.139 19.6097C80.0339 19.6511 75.9071 19.6925 71.7802 19.7366C69.7131 19.756 67.646 19.7753 65.5789 19.7946L59.3704 19.8305C55.2289 19.8581 51.0875 19.8857 46.9461 19.9133C42.9138 19.9271 38.8742 19.9409 34.8347 19.9547L31.8069 19.963L29.3104 19.9685H27.8765C27.4034 19.9657 26.8793 19.9685 26.5518 19.9519L17.5338 19.6704L8.49396 19.3861L3.96676 19.2425L1.70316 19.1707L0.56772 19.1349L0 19.1155C0.0873415 19.0741 0.276581 19.0217 0.407594 18.9748L7.05283 16.7857L10.0879 15.7975L13.5452 14.8148C14.8917 14.4946 16.3401 14.1744 17.7303 13.8542C18.0579 13.7714 18.5091 13.7023 18.9094 13.6278L20.1395 13.4042L22.5996 12.9598L23.2183 12.8494L23.8515 12.761L25.1252 12.5816L27.6654 12.2228C28.6626 12.0765 28.9974 12.0516 29.5505 11.9854L31.1009 11.8087C35.2423 11.3587 39.3983 11.0385 43.5325 10.7846C47.6666 10.5306 51.779 10.3484 55.8476 10.1883C59.8872 10.0448 63.9194 9.89848 67.9517 9.75494C69.1745 9.67764 70.4045 9.639 71.6564 9.63624C85.238 9.25254 98.9143 8.92405 112.554 8.72254L117.664 8.6342C119.367 8.61212 121.07 8.59004 122.773 8.56795C126.172 8.52103 129.571 8.47686 132.956 8.42993C139.732 8.37196 146.479 8.26983 153.19 8.22842C174.035 8.04347 193.862 8.38301 214.19 8.60384C227.277 8.73082 240.415 9.02066 253.501 9.37124C260.045 9.56999 266.574 9.75218 273.073 10.0006C276.327 10.1193 279.573 10.2297 282.805 10.3595C286.036 10.4947 289.268 10.6272 292.485 10.7625L296.328 10.9226L296.444 10.9281H296.473H296.481C298.031 18.6932 296.903 13.0812 297.252 14.8148H297.238L297.179 14.8203L296.939 14.8424L296.459 14.8838L295.491 14.9694L293.555 15.1405L289.69 15.4801C288.402 15.5932 287.092 15.6678 285.796 15.7644C283.198 15.9438 280.606 16.1453 277.986 16.264C275.373 16.3938 272.768 16.5649 270.147 16.6422C247.147 17.5669 224.089 16.9955 201.904 15.6346C189.276 14.859 176.743 13.9149 164.333 12.8715C151.931 11.828 139.645 10.71 127.468 9.60587C108.922 7.9303 90.2602 6.44243 71.5327 5.44315C70.7612 5.39899 69.9824 5.35758 69.2036 5.31341C68.4248 5.27753 67.6387 5.24164 66.8526 5.20576C65.2805 5.13675 63.7084 5.06498 62.1217 4.99596C58.9555 4.86899 55.753 4.77237 52.5505 4.673C50.9492 4.63987 49.3407 4.60398 47.7321 4.5681C46.1236 4.53221 44.5151 4.49633 42.9065 4.48805C41.298 4.47148 39.6894 4.45768 38.0882 4.44112L37.4841 4.4356H37.1856L37.0328 4.43008H36.96H36.9236H36.9163C37.2512 3.1244 36.1594 7.35337 37.6587 1.50127H37.6806L38.8815 1.58684L41.2761 1.75523C63.1479 3.32591 84.9323 4.78893 106.972 6.00904C145.285 8.12353 183.767 9.73285 222.415 10.768C230.924 10.9916 239.439 11.2069 247.955 11.3808L248.727 11.3974H248.8L248.945 11.4057L249.229 11.4167L249.804 11.4388L250.954 11.4802C252.482 11.5326 254.018 11.5851 255.561 11.5906C256.187 11.5934 256.799 11.7866 257.286 11.7452C257.927 11.6928 258.487 11.7618 259.077 11.7673C260.642 11.7783 262.156 11.8777 263.677 12.0737C264.477 12.1786 265.445 12.22 266.348 12.2476C266.69 12.2586 266.981 12.2669 266.763 12.5264C266.552 12.7859 267.221 12.8632 267.702 12.9322C267.767 12.8853 267.811 12.83 267.891 12.7942C268.073 12.7196 268.277 12.739 268.459 12.7942C268.517 12.8135 268.582 12.8577 268.568 12.8825L268.546 12.8991ZM294.443 11.4498C294.552 11.4498 294.632 11.4581 294.712 11.4498C294.763 11.4443 294.792 11.4195 294.836 11.4029C294.756 11.4029 294.668 11.3946 294.588 11.4029C294.537 11.4057 294.501 11.4305 294.443 11.4526V11.4498ZM289.595 10.906C289.515 10.9005 289.428 10.8895 289.355 10.895C289.29 10.9005 289.239 10.9254 289.173 10.9447C289.268 10.9502 289.348 10.964 289.428 10.9557C289.493 10.9502 289.544 10.9226 289.603 10.906H289.595ZM288.365 10.6493C288.918 10.6383 289.268 10.6328 289.712 10.6245C289.261 10.4506 288.926 10.5196 288.365 10.6493ZM214.591 14.5608C213.899 14.5857 213.135 14.6464 212.4 14.6906C211.461 14.7623 211.527 14.7955 212.662 14.7541C213.346 14.7292 214.212 14.6685 214.846 14.6243C215.814 14.5553 215.69 14.5222 214.591 14.5636V14.5608ZM255.416 12.8328C252.286 12.9681 249.637 13.0812 246.987 13.1944L246.136 13.2137H246.769C249.324 13.1585 251.929 13.084 255.416 12.8328ZM274.514 12.4574C274.391 12.4519 273.823 12.474 273.459 12.4933C273.219 12.5071 272.964 12.5374 272.717 12.5568C272.993 12.5568 273.161 12.5706 273.488 12.5568C274.551 12.5181 274.987 12.474 274.514 12.4546V12.4574ZM284.748 11.3063C284.748 11.3063 284.69 11.2842 284.661 11.2815C284.624 11.2787 284.559 11.2759 284.537 11.287C284.471 11.3173 284.515 11.3367 284.639 11.3311C284.675 11.3311 284.711 11.3146 284.748 11.3063ZM211.286 14.3428L211.628 14.4449C215.377 14.2903 219.191 14.1523 222.874 13.9811C239.323 13.1944 255.845 12.5043 272.243 11.6237C274.274 11.5133 276.188 11.4112 278.095 11.3063C279.049 11.2538 280.002 11.1986 280.97 11.1462C281.807 11.0937 282.652 11.0413 283.518 10.9888C284.479 10.8812 285.498 10.6631 286.356 11.1103C286.728 11.0606 286.633 10.9088 286.808 10.8343C286.946 10.7763 287.128 10.7404 287.434 10.6548C281.109 10.9944 274.937 11.3284 268.852 11.6541C249.52 12.6589 230.414 13.556 211.279 14.3428H211.286ZM151.654 16.7968L150.839 16.8382L150.337 16.8796L151.123 16.8409L151.661 16.794L151.654 16.7968ZM160.381 16.4545C160.046 16.4628 159.573 16.4959 159.413 16.5152C159.282 16.5318 159.537 16.5401 159.617 16.5539C160.031 16.5373 160.599 16.5235 160.839 16.5069C161.764 16.4407 161.567 16.4214 160.381 16.4545ZM181.874 15.85C178.584 15.941 175.389 16.0266 172.179 16.1867C175.542 16.1205 178.759 16.0432 181.874 15.85ZM200.9 15.2261C198.018 15.2482 195.761 15.3503 193.6 15.4414C192.202 15.4994 192.202 15.538 193.636 15.4939C195.732 15.4276 197.887 15.3393 200.9 15.2289V15.2261ZM146.355 16.6836C154.791 16.3385 162.106 16.2502 168.322 15.8941C180.338 15.6595 192.282 15.0991 204.263 14.6795C192.21 15.0329 180.156 15.3862 168.074 15.8858C164.741 15.999 161.116 16.0459 157.426 16.1481C153.728 16.2502 149.965 16.3744 146.355 16.6836ZM111.004 18.6683H110.174L110.101 18.6932L111.004 18.6683ZM126.798 17.451C124.287 17.4758 121.805 17.4068 119.025 17.5835C121.259 17.6525 124.09 17.5393 126.798 17.451ZM141.726 17.9286C141.078 17.9341 140.438 17.9286 139.79 17.9451C138.946 17.9644 138.094 18.0031 137.25 18.0279L139.215 18.0141L141.726 17.9258V17.9286ZM130.779 17.128C133.756 16.9928 138.116 16.9734 141.566 16.6753C136.733 16.8685 132.766 16.91 130.779 17.128ZM106.498 17.5117L107.081 17.5366C108.223 17.5559 109.366 17.5311 110.516 17.4786L113.151 17.324C118.144 17.1888 123.646 17.1336 128.458 16.9293C130.947 16.8244 131.835 16.736 130.19 16.6698C128.938 16.6201 127.198 16.6339 125.568 16.7388C123.792 16.852 121.339 16.9431 118.966 17.0314C116.586 17.1142 114.294 17.197 112.845 17.3157L110.225 17.4703L107.321 17.52L106.506 17.509L106.498 17.5117ZM88.4406 17.5669C89.0811 17.7933 89.6124 18.0224 94.3579 18.1659C94.4744 18.1135 94.7655 18.0555 94.6564 18.0058C94.489 17.9313 95.3769 17.8595 96.0538 17.7823C99.2563 17.4151 99.1108 17.4151 88.4406 17.5697V17.5669ZM115.364 10.3843C115.662 10.3678 116.164 10.3457 116.113 10.3401C115.975 10.3181 115.633 10.2987 115.349 10.2794L115.364 10.3843ZM112.583 10.2905L115.211 10.2739C114.417 10.2684 114.075 10.1938 112.583 10.2905ZM103.209 10.3263L104.14 10.3015L103.361 10.296L103.209 10.3263ZM94.3725 10.5858C94.7073 10.5803 95.2241 10.5499 95.3696 10.5334C95.4934 10.5196 95.2022 10.5058 95.1003 10.492C94.6709 10.503 94.0814 10.5141 93.8412 10.5279C92.8804 10.5886 93.106 10.6107 94.3798 10.5858H94.3725ZM83.6149 10.0945L86.2497 10.0475L88.8918 10.0061H89.707L89.1102 9.99233C88.3678 9.98681 87.6909 9.97577 86.8684 9.98957C85.7766 10.0034 84.4447 10.0061 83.6077 10.0972L83.6149 10.0945ZM69.1526 9.76322L69.7422 9.7715L70.3536 9.72733L69.1526 9.76322ZM31.3993 12.7169C32.5056 12.565 33.3426 12.4491 34.2961 12.3194C33.51 12.3608 32.935 12.3884 32.3673 12.4187C31.6176 12.543 30.7078 12.6837 30.1692 12.7914C29.6816 12.888 30.4603 12.8411 31.3993 12.7169ZM5.37878 18.0445L6.4196 17.7215L6.26675 17.7298L5.37878 18.0445ZM11.9731 19.0355L10.8158 18.9941L10.6775 19.0134L11.9731 19.0355ZM30.3293 18.5276H28.6553L27.105 18.511C26.086 18.4944 25.067 18.4779 24.0407 18.4641C22.0246 18.431 19.9866 18.3951 17.9123 18.3619C15.8452 18.3288 13.749 18.3012 11.5364 18.2791C10.9759 18.2736 10.4155 18.2681 9.84775 18.2626L8.98162 18.2543H8.76326C8.76326 18.2543 8.67592 18.2543 8.66864 18.2488L8.74871 18.2212L9.0544 18.1163C9.87687 17.8402 10.6848 17.5366 11.5145 17.2661C10.5028 17.5449 9.54206 17.8623 8.58858 18.1521L8.23921 18.2626L8.15187 18.2902C8.15187 18.2902 8.11548 18.3012 8.11548 18.304H8.16643L8.37023 18.3095L9.19269 18.3233C9.74586 18.3316 10.299 18.3426 10.8449 18.3509C13.0576 18.3868 15.2993 18.4144 17.4974 18.4337C19.6882 18.4503 21.8427 18.4668 23.968 18.4834C25.0161 18.4917 26.0642 18.5 27.105 18.5082L28.6626 18.522H30.3366L30.3293 18.5276ZM36.7999 19.4495C37.1129 19.4192 36.5015 19.4054 35.286 19.4192C34.9584 19.4219 34.7037 19.4357 34.4126 19.444L35.6062 19.4606C36.0211 19.4551 36.7053 19.4551 36.7999 19.4468V19.4495ZM46.0144 18.4862C46.0435 18.4668 44.8717 18.4448 44.1075 18.4199C43.0011 18.442 41.1015 18.453 40.7885 18.4862C40.017 18.569 42.135 18.5441 43.1103 18.5441C44.2603 18.5441 45.898 18.5524 46.0144 18.4834V18.4862ZM55.6802 19.3005L54.7122 19.3253C54.2973 19.364 52.0919 19.3336 52.6451 19.4081L54.9233 19.3336L55.6802 19.3005ZM77.8067 17.8154C77.6248 17.8568 78.127 17.8789 79.2697 17.8623C80.0339 17.8513 80.7618 17.8264 81.5042 17.8071C80.9801 17.7878 80.5289 17.7491 79.9175 17.7519C79.2915 17.7519 78.52 17.7933 77.814 17.8154H77.8067ZM64.6182 18.4475C66.5615 18.4448 68.1264 18.4006 69.3928 18.3316C72.3624 18.3316 75.1137 18.4144 78.6583 18.2819C75.8197 18.1439 72.6172 18.2074 69.2618 18.3261C67.9153 18.3813 65.0985 18.3261 64.6254 18.4448L64.6182 18.4475ZM30.9189 17.6139L31.6103 17.6277L31.6831 17.6028L30.9189 17.6139ZM17.199 17.3075L17.0825 17.3682L17.0243 17.3986L16.9952 17.4124L16.9806 17.4206H17.0243C17.6721 17.3847 18.8075 17.4289 19.1278 17.3544L18.0433 17.382L17.4901 17.3958L17.2063 17.4013C17.2063 17.4013 17.1408 17.4041 17.1553 17.4013L17.1772 17.3903L17.2208 17.3682L17.199 17.3102V17.3075ZM22.7816 14.9694C19.892 15.4276 17.2645 16.0735 14.9063 16.7416C14.324 16.9127 13.7417 17.0839 13.174 17.2522C12.6208 17.4372 12.0822 17.6166 11.5582 17.7933L11.1506 17.9258L10.9468 17.992C10.8959 18.0114 10.743 18.0473 10.8886 18.0362C11.2234 18.039 11.5509 18.0417 11.8712 18.0445C12.5044 18.05 13.1012 18.0611 13.6471 18.0721C16.9515 18.1494 20.5616 18.1936 24.048 18.1991C25.8021 18.1991 27.5199 18.1991 29.2448 18.1853C30.9262 18.1659 32.6148 18.1466 34.3325 18.1273C39.2454 18.2074 44.0274 18.2074 48.7657 18.1577C53.5039 18.0942 58.2131 18.0279 62.9805 17.9644C54.472 17.9147 45.9416 17.923 37.2366 18.0031C36.2322 17.9672 35.2569 17.9644 34.3252 18.0086C30.9626 17.9589 28.0803 17.9286 25.1689 17.9009C22.2648 17.8789 19.3753 17.8789 16.311 17.8871L13.9819 17.8954L12.7955 17.9009H12.1914C12.024 17.9148 12.1477 17.8816 12.206 17.8623L12.3879 17.7961L13.8582 17.2578C14.3531 17.0783 14.9063 16.9238 15.4303 16.7526L16.2382 16.4987L17.0971 16.2668C17.6794 16.115 18.2471 15.9466 18.8658 15.803L20.78 15.3696C21.4205 15.2206 22.112 15.1019 22.7889 14.9639L22.7816 14.9694ZM39.5584 12.5043L40.9704 12.4022L42.3825 12.3083L43.2195 12.2862L42.4407 12.3C41.4363 12.3221 40.4464 12.3939 39.4784 12.5071C37.6369 12.623 35.8391 12.7472 34.0923 12.9156C33.6556 12.957 33.2189 12.9957 32.7895 13.0371C32.36 13.084 31.9379 13.1309 31.5084 13.1806C31.0863 13.2303 30.6641 13.2772 30.2493 13.3269L29.6233 13.4015L28.8882 13.5036C27.9202 13.6416 26.9521 13.7796 25.9987 13.9177C25.0961 14.0778 24.2009 14.2379 23.3129 14.3952C22.4104 14.5443 21.6825 14.7292 20.9037 14.8921C20.5253 14.9749 20.1541 15.0577 19.7829 15.1405C19.4117 15.2206 19.106 15.3144 18.7711 15.4L17.9632 15.5518L18.5965 15.4469C19.8702 15.1792 21.4059 14.9666 22.818 14.7265C23.524 14.605 24.2882 14.5084 25.0088 14.3842C25.7439 14.2682 26.4499 14.1247 27.2214 14.0005C27.6727 13.9204 28.1676 13.8404 28.699 13.7548C29.223 13.672 29.8126 13.5781 30.3002 13.5202C31.3338 13.3904 32.4183 13.2441 33.5173 13.1337C35.7081 12.8935 37.8917 12.7003 39.5584 12.5071V12.5043ZM38.8815 13.5947L38.2119 13.6499L38.554 13.6582L38.8742 13.5974L38.8815 13.5947ZM57.5217 12.7914L56.641 12.8328L57.4562 12.819L57.5217 12.7914ZM63.752 12.1703L62.9077 12.2172C62.4856 12.2669 60.302 12.2918 60.8698 12.3525L63.1552 12.2172L63.752 12.1703ZM71.4672 11.5327C70.47 11.3339 64.4435 11.6762 60.4476 11.828C56.1169 11.9909 51.2404 12.2366 51.4296 11.9467L51.9172 11.8915L51.1748 11.9467C49.4135 12.1758 46.0435 12.3911 42.528 12.6589C39.0053 12.9322 35.3588 13.2938 33.0296 13.6582C37.7097 13.1227 42.5135 12.8162 47.2954 12.5871C52.0774 12.3608 56.852 12.2062 61.6122 12.0157C65.3678 11.8611 72.5226 11.7369 71.4817 11.5299L71.4672 11.5327ZM76.0089 11.1241C71.671 10.9419 65.6881 11.2759 59.9745 11.4885C64.8001 11.4802 71.0305 11.1407 76.0089 11.1241ZM80.8855 11.3753C80.8855 11.3753 80.4124 11.3532 80.0412 11.3587C79.721 11.3615 79.2333 11.3863 78.8257 11.4029C78.8985 11.4167 78.8112 11.4443 79.0659 11.4471C80.0703 11.4581 80.8127 11.4278 80.8855 11.3781V11.3753ZM84.4665 10.688C84.2191 10.699 83.8187 10.7128 83.7387 10.7238C83.4548 10.7625 83.2728 10.7984 83.0472 10.8343L82.4722 10.8812L83.251 10.837L84.4592 10.688H84.4665ZM121.07 10.6769H118.333C116.761 10.5969 115.393 10.5141 115.313 10.3898C110.953 10.5141 106.586 10.6355 101.862 10.7708C97.1456 10.9281 92.0725 11.0799 86.2861 11.287C92.5602 11.1766 98.1063 11.0993 103.303 10.9944C108.507 10.9143 113.362 10.8149 118.26 10.6852C119.17 10.6852 119.563 10.7708 121.063 10.6797L121.07 10.6769ZM164.719 9.25254L165.614 9.24426L164.792 9.2277L164.719 9.25254ZM154.951 9.74942C155.73 9.73285 156.814 9.72457 157.215 9.69973C157.819 9.66108 157.186 9.63624 156.065 9.6528C155.228 9.66384 154.289 9.68041 153.721 9.70525C153.11 9.73285 153.699 9.75218 154.951 9.74942ZM129.942 9.95921C135.823 10.0144 140.591 9.86535 145.649 9.71077C141.719 9.7715 138.189 9.76598 134.55 9.75218C131.631 9.73561 130.525 9.85983 129.95 9.96197L129.942 9.95921ZM171.59 9.95921L170.774 9.98405C156.793 9.93989 143.488 10.169 128.254 10.4174C132.839 10.5141 137.563 10.5196 142.192 10.4809C146.821 10.4368 151.363 10.3954 155.584 10.4257C164.042 10.4754 169.53 10.3457 170.993 9.99233L171.59 9.95921ZM65.8628 4.11815L66.6998 4.18716L66.7871 4.16508L65.8628 4.11539V4.11815ZM61.6049 4.65919C63.9485 4.82206 66.2194 5.02357 68.3447 5.08154C65.9865 4.89107 63.7011 4.74201 61.6049 4.65919ZM39.0271 2.34596L39.3182 2.40393H39.8059L39.0271 2.34596ZM50.3451 3.2707C49.6828 3.24586 49.035 3.20997 48.3581 3.19341C47.5283 3.17408 46.6768 3.17132 45.6723 3.16028C46.4584 3.19065 47.1135 3.22377 47.7758 3.23757C48.6274 3.2569 49.4862 3.25966 50.3451 3.2707ZM55.491 4.13471L54.7777 4.10435L55.0033 4.14851L55.491 4.13195V4.13471ZM73.8109 3.947C73.9127 3.90008 73.3159 3.85315 72.2314 3.82278C71.8457 3.86419 71.1469 3.89732 71.0814 3.96357C71.045 3.99945 72.4716 4.07674 72.9666 4.06018C73.5197 4.04086 73.709 3.99393 73.8181 3.947H73.8109ZM89.2412 5.87102C87.8947 5.77164 86.6864 5.68331 85.5874 5.60326C84.4884 5.52873 83.4912 5.468 82.5668 5.41003C80.7181 5.29961 79.1532 5.2168 77.5738 5.16159C79.2406 5.29409 80.8273 5.39623 82.6687 5.49836C84.5102 5.59498 86.5918 5.71091 89.2412 5.87102ZM103.252 6.40654L102.517 6.33201L102.364 6.34581L103.252 6.40654ZM109.468 6.32925L108.704 6.2906C103.9 5.9842 99.0962 5.67779 91.3447 5.26373C95.8136 5.56461 99.3146 5.82685 102.16 5.99524C104.999 6.18019 107.168 6.28508 108.959 6.32097L109.475 6.32925H109.468ZM121.703 8.70322L119.236 8.46582L117.205 8.33056C118.027 8.41061 118.85 8.49618 119.672 8.56519C120.342 8.6204 121.026 8.65629 121.703 8.70322ZM134.273 9.55619L133.538 9.47337L133.385 9.48442L134.273 9.55619ZM166.116 12.1979C165.41 12.1096 164.61 12.0461 163.889 12.0185C163.94 12.0406 163.838 12.0544 164.071 12.0847C164.77 12.1758 165.636 12.2476 166.276 12.2586C166.458 12.2614 166.356 12.2255 166.116 12.1952V12.1979ZM169.937 12.1896L169.624 12.1289L169.268 12.1344L169.937 12.1896ZM181.161 12.6699C181.11 12.6037 180.047 12.485 178.788 12.3746C176.947 12.2448 175.899 12.2117 175.68 12.2531C175.418 12.3056 176.743 12.4353 178.33 12.554C179.894 12.6727 181.219 12.7417 181.161 12.6672V12.6699ZM192.748 14.2075L192.581 14.1606H192.115L192.741 14.2075H192.748ZM197.173 14.1716L196.293 14.1247L197.093 14.1909L197.173 14.1716ZM211.934 15.4359L211.083 15.3834L211.061 15.4083L211.934 15.4386V15.4359ZM220.312 15.8858L219.387 15.8582L220.232 15.9079L220.312 15.8858ZM222 15.055C221.287 15.0356 220.785 15.055 220.188 15.055C220.661 15.0881 221.229 15.1433 221.811 15.1681C222.619 15.204 223.951 15.2233 224.155 15.2068C224.788 15.1488 223.529 15.0991 222 15.055ZM232.168 15.3227L231.251 15.3144L232.095 15.3448L232.176 15.3227H232.168ZM252.453 16.3938C252.177 16.3855 251.944 16.3744 251.624 16.3717C251.209 16.3717 250.59 16.3717 250.292 16.3827C249.455 16.4131 249.811 16.4296 251.194 16.4186C251.609 16.4158 252.031 16.402 252.453 16.3938ZM255.889 15.2509C255.634 15.2647 255.379 15.2703 255.125 15.2813L254.608 15.3144L255.401 15.2896C255.561 15.2785 255.729 15.2647 255.889 15.2509ZM261.581 16.2226L260.693 16.2557L261.573 16.2502V16.2254L261.581 16.2226ZM268.451 15.1875C268.044 15.2013 267.629 15.2289 267.221 15.2509C267.491 15.2509 267.716 15.2565 268.029 15.2509C268.444 15.2399 269.048 15.2206 269.339 15.2013C270.162 15.146 269.812 15.1405 268.451 15.1902V15.1875ZM285.33 15.1957L284.413 15.2675L285.192 15.2289L285.323 15.193L285.33 15.1957ZM263.713 11.1848L264.477 11.2262L264.63 11.2042L263.72 11.1848H263.713ZM248.028 10.3374L248.341 10.3788L248.705 10.3539L248.021 10.3374H248.028ZM226.389 10.4368C227.677 10.445 229.177 10.4644 230.138 10.4506C231.047 10.4368 230.305 10.3788 229.337 10.3816C228.187 10.3843 227.35 10.4147 226.389 10.4368ZM197.588 9.86811L201.781 9.9316C203.098 9.94541 203.477 9.9178 203.258 9.89572C201.788 9.79358 200.412 9.79634 199.168 9.81291C198.513 9.82119 198.105 9.84879 197.588 9.86811ZM186.955 9.79358C186.627 9.84051 187.195 9.86259 188.316 9.84879C188.658 9.84327 188.803 9.82119 189.043 9.80738C188.723 9.79634 188.403 9.77702 188.097 9.77426C187.697 9.77426 187.042 9.77978 186.962 9.79082L186.955 9.79358ZM197.981 11.0413C196.256 10.9088 193.279 10.9392 190.979 10.9888L190.477 11.0165L191.234 10.9999C193.927 11.0606 194.488 11.1572 194.095 11.2511C193.854 11.2594 193.396 11.2676 193.432 11.2759C193.534 11.3008 193.84 11.3284 194.073 11.3532L195.448 11.4774L194.546 11.3449C194.051 11.3146 194.058 11.2897 194.575 11.2676C195.871 11.1931 199.561 11.16 197.989 11.0385L197.981 11.0413ZM214.474 11.2042C214.081 11.1931 213.696 11.1793 213.303 11.1683C212.895 11.1683 212.218 11.1545 212.123 11.1628C211.81 11.1876 212.407 11.2124 213.615 11.218C213.936 11.218 214.19 11.2097 214.474 11.2069V11.2042ZM233.959 11.8832C233.515 11.8253 233.064 11.8197 232.86 11.8749C232.809 11.8887 233.027 11.9108 233.122 11.9274C233.398 11.9274 233.871 11.9384 233.915 11.9329C234.039 11.9191 234.09 11.8998 233.959 11.8832ZM279.253 13.1033H278.423C277.273 13.0895 275.817 13.0564 275.075 13.0702C274.522 13.0785 275.795 13.1723 276.501 13.1751C277.462 13.1779 277.87 13.1337 278.518 13.1116L279.253 13.1033ZM259.644 14.2793C259.739 14.2876 260.321 14.2765 260.685 14.271C260.969 14.2517 261.479 14.2296 261.486 14.2158C261.5 14.1661 260.845 14.1716 259.877 14.2268C259.63 14.2406 259.521 14.2682 259.644 14.2765V14.2793ZM224.708 13.5505L229.555 13.614L230.058 13.5974H229.264C228.842 13.5892 228.318 13.5754 228.012 13.5781C227.052 13.5864 224.722 13.4484 224.708 13.5533V13.5505ZM190.776 11.5879C190.929 11.7231 192.93 11.8556 194.837 11.9798C195.943 12.0516 198.367 12.2117 196.992 12.0461C195.943 11.9191 197.29 11.8335 193.265 11.632C192.159 11.5768 191.467 11.6017 190.776 11.5879ZM189.655 12.2007C190.426 12.2366 191.191 12.2642 191.962 12.2918L192.603 12.3L191.773 12.2724C191.256 12.2752 189.153 12.0847 189.655 12.2034V12.2007ZM140.227 7.60733L141.013 7.6929L141.1 7.67634L140.227 7.61009V7.60733ZM115.982 5.45144L116.754 5.53701C116.914 5.53425 117.234 5.54253 117.22 5.52597C117.161 5.46524 116.652 5.41279 116.048 5.40451C115.851 5.40175 115.997 5.43487 115.982 5.45144ZM50.7818 1.91257L51.6989 1.92637L50.9274 1.89325L50.7745 1.91533L50.7818 1.91257ZM38.0955 3.70409C37.7534 3.65716 37.3676 3.61299 36.9527 3.56883C36.8508 3.55778 36.7417 3.54674 36.6398 3.5357H36.6325C36.567 3.7869 37.1929 1.34944 36.9309 2.38184H36.9527H36.9964H37.0837L37.2512 2.39012C37.4768 2.39841 37.7097 2.40393 37.9499 2.41221C38.8961 2.43981 39.9005 2.45913 40.854 2.47846C42.7755 2.5171 44.5151 2.55299 45.2502 2.64408C44.7261 2.66893 42.6954 2.66341 44.2458 2.73794C44.6825 2.71033 45.1192 2.67997 45.5559 2.66065C49.4426 2.79315 53.2201 2.83179 56.9539 2.93945C58.8245 2.98914 60.6878 3.01398 62.5511 3.07747C64.4144 3.1382 66.2777 3.20169 68.1555 3.27622C74.9463 3.57159 78.9567 3.72893 79.6118 4.12643C79.8447 4.26721 83.3602 4.51841 84.532 4.39419C84.8523 4.36107 84.9687 4.26445 86.2497 4.36935C94.7364 5.07602 103.07 5.38242 111.346 6.17191C113.573 6.41206 115.953 6.62738 118.29 6.81508C120.626 7.01107 122.911 7.1767 124.964 7.30368C129.411 7.588 130.459 8.17597 135.823 8.30295C137.104 8.33332 139.455 8.67561 139.521 8.78327C139.63 8.95993 133.021 8.47686 136.202 8.96546C141.894 9.4016 150.162 10.2711 150.941 9.904C149.631 9.77702 148.117 9.639 147.069 9.51478C146.086 9.39884 144.718 9.20837 145.016 9.20837C146.282 9.21389 148.022 9.42092 149.369 9.58931C150.344 9.71353 151.057 9.82395 151.887 9.93989C152.564 9.99785 153.241 10.0558 153.918 10.1138C154.281 10.1331 154.609 10.1469 155.017 10.1745C155.119 10.18 155.701 10.2546 155.657 10.2546C155.453 10.2546 155.089 10.2352 154.784 10.2242C160.847 10.8701 160.861 10.445 167.084 11.0358C179.116 12.162 193.061 12.9322 204.343 13.9039C205.951 14.0557 208.921 14.1578 211.01 14.202L207.96 13.9784C209.736 13.9839 210.791 14.1109 212.072 14.202L214.765 14.3179L217.466 14.4118C219.271 14.478 221.069 14.5415 222.874 14.6078L228.296 14.7596L231.011 14.8369L233.733 14.8866L239.17 14.9859L244.614 15.0218L247.337 15.0384L250.059 15.0191L255.496 14.9694C256.413 14.9528 257.294 14.9059 258.189 14.8728C259.12 14.9086 260.023 14.9473 261.187 14.9639C262.352 14.9804 263.779 14.9915 265.744 14.9059C268.451 14.8038 270.489 14.7292 272.032 14.6713C273.568 14.594 274.624 14.547 275.38 14.5277C276.902 14.4918 277.244 14.5636 277.943 14.7127C278.772 14.6602 279.456 14.6078 280.068 14.5553C280.679 14.4946 281.218 14.4311 281.764 14.3704C282.863 14.2461 283.984 14.1192 285.738 13.9701C286.728 13.8818 287.725 13.8155 288.7 13.7106L291.648 13.4125L294.596 13.1171L295.331 13.0454L295.702 13.0095L295.884 12.9902L295.928 12.9846H295.949C295.979 13.1337 295.92 12.7748 295.92 12.8135H295.906L295.811 12.8107L294.29 12.7638C290.236 12.6368 286.174 12.496 282.106 12.347C273.961 12.0654 265.78 11.7811 257.563 11.4968C255.43 11.4222 253.392 11.3339 251.835 11.2373C250.277 11.1434 249.2 11.0441 248.989 10.9336C248.8 10.8315 247.722 10.7128 244.418 10.6824C242.22 10.6631 240.881 10.6493 242.082 10.8232C244.251 11.1407 237.773 10.9668 234.083 10.895C230.021 10.8067 228.151 10.6051 226.309 10.434C223.827 10.3705 220.202 10.1662 219.147 10.3263C217.131 10.6272 211.65 10.4975 205.929 10.3678C200.98 10.2711 196.096 10.2076 191.22 10.18C186.343 10.1718 181.467 10.1635 176.51 10.1552C177.987 10.4174 180.841 10.4975 187.078 10.5003H192.013C193.658 10.5113 195.303 10.5168 196.955 10.5251C200.252 10.5472 203.557 10.5693 206.868 10.5913C210.18 10.6328 213.499 10.6852 216.833 10.7487C218.499 10.7846 220.166 10.8177 221.84 10.8536C223.514 10.9033 225.188 10.953 226.87 11.0054C229.927 11.1048 233.18 11.1931 236.521 11.2649C239.862 11.3505 243.29 11.4222 246.696 11.4692C251.005 11.5244 253.174 11.5713 255.823 11.6734C258.473 11.7783 261.624 11.9246 267.876 12.2421C269.994 12.3553 272.768 12.4243 274.551 12.4077C277.033 12.3829 282.033 12.4519 283.198 12.5899C285.57 12.8549 288.271 12.9764 291.044 13.0619C292.434 13.0978 293.839 13.1365 295.236 13.1723L295.76 13.1861H295.789H295.797C295.898 13.6913 295.666 12.496 295.687 12.6203H295.673L295.607 12.6285L295.484 12.6423L295.236 12.6672C294.901 12.7003 294.567 12.7334 294.239 12.7666C293.577 12.8328 292.914 12.8935 292.259 12.9515C291.313 13.0371 290.36 13.1227 289.421 13.2055C288.482 13.2938 287.543 13.3821 286.589 13.4456C284.697 13.5919 282.812 13.7382 280.934 13.8818C279.995 13.9618 279.049 14.017 278.103 14.075L275.257 14.2489L272.404 14.4201C271.45 14.4808 270.489 14.5084 269.529 14.5526C267.673 14.6298 265.809 14.7016 263.931 14.7706C262.046 14.8148 260.147 14.8424 258.232 14.8672C257.199 14.8534 256.122 14.8672 255.008 14.8617C253.894 14.8562 252.752 14.859 251.594 14.8617C250.437 14.87 249.258 14.8783 248.086 14.8893C246.914 14.9004 245.743 14.8838 244.585 14.8783C242.817 14.8645 241.048 14.8534 239.287 14.8396C237.525 14.8038 235.771 14.7651 234.032 14.7292C233.158 14.7099 232.292 14.6878 231.426 14.6685C230.56 14.6436 229.701 14.6078 228.849 14.5774C227.139 14.5084 225.443 14.4394 223.762 14.3731C223.427 14.3731 223.114 14.3786 222.75 14.3676C222.619 14.3648 222.139 14.3262 222.182 14.3234C222.299 14.3124 222.604 14.3124 222.83 14.3096C220.996 14.2406 219.184 14.1744 217.371 14.1054L214.656 14.0087L211.941 13.8901C210.129 13.81 208.317 13.7272 206.483 13.6444C204.656 13.545 202.814 13.4401 200.951 13.3269C181.35 12.1041 161.924 10.3678 142.519 8.59832C136.922 8.08764 130.656 7.59076 125.903 7.09389C122.868 6.78196 122.103 6.62738 119.265 6.53628C117.263 6.47003 114.243 6.30165 111.681 6.17743C111.208 6.04217 110.341 5.8793 107.576 5.65847C99.9187 5.02357 92.5238 4.37211 84.3282 3.97185C82.232 3.87799 79.8956 3.76206 77.683 3.62403C75.4631 3.50258 73.3596 3.35351 71.7438 3.16856H72.3115L71.4963 3.14648C69.7131 3.06919 67.9663 3.03606 66.234 2.96705C64.5017 2.90356 62.7767 2.80419 61.0226 2.66893C59.1666 2.53091 54.29 2.30731 53.3147 2.34044C51.1676 2.42877 48.3362 2.41221 45.2138 2.36252C43.6489 2.35148 42.0185 2.33768 40.3591 2.32663C39.5293 2.32111 38.6996 2.31283 37.8625 2.30731L37.2366 2.30179H36.9236H36.9163C36.2467 4.89383 36.7344 3.0195 36.5888 3.59919H36.6106H36.647L36.7198 3.60747L36.8727 3.61851C37.2803 3.64612 37.6879 3.67096 38.0882 3.69857L38.0955 3.70409ZM42.6518 3.44461C42.3533 3.35903 43.1685 3.32039 40.2426 3.1244C39.4129 3.06919 38.161 2.99742 37.8698 3.00294C36.7781 3.0195 39.2891 3.21549 40.3008 3.33143C41.8293 3.50534 42.2951 3.47497 42.6518 3.44461ZM47.2518 4.88003C47.3391 4.8607 46.6695 4.78617 46.3419 4.73925C45.2866 4.70336 44.1366 4.65919 43.1977 4.63711C42.4553 4.61779 42.9356 4.67852 44.2676 4.77237C45.8688 4.88003 47.0261 4.92695 47.2445 4.88003H47.2518ZM57.66 3.57711C55.622 3.42252 53.6932 3.27898 51.6407 3.14372C49.5954 3.00294 47.4192 2.87044 44.9008 2.75174C47.6739 2.97257 49.9011 3.12992 51.9172 3.2569C53.9334 3.37836 55.7384 3.47221 57.66 3.57711ZM77.1226 6.49212C74.8226 6.13878 69.5821 5.81581 70.3681 5.69159C70.7685 5.6281 68.8033 5.43487 67.1438 5.41279C62.9659 5.3493 55.4109 4.77237 48.9258 4.65643C54.1663 4.96284 58.8027 5.22232 63.3226 5.51769C67.8498 5.81029 72.2824 6.1029 77.1153 6.48935L77.1226 6.49212ZM78.5928 4.70336C78.1925 4.673 77.7922 4.64263 77.3773 4.60951C77.0716 4.60398 76.5184 4.57914 76.4966 4.59018C76.402 4.63987 77.057 4.68956 78.1343 4.71992C78.4108 4.7282 78.4472 4.70888 78.5928 4.7006V4.70336ZM85.0051 6.75988L84.6485 6.70191L84.2336 6.71295L85.0051 6.75988ZM87.9893 6.24092C87.7345 6.21607 87.4434 6.18019 87.2323 6.16915C86.8393 6.14982 86.3007 6.12774 86.1624 6.13326C85.7111 6.14982 86.2061 6.19675 87.3633 6.24644C87.6618 6.26024 87.7855 6.24368 87.9893 6.24092ZM95.2459 7.04972L94.3434 7.00555L95.0931 7.06628L95.2459 7.04972ZM106.651 6.58045C111.215 6.9117 113.551 6.94758 115.422 6.83165C113.413 6.72675 111.44 6.62461 109.49 6.52524C107.546 6.41758 105.632 6.31269 103.733 6.20779C99.9405 5.99248 96.2212 5.79925 92.5092 5.57565C91.5776 5.47628 90.5877 5.42107 89.5469 5.39623H88.9209L89.7143 5.41555L91.0754 5.49284L92.4364 5.57289C97.182 5.90967 102 6.25196 106.651 6.58045ZM109.024 7.43894C108.871 7.43894 109.046 7.48035 109.25 7.49415C109.577 7.51623 110.065 7.5328 110.487 7.55212C110.676 7.5466 111.135 7.5466 111.004 7.53279C110.429 7.46654 109.635 7.4279 109.017 7.4417L109.024 7.43894ZM123.028 8.83019C117.161 8.44374 110.072 8.2229 108.988 7.8116C104.948 7.78675 108.995 8.16217 108.908 8.29467C102.801 8.11248 104.846 7.85024 100.37 7.64597C98.8124 7.8392 104.046 8.17321 108.631 8.44926C115.611 8.84676 119.636 8.88816 123.021 8.83019H123.028ZM123.246 9.49546C121.521 9.41816 121.274 9.46233 120.59 9.47337C119.942 9.48442 120.24 9.55067 120.961 9.57551C122.103 9.61692 123.006 9.61415 123.814 9.60863C124.549 9.60587 124.221 9.55619 123.246 9.4927V9.49546ZM132.774 9.30223C132.555 9.25806 132.191 9.20009 131.558 9.15316C129.877 9.03447 129.404 9.07587 128.982 9.09796C128.407 9.12832 128.989 9.19733 130.554 9.28842C132.046 9.35744 133.261 9.39884 132.781 9.30223H132.774ZM140.008 8.47962C139.717 8.45478 139.47 8.42165 139.171 8.40785C137.854 8.34436 137.607 8.35816 138.538 8.43821C138.786 8.4603 139.259 8.48238 139.623 8.50446C139.761 8.49618 139.892 8.4879 140.008 8.47962ZM165.534 11.494C164.872 11.4443 164.275 11.3808 163.532 11.3449C162.47 11.2953 161.989 11.3146 162.637 11.3808C163.074 11.4278 163.816 11.4912 164.537 11.5271C165.599 11.5768 165.978 11.5575 165.534 11.494ZM165.832 10.8978C164.457 10.6962 161.349 10.6024 158.692 10.5196C156.734 10.4588 156.079 10.5141 155.468 10.561C149.5 10.3098 149.23 10.1276 149.929 9.98405H150.584L149.762 9.97025C146.705 9.96749 143.655 9.96197 140.401 9.95921C146.501 10.445 151.021 10.5113 155.613 10.572C156.931 10.6079 158.241 10.63 159.58 10.6824C161.64 10.7625 162.768 10.9668 165.41 10.9833C165.934 10.9861 166.109 10.9392 165.832 10.8978ZM149.07 8.91577L148.837 8.86884L148.393 8.88264L149.07 8.91577ZM168.103 10.2435H167.375C165.498 10.1662 163.612 10.0889 161.735 10.0117C161.487 9.97025 161.276 9.92884 160.956 9.88744C160.876 9.8764 160.184 9.84327 160.184 9.84327C159.537 9.87639 160.847 9.95093 161.567 10.0144C163.547 10.1856 165.563 10.2573 167.601 10.2601L168.103 10.2435ZM172.194 9.639C167.157 9.30775 162.433 9.05655 157.855 8.86608C153.277 8.68941 148.874 8.52103 144.485 8.35264C143.742 8.30019 143.058 8.24222 142.236 8.1953C141.151 8.13457 139.768 8.03795 139.033 8.07936C139.899 8.12629 140.751 8.17321 141.632 8.2229C142.52 8.26707 143.429 8.31123 144.325 8.3554C148.437 8.67285 152.768 8.8854 157.389 9.05931C162.011 9.23598 166.917 9.41264 172.194 9.64176V9.639ZM177.267 11.229C176.837 11.2124 176.408 11.2097 176.015 11.1986C176.27 11.218 176.488 11.2428 176.816 11.2594C177.23 11.2815 177.907 11.3091 178.177 11.3118C179.036 11.3146 178.672 11.2787 177.267 11.2262V11.229ZM185.535 10.2573L182.245 9.99509C182.071 9.95645 182.085 9.92332 182.274 9.89572L182.871 9.88468L181.954 9.8764C181.714 9.88192 181.234 9.87639 181.27 9.8902C181.372 9.92056 181.707 9.95921 181.947 9.99233C183.199 10.0807 181.823 10.18 185.528 10.2573H185.535ZM187.792 11.6127L186.86 11.5961L187.777 11.6431L187.792 11.6127ZM188.519 10.8205L188.024 10.7708C186.816 10.71 185.615 10.6383 184.4 10.5969C183.388 10.561 183.053 10.6107 183.868 10.6493C185.055 10.7018 186.46 10.7321 187.77 10.7735L188.519 10.8232V10.8205ZM189.327 11.9716L188.985 11.9246L188.599 11.9467L189.327 11.9716ZM252.25 12.5568C252.606 12.3553 252.752 12.2007 253.108 12.1096C253.305 12.0599 253.356 11.9412 253.138 11.8749C252.934 11.8142 252.715 11.8611 252.592 11.9495C252.373 12.1068 252.14 12.2642 252.25 12.554V12.5568ZM252.169 12.7583L252.235 12.7776L252.25 12.7528L252.162 12.7583H252.169ZM251.216 12.1455C251.303 12.1979 251.434 12.1344 251.463 12.0792C251.5 12.0102 251.544 11.9357 251.376 11.8805C251.311 11.897 251.201 11.9136 251.194 11.9329C251.18 12.0047 251.136 12.0985 251.216 12.1427V12.1455ZM250.139 12.1427C250.248 12.151 250.299 12.1289 250.277 12.0765C250.255 12.0295 250.233 11.9771 250.212 11.9274C250.153 11.9495 250.066 11.9688 250.044 11.9964C250.008 12.0488 250.015 12.1068 250.139 12.1427ZM248.952 13.0481L249.032 13.0674V13.0343L248.952 13.0481ZM248.865 12.3497C248.865 12.3497 248.916 12.3746 248.952 12.3801C248.989 12.3856 249.032 12.3829 249.069 12.3801C249.083 12.3801 249.083 12.358 249.091 12.347L248.865 12.3525V12.3497ZM230.705 11.4747H231.535H234.279L231.309 11.4554L230.705 11.4719V11.4747ZM234.192 11.7977L234.039 11.8197L234.97 11.8335L234.192 11.7977ZM218.805 11.3477C218.849 11.4112 219.802 11.4802 221.149 11.4609C221.84 11.4498 221.673 11.3781 221.513 11.3256C221.454 11.3063 220.283 11.2621 219.322 11.2152C219.118 11.2621 218.761 11.3008 218.798 11.3477H218.805ZM194.073 10.3374L193.127 10.3125L193.92 10.3567L194.073 10.3346V10.3374ZM197.668 12.0074C197.428 11.9854 197.254 11.955 196.933 11.944C195.805 11.897 195.092 11.8943 195.106 11.9384C195.106 11.9522 195.478 11.9909 195.798 12.0019C196.919 12.0488 197.566 12.0488 197.676 12.0074H197.668ZM205.573 12.2062L204.779 12.162L204.627 12.1841L205.573 12.2062ZM206.162 11.3229C206.162 11.3229 206.031 11.3118 205.806 11.3008C205.58 11.2897 205.26 11.2759 204.91 11.2594C204.204 11.229 203.36 11.1959 202.807 11.1821C201.584 11.1517 200.478 11.16 199.321 11.149L196.205 11.2787L195.703 11.3008L196.416 11.2925L199.372 11.3836L200.07 11.4333L199.575 11.3808L199.604 11.1655C200.507 11.1931 201.417 11.2207 202.297 11.2483C203.673 11.2815 205.769 11.4305 206.162 11.3229ZM209.03 10.8425H208.149L207.443 10.8536H208.273L209.03 10.8425ZM249.506 13.8542L249.433 13.8348L249.418 13.8624L249.506 13.8542ZM249.491 13.6416L249.506 13.6085L249.418 13.6195L249.498 13.6416H249.491ZM251.187 13.2993C251.143 13.2441 250.99 13.2082 250.874 13.2441C250.168 13.4622 249.426 13.3104 248.901 13.1806C248.807 13.1585 248.712 13.1392 248.625 13.1227C248.581 13.1144 248.538 13.1089 248.494 13.1033C248.479 13.1033 248.487 13.1033 248.45 13.1006L248.094 13.0895C247.861 13.084 247.62 13.0757 247.388 13.0702C245.532 13.0233 243.799 12.9902 242.147 12.9708C238.835 12.9377 235.822 12.9294 232.663 12.9487C231.637 12.9543 229.395 12.8521 228.893 12.8908C228.696 12.8853 228.536 12.8825 228.34 12.877C225.428 12.6948 220.705 12.4712 228.362 12.5374L229.148 12.5844L228.515 12.5347C228.573 12.4049 230.159 12.3635 233.515 12.4132C234.294 12.4243 238.435 12.5512 235.094 12.347C231.688 12.1399 221.418 11.9605 222.481 12.1041C225.858 12.5899 215.879 12.358 212.043 12.5264C215.624 12.5899 218.943 12.6699 228.784 12.9101C228.777 12.9184 228.777 12.9294 228.842 12.946C229.395 13.073 231.717 13.153 234.403 13.1751C240.298 13.2276 246.296 13.3352 238.1 13.142C240.881 13.2055 243.989 13.2745 247.497 13.3545C247.715 13.3601 247.933 13.3656 248.159 13.3683L248.421 13.3739H248.45L248.574 13.3821C248.654 13.3849 248.741 13.3904 248.829 13.3959C249.003 13.4042 249.193 13.4153 249.389 13.4235C249.775 13.4318 250.343 13.4484 250.91 13.4511C251.092 13.4511 251.26 13.4042 251.18 13.3076L251.187 13.2993ZM250.954 12.4436L250.881 12.4215L250.932 12.4546C251.07 12.5733 251.063 12.6617 250.707 12.7003C250.503 12.7224 250.299 12.7555 250.095 12.7831C250.037 12.7583 249.993 12.7252 249.928 12.7114C249.833 12.6893 249.717 12.6644 249.622 12.7224L249.848 12.7555L250.073 12.7942C250.088 12.8825 250.088 13.0426 250.11 13.0454C250.648 13.0536 251.143 12.9625 251.413 12.7666C251.66 12.5899 251.252 12.5126 250.954 12.4436ZM253.072 13.4539C252.541 13.2358 252.206 13.3131 251.835 13.4346C252.228 13.6306 252.584 13.5174 253.072 13.4539ZM254.149 13.4235H254.076L254.106 13.4567L254.149 13.4235ZM254.288 13.0785C253.632 12.8052 253.087 13.004 252.526 13.1558C253.108 13.1061 253.683 13.0785 254.288 13.0785ZM254.397 12.5733C254.397 12.5595 254.397 12.5402 254.375 12.5292C254.302 12.4878 254.237 12.4933 254.222 12.543C254.222 12.554 254.258 12.5761 254.288 12.5789C254.317 12.5844 254.36 12.5761 254.397 12.5733ZM254.702 13.8404L254.433 13.8928L254.368 13.9232L254.455 13.9039L254.702 13.8404ZM255.576 11.9743C255.365 11.9495 255.307 12.0378 255.183 12.0765L254.913 12.1841C254.833 12.1869 254.746 12.1869 254.666 12.1841L254.593 12.1537L254.659 12.1869C254.739 12.231 254.833 12.2283 254.928 12.1924L255.205 12.0875C255.321 12.0654 255.445 12.0461 255.554 12.0212C255.576 12.0157 255.576 11.9771 255.576 11.9771V11.9743ZM256.515 12.2835C256.675 12.2283 256.842 12.151 256.85 12.0295C256.85 12.0047 256.748 11.9578 256.697 11.9578C256.398 11.9605 256.231 12.0461 256.18 12.1648C256.158 12.2228 256.289 12.2614 256.515 12.2835ZM256.391 13.5008C256.369 13.4843 256.355 13.4622 256.326 13.4567C256.224 13.4373 256.173 13.4567 256.209 13.5064C256.216 13.5202 256.275 13.5284 256.311 13.5312C256.333 13.5312 256.362 13.5119 256.384 13.5008H256.391ZM256.835 12.6313L256.777 12.5374C256.631 12.5678 256.486 12.5982 256.347 12.6341C256.333 12.6368 256.376 12.7114 256.427 12.7169C256.617 12.7445 256.74 12.692 256.835 12.6285V12.6313ZM257.213 13.1834L257.126 13.1917L257.199 13.211L257.213 13.1806V13.1834ZM257.912 12.2669C258.036 12.2835 258.16 12.2366 258.109 12.1786C258.072 12.1399 257.927 12.1179 257.832 12.0903C257.774 12.1179 257.679 12.151 257.687 12.1565C257.745 12.1979 257.818 12.2531 257.905 12.2642L257.912 12.2669ZM258.014 12.8107C257.941 12.7886 258.065 12.7058 257.869 12.7224L257.992 12.8162C258.007 12.8466 258.021 12.8797 258.043 12.9073C258.043 12.9156 258.087 12.9184 258.109 12.9239C258.174 12.8687 258.072 12.8439 258.007 12.808L258.014 12.8107ZM258.997 12.2172C258.997 12.2172 258.931 12.2007 258.895 12.1896C258.866 12.2007 258.822 12.2117 258.822 12.2228C258.822 12.2393 258.851 12.2642 258.88 12.2697C258.989 12.2862 259.033 12.2669 258.997 12.2172ZM260.234 12.4187L260.169 12.3856L260.103 12.3553L260.161 12.3884L260.234 12.4187ZM261.253 12.3801L261.093 12.3221L260.911 12.3718C260.962 12.3967 261.013 12.4353 261.071 12.4381C261.129 12.4381 261.195 12.4022 261.253 12.3801ZM262.854 12.4629L262.789 12.4298L262.65 12.2973L262.49 12.358L262.781 12.4325L262.854 12.4602V12.4629ZM263.64 12.5402C263.648 12.4933 263.648 12.4132 263.589 12.4022C263.451 12.3746 263.4 12.4353 263.393 12.4546C263.356 12.543 263.378 12.5954 263.517 12.612C263.546 12.6147 263.64 12.5678 263.64 12.543V12.5402Z" fill="#FF5700"/>
</svg>
