<svg width="179" height="17" viewBox="0 0 179 17" fill="none" xmlns="http://www.w3.org/2000/svg">
<g clip-path="url(#clip0_457_2869)">
<path d="M163.072 12.5184C163.493 12.3119 163.972 12.0551 164.524 11.7203C164.205 11.9045 163.744 12.1612 163.066 12.4737C163.066 12.4849 163.066 12.5016 163.066 12.5184H163.072Z" fill="#FF5700"/>
<path d="M175.764 11.4691C175.468 11.2571 175.143 11.1119 174.813 10.9947C174.528 10.8999 174.642 10.3194 174.232 10.3194C173.924 10.2692 173.599 10.2134 173.269 10.2246C173.087 10.2357 172.944 10.4087 172.882 10.6599C172.825 10.8831 172.904 11.0059 173.007 11.0729C173.292 11.2459 173.497 11.5138 173.901 11.2403C174.158 11.0673 174.277 11.1064 174.192 11.4245C174.141 11.631 174.163 11.7426 174.283 11.7035C174.744 11.5808 175.012 11.8375 175.411 11.9603C175.525 11.9993 175.736 11.9603 175.867 11.7984C176.009 11.6198 175.867 11.5529 175.764 11.4803V11.4691Z" fill="#FF5700"/>
<path d="M178.59 12.4235C178.345 12.4905 178.323 12.284 178.226 12.1724L178.106 12.0217C177.753 12.0217 177.611 11.8654 177.639 11.5529L177.662 11.4803L177.622 11.5529C177.451 11.6589 177.246 11.7482 177.126 11.6143C176.75 11.2013 176.329 10.8831 175.913 10.5873C175.491 10.286 175.104 10.0181 174.688 9.63297C174.58 9.53251 174.597 9.40415 174.705 9.2702C174.756 9.20881 174.865 9.35392 174.887 9.18648L174.699 9.23671C174.443 9.2702 174.153 9.22555 173.959 9.38182C173.572 9.68878 173.389 9.86738 173.48 9.153C173.361 9.153 173.241 9.16416 173.121 9.17532C173.036 9.37624 172.979 9.62739 172.745 9.4767C172.671 9.43205 172.643 9.29252 172.706 9.20323C172.837 9.03021 172.985 9.13067 173.116 9.16974C172.706 8.70651 172.199 8.66744 171.862 9.0637C171.726 9.22555 171.555 9.3874 171.504 9.58832C171.196 10.7883 170.621 10.9222 170.079 11.2236C169.926 11.3129 169.823 11.1454 169.692 11.0729C169.504 10.9613 169.316 10.8329 169.379 11.3464C169.401 11.5194 169.248 11.4636 169.179 11.3129C169.06 11.045 168.963 10.7548 168.803 10.3585C168.615 11.2068 168.285 11.4747 167.744 11.6924C167.55 11.7705 167.379 11.8989 167.208 12.0552C167.123 12.1277 167.043 12.217 166.958 12.3007C166.906 12.351 166.895 12.3677 166.809 12.4403L166.473 12.6914C166.092 12.976 165.869 12.937 165.636 12.87C165.824 12.5798 165.989 12.3063 165.738 12.1668C165.305 12.5296 165.716 12.6189 165.59 12.8812C165.266 13.1546 164.787 13.4504 164.348 13.696C163.898 13.9527 163.454 14.2095 163.055 14.4997C161.847 15.4206 160.281 16.0289 158.76 15.5322C158.697 15.5154 158.224 15.655 157.928 15.6996C158.293 15.7387 158.817 15.6773 158.68 15.9117C158.663 15.9452 158.555 15.9898 158.469 16.0066C157.808 16.0903 157.877 15.8894 157.734 15.7722C156.937 15.5378 156.213 15.3927 155.473 15.2978C155.114 15.2699 154.721 15.2029 154.328 15.1694C153.94 15.1471 153.53 15.069 153.114 15.0131C152.368 14.9071 151.61 14.6336 151.821 14.176C152.049 14.243 152.3 14.2932 152.533 14.3434C152.607 14.2932 153.114 14.522 152.824 14.2318L152.47 14.2764C152.243 14.2262 151.992 14.1871 151.775 14.1202C150.357 13.2328 148.984 12.4235 148.842 11.3966C148.842 11.3687 148.637 11.2292 148.545 11.2124C148.067 11.1454 147.799 10.9557 147.617 10.8217C147.526 10.7213 147.429 10.6711 147.343 10.565C147.241 10.4869 147.138 10.4032 147.019 10.3362C146.973 10.2748 147.138 10.1409 146.939 10.1353L147.007 10.3418C146.939 10.4813 146.842 10.6487 146.683 10.5259C146.449 10.3474 146.141 10.1018 145.754 10.2636C145.355 10.4422 145.099 10.632 144.763 10.1241C144.58 9.84505 144.085 10.085 143.76 10.2636C143.418 10.4366 143.15 10.5315 143.076 10.1743L143.344 9.87296C143.492 9.8004 143.68 9.73901 143.783 9.63855C143.88 9.55484 143.771 9.48228 143.657 9.55484C143.515 9.63855 143.424 9.75575 143.316 9.85621L143.037 10.152C142.706 10.4534 142.512 10.8385 141.852 10.911C141.692 10.9334 141.436 10.9948 141.367 11.0896C140.974 11.564 140.541 11.8542 140.08 12.0719C139.516 12.3063 138.94 12.5463 138.365 12.7863L138.006 12.7751L138.331 12.8309C138.217 13.3332 137.858 13.8411 137.38 14.2039C136.912 14.5667 136.343 14.7732 135.927 14.656C134.731 14.3155 134.024 14.9573 132.777 15.6829C132.526 15.8391 132.03 15.895 131.649 15.9898H131.478L131.597 16.0233C131.791 16.3191 131.261 16.6149 130.526 16.8214C129.336 17.1507 128.834 16.9721 129.085 16.4698C129.153 16.3303 129.643 16.1852 129.085 16.0456C128.305 16.2912 127.456 16.5033 126.578 16.6261C126.111 16.6986 125.53 16.7377 125.217 16.4754C124.613 15.9898 123.77 15.9452 123.314 16.0122C121.987 16.2131 121.064 15.5545 120.261 14.8122L120.414 14.8234L120.238 14.7843C119.423 14.6057 118.591 14.3713 118.853 13.763C118.91 13.7686 119.013 13.802 119.019 13.7797C119.036 13.7239 119.013 13.6458 119.007 13.5732L118.876 13.4337L118.967 13.5621C118.933 13.629 118.893 13.6904 118.853 13.7518C118.654 13.5621 118.449 13.3667 118.25 13.1937C118.062 13.0263 117.868 12.87 117.674 12.7305C117.287 12.4514 116.888 12.2338 116.467 12.0942C116.233 12.0161 116.005 12.0049 115.783 11.9324C115.105 11.7036 114.797 11.631 114.666 11.4691C114.541 11.3129 114.609 11.0729 114.786 10.6543C114.803 10.6152 114.661 10.5148 114.592 10.4311C114.102 10.2915 114.319 10.6431 114.211 10.7604C113.721 11.3185 113.538 11.3687 112.821 10.8496C112.285 10.4925 111.75 10.4143 111.083 10.5315C110.77 10.5929 110.713 10.3864 110.73 10.2246L110.815 10.1632L110.707 10.2078C110.28 10.2469 109.83 10.4311 109.414 10.2915C108.098 9.85622 106.822 10.3083 105.603 10.7827C105.489 10.8273 105.261 10.7492 105.084 10.738C105.124 10.6543 105.437 10.5706 105.153 10.498L105.073 10.738C104.435 10.7715 103.802 10.8776 103.164 11.0282C102.515 11.1845 101.854 11.391 101.171 11.6198C99.8033 12.0775 98.3449 12.6468 96.67 13.0821C97.3594 12.2561 98.0031 11.6254 97.8835 11.0841C96.1801 11.7705 95.8383 11.9826 95.8668 12.8086C95.8725 13.1546 95.9693 13.3723 95.1661 13.7239C94.2888 14.109 93.7305 14.0923 93.2861 13.83C93.0639 13.7016 92.688 13.5509 92.3063 13.7462C91.0985 14.349 89.4237 14.1537 88.2615 14.7564C87.669 15.0578 86.7746 15.1303 85.9885 14.9964C85.2365 14.868 84.7466 14.7564 83.7724 14.8457C82.5305 14.9518 81.9267 14.4215 82.2172 13.7574L82.3425 13.7127L82.1944 13.7407L81.6988 13.6793C81.6304 13.6904 81.5621 13.7016 81.4823 13.7016C81.4709 13.7016 81.4082 13.6458 81.3684 13.6179L81.5791 13.59C80.605 13.1323 80.098 13.1602 80.3031 13.6235C80.6449 14.2988 80.098 14.1146 79.1637 13.5955C78.2123 13.0598 77.2211 12.5072 76.264 11.8933L75.8196 11.6031C75.9962 11.0171 75.1759 10.5204 74.6518 10.1464C74.1619 9.8004 74.2131 9.566 74.2587 9.32601C74.3043 9.08602 74.3385 8.84604 73.9112 8.63954C73.4099 8.41071 73.0282 8.68977 72.4756 8.3549C72.0085 8.07585 71.4901 7.80795 70.8691 7.67401C70.2652 7.51774 69.593 7.50099 69.0119 7.7075C68.6302 7.83028 68.4138 7.54006 68.1802 7.32798C67.9523 7.12148 67.6903 7.04893 67.3542 7.66843C66.5053 7.85818 65.6451 8.13724 64.802 8.50001C63.7595 8.95208 62.7739 9.40973 61.5833 9.85063C61.3155 9.95667 61.082 10.0404 60.7515 10.1855C60.4382 10.325 60.1135 10.4701 59.7831 10.632C59.1222 10.9445 58.4614 11.3073 57.7949 11.7426C56.4276 12.6244 56.251 12.5407 55.6985 11.8208C55.6472 11.7482 55.6016 11.6701 55.425 11.737C55.1914 11.8152 54.9465 11.938 54.7813 12.0496C54.5249 12.2282 54.0521 12.5072 53.5621 12.7193C53.0722 12.937 52.5595 13.0932 52.3088 13.0932C51.5227 13.0821 50.7821 13.1937 50.0016 13.2272C49.2326 13.283 48.4293 13.2551 47.6431 13.0598C47.0336 12.8644 46.1335 12.8421 46.293 12.3844C46.35 12.2226 46.1392 12.1054 45.8315 12.0887C44.8859 12.0719 43.8775 11.5473 43.0344 10.911C42.1685 10.2581 41.5304 9.50461 40.8639 9.01347C40.2544 8.54466 40.2202 8.31025 40.2544 8.0312C40.2999 7.75773 40.4651 7.52332 40.3626 7.18287C40.1347 7.22752 39.9125 7.23868 39.7018 7.22752C39.491 7.21636 39.2916 7.14381 39.0979 7.09916C38.9099 7.03776 38.7276 6.93172 38.5453 6.83684C38.3744 6.71406 38.175 6.60244 37.9642 6.44059C37.7933 6.2899 37.5598 6.22293 37.3433 6.13921C37.1211 6.06665 36.842 6.06665 36.5856 6.06665C35.1272 6.15595 33.7144 6.55221 32.0737 6.67499C31.8287 6.9987 31.4983 6.96521 31.1337 6.98195C30.7691 6.9987 30.4102 7.05451 30.1767 7.55122C30.0399 7.8526 29.681 8.08143 29.2424 8.3549C28.8037 8.62837 28.2739 8.9465 27.8353 9.33159C27.3169 9.78924 26.713 10.2804 26.0351 10.699C25.3572 11.1175 24.5881 11.4636 23.8475 11.6533C22.6056 11.9603 21.808 12.6523 20.6687 12.8812C17.7633 13.4449 14.8579 13.763 11.9867 13.5007C11.3714 13.4449 10.7562 13.3667 10.1409 13.2718L9.91305 13.2328L9.71936 13.1993L9.51997 13.1546L9.12119 13.0653C8.59709 12.9314 8.06728 12.803 7.55457 12.6244C6.52344 12.2896 5.50941 11.8766 4.57513 11.2961C3.19649 10.4366 1.95459 9.38182 0.883581 8.12608C0.650012 7.85818 0.353777 7.41728 0.604437 7.22194C1.29945 6.65267 0.644315 6.57453 0.484804 6.27874C0.302505 5.98294 0.125903 5.67598 0.0119669 5.34111C-0.0336077 5.20717 -0.0734855 5.06206 0.11451 4.98392C0.262627 4.91695 0.501894 4.88904 0.547469 4.97834C0.746858 5.39134 1.28236 5.11787 1.61847 5.14019C1.85204 5.15136 2.05713 5.1681 2.24512 5.196C2.41033 5.22391 2.58124 5.26298 2.72366 5.31321C3.0085 5.41367 3.27055 5.56994 3.5497 5.71505C4.615 6.24525 5.84552 6.94847 7.25833 7.26101C8.24958 7.48425 9.25222 7.71308 10.2833 7.86377L10.477 7.89167C10.6252 7.914 10.7733 7.93632 10.9271 7.94748C11.229 7.97539 11.531 8.01446 11.8386 8.0312C12.4481 8.07585 13.0634 8.09259 13.6787 8.08143C14.9092 8.06468 16.1454 7.94748 17.336 7.71866C19.0337 7.39495 20.7085 6.93172 22.0302 6.26199C22.6853 5.93829 23.2949 5.51971 23.9785 4.98392C24.6621 4.44814 25.4312 3.76725 26.3598 3.07519C26.7984 2.75149 27.2599 2.43336 27.7897 2.1264C28.3081 1.82503 28.8322 1.57388 29.362 1.34505C30.4273 0.892984 31.5268 0.552537 32.6776 0.323712C33.8397 0.0837254 35.0361 -0.0223153 36.2666 9.04454e-06C36.5742 9.04454e-06 36.8875 0.0334956 37.1952 0.0502389C37.5085 0.0837254 37.8161 0.133955 38.1294 0.173023C38.7447 0.234415 39.4055 0.429753 40.055 0.597186C40.5221 0.759037 40.9949 0.943213 41.445 1.15529C41.878 1.39528 42.3508 1.62969 42.7382 1.92549L43.3306 2.36081C43.5243 2.5115 43.6782 2.66219 43.8548 2.81288C44.2137 3.12542 44.4814 3.41564 44.7719 3.71143C45.8543 4.89463 46.5095 5.69272 47.119 6.07782C47.6887 6.42384 48.2299 6.6136 49.0446 6.75871C49.8592 6.87591 50.7308 6.88707 51.6765 6.7308C53.5621 6.43501 55.613 5.56994 57.51 4.32535C57.6411 4.1635 57.8462 4.05188 58.074 4.00723C60.1933 2.84078 62.6087 1.78038 65.3432 1.19436C66.7047 0.904146 68.1574 0.742294 69.6329 0.764618C71.1141 0.798105 72.5895 0.971119 74.1562 1.43993C75.3639 1.80828 76.5261 2.4222 77.4603 3.11426C78.406 3.80073 79.1238 4.52627 79.6878 5.08996C80.8101 6.23409 81.4082 6.77545 82.3083 7.03218C83.4192 7.37821 85.1397 7.51216 86.8658 7.46193C87.7374 7.4396 88.6318 7.36705 89.5205 7.25543C90.4206 7.14381 91.258 6.9987 92.1809 6.7922C94.4825 6.2899 96.8808 5.31321 99.6039 4.43698C100.948 4.00723 102.418 3.59423 103.894 3.33192C105.363 3.05845 106.867 2.90776 108.4 2.90218C110.775 2.90218 113.288 3.08077 115.84 3.92352C117.099 4.3421 118.301 4.92811 119.332 5.57552C120.375 6.21734 121.24 6.89266 121.992 7.45635C124.077 9.09161 126.276 9.7725 128.584 9.7725C130.122 9.77808 131.603 9.22555 133.158 8.32141C133.83 7.9419 134.52 7.49541 135.272 7.00428L135.904 6.60244C136.132 6.45175 136.366 6.32897 136.599 6.19502C137.066 5.93271 137.539 5.6983 138.023 5.48064C139.949 4.62115 142.017 4.02398 144.273 3.85654C145.253 3.78957 146.261 3.82306 147.281 3.98491C148.289 4.15792 149.337 4.48162 150.334 4.9895C151.337 5.49738 152.191 6.22851 152.846 6.90382C153.507 7.58471 153.992 8.19305 154.413 8.61163C154.835 9.04138 155.171 9.29252 155.552 9.48786C155.923 9.69436 156.435 9.78366 156.977 9.86738C158.07 9.99016 159.244 9.8004 160.423 9.33717C160.942 9.13625 161.46 8.88511 161.973 8.60047C162.446 8.33816 163.089 7.92516 163.739 7.55681L163.915 7.45635L164.029 7.40054L164.252 7.28333L164.713 7.05451C165.026 6.90382 165.351 6.76429 165.681 6.62476C167.009 6.07782 168.501 5.72063 169.977 5.59784C170.592 5.54203 171.19 5.91596 171.64 5.85457C172.25 5.77086 172.768 5.97178 173.309 6.07224C174.751 6.35129 176.107 7.01544 177.138 8.20421C177.656 8.80697 178.266 9.50461 178.71 10.1911C178.881 10.4534 179.006 10.6655 178.459 10.8162C177.924 10.978 178.1 11.5026 178.163 11.8877C178.271 11.8822 178.391 11.8487 178.488 11.871C178.693 11.9156 178.744 12.0719 178.71 12.2505C178.699 12.3063 178.642 12.4012 178.596 12.4124L178.59 12.4235ZM3.50982 6.46291C3.46994 6.41268 3.44146 6.36245 3.40158 6.34013C3.37309 6.32338 3.32182 6.34571 3.28195 6.35129C3.31613 6.39036 3.33891 6.44059 3.37879 6.46849C3.40728 6.48524 3.45855 6.46849 3.50982 6.46849V6.46291ZM5.58916 9.40415C5.64043 9.44321 5.68601 9.49344 5.74297 9.51577C5.78855 9.53251 5.85121 9.50461 5.91388 9.49903C5.85691 9.45438 5.81134 9.39856 5.75437 9.38182C5.70879 9.36508 5.64613 9.39298 5.58916 9.40415ZM6.18733 10.3083C5.78285 10.1409 5.53219 10.0069 5.21317 9.85063C5.34989 10.325 5.66322 10.3529 6.18733 10.3083ZM21.2099 9.63855C21.3181 9.61065 21.4206 9.52135 21.5232 9.45438C21.6428 9.33717 21.6086 9.27578 21.4377 9.32601C21.3295 9.35392 21.2156 9.44322 21.1301 9.51019C20.9991 9.61623 21.039 9.6832 21.2099 9.63855ZM14.7041 10.5092C15.2111 10.5371 15.6384 10.5259 16.0656 10.5315L16.208 10.565L16.0998 10.5092C15.6782 10.3976 15.2624 10.3306 14.7041 10.5092ZM11.7531 9.24788C11.7531 9.24788 11.8557 9.29811 11.9126 9.29811C11.9525 9.29811 11.9924 9.2702 12.0323 9.25346C11.9924 9.21997 11.9696 9.17532 11.924 9.15858C11.7645 9.11393 11.6962 9.14742 11.7588 9.24229L11.7531 9.24788ZM9.31489 10.1464C9.31489 10.1464 9.34337 10.2022 9.36046 10.2134C9.38895 10.2301 9.42882 10.2469 9.45161 10.2357C9.51997 10.1911 9.49718 10.1464 9.40604 10.1297C9.37755 10.1297 9.34337 10.1409 9.31489 10.1464ZM21.9448 10.1464L21.8194 9.94551C21.2326 10.1464 20.6174 10.286 20.0363 10.4757C17.4215 11.2906 14.63 11.3464 11.9297 11.1789C11.2689 11.1343 10.6878 11.0952 10.0327 11.0506C9.25222 11.0561 8.28946 11.1957 8.01601 10.1018C7.71408 10.085 7.65711 10.4087 7.47481 10.4869C7.32669 10.5539 7.16149 10.5594 6.86525 10.6152C7.57166 10.8162 8.27806 10.9892 8.97877 11.112C9.33198 11.1845 9.67948 11.2347 10.0384 11.285C10.8473 11.3966 11.662 11.4636 12.4709 11.4971C15.701 11.6143 18.9311 11.2403 21.9448 10.1409V10.1464ZM29.7779 4.18583L29.8861 4.08537L29.9374 3.99607L29.8292 4.08537L29.7722 4.18583H29.7779ZM28.5986 5.0788C28.6442 5.0509 28.6898 4.97834 28.7012 4.93927C28.7069 4.90579 28.6499 4.90021 28.6271 4.87788C28.5702 4.92253 28.4904 4.96718 28.4676 5.00625C28.3765 5.15694 28.4391 5.17926 28.6043 5.0788H28.5986ZM25.7104 7.07125C26.149 6.77545 26.5877 6.50198 26.9238 6.07782C26.4452 6.35687 25.9952 6.62476 25.7104 7.07125ZM23.1354 8.58931C23.6139 8.55024 23.9159 8.34374 24.195 8.1484C24.3773 8.02562 24.3317 7.95864 24.1323 8.0591C23.8418 8.20979 23.557 8.38281 23.1297 8.58931H23.1354ZM30.7862 4.29745C29.6298 5.06206 28.5132 5.46948 27.9207 6.36245C27.0719 6.83126 26.337 7.46751 25.5565 8.07027C24.7818 8.6786 23.9329 9.23113 22.9987 9.5939C23.9671 9.29811 24.9071 8.85162 25.7331 8.27677C26.5649 7.70749 27.2884 7.04893 27.9777 6.36245C28.3879 6.02201 28.9291 5.7876 29.4304 5.51413C29.9374 5.24065 30.4102 4.91695 30.7976 4.29745H30.7862ZM36.6938 0.920889L36.859 0.971119L36.8818 0.920889H36.6938ZM33.7771 2.84637C34.2157 2.84078 34.643 3.05287 35.1101 2.79055C34.717 2.57847 34.2271 2.718 33.7771 2.84637ZM30.7862 1.86409C30.9116 1.84735 31.0369 1.85293 31.1565 1.81944C31.3103 1.7748 31.4585 1.70224 31.6123 1.64643C31.4869 1.65759 31.3559 1.66317 31.2306 1.67992L30.7862 1.86967V1.86409ZM33.1903 3.43238C32.7402 3.6612 31.9997 3.70585 31.5952 4.28071C32.2959 3.91235 32.9282 3.8398 33.1903 3.43238ZM37.1667 3.49935L37.0869 3.41564C36.916 3.30401 36.7223 3.28727 36.5286 3.3375C36.3748 3.39331 36.2267 3.4547 36.0786 3.52726C35.2753 3.59981 34.3809 3.52726 33.646 3.86212C33.27 4.03514 33.1675 4.20257 33.4523 4.35326C33.6688 4.46488 33.9309 4.47604 34.1587 4.29745C34.6658 3.91235 35.6399 3.89003 36.1242 3.55516C36.2723 3.48261 36.4204 3.43238 36.5685 3.37099C36.728 3.38215 36.8875 3.39889 37.0413 3.43238L37.1667 3.50493V3.49935ZM39.7246 4.79975C39.8784 4.34768 40.0948 3.8677 39.4625 3.14216C39.3998 3.23146 39.3087 3.3096 39.2859 3.41006C39.2517 3.56633 39.058 3.61097 38.9042 3.70027C38.5282 3.9291 38.3687 4.05188 38.4826 4.17466C38.5396 4.23606 38.6763 4.28071 38.8757 4.38675C39.0751 4.49837 39.377 4.5765 39.7246 4.79975ZM66.5338 4.47604C66.5794 4.44256 66.6592 4.40349 66.6478 4.38675C66.6136 4.3421 66.5509 4.30303 66.4939 4.26396L66.5338 4.47604ZM66.0154 4.28071C66.1635 4.26396 66.3173 4.25838 66.4712 4.2528C66.3287 4.24164 66.2376 4.08537 66.0154 4.28071ZM64.3918 4.45372L64.5399 4.39233H64.3975L64.3918 4.45372ZM63.0075 5.0788C63.0588 5.06206 63.1271 4.99509 63.1442 4.9616C63.1556 4.93369 63.0929 4.91137 63.0644 4.88904C62.9961 4.91695 62.8992 4.95044 62.8708 4.98392C62.7511 5.11787 62.8081 5.15694 63.0075 5.0788ZM60.6889 4.43698L61.1332 4.28629L61.5833 4.14118L61.7314 4.12443L61.6118 4.10769C61.475 4.12444 61.344 4.12444 61.1959 4.1635C61.0022 4.21373 60.7629 4.25838 60.6889 4.44256V4.43698ZM57.7265 4.29745H57.8462L57.9145 4.19699L57.7265 4.29745ZM53.5678 8.16514C53.716 8.08701 53.8071 7.96423 53.9153 7.85818C53.79 7.8247 53.7046 7.80237 53.6134 7.76889C53.5337 7.87493 53.4254 7.98097 53.3684 8.08701C53.3172 8.18189 53.4425 8.23212 53.5678 8.16514ZM50.5371 7.93632L50.6511 7.96423V7.89725L50.5371 7.93632ZM49.4604 7.914L49.5687 7.95306V7.89167L49.4604 7.90841V7.914ZM47.4039 9.3874C47.928 9.49903 48.4236 9.70553 48.9876 9.82273C49.5459 9.92877 50.1554 9.98458 50.7935 9.81157C50.1554 9.67204 49.5858 9.63297 49.0218 9.61065C48.4578 9.58274 47.9223 9.52693 47.4039 9.3874ZM47.3868 7.36147C47.3355 7.40053 47.3697 7.46193 47.5064 7.47867C47.5406 7.47867 47.5748 7.46751 47.6147 7.46193L47.5121 7.38379C47.4665 7.38379 47.4039 7.35031 47.3925 7.35589L47.3868 7.36147ZM45.4157 8.43862C45.3872 8.46652 45.5011 8.60047 45.5638 8.70651C45.7176 8.7679 45.9626 8.89627 46.0423 8.85162C46.2246 8.75674 45.9341 8.66744 45.8259 8.57256C45.6948 8.47769 45.5182 8.33258 45.4157 8.43862ZM45.6208 6.30664L45.7347 6.36245C45.8259 6.34571 45.9626 6.59686 46.0252 6.43501L45.729 6.32897L45.6208 6.30106V6.30664ZM41.2228 5.5811C41.2969 5.54203 41.2741 5.45273 41.1317 5.32995C41.0405 5.24623 40.9209 5.20159 40.8069 5.15694C40.8411 5.24623 40.8468 5.35227 40.9095 5.42483C40.9778 5.49738 41.1146 5.53087 41.2228 5.5811ZM43.4845 6.42943C43.2965 6.18944 43.0743 6.02759 42.8521 5.94945C42.5616 5.55878 42.4078 5.0509 41.7868 4.783C41.9292 5.35227 42.3451 5.68156 42.8578 5.97736C43.0743 6.0834 43.2509 6.54105 43.4845 6.43501V6.42943ZM46.7829 11.1231L46.6519 11.0394L46.6234 11.0841L46.7829 11.1231ZM50.3719 11.9268L50.2352 11.9603C50.1554 12.0328 49.7681 11.9435 49.8535 12.0998L50.2865 11.9826L50.3719 11.9268ZM52.5652 10.4032C51.6252 10.4143 50.5599 10.8552 49.7624 10.565C48.6173 10.1241 47.6488 10.2078 46.5892 9.92319C46.2474 9.72227 45.9512 9.47112 45.6208 9.29811C45.3245 9.07486 44.9827 8.90743 44.6865 8.68419C44.0598 8.27677 43.456 7.79679 42.8977 7.26659C43.6269 8.41071 44.658 9.49903 46.048 9.96784C46.1563 10.1185 46.3158 10.1743 46.4924 10.1464C47.4039 10.7659 48.4977 10.9948 49.5402 10.9836C50.5941 10.9724 51.6081 10.7269 52.5652 10.3976V10.4032ZM55.0091 8.82371L55.2142 8.74558L55.425 8.67861H55.5674L55.4364 8.67302C55.2598 8.63954 55.1174 8.68977 55.0034 8.82371C53.8584 8.9744 52.9355 9.32043 52.024 9.79482L51.9044 9.75017L51.9955 9.81715C52.3886 9.90086 52.8671 10.1185 53.283 9.76692C53.7615 9.36508 54.6161 9.26462 55.0205 8.82929L55.0091 8.82371ZM55.5105 10.8273L55.3965 10.8664L55.4763 10.9166L55.5105 10.8329V10.8273ZM58.6266 9.90644L58.5013 9.99016L58.638 9.95667L58.6266 9.90644ZM59.1735 8.67861L59.071 8.77906C59.0425 8.87394 58.6836 8.96882 58.8374 9.06928L59.1165 8.77906L59.1735 8.67861ZM59.8913 7.36705C59.5153 7.04335 58.826 7.78563 58.2848 8.12608C57.6923 8.49443 57.0144 8.90185 56.815 8.36048L56.8549 8.27118L56.7695 8.36048C56.6384 8.75674 56.1884 9.07486 55.6871 9.3595C55.1857 9.64413 54.6388 9.90086 54.3084 10.2413C55.7782 9.63855 57.3562 9.32601 58.6608 8.44978C59.1735 8.10933 60.2787 7.70749 59.897 7.36705H59.8913ZM60.2787 6.51872C59.823 6.42384 59.4014 6.55779 59.0026 6.78103C58.6266 6.99311 58.2677 7.28333 57.886 7.51774C58.2848 7.46751 58.6722 7.27217 59.0539 7.05451C59.447 6.83685 59.8571 6.60244 60.2787 6.51314V6.51872ZM61.344 6.83684C61.344 6.83684 61.2472 6.80894 61.1845 6.82568C61.1332 6.84243 61.0706 6.89824 61.0193 6.93172C61.0478 6.95963 61.0535 7.00428 61.099 7.00428C61.2813 6.9987 61.3782 6.92614 61.344 6.83126V6.83684ZM61.3611 5.50296C61.3269 5.53087 61.27 5.56436 61.2643 5.58668C61.2472 5.66482 61.2472 5.73179 61.2415 5.80434L61.1788 5.9048L61.2756 5.80434L61.3554 5.50296H61.3611ZM67.582 5.08438H67.1377C66.8528 4.90021 66.5908 4.73836 66.5338 4.48721C65.121 4.94486 63.7936 5.55878 62.1871 6.55779C64.1184 5.88248 65.6052 5.52529 67.1263 5.08438C67.2744 5.08996 67.3599 5.26298 67.582 5.08438ZM75.512 4.44256L75.6715 4.52069L75.5519 4.40907L75.512 4.44256ZM73.3928 4.44814C73.5352 4.47604 73.7232 4.53744 73.8144 4.52627C73.9511 4.50395 73.8599 4.40907 73.6605 4.35326C73.5067 4.30861 73.3358 4.26954 73.2219 4.27512C73.0966 4.28071 73.182 4.36442 73.3985 4.44814H73.3928ZM68.9892 3.76725C70.0203 4.02956 70.8463 3.82864 71.8034 3.81748C71.4445 3.77283 71.1141 3.70027 70.7893 3.65004C70.4646 3.58307 70.1456 3.5161 69.8209 3.46028C69.2911 3.35424 69.086 3.57191 68.9892 3.76725ZM75.7114 6.30664L75.569 6.26199C74.6347 5.52529 73.5124 5.01741 72.3446 4.78858C71.1767 4.55976 69.969 4.53185 68.7157 4.64906C69.4791 4.95044 70.2083 5.07322 70.9432 5.17368C71.661 5.30763 72.3902 5.41367 72.9712 5.75969C74.1106 6.41826 74.9252 6.7029 75.5918 6.29548H75.7171L75.7114 6.30664ZM137.3 7.23868L137.448 7.18845L137.431 7.13264L137.294 7.2331L137.3 7.23868ZM137.619 8.98557C137.949 8.78465 138.325 8.68419 138.553 8.39397C138.166 8.50001 137.841 8.70651 137.619 8.98557ZM133.677 9.72227L133.756 9.76134L133.785 9.66646L133.677 9.72227ZM132.15 11.871C132.258 11.8542 132.372 11.8542 132.475 11.8208C132.6 11.7761 132.714 11.6924 132.851 11.6087C132.725 11.6366 132.617 11.6477 132.514 11.6812C132.389 11.7315 132.275 11.804 132.15 11.871ZM130.908 10.738L131.005 10.7213L130.954 10.6599L130.908 10.738ZM128.521 13.043C128.51 13.1435 128.612 13.1825 128.794 13.1156C128.846 12.9872 128.948 12.8365 128.943 12.697C128.943 12.6244 128.709 12.6356 128.641 12.7249C128.561 12.8198 128.538 12.937 128.527 13.043H128.521ZM126.225 10.8887C126.96 11.0896 127.404 11.1566 127.843 11.0115C127.382 10.8664 126.971 10.9334 126.225 10.8887ZM124.026 11.2571L124.123 11.3296L124.163 11.2906L124.026 11.2571ZM122.716 11.9324L122.847 11.9435C123.633 12.1277 124.431 12.2784 125.69 12.3119C124.288 12.0105 123.519 11.7482 122.818 11.9101L122.716 11.938V11.9324ZM122.243 8.62838L122.517 8.8572L122.801 8.93534C122.71 8.86278 122.625 8.77348 122.528 8.71767C122.448 8.67302 122.34 8.66186 122.249 8.62838H122.243ZM120.375 7.92516L120.46 8.02562L120.511 7.99771L120.38 7.92516H120.375ZM115.071 5.41367C115.185 5.51413 115.333 5.54761 115.481 5.53087C115.481 5.4918 115.515 5.45832 115.481 5.41925C115.373 5.31321 115.208 5.27414 115.071 5.30763C115.031 5.31879 115.037 5.38018 115.071 5.41367ZM114.239 5.83225L114.279 5.91597L114.359 5.86574L114.239 5.83225ZM112.188 6.23409C112.188 6.36245 112.359 6.45175 112.564 6.51314C112.872 6.54105 113.06 6.47966 113.117 6.37361C113.179 6.23967 112.963 6.14479 112.69 6.10014C112.422 6.05549 112.188 6.10014 112.188 6.23409ZM110.189 4.6379L110.217 4.71045L110.297 4.64906L110.183 4.6379H110.189ZM109.431 5.26856L109.585 5.24623L109.442 5.21833L109.431 5.26856ZM106.748 4.50953H106.902V4.46488L106.753 4.50953H106.748ZM105.255 4.50953L105.415 4.46488H105.261V4.50953H105.255ZM105.318 6.33455C105.432 6.30106 105.5 6.20618 105.586 6.13921C105.5 6.12247 105.392 6.07224 105.295 6.08898C105.164 6.1113 104.948 6.18386 104.925 6.23409C104.851 6.39594 105.067 6.4071 105.312 6.33455H105.318ZM103.671 6.7029L103.814 6.65267H103.671V6.7029ZM99.8603 5.80992C99.9115 5.80992 99.9571 5.83225 100.008 5.82109C100.077 5.80992 100.179 5.78202 100.219 5.75411C100.339 5.66482 100.27 5.64807 100.048 5.71505C99.9799 5.73737 99.9229 5.77644 99.8603 5.80992ZM100.037 8.12608L100.139 8.04794L100.202 7.96423L100.094 8.04236L100.037 8.12608ZM98.4417 6.32897L98.5728 6.25641L98.4247 6.27874L98.4417 6.32897ZM97.9233 8.25444C97.986 8.23212 98.043 8.18747 98.0999 8.15398C98.0544 8.15398 98.0088 8.13166 97.9575 8.14282C97.8892 8.15398 97.798 8.18189 97.7581 8.21537C97.6499 8.30467 97.7126 8.327 97.9233 8.25444ZM94.7958 7.34472L94.9268 7.28333H94.8015V7.34472H94.7958ZM88.6204 10.3808L88.7457 10.4032L88.7628 10.3474L88.6261 10.3753L88.6204 10.3808ZM86.1822 9.69994L86.2278 9.76692L86.279 9.69994H86.1765H86.1822ZM82.8666 10.5873C83.066 10.5929 83.2939 10.6097 83.4477 10.565C83.5958 10.5204 83.4933 10.4199 83.3452 10.4422C83.1629 10.4701 83.0261 10.5427 82.8666 10.5873ZM79.158 8.6507C79.3118 8.77348 79.4599 8.92417 79.6308 9.03021C79.7903 9.13067 79.8701 9.10277 79.8644 9.05254C79.7846 8.79581 79.608 8.72883 79.4257 8.66744C79.3346 8.63954 79.2434 8.65628 79.158 8.6507ZM77.9218 7.63494C77.8135 7.67401 77.8534 7.76331 78.0129 7.84702C78.0642 7.86935 78.1098 7.8526 78.1553 7.8526C78.1326 7.80795 78.1212 7.74656 78.0813 7.71866C78.0357 7.67959 77.9389 7.62378 77.9161 7.63494H77.9218ZM77.768 10.5762C77.6597 10.2134 77.1698 9.99574 76.7881 9.82831H76.6799L76.8052 9.87296C77.1014 10.2357 77.0843 10.4311 76.8907 10.5483C76.8451 10.5371 76.7596 10.5036 76.7539 10.5204C76.7368 10.5706 76.7539 10.6431 76.7539 10.7045L76.8109 11.0394L76.8394 10.738C76.7995 10.6376 76.8394 10.6041 76.9419 10.6208C77.2325 10.6376 77.8705 10.9166 77.768 10.5762ZM80.4398 11.938L80.2575 11.8208C80.1834 11.7984 80.0695 11.7538 80.0467 11.7649C79.9669 11.7984 80.0581 11.8654 80.2746 11.9268C80.3315 11.9435 80.3828 11.9324 80.4398 11.938ZM83.7439 13.3611C83.6756 13.2551 83.5958 13.2551 83.5445 13.3611C83.5331 13.389 83.5673 13.4281 83.5787 13.4616C83.63 13.4616 83.7155 13.4672 83.7268 13.4616C83.7496 13.4337 83.7667 13.3946 83.7439 13.3611ZM91.6454 12.7807L91.5144 12.8644C91.3321 12.9537 91.0871 13.0263 90.9732 13.1267C90.8878 13.1993 91.127 13.2607 91.241 13.1937C91.3948 13.11 91.4403 12.9816 91.5315 12.87L91.6397 12.7807H91.6454ZM100.043 10.0236C100.043 10.0236 99.9343 10.0404 99.8717 10.046C99.8375 10.085 99.7691 10.1353 99.7748 10.1576C99.8033 10.2525 99.9115 10.2357 100.037 10.1185C100.071 10.0906 100.071 10.0348 100.037 10.0181L100.043 10.0236ZM105.546 9.55484L104.862 9.85063L104.805 9.92877L104.913 9.8618C104.97 9.83389 105.05 9.81715 105.09 9.78366C105.215 9.68878 105.591 9.75576 105.546 9.54926V9.55484ZM110.548 9.62181C110.525 9.38182 110.246 9.34275 109.966 9.34275C109.807 9.34275 109.459 9.32601 109.659 9.48786C109.813 9.61065 109.636 9.95109 110.194 9.83947C110.348 9.81715 110.445 9.6832 110.542 9.62181H110.548ZM110.73 8.24886L110.382 8.36048L110.285 8.42188L110.411 8.37723C110.491 8.31583 110.804 8.41629 110.73 8.24886ZM116.956 11.525L116.871 11.4301L116.831 11.4636L116.951 11.5194L116.956 11.525ZM120.528 13.9751L120.414 13.8634C120.375 13.8802 120.306 13.8802 120.295 13.9081C120.255 14.0141 120.335 14.0811 120.477 14.0644C120.523 14.0588 120.517 14.0085 120.534 13.9751H120.528ZM133.118 14.4606L132.959 14.5387L133.113 14.5164V14.4606H133.118ZM135.101 12.1835C134.497 12.1277 133.734 12.7082 133.352 12.4961C133.409 12.4012 133.711 12.2393 133.415 12.2338L133.295 12.4961C132.019 12.87 130.902 13.5062 129.581 13.7351C128.396 13.9192 127.666 14.003 127.558 13.2997C127.513 13.0542 126.943 12.9258 126.721 13.2997C126.658 13.4002 126.624 13.6011 126.407 13.523C125.69 13.2718 124.972 13.1993 124.248 13.0709C123.531 12.9481 122.807 12.7695 122.203 12.351C121.588 11.8152 120.825 11.4412 120.141 11.2068C119.395 10.9501 119.793 10.0181 118.694 10.0906C118.432 10.1074 118.261 9.66646 118.358 9.48786C118.517 9.19206 119.526 9.64971 119.315 8.99673C118.483 8.55582 117.378 7.57355 116.877 8.29351C117.053 8.42187 117.264 8.55582 117.384 8.69535C117.498 8.82929 117.612 9.06928 117.549 9.08602C117.27 9.15858 117.087 8.92417 116.945 8.72884C116.842 8.58373 116.786 8.4442 116.7 8.29909L116.404 8.1484C116.341 8.1484 116.279 8.1484 116.216 8.13166C116.199 8.13166 116.13 8.04236 116.142 8.03678C116.187 8.02004 116.25 8.02004 116.307 8.02004C115.903 7.69075 115.612 7.72982 115.327 7.79121C115.037 7.8526 114.763 7.93074 114.307 7.71866C113.424 7.30566 112.37 7.18287 111.339 7.09358C110.308 7.00428 109.294 6.94847 108.331 6.64709C108.058 6.55779 107.574 6.67499 107.255 6.82568L107.767 6.93172C107.5 7.12148 107.312 6.97637 107.095 6.94847C104.799 7.38379 102.492 7.8247 100.288 8.63954C100.145 8.68977 100.025 8.77906 99.9001 8.8572C99.5412 8.74558 99.1937 8.60047 98.5899 8.81813C97.4847 9.21997 96.784 9.21067 96.4877 8.79023C96.0035 9.03021 95.9351 9.35392 95.4167 9.62181C94.2432 10.2246 93.007 10.699 91.7195 11.0171C90.432 11.324 89.0933 11.4747 87.7545 11.4636C87.0595 11.4636 86.4214 11.2906 86.3531 10.8608C86.3189 10.6599 86.148 10.4813 85.641 10.5762C85.3049 10.6376 85.0884 10.6711 85.2707 10.9669C85.6068 11.5026 84.5586 11.4747 83.9718 11.3854C83.3224 11.2961 83.0774 10.9166 82.8552 10.5929C82.4792 10.5092 82.0349 10.0962 81.7899 10.3808C81.3171 10.9278 80.4626 10.5762 79.7391 10.0404C78.4858 9.13067 77.3464 8.16514 76.0817 7.13264C75.9051 7.69075 76.1501 8.07027 76.9419 8.70651C77.7737 9.38182 78.6852 10.0013 79.6593 10.4869C80.6335 10.978 81.6646 11.3464 82.7299 11.7203C83.7041 12.0663 84.8719 12.2003 86.0056 12.0552C86.7177 11.9659 87.0709 11.9101 87.5095 11.938C87.9482 11.9547 88.478 12.0607 89.5547 12.1724C89.9193 12.2059 90.375 12.0942 90.6371 11.8822C91.0074 11.5975 91.7651 11.2515 91.9929 11.3687C92.9443 11.871 93.7817 11.0896 94.6249 10.8552C96.4763 10.3474 98.0088 9.26462 99.8887 8.87394C100.607 8.90743 101.33 8.57815 102.042 8.37723C103.136 8.07585 104.241 7.83028 105.335 7.83028C105.386 7.80237 105.426 7.76889 105.483 7.75214C105.506 7.74656 105.586 7.76889 105.58 7.78005C105.568 7.81354 105.523 7.84702 105.494 7.87493C106.639 7.69075 107.745 7.37263 108.941 7.39495C110.508 7.41728 112.057 7.59029 113.498 7.99771C114.945 8.40513 116.239 9.0916 117.486 9.979C118.21 10.4869 119.093 11.0115 119.702 11.6143C120.095 11.9994 120.135 12.2282 120.716 12.2226C121.127 12.2114 121.656 12.3342 122.129 12.3621C122.129 12.5742 122.198 12.803 122.648 13.0151C123.884 13.5788 125.183 14.1983 126.698 14.1202C127.467 14.0867 128.367 13.9806 129 14.3434L128.903 14.416L129.045 14.3602C129.695 14.2262 130.264 13.9806 130.965 14.1257C131.341 14.215 132.258 14.0811 132.383 13.9025C132.942 13.1602 134.149 12.8365 135.095 12.1891L135.101 12.1835ZM135.118 10.8273C135.004 10.7492 135.01 10.5259 134.605 10.7771C134.491 10.8496 134.332 10.9836 134.32 11.045C134.263 11.2906 134.645 11.1175 134.844 11.1064C135.141 11.0896 135.135 10.9389 135.118 10.8217V10.8273ZM137.095 12.2114C137.078 12.1668 136.947 12.1835 136.867 12.1724C136.759 12.3342 136.628 12.5017 136.536 12.6635C136.462 12.7919 136.565 12.7863 136.776 12.6635C137.009 12.5017 137.14 12.3342 137.1 12.2114H137.095ZM136.075 8.04236C135.477 8.36048 134.97 8.63954 134.446 9.24788C135.238 8.87394 135.614 8.46652 136.075 8.04236ZM140.615 9.29811C140.12 9.05812 139.408 9.42647 139.339 9.07486C139.305 8.89069 138.958 8.91301 138.821 9.1809C138.644 9.51019 138.302 9.79482 137.955 10.1409C137.585 10.5092 137.186 10.9389 136.924 11.5082C137.602 10.9278 138.177 10.4032 138.713 10.0627C139.271 9.70553 139.892 9.43763 140.615 9.29811ZM139.168 5.82109C139.094 5.84341 139.02 5.86015 138.946 5.88248C138.906 5.92713 138.821 5.9941 138.832 6.01642C138.866 6.12247 138.986 6.08898 139.128 5.93829C139.168 5.89922 139.157 5.86015 139.163 5.82109H139.168ZM141.533 8.49443L141.453 8.4442L141.419 8.5335L141.527 8.49443H141.533ZM141.481 7.04334C141.436 7.03776 141.373 7.01544 141.345 7.03218C141.282 7.05451 141.208 7.10474 141.196 7.13822C141.157 7.24426 141.248 7.24985 141.419 7.16055C141.464 7.13822 141.464 7.08799 141.487 7.04893L141.481 7.04334ZM142.843 7.46751L142.706 7.51216L142.831 7.52332L142.843 7.46751ZM144.347 5.01183C145.213 5.10113 145.634 4.98392 146.016 4.55976C144.421 4.47604 142.991 4.68813 141.652 5.04531C141.458 5.00625 141.276 5.05648 141.117 5.18484L141.031 5.29088L141.157 5.196C141.236 5.1681 141.316 5.14019 141.396 5.11787L141.646 5.05648C142.547 4.9616 143.469 4.91137 144.358 5.00625L144.347 5.01183ZM144.899 6.44059C144.899 6.44059 144.911 6.51872 144.945 6.5243C145.002 6.53547 145.076 6.51314 145.144 6.50198C145.173 6.46849 145.247 6.41826 145.224 6.4071C145.127 6.33455 144.991 6.35129 144.899 6.44059ZM146.967 7.914C146.175 7.57355 145.161 7.87493 144.951 7.18287C144.375 7.59587 145.013 7.87493 145.002 8.15956C144.193 8.52233 144.387 7.74656 143.743 7.92516C143.635 8.51117 144.375 8.46094 144.985 8.48885C145.902 8.53908 146.415 8.2656 146.967 7.90841V7.914ZM146.745 9.21439C146.551 9.19207 146.5 9.30927 146.415 9.3874C146.335 9.45996 146.352 9.57158 146.426 9.56042C146.551 9.54925 146.665 9.47112 146.768 9.40415C146.865 9.34276 146.842 9.2702 146.739 9.21997L146.745 9.21439ZM148.215 8.31025C148.215 8.2377 148.204 8.14282 148.135 8.08143C147.953 7.91399 147.845 8.02562 147.759 8.08701C147.645 8.18189 147.708 8.2656 147.879 8.37164C148.055 8.43862 148.209 8.4721 148.215 8.31025ZM150.346 6.80336C150.311 6.75313 150.3 6.68616 150.254 6.65267C150.038 6.51872 149.975 6.53547 150.089 6.69174C150.118 6.7308 150.197 6.77545 150.243 6.83126C150.283 6.8201 150.317 6.80894 150.346 6.80336ZM150.813 12.63C150.75 12.5017 150.716 12.3621 150.619 12.2505C150.477 12.0942 150.351 12.0775 150.385 12.2282C150.408 12.3286 150.465 12.4849 150.568 12.5965C150.716 12.7584 150.818 12.7584 150.818 12.63H150.813ZM151.69 11.7594C151.707 11.3631 151.263 11.0282 150.921 10.7324C150.676 10.5204 150.482 10.5594 150.311 10.5818C149.702 9.90086 149.913 9.68878 150.237 9.49344L150.351 9.51577L150.226 9.46554C149.97 9.40415 149.719 9.34276 149.474 9.32043C149.229 9.28136 148.984 9.2702 148.745 9.28694C148.83 9.4767 148.921 9.62181 149.024 9.75575C149.126 9.87854 149.252 9.979 149.383 10.085C149.651 10.2636 149.981 10.4255 150.317 10.6097C150.488 10.7436 150.67 10.8496 150.835 11.0227C151.075 11.2738 150.995 11.6477 151.491 11.8598C151.587 11.8989 151.69 11.8431 151.69 11.7594ZM151.593 7.90841L151.616 7.8247H151.513L151.593 7.90841ZM152.995 10.8887L152.869 10.8552C152.63 10.6599 152.425 10.4311 152.208 10.2134C152.225 10.1408 152.248 10.0683 152.26 9.99016C152.26 9.96784 152.191 9.88412 152.191 9.88412C152.032 9.8897 152.146 10.0739 152.174 10.2078C152.271 10.565 152.527 10.7938 152.886 10.8943H152.995V10.8887ZM154.402 10.0404C154.077 9.44321 153.741 8.9465 153.251 8.39955C152.767 7.86377 152.157 7.30008 151.439 6.78661C151.354 6.65825 151.28 6.52988 151.149 6.41268C150.978 6.26199 150.779 6.03317 150.573 6.07782C150.716 6.18944 150.847 6.31222 150.984 6.42943C151.12 6.54663 151.28 6.65825 151.405 6.78103C152.322 8.22095 153.45 9.19207 154.407 10.0404H154.402ZM153.661 12.8867C153.587 12.8477 153.496 12.8254 153.422 12.7975C153.456 12.8421 153.479 12.8923 153.536 12.9314C153.604 12.9816 153.724 13.0598 153.781 13.0542C153.969 13.0598 153.912 13.0095 153.661 12.8812V12.8867ZM155.809 10.9613C155.695 10.8217 155.581 10.6934 155.49 10.5539C155.49 10.4813 155.518 10.4199 155.558 10.3641C155.587 10.3529 155.615 10.3418 155.644 10.325C155.604 10.3306 155.57 10.3306 155.53 10.3306C155.495 10.3418 155.433 10.3474 155.433 10.3697C155.421 10.4255 155.444 10.4925 155.45 10.5539C155.558 10.699 155.307 10.9222 155.809 10.9557V10.9613ZM155.632 13.5621C155.57 13.5621 155.513 13.5621 155.45 13.5621C155.507 13.59 155.564 13.6011 155.615 13.6235L155.627 13.5621H155.632ZM156.042 11.9603L155.98 11.8822C155.797 11.8263 155.644 11.6924 155.461 11.6477C155.313 11.6087 155.228 11.7091 155.342 11.7594C155.513 11.8263 155.729 11.8654 155.934 11.8933L156.042 11.9547V11.9603ZM155.832 14.2206L155.775 14.1369L155.689 14.1927L155.837 14.215L155.832 14.2206ZM167.653 8.13166C167.766 7.6461 167.784 7.31682 168.023 7.04334C168.16 6.89824 168.137 6.65825 167.897 6.5857C167.681 6.5243 167.521 6.67499 167.482 6.88149C167.413 7.24426 167.356 7.61262 167.653 8.12608V8.13166ZM167.744 8.53908L167.806 8.55582V8.50559L167.744 8.53908ZM166.525 7.7075C166.638 7.76889 166.678 7.60704 166.656 7.49541C166.621 7.36147 166.593 7.2052 166.411 7.16613C166.376 7.22194 166.297 7.29449 166.314 7.33356C166.365 7.46751 166.422 7.65168 166.525 7.7075ZM165.721 8.11491C165.812 8.08143 165.824 8.02562 165.755 7.9419L165.556 7.7075C165.533 7.76889 165.488 7.84144 165.505 7.89725C165.533 8.00329 165.596 8.09817 165.727 8.11491H165.721ZM165.898 10.152H165.966L165.932 10.0962L165.892 10.152H165.898ZM165.055 9.00231C165.083 9.00231 165.117 9.02463 165.146 9.01347C165.174 9.00789 165.203 8.98556 165.22 8.96324C165.226 8.95208 165.203 8.91859 165.197 8.89627L165.055 8.99673V9.00231ZM161.91 9.75017L161.996 9.6553L162.286 9.3595L161.961 9.6553L161.916 9.75017H161.91ZM162.611 9.92319V9.979L162.73 9.89528L162.611 9.92319ZM160.463 10.7715C160.514 10.8831 160.685 10.9278 160.828 10.7436C160.902 10.6487 160.828 10.5315 160.765 10.4534C160.742 10.4199 160.577 10.4701 160.429 10.4701C160.44 10.5762 160.429 10.6878 160.463 10.7715ZM156.988 10.7269L156.863 10.738L156.965 10.7827L156.988 10.7269ZM157.501 13.8746C157.455 13.8467 157.421 13.7965 157.358 13.7909C157.142 13.7686 157.011 13.802 157.005 13.8858C157.005 13.9137 157.073 13.9695 157.136 13.9751C157.353 14.003 157.478 13.9639 157.495 13.8746H157.501ZM158.982 13.6848L158.828 13.6681L158.805 13.7239C158.862 13.7127 158.919 13.7016 158.976 13.6848H158.982ZM158.788 11.8766C158.788 11.8766 158.429 11.8319 158.264 11.8598C158.076 11.8933 157.917 11.977 157.734 12.0384C157.581 12.1947 157.415 12.3398 157.239 12.4849L157.153 12.5575L157.273 12.5017C157.438 12.5017 157.598 12.5072 157.763 12.5017L157.882 12.5575L157.797 12.4905L157.78 12.0552C157.922 12.0496 158.065 12.0552 158.201 12.0328C158.412 11.9938 158.771 12.1333 158.788 11.8766ZM158.982 10.6822L158.874 10.7604L158.788 10.8441L158.891 10.7715L158.982 10.6878V10.6822ZM167.089 11.3352H167.026L167.049 11.3799L167.089 11.3352ZM166.861 10.9724L166.832 10.911L166.792 10.9613L166.861 10.9724ZM167.527 9.82273C167.453 9.73343 167.322 9.71669 167.282 9.82273C167.054 10.4366 166.479 10.4199 166.006 10.4087C165.921 10.4087 165.847 10.4087 165.773 10.4199C165.738 10.4199 165.704 10.4311 165.67 10.4422C165.653 10.4422 165.55 10.4925 165.493 10.5204C165.231 10.6487 165.009 10.7994 164.798 10.9613C164.394 11.285 164.029 11.6924 163.631 12.1166C163.505 12.2561 163.101 12.3565 163.067 12.4849C163.032 12.5017 163.01 12.5128 162.975 12.5296C162.389 12.5575 161.557 12.6802 162.656 11.9212H162.805L162.673 11.8989C162.554 11.6533 162.725 11.4078 163.175 11.0841C163.283 11.0059 163.898 10.7157 163.289 10.7771C162.981 10.8106 162.48 11.045 162.075 11.2682C161.671 11.4971 161.363 11.7203 161.494 11.804C161.916 12.0607 161.762 12.3677 161.409 12.7026C161.056 13.0319 160.509 13.3667 160.23 13.7127C160.549 13.6067 160.85 13.4895 161.283 13.3221C161.716 13.1491 162.275 12.9258 163.067 12.5351C163.072 12.5519 163.084 12.5686 163.106 12.5909C163.306 12.7472 163.716 12.6021 164.086 12.284C164.479 11.9547 164.872 11.631 165.032 11.5026C165.174 11.3799 165.106 11.4022 164.519 11.7426C164.918 11.5026 165.334 11.2515 165.801 10.9948C165.943 10.911 165.966 10.9055 166.029 10.8776C166.086 10.8496 166.137 10.8273 166.194 10.7994C166.308 10.7436 166.428 10.6934 166.559 10.6431C166.798 10.5148 167.145 10.3474 167.487 10.1911C167.596 10.1409 167.658 10.0013 167.521 9.84505L167.527 9.82273ZM166.604 8.34374L166.53 8.327L166.593 8.36606C166.804 8.52791 166.872 8.69535 166.667 8.88511C166.547 9.00231 166.445 9.12509 166.342 9.25346C166.28 9.23113 166.217 9.19206 166.154 9.19206C166.069 9.19206 165.961 9.19206 165.966 9.32601L166.154 9.29811L166.342 9.28136C166.439 9.43205 166.604 9.71669 166.621 9.70553C166.975 9.53251 167.202 9.21439 167.22 8.7679C167.242 8.36606 166.889 8.34932 166.604 8.33258V8.34374ZM168.809 9.64972C168.348 9.33717 168.165 9.57158 168.034 9.89528C168.422 10.1632 168.536 9.87854 168.809 9.64972ZM169.481 9.41531H169.436L169.47 9.48786L169.481 9.41531ZM169.43 8.70651C168.849 8.2656 168.53 8.77348 168.273 9.19765C168.621 8.96324 169.008 8.80139 169.43 8.70651ZM169.305 7.69075C169.293 7.66285 169.287 7.62378 169.27 7.60704C169.191 7.53448 169.145 7.55681 169.156 7.65727C169.156 7.67959 169.196 7.71308 169.219 7.71866C169.242 7.71866 169.276 7.70191 169.305 7.69075ZM169.965 10.1799L169.829 10.3139L169.8 10.3808L169.84 10.3306L169.965 10.1799ZM170.114 6.35129C169.92 6.3178 169.891 6.50198 169.789 6.59128C169.72 6.66941 169.658 6.75313 169.589 6.84243C169.521 6.85917 169.447 6.87033 169.379 6.87033L169.305 6.8201L169.373 6.87591C169.458 6.95405 169.532 6.9373 169.607 6.85359C169.675 6.76987 169.743 6.69174 169.812 6.6136C169.908 6.55779 170.011 6.50756 170.102 6.44617C170.119 6.43501 170.114 6.35687 170.108 6.35687L170.114 6.35129ZM170.985 6.93172C171.116 6.8201 171.264 6.65825 171.27 6.41826C171.27 6.36803 171.179 6.27315 171.128 6.27874C170.854 6.2899 170.712 6.46849 170.683 6.70848C170.666 6.82568 170.786 6.89266 170.985 6.9373V6.93172ZM170.957 9.3874C170.945 9.3595 170.934 9.30927 170.911 9.29811C170.843 9.26462 170.809 9.30369 170.837 9.39857C170.843 9.42089 170.883 9.44321 170.905 9.44321C170.922 9.44321 170.94 9.40415 170.951 9.38182L170.957 9.3874ZM171.264 7.62936L171.213 7.4396C171.093 7.50099 170.979 7.56797 170.871 7.64052C170.866 7.6461 170.905 7.79679 170.94 7.80795C171.088 7.86377 171.179 7.75214 171.259 7.62378L171.264 7.62936ZM171.521 8.75116L171.458 8.7679L171.509 8.81255L171.526 8.75116H171.521ZM172.181 6.9373C172.284 6.98195 172.404 6.89266 172.364 6.77545C172.341 6.69174 172.216 6.63593 172.142 6.57453C172.085 6.62476 171.999 6.69174 172.005 6.7029C172.056 6.7922 172.102 6.90382 172.181 6.9373ZM172.17 8.03678C172.119 7.98655 172.233 7.83028 172.073 7.84702L172.153 8.04794C172.159 8.10933 172.164 8.17631 172.176 8.2377C172.176 8.25444 172.204 8.2656 172.221 8.27677C172.284 8.17073 172.21 8.10933 172.17 8.03678ZM173.127 6.95405C173.127 6.95405 173.076 6.9094 173.047 6.88707C173.025 6.90382 172.979 6.92056 172.973 6.94289C172.973 6.97637 172.985 7.0266 173.008 7.04334C173.093 7.09357 173.139 7.06009 173.121 6.95963L173.127 6.95405ZM174.073 7.57913L174.033 7.50099L173.993 7.42844L174.027 7.50658L174.073 7.57913ZM174.922 7.76331L174.831 7.60704L174.654 7.65168C174.682 7.71308 174.694 7.80237 174.739 7.8247C174.785 7.84144 174.859 7.79121 174.922 7.76889V7.76331ZM176.112 8.48327L176.095 8.39955L176.112 8.10375L175.93 8.15398C175.981 8.23212 176.033 8.32141 176.084 8.40513L176.112 8.48327ZM176.608 8.9744C176.671 8.90185 176.762 8.7679 176.739 8.71767C176.671 8.60047 176.568 8.67861 176.534 8.70651C176.409 8.84046 176.363 8.93533 176.443 9.03021C176.46 9.04696 176.579 9.01347 176.608 8.9744Z" fill="#FF5700"/>
<path d="M175.4 10.5985C175.303 10.3194 175.115 10.1353 174.613 10.1576C174.955 10.4757 175.109 10.5929 175.4 10.5985Z" fill="#FF5700"/>
<path d="M178.981 11.3296C178.981 11.3296 179.003 11.2738 178.997 11.2571C178.992 11.2403 178.959 11.2291 178.937 11.218L178.915 11.2905L178.981 11.3296Z" fill="#FF5700"/>
<path d="M96.7089 12.1054C96.6751 12.1333 96.6807 12.1724 96.6695 12.2059L96.8271 12.1835L96.8609 12.0831C96.8102 12.0886 96.7258 12.0942 96.7089 12.111V12.1054Z" fill="#FF5700"/>
<path d="M172.933 9.97341C172.933 9.97341 172.881 10.0013 172.859 10.0125C172.574 9.85621 172.221 10.0515 171.942 9.73342C171.748 9.51018 171.588 9.80598 171.543 10.0962C171.497 10.3585 171.446 10.6599 171.566 10.8496C171.708 11.0896 171.862 10.8385 172.027 10.7157C172.095 10.6655 172.175 10.6543 172.249 10.6208L172.3 10.5706L172.249 10.632C172.545 10.9334 172.597 10.872 172.887 10.1018C172.91 10.0795 172.933 10.0571 172.95 10.0292C172.95 10.0181 172.938 9.97341 172.927 9.97341H172.933Z" fill="#FF5700"/>
<path d="M46.093 9.96225C46.15 10.0013 46.2127 10.0404 46.281 10.0683L46.4861 10.1353C46.5487 10.085 46.5715 10.0181 46.5601 9.93993C46.3266 9.87295 46.1728 9.87295 46.0987 9.96783L46.093 9.96225Z" fill="#FF5700"/>
</g>
<defs>
<clipPath id="clip0_457_2869">
<rect width="179" height="17" fill="white"/>
</clipPath>
</defs>
</svg>
